<svg width="376" height="76" viewBox="0 0 376 76" fill="none" xmlns="http://www.w3.org/2000/svg">
<path fill-rule="evenodd" clip-rule="evenodd" d="M167.132 19.1602L157.257 68.7314H159.54L169.415 19.1602H167.132Z" fill="white"/>
<path fill-rule="evenodd" clip-rule="evenodd" d="M116.822 20.6958H113.129C110.007 20.6958 109.823 23.2217 109.823 24.8517V39.7921C109.823 41.4239 110.007 43.9498 113.129 43.9498H116.822C119.944 43.9498 120.135 41.4239 120.135 39.7921V24.8517C120.135 23.2217 119.944 20.6958 116.822 20.6958ZM114.978 41.0744C114.431 41.0744 113.987 40.6623 113.987 40.1508C113.987 40.1398 113.992 40.1287 113.992 40.1159V24.5316V24.4617L113.998 24.3955C114.049 23.9374 114.464 23.5731 114.975 23.5731C115.483 23.5731 115.906 23.9374 115.955 24.3955L115.961 24.4617V24.5316V40.1159C115.961 40.1287 115.965 40.1398 115.965 40.1508C115.965 40.6623 115.52 41.0744 114.978 41.0744Z" fill="white"/>
<path fill-rule="evenodd" clip-rule="evenodd" d="M47.3274 20.6958H55.8324V23.5842H51.7847V43.9498H47.3274V20.6958Z" fill="white"/>
<path fill-rule="evenodd" clip-rule="evenodd" d="M61.4244 35.213L62.1921 23.5805H62.4437L63.2077 35.213H61.4244ZM56.4915 43.9498H60.8496L61.2683 37.7684H63.3712L63.7825 43.9498H68.148L65.8193 20.6958H58.8165L56.4915 43.9498Z" fill="white"/>
<path fill-rule="evenodd" clip-rule="evenodd" d="M74.5325 35.8077V40.1844C74.5325 40.7823 74.9714 40.9516 75.2304 40.9516C75.6436 40.9516 75.9301 40.5836 75.9301 40.1844V34.7775C75.9301 34.0471 75.8052 33.2524 74.1432 33.2524H72.336V30.6933H74.2074C75.482 30.6933 75.9301 30.3898 75.9301 28.9713V24.3426C75.9301 23.9471 75.6436 23.5828 75.2304 23.5828C74.9714 23.5828 74.5325 23.7484 74.5325 24.3426V28.1361H70.0715V24.8504C70.0715 23.2222 70.2662 20.6963 73.3828 20.6963H77.0798C80.2019 20.6963 80.3911 23.2222 80.3911 24.8504V28.574C80.3911 31.0925 78.7015 31.7898 77.3626 31.7236V31.959C80.3544 31.8873 80.3911 34.2808 80.3911 35.1142V39.7926C80.3911 41.4244 80.2019 43.9503 77.0798 43.9503H73.3828C70.2662 43.9503 70.0715 41.4244 70.0715 39.7926V35.8077H74.5325Z" fill="white"/>
<path fill-rule="evenodd" clip-rule="evenodd" d="M83.3235 20.6958H93.6412V43.9498H89.4814V23.5842H87.4796V43.9498H83.3235V20.6958Z" fill="white"/>
<path fill-rule="evenodd" clip-rule="evenodd" d="M101.326 33.4809V23.5832H102.498C102.981 23.5832 103.331 24.0155 103.331 24.7422V32.3218C103.331 33.0541 102.981 33.4809 102.498 33.4809H101.326ZM96.8704 43.9507H101.326V36.0436H103.873C106.995 36.0436 107.493 33.5213 107.493 31.8858V24.8507C107.493 23.2226 106.995 20.6948 103.873 20.6948H96.8704V43.9507Z" fill="white"/>
<path fill-rule="evenodd" clip-rule="evenodd" d="M134.363 20.6958H140.163V43.9498H135.702V29.3664H135.542L133.247 43.9498H129.684L127.39 29.3664H127.234V43.9498H122.773V20.6958H128.563L131.458 37.038L134.363 20.6958Z" fill="white"/>
<path fill-rule="evenodd" clip-rule="evenodd" d="M38.2238 12.5742C36.817 6.39459 33.2817 1.36848 32.7986 0.549805C32.0291 1.70331 29.2137 6.13703 27.7812 11.0601C26.2201 16.5498 25.9887 21.4177 26.5268 26.2157C27.0649 31.0082 29.0888 35.9294 29.0888 35.9294C30.1632 38.5161 31.7738 41.2812 32.8225 42.6407C34.356 40.641 37.8951 34.6766 38.9933 26.8817C39.6049 22.5492 39.6288 18.7501 38.2238 12.5742ZM32.7986 41.1027C32.1081 39.7984 31.0282 37.3129 30.9272 33.4734C30.8997 29.7535 32.3873 26.5708 32.8225 25.9048C33.2119 26.5708 34.4846 29.3432 34.6389 33.1367C34.7435 36.8493 33.5167 39.7708 32.7986 41.1027ZM37.8179 23.0588C37.7647 25.4173 37.4837 27.9046 37.1255 29.3892C37.2559 26.8302 36.9456 23.2151 36.356 20.3912C35.7702 17.5672 34.1008 12.8594 32.7711 10.6756C31.548 12.7508 30.0328 16.8276 29.2413 20.3691C28.4442 23.9069 28.4203 28.1897 28.4203 29.4757C28.2091 28.3848 27.6802 24.5324 27.8326 20.6524C27.9575 17.4495 28.7031 14.1637 29.1127 12.6478C30.6738 7.59777 32.4424 4.36906 32.7711 3.85394C33.1035 4.36906 35.3331 8.34469 36.4864 12.5209C37.6343 16.7025 37.8638 20.7021 37.8179 23.0588Z" fill="white"/>
<path fill-rule="evenodd" clip-rule="evenodd" d="M24.1545 43.9461V51.2553C24.1637 51.2461 24.1728 51.235 24.1875 51.2258C26.7367 48.6797 30.8726 48.6797 33.4235 51.2258C35.9782 53.7665 35.9782 57.9022 33.4235 60.4447C33.4143 60.4557 33.4052 60.4649 33.3923 60.4759V60.4778C33.3776 60.4888 33.3666 60.4999 33.3556 60.5127C30.8064 63.0313 27.4805 64.2952 24.1545 64.2952C20.8193 64.2952 17.475 63.0184 14.9277 60.4833C10.4391 55.9999 9.90104 49.0678 13.328 44.0031C13.7872 43.3187 14.3198 42.6693 14.9277 42.0659C17.475 39.5234 20.8193 38.2558 24.1545 38.2558V20.8208C11.3225 20.8208 0.907471 31.2042 0.907471 44.0031C0.907471 56.8131 11.3225 67.1964 24.1545 67.1964C30.8542 67.1964 36.8799 64.3669 41.1187 59.8523V43.9461H24.1545Z" fill="white"/>
<path fill-rule="evenodd" clip-rule="evenodd" d="M95.2576 56.7439H94.8958V61.448H95.2576C95.781 61.448 95.9702 61.299 95.9702 60.7066V57.4595C95.9702 56.8653 95.781 56.7439 95.2576 56.7439ZM132.958 59.888H132.435V62.5224H132.958C133.485 62.5224 133.645 62.3881 133.645 61.8123V60.5962C133.645 60.0186 133.485 59.888 132.958 59.888ZM91.5184 57.4871V60.7195C91.5184 61.3119 91.7075 61.448 92.2273 61.448H92.6074V56.7439H92.2273C91.7075 56.7439 91.5184 56.8947 91.5184 57.4871ZM47.3274 67.1953H140.163V51.6938H47.3274V67.1953ZM57.4045 64.307H55.0501V59.888H53.8416V64.307H51.4872V54.2106H53.8416V58.1071H55.0501V54.2106H57.4045V64.307ZM76.9215 56.1184H73.702V58.1034H76.5836V60.0186H73.702V62.3973H76.9215V64.3143H71.2741V54.2014H76.9215V56.1184ZM98.253 60.7066C98.253 62.7561 97.2135 63.308 94.8958 63.308V64.307H92.6074V63.308C90.2824 63.308 89.23 62.7561 89.23 60.7066V57.5515C89.23 55.491 90.2401 54.9667 92.6074 54.9667V54.2106H94.8958V54.9667C97.2484 54.9667 98.253 55.491 98.253 57.5515V60.7066ZM116.36 56.1184H114.576V64.3143H112.337V56.1184H110.427V54.2014H116.36V56.1184ZM135.996 61.7038C135.996 63.9133 134.991 64.307 132.435 64.307H130.08V54.2106H132.435V58.1071H132.828C135.14 58.1071 135.996 58.648 135.996 60.6662V61.7038Z" fill="white"/>
<path fill-rule="evenodd" clip-rule="evenodd" d="M116.823 20.6958H113.13C110.007 20.6958 109.824 23.2217 109.824 24.8517V39.7921C109.824 41.424 110.007 43.9499 113.13 43.9499H116.823C119.945 43.9499 120.136 41.424 120.136 39.7921V24.8517C120.136 23.2217 119.945 20.6958 116.823 20.6958ZM114.979 41.0744C114.432 41.0744 113.987 40.6623 113.987 40.1509C113.987 40.1398 113.993 40.1288 113.993 40.1159V24.5316V24.4617L113.998 24.3955C114.05 23.9374 114.465 23.5731 114.975 23.5731C115.484 23.5731 115.906 23.9374 115.956 24.3955L115.961 24.4617V24.5316V40.1159C115.961 40.1288 115.965 40.1398 115.965 40.1509C115.965 40.6623 115.521 41.0744 114.979 41.0744Z" fill="white"/>
<path fill-rule="evenodd" clip-rule="evenodd" d="M47.3274 20.6958H55.8325V23.5842H51.7847V43.9499H47.3274V20.6958Z" fill="white"/>
<path fill-rule="evenodd" clip-rule="evenodd" d="M61.4244 35.2131L62.1921 23.5805H62.4437L63.2077 35.2131H61.4244ZM56.4915 43.9499H60.8496L61.2683 37.7684H63.3712L63.7826 43.9499H68.148L65.8193 20.6958H58.8165L56.4915 43.9499Z" fill="white"/>
<path fill-rule="evenodd" clip-rule="evenodd" d="M74.5325 35.8078V40.1845C74.5325 40.7824 74.9715 40.9516 75.2304 40.9516C75.6436 40.9516 75.9301 40.5837 75.9301 40.1845V34.7775C75.9301 34.0472 75.8052 33.2524 74.1432 33.2524H72.336V30.6933H74.2074C75.482 30.6933 75.9301 30.3898 75.9301 28.9714V24.3426C75.9301 23.9471 75.6436 23.5828 75.2304 23.5828C74.9715 23.5828 74.5325 23.7484 74.5325 24.3426V28.1361H70.0715V24.8504C70.0715 23.2222 70.2662 20.6963 73.3828 20.6963H77.0798C80.202 20.6963 80.3911 23.2222 80.3911 24.8504V28.574C80.3911 31.0926 78.7015 31.7898 77.3626 31.7236V31.9591C80.3544 31.8873 80.3911 34.2808 80.3911 35.1142V39.7926C80.3911 41.4245 80.202 43.9504 77.0798 43.9504H73.3828C70.2662 43.9504 70.0715 41.4245 70.0715 39.7926V35.8078H74.5325Z" fill="white"/>
<path fill-rule="evenodd" clip-rule="evenodd" d="M83.3235 20.6958H93.6412V43.9499H89.4814V23.5842H87.4796V43.9499H83.3235V20.6958Z" fill="white"/>
<path fill-rule="evenodd" clip-rule="evenodd" d="M101.326 33.4809V23.5832H102.498C102.981 23.5832 103.331 24.0155 103.331 24.7422V32.3219C103.331 33.0541 102.981 33.4809 102.498 33.4809H101.326ZM96.8704 43.9508H101.326V36.0436H103.873C106.995 36.0436 107.493 33.5214 107.493 31.8859V24.8508C107.493 23.2226 106.995 20.6948 103.873 20.6948H96.8704V43.9508Z" fill="white"/>
<path fill-rule="evenodd" clip-rule="evenodd" d="M134.363 20.6958H140.163V43.9499H135.702V29.3664H135.542L133.247 43.9499H129.684L127.39 29.3664H127.234V43.9499H122.773V20.6958H128.563L131.458 37.0381L134.363 20.6958Z" fill="white"/>
<path fill-rule="evenodd" clip-rule="evenodd" d="M38.2238 12.5742C36.817 6.39461 33.2817 1.36848 32.7987 0.549805C32.0291 1.70331 29.2137 6.13705 27.7812 11.0601C26.2201 16.5499 25.9887 21.4178 26.5268 26.2158C27.0649 31.0083 29.0888 35.9295 29.0888 35.9295C30.1632 38.5162 31.7739 41.2813 32.8225 42.6408C34.3561 40.6411 37.8951 34.6767 38.9934 26.8818C39.6049 22.5492 39.6288 18.7502 38.2238 12.5742ZM32.7987 41.1028C32.1081 39.7985 31.0282 37.313 30.9272 33.4735C30.8997 29.7536 32.3873 26.5709 32.8225 25.9049C33.2119 26.5709 34.4846 29.3433 34.6389 33.1368C34.7436 36.8494 33.5168 39.7709 32.7987 41.1028ZM37.818 23.0588C37.7647 25.4173 37.4837 27.9047 37.1256 29.3893C37.256 26.8303 36.9456 23.2152 36.3561 20.3912C35.7702 17.5672 34.1008 12.8594 32.7711 10.6756C31.548 12.7509 30.0328 16.8277 29.2413 20.3691C28.4442 23.9069 28.4203 28.1898 28.4203 29.4758C28.2091 28.3848 27.6802 24.5324 27.8326 20.6525C27.9575 17.4495 28.7031 14.1638 29.1127 12.6478C30.6738 7.59779 32.4424 4.36907 32.7711 3.85395C33.1035 4.36907 35.3331 8.34471 36.4865 12.5209C37.6343 16.7026 37.8639 20.7021 37.818 23.0588Z" fill="white"/>
<path fill-rule="evenodd" clip-rule="evenodd" d="M24.1545 43.9461V51.2554C24.1637 51.2462 24.1729 51.2351 24.1876 51.2259C26.7367 48.6797 30.8726 48.6797 33.4236 51.2259C35.9783 53.7666 35.9783 57.9023 33.4236 60.4448C33.4144 60.4558 33.4052 60.465 33.3924 60.476V60.4779C33.3777 60.4889 33.3667 60.5 33.3557 60.5128C30.8065 63.0314 27.4805 64.2953 24.1545 64.2953C20.8194 64.2953 17.475 63.0185 14.9277 60.4834C10.4392 56 9.90106 49.0679 13.3281 44.0032C13.7872 43.3188 14.3198 42.6694 14.9277 42.0659C17.475 39.5234 20.8194 38.2559 24.1545 38.2559V20.8208C11.3226 20.8208 0.907471 31.2042 0.907471 44.0032C0.907471 56.8132 11.3226 67.1966 24.1545 67.1966C30.8543 67.1966 36.88 64.3671 41.1188 59.8524V43.9461H24.1545Z" fill="white"/>
<path fill-rule="evenodd" clip-rule="evenodd" d="M95.258 56.7439H94.8962V61.4481H95.258C95.7814 61.4481 95.9705 61.299 95.9705 60.7067V57.4595C95.9705 56.8653 95.7814 56.7439 95.258 56.7439ZM132.959 59.888H132.435V62.5225H132.959C133.486 62.5225 133.646 62.3882 133.646 61.8123V60.5963C133.646 60.0186 133.486 59.888 132.959 59.888ZM91.5187 57.4871V60.7195C91.5187 61.3119 91.7079 61.4481 92.2276 61.4481H92.6078V56.7439H92.2276C91.7079 56.7439 91.5187 56.8947 91.5187 57.4871ZM47.3276 67.1954H140.163V51.6938H47.3276V67.1954ZM57.4048 64.307H55.0503V59.888H53.8419V64.307H51.4874V54.2106H53.8419V58.1071H55.0503V54.2106H57.4048V64.307ZM76.9218 56.1184H73.7024V58.1034H76.5839V60.0186H73.7024V62.3974H76.9218V64.3144H71.2744V54.2014H76.9218V56.1184ZM98.2534 60.7067C98.2534 62.7561 97.2139 63.308 94.8962 63.308V64.307H92.6078V63.308C90.2827 63.308 89.2304 62.7561 89.2304 60.7067V57.5515C89.2304 55.491 90.2405 54.9667 92.6078 54.9667V54.2106H94.8962V54.9667C97.2488 54.9667 98.2534 55.491 98.2534 57.5515V60.7067ZM116.36 56.1184H114.577V64.3144H112.338V56.1184H110.428V54.2014H116.36V56.1184ZM135.996 61.7038C135.996 63.9133 134.992 64.307 132.435 64.307H130.081V54.2106H132.435V58.1071H132.828C135.141 58.1071 135.996 58.648 135.996 60.6662V61.7038Z" fill="white"/>
<path fill-rule="evenodd" clip-rule="evenodd" d="M167.134 19.1602L157.259 68.7315H159.542L169.417 19.1602H167.134Z" fill="white"/>
<path d="M194.595 22.5703H189.964V31.914H187.673V20.623H194.595V22.5703Z" fill="white"/>
<path d="M194.24 31.914L198.167 20.623H200.36L204.287 31.914H201.849L201.161 29.7703H197.381L196.694 31.914H194.24ZM197.987 27.8394H200.54L199.263 23.863L197.987 27.8394Z" fill="white"/>
<path d="M208.122 25.0901H209.35C210.004 25.0901 210.468 24.9647 210.74 24.7138C211.013 24.4629 211.15 24.1301 211.15 23.7156C211.15 23.3229 211.024 23.0038 210.773 22.7583C210.522 22.5129 210.086 22.3901 209.464 22.3901C208.853 22.3901 208.4 22.5183 208.106 22.7747C207.811 23.031 207.593 23.361 207.451 23.7647H205.439C205.482 23.2629 205.621 22.8074 205.856 22.3983C206.09 21.9892 206.393 21.6429 206.764 21.3592C207.135 21.0756 207.558 20.8574 208.032 20.7047C208.507 20.5519 209.011 20.4756 209.546 20.4756C210.059 20.4756 210.55 20.5383 211.019 20.6638C211.488 20.7892 211.902 20.9774 212.262 21.2283C212.622 21.4792 212.909 21.7956 213.121 22.1774C213.334 22.5592 213.44 23.001 213.44 23.5029C213.44 24.0919 213.31 24.5829 213.048 24.9756C212.786 25.3683 212.426 25.701 211.968 25.9738C212.524 26.2029 212.969 26.5438 213.301 26.9965C213.634 27.4492 213.8 28.0083 213.8 28.6738C213.8 29.1865 213.705 29.6501 213.514 30.0647C213.323 30.4792 213.045 30.8338 212.68 31.1283C212.314 31.4229 211.867 31.6519 211.338 31.8156C210.809 31.9792 210.206 32.061 209.53 32.061C208.319 32.061 207.331 31.7856 206.568 31.2347C205.804 30.6838 205.313 29.8192 205.095 28.641H207.288C207.495 29.1538 207.76 29.5301 208.081 29.7701C208.403 30.0101 208.859 30.1301 209.448 30.1301C210.822 30.1301 211.51 29.6119 211.51 28.5756C211.51 27.5392 210.779 27.021 209.317 27.021H208.122V25.0901Z" fill="white"/>
<path d="M224.654 20.623V31.914H222.364V22.5703H218.273V31.914H215.982V20.623H224.654Z" fill="white"/>
<path d="M229.7 27.9376V31.914H227.409V20.623H231.451C232.749 20.623 233.778 20.923 234.536 21.523C235.294 22.123 235.673 23.0285 235.673 24.2394C235.673 25.4394 235.299 26.3558 234.552 26.9885C233.805 27.6212 232.771 27.9376 231.451 27.9376H229.7ZM231.124 26.0067C231.92 26.0067 232.496 25.8649 232.85 25.5812C233.205 25.2976 233.382 24.8503 233.382 24.2394C233.382 23.694 233.205 23.2794 232.85 22.9958C232.496 22.7121 231.92 22.5703 231.124 22.5703H229.7V26.0067H231.124Z" fill="white"/>
<path d="M245.906 27.0701C245.906 27.9319 245.8 28.6765 245.587 29.3038C245.374 29.931 245.077 30.4492 244.695 30.8583C244.313 31.2674 243.855 31.5701 243.32 31.7665C242.786 31.9629 242.202 32.061 241.57 32.061C240.937 32.061 240.356 31.9629 239.827 31.7665C239.298 31.5701 238.842 31.2674 238.46 30.8583C238.079 30.4492 237.781 29.931 237.569 29.3038C237.356 28.6765 237.25 27.9319 237.25 27.0701V25.4665C237.25 24.5938 237.356 23.8438 237.569 23.2165C237.781 22.5892 238.079 22.071 238.46 21.6619C238.842 21.2529 239.298 20.9529 239.827 20.7619C240.356 20.571 240.937 20.4756 241.57 20.4756C242.202 20.4756 242.786 20.571 243.32 20.7619C243.855 20.9529 244.313 21.2529 244.695 21.6619C245.077 22.071 245.374 22.5892 245.587 23.2165C245.8 23.8438 245.906 24.5938 245.906 25.4665V27.0701ZM239.54 27.0701C239.54 28.1501 239.712 28.9301 240.056 29.4101C240.4 29.8901 240.904 30.1301 241.57 30.1301C242.235 30.1301 242.742 29.8901 243.091 29.4101C243.44 28.9301 243.615 28.1501 243.615 27.0701V25.4665C243.615 24.3865 243.44 23.6065 243.091 23.1265C242.742 22.6465 242.235 22.4065 241.57 22.4065C240.904 22.4065 240.4 22.6465 240.056 23.1265C239.712 23.6065 239.54 24.3865 239.54 25.4665V27.0701Z" fill="white"/>
<path d="M253.636 26.7758L256.778 20.623H258.954V31.914H256.761V24.9103L254.307 29.8849H252.916L250.494 24.9594V31.914H248.318V20.623H250.461L253.636 26.7758Z" fill="white"/>
<path d="M263.999 25.1067H267.91V20.623H270.201V31.914H267.91V27.0376H263.999V31.914H261.708V20.623H263.999V25.1067Z" fill="white"/>
<path d="M280.008 20.623V22.5703H275.263V25.1067H279.517V27.0376H275.263V29.983H280.008V31.914H272.972V20.623H280.008Z" fill="white"/>
<path d="M286.296 20.623H288.587V21.4412C289.241 21.4412 289.847 21.5149 290.403 21.6621C290.96 21.8094 291.442 22.0603 291.851 22.4149C292.26 22.7694 292.582 23.2385 292.817 23.8221C293.051 24.4058 293.169 25.134 293.169 26.0067V26.5303C293.169 27.403 293.051 28.1312 292.817 28.7149C292.582 29.2985 292.26 29.7676 291.851 30.1221C291.442 30.4767 290.96 30.7276 290.403 30.8749C289.847 31.0221 289.241 31.0958 288.587 31.0958V31.914H286.296V31.0958C285.641 31.0958 285.033 31.0221 284.471 30.8749C283.91 30.7276 283.424 30.4767 283.015 30.1221C282.606 29.7676 282.287 29.2985 282.058 28.7149C281.829 28.1312 281.714 27.403 281.714 26.5303V26.0067C281.714 25.134 281.829 24.4058 282.058 23.8221C282.287 23.2385 282.606 22.7694 283.015 22.4149C283.424 22.0603 283.91 21.8094 284.471 21.6621C285.033 21.5149 285.641 21.4412 286.296 21.4412V20.623ZM288.587 29.1649C288.969 29.1649 289.301 29.124 289.585 29.0421C289.869 28.9603 290.106 28.8212 290.297 28.6249C290.488 28.4285 290.632 28.1612 290.73 27.823C290.829 27.4849 290.878 27.054 290.878 26.5303V26.0067C290.878 25.483 290.829 25.0521 290.73 24.714C290.632 24.3758 290.488 24.1085 290.297 23.9121C290.106 23.7158 289.869 23.5767 289.585 23.4949C289.301 23.413 288.969 23.3721 288.587 23.3721V29.1649ZM286.296 23.3721C285.914 23.3721 285.581 23.413 285.298 23.4949C285.014 23.5767 284.777 23.7158 284.586 23.9121C284.395 24.1085 284.25 24.3758 284.152 24.714C284.054 25.0521 284.005 25.483 284.005 26.0067V26.5303C284.005 27.054 284.054 27.4849 284.152 27.823C284.25 28.1612 284.395 28.4285 284.586 28.6249C284.777 28.8212 285.014 28.9603 285.298 29.0421C285.581 29.124 285.914 29.1649 286.296 29.1649V23.3721Z" fill="white"/>
<path d="M302.715 20.623V22.5703H299.606V31.914H297.315V22.5703H294.206V20.623H302.715Z" fill="white"/>
<path d="M306.778 20.623V24.763H308.529C309.282 24.763 309.923 24.8558 310.452 25.0412C310.981 25.2267 311.418 25.483 311.761 25.8103C312.105 26.1376 312.356 26.5194 312.514 26.9558C312.672 27.3921 312.751 27.8558 312.751 28.3467C312.751 28.8376 312.672 29.2985 312.514 29.7294C312.356 30.1603 312.105 30.5367 311.761 30.8585C311.418 31.1803 310.981 31.4367 310.452 31.6276C309.923 31.8185 309.282 31.914 308.529 31.914H304.488V20.623H306.778ZM306.778 26.694V29.983H308.398C309.151 29.983 309.683 29.8358 309.994 29.5412C310.305 29.2467 310.46 28.8485 310.46 28.3467C310.46 27.834 310.305 27.4303 309.994 27.1358C309.683 26.8412 309.151 26.694 308.398 26.694H306.778Z" fill="white"/>
<path d="M189.964 42.8337H193.875V38.3501H196.166V49.641H193.875V44.7646H189.964V49.641H187.673V38.3501H189.964V42.8337Z" fill="white"/>
<path d="M197.759 49.641L201.686 38.3501H203.879L207.806 49.641H205.368L204.681 47.4974H200.901L200.214 49.641H197.759ZM201.506 45.5665H204.059L202.783 41.5901L201.506 45.5665Z" fill="white"/>
<path d="M217.269 38.3501L213.8 47.3501C213.614 47.841 213.401 48.2419 213.161 48.5528C212.921 48.8637 212.643 49.1119 212.327 49.2974C212.011 49.4828 211.64 49.611 211.214 49.6819C210.789 49.7528 210.292 49.7883 209.725 49.7883V47.7919C210.02 47.7919 210.276 47.781 210.494 47.7592C210.712 47.7374 210.903 47.6937 211.067 47.6283C211.231 47.5628 211.37 47.4756 211.484 47.3665C211.599 47.2574 211.7 47.121 211.787 46.9574L207.925 38.3501H210.461L212.883 43.9792L214.912 38.3501H217.269Z" fill="white"/>
<path d="M220.646 41.6719C220.646 42.4465 220.79 42.9974 221.08 43.3246C221.369 43.6519 221.873 43.8156 222.593 43.8156C223.117 43.8156 223.518 43.7501 223.796 43.6192C224.074 43.4883 224.273 43.3192 224.393 43.1119V38.3501H226.684V49.641H224.393V45.2228C224.23 45.3428 223.973 45.4601 223.624 45.5746C223.275 45.6892 222.79 45.7465 222.168 45.7465C221.459 45.7465 220.864 45.6674 220.384 45.5092C219.904 45.351 219.511 45.1083 219.206 44.781C218.9 44.4537 218.682 44.0337 218.551 43.521C218.42 43.0083 218.355 42.3919 218.355 41.6719V38.3501H220.646V41.6719Z" fill="white"/>
<path d="M231.729 42.8337H235.64V38.3501H237.931V49.641H235.64V44.7646H231.729V49.641H229.438V38.3501H231.729V42.8337Z" fill="white"/>
<path d="M249.015 44.7972C249.015 45.659 248.909 46.4035 248.696 47.0308C248.483 47.6581 248.186 48.1763 247.804 48.5854C247.422 48.9945 246.964 49.2972 246.43 49.4935C245.895 49.6899 245.311 49.7881 244.679 49.7881C244.046 49.7881 243.465 49.6899 242.936 49.4935C242.407 49.2972 241.951 48.9945 241.57 48.5854C241.188 48.1763 240.89 47.6581 240.678 47.0308C240.465 46.4035 240.359 45.659 240.359 44.7972V43.1935C240.359 42.3208 240.465 41.5708 240.678 40.9435C240.89 40.3163 241.188 39.7981 241.57 39.389C241.951 38.9799 242.407 38.6799 242.936 38.489C243.465 38.2981 244.046 38.2026 244.679 38.2026C245.311 38.2026 245.895 38.2981 246.43 38.489C246.964 38.6799 247.422 38.9799 247.804 39.389C248.186 39.7981 248.483 40.3163 248.696 40.9435C248.909 41.5708 249.015 42.3208 249.015 43.1935V44.7972ZM242.65 44.7972C242.65 45.8772 242.821 46.6572 243.165 47.1372C243.509 47.6172 244.013 47.8572 244.679 47.8572C245.344 47.8572 245.851 47.6172 246.2 47.1372C246.55 46.6572 246.724 45.8772 246.724 44.7972V43.1935C246.724 42.1135 246.55 41.3335 246.2 40.8535C245.851 40.3735 245.344 40.1335 244.679 40.1335C244.013 40.1335 243.509 40.3735 243.165 40.8535C242.821 41.3335 242.65 42.1135 242.65 43.1935V44.7972Z" fill="white"/>
<path d="M250.804 43.9956H255.042V45.8283H250.804V43.9956Z" fill="white"/>
<path d="M264.211 38.3501V40.2974H261.102V49.641H258.811V40.2974H255.702V38.3501H264.211Z" fill="white"/>
<path d="M273.02 38.3501V40.2974H268.275V42.8337H272.529V44.7646H268.275V47.7101H273.02V49.641H265.984V38.3501H273.02Z" fill="white"/>
<path d="M274.238 49.641L277.412 43.8156L274.581 38.3501H277.068L278.868 41.9501L280.685 38.3501H283.156L280.308 43.8156L283.499 49.641H281.028L278.868 45.7956L276.725 49.641H274.238Z" fill="white"/>
<path d="M287.644 42.8337H291.555V38.3501H293.846V49.641H291.555V44.7646H287.644V49.641H285.353V38.3501H287.644V42.8337Z" fill="white"/>
<path d="M298.907 38.3501V45.4356L303.62 38.3501H305.453V49.641H303.162V42.6374L298.498 49.641H296.616V38.3501H298.907Z" fill="white"/>
<path d="M309.729 41.6719C309.729 42.4465 309.874 42.9974 310.163 43.3246C310.452 43.6519 310.957 43.8156 311.677 43.8156C312.2 43.8156 312.601 43.7501 312.879 43.6192C313.158 43.4883 313.357 43.3192 313.477 43.1119V38.3501H315.768V49.641H313.477V45.2228C313.313 45.3428 313.057 45.4601 312.708 45.5746C312.358 45.6892 311.873 45.7465 311.251 45.7465C310.542 45.7465 309.948 45.6674 309.468 45.5092C308.988 45.351 308.595 45.1083 308.289 44.781C307.984 44.4537 307.766 44.0337 307.635 43.521C307.504 43.0083 307.438 42.3919 307.438 41.6719V38.3501H309.729V41.6719Z" fill="white"/>
<path d="M325.559 38.3501V40.2974H320.814V42.8337H325.068V44.7646H320.814V47.7101H325.559V49.641H318.523V38.3501H325.559Z" fill="white"/>
<path d="M333.599 41.8517C333.489 41.3172 333.277 40.8972 332.96 40.5917C332.644 40.2863 332.208 40.1335 331.651 40.1335C330.986 40.1335 330.481 40.3735 330.138 40.8535C329.794 41.3335 329.622 42.1135 329.622 43.1935V44.7972C329.622 45.8554 329.794 46.6299 330.138 47.1208C330.481 47.6117 330.986 47.8572 331.651 47.8572C332.229 47.8572 332.669 47.7154 332.969 47.4317C333.269 47.1481 333.479 46.7172 333.599 46.139H335.775C335.589 47.4154 335.148 48.3426 334.449 48.9208C333.751 49.499 332.819 49.7881 331.651 49.7881C331.019 49.7881 330.438 49.6899 329.909 49.4935C329.379 49.2972 328.924 48.9945 328.542 48.5854C328.16 48.1763 327.863 47.6581 327.65 47.0308C327.438 46.4035 327.331 45.659 327.331 44.7972V43.1935C327.331 42.3208 327.438 41.5708 327.65 40.9435C327.863 40.3163 328.16 39.7981 328.542 39.389C328.924 38.9799 329.379 38.6799 329.909 38.489C330.438 38.2981 331.019 38.2026 331.651 38.2026C332.775 38.2026 333.699 38.4999 334.425 39.0945C335.15 39.689 335.606 40.6081 335.791 41.8517H333.599Z" fill="white"/>
<path d="M340.214 43.3737L343.716 38.3501H346.53L342.358 43.8483L346.809 49.641H343.912L340.214 44.6828V49.641H337.923V38.3501H340.214V43.3737Z" fill="white"/>
<path d="M350.939 38.3501V45.4356L355.651 38.3501H357.484V49.641H355.193V42.6374L350.53 49.641H348.648V38.3501H350.939Z" fill="white"/>
<path d="M362.53 38.3501V45.4355L367.243 38.3501H369.076V49.641H366.785V42.6373L362.121 49.641H360.24V38.3501H362.53ZM367.898 35.2573C367.898 36.0755 367.647 36.6919 367.145 37.1064C366.643 37.521 365.858 37.7282 364.789 37.7282C363.72 37.7282 362.931 37.521 362.424 37.1064C361.917 36.6919 361.663 36.0755 361.663 35.2573H363.774C363.774 35.5628 363.842 35.8082 363.979 35.9937C364.115 36.1791 364.385 36.2719 364.789 36.2719C365.192 36.2719 365.462 36.1791 365.599 35.9937C365.735 35.8082 365.803 35.5628 365.803 35.2573H367.898Z" fill="white"/>
<path d="M189.964 65.4376H194.055V56.0776H196.346V65.4376H197.982V69.4958H195.904V67.3685H187.673V56.0776H189.964V65.4376Z" fill="white"/>
<path d="M206.922 56.0776V58.0249H202.177V60.5613H206.431V62.4922H202.177V65.4376H206.922V67.3685H199.886V56.0776H206.922Z" fill="white"/>
<path d="M211.329 60.5613H215.24V56.0776H217.531V67.3685H215.24V62.4922H211.329V67.3685H209.039V56.0776H211.329V60.5613Z" fill="white"/>
<path d="M227.829 56.0771V58.0244H224.72V67.3681H222.429V58.0244H219.32V56.0771H227.829Z" fill="white"/>
<path d="M231.894 63.3917V67.3681H229.603V56.0771H233.645C234.943 56.0771 235.971 56.3771 236.729 56.9771C237.487 57.5771 237.866 58.4826 237.866 59.6935C237.866 60.8935 237.493 61.8099 236.746 62.4426C235.998 63.0753 234.965 63.3917 233.645 63.3917H231.894ZM233.317 61.4608C234.114 61.4608 234.689 61.319 235.044 61.0353C235.398 60.7517 235.576 60.3044 235.576 59.6935C235.576 59.1481 235.398 58.7335 235.044 58.4499C234.689 58.1662 234.114 58.0244 233.317 58.0244H231.894V61.4608H233.317Z" fill="white"/>
</svg>
