<svg width="145" height="70" viewBox="0 0 145 70" fill="none" xmlns="http://www.w3.org/2000/svg">
<path fill-rule="evenodd" clip-rule="evenodd" d="M98.4033 58.6964H98.0287V63.5576H98.4033C98.9463 63.5576 99.1436 63.4056 99.1436 62.7916V59.4353C99.1436 58.8204 98.9463 58.6964 98.4033 58.6964ZM137.447 61.9457H136.908V64.6727H137.447C137.995 64.6727 138.161 64.5325 138.161 63.9353L138.161 62.6795C138.161 62.0825 137.995 61.9457 137.447 61.9457ZM94.5335 59.4639V62.8078C94.5335 63.419 94.7285 63.5576 95.2696 63.5576H95.6582V58.6964H95.2696C94.7285 58.6964 94.5335 58.8512 94.5335 59.4639ZM144.907 53.4748H48.7653V69.5002H144.907V53.4748ZM59.2032 66.5128H56.7671V61.9457H55.5129V66.5128H53.0754V56.0786H55.5129V60.1049H56.7671V56.0786H59.2032V66.5128ZM79.4135 58.05H76.0818V60.1014H79.0633V62.0825H76.0818V64.5409H79.4135V66.5205H73.5626V56.0683H79.4135V58.05ZM101.51 62.7916C101.51 64.9099 100.426 65.4825 98.0286 65.4825L98.0287 66.5128H95.6582V65.4825C93.2534 65.4825 92.1638 64.9099 92.1638 62.7916V59.5323C92.1638 57.4021 93.2074 56.86 95.6582 56.86V56.0786H98.0287V56.86C100.466 56.86 101.51 57.4021 101.51 59.5323V62.7916ZM120.258 58.05H118.408V66.5205H116.095V58.05H114.114V56.0683H120.258V58.05ZM140.598 63.824C140.598 66.1092 139.554 66.5128 136.908 66.5128H134.47V56.0786H136.908V60.1049H137.312C139.707 60.1049 140.598 60.6618 140.598 62.75V63.824ZM24.7688 45.4635V53.0217C24.7784 53.0107 24.7868 53.0003 24.7997 52.9872C27.4402 50.3586 31.7258 50.3586 34.368 52.9872C37.0102 55.6192 37.0102 59.8929 34.368 62.519C34.3561 62.5329 34.3456 62.5431 34.3323 62.5522C34.3323 62.555 34.3323 62.555 34.3315 62.555C34.3214 62.5675 34.3062 62.579 34.2937 62.5929C31.6594 65.195 28.2141 66.5043 24.7688 66.5043C21.309 66.5043 17.8501 65.1824 15.208 62.5606C10.5586 57.9266 10.0062 50.7578 13.5519 45.5246C14.0307 44.8155 14.5797 44.1451 15.208 43.5201C17.8501 40.8907 21.309 39.582 24.7688 39.582V21.5568C11.4747 21.5568 0.695801 32.2922 0.695801 45.5246C0.695801 58.7646 11.4747 69.5002 24.7688 69.5002C31.7029 69.5002 37.9458 66.577 42.3368 61.912L42.3369 45.4635H24.7688ZM39.338 13.0301C37.8816 6.64096 34.224 1.44857 33.7206 0.599121C32.9237 1.79232 30.0044 6.3759 28.5249 11.4672C26.9053 17.1414 26.6669 22.1747 27.226 27.1332C27.7799 32.088 29.8761 37.1762 29.8761 37.1762C30.9891 39.8489 32.658 42.7097 33.7422 44.1156C35.3336 42.0481 38.9952 35.8804 40.1337 27.8209C40.7685 23.3434 40.7952 19.4181 39.338 13.0301ZM33.7206 42.5269C33.004 41.1768 31.8894 38.6054 31.7835 34.6358C31.7567 30.794 33.2929 27.5009 33.7422 26.8147C34.1437 27.5007 35.4679 30.3689 35.6263 34.2899C35.7319 38.1273 34.4619 41.1478 33.7206 42.5269ZM38.9162 23.8726C38.8611 26.3085 38.5694 28.8826 38.1996 30.4179C38.3322 27.769 38.0144 24.0318 37.4023 21.1138C36.7937 18.1937 35.0699 13.3265 33.6923 11.0677C32.4224 13.2155 30.854 17.4317 30.0349 21.0873C29.2103 24.7485 29.1857 29.1753 29.1857 30.5022C28.9675 29.378 28.4197 25.3918 28.5766 21.3807C28.7038 18.0698 29.4786 14.6727 29.9029 13.1074C31.5191 7.88371 33.3491 4.54776 33.6923 4.01899C34.0376 4.54776 36.3431 8.65632 37.5375 12.9758C38.7283 17.3004 38.9671 21.4336 38.9162 23.8726ZM138.904 21.4289H144.907V45.469H140.287V30.3925H140.126L137.747 45.469H134.057L131.681 30.3925H131.516V45.469H126.897V21.4289H132.898L135.897 38.3248L138.904 21.4289ZM104.692 34.6471V24.4143H105.904C106.403 24.4143 106.765 24.8588 106.765 25.6094V33.4507C106.765 34.2044 106.403 34.6471 105.904 34.6471H104.692ZM100.075 45.469H104.692V37.2952H107.331C110.563 37.2952 111.075 34.6838 111.075 32.9993V25.724C111.075 24.0401 110.563 21.4289 107.33 21.4289H100.075V45.469ZM86.0431 21.4289H96.73V45.469H92.4237V24.4138H90.3495V45.469H86.0431V21.4289ZM76.9368 37.051V41.5751C76.9368 42.1961 77.3958 42.37 77.6619 42.37C78.0916 42.37 78.388 41.9897 78.388 41.5751V35.9857C78.388 35.2307 78.2557 34.4088 76.5381 34.4088H74.6611V31.7648H76.6008C77.921 31.7648 78.388 31.4515 78.388 29.9808V25.1992C78.388 24.7879 78.0916 24.4138 77.6619 24.4138C77.3958 24.4138 76.9364 24.5833 76.9364 25.1992L76.9368 29.1221H72.3175V25.7236C72.3175 24.0397 72.5168 21.4289 75.7471 21.4289H79.5768C82.8108 21.4289 83.0064 24.0397 83.0064 25.7238L83.0066 29.5707C83.0066 32.1791 81.2578 32.8988 79.8712 32.8294V33.0711C82.9712 32.9988 83.0064 35.4725 83.0064 36.3344L83.0066 41.1721C83.0066 42.8563 82.8108 45.469 79.5768 45.469H75.7471C72.5168 45.469 72.3175 42.8563 72.3175 41.1721V37.051H76.9368ZM63.3652 36.4362L64.1602 24.4104H64.4214L65.2137 36.4362H63.3652ZM58.2545 45.469H62.772L63.2024 39.0785H65.3807L65.8082 45.469H70.3266L67.9188 21.4289H60.663L58.2545 45.469ZM48.7653 21.4289H57.572V24.4138H53.3809V45.469H48.7653V21.4289ZM120.738 21.4289H116.912C113.678 21.4289 113.487 24.0397 113.487 25.7238V41.1721C113.487 42.8563 113.678 45.469 116.912 45.469H120.738C123.971 45.469 124.167 42.8563 124.167 41.1721L124.167 25.7236C124.167 24.0397 123.971 21.4289 120.738 21.4289ZM118.829 42.4972C118.263 42.4972 117.805 42.0687 117.805 41.5428C117.805 41.531 117.806 41.5185 117.806 41.5071V25.3925V25.32L117.81 25.2557C117.865 24.7759 118.299 24.4022 118.827 24.4022C119.354 24.4022 119.788 24.7759 119.842 25.2557L119.847 25.32C119.848 25.332 119.848 25.3799 119.847 25.3925L119.847 41.5071C119.848 41.5185 119.849 41.531 119.849 41.5428C119.849 42.0687 119.39 42.4972 118.829 42.4972Z" fill="white"/>
</svg>
