<svg width="319" height="50" viewBox="0 0 319 50" fill="none" xmlns="http://www.w3.org/2000/svg">
<path fill-rule="evenodd" clip-rule="evenodd" d="M40.1895 8.3242C40.1544 8.84128 40.2118 12.0008 37.4049 10.4091C34.5981 8.81739 28.8184 4.84134 25.623 2.45262C22.4277 0.0639367 21.2471 0.233425 20.7564 0.097082C20.2658 -0.0392605 19.8517 -0.0244955 19.3748 0.0946304C18.8978 0.213756 18.358 0.437191 16.5233 1.61707C14.6886 2.79696 11.5591 4.93326 9.43839 6.42147C7.31769 7.90969 6.20586 8.74984 5.60811 9.52181C5.01038 10.2938 4.9268 10.9976 5.45533 11.5289C5.98387 12.0602 7.12456 12.419 12.4597 13.1537C17.7949 13.8884 27.3245 14.9991 32.6688 15.5723C33.598 15.672 42.1343 16.0313 42.1883 18.3307C42.2307 20.1331 42.2847 22.565 42.2279 24.2229C42.1712 25.8809 42.2408 26.385 41.9182 26.6005C41.5956 26.816 40.8807 26.7428 35.2543 26.1771C29.6279 25.6114 18.8566 24.349 13.3133 23.5428C7.76997 22.7366 7.2339 22.7616 7.06882 21.7955C6.9037 20.8295 7.10954 18.8723 7.18091 17.8891C7.25226 16.906 7.36564 16.213 8.00764 16.2666C8.64966 16.3201 9.71638 17.4864 11.2197 17.6934C12.723 17.9004 14.9289 17.0198 16.9336 17.2144C18.9383 17.4091 21.5554 19.1368 24.1871 19.363C26.8189 19.5892 29.5541 18.3647 31.3447 18.3272C33.0013 18.2926 37.074 19.5068 38.3095 20.5933C39.0369 21.2331 39.0925 21.9651 39.0015 22.5014C38.9106 23.0377 38.6731 23.3782 37.7229 23.2885C36.7726 23.1989 34.6275 21.8165 32.3172 21.562C30.007 21.3074 27.6076 22.5613 25.5264 22.393C22.9539 22.1851 20.8057 20.5532 17.9919 20.0641C14.6848 19.4892 9.33635 21.2359 9.58426 21.7848C9.70518 22.0525 14.7308 21.1048 17.6427 21.885C19.4428 22.3673 22.2469 23.7383 24.9389 24.0939C27.6308 24.4496 30.0533 23.1994 32.5273 23.4845C35.0013 23.7697 37.2838 25.1147 38.5253 25.1477C39.4879 25.1733 40.7359 24.5343 40.7541 22.7096C40.7627 21.8444 40.7637 20.8458 40.3829 20.0514C40.0021 19.2569 39.3739 18.6675 38.021 18.1232C36.6682 17.5789 34.5463 16.5916 32.1026 16.4843C29.6589 16.3771 26.8934 17.7711 24.2614 17.5419C21.8618 17.333 19.5456 16.0596 16.9319 15.6852C15.2733 15.4476 13.3348 16.7677 11.3736 16.1347C9.65907 15.5814 5.98364 12.608 5.67561 16.4475C5.55585 17.9401 5.32893 19.817 5.3511 21.3031C5.37327 22.7892 5.85346 23.3321 6.20311 23.7548C6.55272 24.1775 6.77803 24.4224 12.7148 25.2587C18.6515 26.095 30.9047 27.6507 36.0302 28.0533C41.1557 28.4559 42.5865 28.4908 43.0911 28.1567C43.5957 27.8226 43.9885 27.3596 44.0134 26.279C44.0383 25.1983 44.1328 25.1628 44.0988 23.4788C44.0647 21.7947 44.0519 19.4826 43.9698 17.7587C43.8204 14.6253 38.9603 14.263 33.7226 13.7419C28.1589 13.1883 18.1788 12.0325 13.1544 11.3259C8.13 10.6193 8.06136 10.3619 8.23409 10.0853C8.40678 9.8087 8.82079 9.51296 10.5065 8.3374C12.1922 7.16186 15.1495 5.10651 16.8278 3.95315C18.5061 2.79979 18.9054 2.54839 19.3114 2.42534C19.7175 2.30227 20.1303 2.30751 20.594 2.35304C21.0577 2.39855 21.9442 2.36834 24.5228 4.30049C26.445 5.74075 36.0005 12.7434 38.9636 13.2579C41.3795 13.5084 42.1527 11.1912 42.3884 10.3402C42.6299 8.41643 42.7125 7.44385 44.3369 6.37417C44.4636 6.29082 44.6824 6.11001 44.8061 6.07456C45.4293 5.57414 46.0824 5.00349 46.5986 4.36534C46.837 4.07066 46.9261 3.93171 47.1314 3.54023C47.4662 3.53897 47.9481 3.41099 48.4803 3.66353C48.7128 3.77391 48.7441 3.88165 48.8832 4.00162C48.9198 3.83956 48.8693 3.70259 48.7885 3.56791C48.6759 3.38043 48.5873 3.34807 48.3388 3.21779C48.8485 2.94068 48.7589 2.71492 48.8309 2.43735L48.7657 2.40317C48.5666 2.76331 48.2098 2.90311 47.9115 2.98404C46.8811 3.2636 47.6142 2.79718 45.7709 2.4997C44.3373 2.2683 42.1875 2.46997 41.1393 3.63729C41.0625 3.72276 41.0229 3.80131 40.9348 3.90587C40.7628 4.32721 40.5922 4.58294 40.4744 5.04404C40.2006 6.11514 40.166 7.22489 40.1895 8.3242ZM43.5498 3.24128C43.761 3.35198 43.8465 3.62599 43.7358 3.83724C43.5613 4.17017 43.0526 4.11667 42.9407 3.75846C42.8328 3.41271 43.1996 3.05771 43.5498 3.24128Z" fill="url(#paint0_linear_1060_2)"/>
<path d="M9.30463 45.5745C9.30463 46.0758 9.1326 46.4986 8.78853 46.8426C8.44446 47.1965 8.02174 47.3735 7.52039 47.3735H2.18239V46.1496H7.52039C7.67767 46.1496 7.81039 46.0906 7.91852 45.9726C8.03649 45.8645 8.09547 45.7318 8.09547 45.5745V43.9967H2.38883C1.8973 43.9967 1.47459 43.8246 1.12068 43.4806C0.776615 43.1267 0.60458 42.704 0.60458 42.2124V37.2283C0.60458 36.7368 0.776615 36.319 1.12068 35.9749C1.47459 35.621 1.8973 35.4441 2.38883 35.4441H7.52039C8.02174 35.4441 8.44446 35.621 8.78853 35.9749C9.1326 36.319 9.30463 36.7368 9.30463 37.2283V45.5745ZM2.38883 42.7875H7.52039C7.67767 42.7875 7.81039 42.7335 7.91852 42.6253C8.03649 42.5074 8.09547 42.3697 8.09547 42.2124V37.2283C8.09547 37.071 8.03649 36.9383 7.91852 36.8302C7.81039 36.7122 7.67767 36.6532 7.52039 36.6532H2.38883C2.23154 36.6532 2.09391 36.7122 1.97594 36.8302C1.86781 36.9383 1.81374 37.071 1.81374 37.2283V42.2124C1.81374 42.3697 1.86781 42.5074 1.97594 42.6253C2.09391 42.7335 2.23154 42.7875 2.38883 42.7875ZM17.5176 35.4441C18.019 35.4441 18.4417 35.621 18.7858 35.9749C19.1397 36.319 19.3166 36.7368 19.3166 37.2283V40.325H11.811V42.2124C11.811 42.3697 11.865 42.5074 11.9732 42.6253C12.0911 42.7335 12.2288 42.7875 12.3861 42.7875H19.3166V43.9967H12.3861C11.8945 43.9967 11.4718 43.8246 11.1179 43.4806C10.7738 43.1267 10.6018 42.704 10.6018 42.2124V37.2283C10.6018 36.7368 10.7738 36.319 11.1179 35.9749C11.4718 35.621 11.8945 35.4441 12.3861 35.4441H17.5176ZM11.811 39.1158H18.0927V37.2283C18.0927 37.071 18.0337 36.9383 17.9158 36.8302C17.8076 36.7122 17.6749 36.6532 17.5176 36.6532H12.3861C12.2288 36.6532 12.0911 36.7122 11.9732 36.8302C11.865 36.9383 11.811 37.071 11.811 37.2283V39.1158ZM22.5958 35.4441H27.7274C28.2287 35.4441 28.6515 35.621 28.9955 35.9749C29.3494 36.319 29.5264 36.7368 29.5264 37.2283V42.2124C29.5264 42.704 29.3494 43.1267 28.9955 43.4806C28.6515 43.8246 28.2287 43.9967 27.7274 43.9967H22.5958C22.1043 43.9967 21.6816 43.8246 21.3277 43.4806C20.9836 43.1267 20.8116 42.704 20.8116 42.2124V37.2283C20.8116 36.7368 20.9836 36.319 21.3277 35.9749C21.6816 35.621 22.1043 35.4441 22.5958 35.4441ZM27.7274 36.6532H22.5958C22.4385 36.6532 22.3009 36.7122 22.1829 36.8302C22.0748 36.9383 22.0207 37.071 22.0207 37.2283V42.2124C22.0207 42.3697 22.0748 42.5074 22.1829 42.6253C22.3009 42.7335 22.4385 42.7875 22.5958 42.7875H27.7274C27.8847 42.7875 28.0174 42.7335 28.1255 42.6253C28.2435 42.5074 28.3025 42.3697 28.3025 42.2124V37.2283C28.3025 37.071 28.2435 36.9383 28.1255 36.8302C28.0174 36.7122 27.8847 36.6532 27.7274 36.6532ZM32.2748 42.7875V43.9967H31.0656V42.7875H32.2748ZM41.1498 35.4441C41.6413 35.4441 42.0591 35.621 42.4032 35.9749C42.7571 36.319 42.934 36.7368 42.934 37.2283V42.2124C42.934 42.704 42.7571 43.1267 42.4032 43.4806C42.0591 43.8246 41.6413 43.9967 41.1498 43.9967H35.4284V47.3882H34.2192V35.4441H41.1498ZM41.7249 42.2124V37.2283C41.7249 37.071 41.6659 36.9383 41.5479 36.8302C41.4398 36.7122 41.3071 36.6532 41.1498 36.6532H36.0182C35.861 36.6532 35.7233 36.7122 35.6054 36.8302C35.4874 36.9383 35.4284 37.071 35.4284 37.2283V42.2124C35.4284 42.3697 35.4874 42.5074 35.6054 42.6253C35.7233 42.7335 35.861 42.7875 36.0182 42.7875H41.1498C41.3071 42.7875 41.4398 42.7335 41.5479 42.6253C41.6659 42.5074 41.7249 42.3697 41.7249 42.2124ZM52.5345 45.5892C52.5345 46.0906 52.3625 46.5133 52.0184 46.8574C51.6743 47.2113 51.2516 47.3882 50.7503 47.3882H45.4123V46.1643H50.7503C50.9076 46.1643 51.0403 46.1053 51.1484 45.9874C51.2664 45.8792 51.3254 45.7465 51.3254 45.5892V43.9967H45.6187C45.1272 43.9967 44.7045 43.8246 44.3506 43.4806C44.0065 43.1267 43.8345 42.704 43.8345 42.2124V35.4736H45.0436V42.2124C45.0436 42.3697 45.0977 42.5074 45.2058 42.6253C45.3238 42.7335 45.4614 42.7875 45.6187 42.7875H50.7503C50.9076 42.7875 51.0403 42.7335 51.1484 42.6253C51.2664 42.5074 51.3254 42.3697 51.3254 42.2124V35.4736H52.5345V45.5892Z" fill="white"/>
<line x1="69.5799" y1="0.618317" x2="69.5799" y2="49.3784" stroke="white" stroke-width="2.12605"/>
<path d="M85.8018 18C85.2685 18 84.8098 17.8133 84.4258 17.44C84.0525 17.056 83.8658 16.5973 83.8658 16.064V6.48H85.1778V16.064C85.1778 16.2347 85.2365 16.384 85.3538 16.512C85.4818 16.6293 85.6311 16.688 85.8018 16.688H93.4338C93.6045 16.688 93.7538 16.6293 93.8818 16.512C94.0098 16.384 94.0738 16.2347 94.0738 16.064V6.48H95.3858V16.688H96.0258V19.312H94.7298V18H85.8018ZM104.53 8.72H106.306V18H105.01V10.192L98.6262 18H96.8502V8.72H98.1462V16.528L104.53 8.72ZM115.292 8.72C115.825 8.72 116.279 8.912 116.652 9.296C117.036 9.66933 117.228 10.1227 117.228 10.656V16.064C117.228 16.5973 117.036 17.056 116.652 17.44C116.279 17.8133 115.825 18 115.292 18H113.084V21.68H111.772V18H109.564C109.361 18 109.153 17.936 108.94 17.808C108.737 17.68 108.545 17.52 108.364 17.328C108.193 17.136 108.049 16.928 107.932 16.704C107.825 16.48 107.772 16.2667 107.772 16.064V10.656C107.772 10.4533 107.825 10.24 107.932 10.016C108.049 9.792 108.193 9.584 108.364 9.392C108.545 9.2 108.737 9.04 108.94 8.912C109.153 8.784 109.361 8.72 109.564 8.72H111.772V8.24H113.084V8.72H115.292ZM115.916 16.064V10.656C115.916 10.4853 115.852 10.3413 115.724 10.224C115.607 10.096 115.463 10.032 115.292 10.032H113.084V16.688H115.292C115.463 16.688 115.607 16.6293 115.724 16.512C115.852 16.384 115.916 16.2347 115.916 16.064ZM111.772 10.032H109.58C109.409 10.032 109.26 10.096 109.132 10.224C109.004 10.3413 108.94 10.4853 108.94 10.656V16.064C108.94 16.2347 109.004 16.384 109.132 16.512C109.26 16.6293 109.409 16.688 109.58 16.688H111.772V10.032ZM126.214 8.72C126.747 8.72 127.201 8.912 127.574 9.296C127.958 9.66933 128.15 10.1227 128.15 10.656V16.064C128.15 16.5973 127.958 17.056 127.574 17.44C127.201 17.8133 126.747 18 126.214 18H120.006V21.68H118.694V8.72H126.214ZM126.838 16.064V10.656C126.838 10.4853 126.774 10.3413 126.646 10.224C126.529 10.096 126.385 10.032 126.214 10.032H120.646C120.475 10.032 120.326 10.096 120.198 10.224C120.07 10.3413 120.006 10.4853 120.006 10.656V16.064C120.006 16.2347 120.07 16.384 120.198 16.512C120.326 16.6293 120.475 16.688 120.646 16.688H126.214C126.385 16.688 126.529 16.6293 126.646 16.512C126.774 16.384 126.838 16.2347 126.838 16.064ZM131.552 8.72H137.12C137.664 8.72 138.122 8.912 138.496 9.296C138.88 9.66933 139.072 10.1227 139.072 10.656V16.064C139.072 16.5973 138.88 17.056 138.496 17.44C138.122 17.8133 137.664 18 137.12 18H131.552C131.018 18 130.56 17.8133 130.176 17.44C129.802 17.056 129.616 16.5973 129.616 16.064V10.656C129.616 10.1227 129.802 9.66933 130.176 9.296C130.56 8.912 131.018 8.72 131.552 8.72ZM137.12 10.032H131.552C131.381 10.032 131.232 10.096 131.104 10.224C130.986 10.3413 130.928 10.4853 130.928 10.656V16.064C130.928 16.2347 130.986 16.384 131.104 16.512C131.232 16.6293 131.381 16.688 131.552 16.688H137.12C137.29 16.688 137.434 16.6293 137.552 16.512C137.68 16.384 137.744 16.2347 137.744 16.064V10.656C137.744 10.4853 137.68 10.3413 137.552 10.224C137.434 10.096 137.29 10.032 137.12 10.032ZM149.29 12.8L149.354 13.072C149.78 13.4667 149.994 13.9413 149.994 14.496V16.08C149.994 16.6133 149.807 17.0667 149.434 17.44C149.06 17.8133 148.607 18 148.074 18H140.538V8.72H147.578C148.111 8.72 148.564 8.90667 148.938 9.28C149.311 9.65333 149.498 10.1067 149.498 10.64V11.952C149.498 12.24 149.428 12.5227 149.29 12.8ZM147.578 10.016H142.458C142.042 10.016 141.834 10.016 141.834 10.016C141.834 10.016 141.834 10.224 141.834 10.64V12.576C141.823 12.576 141.866 12.576 141.962 12.576C142.058 12.576 142.223 12.576 142.458 12.576H147.578C147.748 12.576 147.892 12.5173 148.01 12.4C148.127 12.272 148.186 12.1227 148.186 11.952V10.64C148.186 10.4693 148.127 10.3253 148.01 10.208C147.892 10.08 147.748 10.016 147.578 10.016ZM148.698 16.08V14.496C148.698 14.3253 148.634 14.1813 148.506 14.064C148.388 13.936 148.244 13.872 148.074 13.872H141.834C141.834 13.872 141.834 13.936 141.834 14.064C141.834 14.1813 141.834 14.3253 141.834 14.496C141.834 15.6693 141.834 16.272 141.834 16.304C141.834 16.336 141.834 16.4693 141.834 16.704H148.074C148.244 16.704 148.388 16.6453 148.506 16.528C148.634 16.4 148.698 16.2507 148.698 16.08ZM151.46 18V8.72H152.772V12.4H157.06C157.593 12.4 158.046 12.592 158.42 12.976C158.804 13.3493 158.996 13.8027 158.996 14.336V16.064C158.996 16.5973 158.804 17.056 158.42 17.44C158.046 17.8133 157.593 18 157.06 18H151.46ZM157.684 14.336C157.684 14.1653 157.62 14.0213 157.492 13.904C157.374 13.776 157.23 13.712 157.06 13.712H153.412C153.241 13.712 153.092 13.776 152.964 13.904C152.836 14.0213 152.772 14.1653 152.772 14.336V16.064C152.772 16.2347 152.836 16.384 152.964 16.512C153.092 16.6293 153.241 16.688 153.412 16.688H157.06C157.23 16.688 157.374 16.6293 157.492 16.512C157.62 16.384 157.684 16.2347 157.684 16.064V14.336ZM159.636 8.72H160.916V18H159.636V8.72ZM169.885 8.72C170.429 8.72 170.888 8.912 171.261 9.296C171.645 9.66933 171.837 10.1227 171.837 10.656V14.016H163.693V16.064C163.693 16.2347 163.752 16.384 163.869 16.512C163.997 16.6293 164.147 16.688 164.317 16.688H171.837V18H164.317C163.784 18 163.325 17.8133 162.941 17.44C162.568 17.056 162.381 16.5973 162.381 16.064V10.656C162.381 10.1227 162.568 9.66933 162.941 9.296C163.325 8.912 163.784 8.72 164.317 8.72H169.885ZM163.693 12.704H170.509V10.656C170.509 10.4853 170.445 10.3413 170.317 10.224C170.2 10.096 170.056 10.032 169.885 10.032H164.317C164.147 10.032 163.997 10.096 163.869 10.224C163.752 10.3413 163.693 10.4853 163.693 10.656V12.704ZM194.784 8.72C195.318 8.72 195.771 8.912 196.144 9.296C196.528 9.66933 196.72 10.1227 196.72 10.656V18H195.408V10.656C195.408 10.4853 195.344 10.3413 195.216 10.224C195.099 10.096 194.955 10.032 194.784 10.032H189.216C189.046 10.032 188.896 10.096 188.768 10.224C188.64 10.3413 188.576 10.4853 188.576 10.656V18H187.264V8.72H194.784ZM205.706 8.72C206.239 8.72 206.693 8.912 207.066 9.296C207.45 9.66933 207.642 10.1227 207.642 10.656V16.064C207.642 16.5973 207.45 17.056 207.066 17.44C206.693 17.8133 206.239 18 205.706 18H199.498V21.68H198.186V8.72H205.706ZM206.33 16.064V10.656C206.33 10.4853 206.266 10.3413 206.138 10.224C206.021 10.096 205.877 10.032 205.706 10.032H200.138C199.967 10.032 199.818 10.096 199.69 10.224C199.562 10.3413 199.498 10.4853 199.498 10.656V16.064C199.498 16.2347 199.562 16.384 199.69 16.512C199.818 16.6293 199.967 16.688 200.138 16.688H205.706C205.877 16.688 206.021 16.6293 206.138 16.512C206.266 16.384 206.33 16.2347 206.33 16.064ZM211.044 8.72H216.612C217.156 8.72 217.615 8.912 217.988 9.296C218.372 9.66933 218.564 10.1227 218.564 10.656V16.064C218.564 16.5973 218.372 17.056 217.988 17.44C217.615 17.8133 217.156 18 216.612 18H211.044C210.511 18 210.052 17.8133 209.668 17.44C209.295 17.056 209.108 16.5973 209.108 16.064V10.656C209.108 10.1227 209.295 9.66933 209.668 9.296C210.052 8.912 210.511 8.72 211.044 8.72ZM216.612 10.032H211.044C210.873 10.032 210.724 10.096 210.596 10.224C210.479 10.3413 210.42 10.4853 210.42 10.656V16.064C210.42 16.2347 210.479 16.384 210.596 16.512C210.724 16.6293 210.873 16.688 211.044 16.688H216.612C216.783 16.688 216.927 16.6293 217.044 16.512C217.172 16.384 217.236 16.2347 217.236 16.064V10.656C217.236 10.4853 217.172 10.3413 217.044 10.224C216.927 10.096 216.783 10.032 216.612 10.032ZM221.326 21.68V20.368H227.534C227.705 20.368 227.849 20.304 227.966 20.176C228.094 20.0587 228.158 19.9147 228.158 19.744V18H221.966C221.71 18 221.465 17.9467 221.23 17.84C220.995 17.7333 220.787 17.5947 220.606 17.424C220.435 17.2427 220.297 17.0347 220.19 16.8C220.083 16.5653 220.03 16.32 220.03 16.064V10.656C220.03 10.1227 220.217 9.66933 220.59 9.296C220.974 8.912 221.433 8.72 221.966 8.72H229.486V19.744C229.486 20.2773 229.294 20.7307 228.91 21.104C228.537 21.488 228.078 21.68 227.534 21.68H221.326ZM221.966 10.032C221.795 10.032 221.646 10.096 221.518 10.224C221.401 10.3413 221.342 10.4853 221.342 10.656L221.326 16.064C221.326 16.2347 221.39 16.384 221.518 16.512C221.646 16.6293 221.795 16.688 221.966 16.688H228.158V10.032H221.966ZM240.424 19.728C240.424 20.272 240.237 20.7307 239.864 21.104C239.49 21.488 239.032 21.68 238.488 21.68H232.264V20.352H238.488C238.658 20.352 238.802 20.288 238.92 20.16C239.048 20.0427 239.112 19.8987 239.112 19.728L239.08 18H232.888C232.354 18 231.896 17.8133 231.512 17.44C231.138 17.056 230.952 16.5973 230.952 16.064V8.752H232.264V16.064C232.264 16.2347 232.322 16.384 232.44 16.512C232.568 16.6293 232.717 16.688 232.888 16.688H238.456C238.626 16.688 238.77 16.6293 238.888 16.512C239.016 16.384 239.08 16.2347 239.08 16.064V8.752H240.392L240.424 19.728ZM249.394 8.72H251.122L246.914 13.36L251.106 18H249.394L245.746 14.016H243.186V18H241.874V8.72H243.186V12.704H245.746L249.394 8.72ZM252.592 8.72H262.048V10.032H257.984V18H256.672V10.032H252.592V8.72ZM263.514 18V8.72H264.826V12.4H269.114C269.648 12.4 270.101 12.592 270.474 12.976C270.858 13.3493 271.05 13.8027 271.05 14.336V16.064C271.05 16.5973 270.858 17.056 270.474 17.44C270.101 17.8133 269.648 18 269.114 18H263.514ZM269.738 14.336C269.738 14.1653 269.674 14.0213 269.546 13.904C269.429 13.776 269.285 13.712 269.114 13.712H265.466C265.296 13.712 265.146 13.776 265.018 13.904C264.89 14.0213 264.826 14.1653 264.826 14.336V16.064C264.826 16.2347 264.89 16.384 265.018 16.512C265.146 16.6293 265.296 16.688 265.466 16.688H269.114C269.285 16.688 269.429 16.6293 269.546 16.512C269.674 16.384 269.738 16.2347 269.738 16.064V14.336ZM271.69 8.72H272.97V18H271.69V8.72ZM289.693 21.68V20.368H295.901C296.072 20.368 296.216 20.304 296.333 20.176C296.461 20.0587 296.525 19.9147 296.525 19.744V18H290.333C290.077 18 289.832 17.9467 289.597 17.84C289.362 17.7333 289.154 17.5947 288.973 17.424C288.802 17.2427 288.664 17.0347 288.557 16.8C288.45 16.5653 288.397 16.32 288.397 16.064V10.656C288.397 10.1227 288.584 9.66933 288.957 9.296C289.341 8.912 289.8 8.72 290.333 8.72H297.853V19.744C297.853 20.2773 297.661 20.7307 297.277 21.104C296.904 21.488 296.445 21.68 295.901 21.68H289.693ZM290.333 10.032C290.162 10.032 290.013 10.096 289.885 10.224C289.768 10.3413 289.709 10.4853 289.709 10.656L289.693 16.064C289.693 16.2347 289.757 16.384 289.885 16.512C290.013 16.6293 290.162 16.688 290.333 16.688H296.525V10.032H290.333ZM306.471 8.72V18H305.159V10.656C305.159 10.4853 305.095 10.3413 304.967 10.224C304.839 10.096 304.69 10.032 304.519 10.032H302.855C302.684 10.032 302.546 10.096 302.439 10.224C302.343 10.3413 302.274 10.4853 302.231 10.656L300.631 18H299.319L300.919 10.656C301.036 10.1227 301.255 9.66933 301.575 9.296C301.895 8.912 302.322 8.72 302.855 8.72H306.471ZM307.944 10.656C307.944 10.1227 308.131 9.66933 308.504 9.296C308.877 8.912 309.336 8.72 309.88 8.72H317.384V18H316.072V14.672H313.224L309.576 18H307.896L311.592 14.672H309.88C309.336 14.672 308.877 14.4853 308.504 14.112C308.131 13.728 307.944 13.2693 307.944 12.736V10.656ZM315.448 13.36C315.619 13.36 315.763 13.3013 315.88 13.184C316.008 13.056 316.072 12.9067 316.072 12.736V10.656C316.072 10.4853 316.008 10.3413 315.88 10.224C315.763 10.096 315.619 10.032 315.448 10.032H309.88C309.709 10.032 309.56 10.096 309.432 10.224C309.315 10.3413 309.256 10.4853 309.256 10.656V12.736C309.256 12.9067 309.315 13.056 309.432 13.184C309.56 13.3013 309.709 13.36 309.88 13.36H315.448ZM92.0258 34.56V30.72H93.3218V40H92.0258V35.856H85.1618V40H83.8658V30.72H85.1618V34.56H92.0258ZM102.292 30.72C102.836 30.72 103.294 30.912 103.668 31.296C104.052 31.6693 104.244 32.1227 104.244 32.656V36.016H96.0997V38.064C96.0997 38.2347 96.1584 38.384 96.2757 38.512C96.4037 38.6293 96.553 38.688 96.7237 38.688H104.244V40H96.7237C96.1904 40 95.7317 39.8133 95.3477 39.44C94.9744 39.056 94.7877 38.5973 94.7877 38.064V32.656C94.7877 32.1227 94.9744 31.6693 95.3477 31.296C95.7317 30.912 96.1904 30.72 96.7237 30.72H102.292ZM96.0997 34.704H102.916V32.656C102.916 32.4853 102.852 32.3413 102.724 32.224C102.606 32.096 102.462 32.032 102.292 32.032H96.7237C96.553 32.032 96.4037 32.096 96.2757 32.224C96.1584 32.3413 96.0997 32.4853 96.0997 32.656V34.704ZM113.23 30.72C113.763 30.72 114.216 30.912 114.59 31.296C114.974 31.6693 115.166 32.1227 115.166 32.656V38.064C115.166 38.5973 114.974 39.056 114.59 39.44C114.216 39.8133 113.763 40 113.23 40H111.022V43.68H109.71V40H107.502C107.299 40 107.091 39.936 106.878 39.808C106.675 39.68 106.483 39.52 106.302 39.328C106.131 39.136 105.987 38.928 105.87 38.704C105.763 38.48 105.71 38.2667 105.71 38.064V32.656C105.71 32.4533 105.763 32.24 105.87 32.016C105.987 31.792 106.131 31.584 106.302 31.392C106.483 31.2 106.675 31.04 106.878 30.912C107.091 30.784 107.299 30.72 107.502 30.72H109.71V30.24H111.022V30.72H113.23ZM113.854 38.064V32.656C113.854 32.4853 113.79 32.3413 113.662 32.224C113.544 32.096 113.4 32.032 113.23 32.032H111.022V38.688H113.23C113.4 38.688 113.544 38.6293 113.662 38.512C113.79 38.384 113.854 38.2347 113.854 38.064ZM109.71 32.032H107.518C107.347 32.032 107.198 32.096 107.07 32.224C106.942 32.3413 106.878 32.4853 106.878 32.656V38.064C106.878 38.2347 106.942 38.384 107.07 38.512C107.198 38.6293 107.347 38.688 107.518 38.688H109.71V32.032ZM116.631 30.72H126.087V32.032H122.023V40H120.711V32.032H116.631V30.72ZM135.057 30.72C135.601 30.72 136.06 30.912 136.433 31.296C136.817 31.6693 137.009 32.1227 137.009 32.656V36.016H128.865V38.064C128.865 38.2347 128.924 38.384 129.041 38.512C129.169 38.6293 129.319 38.688 129.489 38.688H137.009V40H129.489C128.956 40 128.497 39.8133 128.113 39.44C127.74 39.056 127.553 38.5973 127.553 38.064V32.656C127.553 32.1227 127.74 31.6693 128.113 31.296C128.497 30.912 128.956 30.72 129.489 30.72H135.057ZM128.865 34.704H135.681V32.656C135.681 32.4853 135.617 32.3413 135.489 32.224C135.372 32.096 135.228 32.032 135.057 32.032H129.489C129.319 32.032 129.169 32.096 129.041 32.224C128.924 32.3413 128.865 32.4853 128.865 32.656V34.704ZM140.411 30.72H145.627V32.032H140.411C140.241 32.032 140.091 32.096 139.963 32.224C139.846 32.3413 139.787 32.4853 139.787 32.656V40H138.475V32.656C138.475 32.1227 138.662 31.6693 139.035 31.296C139.419 30.912 139.878 30.72 140.411 30.72ZM154.604 30.72C155.148 30.72 155.607 30.912 155.98 31.296C156.364 31.6693 156.556 32.1227 156.556 32.656V40H149.036C148.503 40 148.044 39.8133 147.66 39.44C147.287 39.056 147.1 38.5973 147.1 38.064V34.704H155.228V32.656C155.228 32.4853 155.164 32.3413 155.036 32.224C154.919 32.096 154.775 32.032 154.604 32.032H147.1V30.72H154.604ZM155.228 38.688V36.016H148.412V38.064C148.412 38.2347 148.471 38.384 148.588 38.512C148.716 38.6293 148.866 38.688 149.036 38.688H155.228ZM165.542 38.688C165.713 38.688 165.857 38.6293 165.974 38.512C166.102 38.384 166.166 38.2347 166.166 38.064V36.192C166.166 36.1067 166.134 36.032 166.07 35.968C166.006 35.904 165.931 35.872 165.846 35.872H160.454V34.56H165.846C165.931 34.56 166.006 34.528 166.07 34.464C166.134 34.4 166.166 34.3253 166.166 34.24V32.656C166.166 32.4853 166.102 32.3413 165.974 32.224C165.857 32.096 165.713 32.032 165.542 32.032H159.942C159.793 32.032 159.649 32.1013 159.51 32.24C159.382 32.368 159.318 32.5067 159.318 32.656H158.022C158.022 32.3893 158.07 32.1387 158.166 31.904C158.273 31.6693 158.411 31.4667 158.582 31.296C158.763 31.1147 158.966 30.976 159.19 30.88C159.425 30.7733 159.675 30.72 159.942 30.72H165.542C166.075 30.72 166.529 30.912 166.902 31.296C167.286 31.6693 167.478 32.1227 167.478 32.656V34.24C167.478 34.4 167.451 34.544 167.398 34.672C167.345 34.7893 167.281 34.8907 167.206 34.976C167.142 35.0507 167.073 35.1093 166.998 35.152C166.934 35.184 166.881 35.2 166.838 35.2C166.881 35.2 166.934 35.2213 166.998 35.264C167.073 35.3067 167.142 35.3707 167.206 35.456C167.281 35.5413 167.345 35.648 167.398 35.776C167.451 35.8933 167.478 36.032 167.478 36.192V38.064C167.478 38.5973 167.286 39.056 166.902 39.44C166.529 39.8133 166.075 40 165.542 40H159.942C159.675 40 159.425 39.952 159.19 39.856C158.966 39.7493 158.763 39.6107 158.582 39.44C158.411 39.2587 158.273 39.0507 158.166 38.816C158.07 38.5813 158.022 38.3307 158.022 38.064H159.318C159.318 38.2133 159.382 38.3573 159.51 38.496C159.649 38.624 159.793 38.688 159.942 38.688H165.542ZM170.88 30.72H176.448C176.992 30.72 177.451 30.912 177.824 31.296C178.208 31.6693 178.4 32.1227 178.4 32.656V38.064C178.4 38.5973 178.208 39.056 177.824 39.44C177.451 39.8133 176.992 40 176.448 40H170.88C170.347 40 169.888 39.8133 169.504 39.44C169.131 39.056 168.944 38.5973 168.944 38.064V32.656C168.944 32.1227 169.131 31.6693 169.504 31.296C169.888 30.912 170.347 30.72 170.88 30.72ZM176.448 32.032H170.88C170.709 32.032 170.56 32.096 170.432 32.224C170.315 32.3413 170.256 32.4853 170.256 32.656V38.064C170.256 38.2347 170.315 38.384 170.432 38.512C170.56 38.6293 170.709 38.688 170.88 38.688H176.448C176.619 38.688 176.763 38.6293 176.88 38.512C177.008 38.384 177.072 38.2347 177.072 38.064V32.656C177.072 32.4853 177.008 32.3413 176.88 32.224C176.763 32.096 176.619 32.032 176.448 32.032ZM188.618 34.8L188.682 35.072C189.108 35.4667 189.322 35.9413 189.322 36.496V38.08C189.322 38.6133 189.135 39.0667 188.762 39.44C188.388 39.8133 187.935 40 187.402 40H179.866V30.72H186.906C187.439 30.72 187.892 30.9067 188.266 31.28C188.639 31.6533 188.826 32.1067 188.826 32.64V33.952C188.826 34.24 188.756 34.5227 188.618 34.8ZM186.906 32.016H181.786C181.37 32.016 181.162 32.016 181.162 32.016C181.162 32.016 181.162 32.224 181.162 32.64V34.576C181.151 34.576 181.194 34.576 181.29 34.576C181.386 34.576 181.551 34.576 181.786 34.576H186.906C187.076 34.576 187.22 34.5173 187.338 34.4C187.455 34.272 187.514 34.1227 187.514 33.952V32.64C187.514 32.4693 187.455 32.3253 187.338 32.208C187.22 32.08 187.076 32.016 186.906 32.016ZM188.026 38.08V36.496C188.026 36.3253 187.962 36.1813 187.834 36.064C187.716 35.936 187.572 35.872 187.402 35.872H181.162C181.162 35.872 181.162 35.936 181.162 36.064C181.162 36.1813 181.162 36.3253 181.162 36.496C181.162 37.6693 181.162 38.272 181.162 38.304C181.162 38.336 181.162 38.4693 181.162 38.704H187.402C187.572 38.704 187.716 38.6453 187.834 38.528C187.962 38.4 188.026 38.2507 188.026 38.08ZM192.724 30.72H198.292C198.836 30.72 199.294 30.912 199.668 31.296C200.052 31.6693 200.244 32.1227 200.244 32.656V38.064C200.244 38.5973 200.052 39.056 199.668 39.44C199.294 39.8133 198.836 40 198.292 40H192.724C192.19 40 191.732 39.8133 191.348 39.44C190.974 39.056 190.788 38.5973 190.788 38.064V32.656C190.788 32.1227 190.974 31.6693 191.348 31.296C191.732 30.912 192.19 30.72 192.724 30.72ZM198.292 32.032H192.724C192.553 32.032 192.404 32.096 192.276 32.224C192.158 32.3413 192.1 32.4853 192.1 32.656V38.064C192.1 38.2347 192.158 38.384 192.276 38.512C192.404 38.6293 192.553 38.688 192.724 38.688H198.292C198.462 38.688 198.606 38.6293 198.724 38.512C198.852 38.384 198.916 38.2347 198.916 38.064V32.656C198.916 32.4853 198.852 32.3413 198.724 32.224C198.606 32.096 198.462 32.032 198.292 32.032ZM203.006 38.528L209.39 30.72H211.166V40H209.87V32.192L203.486 40H201.71V30.72H203.006V38.528ZM204.91 29.92V31.232H207.966V29.92H204.91ZM218.927 30.72H224.495C225.039 30.72 225.497 30.912 225.871 31.296C226.255 31.6693 226.447 32.1227 226.447 32.656V38.064C226.447 38.5973 226.255 39.056 225.871 39.44C225.497 39.8133 225.039 40 224.495 40H218.927C218.393 40 217.935 39.8133 217.551 39.44C217.177 39.056 216.991 38.5973 216.991 38.064V32.656C216.991 32.1227 217.177 31.6693 217.551 31.296C217.935 30.912 218.393 30.72 218.927 30.72ZM224.495 32.032H218.927C218.756 32.032 218.607 32.096 218.479 32.224C218.361 32.3413 218.303 32.4853 218.303 32.656V38.064C218.303 38.2347 218.361 38.384 218.479 38.512C218.607 38.6293 218.756 38.688 218.927 38.688H224.495C224.665 38.688 224.809 38.6293 224.927 38.512C225.055 38.384 225.119 38.2347 225.119 38.064V32.656C225.119 32.4853 225.055 32.3413 224.927 32.224C224.809 32.096 224.665 32.032 224.495 32.032ZM227.913 30.72H237.369V32.032H233.305V40H231.993V32.032H227.913V30.72ZM246.355 30.72C246.888 30.72 247.341 30.912 247.715 31.296C248.099 31.6693 248.291 32.1227 248.291 32.656V38.064C248.291 38.5973 248.099 39.056 247.715 39.44C247.341 39.8133 246.888 40 246.355 40H240.147V43.68H238.835V30.72H246.355ZM246.979 38.064V32.656C246.979 32.4853 246.915 32.3413 246.787 32.224C246.669 32.096 246.525 32.032 246.355 32.032H240.787C240.616 32.032 240.467 32.096 240.339 32.224C240.211 32.3413 240.147 32.4853 240.147 32.656V38.064C240.147 38.2347 240.211 38.384 240.339 38.512C240.467 38.6293 240.616 38.688 240.787 38.688H246.355C246.525 38.688 246.669 38.6293 246.787 38.512C246.915 38.384 246.979 38.2347 246.979 38.064ZM257.26 30.72C257.804 30.72 258.263 30.912 258.636 31.296C259.02 31.6693 259.212 32.1227 259.212 32.656V40H251.692C251.159 40 250.7 39.8133 250.316 39.44C249.943 39.056 249.756 38.5973 249.756 38.064V34.704H257.884V32.656C257.884 32.4853 257.82 32.3413 257.692 32.224C257.575 32.096 257.431 32.032 257.26 32.032H249.756V30.72H257.26ZM257.884 38.688V36.016H251.068V38.064C251.068 38.2347 251.127 38.384 251.244 38.512C251.372 38.6293 251.522 38.688 251.692 38.688H257.884ZM262.614 38.688H270.166V40H262.614C262.081 40 261.622 39.8133 261.238 39.44C260.865 39.056 260.678 38.5973 260.678 38.064V32.656C260.678 32.1227 260.865 31.6693 261.238 31.296C261.622 30.912 262.081 30.72 262.614 30.72H270.134V32.032H262.614C262.444 32.032 262.294 32.096 262.166 32.224C262.049 32.3413 261.99 32.4853 261.99 32.656V38.064C261.99 38.2347 262.049 38.384 262.166 38.512C262.294 38.6293 262.444 38.688 262.614 38.688ZM278.752 30.72V40H277.44V32.656C277.44 32.4853 277.376 32.3413 277.248 32.224C277.12 32.096 276.971 32.032 276.8 32.032H275.136C274.966 32.032 274.827 32.096 274.72 32.224C274.624 32.3413 274.555 32.4853 274.512 32.656L272.912 40H271.6L273.2 32.656C273.318 32.1227 273.536 31.6693 273.856 31.296C274.176 30.912 274.603 30.72 275.136 30.72H278.752ZM287.905 30.72H289.681V40H288.385V32.192L282.001 40H280.225V30.72H281.521V38.528L287.905 30.72Z" fill="#42ADE2"/>
<defs>
<linearGradient id="paint0_linear_1060_2" x1="5.31666" y1="18.6807" x2="44.1061" y2="18.6807" gradientUnits="userSpaceOnUse">
<stop stop-color="white" stop-opacity="0.3"/>
<stop offset="1" stop-color="white"/>
</linearGradient>
</defs>
</svg>
