<svg width="297" height="70" viewBox="0 0 297 70" fill="none" xmlns="http://www.w3.org/2000/svg">
<path fill-rule="evenodd" clip-rule="evenodd" d="M244.566 39.7895H227.905C225.445 39.7895 225.445 43.1421 227.905 43.1421C230.141 43.1421 232.267 43.1421 234.391 43.1421C234.503 43.1421 234.727 43.1421 234.838 43.1421H238.975C241.771 43.1421 245.013 45.4542 245.013 48.5755V49.5004C245.013 52.6218 241.771 54.9339 238.975 54.9339H238.081H234.391H233.944H220.861V50.6565H238.081C240.652 50.6565 240.541 47.3039 238.081 47.3039C235.845 47.3039 233.72 47.3039 231.595 47.3039C231.484 47.3039 231.26 47.3039 231.148 47.3039H227.011C224.216 47.3039 220.973 44.9918 220.973 41.8704V40.9456C220.973 37.8242 224.216 35.5121 227.011 35.5121H231.707H244.678V39.7895H244.566ZM182.507 43.0265H193.69C196.15 43.0265 196.15 39.6739 193.69 39.6739H190.67H186.421H183.402C182.396 39.6739 181.613 40.3675 181.389 41.2924V43.0265C181.837 43.1421 182.172 43.0265 182.507 43.0265ZM200.734 50.6565H183.514C181.054 50.6565 181.054 47.3039 183.514 47.3039C185.75 47.3039 187.875 47.3039 189.999 47.3039C190.111 47.3039 190.335 47.3039 190.446 47.3039H194.583C197.379 47.3039 200.622 44.9918 200.622 41.8704V40.9456C200.622 37.8242 197.379 35.5121 194.583 35.5121H190.67H189.887H186.309H182.396C179.6 35.5121 176.358 37.8242 176.358 40.9456V41.408V48.5755V49.5004C176.358 52.6218 179.6 54.9339 182.396 54.9339H200.622V50.6565H200.734ZM270.508 51.6969V53.7779V54.8183H268.383H263.687C260.892 54.8183 257.649 52.5062 257.649 49.3848V43.7201V40.9456V28.8069C257.649 26.148 259.661 24.0671 262.233 24.0671H262.793V35.6277C263.128 35.6277 263.463 35.5121 263.687 35.5121H268.383H269.054V39.7895H265.923H262.793V43.0265V44.8762V47.4195C262.793 49.1536 264.246 50.6565 265.923 50.6565H270.508V51.6969ZM176.581 35.5121C174.345 35.5121 171.214 35.1653 169.536 37.9398L161.933 49.8472L154.329 37.9398C152.764 35.1653 149.633 35.5121 147.285 35.5121L157.573 51.9281C158.579 53.5466 159.809 54.7027 161.262 54.9339C163.051 55.1651 164.729 54.1246 166.07 51.9281C169.425 46.8415 173.115 41.0612 176.581 35.5121ZM109.826 39.6739C109.826 37.2462 111.391 35.5121 113.74 35.5121H117.095C117.429 35.5121 117.765 35.6277 118.436 36.2058L132.413 50.3097V38.7491C132.413 36.3214 133.978 35.3965 136.327 35.3965H139.682C138.451 35.5121 137.557 35.8589 137.557 39.2115V51.8125C137.557 52.9686 136.663 54.7027 135.545 54.7027H132.078H130.959C129.841 54.7027 128.947 53.6623 128.164 52.853L115.082 39.4427C115.082 39.5583 115.082 39.6739 115.082 39.9051V54.7027H109.938V39.6739H109.826ZM204.759 39.6739C204.759 37.2462 206.995 35.5121 209.344 35.5121H209.903H217.506H219.072V39.7895H217.506H212.922C211.245 39.7895 209.791 41.2924 209.791 43.0265V54.9339H204.647V39.6739H204.759ZM296.561 69.5002H296.002C293.431 69.5002 291.418 67.4193 291.418 64.7604V54.7027C291.082 54.7027 290.746 54.8183 290.523 54.8183H282.361H278.223C275.428 54.8183 272.185 52.5062 272.185 49.3848V40.9456C272.185 38.171 274.757 36.0902 277.217 35.6277V41.8704V46.1478V48.5755C277.217 49.7316 278.111 50.5409 279.229 50.5409H289.629C290.523 50.5409 291.418 49.8472 291.53 48.9224C291.53 48.8068 291.53 48.5755 291.53 48.4599V46.0322V43.6045V40.83C291.53 38.0554 294.101 35.9745 296.561 35.5121V41.7548V48.6912V49.3848V69.5002ZM248.815 39.6739C248.815 37.2462 251.051 35.5121 253.4 35.5121H253.959V54.8183H248.815V39.6739ZM86.68 35.6277C84.1083 36.0902 81.6482 38.2866 81.6482 40.9456V49.3848C81.6482 52.5062 84.8906 54.8183 87.6863 54.8183H93.9485H95.9612H100.098C102.893 54.8183 106.136 52.5062 106.136 49.3848V41.7548V35.5121C103.565 35.9745 101.105 38.171 101.105 40.83C101.105 43.3733 101.105 45.9166 101.105 48.4599C101.105 49.616 100.21 50.5409 99.0919 50.5409H93.9485H88.8043C87.6863 50.5409 86.7916 49.616 86.7916 48.4599V46.9571V41.7548V35.6277H86.68ZM141.359 39.6739C141.359 37.2462 143.595 35.5121 145.943 35.5121H146.502V54.8183H141.359V39.6739ZM0.0214844 16.2059C0.0214844 13.7782 2.25783 12.0441 4.606 12.0441H5.16509V31.3503H0.0214844V16.2059ZM54.1411 15.3967C54.1411 12.969 55.7066 12.0441 58.0548 12.0441H61.4092C60.0675 12.1597 59.2847 12.5065 59.2847 15.8591V28.4601C59.2847 29.6162 58.3902 31.3503 57.272 31.3503H52.5757C51.4575 31.3503 50.563 30.3099 49.7802 29.5006L36.6976 16.2059V28.5757C36.6976 29.7318 35.803 31.4659 34.6849 31.4659H29.9885C28.8704 31.4659 27.9758 30.4255 27.1931 29.6162L14.1105 16.2059C14.1105 16.3216 14.1105 16.4371 14.1105 16.6683V31.4659H8.85504V16.2059C8.85504 13.7782 10.4205 12.0441 12.7686 12.0441H16.1232C16.4586 12.0441 16.7941 12.1597 17.465 12.7378L31.4422 26.8417V15.2811C31.4422 12.8534 33.0076 11.9285 35.3558 11.9285H38.7103C39.0458 11.9285 39.3812 12.0441 40.0521 12.6221L54.0293 26.7261V15.3967H54.1411ZM200.175 16.3216H183.514C181.054 16.3216 181.054 19.6741 183.514 19.6741C185.75 19.6741 187.875 19.6741 189.999 19.6741C190.111 19.6741 190.335 19.6741 190.446 19.6741H194.583C197.379 19.6741 200.622 21.9862 200.622 25.1076V26.0324C200.622 29.1538 197.379 31.4659 194.583 31.4659H193.69H189.999H189.552H176.469V27.1885H193.69C196.261 27.1885 196.15 23.8359 193.69 23.8359C191.453 23.8359 189.328 23.8359 187.204 23.8359C187.092 23.8359 186.868 23.8359 186.757 23.8359H182.62C179.824 23.8359 176.581 21.5238 176.581 18.4024V17.4776C176.581 14.3562 179.824 12.0441 182.62 12.0441H187.316H200.175V16.3216ZM167.076 16.2059C167.076 13.7782 169.313 12.0441 171.661 12.0441H172.22V31.3503H167.076V16.2059ZM152.987 0.599121V23.9515C152.987 25.6856 154.441 27.1885 156.119 27.1885H162.939V28.2289V30.3099V31.3503H158.579H153.882C151.087 31.3503 147.844 29.0382 147.844 25.9168V5.33897C147.844 2.68003 149.857 0.599121 152.428 0.599121H152.987ZM81.5366 31.3503H79.8589H77.2871H75.2744H75.1628H69.1247C66.3292 31.3503 63.0865 29.0382 63.0865 25.9168V17.4776C63.0865 14.3562 66.3292 12.0441 69.1247 12.0441H70.4664H72.3673H73.8207H76.3924H81.4249C84.2199 12.0441 87.463 14.3562 87.463 17.4776V25.9168C87.6863 29.0382 84.3316 31.3503 81.5366 31.3503ZM82.5429 25.1076V18.4024C82.5429 17.2464 81.6482 16.3216 80.5302 16.3216H70.131C69.2365 16.3216 68.3419 17.0151 68.1183 18.0556C68.1183 18.1712 68.1183 18.9805 68.1183 19.0961V25.1076C68.1183 26.2636 69.0128 27.1885 70.131 27.1885H75.2744H80.4179C81.6482 27.1885 82.5429 26.2636 82.5429 25.1076ZM109.714 31.3503H105.577H105.465H105.353H105.242H105.13H105.018H104.906H104.794H104.683H104.571H104.459H104.347H104.235H104.124H104.012H103.9H103.788H97.1908C96.8551 31.3503 96.5202 31.3503 96.2961 31.2347V41.2924C96.2961 43.9513 94.2834 46.0322 91.7117 46.0322H91.1527V17.4776C91.1527 14.3562 94.3951 12.0441 97.1908 12.0441H97.9739H101.775H102.893H109.826C112.622 12.0441 115.864 14.3562 115.864 17.4776V25.9168C115.864 29.0382 112.51 31.3503 109.714 31.3503ZM110.832 25.2231V24.5296V18.4024C110.832 17.2464 109.938 16.3216 108.931 16.3216H108.82H98.4205C97.3025 16.3216 96.4078 17.2464 96.4078 18.4024V25.1076C96.4078 26.2636 97.3025 27.1885 98.4205 27.1885H108.82C109.826 27.1885 110.721 26.2636 110.832 25.2231ZM98.3088 16.3216C98.1972 16.3216 98.1972 16.3216 98.0855 16.3216C98.0855 16.3216 98.1972 16.3216 98.3088 16.3216ZM97.9739 16.3216C97.8615 16.3216 97.7498 16.3216 97.6382 16.4371C97.8615 16.4371 97.8615 16.3216 97.9739 16.3216ZM138.116 31.3503H136.439H133.867H131.966H131.854H125.816C123.021 31.3503 119.778 29.0382 119.778 25.9168V17.4776C119.778 14.3562 123.021 12.0441 125.816 12.0441H127.046H128.947H130.4H132.972H138.004C140.8 12.0441 144.043 14.3562 144.043 17.4776V25.9168C144.154 29.0382 140.911 31.3503 138.116 31.3503ZM139.123 25.1076V18.4024C139.123 17.2464 138.228 16.3216 137.11 16.3216H126.711C125.816 16.3216 124.921 17.0151 124.698 18.0556C124.698 18.1712 124.698 18.9805 124.698 19.0961V25.1076C124.698 26.2636 125.593 27.1885 126.711 27.1885H131.854H136.998C138.228 27.1885 139.123 26.2636 139.123 25.1076Z" fill="white"/>
</svg>
