<svg width="83" height="103" viewBox="0 0 83 103" fill="none" xmlns="http://www.w3.org/2000/svg">
<path d="M0.499023 70.1025H5.93853V77.1484H8.78209L14.9381 70.1025H22.43L13.6033 79.6846L23.5663 90.2253H15.6796L8.78209 82.362H5.93853V90.2253H0.499023V70.1025Z" fill="white"/>
<path d="M36.6835 70.0884C37.7733 72.738 38.8632 75.3876 39.9531 78.0372C40.9029 80.3467 41.3258 81.352 41.7519 83.8143C42.1788 81.3526 42.6015 80.3463 43.5515 78.0372L46.821 70.0884H56.0926V90.2395H50.6532V76.1016V74.3824L50.5044 74.6416C50.406 74.86 50.323 75.0628 50.2573 75.2507L43.9774 90.2395H39.5271L32.7519 75.2478C32.6534 75.0032 32.5623 74.7868 32.4802 74.5988L32.3571 74.3813V76.0953V90.2395H26.917V70.0884H36.6835Z" fill="white"/>
<path d="M60.042 70.0884H82.8424H83.0027V76.2074H67.1066V90.2394H60.042V70.0884Z" fill="white"/>
<path fill-rule="evenodd" clip-rule="evenodd" d="M40.1462 2.55158C39.0478 4.30017 37.3595 6.70568 35.4459 9.43239C28.7189 19.0188 19.2354 32.5334 19.2354 41.1403C19.2354 46.878 21.7551 52.0788 25.8301 55.8473C29.9049 59.6178 35.5338 61.9497 41.7502 61.9497C47.9664 61.9497 53.5953 59.6178 57.6707 55.8473C61.745 52.0788 64.2648 46.878 64.2648 41.1403C64.2648 32.5334 54.7813 19.0188 48.0543 9.43239C46.1407 6.70568 44.4529 4.30017 43.354 2.55158L41.7502 0L40.1462 2.55158ZM28.4567 53.4557C25.0548 50.3088 22.9507 45.9555 22.9507 41.1403C22.9507 33.5192 32.086 20.5007 38.5664 11.2659C39.7282 9.6098 40.8057 8.07411 41.7502 6.68064C42.6949 8.07411 43.772 9.6098 44.9343 11.2659C51.4141 20.5007 60.5501 33.5192 60.5501 41.1403C60.5501 45.9555 58.446 50.3088 55.0439 53.4557C51.6429 56.6021 46.943 58.5482 41.7502 58.5482C36.5578 58.5482 31.8573 56.6021 28.4567 53.4557Z" fill="white"/>
<path d="M7.2921 94.9629H6.08422L1.32572 101.224V94.9629H0.499023V102.099H1.74723L6.46514 95.9007V102.099H7.2921V94.9629ZM8.99962 94.9629H9.82632V97.9947H14.6011V94.9629H15.4279V102.099H14.6011V98.9532H9.82632V102.099H8.99962V94.9629ZM25.7282 94.9839L22.9963 97.9634H22.4451V94.9839H21.6184V97.9634H21.0588L18.3272 94.9839H17.0869L20.3133 98.4426L16.7141 102.099H18.0027L21.0669 98.922H21.6184V102.099H22.4451V98.922H22.9884L26.0606 102.099H27.3412L23.7503 98.4426L26.9684 94.9839H25.7282ZM35.5503 94.9629H34.3421L29.5839 101.224V94.9629H28.7572V102.099H30.0054L34.7233 95.9007V102.099H35.5503V94.9629ZM37.2578 94.9629H38.0845V97.9947H42.8593V94.9629H43.686V102.099H42.8593V98.9532H38.0845V102.099H37.2578V94.9629ZM52.0893 94.9629H50.8814L46.1229 101.224V94.9629H45.2962V102.099H46.5448L51.2624 95.9007V102.099H52.0893V94.9629ZM53.7644 102.099V94.9629H58.2878C58.7795 94.9629 59.1648 95.1505 59.4428 95.5274C59.7211 95.9043 59.8605 96.477 59.8605 97.2445C59.8605 98.0122 59.7186 98.5834 59.4349 98.9567C59.151 99.3298 58.7581 99.5158 58.2553 99.5158H54.5914V102.099H53.7644ZM54.5914 98.5572H58.2553C58.4933 98.5572 58.6823 98.4531 58.8229 98.2428C58.9631 98.0329 59.0336 97.6994 59.0336 97.2445C59.0336 96.7896 58.9646 96.4544 58.8268 96.241C58.6891 96.0275 58.4959 95.9215 58.2475 95.9215H54.5914V98.5572ZM68.2638 94.9629H67.0556L62.2974 101.224V94.9629H61.4707V102.099H62.719L67.4368 95.9007V102.099H68.2638V94.9629ZM69.9713 94.9629H70.798V97.9947H75.5729V94.9629H76.3996V102.099H75.5729V98.9532H70.798V102.099H69.9713V94.9629ZM77.9289 102.099H78.7476V95.9215H83.0034V94.9629H77.9289V102.099Z" fill="white"/>
<path fill-rule="evenodd" clip-rule="evenodd" d="M41.8016 24.3103C45.4466 27.4203 46.1817 29.3513 45.554 34.6779C47.5989 33.7981 48.401 32.2455 48.7735 30.4369C49.8377 31.1573 50.3948 33.2734 50.2033 35.2378C55.6979 37.4343 54.4466 46.3305 48.0983 46.3539C45.635 46.3629 43.1695 45.0664 43.7333 41.204C43.991 39.44 45.3823 38.1712 47.1458 38.694C49.601 39.4205 48.9491 44.22 45.5366 43.1036C47.7834 46.3062 51.2615 44.5089 51.7489 41.363C52.4554 36.8097 47.7649 34.6339 44.0551 36.3865C44.0551 36.3865 44.2481 33.6047 44.0551 31.5697C43.9123 30.0644 42.7254 28.1394 41.8016 26.9393C40.8779 28.1394 39.6909 30.0644 39.5482 31.5697C39.3552 33.6047 39.5482 36.3865 39.5482 36.3865C35.8383 34.6339 31.1478 36.8097 31.8544 41.363C32.3417 44.5089 35.8198 46.3062 38.0667 43.1036C34.6542 44.22 34.0022 39.4205 36.4575 38.694C38.221 38.1712 39.6122 39.44 39.87 41.204C40.4338 45.0664 37.9682 46.3629 35.505 46.3539C29.1566 46.3305 27.9054 37.4343 33.4 35.2378C33.2085 33.2734 33.7655 31.1573 34.8298 30.4369C35.2023 32.2455 36.0044 33.7981 38.0493 34.6779C37.4216 29.3513 38.1567 27.4203 41.8016 24.3103ZM41.8016 44.0706C42.2109 44.7688 42.6202 45.3584 43.0027 45.8552C44.9222 48.3462 48.8459 48.9114 51.5066 47.3003C52.3076 46.8159 53.043 46.2653 53.8691 46.0208C55.4784 45.5459 56.7668 47.4459 56.7668 47.4459C58.2201 45.9058 56.7225 43.7715 55.2854 43.7824C56.2452 40.4489 56.4272 35.7569 51.7451 33.4693C51.5114 29.773 50.0225 28.7157 47.9712 27.5848C48.1541 28.9448 47.81 30.1687 47.1939 30.9932C47.1546 27.2928 46.319 26.7806 44.6208 24.5174L43.8391 23.6656L41.8016 21.4341L39.7642 23.6656L38.9825 24.5174C37.2842 26.7806 36.4487 27.2928 36.4094 30.9932C35.7932 30.1687 35.4492 28.9448 35.632 27.5848C33.5808 28.7157 32.0918 29.773 31.8582 33.4693C27.1761 35.7569 27.3581 40.4489 28.3179 43.7824C26.8807 43.7715 25.3832 45.9058 26.8365 47.4459C26.8365 47.4459 28.1249 45.5459 29.7342 46.0208C30.5603 46.2653 31.2957 46.8159 32.0967 47.3003C34.7574 48.9114 38.6811 48.3462 40.6006 45.8552C40.9831 45.3584 41.3923 44.7688 41.8016 44.0706Z" fill="white"/>
</svg>
