<svg width="223" height="73" viewBox="0 0 223 73" fill="none" xmlns="http://www.w3.org/2000/svg">
<path fill-rule="evenodd" clip-rule="evenodd" d="M60.8378 11.2708H59.8389V19.5673H56.0374V0.144186H59.8389V8.7458L60.7268 8.35736L66.082 0.144186H70.4106L64.7502 8.30187L63.2518 9.35621L64.8057 10.4384L71.2708 19.5673H66.5815L60.8378 11.2708ZM1.4421 0.193436H41.6281H42.1104H42.1628V0.246027V0.728065V32.3207V32.4654L42.1632 32.4703V32.4723L42.1637 32.5037V32.5048L42.1628 32.6044V32.8028V32.8554H42.1572C42.0928 34.7639 41.5071 36.7302 40.498 38.6142C39.4638 40.5453 37.9842 42.3903 36.1659 43.9982C34.2565 45.6861 31.97 47.1167 29.4312 48.1122C27.0807 49.0339 24.5132 49.5837 21.8271 49.6209L21.5358 49.6249C18.8695 49.6249 16.3194 49.1445 13.9796 48.3C11.4805 47.3984 9.21982 46.0813 7.31016 44.4919C5.384 42.8891 3.81241 41.0066 2.70838 38.9895C1.6351 37.0281 1.00375 34.9389 0.91795 32.8554H0.907471V32.8028V32.3689V32.3207V0.728065V0.246027V0.193436H0.960067H1.4421ZM15.785 43.7232H16.3744V42.0485L16.4379 41.7601L16.2345 42.0103L15.8569 42.2689L15.6238 41.9508L16.5906 41.1708H16.9001V43.7232H17.4769V44.1897H15.785V43.7232ZM18.8637 43.4645C18.8637 43.3655 18.8764 43.2773 18.9018 43.1995C18.9275 43.1217 18.9634 43.0511 19.0099 42.9876C19.0567 42.9241 19.1118 42.8666 19.1755 42.816C19.239 42.7649 19.3074 42.7184 19.381 42.676C19.2426 42.5882 19.1336 42.4873 19.0545 42.3727C18.9754 42.2584 18.9357 42.1162 18.9357 41.9466C18.9357 41.8365 18.9562 41.7331 18.9972 41.6371C19.0382 41.541 19.0977 41.4577 19.1755 41.387C19.2531 41.3161 19.3471 41.2611 19.4574 41.2217C19.5675 41.182 19.6921 41.1622 19.8305 41.1622C19.9577 41.1622 20.0736 41.1791 20.1782 41.2132C20.2827 41.2471 20.3725 41.2952 20.4474 41.3574C20.5222 41.4195 20.5802 41.4951 20.6212 41.584C20.6622 41.6732 20.6827 41.7714 20.6827 41.8789C20.6827 42.0456 20.6453 42.1868 20.5704 42.3027C20.4955 42.4186 20.3859 42.5247 20.2417 42.6208C20.4113 42.7197 20.5392 42.8287 20.6254 42.9472C20.7117 43.066 20.7547 43.2187 20.7547 43.4052C20.7547 43.5325 20.7315 43.6475 20.6849 43.7509C20.6384 43.854 20.5726 43.9423 20.4877 44.0158C20.403 44.0894 20.3012 44.1464 20.1824 44.1874C20.0636 44.2287 19.9337 44.2489 19.7922 44.2489C19.6509 44.2489 19.523 44.2298 19.4086 44.1917C19.2941 44.1536 19.1967 44.1005 19.116 44.0328C19.0356 43.965 18.9734 43.883 18.9295 43.7868C18.8856 43.6907 18.8637 43.5833 18.8637 43.4645ZM20.229 43.4094C20.229 43.3444 20.2134 43.2851 20.1824 43.2314C20.1512 43.1777 20.1111 43.1289 20.0616 43.0852C20.0121 43.0413 19.9571 43.001 19.8962 42.9642C19.8354 42.9276 19.7739 42.8922 19.7117 42.8583C19.5789 42.9345 19.4877 43.0172 19.4383 43.1064C19.3888 43.1953 19.3641 43.2838 19.3641 43.3713C19.3641 43.4845 19.4028 43.5811 19.4806 43.6617C19.5584 43.7422 19.6665 43.7825 19.8049 43.7825C19.9321 43.7825 20.0346 43.7513 20.1124 43.6891C20.1902 43.6269 20.229 43.5338 20.229 43.4094ZM19.4614 41.9551C19.4614 42.0231 19.4744 42.0823 19.4998 42.1331C19.5252 42.1842 19.5597 42.2285 19.6036 42.2666C19.6473 42.305 19.6968 42.3402 19.752 42.3727C19.8071 42.4053 19.8644 42.4356 19.9239 42.4639C20.0932 42.3197 20.1782 42.1614 20.1782 41.9889C20.1782 41.8704 20.1436 41.7806 20.0743 41.7198C20.005 41.6589 19.921 41.6286 19.8218 41.6286C19.6975 41.6286 19.6063 41.6611 19.5486 41.7262C19.4904 41.7913 19.4614 41.8675 19.4614 41.9551ZM22.0232 42.7014C22.0232 42.1813 22.1121 41.7946 22.2902 41.5419C22.4682 41.2887 22.7241 41.1622 23.0575 41.1622C23.4136 41.1622 23.6752 41.2872 23.8421 41.5374C24.0088 41.7877 24.0922 42.1757 24.0922 42.7014C24.0922 43.2243 24.0024 43.6129 23.823 43.8674C23.6434 44.1217 23.3869 44.2489 23.0532 44.2489C22.7 44.2489 22.4399 44.1155 22.2732 43.8483C22.1063 43.5811 22.0232 43.1989 22.0232 42.7014ZM22.5743 42.7014C22.5743 43.0462 22.6117 43.3127 22.6866 43.5006C22.7615 43.6885 22.8852 43.7825 23.0575 43.7825C23.2244 43.7825 23.3467 43.6963 23.4243 43.524C23.5021 43.3515 23.5408 43.0774 23.5408 42.7014C23.5408 42.3593 23.5043 42.095 23.4308 41.9085C23.3572 41.722 23.2315 41.6286 23.0532 41.6286C22.8836 41.6286 22.7615 41.7162 22.6866 41.8916C22.6117 42.0667 22.5743 42.3366 22.5743 42.7014ZM27.4464 43.3629H26.9802V44.1897H26.467V43.3629H25.1824V43.0491L26.5265 41.2005H26.9802V42.9218H27.4464V43.3629ZM26.467 42.2731L26.5053 41.917H26.4883L26.3442 42.2223L25.9031 42.7946L25.6912 42.9557L25.9626 42.9218H26.467V42.2731ZM15.3205 12.3677C14.0692 11.6634 13.5341 12.6895 12.3044 12.9444C10.9427 13.2268 10.5801 12.1646 10.0003 11.2168C10.9592 11.4183 11.0152 11.8691 12.2654 11.0127C13.1842 10.3836 14.3478 10.7956 15.0275 11.5698L14.2713 9.53471C16.5278 9.51643 19.0694 9.22182 21.2962 9.53471L21.5779 9.58196C23.9596 10.052 25.7565 12.0911 25.7565 14.6716C25.7565 16.5603 24.6756 18.6587 23.0949 19.775V20.0119C25.2103 19.5265 27.6285 17.7557 27.8451 16.7609C27.5358 16.6401 26.7928 16.2133 26.8019 16.1625C25.9738 15.5686 25.6185 14.3848 25.8138 13.488C26.0092 12.5912 26.4264 12.1577 27.0223 11.7965C27.4328 11.5886 27.8045 11.4624 28.2496 11.4181L39.3809 9.84805C39.4335 10.2242 39.4698 10.6071 39.4878 10.9884C39.8103 17.7967 34.55 23.5798 27.7415 23.9023C25.4133 24.0124 22.4101 22.7241 21.3528 20.5231C21.2978 20.5323 21.2423 20.5416 21.1864 20.5485C20.7819 20.5933 20.4057 20.6624 20.0556 20.7527C19.7001 22.2329 22.7292 23.3831 26.2401 23.9478L25.6778 24.7621C26.3419 24.5524 27.0491 24.4392 27.7825 24.4392C31.6419 24.4392 34.7719 27.569 34.7719 31.4289C34.7719 35.2883 31.6419 38.4181 27.7825 38.4181C23.923 38.4181 20.793 35.2883 20.793 31.4289C20.793 31.0322 20.8267 30.6433 20.8902 30.2651L21.1291 30.3001L25.3605 30.5876C25.1505 30.931 25.0289 31.3348 25.0289 31.7672C25.0289 33.0181 26.0433 34.0323 27.294 34.0323C28.5449 34.0323 29.5589 33.0181 29.5589 31.7672C29.5589 30.5363 28.5767 29.5346 27.3535 29.5029L27.3459 29.4809L27.068 29.5136C27.0408 29.5163 27.0132 29.5196 26.9858 29.523L23.3409 29.9513C21.7495 30.2127 20.3714 30.3179 19.1956 30.2798L14.1537 37.1579L13.5232 35.488C9.95926 35.1887 11.1926 36.8376 11.991 37.5124C12.069 37.5782 12.0699 37.8538 11.996 37.914C10.6867 37.8139 9.54296 36.7636 9.54296 35.396C9.54296 34.0283 10.6791 32.8594 12.0795 32.8594C13.0144 32.8594 13.8307 33.3653 14.2709 34.1181L16.5603 26.8977H16.1981L14.8129 28.889C13.9961 28.0359 13.3594 27.0092 12.9649 25.8693L9.09591 21.0785C8.93167 21.4495 8.68028 21.7731 8.36895 22.0252L7.59675 19.9803C5.8861 19.8953 4.83043 20.3083 5.71673 21.6084L6.08779 21.6129L6.03942 20.9706H7.11315L6.94378 23.2177L6.94512 23.2337H6.94267L6.93977 23.2743H6.20479L6.20167 23.1245L6.14729 22.402C5.1685 22.0526 4.24231 21.2813 4.24231 20.0527C4.24231 19.1067 4.88324 18.151 5.79562 17.7343L5.29976 11.1498L4.10012 9.62831H6.12857C6.05257 8.78524 6.31287 7.87287 6.80851 7.13655C6.359 7.21254 5.94382 7.45345 5.54246 8.1209C5.27726 6.67501 6.49049 4.81527 8.14342 5.09317C9.80326 5.37263 9.64882 4.89215 10.5211 4.24141C10.4589 4.78005 10.4489 5.32182 10.3299 5.7896C12.0399 5.97546 11.9619 5.35035 13.0617 4.53024C12.8651 6.22796 13.0463 7.94507 10.963 8.43135C9.06405 8.87506 7.64511 7.76456 6.3443 9.62831H6.5754H9.05L7.85349 11.1457L7.3681 17.5865C7.77727 17.6842 8.14855 17.8816 8.45364 18.151L11.5415 20.005L12.2186 22.513H12.5362C12.8604 18.3146 16.3151 14.9931 20.5686 14.8777L20.4032 14.4634L16.1277 14.4833L15.3205 12.3677ZM15.1284 11.6926C15.2633 11.8662 15.3742 12.0555 15.4538 12.2527C17.2752 12.5792 20.6535 14.6803 19.5261 11.6926H15.1284ZM18.0993 5.61265H19.2005V5.87696H19.5481V6.73273C19.3253 6.82477 19.1684 7.04429 19.1684 7.30035C19.1684 7.57201 19.3449 7.80178 19.5894 7.8829L19.5927 7.88401L19.6025 7.88735L19.6043 7.88758L19.6101 7.88936L19.6172 7.89137L19.621 7.89226L19.6317 7.89515L19.6353 7.89605L19.6391 7.89694L19.6426 7.89783L19.6462 7.89872L19.65 7.89939L19.6538 7.90028L19.6602 7.90162L19.6645 7.90251L19.6683 7.90317L19.6718 7.90385L19.6732 7.90407L19.683 7.90563L19.6868 7.9063L19.6883 7.90652L19.6932 7.90719L19.6979 7.90785L19.7015 7.9083L19.7035 7.90874L19.7055 7.90897L19.709 7.90942L19.713 7.90986L19.7195 7.91053L19.7242 7.91097L19.728 7.91142L19.7318 7.91165L19.7393 7.91231L19.7431 7.91254L19.7503 7.91298L19.7659 7.91342L19.773 7.91365H19.7741H19.7779H19.7817C20.1207 7.91365 20.3952 7.63909 20.3952 7.30035L20.395 7.28876V7.28453L20.3945 7.2736L20.3939 7.26246C20.3934 7.25533 20.393 7.2482 20.3923 7.24129L20.3914 7.23283V7.23171L20.3901 7.22212V7.22056C20.3883 7.20764 20.3863 7.19471 20.3838 7.18201L20.3825 7.17644L20.3801 7.16552L20.3749 7.1439L20.372 7.13342L20.3718 7.13231L20.3682 7.11983L20.3676 7.11783L20.3658 7.11248C20.3355 7.01843 20.2836 6.93464 20.2156 6.86667L20.2145 6.86578L20.2069 6.8582L20.1993 6.85106L20.1942 6.84639L20.1911 6.84349L20.1833 6.83658L20.1753 6.82945L20.1719 6.82678L20.1608 6.81786L20.1583 6.81608C20.1516 6.81095 20.1447 6.80583 20.1378 6.8007L20.1369 6.79981L20.1322 6.79692L20.1247 6.79179L20.1235 6.7909L20.1146 6.78488L20.1122 6.78354L20.1102 6.78198C20.1026 6.7773 20.0948 6.77262 20.087 6.76817C20.0783 6.76349 20.0696 6.75858 20.0609 6.75412L20.0585 6.75256L20.0487 6.74767L20.0476 6.74744L20.0389 6.74321V6.58386C20.0389 6.07887 20.4832 5.41564 20.9882 5.40205L21.9251 5.37687L20.586 8.88197L16.756 8.89512L15.4195 5.39001L16.3096 5.40205C16.8148 5.40873 17.2587 6.07887 17.2587 6.58386V6.7441C17.1348 6.80182 17.0336 6.89965 16.9717 7.02088L16.971 7.02244L16.9661 7.03181L16.965 7.03426L16.959 7.0474L16.9572 7.05164L16.9525 7.06144L16.9485 7.07169L16.9472 7.07526L16.942 7.08908L16.9409 7.09197L16.9371 7.10245C16.9291 7.1263 16.9222 7.15171 16.9171 7.17667C16.9131 7.19628 16.91 7.21611 16.9077 7.23617V7.23862C16.9066 7.24775 16.9059 7.25667 16.9055 7.26581L16.9053 7.26892V7.27205L16.9048 7.28453L16.9046 7.28876L16.9044 7.30035C16.9044 7.63909 17.1789 7.91365 17.5177 7.91365H17.5217H17.5257L17.5333 7.91342L17.5487 7.91298L17.5565 7.91254L17.5602 7.91231L17.5678 7.91165L17.5716 7.91142L17.5756 7.91097L17.5803 7.91053L17.5868 7.90986L17.5908 7.90942L17.5943 7.90897L17.5961 7.90874L17.5981 7.9083L17.6019 7.90785L17.6055 7.90719L17.6093 7.90674L17.6113 7.90652L17.6131 7.9063L17.6166 7.90563L17.6204 7.90519L17.6264 7.90407L17.6278 7.90385L17.6313 7.90317L17.6351 7.90251L17.6387 7.90183L17.646 7.90028L17.6496 7.89939L17.6532 7.89872L17.6565 7.89783L17.6786 7.89226L17.6822 7.89137C17.9413 7.81938 18.1312 7.58226 18.1312 7.30035C18.1312 7.04429 17.9743 6.82477 17.7515 6.73273V5.87696H18.0993V5.61265ZM33.4767 26.7589C36.4313 25.5606 39.1752 23.558 39.8014 18.5687C39.2184 21.0321 37.9388 22.3949 36.3344 23.1504C34.6182 23.9583 32.5311 24.0712 30.5281 24.0917C31.8813 24.6756 32.7957 25.5151 33.4767 26.7589ZM41.0935 1.2627H1.97696V31.7861H1.98075L1.98008 31.8389L1.97674 32.1812V32.3163L1.97696 32.3689C1.97696 34.3768 2.54057 36.4073 3.55725 38.3194C4.59888 40.2781 6.11631 42.1129 7.99121 43.6731C9.80816 45.1852 11.9594 46.4378 14.3386 47.2956C16.5659 48.0986 18.9937 48.5557 21.5351 48.5557H21.8148C24.3685 48.5202 26.8111 47.9967 29.0479 47.1189C31.4643 46.1704 33.6414 44.8081 35.4597 43.2004C37.2151 41.6482 38.6347 39.8696 39.6097 38.0179C40.5656 36.2025 41.0944 34.3164 41.0944 32.5046C41.0944 32.4291 41.0951 32.4092 41.0955 32.3996L41.0953 32.3745L41.0955 32.3733H41.0935V32.3207V32.2403L41.0879 31.8392L41.0871 31.7861H41.0935V1.2627ZM180.144 60.4097H176.161V71.8469H174.645V60.4097H170.662V59.0578H180.144V60.4097ZM161.297 59.0578H168.258V60.4097H162.813V64.5936H167.801V65.9457H162.813V70.4948H168.349V71.8469H161.297V59.0578ZM158.618 60.4097H154.635V71.8469H153.119V60.4097H149.136V59.0578H158.618V60.4097ZM144.941 63.1869L145.051 61.7252H144.978L144.192 63.2232L138.017 71.8469H137.122V59.0578H138.638V67.8275L138.51 69.2709H138.583L139.387 67.7726L145.562 59.0578H146.458V71.8469H144.941V63.1869ZM134.078 71.3172C133.712 71.5973 133.25 71.7921 132.689 71.9017C132.129 72.0114 131.532 72.0662 130.899 72.0662C130.131 72.0662 129.413 71.9352 128.743 71.6733C128.073 71.4114 127.488 71.0125 126.989 70.4766C126.49 69.9408 126.094 69.2555 125.801 68.4212C125.509 67.587 125.363 66.5973 125.363 65.4523C125.363 64.2586 125.524 63.2446 125.847 62.4103C126.17 61.5759 126.596 60.8939 127.126 60.364C127.656 59.8342 128.25 59.4476 128.907 59.2038C129.565 58.9602 130.235 58.8385 130.917 58.8385C131.648 58.8385 132.245 58.878 132.708 58.9573C133.171 59.0364 133.566 59.1429 133.895 59.2769L133.53 60.6107C132.945 60.3306 132.111 60.1904 131.027 60.1904C130.527 60.1904 130.034 60.2817 129.547 60.4645C129.06 60.6472 128.624 60.9456 128.24 61.3597C127.857 61.774 127.549 62.316 127.318 62.9859C127.086 63.6558 126.971 64.4779 126.971 65.4523C126.971 66.3292 127.08 67.0967 127.3 67.7544C127.519 68.412 127.82 68.9603 128.204 69.3986C128.588 69.8372 129.038 70.1661 129.556 70.3852C130.074 70.6045 130.637 70.7141 131.246 70.7141C131.794 70.7141 132.272 70.6593 132.68 70.5497C133.088 70.44 133.432 70.3001 133.712 70.1296L134.078 71.3172ZM115.194 59.1855C115.657 59.0761 116.156 59.003 116.692 58.9664C117.228 58.9299 117.758 58.9116 118.281 58.9116C118.842 58.9116 119.411 58.9664 119.99 59.0761C120.568 59.1855 121.095 59.3865 121.57 59.6789C122.045 59.9713 122.432 60.3731 122.73 60.8848C123.029 61.3962 123.178 62.0479 123.178 62.8397C123.178 63.6192 123.038 64.2769 122.758 64.8129C122.478 65.3488 122.106 65.7843 121.643 66.1193C121.18 66.4542 120.651 66.6947 120.054 66.8409C119.457 66.9871 118.842 67.0602 118.208 67.0602C118.147 67.0602 118.047 67.0602 117.907 67.0602C117.767 67.0602 117.621 67.057 117.468 67.051C117.316 67.0448 117.167 67.0356 117.021 67.0236C116.875 67.0114 116.771 66.9991 116.71 66.9871V71.8469H115.194V59.1855ZM118.318 60.2269C118.001 60.2269 117.697 60.2332 117.404 60.2452C117.112 60.2574 116.881 60.288 116.71 60.3366V65.635C116.771 65.6593 116.868 65.6747 117.003 65.6807C117.137 65.6867 117.277 65.6929 117.423 65.6989C117.569 65.705 117.709 65.7081 117.843 65.7081C117.977 65.7081 118.074 65.7081 118.135 65.7081C118.55 65.7081 118.96 65.6684 119.369 65.5893C119.777 65.5102 120.145 65.3671 120.474 65.1601C120.803 64.9528 121.068 64.6607 121.269 64.2829C121.47 63.9054 121.57 63.4242 121.57 62.8397C121.57 62.3403 121.476 61.9231 121.287 61.5881C121.098 61.2532 120.849 60.9853 120.538 60.7843C120.227 60.5833 119.877 60.4402 119.487 60.3548C119.098 60.2697 118.708 60.2269 118.318 60.2269ZM104.604 59.0578H111.566V60.4097H106.121V64.5936H111.109V65.9457H106.121V70.4948H111.657V71.8469H104.604V59.0578ZM100.848 61.981C100.848 62.2854 100.8 62.5961 100.702 62.9128C100.605 63.2295 100.459 63.5248 100.264 63.7989C100.069 64.073 99.8193 64.3134 99.5146 64.5205C99.2102 64.7275 98.851 64.886 98.4367 64.9956V65.0687C98.8021 65.1296 99.1523 65.2332 99.4872 65.3792C99.8222 65.5253 100.118 65.7264 100.373 65.9822C100.629 66.238 100.836 66.5485 100.995 66.914C101.153 67.2795 101.232 67.7118 101.232 68.2112C101.232 68.8689 101.095 69.4383 100.821 69.9194C100.547 70.4006 100.188 70.7933 99.743 71.0979C99.2984 71.4023 98.7899 71.6276 98.2174 71.7738C97.6451 71.92 97.0603 71.9931 96.4635 71.9931C96.2565 71.9931 96.0129 71.9931 95.7327 71.9931C95.4526 71.9931 95.1602 71.984 94.8558 71.9657C94.5511 71.9474 94.2467 71.9231 93.9423 71.8926C93.6376 71.8621 93.3698 71.8164 93.1382 71.7555V59.1672C93.5891 59.0943 94.1128 59.0333 94.7096 58.9847C95.3064 58.9359 95.958 58.9116 96.6645 58.9116C97.1396 58.9116 97.6237 58.9511 98.1171 59.0304C98.6103 59.1095 99.058 59.2617 99.4598 59.487C99.8618 59.7123 100.194 60.0261 100.456 60.4279C100.717 60.83 100.848 61.3477 100.848 61.981ZM96.6097 70.6776C96.9995 70.6776 97.377 70.6319 97.7425 70.5405C98.1079 70.4491 98.4306 70.3032 98.7108 70.1022C98.9909 69.9011 99.2131 69.6544 99.3776 69.362C99.542 69.0699 99.6243 68.7227 99.6243 68.3206C99.6243 67.8214 99.5238 67.4194 99.3227 67.115C99.1219 66.8103 98.8599 66.573 98.5372 66.4023C98.2145 66.2318 97.8521 66.1161 97.4501 66.0553C97.0483 65.9942 96.6462 65.9639 96.2442 65.9639H94.6548V70.5497C94.7401 70.5742 94.8618 70.5924 95.0202 70.6045C95.1785 70.6167 95.349 70.629 95.5317 70.641C95.7145 70.6533 95.9032 70.6624 96.0982 70.6684C96.293 70.6745 96.4635 70.6776 96.6097 70.6776ZM95.6048 64.6849C95.8119 64.6849 96.0617 64.6789 96.3538 64.6667C96.6462 64.6544 96.8898 64.6362 97.0848 64.6119C97.377 64.5145 97.6511 64.3957 97.9069 64.2555C98.1628 64.1156 98.391 63.9511 98.592 63.7623C98.793 63.5736 98.9512 63.3543 99.0671 63.1047C99.1828 62.8548 99.2405 62.5839 99.2405 62.2915C99.2405 61.8897 99.1645 61.5576 99.0123 61.2957C98.8598 61.0339 98.6559 60.824 98.4001 60.6655C98.1445 60.5073 97.8521 60.3945 97.5232 60.3274C97.1942 60.2606 96.8593 60.2269 96.5183 60.2269C96.1165 60.2269 95.7479 60.2361 95.4129 60.2543C95.078 60.2726 94.8253 60.3 94.6548 60.3366V64.6849H95.6048ZM87.7195 63.1869L87.8291 61.7252H87.756L86.9704 63.2232L80.7951 71.8469H79.8996V59.0578H81.4162V67.8275L81.2882 69.2709H81.3613L82.1652 67.7726L88.3406 59.0578H89.2358V71.8469H87.7195V63.1869ZM74.4808 65.9822H68.342V71.8469H66.8255V59.0578H68.342V64.6301H74.4808V59.0578H75.9972V71.8469H74.4808V65.9822ZM59.5249 65.7995L59.9998 67.4254H60.0912L60.4567 65.7446L62.905 59.0578H64.4578L61.224 67.3706C60.8953 68.2355 60.606 68.9571 60.3562 69.5357C60.1066 70.1142 59.8538 70.5833 59.598 70.9426C59.3422 71.3018 59.0681 71.5576 58.7759 71.7099C58.4835 71.8621 58.1243 71.9383 57.6979 71.9383C57.2959 71.9383 56.9761 71.9048 56.7388 71.8378C56.5012 71.7707 56.2788 71.6704 56.0717 71.5363L56.5286 70.2758C56.7722 70.4097 56.9975 70.4948 57.2045 70.5314C57.4116 70.5679 57.6003 70.5862 57.771 70.5862C58.112 70.5862 58.3982 70.4126 58.6297 70.0656C58.861 69.7184 59.062 69.2038 59.2325 68.5217L54.5006 59.0578H56.2545L59.5249 65.7995ZM218.414 37.5253L218.553 35.5553H218.47L217.277 37.5808L212.338 43.8518H210.062V29.9781H213.67V36.582L213.503 38.4689H213.614L214.752 36.4989L219.746 29.9781H222.021V43.8518H218.414V37.5253ZM214.557 24.3177C214.687 25.0391 214.904 25.5479 215.21 25.8438C215.515 26.1398 215.908 26.2878 216.389 26.2878C216.907 26.2878 217.318 26.1398 217.624 25.8438C217.929 25.5479 218.137 25.0485 218.248 24.3456L220.995 25.0391C220.773 26.2417 220.227 27.1342 219.358 27.7167C218.488 28.2995 217.471 28.5908 216.306 28.5908C215.732 28.5908 215.177 28.5262 214.641 28.3967C214.104 28.2672 213.623 28.059 213.198 27.7722C212.772 27.4856 212.412 27.1202 212.116 26.6762C211.82 26.2323 211.616 25.6865 211.505 25.0391L214.557 24.3177ZM194.163 40.8274C194.718 40.9384 195.246 40.9939 195.745 40.9939C196.577 40.9939 197.16 40.8412 197.493 40.5359C197.826 40.2308 197.993 39.7544 197.993 39.107C197.993 38.5151 197.826 38.0665 197.493 37.7614C197.16 37.4561 196.605 37.3034 195.828 37.3034C195.218 37.3034 194.663 37.3682 194.163 37.4977V40.8274ZM194.163 34.9173C194.607 34.8433 195.056 34.7922 195.509 34.7646C195.962 34.7367 196.374 34.7229 196.744 34.7229C197.687 34.7229 198.473 34.8292 199.102 35.042C199.731 35.2549 200.24 35.5553 200.628 35.944C201.017 36.3324 201.294 36.7902 201.461 37.3174C201.627 37.8445 201.711 38.4134 201.711 39.0238C201.711 39.8562 201.6 40.587 201.378 41.2159C201.156 41.8448 200.795 42.3674 200.296 42.7834C199.796 43.1997 199.149 43.5142 198.353 43.727C197.558 43.9396 196.577 44.0462 195.412 44.0462C194.357 44.0462 193.446 44.0276 192.679 43.9907C191.911 43.9537 191.204 43.9073 190.556 43.8518V29.9781H194.163V34.9173ZM203.292 29.9781H206.899V43.8518H203.292V29.9781ZM183.786 38.3856H179.263V43.8518H175.656V29.9781H179.263V35.1947H183.786V29.9781H187.393V43.8518H183.786V38.3856ZM165.667 40.8274C166.222 40.9384 166.749 40.9939 167.249 40.9939C168.137 40.9939 168.779 40.8412 169.177 40.5359C169.575 40.2308 169.774 39.7544 169.774 39.107C169.774 37.9047 168.96 37.3034 167.332 37.3034C166.721 37.3034 166.167 37.3682 165.667 37.4977V40.8274ZM165.667 34.9173C166.111 34.8433 166.56 34.7922 167.013 34.7646C167.466 34.7367 167.878 34.7229 168.248 34.7229C169.209 34.7229 170.023 34.8292 170.689 35.042C171.355 35.2549 171.896 35.5553 172.312 35.944C172.729 36.3324 173.029 36.7902 173.214 37.3174C173.399 37.8445 173.492 38.4134 173.492 39.0238C173.492 40.7071 172.992 41.9651 171.993 42.7975C170.994 43.6298 169.302 44.0462 166.916 44.0462C165.861 44.0462 164.95 44.0276 164.183 43.9907C163.415 43.9537 162.707 43.9073 162.06 43.8518V29.9781H165.667V34.9173ZM155.317 33.1692H152.57C152.459 34.4825 152.33 35.7866 152.182 37.0814C152.034 38.3764 151.798 39.5371 151.474 40.5638C151.151 41.5905 150.711 42.4229 150.156 43.0611C149.601 43.6992 148.88 44.0183 147.992 44.0183C146.919 44.0183 146.161 43.8797 145.717 43.602L146.161 40.6055C146.457 40.7164 146.734 40.7719 146.993 40.7719C147.363 40.7719 147.687 40.6146 147.964 40.3001C148.242 39.9857 148.478 39.4214 148.672 38.6075C148.866 37.7937 149.023 36.6883 149.144 35.2919C149.264 33.8952 149.352 32.124 149.407 29.9781H158.925V43.8518H155.317V33.1692ZM133.924 30.7828C134.664 30.4499 135.543 30.1862 136.56 29.9921C137.578 29.7978 138.641 29.7006 139.751 29.7006C140.713 29.7006 141.518 29.8163 142.165 30.0476C142.813 30.2787 143.326 30.6072 143.705 31.0326C144.084 31.4581 144.353 31.9668 144.51 32.5588C144.667 33.1507 144.746 33.8166 144.746 34.5564C144.746 35.3703 144.718 36.1889 144.663 37.0121C144.607 37.8354 144.575 38.6445 144.565 39.4399C144.556 40.2355 144.579 41.0077 144.635 41.757C144.69 42.506 144.829 43.2136 145.051 43.8797H142.11L141.527 41.9651H141.388C141.018 42.5385 140.505 43.0333 139.848 43.4496C139.192 43.8656 138.345 44.0738 137.309 44.0738C136.662 44.0738 136.079 43.9766 135.561 43.7825C135.043 43.5882 134.599 43.3107 134.23 42.9501C133.86 42.5893 133.573 42.1639 133.369 41.6736C133.166 41.1836 133.064 40.6331 133.064 40.0227C133.064 39.1718 133.254 38.4549 133.633 37.8723C134.012 37.2896 134.558 36.8178 135.27 36.4572C135.982 36.0964 136.833 35.8468 137.823 35.708C138.812 35.5693 139.918 35.5277 141.139 35.5832C141.268 34.5473 141.194 33.8027 140.917 33.3495C140.639 32.8962 140.019 32.6697 139.057 32.6697C138.336 32.6697 137.573 32.7437 136.768 32.8917C135.964 33.0397 135.302 33.2338 134.784 33.4743L133.924 30.7828ZM138.503 41.1049C139.224 41.1049 139.797 40.9431 140.223 40.6193C140.648 40.2955 140.963 39.9487 141.166 39.5788V37.7752C140.593 37.7197 140.043 37.7103 139.515 37.7473C138.988 37.7843 138.521 37.8677 138.114 37.9971C137.707 38.1266 137.383 38.3116 137.143 38.552C136.902 38.7925 136.782 39.0978 136.782 39.4678C136.782 39.9857 136.935 40.3879 137.24 40.6748C137.545 40.9616 137.966 41.1049 138.503 41.1049ZM119.024 29.9781H121.66L122.076 31.643H122.187C122.668 30.9401 123.237 30.4222 123.894 30.0893C124.55 29.7561 125.35 29.5896 126.294 29.5896C128.033 29.5896 129.337 30.1401 130.206 31.2408C131.075 32.3412 131.51 34.1125 131.51 36.5544C131.51 37.7382 131.372 38.8063 131.094 39.759C130.816 40.7118 130.405 41.521 129.859 42.1871C129.313 42.853 128.648 43.3615 127.861 43.713C127.075 44.0646 126.173 44.2403 125.156 44.2403C124.583 44.2403 124.111 44.1986 123.741 44.1155C123.371 44.0321 123.001 43.8982 122.631 43.713V49.4012H119.024V29.9781ZM125.212 32.6419C124.509 32.6419 123.958 32.8177 123.561 33.1692C123.163 33.5206 122.853 34.0479 122.631 34.7508V40.5221C122.89 40.7256 123.172 40.8876 123.477 41.0077C123.783 41.1281 124.185 41.188 124.684 41.188C125.72 41.188 126.497 40.8228 127.015 40.092C127.533 39.3615 127.792 38.1545 127.792 36.471C127.792 35.2502 127.589 34.3068 127.182 33.6407C126.775 32.9748 126.118 32.6419 125.212 32.6419ZM116.027 42.6586C115.472 43.1026 114.718 43.4772 113.766 43.7825C112.813 44.0876 111.8 44.2403 110.727 44.2403C108.489 44.2403 106.852 43.5882 105.816 42.284C104.78 40.9801 104.262 39.1903 104.262 36.9149C104.262 34.4733 104.845 32.6419 106.01 31.4211C107.176 30.2003 108.813 29.5896 110.922 29.5896C111.625 29.5896 112.309 29.6821 112.975 29.8671C113.641 30.0523 114.233 30.3574 114.751 30.7828C115.269 31.2082 115.685 31.7817 115.999 32.5033C116.314 33.2247 116.471 34.1219 116.471 35.1947C116.471 35.5831 116.448 35.9995 116.402 36.4434C116.355 36.8873 116.286 37.3497 116.194 37.8307H107.87C107.925 38.996 108.225 39.8747 108.771 40.4666C109.317 41.0585 110.2 41.3545 111.421 41.3545C112.18 41.3545 112.859 41.239 113.461 41.0077C114.062 40.7764 114.52 40.5406 114.834 40.3001L116.027 42.6586ZM110.866 32.4754C109.923 32.4754 109.224 32.7575 108.771 33.3218C108.318 33.8859 108.045 34.6398 107.953 35.5832H113.114C113.188 34.5843 113.035 33.8166 112.656 33.2801C112.277 32.7437 111.68 32.4754 110.866 32.4754ZM102.958 47.015H100.322L99.906 43.8518H90.5829L90.1666 47.015H87.5307V40.6609H89.1678C89.3158 40.4575 89.5054 40.1105 89.7365 39.6204C89.9679 39.1301 90.199 38.4596 90.4303 37.6087C90.6616 36.7578 90.8604 35.7033 91.0269 34.4455C91.1934 33.1877 91.2765 31.6985 91.2765 29.9781H100.933V40.6609H102.958V47.015ZM97.3255 40.8274V33.0303H94.4121C94.3751 33.6962 94.3102 34.4038 94.2177 35.153C94.1253 35.9023 94.0096 36.6283 93.871 37.3312C93.7321 38.0341 93.5704 38.6909 93.3854 39.3013C93.2004 39.9117 92.9969 40.4205 92.775 40.8274H97.3255ZM86.4764 42.6586C85.9214 43.1026 85.1675 43.4772 84.2148 43.7825C83.2623 44.0876 82.2494 44.2403 81.1766 44.2403C78.9382 44.2403 77.3011 43.5882 76.2653 42.284C75.2294 40.9801 74.7115 39.1903 74.7115 36.9149C74.7115 34.4733 75.2941 32.6419 76.4596 31.4211C77.6249 30.2003 79.262 29.5896 81.3707 29.5896C82.0738 29.5896 82.7582 29.6821 83.4241 29.8671C84.09 30.0523 84.6819 30.3574 85.1998 30.7828C85.718 31.2082 86.1341 31.7817 86.4485 32.5033C86.763 33.2247 86.9203 34.1219 86.9203 35.1947C86.9203 35.5831 86.8971 35.9995 86.851 36.4434C86.8046 36.8873 86.7353 37.3497 86.6428 37.8307H78.3187C78.3742 38.996 78.6746 39.8747 79.2204 40.4666C79.7661 41.0585 80.6493 41.3545 81.8703 41.3545C82.6287 41.3545 83.3084 41.239 83.9097 41.0077C84.5108 40.7764 84.9687 40.5406 85.2832 40.3001L86.4764 42.6586ZM81.3152 32.4754C80.3719 32.4754 79.6736 32.7575 79.2204 33.3218C78.7673 33.8859 78.4943 34.6398 78.4018 35.5832H83.5627C83.6367 34.5843 83.4843 33.8166 83.105 33.2801C82.7259 32.7437 82.1293 32.4754 81.3152 32.4754ZM62.3084 44.0183C61.9939 44.1293 61.6657 44.1941 61.3234 44.2126C60.9811 44.2311 60.6713 44.2403 60.3938 44.2403C58.7106 44.2403 57.4156 43.639 56.5092 42.4367C55.6028 41.2344 55.1496 39.3938 55.1496 36.9149C55.1496 34.5473 55.649 32.7529 56.648 31.532C57.6469 30.3112 59.0897 29.7006 60.9766 29.7006C61.4945 29.7006 61.9385 29.7376 62.3084 29.8116V24.4287H65.8601V29.8395C66.193 29.784 66.489 29.747 66.7479 29.7285C67.0069 29.71 67.2567 29.7006 67.4972 29.7006C69.3284 29.7006 70.7065 30.2417 71.6314 31.3239C72.5565 32.4061 73.0189 34.1774 73.0189 36.6375C73.0189 37.8028 72.8939 38.8527 72.6443 39.7869C72.3945 40.7209 72.0292 41.521 71.5483 42.1871C71.0674 42.853 70.4799 43.3615 69.7864 43.713C69.0926 44.0646 68.2926 44.2403 67.3862 44.2403C67.2197 44.2403 66.9746 44.2264 66.6508 44.1986C66.3272 44.1709 66.0635 44.1201 65.8601 44.0462V49.4012H62.3084V44.0183ZM66.6924 32.5588C66.5075 32.5588 66.3457 32.5726 66.2068 32.6002C66.0682 32.6281 65.8971 32.6604 65.6936 32.6974V41.299C65.8416 41.336 66.0127 41.3592 66.2068 41.3685C66.4012 41.3777 66.6093 41.3823 66.8313 41.3823C67.7191 41.3823 68.3712 41.0171 68.7873 40.2863C69.2036 39.5556 69.4117 38.3394 69.4117 36.6375C69.4117 35.1947 69.2083 34.1542 68.8013 33.5159C68.3944 32.8777 67.6913 32.5588 66.6924 32.5588ZM61.3372 41.3823C61.5407 41.3823 61.7303 41.3685 61.9061 41.3407C62.0817 41.313 62.2714 41.2805 62.4749 41.2435V32.6697C62.1234 32.5957 61.7626 32.5588 61.3927 32.5588C60.5418 32.5588 59.8897 32.887 59.4367 33.5438C58.9834 34.2003 58.7567 35.3242 58.7567 36.9149C58.7567 38.3579 58.9649 39.4631 59.3812 40.2308C59.7972 40.9986 60.4493 41.3823 61.3372 41.3823ZM176.627 13.2408L176.766 11.2708H176.682L175.489 13.2963L170.55 19.5673H168.275V5.69355H171.882V12.2975L171.716 14.1844H171.827L172.964 12.2143L177.959 5.69355H180.234V19.5673H176.627V13.2408ZM172.77 0.0332031C172.899 0.754592 173.117 1.26337 173.422 1.55933C173.727 1.85528 174.12 2.00326 174.601 2.00326C175.119 2.00326 175.531 1.85528 175.836 1.55933C176.141 1.26337 176.349 0.763952 176.46 0.0610603L179.207 0.754583C178.985 1.95712 178.44 2.84967 177.57 3.43222C176.701 4.01499 175.683 4.30626 174.518 4.30626C173.945 4.30626 173.39 4.24163 172.853 4.11215C172.317 3.98267 171.836 3.77452 171.41 3.48771C170.985 3.20111 170.624 2.83562 170.328 2.39169C170.032 1.94776 169.829 1.40198 169.718 0.754583L172.77 0.0332031ZM161.505 13.2408L161.643 11.2708H161.56L160.367 13.2963L155.428 19.5673H153.153V5.69355H156.76V12.2975L156.593 14.1844H156.704L157.842 12.2143L162.837 5.69355H165.112V19.5673H161.505V13.2408ZM144.163 13.8236H143.191V19.5673H139.584V5.69355H143.191V11.6037L144.052 11.2153L147.298 5.69355H151.155L147.798 10.9657L146.382 12.02L147.936 13.1022L151.682 19.5673H147.548L144.163 13.8236ZM137.392 18.7071C136.837 19.114 136.167 19.424 135.381 19.6366C134.594 19.8494 133.785 19.9557 132.953 19.9557C131.843 19.9557 130.904 19.7801 130.136 19.4285C129.369 19.077 128.744 18.5823 128.263 17.944C127.782 17.306 127.435 16.5335 127.223 15.6272C127.01 14.7208 126.904 13.722 126.904 12.6304C126.904 10.2813 127.431 8.47302 128.485 7.20585C129.54 5.93869 131.075 5.30511 133.091 5.30511C134.109 5.30511 134.927 5.38846 135.547 5.55493C136.167 5.72141 136.726 5.93423 137.226 6.19319L136.366 9.13424C135.94 8.93077 135.519 8.77365 135.103 8.66267C134.687 8.55169 134.211 8.4962 133.674 8.4962C132.675 8.4962 131.917 8.82446 131.399 9.48123C130.881 10.1378 130.622 11.1876 130.622 12.6304C130.622 13.2223 130.687 13.7681 130.816 14.2675C130.945 14.767 131.14 15.2017 131.399 15.5717C131.658 15.9416 131.995 16.2329 132.411 16.4457C132.828 16.6586 133.313 16.7649 133.868 16.7649C134.479 16.7649 134.997 16.6862 135.422 16.5289C135.847 16.3718 136.227 16.1821 136.56 15.9601L137.392 18.7071ZM120.799 14.1011H116.277V19.5673H112.669V5.69355H116.277V10.9102H120.799V5.69355H124.406V19.5673H120.799V14.1011ZM98.8235 6.49828C99.5636 6.16533 100.442 5.90169 101.46 5.70758C102.477 5.51325 103.541 5.4161 104.651 5.4161C105.612 5.4161 106.417 5.53175 107.065 5.76308C107.712 5.99418 108.225 6.32268 108.605 6.74811C108.984 7.17355 109.252 7.68233 109.409 8.27424C109.566 8.86615 109.645 9.53204 109.645 10.2719C109.645 11.0858 109.617 11.9043 109.562 12.7276C109.506 13.5508 109.474 14.36 109.465 15.1554C109.455 15.951 109.479 16.7232 109.534 17.4724C109.59 18.2215 109.728 18.929 109.95 19.5952H107.009L106.426 17.6806H106.288C105.918 18.254 105.404 18.7487 104.748 19.165C104.091 19.5811 103.245 19.7893 102.209 19.7893C101.561 19.7893 100.979 19.6921 100.461 19.498C99.9427 19.3037 99.4988 19.0262 99.1288 18.6656C98.7589 18.3048 98.4721 17.8794 98.2686 17.3891C98.0652 16.899 97.9635 16.3486 97.9635 15.7382C97.9635 14.8873 98.153 14.1704 98.5323 13.5878C98.9116 13.005 99.4571 12.5333 100.169 12.1727C100.882 11.8119 101.732 11.5623 102.722 11.4234C103.712 11.2848 104.817 11.2431 106.038 11.2986C106.167 10.2628 106.093 9.51823 105.816 9.06493C105.538 8.61164 104.919 8.38522 103.957 8.38522C103.235 8.38522 102.472 8.45921 101.668 8.60719C100.863 8.75516 100.202 8.94926 99.6838 9.18973L98.8235 6.49828ZM103.402 16.8204C104.123 16.8204 104.697 16.6586 105.122 16.3348C105.548 16.0109 105.862 15.6642 106.066 15.2942V13.4907C105.492 13.4352 104.942 13.4258 104.415 13.4628C103.888 13.4998 103.42 13.5831 103.013 13.7126C102.607 13.8421 102.283 14.0271 102.042 14.2675C101.802 14.508 101.682 14.8133 101.682 15.1833C101.682 15.7012 101.834 16.1034 102.139 16.3902C102.445 16.6771 102.866 16.8204 103.402 16.8204ZM88.3628 13.8236V11.2986H90.0554C90.7028 11.2986 91.2348 11.1691 91.6509 10.9102C92.0672 10.6512 92.2753 10.3089 92.2753 9.88349C92.2753 9.38407 92.0904 9.02794 91.7204 8.81533C91.3505 8.6025 90.7862 8.4962 90.0278 8.4962C89.3064 8.4962 88.6682 8.58868 88.1133 8.77365C87.5583 8.95863 87.1142 9.15274 86.7812 9.35621L86.0043 6.60926C86.5593 6.29481 87.2947 6.02203 88.2102 5.79071C89.1259 5.55961 90.1018 5.44395 91.1376 5.44395C92.7284 5.44395 93.9169 5.7399 94.7031 6.33181C95.4894 6.92372 95.8825 7.78395 95.8825 8.91228C95.8825 9.22673 95.8408 9.54586 95.7575 9.86967C95.6743 10.1933 95.5402 10.5033 95.3552 10.7992C95.1702 11.0952 94.9436 11.3588 94.6755 11.5899C94.4072 11.8212 94.088 12.0015 93.7181 12.131V12.242C94.6985 12.4639 95.3922 12.8571 95.7991 13.4213C96.2061 13.9854 96.4096 14.7393 96.4096 15.6827C96.4096 16.2746 96.2894 16.825 96.049 17.3336C95.8085 17.8424 95.443 18.2816 94.953 18.6516C94.4627 19.0215 93.8476 19.3175 93.1077 19.5394C92.3678 19.7616 91.4891 19.8726 90.4717 19.8726C89.4544 19.8726 88.571 19.7661 87.8217 19.5535C87.0727 19.3406 86.4483 19.0955 85.9489 18.818L86.7257 16.0156C87.1512 16.2561 87.6646 16.4504 88.2657 16.5984C88.867 16.7464 89.5375 16.8204 90.2774 16.8204C91.9609 16.8204 92.8024 16.2839 92.8024 15.2109C92.8024 14.73 92.5851 14.3785 92.1503 14.1565C91.7157 13.9346 90.9063 13.8236 89.7225 13.8236H88.3628ZM73.0742 6.49828C73.8143 6.16533 74.6928 5.90169 75.7104 5.70758C76.7277 5.51325 77.7914 5.4161 78.9012 5.4161C79.8631 5.4161 80.6678 5.53175 81.3152 5.76308C81.9626 5.99418 82.4761 6.32268 82.8551 6.74811C83.2345 7.17355 83.5026 7.68233 83.6599 8.27424C83.817 8.86615 83.8957 9.53204 83.8957 10.2719C83.8957 11.0858 83.868 11.9043 83.8126 12.7276C83.7571 13.5508 83.7245 14.36 83.7154 15.1554C83.706 15.951 83.7292 16.7232 83.7847 17.4724C83.8402 18.2215 83.979 18.929 84.201 19.5952H81.2597L80.6769 17.6806H80.5383C80.1684 18.254 79.6549 18.7487 78.9984 19.165C78.3416 19.5811 77.4952 19.7893 76.4594 19.7893C75.812 19.7893 75.2292 19.6921 74.7113 19.498C74.1934 19.3037 73.7494 19.0262 73.3795 18.6656C73.0095 18.3048 72.7227 17.8794 72.5193 17.3891C72.3158 16.899 72.2142 16.3486 72.2142 15.7382C72.2142 14.8873 72.4036 14.1704 72.7829 13.5878C73.1622 13.005 73.7078 12.5333 74.42 12.1727C75.1323 11.8119 75.9831 11.5623 76.9728 11.4234C77.9623 11.2848 79.0677 11.2431 80.2885 11.2986C80.418 10.2628 80.344 9.51823 80.0665 9.06493C79.7891 8.61164 79.1693 8.38522 78.2075 8.38522C77.4861 8.38522 76.723 8.45921 75.9183 8.60719C75.1138 8.75516 74.4523 8.94926 73.9344 9.18973L73.0742 6.49828ZM77.6526 16.8204C78.3739 16.8204 78.9474 16.6586 79.3728 16.3348C79.7984 16.0109 80.1129 15.6642 80.3164 15.2942V13.4907C79.743 13.4352 79.1925 13.4258 78.6654 13.4628C78.1382 13.4998 77.671 13.5831 77.2641 13.7126C76.8572 13.8421 76.5334 14.0271 76.2929 14.2675C76.0524 14.508 75.9323 14.8133 75.9323 15.1833C75.9323 15.7012 76.0848 16.1034 76.3901 16.3902C76.6954 16.6771 77.1161 16.8204 77.6526 16.8204Z" fill="white"/>
</svg>
