<svg width="379" height="65" viewBox="0 0 379 65" fill="none" xmlns="http://www.w3.org/2000/svg">
<path d="M74.1123 6.64208H69.2287V11.3076H68.0225V1.13367H69.2287V5.56659H74.1123V1.13367H75.3185V11.3076H74.1123V6.64208ZM77.5568 4.57821C77.925 4.35545 78.3537 4.19061 78.8431 4.08412C79.3323 3.97743 79.8434 3.92419 80.3765 3.92419C80.8804 3.92419 81.2848 3.99212 81.59 4.12757C81.8952 4.26323 82.1277 4.44021 82.2877 4.65807C82.4476 4.87615 82.5541 5.11595 82.6073 5.37769C82.6608 5.63922 82.6874 5.90074 82.6874 6.16248C82.6874 6.74388 82.6729 7.31059 82.6438 7.86303C82.6148 8.41525 82.6001 8.93851 82.6001 9.4326C82.6001 9.79123 82.6148 10.1303 82.6438 10.4499C82.6729 10.7698 82.7262 11.0654 82.8037 11.3365H81.9461L81.6409 10.3192H81.5683C81.481 10.4548 81.3721 10.5882 81.2412 10.7189C81.1104 10.8497 80.953 10.966 80.7688 11.0678C80.5848 11.1696 80.3716 11.2543 80.1295 11.322C79.8871 11.39 79.6109 11.4238 79.3008 11.4238C78.9909 11.4238 78.7026 11.3753 78.4362 11.2786C78.1697 11.1817 77.9395 11.0435 77.7457 10.8642C77.5519 10.6851 77.3994 10.4693 77.2878 10.2176C77.1765 9.96565 77.1209 9.67964 77.1209 9.35998C77.1209 8.93361 77.208 8.57753 77.3824 8.29173C77.5568 8.00593 77.8015 7.77826 78.1163 7.60853C78.4313 7.43901 78.8093 7.31783 79.2501 7.24521C79.691 7.17258 80.1778 7.13617 80.7107 7.13617C80.8463 7.13617 80.9796 7.13617 81.1104 7.13617C81.2412 7.13617 81.3745 7.14596 81.5101 7.16534C81.5391 6.87464 81.5538 6.61312 81.5538 6.38056C81.5538 5.8475 81.4471 5.47459 81.2339 5.26141C81.0207 5.04823 80.6331 4.94153 80.0713 4.94153C79.9065 4.94153 79.7297 4.95367 79.5408 4.97795C79.3517 5.00457 79.1579 5.03843 78.9594 5.08443C78.7607 5.12809 78.5718 5.18389 78.3925 5.24927C78.2132 5.31231 78.0558 5.38493 77.9201 5.46479L77.5568 4.57821ZM79.6207 10.4065C79.892 10.4065 80.1342 10.3701 80.3473 10.2975C80.5605 10.2248 80.7447 10.1326 80.8998 10.0212C81.0548 9.90986 81.183 9.78634 81.2848 9.65068C81.3866 9.51501 81.4616 9.38425 81.5101 9.25818V8.05193C81.3745 8.04213 81.2365 8.03489 81.0959 8.0302C80.9554 8.02531 80.8174 8.02275 80.6817 8.02275C80.3812 8.02275 80.0881 8.03979 79.8023 8.07365C79.5165 8.10773 79.2646 8.17055 79.0465 8.26255C78.8284 8.35477 78.6542 8.48063 78.5233 8.64057C78.3925 8.80051 78.3271 9.00155 78.3271 9.24369C78.3271 9.58274 78.4483 9.86151 78.6904 10.0794C78.9328 10.2975 79.2429 10.4065 79.6207 10.4065ZM87.0258 8.74961L87.4328 10.1448H87.5054L87.8276 8.73491L89.2424 4.04047H90.4049L88.254 10.5662C88.0893 11.0411 87.9269 11.5014 87.7671 11.9471C87.6072 12.3926 87.4304 12.7898 87.2366 13.1387C87.0428 13.4875 86.8247 13.7661 86.5826 13.9743C86.3402 14.1826 86.0593 14.2868 85.7395 14.2868C85.3908 14.2868 85.1048 14.2384 84.8821 14.1415L85.0854 13.1387C85.2115 13.187 85.3327 13.2113 85.449 13.2113C85.7201 13.2113 85.9818 13.0684 86.2338 12.7826C86.4857 12.4968 86.694 12.0052 86.8586 11.3076L83.9373 4.04047H85.2746L87.0258 8.74961ZM92.4109 4.04047V6.01702C92.4109 6.27876 92.4254 6.51366 92.4543 6.72194C92.4835 6.93044 92.5417 7.10955 92.6288 7.25969C92.7161 7.41004 92.8419 7.52632 93.0068 7.60853C93.1714 7.69095 93.3895 7.73205 93.6608 7.73205C94.0967 7.73205 94.4554 7.68371 94.7363 7.58681C95.0174 7.48991 95.2304 7.38342 95.3758 7.26714V4.04047H96.5386V11.3076H95.3758V8.25531C95.2208 8.35221 94.9906 8.45891 94.6854 8.57519C94.3802 8.69147 93.9611 8.74961 93.4282 8.74961C93.0698 8.74961 92.7548 8.71085 92.4835 8.63333C92.2122 8.55581 91.9845 8.42015 91.8003 8.22635C91.6163 8.03255 91.4783 7.77571 91.3861 7.45604C91.2941 7.13617 91.2481 6.73408 91.2481 6.24958V4.04047H92.4109ZM103.224 8.09559H99.9397V11.3076H98.7769V4.04047H99.9397V7.07803H103.224V4.04047H104.387V11.3076H103.224V8.09559ZM107.788 10.2902C108.147 10.3484 108.491 10.3773 108.82 10.3773C109.43 10.3773 109.857 10.2587 110.099 10.0212C110.341 9.78399 110.462 9.44729 110.462 9.01114C110.462 8.62353 110.344 8.30387 110.106 8.05193C109.869 7.79999 109.455 7.67391 108.864 7.67391C108.699 7.67391 108.52 7.67881 108.326 7.6886C108.132 7.69819 107.953 7.72737 107.788 7.77571V10.2902ZM107.788 6.8165C108.021 6.77774 108.244 6.75112 108.457 6.73664C108.67 6.72194 108.873 6.7147 109.067 6.7147C109.561 6.7147 109.976 6.7705 110.31 6.88188C110.644 6.99327 110.913 7.14596 111.116 7.33976C111.32 7.53357 111.463 7.76357 111.545 8.0302C111.628 8.29663 111.669 8.58009 111.669 8.88037C111.669 9.76206 111.424 10.4016 110.935 10.7988C110.445 11.1962 109.653 11.3947 108.559 11.3947C107.938 11.3947 107.294 11.3657 106.625 11.3076V4.04047H107.788V6.8165ZM112.817 4.04047H113.98V11.3076H112.817V4.04047ZM120.753 7.0054L120.796 6.10434H120.753L120.157 7.03458L116.886 11.3076H116.218V4.04047H117.381V8.47339L117.337 9.33101H117.395L117.962 8.42973L121.232 4.04047H121.915V11.3076H120.753V7.0054ZM117.889 1.10449C117.986 1.55023 118.153 1.86031 118.391 2.03474C118.628 2.20916 118.902 2.29626 119.212 2.29626C119.522 2.29626 119.798 2.20426 120.04 2.02025C120.283 1.83604 120.447 1.53575 120.535 1.11919L121.407 1.39519C121.319 1.95721 121.07 2.38847 120.658 2.68876C120.246 2.98926 119.754 3.1394 119.183 3.1394C118.921 3.1394 118.662 3.10554 118.405 3.0376C118.148 2.96988 117.918 2.86808 117.715 2.73242C117.511 2.59676 117.337 2.42234 117.192 2.20916C117.046 1.99598 116.949 1.74403 116.901 1.45333L117.889 1.10449ZM136.493 13.1823H135.665L135.447 11.3076H128.151V1.13367H129.357V10.2321H133.935V1.13367H135.141V10.2321H136.493V13.1823ZM142.99 10.7262C142.699 10.9587 142.333 11.1429 141.892 11.2786C141.452 11.4141 140.984 11.482 140.49 11.482C139.938 11.482 139.458 11.3923 139.051 11.213C138.644 11.0339 138.31 10.7771 138.048 10.4427C137.787 10.1086 137.593 9.70882 137.467 9.24369C137.341 8.77857 137.278 8.25531 137.278 7.67391C137.278 6.4338 137.554 5.48907 138.106 4.83995C138.659 4.19061 139.448 3.86605 140.475 3.86605C140.805 3.86605 141.134 3.90246 141.464 3.97508C141.793 4.04771 142.089 4.18571 142.35 4.38931C142.612 4.59269 142.825 4.88105 142.99 5.25417C143.155 5.62708 143.237 6.11882 143.237 6.7294C143.237 7.04906 143.208 7.4028 143.15 7.79019H138.484C138.484 8.21655 138.528 8.59457 138.615 8.92403C138.702 9.25349 138.838 9.53205 139.022 9.75972C139.206 9.98738 139.446 10.1618 139.741 10.283C140.037 10.4039 140.398 10.4646 140.824 10.4646C141.154 10.4646 141.483 10.4065 141.813 10.2902C142.142 10.1739 142.389 10.0383 142.554 9.88324L142.99 10.7262ZM140.49 4.88339C139.918 4.88339 139.46 5.03353 139.116 5.33403C138.772 5.63432 138.567 6.14799 138.499 6.87464H142.103C142.103 6.1382 141.963 5.62218 141.682 5.32679C141.401 5.03119 141.004 4.88339 140.49 4.88339ZM149.516 8.09559H146.231V11.3076H145.068V4.04047H146.231V7.07803H149.516V4.04047H150.678V11.3076H149.516V8.09559ZM157.553 5.05781H155.271V11.3076H154.108V5.05781H151.826V4.04047H157.553V5.05781ZM158.701 4.04047H159.5L159.719 4.91257H159.777C160 4.57331 160.288 4.31413 160.642 4.13502C160.995 3.9557 161.4 3.86605 161.855 3.86605C162.824 3.86605 163.546 4.15185 164.021 4.72367C164.495 5.29527 164.733 6.2302 164.733 7.52867C164.733 8.13903 164.653 8.68891 164.493 9.17831C164.333 9.66771 164.108 10.0819 163.817 10.421C163.527 10.76 163.175 11.0218 162.764 11.2058C162.352 11.39 161.894 11.482 161.39 11.482C161.031 11.482 160.748 11.4603 160.54 11.4166C160.331 11.3729 160.106 11.298 159.864 11.1913V14.2142H158.701V4.04047ZM161.637 4.88339C161.143 4.88339 160.753 5.01181 160.467 5.26865C160.181 5.52528 159.98 5.91543 159.864 6.4387V10.0432C160.038 10.1788 160.237 10.283 160.46 10.3556C160.683 10.4282 160.978 10.4646 161.346 10.4646C162.015 10.4646 162.545 10.215 162.938 9.71606C163.33 9.21707 163.527 8.48319 163.527 7.51418C163.527 7.11679 163.493 6.75602 163.425 6.43124C163.357 6.10668 163.248 5.83067 163.098 5.6028C162.948 5.37513 162.754 5.19837 162.516 5.0723C162.279 4.94643 161.986 4.88339 161.637 4.88339ZM178.38 4.47641L178.526 2.9505H178.453L177.901 4.34565L175.256 8.93851H174.892L172.087 4.33117L171.564 2.9505H171.491L171.695 4.46193V11.3076H170.561V1.13367H171.462L174.645 6.3369L175.125 7.47052H175.154L175.604 6.30772L178.642 1.13367H179.587V11.3076H178.38V4.47641ZM186.476 7.0054L186.52 6.10434H186.476L185.88 7.03458L182.61 11.3076H181.941V4.04047H183.104V8.47339L183.061 9.33101H183.119L183.685 8.42973L186.956 4.04047H187.639V11.3076H186.476V7.0054ZM189.877 4.04047H190.676L190.894 4.91257H190.953C191.176 4.57331 191.464 4.31413 191.817 4.13502C192.171 3.9557 192.576 3.86605 193.031 3.86605C194 3.86605 194.722 4.15185 195.197 4.72367C195.671 5.29527 195.909 6.2302 195.909 7.52867C195.909 8.13903 195.829 8.68891 195.669 9.17831C195.509 9.66771 195.284 10.0819 194.993 10.421C194.703 10.76 194.351 11.0218 193.939 11.2058C193.528 11.39 193.07 11.482 192.566 11.482C192.207 11.482 191.924 11.4603 191.716 11.4166C191.507 11.3729 191.282 11.298 191.04 11.1913V14.2142H189.877V4.04047ZM192.813 4.88339C192.319 4.88339 191.929 5.01181 191.643 5.26865C191.357 5.52528 191.156 5.91543 191.04 6.4387V10.0432C191.214 10.1788 191.413 10.283 191.636 10.3556C191.859 10.4282 192.154 10.4646 192.522 10.4646C193.191 10.4646 193.721 10.215 194.114 9.71606C194.506 9.21707 194.703 8.48319 194.703 7.51418C194.703 7.11679 194.668 6.75602 194.601 6.43124C194.533 6.10668 194.424 5.83067 194.274 5.6028C194.123 5.37513 193.93 5.19837 193.692 5.0723C193.455 4.94643 193.162 4.88339 192.813 4.88339ZM197.333 7.67391C197.333 6.44338 197.607 5.50121 198.154 4.84719C198.702 4.19316 199.489 3.86605 200.516 3.86605C201.059 3.86605 201.531 3.9557 201.933 4.13502C202.335 4.31413 202.667 4.57097 202.929 4.90533C203.19 5.23947 203.384 5.64156 203.51 6.11158C203.636 6.5816 203.699 7.1023 203.699 7.67391C203.699 8.90465 203.425 9.84682 202.878 10.5008C202.33 11.1549 201.543 11.482 200.516 11.482C199.973 11.482 199.501 11.3923 199.099 11.213C198.697 11.0339 198.365 10.7771 198.103 10.4427C197.842 10.1086 197.648 9.70647 197.522 9.23645C197.396 8.76643 197.333 8.24573 197.333 7.67391ZM198.539 7.67391C198.539 8.04213 198.576 8.39587 198.648 8.73491C198.721 9.07417 198.835 9.36977 198.99 9.6215C199.145 9.87344 199.348 10.077 199.6 10.2321C199.852 10.3871 200.158 10.4646 200.516 10.4646C201.834 10.4742 202.493 9.54398 202.493 7.67391C202.493 7.2961 202.456 6.93768 202.384 6.59842C202.311 6.25938 202.197 5.96378 202.042 5.71184C201.887 5.4599 201.684 5.25885 201.432 5.10871C201.18 4.95857 200.875 4.88339 200.516 4.88339C199.198 4.87381 198.539 5.80405 198.539 7.67391ZM205.53 4.05495C205.869 4.03557 206.226 4.0115 206.599 3.98232C206.972 3.95336 207.434 3.93867 207.987 3.93867C208.946 3.93867 209.634 4.08647 210.05 4.38207C210.467 4.67745 210.676 5.12575 210.676 5.72653C210.676 6.06558 210.576 6.39738 210.378 6.72194C210.179 7.04672 209.852 7.28652 209.396 7.44156V7.4997C209.968 7.60618 210.37 7.80489 210.603 8.09559C210.835 8.38629 210.952 8.77368 210.952 9.25818C210.952 10.014 210.68 10.5615 210.138 10.9006C209.595 11.2398 208.781 11.4094 207.696 11.4094C207.289 11.4094 206.911 11.3972 206.562 11.3729C206.214 11.3487 205.869 11.322 205.53 11.2931V4.05495ZM206.693 10.3339C206.877 10.3533 207.059 10.3677 207.238 10.3773C207.418 10.3871 207.628 10.392 207.871 10.392C208.52 10.392 209.002 10.2998 209.317 10.1158C209.632 9.93158 209.789 9.61682 209.789 9.17107C209.789 8.82223 209.656 8.53877 209.389 8.32069C209.123 8.10283 208.65 7.99379 207.972 7.99379H206.693V10.3339ZM208.118 7.1072C208.292 7.1072 208.462 7.07803 208.626 7.01989C208.791 6.96175 208.939 6.88188 209.07 6.78008C209.2 6.6785 209.307 6.55966 209.389 6.424C209.472 6.28834 209.513 6.1431 209.513 5.98806C209.513 5.60045 209.396 5.33169 209.164 5.18133C208.932 5.03119 208.525 4.95601 207.943 4.95601C207.633 4.95601 207.388 4.96091 207.209 4.97071C207.03 4.98029 206.858 4.99009 206.693 4.99967V7.1072H208.118ZM212.376 7.67391C212.376 6.44338 212.65 5.50121 213.197 4.84719C213.745 4.19316 214.532 3.86605 215.559 3.86605C216.102 3.86605 216.574 3.9557 216.976 4.13502C217.378 4.31413 217.71 4.57097 217.972 4.90533C218.233 5.23947 218.427 5.64156 218.553 6.11158C218.679 6.5816 218.742 7.1023 218.742 7.67391C218.742 8.90465 218.468 9.84682 217.921 10.5008C217.373 11.1549 216.586 11.482 215.559 11.482C215.016 11.482 214.544 11.3923 214.142 11.213C213.74 11.0339 213.408 10.7771 213.146 10.4427C212.885 10.1086 212.691 9.70647 212.565 9.23645C212.439 8.76643 212.376 8.24573 212.376 7.67391ZM213.582 7.67391C213.582 8.04213 213.619 8.39587 213.691 8.73491C213.764 9.07417 213.878 9.36977 214.033 9.6215C214.188 9.87344 214.391 10.077 214.643 10.2321C214.895 10.3871 215.201 10.4646 215.559 10.4646C216.877 10.4742 217.536 9.54398 217.536 7.67391C217.536 7.2961 217.499 6.93768 217.427 6.59842C217.354 6.25938 217.24 5.96378 217.085 5.71184C216.93 5.4599 216.727 5.25885 216.475 5.10871C216.223 4.95857 215.918 4.88339 215.559 4.88339C214.241 4.87381 213.582 5.80405 213.582 7.67391ZM224.817 5.05781H221.736V11.3076H220.573V4.04047H224.817V5.05781ZM225.297 7.67391C225.297 6.44338 225.571 5.50121 226.118 4.84719C226.666 4.19316 227.453 3.86605 228.48 3.86605C229.023 3.86605 229.495 3.9557 229.897 4.13502C230.299 4.31413 230.631 4.57097 230.893 4.90533C231.154 5.23947 231.348 5.64156 231.474 6.11158C231.6 6.5816 231.663 7.1023 231.663 7.67391C231.663 8.90465 231.389 9.84682 230.842 10.5008C230.294 11.1549 229.507 11.482 228.48 11.482C227.937 11.482 227.465 11.3923 227.063 11.213C226.661 11.0339 226.329 10.7771 226.067 10.4427C225.806 10.1086 225.612 9.70647 225.486 9.23645C225.36 8.76643 225.297 8.24573 225.297 7.67391ZM226.503 7.67391C226.503 8.04213 226.54 8.39587 226.612 8.73491C226.685 9.07417 226.799 9.36977 226.954 9.6215C227.109 9.87344 227.312 10.077 227.564 10.2321C227.816 10.3871 228.122 10.4646 228.48 10.4646C229.798 10.4742 230.457 9.54398 230.457 7.67391C230.457 7.2961 230.42 6.93768 230.348 6.59842C230.275 6.25938 230.161 5.96378 230.006 5.71184C229.851 5.4599 229.648 5.25885 229.396 5.10871C229.144 4.95857 228.838 4.88339 228.48 4.88339C227.162 4.87381 226.503 5.80405 226.503 7.67391ZM239.933 6.49684L240.311 7.79019H240.383L240.674 6.45318L242.622 1.13367H243.857L241.285 7.74675C241.023 8.43463 240.793 9.00879 240.594 9.46902C240.396 9.92924 240.195 10.3024 239.991 10.5882C239.788 10.874 239.57 11.0773 239.337 11.1985C239.104 11.3197 238.819 11.3802 238.48 11.3802C238.16 11.3802 237.906 11.3536 237.717 11.3003C237.528 11.2471 237.351 11.167 237.186 11.0605L237.549 10.0577C237.743 10.1641 237.923 10.2321 238.087 10.261C238.252 10.2902 238.402 10.3047 238.538 10.3047C238.809 10.3047 239.037 10.1667 239.221 9.89048C239.405 9.61426 239.565 9.20494 239.7 8.66229L235.936 1.13367H237.331L239.933 6.49684ZM244.235 4.04047H245.034L245.252 4.91257H245.31C245.533 4.57331 245.822 4.31413 246.175 4.13502C246.529 3.9557 246.934 3.86605 247.389 3.86605C248.358 3.86605 249.08 4.15185 249.555 4.72367C250.029 5.29527 250.267 6.2302 250.267 7.52867C250.267 8.13903 250.187 8.68891 250.027 9.17831C249.867 9.66771 249.642 10.0819 249.351 10.421C249.06 10.76 248.709 11.0218 248.297 11.2058C247.885 11.39 247.428 11.482 246.924 11.482C246.565 11.482 246.282 11.4603 246.074 11.4166C245.865 11.3729 245.64 11.298 245.398 11.1913V14.2142H244.235V4.04047ZM247.171 4.88339C246.677 4.88339 246.287 5.01181 246.001 5.26865C245.715 5.52528 245.514 5.91543 245.398 6.4387V10.0432C245.572 10.1788 245.771 10.283 245.994 10.3556C246.216 10.4282 246.512 10.4646 246.88 10.4646C247.549 10.4646 248.079 10.215 248.472 9.71606C248.864 9.21707 249.06 8.48319 249.06 7.51418C249.06 7.11679 249.026 6.75602 248.959 6.43124C248.891 6.10668 248.782 5.83067 248.632 5.6028C248.481 5.37513 248.288 5.19837 248.05 5.0723C247.813 4.94643 247.52 4.88339 247.171 4.88339ZM251.691 7.67391C251.691 6.44338 251.965 5.50121 252.512 4.84719C253.06 4.19316 253.847 3.86605 254.874 3.86605C255.417 3.86605 255.889 3.9557 256.291 4.13502C256.693 4.31413 257.025 4.57097 257.287 4.90533C257.548 5.23947 257.742 5.64156 257.868 6.11158C257.994 6.5816 258.057 7.1023 258.057 7.67391C258.057 8.90465 257.783 9.84682 257.236 10.5008C256.688 11.1549 255.901 11.482 254.874 11.482C254.331 11.482 253.859 11.3923 253.457 11.213C253.055 11.0339 252.723 10.7771 252.461 10.4427C252.2 10.1086 252.006 9.70647 251.88 9.23645C251.754 8.76643 251.691 8.24573 251.691 7.67391ZM252.897 7.67391C252.897 8.04213 252.934 8.39587 253.006 8.73491C253.079 9.07417 253.193 9.36977 253.348 9.6215C253.503 9.87344 253.706 10.077 253.958 10.2321C254.21 10.3871 254.516 10.4646 254.874 10.4646C256.192 10.4742 256.851 9.54398 256.851 7.67391C256.851 7.2961 256.814 6.93768 256.742 6.59842C256.669 6.25938 256.555 5.96378 256.4 5.71184C256.245 5.4599 256.042 5.25885 255.79 5.10871C255.538 4.95857 255.232 4.88339 254.874 4.88339C253.556 4.87381 252.897 5.80405 252.897 7.67391ZM259.888 4.05495C260.227 4.03557 260.583 4.0115 260.957 3.98232C261.33 3.95336 261.792 3.93867 262.345 3.93867C263.304 3.93867 263.992 4.08647 264.408 4.38207C264.825 4.67745 265.033 5.12575 265.033 5.72653C265.033 6.06558 264.934 6.39738 264.735 6.72194C264.537 7.04672 264.21 7.28652 263.754 7.44156V7.4997C264.326 7.60618 264.728 7.80489 264.961 8.09559C265.193 8.38629 265.31 8.77368 265.31 9.25818C265.31 10.014 265.038 10.5615 264.496 10.9006C263.953 11.2398 263.139 11.4094 262.054 11.4094C261.647 11.4094 261.269 11.3972 260.92 11.3729C260.572 11.3487 260.227 11.322 259.888 11.2931V4.05495ZM261.051 10.3339C261.235 10.3533 261.417 10.3677 261.596 10.3773C261.775 10.3871 261.986 10.392 262.228 10.392C262.878 10.392 263.359 10.2998 263.674 10.1158C263.989 9.93158 264.147 9.61682 264.147 9.17107C264.147 8.82223 264.014 8.53877 263.747 8.32069C263.481 8.10283 263.008 7.99379 262.33 7.99379H261.051V10.3339ZM262.475 7.1072C262.65 7.1072 262.819 7.07803 262.984 7.01989C263.149 6.96175 263.297 6.88188 263.427 6.78008C263.558 6.6785 263.665 6.55966 263.747 6.424C263.83 6.28834 263.871 6.1431 263.871 5.98806C263.871 5.60045 263.754 5.33169 263.522 5.18133C263.289 5.03119 262.882 4.95601 262.301 4.95601C261.991 4.95601 261.746 4.96091 261.567 4.97071C261.388 4.98029 261.216 4.99009 261.051 4.99967V7.1072H262.475ZM271.588 8.09559H268.304V11.3076H267.141V4.04047H268.304V7.07803H271.588V4.04047H272.751V11.3076H271.588V8.09559ZM278.608 8.29897L277.489 8.47339L275.571 11.3076H274.161L275.905 8.82223L276.486 8.28449C275.983 8.20697 275.554 8.00337 275.2 7.67391C274.847 7.34466 274.67 6.89892 274.67 6.3369C274.67 5.90074 274.745 5.52783 274.895 5.21775C275.045 4.90767 275.261 4.65083 275.542 4.44745C275.823 4.24385 276.157 4.09626 276.545 4.00405C276.932 3.91205 277.368 3.86605 277.853 3.86605C278.211 3.86605 278.545 3.89032 278.855 3.93867C279.166 3.98722 279.471 4.04047 279.771 4.09861V11.3076H278.608V8.29897ZM278.608 5.02885C278.483 4.98029 278.342 4.94409 278.187 4.91981C278.032 4.89553 277.896 4.88339 277.78 4.88339C277.16 4.88339 276.687 4.99477 276.363 5.21775C276.038 5.44052 275.876 5.79426 275.876 6.27876C275.876 6.7147 276.048 7.05141 276.392 7.28886C276.736 7.52632 277.189 7.64495 277.751 7.64495C277.761 7.64495 277.775 7.64495 277.794 7.64495C277.814 7.64495 277.853 7.64495 277.911 7.64495C277.969 7.64495 278.051 7.6426 278.158 7.63771C278.264 7.63281 278.415 7.62557 278.608 7.61598V5.02885Z" fill="white"/>
<path d="M68.0225 20.6171C68.633 20.5009 69.3052 20.4099 70.0393 20.3445C70.7732 20.2792 71.5034 20.2466 72.2303 20.2466C72.9861 20.2466 73.7455 20.3083 74.5086 20.4319C75.2717 20.5554 75.9583 20.8024 76.5689 21.173C77.1792 21.5438 77.6771 22.0596 78.0622 22.7211C78.4474 23.3823 78.64 24.2436 78.64 25.3046C78.64 26.2638 78.4728 27.0741 78.1384 27.7354C77.8043 28.3966 77.3609 28.938 76.8087 29.3597C76.2562 29.7811 75.6278 30.0863 74.9228 30.2752C74.2179 30.4641 73.4874 30.5587 72.7316 30.5587C72.659 30.5587 72.5427 30.5587 72.3828 30.5587C72.223 30.5587 72.0559 30.5551 71.8814 30.5478C71.707 30.5406 71.5362 30.5297 71.369 30.515C71.2019 30.5006 71.082 30.4861 71.0093 30.4716V35.7257H68.0225V20.6171ZM72.4701 22.819C72.1794 22.819 71.9032 22.8301 71.6416 22.8518C71.3799 22.8735 71.1693 22.8991 71.0093 22.9281V27.877C71.0675 27.8917 71.1548 27.9062 71.2711 27.9207C71.3874 27.9351 71.5109 27.9462 71.6416 27.9535C71.7724 27.9607 71.8995 27.9643 72.0231 27.9643C72.1466 27.9643 72.2375 27.9643 72.2957 27.9643C72.6882 27.9643 73.0768 27.9279 73.4621 27.8553C73.8471 27.7827 74.1924 27.6483 74.4975 27.4519C74.8029 27.2558 75.0464 26.9832 75.228 26.6343C75.4097 26.2855 75.5006 25.8278 75.5006 25.2609C75.5006 24.7813 75.4133 24.3852 75.2389 24.0728C75.0645 23.7601 74.8355 23.5095 74.5521 23.3206C74.2688 23.1317 73.9453 23.0007 73.582 22.9281C73.2187 22.8554 72.8479 22.819 72.4701 22.819ZM79.8607 25.4571C80.4421 25.1955 81.1325 24.9883 81.9318 24.8358C82.7313 24.6831 83.567 24.6069 84.4391 24.6069C85.1949 24.6069 85.8272 24.6976 86.3358 24.8793C86.8446 25.0611 87.2479 25.319 87.5459 25.6534C87.8438 25.9876 88.0544 26.3873 88.1782 26.8524C88.3017 27.3175 88.3634 27.8408 88.3634 28.4222C88.3634 29.0617 88.3415 29.7049 88.2981 30.3517C88.2544 30.9985 88.2288 31.6342 88.2216 32.2592C88.2144 32.8843 88.2325 33.491 88.2761 34.0797C88.3198 34.6683 88.4288 35.2242 88.6032 35.7474H86.2921L85.8344 34.2433H85.7254C85.4347 34.6937 85.0313 35.0826 84.5153 35.4097C83.9993 35.7366 83.3344 35.9001 82.5205 35.9001C82.0119 35.9001 81.554 35.8239 81.147 35.6712C80.74 35.5185 80.3912 35.3006 80.1005 35.0172C79.8098 34.7337 79.5845 34.3994 79.4248 34.0143C79.2648 33.6291 79.185 33.1967 79.185 32.7171C79.185 32.0484 79.3338 31.4853 79.6318 31.0274C79.9297 30.5696 80.3586 30.199 80.9181 29.9155C81.4778 29.6321 82.1463 29.4359 82.9238 29.3269C83.7014 29.2178 84.5698 29.1853 85.5291 29.2287C85.6309 28.415 85.5727 27.8299 85.3548 27.4739C85.1368 27.1178 84.6499 26.9395 83.8941 26.9395C83.3272 26.9395 82.7277 26.9977 82.0954 27.1139C81.4631 27.2302 80.9434 27.3829 80.5367 27.5718L79.8607 25.4571ZM83.4579 33.5673C84.0249 33.5673 84.4755 33.4401 84.8096 33.1859C85.144 32.9314 85.391 32.659 85.551 32.3683V30.9512C85.1003 30.9075 84.668 30.9003 84.2538 30.9293C83.8396 30.9584 83.4724 31.0238 83.1528 31.1256C82.8331 31.2272 82.5786 31.3727 82.3897 31.5616C82.2008 31.7505 82.1062 31.9903 82.1062 32.281C82.1062 32.6879 82.2261 33.0042 82.4659 33.2295C82.7057 33.4546 83.0365 33.5673 83.4579 33.5673ZM101.379 38.2108H99.3079L98.9807 35.7257H90.7397V24.825H93.5739V33.2184H96.9533V24.825H99.7875V33.2184H101.379V38.2108ZM109.489 30.7548L109.598 29.207H109.533L108.595 30.7985L104.715 35.7257H102.927V24.825H105.761V30.0137L105.63 31.4962H105.718L106.611 29.9483L110.536 24.825H112.323V35.7257H109.489V30.7548ZM114.285 30.2752C114.285 28.4294 114.736 27.0087 115.637 26.0131C116.538 25.0175 117.803 24.5196 119.431 24.5196C120.303 24.5196 121.058 24.6578 121.698 24.9338C122.337 25.21 122.868 25.5989 123.289 26.1002C123.711 26.6018 124.027 27.2085 124.238 27.9207C124.448 28.6328 124.554 29.4178 124.554 30.2752C124.554 32.1212 124.107 33.5419 123.213 34.5376C122.319 35.5332 121.058 36.0309 119.431 36.0309C118.558 36.0309 117.803 35.8929 117.163 35.6167C116.524 35.3405 115.99 34.9518 115.561 34.4503C115.132 33.9489 114.812 33.342 114.602 32.6298C114.391 31.9176 114.285 31.1329 114.285 30.2752ZM117.207 30.2752C117.207 30.7548 117.251 31.1982 117.338 31.6052C117.425 32.0122 117.556 32.3683 117.73 32.6735C117.905 32.9787 118.133 33.2148 118.417 33.382C118.7 33.5492 119.038 33.6327 119.431 33.6327C120.172 33.6327 120.724 33.3639 121.087 32.8262C121.451 32.2884 121.632 31.438 121.632 30.2752C121.632 29.2724 121.465 28.462 121.131 27.8444C120.797 27.2266 120.23 26.9178 119.431 26.9178C118.733 26.9178 118.188 27.1795 117.796 27.7026C117.403 28.2258 117.207 29.0835 117.207 30.2752ZM132.904 31.4308H129.35V35.7257H126.516V24.825H129.35V28.9235H132.904V24.825H135.738V35.7257H132.904V31.4308ZM138.158 25.4571C138.739 25.1955 139.43 24.9883 140.229 24.8358C141.029 24.6831 141.864 24.6069 142.736 24.6069C143.492 24.6069 144.125 24.6976 144.633 24.8793C145.142 25.0611 145.545 25.319 145.843 25.6534C146.141 25.9876 146.352 26.3873 146.476 26.8524C146.599 27.3175 146.661 27.8408 146.661 28.4222C146.661 29.0617 146.639 29.7049 146.595 30.3517C146.552 30.9985 146.526 31.6342 146.519 32.2592C146.512 32.8843 146.53 33.491 146.573 34.0797C146.617 34.6683 146.726 35.2242 146.901 35.7474H144.589L144.132 34.2433H144.023C143.732 34.6937 143.329 35.0826 142.813 35.4097C142.297 35.7366 141.632 35.9001 140.818 35.9001C140.309 35.9001 139.851 35.8239 139.444 35.6712C139.037 35.5185 138.689 35.3006 138.398 35.0172C138.107 34.7337 137.882 34.3994 137.722 34.0143C137.562 33.6291 137.482 33.1967 137.482 32.7171C137.482 32.0484 137.631 31.4853 137.929 31.0274C138.227 30.5696 138.656 30.199 139.215 29.9155C139.775 29.6321 140.444 29.4359 141.221 29.3269C141.999 29.2178 142.867 29.1853 143.826 29.2287C143.928 28.415 143.87 27.8299 143.652 27.4739C143.434 27.1178 142.947 26.9395 142.191 26.9395C141.625 26.9395 141.025 26.9977 140.393 27.1139C139.76 27.2302 139.241 27.3829 138.834 27.5718L138.158 25.4571ZM141.755 33.5673C142.322 33.5673 142.773 33.4401 143.107 33.1859C143.441 32.9314 143.688 32.659 143.848 32.3683V30.9512C143.398 30.9075 142.965 30.9003 142.551 30.9293C142.137 30.9584 141.77 31.0238 141.45 31.1256C141.13 31.2272 140.876 31.3727 140.687 31.5616C140.498 31.7505 140.404 31.9903 140.404 32.281C140.404 32.6879 140.524 33.0042 140.763 33.2295C141.003 33.4546 141.334 33.5673 141.755 33.5673ZM154.967 27.332H152.809C152.722 28.3641 152.62 29.3886 152.504 30.406C152.387 31.4236 152.202 32.3355 151.948 33.1422C151.693 33.9489 151.348 34.603 150.912 35.1043C150.476 35.6058 149.909 35.8565 149.212 35.8565C148.369 35.8565 147.773 35.7474 147.424 35.5332L147.773 33.2184C148.005 33.3058 148.223 33.3494 148.427 33.3494C148.717 33.3494 148.972 33.2257 149.19 32.975C149.408 32.728 149.593 32.2846 149.746 31.6414C149.898 30.9985 150.022 30.1227 150.116 29.0217C150.211 27.917 150.28 26.5181 150.323 24.825H157.801V35.7257H154.967V27.332ZM163.099 33.3494C163.535 33.4365 163.95 33.4802 164.342 33.4802C165.04 33.4802 165.545 33.3603 165.857 33.1205C166.17 32.8807 166.326 32.5063 166.326 31.9977C166.326 31.0528 165.686 30.5804 164.407 30.5804C163.928 30.5804 163.492 30.6313 163.099 30.7331V33.3494ZM163.099 28.7057C163.448 28.6475 163.8 28.6075 164.157 28.5855C164.513 28.5638 164.836 28.553 165.127 28.553C165.883 28.553 166.522 28.6364 167.045 28.8036C167.568 28.9708 167.994 29.207 168.321 29.5122C168.648 29.8174 168.884 30.1773 169.029 30.5915C169.175 31.0057 169.247 31.4525 169.247 31.9321C169.247 33.2549 168.855 34.2433 168.07 34.8973C167.285 35.5513 165.955 35.8784 164.08 35.8784C163.252 35.8784 162.536 35.8637 161.933 35.8348C161.33 35.8056 160.774 35.7694 160.265 35.7257V24.825H163.099V28.7057ZM177.336 31.4308H173.782V35.7257H170.948V24.825H173.782V28.9235H177.336V24.825H180.17V35.7257H177.336V31.4308ZM182.132 30.2752C182.132 28.4294 182.583 27.0087 183.484 26.0131C184.385 25.0175 185.649 24.5196 187.277 24.5196C188.149 24.5196 188.905 24.6578 189.545 24.9338C190.184 25.21 190.715 25.5989 191.136 26.1002C191.558 26.6018 191.874 27.2085 192.085 27.9207C192.295 28.6328 192.401 29.4178 192.401 30.2752C192.401 32.1212 191.954 33.5419 191.06 34.5376C190.166 35.5332 188.905 36.0309 187.277 36.0309C186.405 36.0309 185.649 35.8929 185.01 35.6167C184.37 35.3405 183.836 34.9518 183.408 34.4503C182.979 33.9489 182.659 33.342 182.448 32.6298C182.238 31.9176 182.132 31.1329 182.132 30.2752ZM185.054 30.2752C185.054 30.7548 185.097 31.1982 185.184 31.6052C185.272 32.0122 185.402 32.3683 185.577 32.6735C185.751 32.9787 185.98 33.2148 186.264 33.382C186.547 33.5492 186.885 33.6327 187.277 33.6327C188.019 33.6327 188.571 33.3639 188.934 32.8262C189.298 32.2884 189.479 31.438 189.479 30.2752C189.479 29.2724 189.312 28.462 188.978 27.8444C188.644 27.2266 188.077 26.9178 187.277 26.9178C186.58 26.9178 186.035 27.1795 185.642 27.7026C185.25 28.2258 185.054 29.0835 185.054 30.2752ZM203.084 34.7882C202.647 35.1371 202.055 35.4314 201.307 35.6712C200.558 35.911 199.762 36.0309 198.919 36.0309C197.161 36.0309 195.874 35.5185 195.061 34.4939C194.247 33.4693 193.84 32.0631 193.84 30.2752C193.84 28.3568 194.297 26.9178 195.213 25.9586C196.129 24.9992 197.415 24.5196 199.072 24.5196C199.624 24.5196 200.162 24.5924 200.685 24.7376C201.209 24.8829 201.674 25.1229 202.081 25.4571C202.488 25.7914 202.815 26.2421 203.062 26.8088C203.309 27.3757 203.432 28.0806 203.432 28.9235C203.432 29.2287 203.414 29.5558 203.378 29.9047C203.342 30.2535 203.287 30.6168 203.214 30.9946H196.696C196.739 31.9104 196.976 32.6008 197.401 33.066C197.829 33.5311 198.52 33.7636 199.475 33.7636C200.071 33.7636 200.602 33.6727 201.074 33.491C201.543 33.3094 201.903 33.1241 202.15 32.9352L203.084 34.7882ZM199.039 26.787C198.302 26.787 197.753 27.0087 197.401 27.4519C197.048 27.8953 196.834 28.4876 196.761 29.2287H200.794C200.853 28.4439 200.733 27.8408 200.438 27.4193C200.14 26.9977 199.675 26.787 199.039 26.787ZM210.43 30.2752C210.43 28.4294 210.881 27.0087 211.782 26.0131C212.683 25.0175 213.948 24.5196 215.576 24.5196C216.448 24.5196 217.203 24.6578 217.843 24.9338C218.482 25.21 219.013 25.5989 219.434 26.1002C219.856 26.6018 220.172 27.2085 220.383 27.9207C220.594 28.6328 220.699 29.4178 220.699 30.2752C220.699 32.1212 220.252 33.5419 219.358 34.5376C218.464 35.5332 217.203 36.0309 215.576 36.0309C214.704 36.0309 213.948 35.8929 213.308 35.6167C212.669 35.3405 212.135 34.9518 211.706 34.4503C211.277 33.9489 210.957 33.342 210.747 32.6298C210.536 31.9176 210.43 31.1329 210.43 30.2752ZM213.352 30.2752C213.352 30.7548 213.396 31.1982 213.483 31.6052C213.57 32.0122 213.701 32.3683 213.875 32.6735C214.05 32.9787 214.279 33.2148 214.562 33.382C214.845 33.5492 215.183 33.6327 215.576 33.6327C216.317 33.6327 216.869 33.3639 217.233 32.8262C217.596 32.2884 217.778 31.438 217.778 30.2752C217.778 29.2724 217.61 28.462 217.276 27.8444C216.942 27.2266 216.375 26.9178 215.576 26.9178C214.878 26.9178 214.333 27.1795 213.941 27.7026C213.548 28.2258 213.352 29.0835 213.352 30.2752ZM230.379 35.0498C229.943 35.3696 229.416 35.6131 228.798 35.7802C228.181 35.9474 227.545 36.0309 226.891 36.0309C226.019 36.0309 225.281 35.8929 224.678 35.6167C224.075 35.3405 223.584 34.9518 223.206 34.4503C222.828 33.9489 222.556 33.342 222.389 32.6298C222.222 31.9176 222.138 31.1329 222.138 30.2752C222.138 28.4294 222.552 27.0087 223.381 26.0131C224.209 25.0175 225.415 24.5196 227 24.5196C227.799 24.5196 228.442 24.5849 228.929 24.7159C229.416 24.8467 229.856 25.0139 230.248 25.2173L229.572 27.5284C229.238 27.3684 228.907 27.2449 228.58 27.1576C228.253 27.0705 227.879 27.0268 227.458 27.0268C226.673 27.0268 226.077 27.2847 225.67 27.8008C225.263 28.3168 225.059 29.1416 225.059 30.2752C225.059 30.7404 225.11 31.1691 225.212 31.5616C225.314 31.9541 225.466 32.2957 225.67 32.5864C225.873 32.8771 226.138 33.1058 226.466 33.273C226.792 33.4401 227.174 33.5238 227.61 33.5238C228.09 33.5238 228.497 33.4619 228.831 33.3384C229.165 33.2148 229.463 33.066 229.725 32.8915L230.379 35.0498ZM232.101 24.8467C232.61 24.803 233.224 24.7594 233.944 24.7159C234.663 24.6723 235.437 24.6505 236.266 24.6505C237.864 24.6505 239.002 24.8793 239.677 25.3372C240.353 25.795 240.691 26.4819 240.691 27.3974C240.691 27.9062 240.546 28.4003 240.255 28.8801C239.965 29.3597 239.507 29.7085 238.882 29.9264V30.0137C239.667 30.1881 240.234 30.4969 240.582 30.9403C240.931 31.3835 241.105 31.9541 241.105 32.6517C241.105 33.7417 240.688 34.5557 239.852 35.0934C239.016 35.6312 237.675 35.9001 235.83 35.9001C235.219 35.9001 234.572 35.882 233.889 35.8456C233.206 35.8092 232.61 35.7621 232.101 35.704V24.8467ZM234.87 33.5456C235.074 33.5745 235.263 33.5965 235.437 33.6109C235.611 33.6254 235.83 33.6327 236.091 33.6327C236.876 33.6327 237.436 33.5238 237.77 33.3058C238.104 33.0877 238.271 32.7533 238.271 32.3029C238.271 31.9249 238.13 31.6161 237.846 31.3763C237.563 31.1365 237.058 31.0166 236.331 31.0166H234.87V33.5456ZM236.375 29.2724C236.84 29.2724 237.221 29.1597 237.519 28.9344C237.817 28.7093 237.966 28.4222 237.966 28.0734C237.966 27.6953 237.839 27.4083 237.584 27.2121C237.33 27.016 236.869 26.9178 236.2 26.9178C235.866 26.9178 235.601 26.925 235.404 26.9395C235.208 26.9542 235.03 26.9687 234.87 26.9832V29.2724H236.375ZM242.588 30.2752C242.588 28.4294 243.039 27.0087 243.94 26.0131C244.841 25.0175 246.105 24.5196 247.733 24.5196C248.605 24.5196 249.361 24.6578 250 24.9338C250.64 25.21 251.17 25.5989 251.592 26.1002C252.014 26.6018 252.33 27.2085 252.54 27.9207C252.751 28.6328 252.857 29.4178 252.857 30.2752C252.857 32.1212 252.41 33.5419 251.516 34.5376C250.622 35.5332 249.361 36.0309 247.733 36.0309C246.861 36.0309 246.105 35.8929 245.466 35.6167C244.826 35.3405 244.292 34.9518 243.863 34.4503C243.435 33.9489 243.115 33.342 242.904 32.6298C242.693 31.9176 242.588 31.1329 242.588 30.2752ZM245.509 30.2752C245.509 30.7548 245.553 31.1982 245.64 31.6052C245.727 32.0122 245.858 32.3683 246.033 32.6735C246.207 32.9787 246.436 33.2148 246.719 33.382C247.003 33.5492 247.341 33.6327 247.733 33.6327C248.474 33.6327 249.027 33.3639 249.39 32.8262C249.753 32.2884 249.935 31.438 249.935 30.2752C249.935 29.2724 249.768 28.462 249.434 27.8444C249.099 27.2266 248.532 26.9178 247.733 26.9178C247.036 26.9178 246.491 27.1795 246.098 27.7026C245.706 28.2258 245.509 29.0835 245.509 30.2752ZM263.539 34.7882C263.103 35.1371 262.511 35.4314 261.762 35.6712C261.014 35.911 260.218 36.0309 259.375 36.0309C257.617 36.0309 256.33 35.5185 255.516 34.4939C254.702 33.4693 254.295 32.0631 254.295 30.2752C254.295 28.3568 254.753 26.9178 255.669 25.9586C256.585 24.9992 257.871 24.5196 259.528 24.5196C260.08 24.5196 260.618 24.5924 261.141 24.7376C261.664 24.8829 262.13 25.1229 262.536 25.4571C262.943 25.7914 263.27 26.2421 263.517 26.8088C263.765 27.3757 263.888 28.0806 263.888 28.9235C263.888 29.2287 263.87 29.5558 263.834 29.9047C263.797 30.2535 263.743 30.6168 263.67 30.9946H257.151C257.195 31.9104 257.431 32.6008 257.856 33.066C258.285 33.5311 258.976 33.7636 259.931 33.7636C260.527 33.7636 261.058 33.6727 261.53 33.491C261.999 33.3094 262.358 33.1241 262.606 32.9352L263.539 34.7882ZM259.495 26.787C258.757 26.787 258.209 27.0087 257.856 27.4519C257.504 27.8953 257.289 28.4876 257.217 29.2287H261.25C261.308 28.4439 261.188 27.8408 260.894 27.4193C260.596 26.9977 260.131 26.787 259.495 26.787ZM272.282 31.4308H268.728V35.7257H265.894V24.825H268.728V28.9235H272.282V24.825H275.116V35.7257H272.282V31.4308ZM284.164 30.7548L284.273 29.207H284.207L283.27 30.7985L279.389 35.7257H277.601V24.825H280.435V30.0137L280.305 31.4962H280.392L281.286 29.9483L285.21 24.825H286.998V35.7257H284.164V30.7548ZM298.204 34.7882C297.768 35.1371 297.175 35.4314 296.427 35.6712C295.679 35.911 294.883 36.0309 294.04 36.0309C292.281 36.0309 290.995 35.5185 290.181 34.4939C289.367 33.4693 288.96 32.0631 288.96 30.2752C288.96 28.3568 289.418 26.9178 290.334 25.9586C291.249 24.9992 292.535 24.5196 294.192 24.5196C294.745 24.5196 295.283 24.5924 295.806 24.7376C296.329 24.8829 296.794 25.1229 297.201 25.4571C297.608 25.7914 297.935 26.2421 298.182 26.8088C298.429 27.3757 298.552 28.0806 298.552 28.9235C298.552 29.2287 298.534 29.5558 298.498 29.9047C298.462 30.2535 298.407 30.6168 298.335 30.9946H291.816C291.86 31.9104 292.096 32.6008 292.521 33.066C292.95 33.5311 293.64 33.7636 294.596 33.7636C295.192 33.7636 295.722 33.6727 296.194 33.491C296.663 33.3094 297.023 33.1241 297.27 32.9352L298.204 34.7882ZM294.16 26.787C293.422 26.787 292.873 27.0087 292.521 27.4519C292.168 27.8953 291.954 28.4876 291.881 29.2287H295.915C295.973 28.4439 295.853 27.8408 295.559 27.4193C295.261 26.9977 294.796 26.787 294.16 26.787ZM307.208 31.2127V29.2287H308.538C309.046 29.2287 309.464 29.1271 309.791 28.9235C310.118 28.7201 310.282 28.4512 310.282 28.117C310.282 27.7245 310.136 27.4447 309.846 27.2775C309.555 27.1103 309.112 27.0268 308.516 27.0268C307.949 27.0268 307.448 27.0995 307.011 27.2449C306.576 27.3902 306.227 27.5429 305.965 27.7026L305.355 25.5444C305.791 25.2973 306.368 25.0829 307.088 24.9012C307.807 24.7195 308.574 24.6286 309.388 24.6286C310.638 24.6286 311.572 24.8612 312.189 25.3263C312.807 25.7914 313.116 26.4672 313.116 27.354C313.116 27.601 313.083 27.8517 313.018 28.1059C312.952 28.3604 312.847 28.6039 312.702 28.8364C312.556 29.069 312.378 29.276 312.168 29.4577C311.957 29.6393 311.706 29.7812 311.415 29.8829V29.97C312.186 30.1445 312.731 30.4533 313.051 30.8967C313.37 31.3399 313.53 31.9321 313.53 32.6735C313.53 33.1386 313.436 33.5709 313.247 33.9707C313.058 34.3704 312.771 34.7156 312.386 35.0063C312 35.297 311.517 35.5296 310.936 35.704C310.354 35.8784 309.664 35.9655 308.865 35.9655C308.065 35.9655 307.371 35.882 306.783 35.7149C306.194 35.5477 305.703 35.3552 305.311 35.1371L305.922 32.9352C306.256 33.1241 306.659 33.2766 307.131 33.3929C307.604 33.5091 308.131 33.5673 308.712 33.5673C310.035 33.5673 310.696 33.1458 310.696 32.3029C310.696 31.9249 310.525 31.6489 310.184 31.4745C309.842 31.3 309.206 31.2127 308.276 31.2127H307.208ZM315.427 25.4571C316.008 25.1955 316.699 24.9883 317.498 24.8358C318.298 24.6831 319.133 24.6069 320.005 24.6069C320.761 24.6069 321.393 24.6976 321.902 24.8793C322.411 25.0611 322.814 25.319 323.112 25.6534C323.41 25.9876 323.621 26.3873 323.744 26.8524C323.868 27.3175 323.93 27.8408 323.93 28.4222C323.93 29.0617 323.908 29.7049 323.864 30.3517C323.821 30.9985 323.795 31.6342 323.788 32.2592C323.781 32.8843 323.799 33.491 323.842 34.0797C323.886 34.6683 323.995 35.2242 324.169 35.7474H321.858L321.401 34.2433H321.292C321.001 34.6937 320.598 35.0826 320.082 35.4097C319.566 35.7366 318.901 35.9001 318.087 35.9001C317.578 35.9001 317.12 35.8239 316.713 35.6712C316.306 35.5185 315.957 35.3006 315.667 35.0172C315.376 34.7337 315.151 34.3994 314.991 34.0143C314.831 33.6291 314.751 33.1967 314.751 32.7171C314.751 32.0484 314.9 31.4853 315.198 31.0274C315.496 30.5696 315.925 30.199 316.484 29.9155C317.044 29.6321 317.712 29.4359 318.49 29.3269C319.268 29.2178 320.136 29.1853 321.095 29.2287C321.197 28.415 321.139 27.8299 320.921 27.4739C320.703 27.1178 320.216 26.9395 319.46 26.9395C318.893 26.9395 318.294 26.9977 317.662 27.1139C317.029 27.2302 316.51 27.3829 316.103 27.5718L315.427 25.4571ZM319.024 33.5673C319.591 33.5673 320.042 33.4401 320.376 33.1859C320.71 32.9314 320.957 32.659 321.117 32.3683V30.9512C320.667 30.9075 320.234 30.9003 319.82 30.9293C319.406 30.9584 319.039 31.0238 318.719 31.1256C318.399 31.2272 318.145 31.3727 317.956 31.5616C317.767 31.7505 317.672 31.9903 317.672 32.281C317.672 32.6879 317.792 33.0042 318.032 33.2295C318.272 33.4546 318.603 33.5673 319.024 33.5673ZM332.585 27.332H329.14V35.7257H326.306V24.825H335.419V35.7257H332.585V27.332ZM337.839 25.4571C338.42 25.1955 339.111 24.9883 339.91 24.8358C340.71 24.6831 341.545 24.6069 342.417 24.6069C343.173 24.6069 343.805 24.6976 344.314 24.8793C344.823 25.0611 345.226 25.319 345.524 25.6534C345.822 25.9876 346.033 26.3873 346.156 26.8524C346.28 27.3175 346.342 27.8408 346.342 28.4222C346.342 29.0617 346.32 29.7049 346.276 30.3517C346.233 30.9985 346.207 31.6342 346.2 32.2592C346.193 32.8843 346.211 33.491 346.254 34.0797C346.298 34.6683 346.407 35.2242 346.582 35.7474H344.27L343.813 34.2433H343.704C343.413 34.6937 343.01 35.0826 342.494 35.4097C341.978 35.7366 341.313 35.9001 340.499 35.9001C339.99 35.9001 339.532 35.8239 339.125 35.6712C338.718 35.5185 338.37 35.3006 338.079 35.0172C337.788 34.7337 337.563 34.3994 337.403 34.0143C337.243 33.6291 337.163 33.1967 337.163 32.7171C337.163 32.0484 337.312 31.4853 337.61 31.0274C337.908 30.5696 338.337 30.199 338.896 29.9155C339.456 29.6321 340.125 29.4359 340.902 29.3269C341.68 29.2178 342.548 29.1853 343.507 29.2287C343.609 28.415 343.551 27.8299 343.333 27.4739C343.115 27.1178 342.628 26.9395 341.872 26.9395C341.305 26.9395 340.706 26.9977 340.074 27.1139C339.441 27.2302 338.922 27.3829 338.515 27.5718L337.839 25.4571ZM341.436 33.5673C342.003 33.5673 342.454 33.4401 342.788 33.1859C343.122 32.9314 343.369 32.659 343.529 32.3683V30.9512C343.079 30.9075 342.646 30.9003 342.232 30.9293C341.818 30.9584 341.451 31.0238 341.131 31.1256C340.811 31.2272 340.557 31.3727 340.368 31.5616C340.179 31.7505 340.085 31.9903 340.085 32.281C340.085 32.6879 340.204 33.0042 340.444 33.2295C340.684 33.4546 341.015 33.5673 341.436 33.5673ZM356.436 35.0498C356 35.3696 355.473 35.6131 354.855 35.7802C354.238 35.9474 353.602 36.0309 352.948 36.0309C352.075 36.0309 351.338 35.8929 350.735 35.6167C350.132 35.3405 349.641 34.9518 349.263 34.4503C348.885 33.9489 348.613 33.342 348.446 32.6298C348.278 31.9176 348.195 31.1329 348.195 30.2752C348.195 28.4294 348.609 27.0087 349.437 26.0131C350.266 25.0175 351.472 24.5196 353.057 24.5196C353.856 24.5196 354.499 24.5849 354.986 24.7159C355.473 24.8467 355.913 25.0139 356.305 25.2173L355.629 27.5284C355.295 27.3684 354.964 27.2449 354.637 27.1576C354.31 27.0705 353.936 27.0268 353.514 27.0268C352.729 27.0268 352.134 27.2847 351.727 27.8008C351.32 28.3168 351.116 29.1416 351.116 30.2752C351.116 30.7404 351.167 31.1691 351.269 31.5616C351.371 31.9541 351.523 32.2957 351.727 32.5864C351.93 32.8771 352.195 33.1058 352.522 33.273C352.849 33.4401 353.231 33.5238 353.667 33.5238C354.147 33.5238 354.554 33.4619 354.888 33.3384C355.222 33.2148 355.52 33.066 355.782 32.8915L356.436 35.0498ZM357.264 30.2752C357.264 28.4294 357.715 27.0087 358.616 26.0131C359.517 25.0175 360.782 24.5196 362.41 24.5196C363.282 24.5196 364.037 24.6578 364.677 24.9338C365.317 25.21 365.847 25.5989 366.268 26.1002C366.69 26.6018 367.006 27.2085 367.217 27.9207C367.428 28.6328 367.533 29.4178 367.533 30.2752C367.533 32.1212 367.086 33.5419 366.192 34.5376C365.298 35.5332 364.037 36.0309 362.41 36.0309C361.538 36.0309 360.782 35.8929 360.142 35.6167C359.503 35.3405 358.969 34.9518 358.54 34.4503C358.111 33.9489 357.791 33.342 357.581 32.6298C357.37 31.9176 357.264 31.1329 357.264 30.2752ZM360.186 30.2752C360.186 30.7548 360.23 31.1982 360.317 31.6052C360.404 32.0122 360.535 32.3683 360.709 32.6735C360.884 32.9787 361.113 33.2148 361.396 33.382C361.679 33.5492 362.017 33.6327 362.41 33.6327C363.151 33.6327 363.703 33.3639 364.067 32.8262C364.43 32.2884 364.612 31.438 364.612 30.2752C364.612 29.2724 364.444 28.462 364.11 27.8444C363.776 27.2266 363.209 26.9178 362.41 26.9178C361.712 26.9178 361.167 27.1795 360.775 27.7026C360.382 28.2258 360.186 29.0835 360.186 30.2752ZM369.495 24.8467C370.004 24.803 370.618 24.7594 371.337 24.7159C372.057 24.6723 372.831 24.6505 373.659 24.6505C375.258 24.6505 376.396 24.8793 377.071 25.3372C377.747 25.795 378.085 26.4819 378.085 27.3974C378.085 27.9062 377.94 28.4003 377.649 28.8801C377.358 29.3597 376.9 29.7085 376.276 29.9264V30.0137C377.06 30.1881 377.627 30.4969 377.976 30.9403C378.325 31.3835 378.499 31.9541 378.499 32.6517C378.499 33.7417 378.081 34.5557 377.246 35.0934C376.41 35.6312 375.069 35.9001 373.223 35.9001C372.613 35.9001 371.966 35.882 371.283 35.8456C370.6 35.8092 370.004 35.7621 369.495 35.704V24.8467ZM372.264 33.5456C372.468 33.5745 372.656 33.5965 372.831 33.6109C373.005 33.6254 373.223 33.6327 373.485 33.6327C374.27 33.6327 374.829 33.5238 375.164 33.3058C375.498 33.0877 375.665 32.7533 375.665 32.3029C375.665 31.9249 375.523 31.6161 375.24 31.3763C374.957 31.1365 374.451 31.0166 373.725 31.0166H372.264V33.5456ZM373.768 29.2724C374.233 29.2724 374.615 29.1597 374.913 28.9344C375.211 28.7093 375.36 28.4222 375.36 28.0734C375.36 27.6953 375.233 27.4083 374.978 27.2121C374.724 27.016 374.262 26.9178 373.594 26.9178C373.26 26.9178 372.994 26.925 372.798 26.9395C372.602 26.9542 372.424 26.9687 372.264 26.9832V29.2724H373.768Z" fill="white"/>
<path d="M73.4293 56.0993L71.2055 60.525H68.0225L70.8784 55.5324L71.6197 54.8784L70.5078 54.0499L68.2623 49.6242H71.2926L73.3202 54.0499H74.2577V49.6242H76.9611V54.268L77.7896 53.9626L79.839 49.6242H82.8476L80.4713 54.0499L79.6209 54.7476L80.7328 55.6197L83.3708 60.525H80.1224L77.8986 56.012H76.9611V60.525H74.2577V55.7939L73.4293 56.0993ZM91.0669 55.5541L91.1759 54.0063H91.1105L90.173 55.5978L86.2923 60.525H84.5045V49.6242H87.3386V54.813L87.2079 56.2955H87.2952L88.189 54.7476L92.1134 49.6242H93.901V60.525H91.0669V55.5541ZM107.222 63.0103H105.151L104.824 60.525H97.4983L97.1714 63.0103H95.1V58.0177H96.3864C96.5026 57.858 96.6517 57.5854 96.8334 57.2001C97.015 56.8151 97.1967 56.2882 97.3784 55.6197C97.56 54.951 97.7164 54.1226 97.8471 53.1342C97.9779 52.1458 98.0433 50.976 98.0433 49.6242H105.63V58.0177H107.222V63.0103ZM102.796 58.1487V52.0223H100.507C100.478 52.5455 100.427 53.1016 100.354 53.6902C100.282 54.2789 100.191 54.8492 100.082 55.4016C99.9727 55.9539 99.8456 56.4699 99.7004 56.9495C99.5549 57.4291 99.395 57.8288 99.2205 58.1487H102.796ZM112.367 56.012H111.604V60.525H108.77V49.6242H111.604V54.268L112.28 53.9626L114.831 49.6242H117.861L115.223 53.7665L114.111 54.5949L115.332 55.4453L118.275 60.525H115.027L112.367 56.012ZM125.993 55.5541L126.102 54.0063H126.037L125.099 55.5978L121.219 60.525H119.431V49.6242H122.265V54.813L122.134 56.2955H122.221L123.115 54.7476L127.04 49.6242H128.827V60.525H125.993V55.5541ZM133.776 54.9438L130.506 49.6242H133.885L135.302 51.9569L135.913 53.483L136.567 51.9569L138.049 49.6242H141.123L137.831 54.8566L141.342 60.525H138.049L136.371 57.9087L135.717 56.2955L135.019 57.9087L133.34 60.525H130.244L133.776 54.9438ZM151.523 55.7505L151.915 57.451H152.046L152.329 55.7285L153.986 49.6242H156.908L153.594 59.4568C153.318 60.2707 153.053 61.0155 152.798 61.6914C152.544 62.3672 152.264 62.9522 151.959 63.4465C151.654 63.9406 151.316 64.3222 150.945 64.591C150.575 64.86 150.135 64.9943 149.626 64.9943C148.87 64.9943 148.267 64.8708 147.817 64.6238L148.34 62.3563C148.558 62.4436 148.776 62.4871 148.994 62.4871C149.328 62.4871 149.652 62.3455 149.964 62.062C150.276 61.7785 150.513 61.2663 150.672 60.525L146.116 49.6242H149.517L151.523 55.7505ZM165.018 52.1313H160.898V60.525H157.976V49.6242H165.018V52.1313ZM171.34 52.1313H169.182C169.095 53.1633 168.993 54.1879 168.877 55.2053C168.76 56.2228 168.575 57.1348 168.321 57.9415C168.066 58.7482 167.721 59.4022 167.285 59.9036C166.849 60.4051 166.282 60.6558 165.585 60.6558C164.742 60.6558 164.146 60.5467 163.797 60.3325L164.146 58.0177C164.378 58.105 164.596 58.1487 164.8 58.1487C165.091 58.1487 165.345 58.025 165.563 57.7743C165.781 57.5273 165.966 57.0839 166.119 56.4407C166.272 55.7978 166.395 54.922 166.49 53.821C166.584 52.7163 166.653 51.3173 166.697 49.6242H174.175V60.525H171.34V52.1313ZM185.359 59.5875C184.923 59.9364 184.331 60.2307 183.582 60.4705C182.834 60.7103 182.038 60.8302 181.195 60.8302C179.436 60.8302 178.15 60.3178 177.336 59.2932C176.522 58.2686 176.115 56.8624 176.115 55.0745C176.115 53.1561 176.573 51.7171 177.489 50.7579C178.404 49.7985 179.69 49.3188 181.347 49.3188C181.9 49.3188 182.438 49.3917 182.961 49.5369C183.484 49.6822 183.949 49.9222 184.356 50.2563C184.763 50.5907 185.09 51.0413 185.337 51.608C185.584 52.175 185.708 52.8799 185.708 53.7228C185.708 54.028 185.69 54.3551 185.653 54.704C185.617 55.0528 185.562 55.4161 185.49 55.7939H178.971C179.015 56.7097 179.251 57.4001 179.676 57.8652C180.105 58.3304 180.795 58.5629 181.751 58.5629C182.347 58.5629 182.877 58.472 183.349 58.2903C183.818 58.1087 184.178 57.9234 184.425 57.7345L185.359 59.5875ZM181.315 51.5863C180.577 51.5863 180.028 51.808 179.676 52.2512C179.323 52.6946 179.109 53.2869 179.036 54.028H183.07C183.128 53.2432 183.008 52.6401 182.714 52.2186C182.416 51.7969 181.951 51.5863 181.315 51.5863ZM187.713 49.646C188.222 49.6023 188.836 49.5586 189.556 49.5152C190.275 49.4715 191.049 49.4498 191.877 49.4498C193.476 49.4498 194.614 49.6786 195.289 50.1364C195.965 50.5943 196.303 51.2811 196.303 52.1967C196.303 52.7055 196.158 53.1995 195.867 53.6794C195.577 54.159 195.119 54.5078 194.494 54.7257V54.813C195.279 54.9874 195.846 55.2962 196.194 55.7396C196.543 56.1828 196.717 56.7533 196.717 57.451C196.717 58.541 196.3 59.355 195.464 59.8927C194.628 60.4304 193.287 60.6994 191.442 60.6994C190.831 60.6994 190.184 60.6813 189.501 60.6449C188.818 60.6085 188.222 60.5614 187.713 60.5033V49.646ZM190.482 58.3448C190.686 58.3738 190.875 58.3958 191.049 58.4102C191.223 58.4247 191.442 58.432 191.703 58.432C192.488 58.432 193.048 58.3231 193.382 58.105C193.716 57.887 193.883 57.5526 193.883 57.1022C193.883 56.7242 193.742 56.4154 193.458 56.1756C193.175 55.9358 192.67 55.8159 191.943 55.8159H190.482V58.3448ZM191.987 54.0716C192.452 54.0716 192.833 53.959 193.131 53.7337C193.429 53.5086 193.578 53.2215 193.578 52.8726C193.578 52.4946 193.451 52.2075 193.196 52.0114C192.942 51.8153 192.481 51.7171 191.812 51.7171C191.478 51.7171 191.213 51.7243 191.016 51.7388C190.82 51.7535 190.642 51.768 190.482 51.7825V54.0716H191.987ZM198.2 55.0745C198.2 53.2287 198.651 51.808 199.552 50.8124C200.453 49.8168 201.717 49.3188 203.345 49.3188C204.217 49.3188 204.973 49.4571 205.612 49.7331C206.252 50.0093 206.782 50.3982 207.204 50.8995C207.626 51.401 207.942 52.0078 208.152 52.7199C208.363 53.4321 208.469 54.2171 208.469 55.0745C208.469 56.9205 208.022 58.3412 207.128 59.3369C206.234 60.3325 204.973 60.8302 203.345 60.8302C202.473 60.8302 201.717 60.6922 201.078 60.416C200.438 60.1397 199.904 59.7511 199.475 59.2495C199.047 58.7482 198.727 58.1413 198.516 57.4291C198.305 56.7169 198.2 55.9321 198.2 55.0745ZM201.121 55.0745C201.121 55.5541 201.165 55.9975 201.252 56.4045C201.339 56.8115 201.47 57.1676 201.645 57.4727C201.819 57.7779 202.048 58.0141 202.331 58.1813C202.615 58.3485 202.953 58.432 203.345 58.432C204.086 58.432 204.639 58.1632 205.002 57.6254C205.365 57.0877 205.547 56.2373 205.547 55.0745C205.547 54.0717 205.38 53.2613 205.046 52.6437C204.711 52.0259 204.144 51.7171 203.345 51.7171C202.647 51.7171 202.103 51.9788 201.71 52.5019C201.318 53.0251 201.121 53.8827 201.121 55.0745ZM221.266 63.0103H219.195L218.868 60.525H211.543L211.216 63.0103H209.144V58.0177H210.431C210.547 57.858 210.696 57.5854 210.878 57.2001C211.059 56.8151 211.241 56.2882 211.423 55.6197C211.604 54.951 211.761 54.1226 211.891 53.1342C212.022 52.1458 212.087 50.976 212.087 49.6242H219.674V58.0177H221.266V63.0103ZM216.84 58.1487V52.0223H214.551C214.522 52.5455 214.471 53.1016 214.399 53.6902C214.326 54.2789 214.235 54.8492 214.126 55.4016C214.017 55.9539 213.89 56.4699 213.745 56.9495C213.599 57.4291 213.439 57.8288 213.265 58.1487H216.84ZM222.291 55.0745C222.291 53.2287 222.741 51.808 223.643 50.8124C224.544 49.8168 225.808 49.3188 227.436 49.3188C228.308 49.3188 229.064 49.4571 229.703 49.7331C230.343 50.0093 230.873 50.3982 231.295 50.8995C231.717 51.401 232.033 52.0078 232.243 52.7199C232.454 53.4321 232.559 54.2171 232.559 55.0745C232.559 56.9205 232.112 58.3412 231.219 59.3369C230.325 60.3325 229.064 60.8302 227.436 60.8302C226.564 60.8302 225.808 60.6922 225.169 60.416C224.529 60.1397 223.995 59.7511 223.566 59.2495C223.138 58.7482 222.818 58.1413 222.607 57.4291C222.396 56.7169 222.291 55.9321 222.291 55.0745ZM225.212 55.0745C225.212 55.5541 225.256 55.9975 225.343 56.4045C225.43 56.8115 225.561 57.1676 225.736 57.4727C225.91 57.7779 226.139 58.0141 226.422 58.1813C226.706 58.3485 227.044 58.432 227.436 58.432C228.177 58.432 228.73 58.1632 229.093 57.6254C229.456 57.0877 229.638 56.2373 229.638 55.0745C229.638 54.0717 229.471 53.2613 229.137 52.6437C228.802 52.0259 228.235 51.7171 227.436 51.7171C226.738 51.7171 226.193 51.9788 225.801 52.5019C225.408 53.0251 225.212 53.8827 225.212 55.0745ZM234.521 49.6242H236.592L236.92 50.9323H237.007C237.385 50.3799 237.831 49.9729 238.348 49.7113C238.864 49.4498 239.492 49.3188 240.233 49.3188C241.6 49.3188 242.624 49.7514 243.308 50.616C243.99 51.4809 244.332 52.8726 244.332 54.7911C244.332 55.7213 244.223 56.5608 244.005 57.3092C243.787 58.0578 243.464 58.6937 243.035 59.217C242.606 59.7402 242.083 60.1397 241.465 60.416C240.848 60.6922 240.139 60.8302 239.34 60.8302C238.889 60.8302 238.518 60.7976 238.228 60.7322C237.937 60.6666 237.646 60.5614 237.355 60.416V64.8853H234.521V49.6242ZM239.383 51.7171C238.831 51.7171 238.398 51.8551 238.086 52.1313C237.773 52.4075 237.53 52.8217 237.355 53.374V57.9087C237.559 58.0686 237.781 58.1958 238.021 58.2903C238.26 58.3849 238.576 58.432 238.969 58.432C239.783 58.432 240.393 58.1449 240.8 57.5709C241.207 56.9968 241.411 56.0484 241.411 54.7257C241.411 53.7665 241.251 53.0251 240.931 52.5019C240.611 51.9788 240.095 51.7171 239.383 51.7171ZM245.771 55.0745C245.771 53.2287 246.222 51.808 247.123 50.8124C248.024 49.8168 249.288 49.3188 250.916 49.3188C251.788 49.3188 252.544 49.4571 253.183 49.7331C253.823 50.0093 254.354 50.3982 254.775 50.8995C255.197 51.401 255.513 52.0078 255.724 52.7199C255.934 53.4321 256.04 54.2171 256.04 55.0745C256.04 56.9205 255.593 58.3412 254.699 59.3369C253.805 60.3325 252.544 60.8302 250.916 60.8302C250.044 60.8302 249.288 60.6922 248.649 60.416C248.009 60.1397 247.475 59.7511 247.046 59.2495C246.618 58.7482 246.298 58.1413 246.087 57.4291C245.876 56.7169 245.771 55.9321 245.771 55.0745ZM248.692 55.0745C248.692 55.5541 248.736 55.9975 248.823 56.4045C248.91 56.8115 249.041 57.1676 249.216 57.4727C249.39 57.7779 249.619 58.0141 249.902 58.1813C250.186 58.3485 250.524 58.432 250.916 58.432C251.657 58.432 252.21 58.1632 252.573 57.6254C252.936 57.0877 253.118 56.2373 253.118 55.0745C253.118 54.0717 252.951 53.2613 252.617 52.6437C252.282 52.0259 251.715 51.7171 250.916 51.7171C250.219 51.7171 249.674 51.9788 249.281 52.5019C248.889 53.0251 248.692 53.8827 248.692 55.0745ZM268.837 63.0103H266.766L266.439 60.525H259.114L258.787 63.0103H256.715V58.0177H258.002C258.118 57.858 258.267 57.5854 258.449 57.2001C258.63 56.8151 258.812 56.2882 258.994 55.6197C259.175 54.951 259.332 54.1226 259.462 53.1342C259.593 52.1458 259.659 50.976 259.659 49.6242H267.246V58.0177H268.837V63.0103ZM264.411 58.1487V52.0223H262.122C262.093 52.5455 262.042 53.1016 261.97 53.6902C261.897 54.2789 261.806 54.8492 261.697 55.4016C261.588 55.9539 261.461 56.4699 261.316 56.9495C261.17 57.4291 261.01 57.8288 260.836 58.1487H264.411ZM269.862 55.0745C269.862 53.2287 270.312 51.808 271.214 50.8124C272.115 49.8168 273.379 49.3188 275.007 49.3188C275.879 49.3188 276.635 49.4571 277.274 49.7331C277.914 50.0093 278.444 50.3982 278.866 50.8995C279.288 51.401 279.604 52.0078 279.814 52.7199C280.025 53.4321 280.13 54.2171 280.13 55.0745C280.13 56.9205 279.683 58.3412 278.79 59.3369C277.896 60.3325 276.635 60.8302 275.007 60.8302C274.135 60.8302 273.379 60.6922 272.74 60.416C272.1 60.1397 271.566 59.7511 271.137 59.2495C270.709 58.7482 270.389 58.1413 270.178 57.4291C269.967 56.7169 269.862 55.9321 269.862 55.0745ZM272.783 55.0745C272.783 55.5541 272.827 55.9975 272.914 56.4045C273.001 56.8115 273.132 57.1676 273.307 57.4727C273.481 57.7779 273.71 58.0141 273.993 58.1813C274.277 58.3485 274.615 58.432 275.007 58.432C275.748 58.432 276.301 58.1632 276.664 57.6254C277.027 57.0877 277.209 56.2373 277.209 55.0745C277.209 54.0717 277.042 53.2613 276.708 52.6437C276.373 52.0259 275.806 51.7171 275.007 51.7171C274.309 51.7171 273.764 51.9788 273.372 52.5019C272.979 53.0251 272.783 53.8827 272.783 55.0745ZM282.093 49.646C282.601 49.6023 283.215 49.5586 283.935 49.5152C284.654 49.4715 285.428 49.4498 286.257 49.4498C287.855 49.4498 288.993 49.6786 289.669 50.1364C290.345 50.5943 290.682 51.2811 290.682 52.1967C290.682 52.7055 290.537 53.1995 290.246 53.6794C289.956 54.159 289.498 54.5078 288.873 54.7257V54.813C289.658 54.9874 290.225 55.2962 290.573 55.7396C290.922 56.1828 291.097 56.7533 291.097 57.451C291.097 58.541 290.679 59.355 289.843 59.8927C289.007 60.4304 287.667 60.6994 285.821 60.6994C285.21 60.6994 284.563 60.6813 283.88 60.6449C283.197 60.6085 282.601 60.5614 282.093 60.5033V49.646ZM284.861 58.3448C285.065 58.3738 285.254 58.3958 285.428 58.4102C285.603 58.4247 285.821 58.432 286.082 58.432C286.867 58.432 287.427 58.3231 287.761 58.105C288.095 57.887 288.262 57.5526 288.262 57.1022C288.262 56.7242 288.121 56.4154 287.837 56.1756C287.554 55.9358 287.049 55.8159 286.322 55.8159H284.861V58.3448ZM286.366 54.0716C286.831 54.0716 287.212 53.959 287.51 53.7337C287.808 53.5086 287.957 53.2215 287.957 52.8726C287.957 52.4946 287.83 52.2075 287.576 52.0114C287.321 51.8153 286.86 51.7171 286.191 51.7171C285.857 51.7171 285.592 51.7243 285.395 51.7388C285.199 51.7535 285.021 51.768 284.861 51.7825V54.0716H286.366ZM304.897 52.1313H301.452V60.525H298.618V49.6242H307.731V60.525H304.897V52.1313ZM316.147 52.1313H313.988C313.901 53.1633 313.799 54.1879 313.683 55.2053C313.567 56.2228 313.382 57.1348 313.127 57.9415C312.873 58.7482 312.528 59.4022 312.092 59.9036C311.656 60.4051 311.089 60.6558 310.391 60.6558C309.548 60.6558 308.952 60.5467 308.603 60.3325L308.952 58.0177C309.185 58.105 309.403 58.1487 309.606 58.1487C309.897 58.1487 310.151 58.025 310.369 57.7743C310.587 57.5273 310.773 57.0839 310.925 56.4407C311.078 55.7978 311.201 54.922 311.296 53.821C311.39 52.7163 311.459 51.3173 311.503 49.6242H318.981V60.525H316.147V52.1313ZM321.379 50.2563C321.961 49.9948 322.651 49.7876 323.45 49.6351C324.25 49.4824 325.085 49.4062 325.957 49.4062C326.713 49.4062 327.345 49.4969 327.854 49.6786C328.363 49.8604 328.766 50.1183 329.064 50.4527C329.362 50.7868 329.573 51.1866 329.696 51.6517C329.82 52.1168 329.882 52.6401 329.882 53.2215C329.882 53.861 329.86 54.5042 329.816 55.151C329.773 55.7978 329.747 56.4335 329.74 57.0585C329.733 57.6836 329.751 58.2903 329.794 58.879C329.838 59.4676 329.947 60.0235 330.121 60.5467H327.81L327.353 59.0425H327.244C326.953 59.493 326.55 59.8818 326.034 60.209C325.518 60.5359 324.853 60.6994 324.039 60.6994C323.53 60.6994 323.072 60.6232 322.665 60.4705C322.259 60.3178 321.91 60.0999 321.619 59.8165C321.328 59.533 321.103 59.1986 320.943 58.8136C320.783 58.4283 320.703 57.996 320.703 57.5164C320.703 56.8477 320.852 56.2846 321.15 55.8267C321.448 55.3688 321.877 54.9983 322.437 54.7148C322.996 54.4314 323.665 54.2352 324.442 54.1262C325.22 54.0171 326.088 53.9845 327.047 54.028C327.149 53.2142 327.091 52.6292 326.873 52.2731C326.655 51.9171 326.168 51.7388 325.412 51.7388C324.845 51.7388 324.246 51.7969 323.614 51.9132C322.981 52.0295 322.462 52.1822 322.055 52.3711L321.379 50.2563ZM324.976 58.3666C325.543 58.3666 325.994 58.2394 326.328 57.9851C326.662 57.7306 326.909 57.4583 327.069 57.1676V55.7505C326.619 55.7068 326.186 55.6996 325.772 55.7285C325.358 55.7577 324.991 55.8231 324.671 55.9249C324.351 56.0265 324.097 56.1719 323.908 56.3608C323.719 56.5497 323.624 56.7895 323.624 57.0802C323.624 57.4872 323.744 57.8035 323.984 58.0288C324.224 58.2539 324.555 58.3666 324.976 58.3666ZM338.646 56.2301H335.092V60.525H332.258V49.6242H335.092V53.7228H338.646V49.6242H341.48V60.525H338.646V56.2301ZM352.686 59.5875C352.25 59.9364 351.658 60.2307 350.909 60.4705C350.161 60.7103 349.365 60.8302 348.522 60.8302C346.763 60.8302 345.477 60.3178 344.663 59.2932C343.849 58.2686 343.442 56.8624 343.442 55.0745C343.442 53.1561 343.9 51.7171 344.816 50.7579C345.731 49.7985 347.018 49.3188 348.675 49.3188C349.227 49.3188 349.765 49.3917 350.288 49.5369C350.811 49.6822 351.276 49.9222 351.683 50.2563C352.09 50.5907 352.417 51.0413 352.664 51.608C352.911 52.175 353.035 52.8799 353.035 53.7228C353.035 54.028 353.017 54.3551 352.981 54.704C352.944 55.0528 352.89 55.4161 352.817 55.7939H346.298C346.342 56.7097 346.578 57.4001 347.003 57.8652C347.432 58.3304 348.122 58.5629 349.078 58.5629C349.674 58.5629 350.204 58.472 350.677 58.2903C351.145 58.1087 351.505 57.9234 351.752 57.7345L352.686 59.5875ZM348.642 51.5863C347.904 51.5863 347.356 51.808 347.003 52.2512C346.651 52.6946 346.436 53.2869 346.364 54.028H350.397C350.455 53.2432 350.335 52.6401 350.041 52.2186C349.743 51.7969 349.278 51.5863 348.642 51.5863ZM362.889 52.1313H359.815V60.525H356.894V52.1313H353.82V49.6242H362.889V52.1313ZM366.988 58.1487C367.424 58.2358 367.838 58.2795 368.231 58.2795C368.885 58.2795 369.342 58.1596 369.604 57.9198C369.866 57.68 369.997 57.3056 369.997 56.797C369.997 56.3319 369.866 55.9794 369.604 55.7396C369.342 55.4996 368.907 55.3797 368.296 55.3797C367.816 55.3797 367.38 55.4306 366.988 55.5324V58.1487ZM366.988 53.5049C367.337 53.4468 367.689 53.4068 368.045 53.3848C368.401 53.3631 368.725 53.3522 369.016 53.3522C369.757 53.3522 370.375 53.4357 370.869 53.6029C371.363 53.7701 371.763 54.0063 372.068 54.3115C372.373 54.6166 372.591 54.9766 372.722 55.3908C372.853 55.805 372.918 56.2518 372.918 56.7314C372.918 57.3856 372.831 57.9596 372.656 58.4539C372.482 58.948 372.199 59.3586 371.806 59.6857C371.414 60.0126 370.905 60.2596 370.28 60.4268C369.655 60.594 368.885 60.6777 367.969 60.6777C367.141 60.6777 366.425 60.663 365.822 60.634C365.218 60.6049 364.663 60.5687 364.154 60.525V49.6242H366.988V53.5049ZM374.161 49.6242H376.995V60.525H374.161V49.6242Z" fill="white"/>
<path fill-rule="evenodd" clip-rule="evenodd" d="M3.57024 20.935C7.70224 18.7009 9.08163 18.4275 12.9344 19.6603C17.9973 21.2804 20.5627 17.7151 16.0082 17.612C14.6143 17.5805 13.7054 16.0133 18.7095 15.8518C22.2109 15.7385 25.8258 12.947 27.1213 15.4551C29.4556 19.9743 34.2308 15.0788 38.1383 15.0737C41.7339 15.0683 39.2918 11.0417 45.6648 12.8922C46.0761 13.0117 49.5065 11.9498 52.591 11.9811C55.0292 14.7563 56.9387 17.9986 58.1647 21.5538C57.7497 21.5457 57.2818 21.5215 56.7562 21.4791C54.8744 21.3275 52.1101 30.5984 49.5543 33.2064C47.1494 35.6593 48.7143 33.5424 43.9922 35.7826C40.1536 37.6039 48.6097 45.5481 39.4038 44.3418C35.1629 39.1405 38.0152 39.573 25.5383 41.708C20.8494 42.5107 31.6664 45.878 18.8015 45.2148C15.5111 45.0448 17.3101 39.2074 14.6028 36.327C13.3293 34.9721 19.2261 32.175 15.4687 31.7069C14.0029 31.5244 15.6134 29.0833 12.9679 29.9058C10.441 30.6912 11.0405 33.0373 9.16511 29.1419C8.79476 28.3724 2.42191 24.3953 2.27539 26.0017C2.05092 28.4606 5.10595 28.7573 2.28178 30.0579C1.82496 32.0129 8.08622 29.0286 8.01147 33.0969C8.00146 33.6476 13.0071 33.9543 13.4852 39.3205C13.8285 43.1737 16.104 47.7325 20.2294 48.6602C21.6103 48.9709 21.6608 53.1676 17.282 53.1512C15.886 53.1463 15.2683 53.9731 14.9316 55.063C6.88913 49.9452 1.56152 41.0125 1.56152 30.848C1.56152 27.3762 2.18318 24.0479 3.32213 20.9663C3.46759 20.945 3.57024 20.935 3.57024 20.935Z" fill="white"/>
<path d="M3.56913 20.935C7.70113 18.7009 9.08052 18.4275 12.9333 19.6603C17.9962 21.2804 20.5616 17.7151 16.0071 17.612C14.6132 17.5805 13.7043 16.0133 18.7084 15.8518C22.2098 15.7385 25.8247 12.947 27.1202 15.4551C29.4545 19.9743 34.2297 15.0788 38.1372 15.0737C41.7327 15.0683 39.2906 11.0417 45.6637 12.8922C46.0749 13.0117 49.5054 11.9498 52.5898 11.9811M58.1636 21.5538C57.7486 21.5457 57.2807 21.5215 56.7551 21.4791C54.8733 21.3275 52.109 30.5984 49.5531 33.2064C47.1483 35.6593 48.7132 33.5424 43.9911 35.7826C40.1525 37.6039 48.6086 45.5481 39.4027 44.3418C35.1618 39.1405 38.0141 39.573 25.5372 41.708C20.8483 42.5107 31.6653 45.878 18.8004 45.2148C15.51 45.0448 17.309 39.2074 14.6017 36.327C13.3282 34.9721 19.225 32.175 15.4676 31.7069C14.0018 31.5244 15.6122 29.0833 12.9668 29.9058C10.4399 30.6912 11.0394 33.0373 9.16401 29.1419C8.79365 28.3724 2.42081 24.3953 2.27428 26.0017C2.04982 28.4606 5.10484 28.7573 2.28067 30.0579C1.82386 32.0129 8.08511 29.0286 8.01036 33.0969C8.00035 33.6476 13.0059 33.9543 13.4841 39.3205C13.8274 43.1737 16.1029 47.7325 20.2283 48.6602C21.6092 48.9709 21.6597 53.1676 17.2808 53.1512C15.8848 53.1463 15.2672 53.9731 14.9305 55.063M3.32102 20.9663C3.46648 20.945 3.56849 20.935 3.56913 20.935" stroke="white" stroke-width="0.473479" stroke-miterlimit="22.9256"/>
<path fill-rule="evenodd" clip-rule="evenodd" d="M5.07099 33.0493H34.3852C35.281 33.0493 36.0138 33.7539 36.0138 34.6153C36.0138 35.4766 35.281 36.1812 34.3852 36.1812H5.07099C4.17521 36.1812 3.44238 35.4766 3.44238 34.6153C3.44238 33.7539 4.17521 33.0493 5.07099 33.0493Z" fill="#000032" fill-opacity="0.1"/>
<path fill-rule="evenodd" clip-rule="evenodd" d="M8.9208 16.1372H39.9262C40.8737 16.1372 41.6488 16.8418 41.6488 17.7031C41.6488 18.5645 40.8737 19.2691 39.9262 19.2691H8.9208C7.97334 19.2691 7.19824 18.5645 7.19824 17.7031C7.19824 16.8418 7.97334 16.1372 8.9208 16.1372Z" fill="#000032" fill-opacity="0.1"/>
<path fill-rule="evenodd" clip-rule="evenodd" d="M22.7021 24.2803H53.7075C54.655 24.2803 55.43 25.1258 55.43 26.1594C55.43 27.193 54.655 28.0385 53.7075 28.0385H22.7021C21.7546 28.0385 20.9795 27.193 20.9795 26.1594C20.9795 25.1258 21.7546 24.2803 22.7021 24.2803Z" fill="#000032" fill-opacity="0.1"/>
<path fill-rule="evenodd" clip-rule="evenodd" d="M5.16494 39.9395H36.1704C37.1178 39.9395 37.8929 40.6441 37.8929 41.5054C37.8929 42.3667 37.1178 43.0713 36.1704 43.0713H5.16494C4.21748 43.0713 3.44238 42.3667 3.44238 41.5054C3.44238 40.6441 4.21748 39.9395 5.16494 39.9395Z" fill="#000032" fill-opacity="0.1"/>
<path fill-rule="evenodd" clip-rule="evenodd" d="M46.3693 7.42676L54.425 28.5992C55.7897 32.7197 56.3336 37.024 53.9937 40.9074C52.4337 43.4965 49.6837 45.1904 46.3646 45.397C43.0455 45.1904 40.3046 43.4965 38.745 40.9074C36.4049 37.024 36.9489 32.7197 38.3133 28.5992L46.3693 7.42676Z" fill="white" stroke="#000032" stroke-opacity="0.1" stroke-width="1.77555" stroke-miterlimit="22.9256"/>
<path fill-rule="evenodd" clip-rule="evenodd" d="M46.3656 13.3076L51.053 25.6269C51.8469 28.0245 52.1634 30.5293 50.8019 32.7888C49.8945 34.2954 48.294 35.281 46.3628 35.4013C44.4316 35.281 42.8369 34.2954 41.929 32.7888C40.5677 30.5293 40.884 28.0245 41.6782 25.6269L46.3656 13.3076Z" fill="#000032" fill-opacity="0.1"/>
<path fill-rule="evenodd" clip-rule="evenodd" d="M30.6391 59.6177C46.6979 59.6177 59.7164 46.7372 59.7164 30.8477C59.7164 14.9586 46.6979 2.07764 30.6391 2.07764C14.5798 2.07764 1.56152 14.9586 1.56152 30.8477C1.56152 46.7372 14.5798 59.6177 30.6391 59.6177V59.6177Z" stroke="white" stroke-width="3.07762" stroke-miterlimit="22.9256"/>
</svg>
