<svg width="120" height="120" viewBox="0 0 120 120" fill="none" xmlns="http://www.w3.org/2000/svg">
<path d="M60 120C93.1371 120 120 93.1371 120 60C120 26.8629 93.1371 0 60 0C26.8629 0 0 26.8629 0 60C0 93.1371 26.8629 120 60 120Z" fill="#D9DADA"/>
<path fill-rule="evenodd" clip-rule="evenodd" d="M65.3105 33.4898L69.3199 35.9112L64.3046 38.9673H64.2278L65.3105 33.4898ZM71.8417 95.2638C71.8417 97.3324 67.9951 97.4356 67.9951 95.2638V40.4013H61.9236V38.9673H63.5775L68.1429 15.8714C67.0701 15.2572 66.3473 14.1013 66.3473 12.7767C66.3473 10.8085 67.9429 9.21289 69.9111 9.21289C71.8792 9.21289 73.4748 10.8085 73.4748 12.7767C73.4748 14.0958 72.758 15.2477 71.6926 15.8638L76.2595 38.9673H77.9132V40.4013H71.8417C71.8417 58.6888 71.8417 76.9763 71.8417 95.2638ZM75.6025 38.9344L70.5913 35.9081L74.53 33.5081L75.6025 38.9344ZM74.2536 32.1095L70.4058 28.8191L73.1397 26.4741L74.2536 32.1095ZM72.7935 24.7226L70.2422 21.5515L71.7788 19.5884L72.7935 24.7226ZM71.5741 18.5531H68.2629L68.7393 16.1431C69.1063 16.2708 69.5005 16.3404 69.9111 16.3404C70.3268 16.3404 70.7259 16.269 71.0968 16.1381L71.5741 18.5531ZM68.031 19.7259L69.5062 21.5593L67.0479 24.7002L68.031 19.7259ZM66.6981 26.4691L69.4474 28.8203L65.5773 32.1399L66.6981 26.4691ZM65.571 38.9673L69.9559 36.2953L74.3803 38.9673H65.571ZM72.5978 25.4018H67.2284L69.8762 22.0191L72.5978 25.4018ZM68.599 19.5092H71.1107L69.8722 21.0916L68.599 19.5092ZM73.7405 32.4918H66.1239L69.9266 29.2301L73.7405 32.4918ZM67.5278 26.3579H72.3182L69.9266 28.4093L67.5278 26.3579ZM66.5176 33.4479H73.3625L69.9554 35.524L66.5176 33.4479ZM69.8944 10.4213C71.2154 10.4213 72.2863 11.4922 72.2863 12.8132C72.2863 14.1342 71.2154 15.2051 69.8944 15.2051C68.5734 15.2051 67.5025 14.1342 67.5025 12.8132C67.5025 11.4922 68.5734 10.4213 69.8944 10.4213Z" fill="#FEFEFE"/>
<path fill-rule="evenodd" clip-rule="evenodd" d="M71.8416 86.7358C73.5946 86.8908 75.3177 87.2303 76.9932 87.7967C77.0594 87.819 77.1255 87.842 77.1916 87.8652C79.3024 88.2453 81.6365 88.9201 84.4223 90.0773C89.7291 92.2818 90.5467 92.6617 91.5107 93.484L92.0471 92.9179L93.3617 95.6664L90.5363 94.5123C90.7228 94.3155 90.9095 94.1187 91.0957 93.9217C89.8435 92.8828 88.7123 92.5112 84.108 90.666C83.0147 90.2278 81.9407 89.8459 80.8929 89.5181C84.7159 91.5655 88.1178 94.3408 90.664 96.0246C93.3884 97.8261 95.1338 98.3777 96.6877 98.6851C97.6411 98.8737 97.796 98.5804 97.796 98.0611C97.796 95.0923 97.7961 92.0161 97.7961 90.003C97.7961 89.4721 97.7961 89.6404 97.7961 89.2789C97.7961 90.0525 97.808 89.2537 97.0788 88.9812C93.4725 87.6339 89.8541 86.2583 86.0412 84.4378C84.3067 83.6097 82.5317 82.6893 80.7419 81.7812C77.5495 82.7305 73.9793 83.1456 71.8416 83.1456V85.2953C82.7244 85.2952 71.4237 85.3597 82.6195 85.2953L82.6488 84.5159L85.4506 85.7129L82.5664 86.7108C82.5766 86.4398 82.5868 86.1689 82.5968 85.898C69.4422 85.972 85.5189 85.918 71.8416 85.8484V86.7358ZM79.9027 81.3573C78.6679 80.7366 77.428 80.1293 76.191 79.5696C74.621 80.6549 73.0572 81.339 71.8416 81.339V82.5925C73.7692 82.5925 76.9673 82.1783 79.9027 81.3573ZM75.6252 79.317C74.9169 79.005 74.2101 78.7102 73.5061 78.4392C72.9502 78.2253 72.3963 78.0263 71.8416 77.8441V80.7858C72.9121 80.7858 74.2579 80.226 75.6252 79.317ZM71.8416 65.762C73.0995 66.1252 74.366 66.5651 75.6533 67.0699C77.8678 67.9381 80.1441 68.9974 82.3175 70.0623C82.7318 65.8865 78.59 64.1885 75.4144 63.0842C75.2867 63.3235 75.1592 63.5627 75.0315 63.8019L73.0424 61.4872L76.0656 61.864L75.6985 62.5521C79.2976 63.5625 83.5665 65.8786 82.9653 70.3813C84.724 71.2514 86.4027 72.1126 87.9117 72.8641C87.9961 72.0969 88.0018 71.4342 88.0478 70.8084C87.7383 70.8086 87.4286 70.809 87.1189 70.8096L88.3763 67.9631L89.6273 70.8062L88.7367 70.8074C88.7003 71.4353 88.7674 72.1625 88.6231 73.2162C89.2149 73.507 89.7759 73.7768 90.3004 74.0188C93.0746 75.299 94.8433 75.7095 96.3019 76.1004C97.7402 76.4858 97.796 75.8173 97.796 75.0334L97.7958 66.3149C97.7958 65.3725 97.3994 64.8158 96.4982 64.563C91.4128 63.1361 86.4243 61.7136 82.6769 60.351C78.6113 58.8726 76.0065 57.4646 72.5922 56.8311C72.3463 56.7854 72.096 56.7439 71.8416 56.7064V65.762ZM97.7955 42.0522C97.7955 41.0051 97.188 40.4006 96.1346 40.4006H71.8416V44.9113C72.8309 45.0502 73.7975 45.2336 74.7394 45.4616C79.2449 46.5529 83.1872 48.6648 86.9361 49.932C90.2801 51.0623 93.4701 51.5209 96.6436 51.906C97.3842 51.9959 97.7956 51.9643 97.7956 50.8967C97.7956 48.3559 97.7955 42.7579 97.7955 42.0522ZM60.2118 77.0421C58.1432 77.4471 56.5005 78.1812 54.5707 78.9491C57.5979 81.3661 64.6778 82.5925 67.995 82.5925V81.339C65.974 81.339 62.9904 79.4495 60.6159 76.9648C60.484 76.9894 60.3496 77.0151 60.2118 77.0421ZM53.857 79.2285C52.288 79.8311 50.4914 80.4325 48.1275 80.8924C42.3699 82.0124 39.6632 82.5075 34.9112 82.1205C31.0273 81.8043 27.6601 81.5654 24.3879 81.3413C22.7237 81.2273 22.2037 81.4423 22.2037 83.1125C22.2037 85.637 22.2037 88.1617 22.2037 90.6862C22.2037 91.7461 22.8156 92.4216 23.9238 92.7184C27.8524 93.7711 32.0011 93.9087 36.108 93.8989C39.1594 93.8916 42.7219 93.1923 47.9423 92.0016C53.1626 90.8109 55.7059 89.0267 59.94 87.9589C64.1742 86.8912 65.3286 86.8066 67.995 86.6729V85.8484C54.3179 85.918 58.7805 85.972 45.6259 85.898C45.6359 86.1689 45.6461 86.4398 45.6563 86.7108L42.7722 85.7129L45.5739 84.5159L45.6032 85.2953C56.799 85.3597 57.1123 85.2952 67.995 85.2953V83.1456C64.4717 83.1456 57.0571 82.0184 53.857 79.2285ZM67.995 80.7858V76.8852C65.8095 76.5276 64.4295 76.3154 61.2787 76.8469C63.4654 79.1097 66.1424 80.7858 67.995 80.7858ZM60.3389 64.9166C64.1829 64.2659 65.4616 64.5126 67.995 64.9023V56.4471C65.5861 56.4541 63.9244 56.5399 59.9205 57.3239C55.9166 58.1078 53.7395 59.1407 47.65 60.091C41.5606 61.0413 38.0445 62.1108 33.2925 61.7238C29.2056 61.3909 26.2898 60.7193 23.5382 60.0004C22.2321 59.6593 22.2037 60.2492 22.2037 60.9392V67.3691C22.2037 69.4308 23.4248 70.1457 24.5141 70.2742C28.3569 70.7277 32.2016 71.4304 36.108 71.3848C39.4806 71.3454 42.7219 70.6782 48.0572 69.2414C49.2945 68.9082 50.3824 68.5381 51.3748 68.1575L51.4604 67.9631L51.5212 68.1009C54.306 67.0199 56.3452 65.8635 58.8554 65.223C60.3038 63.9177 62.3077 63.066 64.1382 62.5521L63.771 61.864L66.7944 61.4872L64.8053 63.8019C64.6776 63.5627 64.5499 63.3235 64.4223 63.0842C63.0956 63.5456 61.6004 64.1107 60.3389 64.9166ZM67.995 44.5987V40.4006H49.3922C49.3609 40.4015 49.3299 40.4015 49.2995 40.4006H42.1603H42.153H24.246C23.1743 40.4006 22.2037 40.8885 22.2037 42.3527V47.3987C22.2037 47.9669 22.3047 48.4848 23.1973 48.7472C26.6743 49.7693 30.2155 50.731 34.4893 50.988C39.1709 51.2694 41.9126 49.7072 47.5796 48.44C53.2466 47.1729 55.605 45.9763 59.7445 45.2505C63.884 44.5248 65.3634 44.5322 67.995 44.5987Z" fill="#2B2A29"/>
<path fill-rule="evenodd" clip-rule="evenodd" d="M42.0808 33.5878C42.4526 33.5893 43.4967 33.5174 43.7333 33.6773C44.0125 33.8661 43.9454 34.7735 43.8921 35.1985L42.0893 35.2006L42.0808 33.5878ZM70.1327 80.786H70.8203V92.9738H68.9665V80.786H69.7692V40.4009H70.0528V80.786H70.1327ZM52.8859 36.0379L66.2073 12.7354C66.2335 12.1047 66.371 11.5764 66.5788 11.1352C66.9818 10.28 67.6474 9.7541 68.2796 9.44457C68.9112 9.1352 69.5161 9.0417 69.7906 9.05118C69.8694 9.05384 69.9316 9.06573 69.9714 9.08447L70.0528 9.1229V9.21551C70.0057 9.21375 69.9585 9.21246 69.911 9.21246C67.9429 9.21246 66.3472 10.8081 66.3472 12.7762C66.3472 12.8664 66.3507 12.9557 66.3573 13.0442L53.0112 36.3898L52.8881 36.3194L52.9123 39.2847H51.2478L50.7933 37.8734C50.5051 37.4758 50.2951 37.2612 49.8127 37.1831C49.516 37.1351 49.1588 37.2082 48.8577 37.2785C48.4653 37.3701 48.3559 37.4686 48.1076 37.7397C47.9733 37.9675 47.8401 38.0494 47.7503 38.4578C47.7349 38.5277 47.5345 39.2625 47.5244 39.2847C47.2961 39.3711 44.2947 39.3728 44.0727 39.2868C43.9817 38.9903 44.0264 39.0697 43.9198 38.6856C43.773 38.4915 43.6944 37.4292 42.4939 37.2109C41.9219 37.1069 41.3736 37.3264 41.0528 37.6075C40.4331 38.1501 40.6424 38.6521 40.4018 38.7425C40.29 38.5511 40.3329 37.6601 40.4351 37.4403C40.6071 37.0703 40.9166 37.008 41.4511 37.013L44.1446 37.0031C44.2522 36.9819 44.2009 36.9986 44.2668 36.9572C44.2481 36.6951 44.3622 36.7655 43.6507 36.7672L41.2493 36.7655C40.7308 36.7681 40.4065 36.9465 40.2147 37.3188C39.9986 37.7384 40.1534 38.2409 40.0858 38.7322C37.9315 38.949 38.2201 38.4285 38.2182 37.0072C38.2167 35.8903 38.4965 35.0078 38.8062 33.9587C39.0545 33.1175 39.5006 33.5284 39.8839 33.1901C40.2066 32.9051 40.8184 33.0054 41.5014 33.0053C44.4455 33.0051 43.1759 32.9793 43.9037 33.3542C52.864 33.3542 43.9037 33.3542 52.864 33.3542L52.8859 36.0379ZM70.0528 10.4263V15.1993C70.0004 15.2027 69.9476 15.2047 69.8943 15.2047C69.8524 15.2047 69.8106 15.2036 69.7692 15.2014V10.4242C69.8106 10.422 69.8524 10.4209 69.8943 10.4209C69.9476 10.4209 70.0004 10.4229 70.0528 10.4263ZM70.0528 16.3372V18.5527H69.7692V16.3372C69.8162 16.339 69.8635 16.34 69.911 16.34C69.9585 16.34 70.0058 16.339 70.0528 16.3372ZM70.0528 19.5088V20.8603L69.8721 21.0912L69.7692 20.9632V19.5088H70.0528ZM70.0528 22.2383V25.4014H69.7692V22.1553L69.8761 22.0187L70.0528 22.2383ZM70.0528 26.3575V28.3005L69.9266 28.4088L69.7692 28.2743V26.3575H70.0528ZM70.0528 29.3377V32.4914H69.7692V29.3647L69.9265 29.2297L70.0528 29.3377ZM70.0528 33.4475V35.4642L69.9553 35.5236L69.7692 35.4112V33.4475H70.0528ZM70.0528 36.3534V38.9668H69.7692V36.4086L69.9558 36.2948L70.0528 36.3534ZM38.9288 35.1859C38.9444 34.9441 39.0852 34.5214 39.1592 34.2737C39.2678 33.9099 39.3095 33.7099 39.6484 33.6143C39.9249 33.5363 41.4651 33.5867 41.8739 33.5839C41.9441 33.8312 41.922 34.8969 41.8908 35.1986L38.9288 35.1859ZM49.0574 37.8461C50.4109 37.3941 51.0484 39.3841 49.7517 39.8621C48.4362 40.3471 47.6613 38.3123 49.0574 37.8461ZM49.1081 37.3438C47.029 37.7732 47.7264 40.7807 49.7161 40.3622C51.6713 39.9509 51.0708 36.9384 49.1081 37.3438ZM41.8554 37.8403C43.2243 37.4222 43.8225 39.3729 42.5554 39.8556C41.2067 40.3695 40.4693 38.2636 41.8554 37.8403ZM41.8731 37.3525C39.8118 37.8312 40.5808 40.7766 42.505 40.361C43.2756 40.1946 43.8763 39.4671 43.6839 38.5166C43.538 37.7953 42.7704 37.1442 41.8731 37.3525ZM42.9928 39.1563C43.1983 38.6664 42.8344 38.1777 42.5166 38.0481C42.0125 37.8422 41.5153 38.1505 41.3744 38.5292C40.9774 39.5956 42.5352 40.2471 42.9928 39.1563ZM49.0715 38.0629C48.549 38.3045 48.405 38.7839 48.5981 39.2074C48.7572 39.556 49.2172 39.8832 49.7389 39.6462C50.7605 39.1819 50.0822 37.5953 49.0715 38.0629ZM63.771 61.8643L66.7944 61.4875L64.8053 63.8021C64.6776 63.5629 64.5499 63.3238 64.4223 63.0845C61.118 64.2335 56.7665 66.0249 57.5915 70.5823C58.4167 75.1398 64.5945 80.786 67.995 80.786C67.995 81.3393 67.995 80.786 67.995 81.3393C64.3899 81.3393 57.7215 75.3273 56.9117 70.6487C56.1019 65.97 60.4686 63.5826 64.1382 62.5523L63.771 61.8643ZM50.2094 70.8064L51.4604 67.9634L52.7178 70.8099C52.4082 70.8093 52.0984 70.8089 51.7889 70.8087C51.9083 72.4324 51.7556 74.3037 53.4129 77.6081C55.0701 80.9124 64.1117 82.5927 67.995 82.5927C67.995 83.1459 67.9949 82.7487 67.995 83.1459C63.878 83.1459 54.4464 81.6071 52.6363 77.6744C50.8264 73.7417 51.1733 72.073 51.1 70.8077L50.2094 70.8064ZM52.4208 102.043L53.5162 104.886L54.6172 102.039C54.3461 102.04 54.0749 102.04 53.8039 102.04C53.9084 100.416 53.7747 98.5452 55.2259 95.2408C56.6771 91.9365 64.5945 90.2562 67.995 90.2562C67.995 89.703 67.9949 90.1002 67.995 89.703C64.3899 89.703 56.131 91.2419 54.5459 95.1745C52.961 99.1072 53.2648 100.776 53.2006 102.041L52.4208 102.043ZM47.7896 92.9182L46.475 95.6666L49.3003 94.5126C49.1139 94.3158 48.9273 94.119 48.7409 93.922C49.9933 92.8831 51.1244 92.5114 55.7287 90.6662C60.333 88.8211 64.5945 87.9718 67.995 87.9718C67.995 87.4187 67.9949 87.8157 67.995 87.4187C64.3899 87.4187 60.7212 87.8731 55.4144 90.0776C50.1077 92.2821 49.29 92.662 48.326 93.4842L47.7896 92.9182ZM45.5739 84.5162L42.7722 85.7131L45.6563 86.7111C45.6461 86.4401 45.6359 86.1692 45.6259 85.8983C58.7805 85.9723 54.3178 85.9183 67.995 85.8487C67.995 85.2955 67.9949 85.6926 67.995 85.2955C57.1123 85.2954 56.799 85.3599 45.6032 85.2955L45.5739 84.5162ZM76.0656 61.8643L73.0424 61.4875L75.0315 63.8021C75.1591 63.5629 75.2867 63.3238 75.4144 63.0845C78.7187 64.2335 83.0702 66.0249 82.2451 70.5823C81.42 75.1398 75.2422 80.786 71.8416 80.786C71.8416 81.3393 71.8416 80.786 71.8416 81.3393C75.4469 81.3393 82.1153 75.3273 82.925 70.6487C83.7347 65.97 79.3682 63.5826 75.6985 62.5523L76.0656 61.8643ZM89.6273 70.8064L88.3763 67.9634L87.1189 70.8099C87.4286 70.8093 87.7383 70.8089 88.0478 70.8087C87.9284 72.4324 88.0811 74.3037 86.4239 77.6081C84.7665 80.9124 75.725 82.5927 71.8416 82.5927C71.8416 83.1459 71.8417 82.7487 71.8416 83.1459C75.9588 83.1459 85.3903 81.6071 87.2003 77.6744C89.0103 73.7417 88.6634 72.073 88.7367 70.8077L89.6273 70.8064ZM87.416 102.043L86.3205 104.886L85.2194 102.039C85.4906 102.04 85.7618 102.04 86.0328 102.04C85.9283 100.416 86.062 98.5452 84.6107 95.2408C83.1596 91.9365 75.2422 90.2562 71.8416 90.2562C71.8416 89.703 71.8417 90.1002 71.8416 89.703C75.4469 89.703 83.7058 91.2419 85.2907 95.1745C86.8757 99.1072 86.5719 100.776 86.636 102.041L87.416 102.043ZM92.0471 92.9182L93.3617 95.6666L90.5363 94.5126C90.7228 94.3158 90.9095 94.119 91.0957 93.922C89.8435 92.8831 88.7123 92.5114 84.108 90.6662C79.5037 88.8211 75.2422 87.9718 71.8416 87.9718C71.8416 87.4187 71.8417 87.8157 71.8416 87.4187C75.4469 87.4187 79.1156 87.8731 84.4223 90.0776C89.7291 92.2821 90.5467 92.662 91.5107 93.4842L92.0471 92.9182ZM82.6488 84.5162L85.4506 85.7131L82.5664 86.7111C82.5766 86.4401 82.5868 86.1692 82.5968 85.8983C69.4422 85.9723 85.5189 85.9183 71.8416 85.8487C71.8416 85.2955 71.8417 85.6926 71.8416 85.2955C82.7244 85.2954 71.4237 85.3599 82.6195 85.2955L82.6488 84.5162Z" fill="#42ADE2" stroke="#42ADE2" stroke-width="0.269608" stroke-miterlimit="22.9256"/>
</svg>
