<svg width="120" height="120" viewBox="0 0 120 120" fill="none" xmlns="http://www.w3.org/2000/svg">
<path d="M60 120C93.1371 120 120 93.1371 120 60C120 26.8629 93.1371 0 60 0C26.8629 0 0 26.8629 0 60C0 93.1371 26.8629 120 60 120Z" fill="#D9DADA"/>
<path d="M100.168 39.2099C99.8164 39.0402 99.6689 38.6172 99.8386 38.2654C100.008 37.9136 100.431 37.7661 100.783 37.9358C102.246 38.6431 103.39 39.4007 104.17 40.1986C105.007 41.0539 105.448 41.968 105.448 42.9319C105.448 46.1286 100.23 48.919 91.7932 50.8461C83.6446 52.7079 72.4029 53.859 60 53.859C47.5972 53.859 36.3555 52.7079 28.2067 50.8468C19.7699 48.919 14.5516 46.1286 14.5516 42.9319C14.5516 42.071 14.9063 41.2482 15.5826 40.4697C16.2163 39.7401 17.1395 39.047 18.3207 38.397C18.6632 38.2089 19.0936 38.3342 19.2817 38.6768C19.4699 39.0194 19.3445 39.4497 19.0019 39.6379C17.9638 40.2091 17.1708 40.7971 16.6517 41.3947C16.2044 41.9095 15.9698 42.4242 15.9698 42.9319C15.9698 45.3781 20.7659 47.6967 28.5197 49.4675H28.5225C36.566 51.3046 47.6942 52.4408 60 52.4408C72.3059 52.4408 83.4341 51.3046 91.4776 49.4675H91.4804C99.2342 47.6967 104.03 45.3781 104.03 42.9319C104.03 42.3587 103.728 41.7749 103.157 41.1902C102.488 40.5067 101.478 39.8434 100.168 39.2099ZM100.168 67.8961C99.8164 67.7263 99.6689 67.3034 99.8386 66.9516C100.008 66.5997 100.431 66.4522 100.783 66.6219C102.246 67.3293 103.39 68.0868 104.17 68.8847C105.007 69.7401 105.448 70.6542 105.448 71.6181C105.448 74.8149 100.23 77.6052 91.7932 79.5323C83.6446 81.394 72.4029 82.5452 60 82.5452C47.5972 82.5452 36.3555 81.394 28.2067 79.5329C19.7699 77.6052 14.5516 74.8149 14.5516 71.6181C14.5516 70.7572 14.9063 69.9343 15.5826 69.1558C16.2163 68.4263 17.1395 67.7331 18.3207 67.0832C18.6632 66.895 19.0936 67.0204 19.2817 67.3629C19.4699 67.7055 19.3445 68.1359 19.0019 68.324C17.9638 68.8952 17.1708 69.4833 16.6517 70.0809C16.2044 70.5956 15.9698 71.1103 15.9698 71.6181C15.9698 74.0643 20.7659 76.3828 28.5197 78.1536H28.5225C36.566 79.9907 47.6942 81.127 60 81.127C72.3059 81.127 83.4341 79.9907 91.4776 78.1536H91.4804C99.2342 76.3828 104.03 74.0643 104.03 71.6181C104.03 71.0448 103.728 70.4611 103.157 69.8763C102.488 69.1929 101.478 68.5295 100.168 67.8961ZM100.168 53.3483C99.8164 53.1785 99.6689 52.7556 99.8386 52.4038C100.008 52.0519 100.431 51.9044 100.783 52.0741C102.246 52.7815 103.39 53.539 104.17 54.3369C105.007 55.1923 105.448 56.1064 105.448 57.0703C105.448 60.2671 100.23 63.0574 91.7932 64.9845C83.6446 66.8462 72.4029 67.9974 60 67.9974C47.5972 67.9974 36.3555 66.8462 28.2067 64.9851C19.7699 63.0574 14.5516 60.2671 14.5516 57.0703C14.5516 56.2094 14.9063 55.3865 15.5826 54.608C16.2163 53.8785 17.1395 53.1853 18.3207 52.5354C18.6632 52.3472 19.0936 52.4726 19.2817 52.8151C19.4699 53.1577 19.3445 53.5881 19.0019 53.7762C17.9638 54.3474 17.1708 54.9355 16.6517 55.5331C16.2044 56.0478 15.9698 56.5625 15.9698 57.0703C15.9698 59.5165 20.7659 61.835 28.5197 63.6058H28.5225C36.566 65.4429 47.6942 66.5792 60 66.5792C72.3059 66.5792 83.4341 65.4429 91.4776 63.6058H91.4804C99.2342 61.835 104.03 59.5165 104.03 57.0703C104.03 56.497 103.728 55.9133 103.157 55.3285C102.488 54.6451 101.478 53.9817 100.168 53.3483ZM33.2007 35.4124C32.8153 35.4797 32.4481 35.2217 32.3809 34.8362C32.3136 34.4508 32.5716 34.0836 32.957 34.0163C34.3771 33.7629 35.7108 33.5694 37.1034 33.3969C38.4241 33.2334 39.8972 33.0793 41.5884 32.9056C41.977 32.8659 42.3243 33.1485 42.364 33.5371C42.4037 33.9257 42.1211 34.273 41.7325 34.3127C40.1314 34.4772 38.7191 34.6252 37.2751 34.804C35.903 34.974 34.5918 35.1642 33.2007 35.4124ZM55.5081 33.4715C55.1181 33.479 54.7955 33.169 54.788 32.779C54.7804 32.389 55.0904 32.0665 55.4804 32.0589C56.2188 32.0421 56.9709 32.0292 57.7362 32.0205C58.6489 32.0102 59.4068 32.0049 60 32.0049C65.6662 32.0049 70.9494 32.2169 75.8058 32.6268C80.7266 33.0421 85.2187 33.664 89.2357 34.4775C89.6181 34.554 89.8661 34.9261 89.7896 35.3085C89.7132 35.6909 89.341 35.9389 88.9587 35.8624C85.0206 35.0649 80.5826 34.4523 75.6896 34.0393C70.8772 33.6332 65.6329 33.4231 60 33.4231C59.0787 33.4231 58.3306 33.4265 57.7473 33.4331C57.0042 33.4415 56.2574 33.4544 55.5081 33.4715Z" fill="#FEFEFE"/>
<path fill-rule="evenodd" clip-rule="evenodd" d="M71.8367 53.4983V66.2167C71.4133 66.2433 70.9874 66.2686 70.559 66.2923V53.5733C70.9873 53.5497 71.4133 53.5247 71.8367 53.4983ZM75.9449 50.8104H77.23C77.2327 50.5909 77.2828 50.3184 77.5866 50.3945C77.8506 50.4606 77.7993 50.7819 77.8003 50.9865C77.8032 51.561 77.041 51.38 76.5874 51.38C76.1416 51.38 75.3694 51.5592 75.3747 51.001C75.3768 50.78 75.3161 50.4694 75.5754 50.3959C75.8674 50.3131 75.9449 50.5817 75.9449 50.8104ZM70.1329 50.8104H72.3415C72.2953 50.7415 71.2533 49.8047 71.2391 49.8036C71.2209 49.8023 70.2018 50.7065 70.1329 50.8104ZM70.8231 49.4127L70.2501 48.8969L69.5169 50.6049L70.8231 49.4127ZM72.9658 50.6206L72.2695 48.8495L71.6557 49.4131L72.9658 50.6206ZM71.2865 46.4879L70.4828 48.3516C70.5388 48.4061 71.1957 49.0032 71.2059 49.0081C71.3109 49.0591 71.8192 48.4963 71.9256 48.3975C72.0935 48.2415 71.9873 48.1837 71.8936 47.9545C71.7964 47.7169 71.3345 46.5392 71.2865 46.4879ZM69.2859 49.7006L70.9332 45.888L70.9286 45.9046L70.422 45.6618L69.2859 49.7006ZM73.2433 49.7736L72.154 45.5501L72.1578 45.5709L71.6486 45.8701L71.6395 45.8568L73.2433 49.7736ZM70.0015 44.1806L65.9505 46.9028L66.1702 47.232L69.9549 44.9355L69.9273 44.9381L70.0015 44.1806ZM71.2865 43.3045L72.105 43.573L73.9151 42.4867C73.891 42.4504 73.3471 41.9817 73.3117 41.9663C73.2461 41.9375 72.7304 42.3223 72.633 42.3873C72.3825 42.5544 71.4366 43.1462 71.2865 43.3045ZM76.8941 50.5184H76.3246L76.2757 44.5019L74.3708 42.8628L72.428 44.0587C72.5766 44.4496 72.4832 44.6216 72.5716 44.9402C72.7934 45.7389 73.0092 46.6322 73.223 47.4428C73.3696 47.9984 73.512 48.5551 73.658 49.1106C73.7901 49.6131 74.0132 50.3037 74.0903 50.7959C74.3803 50.7959 75.2005 50.664 75.1474 51.1085C75.1025 51.4851 74.3149 51.3653 74.0173 51.3653C72.1627 51.3653 70.3081 51.3653 68.4535 51.3653C68.156 51.3653 67.3683 51.4851 67.3234 51.1085C67.2702 50.6626 68.1032 50.7959 68.3951 50.7959L69.8449 45.6567C69.129 46.0202 68.2204 46.6369 67.5213 47.0744C67.1389 47.3136 66.7489 47.5525 66.3625 47.7849C66.0426 47.9772 66.1025 47.7555 66.1025 48.4594C66.1025 48.7709 66.1025 49.0825 66.1025 49.3939C67.1009 49.3939 66.9202 49.4504 66.9202 50.4307C66.9202 51.42 66.7737 51.1902 65.8103 51.1902C64.8599 51.1902 64.7004 51.4196 64.7004 50.4307C64.7004 49.4422 64.5275 49.3939 65.5329 49.3939C65.5329 49.0025 65.5914 47.4756 65.475 47.2197C65.3479 46.9399 65.1512 46.7638 65.4995 46.5159C65.7004 46.3728 65.9673 46.2124 66.1812 46.0702C67.0775 45.4747 67.9668 44.8663 68.8598 44.2657C69.7502 43.6667 70.6393 43.0659 71.5291 42.4664C71.8628 42.2415 72.6154 41.7996 72.8755 41.5747C73.2082 41.2875 72.6951 40.1753 72.8188 39.737C72.8895 39.4863 73.208 39.389 73.4053 39.2197C73.6695 38.9931 73.846 38.9231 74.1702 39.0987C75.6344 39.8921 76.8964 40.9168 77.4147 42.5794C77.5167 42.9063 77.5727 43.1607 77.6005 43.5035C77.6348 43.9283 77.7168 44.0916 77.3129 44.2928C76.8206 44.538 76.8503 44.411 76.8503 44.9546C76.8503 45.3296 76.8504 45.7046 76.8498 46.0795C76.8475 47.5525 76.8941 49.0435 76.8941 50.5184ZM71.8367 71.4811L77.2026 72.1338L71.8367 72.7865V73.5781L77.2026 74.2307L71.8367 74.8834V75.6749L77.2026 76.3276L71.8367 76.9802V77.7718L77.2026 78.4245L71.8367 79.0772V80.7645C71.4133 80.7911 70.9874 80.8164 70.559 80.8401V79.0772L65.1932 78.4245L70.559 77.7718V76.9802L65.1932 76.3276L70.559 75.6749V74.8834L65.1932 74.2307L70.559 73.5781V72.7865L65.1932 72.1338L70.559 71.4811V70.6896L65.1932 70.037L70.559 69.3843V67.7116C70.9873 67.688 71.4133 67.663 71.8367 67.6366V69.3843L77.2026 70.037L71.8367 70.6896V71.4811ZM71.8367 82.1844V84.3716L77.2026 85.0242L71.8367 85.6769V86.4685L77.2026 87.1211L71.8367 87.7738V88.5654L77.2026 89.2181L71.8367 89.8707V90.6622L77.2026 91.3149L71.8367 91.9676V92.7592L77.2026 93.4118L71.8367 94.0645V95.5855C71.8367 95.9384 71.5507 96.2244 71.1979 96.2244C70.8451 96.2244 70.559 95.9384 70.559 95.5855V94.0645L65.1932 93.4118L70.559 92.7592V91.9676L65.1932 91.3149L70.559 90.6622V89.8707L65.1932 89.2181L70.559 88.5654V87.7738L65.1932 87.1211L70.559 86.4685V85.6769L65.1932 85.0242L70.559 84.3716V82.2594C70.9873 82.2358 71.4133 82.2108 71.8367 82.1844Z" fill="#42ADE2"/>
<path fill-rule="evenodd" clip-rule="evenodd" d="M49.1148 51.1419H47.8371V49.8642H49.1148V51.1419ZM30.6212 42.7854H31.9062C31.9088 42.5658 31.959 42.2934 32.2627 42.3694C32.5268 42.4356 32.4754 42.7569 32.4764 42.9615C32.4793 43.536 31.7171 43.3549 31.2636 43.3549C30.8177 43.3549 30.0455 43.5341 30.0508 42.9759C30.0529 42.7549 29.9923 42.4444 30.2515 42.3709C30.5436 42.2881 30.6212 42.5567 30.6212 42.7854ZM24.8091 42.7854H27.0178C26.9715 42.7164 25.9294 41.7796 25.9153 41.7786C25.897 41.7772 24.8779 42.6815 24.8091 42.7854ZM25.4992 41.3876L24.9263 40.8719L24.193 42.5798L25.4992 41.3876ZM27.642 42.5956L26.9457 40.8244L26.3319 41.388L27.642 42.5956ZM25.9627 38.4628L25.159 40.3265C25.2149 40.381 25.8719 40.9782 25.8821 40.9831C25.9871 41.034 26.4954 40.4713 26.6019 40.3724C26.7697 40.2165 26.6634 40.1587 26.5698 39.9295C26.4725 39.6919 26.0106 38.5141 25.9627 38.4628ZM23.962 41.6755L25.6094 37.863L25.6049 37.8796L25.0982 37.6368L23.962 41.6755ZM27.9194 41.7486L26.8303 37.5251L26.8341 37.5458L26.3248 37.8451L26.3157 37.8318L27.9194 41.7486ZM24.6776 36.1556L20.6267 38.8778L20.8463 39.207L24.6311 36.9105L24.6035 36.913L24.6776 36.1556ZM25.9627 35.2794L26.7812 35.548L28.5913 34.4616C28.5673 34.4254 28.0232 33.9567 27.9878 33.9412C27.9222 33.9124 27.4066 34.2973 27.3091 34.3623C27.0586 34.5293 26.1127 35.1211 25.9627 35.2794ZM31.5703 42.4933H31.0008L30.9518 36.4769L29.047 34.8378L27.1042 36.0336C27.2528 36.4245 27.1593 36.5966 27.2478 36.9152C27.4696 37.7139 27.6854 38.6072 27.8992 39.4178C28.0457 39.9733 28.1881 40.53 28.3343 41.0856C28.4663 41.588 28.6893 42.2787 28.7665 42.7709C29.0565 42.7709 29.8766 42.6389 29.8235 43.0834C29.7787 43.4602 28.991 43.3404 28.6935 43.3404C26.8389 43.3404 24.9843 43.3404 23.1297 43.3404C22.8321 43.3404 22.0445 43.4602 21.9995 43.0834C21.9464 42.6376 22.7793 42.7709 23.0712 42.7709L24.521 37.6317C23.8052 37.9952 22.8966 38.6119 22.1975 39.0493C21.8151 39.2886 21.4251 39.5275 21.0387 39.7598C20.7187 39.9522 20.7786 39.7305 20.7786 40.4343C20.7786 40.7459 20.7786 41.0574 20.7786 41.3689C21.7771 41.3689 21.5963 41.4254 21.5963 42.4057C21.5963 43.395 21.4499 43.1651 20.4865 43.1651C19.5362 43.1651 19.3766 43.3946 19.3766 42.4057C19.3766 41.4171 19.2036 41.3689 20.2091 41.3689C20.2091 40.9774 20.2675 39.4506 20.1512 39.1946C20.0241 38.9148 19.8274 38.7388 20.1756 38.4908C20.3765 38.3478 20.6435 38.1873 20.8573 38.0452C21.7537 37.4497 22.6429 36.8413 23.536 36.2407C24.4264 35.6418 25.3154 35.0409 26.2053 34.4414C26.5391 34.2165 27.2916 33.7746 27.5517 33.5497C27.8844 33.2624 27.3713 32.1503 27.495 31.712C27.5657 31.4613 27.8841 31.3639 28.0814 31.1947C28.3458 30.9681 28.5222 30.898 28.8464 31.0737C30.3107 31.8671 31.5725 32.8918 32.0909 34.5543C32.1929 34.8812 32.249 35.1357 32.2766 35.4785C32.311 35.9032 32.393 36.0666 31.9891 36.2678C31.4968 36.513 31.5264 36.3859 31.5264 36.9296C31.5264 37.3046 31.5265 37.6796 31.526 38.0545C31.5236 39.5275 31.5703 41.0185 31.5703 42.4933ZM98.4696 41.3626H99.7547C99.7573 41.143 99.8075 40.8706 100.111 40.9466C100.375 41.0128 100.324 41.3341 100.325 41.5387C100.328 42.1132 99.5657 41.9321 99.1121 41.9321C98.6663 41.9321 97.894 42.1114 97.8994 41.5532C97.9015 41.3321 97.8408 41.0216 98.1 40.9481C98.392 40.8653 98.4696 41.1339 98.4696 41.3626ZM92.6575 41.3626H94.8662C94.8199 41.2936 93.7779 40.3568 93.7638 40.3558C93.7455 40.3544 92.7264 41.2587 92.6575 41.3626ZM93.3477 39.9648L92.7748 39.4491L92.0415 41.157L93.3477 39.9648ZM95.4905 41.1728L94.7942 39.4016L94.1804 39.9652L95.4905 41.1728ZM93.8112 37.0401L93.0075 38.9037C93.0635 38.9583 93.7204 39.5554 93.7306 39.5603C93.8356 39.6112 94.3439 39.0485 94.4503 38.9496C94.6182 38.7937 94.512 38.7359 94.4182 38.5067C94.321 38.2691 93.8592 37.0913 93.8112 37.0401ZM91.8106 40.2527L93.4578 36.4402L93.4533 36.4568L92.9466 36.2139L91.8106 40.2527ZM95.768 40.3258L94.6787 36.1023L94.6825 36.123L94.1733 36.4223L94.1642 36.409L95.768 40.3258ZM92.5261 34.7328L88.4752 37.455L88.6948 37.7842L92.4795 35.4877L92.452 35.4902L92.5261 34.7328ZM93.8112 33.8566L94.6297 34.1252L96.4398 33.0388C96.4157 33.0026 95.8717 32.5339 95.8363 32.5184C95.7708 32.4896 95.2551 32.8745 95.1577 32.9395C94.9071 33.1065 93.9613 33.6983 93.8112 33.8566ZM99.4187 41.0705H98.8493L98.8004 35.0541L96.8954 33.415L94.9526 34.6109C95.1013 35.0017 95.0079 35.1738 95.0962 35.4924C95.318 36.2911 95.5338 37.1844 95.7477 37.995C95.8942 38.5506 96.0366 39.1072 96.1827 39.6628C96.3148 40.1652 96.5378 40.8559 96.6149 41.3481C96.9049 41.3481 97.7251 41.2161 97.6721 41.6606C97.6272 42.0373 96.8395 41.9175 96.542 41.9175C94.6874 41.9175 92.8328 41.9175 90.9782 41.9175C90.6806 41.9175 89.893 42.0373 89.848 41.6606C89.7948 41.2148 90.6278 41.3481 90.9198 41.3481L92.3696 36.2089C91.6537 36.5724 90.7451 37.1891 90.0459 37.6266C89.6636 37.8658 89.2736 38.1047 88.8871 38.337C88.5672 38.5294 88.6271 38.3077 88.6271 39.0116C88.6271 39.3231 88.6271 39.6346 88.6271 39.9461C89.6256 39.9461 89.4449 40.0026 89.4449 40.9829C89.4449 41.9722 89.2984 41.7423 88.335 41.7423C87.3846 41.7423 87.2251 41.9718 87.2251 40.9829C87.2251 39.9943 87.0521 39.9461 88.0575 39.9461C88.0575 39.5546 88.1161 38.0278 87.9996 37.7718C87.8726 37.492 87.6759 37.316 88.0241 37.068C88.2251 36.925 88.492 36.7645 88.7058 36.6224C89.6022 36.0269 90.4915 35.4185 91.3844 34.8179C92.2748 34.2189 93.1639 33.6181 94.0537 33.0186C94.3875 32.7937 95.14 32.3517 95.4001 32.1269C95.7328 31.8396 95.2197 30.7275 95.3434 30.2892C95.4142 30.0385 95.7327 29.9411 95.9299 29.7719C96.1942 29.5453 96.3706 29.4752 96.6949 29.6509C98.1591 30.4443 99.421 31.469 99.9394 33.1315C100.041 33.4584 100.097 33.7129 100.125 34.0557C100.159 34.4804 100.241 34.6438 99.8376 34.8449C99.3453 35.0902 99.375 34.9632 99.375 35.5068C99.375 35.8818 99.3751 36.2567 99.3745 36.6317C99.3722 38.1047 99.4187 39.5957 99.4187 41.0705ZM53.4015 35.6991H54.6865C54.6891 35.4795 54.7393 35.2071 55.043 35.2831C55.3071 35.3493 55.2558 35.6706 55.2567 35.8752C55.2596 36.4497 54.4975 36.2686 54.0439 36.2686C53.5981 36.2686 52.8258 36.4478 52.8311 35.8897C52.8332 35.6686 52.7725 35.3581 53.0318 35.2846C53.3239 35.2018 53.4015 35.4704 53.4015 35.6991ZM47.5894 35.6991H49.7981C49.7518 35.6301 48.7097 34.6933 48.6956 34.6923C48.6773 34.6909 47.6582 35.5952 47.5894 35.6991ZM48.2795 34.3013L47.7066 33.7856L46.9733 35.4935L48.2795 34.3013ZM50.4224 35.5093L49.726 33.7381L49.1122 34.3017L50.4224 35.5093ZM48.7429 31.3765L47.9393 33.2402C47.9953 33.2947 48.6522 33.8919 48.6624 33.8968C48.7674 33.9477 49.2757 33.385 49.3822 33.2861C49.5501 33.1302 49.4438 33.0724 49.3501 32.8432C49.2528 32.6056 48.7909 31.4278 48.7429 31.3765ZM46.7423 34.5892L48.3897 30.7767L48.3851 30.7933L47.8785 30.5505L46.7423 34.5892ZM50.6997 34.6623L49.6105 30.4388L49.6144 30.4595L49.1051 30.7588L49.096 30.7455L50.6997 34.6623ZM47.458 29.0693L43.4071 31.7915L43.6266 32.1207L47.4114 29.8242L47.3838 29.8267L47.458 29.0693ZM48.7429 28.1931L49.5616 28.4617L51.3716 27.3753C51.3475 27.3391 50.8035 26.8704 50.7682 26.8549C50.7026 26.8261 50.187 27.211 50.0894 27.276C49.8389 27.443 48.893 28.0348 48.7429 28.1931ZM54.3506 35.407H53.7811L53.7322 29.3907L51.8273 27.7515L49.8845 28.9474C50.0331 29.3382 49.9397 29.5103 50.0281 29.8289C50.2499 30.6276 50.4657 31.5209 50.6795 32.3315C50.826 32.8871 50.9684 33.4437 51.1145 33.9993C51.2466 34.5018 51.4696 35.1924 51.5468 35.6846C51.8368 35.6846 52.6569 35.5526 52.6039 35.9971C52.559 36.3739 51.7714 36.2541 51.4738 36.2541C49.6192 36.2541 47.7646 36.2541 45.9101 36.2541C45.6124 36.2541 44.8248 36.3739 44.7798 35.9971C44.7267 35.5513 45.5596 35.6846 45.8515 35.6846L47.3013 30.5454C46.5855 30.9089 45.6769 31.5256 44.9778 31.963C44.5954 32.2023 44.2054 32.4412 43.819 32.6735C43.499 32.8659 43.5589 32.6442 43.5589 33.3481C43.5589 33.6596 43.5589 33.9711 43.5589 34.2826C44.5574 34.2826 44.3767 34.3391 44.3767 35.3194C44.3767 36.3087 44.2303 36.0788 43.2669 36.0788C42.3165 36.0788 42.1569 36.3083 42.1569 35.3194C42.1569 34.3308 41.984 34.2826 42.9894 34.2826C42.9894 33.8911 43.0478 32.3643 42.9315 32.1083C42.8044 31.8285 42.6077 31.6525 42.956 31.4045C43.1569 31.2615 43.4238 31.101 43.6376 30.9589C44.534 30.3634 45.4233 29.7551 46.3162 29.1544C47.2067 28.5555 48.0958 27.9546 48.9856 27.3551C49.3193 27.1302 50.0719 26.6883 50.332 26.4634C50.6647 26.1761 50.1516 25.064 50.2753 24.6257C50.3461 24.375 50.6644 24.2776 50.8617 24.1084C51.1261 23.8818 51.3025 23.8117 51.6267 23.9874C53.0909 24.7808 54.3528 25.8055 54.8712 27.468C54.9732 27.7949 55.0293 28.0494 55.0569 28.3922C55.0913 28.8169 55.1733 28.9803 54.7694 29.1815C54.2771 29.4267 54.3068 29.2996 54.3068 29.8433C54.3068 30.2183 54.3068 30.5933 54.3063 30.9682C54.3039 32.4412 54.3506 33.9322 54.3506 35.407ZM93.2797 68.0372L87.9139 68.6899L93.2797 69.3425V70.1341L87.9139 70.7867L93.2797 71.4394V72.231L87.9139 72.8836L93.2797 73.5363V74.3279L87.9139 74.9806L93.2797 75.6332V77.7195C93.7169 77.6079 94.143 77.4945 94.5574 77.3793V75.6332L99.9232 74.9806L94.5574 74.3279V73.5363L99.9232 72.8836L94.5574 72.231V71.4394L99.9232 70.7867L94.5574 70.1341V69.3425L99.9232 68.6899L94.5574 68.0372V67.2456L99.9232 66.593L94.5574 65.9403V64.2905C94.1414 64.4053 93.7155 64.5177 93.2797 64.6278V65.9403L87.9139 66.593L93.2797 67.2456V68.0372ZM94.5574 48.5409H93.2797V47.2632H94.5574V48.5409ZM94.5574 45.9856H93.2797V44.7079H94.5574V45.9856ZM94.5574 43.4304H93.2797V42.1528H94.5574V43.4304ZM26.3935 50.4065V63.0876C25.9558 62.9735 25.5298 62.8574 25.1158 62.7396V50.0614C25.5313 50.1788 25.9574 50.2939 26.3935 50.4065ZM26.3935 64.5448V77.6354C25.9558 77.5213 25.5298 77.4052 25.1158 77.2874V64.1998C25.5313 64.3172 25.9574 64.4323 26.3935 64.5448ZM26.3935 79.0926V80.5642L31.7593 81.2168L26.3935 81.8695V82.6611L31.7593 83.3137L26.3935 83.9664V84.7579L31.7593 85.4106L26.3935 86.0632V86.8548L31.7593 87.5075L26.3935 88.1602V88.9517L31.7593 89.6043L26.3935 90.257V92.7443C26.3935 93.097 26.1075 93.3831 25.7546 93.3831C25.4019 93.3831 25.1158 93.097 25.1158 92.7443V90.257L19.75 89.6043L25.1158 88.9517V88.1602L19.75 87.5075L25.1158 86.8548V86.0632L19.75 85.4106L25.1158 84.7579V83.9664L19.75 83.3137L25.1158 82.6611V81.8695L19.75 81.2168L25.1158 80.5642V78.7476C25.5313 78.865 25.9574 78.9801 26.3935 79.0926ZM49.1148 53.5553V66.2741C48.6864 66.2496 48.2604 66.2238 47.8371 66.1965V53.478C48.2605 53.5052 48.6864 53.531 49.1148 53.5553ZM49.1148 67.6937V80.8219C48.6864 80.7974 48.2604 80.7716 47.8371 80.7443V67.6163C48.2605 67.6435 48.6864 67.6693 49.1148 67.6937ZM49.1148 82.2415V83.6514C49.1148 84.0042 48.8287 84.2902 48.476 84.2902C48.1231 84.2902 47.8371 84.0042 47.8371 83.6514V82.1641C48.2605 82.1913 48.6864 82.2171 49.1148 82.2415ZM94.5574 50.1521V62.8315C94.143 62.9467 93.7169 63.0601 93.2797 63.1717V50.4895C93.7155 50.3794 94.1414 50.2669 94.5574 50.1521ZM94.5574 78.8383V88.7049C94.5574 89.0576 94.2714 89.3437 93.9186 89.3437C93.5657 89.3437 93.2797 89.0576 93.2797 88.7049V79.1756C93.7155 79.0656 94.1414 78.9531 94.5574 78.8383ZM26.3935 47.7347H25.1158V46.4571H26.3935V47.7347ZM26.3935 45.1795H25.1158V43.9018H26.3935V45.1795ZM49.1148 48.5866H47.8371V47.309H49.1148V48.5866ZM49.1148 46.0314H47.8371V44.7538H49.1148V46.0314ZM49.1148 43.4762H47.8371V42.1985H49.1148V43.4762ZM49.1148 40.9209H47.8371V39.6433H49.1148V40.9209ZM49.1148 38.3656H47.8371V37.0881H49.1148V38.3656Z" fill="#2B2A29"/>
</svg>
