<svg width="120" height="120" viewBox="0 0 120 120" fill="none" xmlns="http://www.w3.org/2000/svg">
<path d="M60 120C93.1371 120 120 93.1371 120 60C120 26.8629 93.1371 0 60 0C26.8629 0 0 26.8629 0 60C0 93.1371 26.8629 120 60 120Z" fill="#D9DADA"/>
<path fill-rule="evenodd" clip-rule="evenodd" d="M55.2034 91.7266C55.1944 91.7447 55.1279 91.7198 55.0859 91.7078C47.0197 89.4399 41.0746 83.1682 39.8476 73.6054C38.5302 63.3345 40.535 60.0605 46.6293 52.4283C46.7275 52.3054 46.8688 52.1336 46.9045 52.1694C46.9255 52.1904 46.8191 52.3657 46.7541 52.5218C41.1642 65.9634 44.8312 81.5143 55.1313 91.6307C55.1572 91.6563 55.2151 91.7033 55.2034 91.7266ZM60.6443 18.4374C60.6089 18.4021 60.2197 18.6023 59.9843 18.7837C57.5654 20.649 54.7167 25.0768 52.6582 27.9665C39.915 45.8524 23.0828 64.7088 37.6323 86.9092C42.1693 93.8322 48.3054 97.54 54.7384 98.6183C63.2178 97.2814 74.095 88.5086 71.7181 75.3399C68.6465 60.7198 59.5377 63.0745 54.5592 50.5405C50.0562 39.2034 57.7561 23.8777 60.2099 19.2037C60.4001 18.8414 60.6875 18.4805 60.6443 18.4374Z" fill="#42ADE2"/>
<path fill-rule="evenodd" clip-rule="evenodd" d="M60.6443 18.4377C60.603 18.4487 60.5256 18.5786 60.4507 18.7093C51.7613 33.8468 52.194 44.8429 54.5592 50.5407C57.9272 60.9982 69.6142 62.6906 71.7181 75.3401C72.3097 82.4139 67.4935 96.1066 54.8896 98.5895C54.8398 98.5992 54.8161 98.6032 54.8175 98.6237C54.818 98.631 54.8352 98.6349 54.8947 98.6444C72.9663 101.562 93.2782 84.0761 86.7342 60.2429C82.6256 45.2785 64.6275 26.5114 60.8203 18.6196C60.7706 18.5166 60.7158 18.4186 60.6443 18.4377Z" fill="#2B2A29"/>
<path d="M56.0905 92.1649C55.7086 92.933 55.2301 92.7876 54.8228 92.6627L54.8221 92.6651L54.7982 92.6579L54.7986 92.6564C50.4828 91.4394 46.7428 89.1179 43.9435 85.7925C41.2863 82.6359 39.4888 78.5855 38.8657 73.7295C38.1859 68.4293 38.3722 64.9092 39.5277 61.6939C40.6781 58.4925 42.746 55.7026 45.853 51.8118C45.9131 51.7365 45.9893 51.6433 46.0762 51.5531C46.5314 51.0815 47.0482 50.9132 47.6036 51.4696L47.6056 51.4676C48.1204 51.9825 47.945 52.3369 47.7251 52.7811C47.7061 52.8197 47.6844 52.8634 47.6684 52.9019C44.9816 59.3626 44.4977 66.3286 45.9075 72.9104C47.3465 79.6283 50.7578 85.944 55.8129 90.9135L55.8205 90.9205C56.0767 91.1594 56.428 91.4813 56.0889 92.164L56.0905 92.1649ZM60.2859 17.5136C60.3186 17.5011 60.3526 17.4902 60.3879 17.4807L60.3876 17.4797C60.8765 17.3488 61.2293 17.5223 61.5035 17.8546C61.6001 17.9719 61.66 18.0828 61.7114 18.189C63.0164 20.8943 66.0995 24.9966 69.7107 29.8017C76.4419 38.758 84.9784 50.1164 87.6873 59.983C89.0809 65.0587 89.2901 69.8594 88.5805 74.2553C87.5707 80.5113 84.7024 85.942 80.7385 90.1787C76.778 94.4117 71.7211 97.4525 66.3299 98.9327C62.5451 99.9719 58.594 100.244 54.7388 99.6214L54.7321 99.6203L54.7271 99.6211L54.5747 99.5955C51.1092 99.0147 47.7271 97.7017 44.6166 95.5727C41.7215 93.5909 39.0655 90.9063 36.8017 87.452C23.2009 66.6992 36.119 48.9946 48.31 32.2867C49.461 30.7093 50.6055 29.1406 51.8509 27.3927C52.1039 27.0374 52.5244 26.4332 52.9653 25.7993C54.9035 23.0136 57.2487 19.6429 59.3785 18.0005C59.5373 17.8781 59.7466 17.7496 59.9239 17.6567C60.0425 17.5945 60.1644 17.5462 60.2859 17.5136ZM54.724 97.6109C59.8219 96.5993 63.5805 93.6433 66.1711 90.0643C69.6604 85.2438 71.0399 79.3293 70.7319 75.4678C70.3611 73.7222 69.8993 72.2295 69.3655 70.9303C67.625 67.0966 64.7662 64.5006 61.9384 61.934C61.1979 61.2619 60.4596 60.5916 59.7409 59.9021C59.264 59.4546 58.7909 58.9843 58.3253 58.4801C56.3605 56.3976 54.657 54.0381 53.635 50.9002C52.248 47.5454 51.4967 42.467 52.7117 35.9028C53.3541 32.4315 54.5457 28.5373 56.4844 24.2559C55.8308 25.1538 55.1922 26.0717 54.5939 26.9316C54.2486 27.4279 53.9165 27.9051 53.464 28.5405C52.3934 30.0431 51.1542 31.7414 49.9075 33.45C38.1094 49.6194 25.6075 66.7535 38.4613 86.3664C40.5786 89.5974 43.0495 92.0991 45.7334 93.9362C48.546 95.8615 51.5974 97.0619 54.724 97.6109ZM55.4335 50.0625L55.4735 50.1605L55.4888 50.2044C56.6831 53.2014 58.1326 55.3167 59.6804 57.0221C60.21 57.5901 60.7623 58.1377 61.3274 58.6751C62.0754 59.3667 62.8331 60.0045 63.5844 60.6367C66.4409 63.0409 69.2098 65.3721 71.1397 70.011C71.8317 71.5244 72.3695 73.2237 72.6944 75.1771L72.7017 75.228C72.7272 75.372 72.7517 75.517 72.7747 75.6632C73.8292 82.352 71.6258 87.9348 68.0652 92.0423C65.8272 94.6243 63.0453 96.6207 60.1992 97.9389C62.0875 97.8406 63.9695 97.5303 65.8104 97.0249C70.8544 95.64 75.5874 92.7932 79.296 88.8293C83.0012 84.8692 85.6822 79.7929 86.6262 73.9451C87.2933 69.8127 87.0945 65.2918 85.7795 60.5025C83.1716 51.004 74.7608 39.8127 68.1287 30.9882C65.01 26.8385 62.2785 23.2036 60.6768 20.4471C59.3744 22.9791 57.2069 27.4788 55.7288 32.6449C54.1202 38.2674 53.3355 44.6644 55.4335 50.0625ZM45.4557 84.5206C47.1798 86.5687 49.3069 88.1984 51.7316 89.3811C47.868 84.6821 45.2161 79.1451 43.9686 73.3213C42.8472 68.086 42.8602 62.6176 44.1463 57.3161C42.9069 59.0848 41.9922 60.6817 41.3889 62.3609C40.3477 65.2581 40.1903 68.511 40.8278 73.4814C41.4003 77.9432 43.0383 81.6488 45.4557 84.5206Z" fill="#FEFEFE"/>
</svg>
