<svg width="120" height="120" viewBox="0 0 120 120" fill="none" xmlns="http://www.w3.org/2000/svg">
<path d="M60 120C93.1371 120 120 93.1371 120 60C120 26.8629 93.1371 0 60 0C26.8629 0 0 26.8629 0 60C0 93.1371 26.8629 120 60 120Z" fill="#D9DADA"/>
<path fill-rule="evenodd" clip-rule="evenodd" d="M64.2466 45.8451C59.1463 45.8516 49.1378 46.3187 55.2678 53.8705C59.2333 58.7557 66.8383 60.339 72.4253 57.2646C75.3626 55.1536 80.1331 52.0551 77.7308 47.7992C76.1469 44.9935 72.3781 45.5721 69.6343 45.6512C67.838 45.703 66.0434 45.79 64.2466 45.8451Z" fill="#FEFEFE"/>
<path fill-rule="evenodd" clip-rule="evenodd" d="M62.8349 47.1819C60.1308 47.543 55.7857 48.9549 59.4127 52.0469C63.2518 54.665 67.9133 54.3938 71.4004 51.326C76.7518 46.6178 64.9094 47.055 62.8349 47.1819ZM67.6738 41.1892L71.487 35.2158C73.1858 32.2919 75.4455 27.723 75.3856 24.2188C75.3336 21.1782 73.9175 18.7348 72.507 17.2044C71.8631 16.5058 70.772 15.6896 69.659 15.1242C67.5656 14.0605 66.4145 14.2636 65.7783 14.0012H64.1973C63.5558 14.2518 61.1662 14.0373 58.3504 16.3604C58.1865 16.4957 58.06 16.5629 57.9153 16.7122C57.1975 17.4525 56.5819 18.0786 56.0194 19.0318C55.1778 20.4582 54.5642 22.1589 54.522 24.1474C54.5003 25.1736 54.6588 26.1676 54.8868 27.1034C55.0378 27.7231 55.6489 29.2946 55.6669 29.688L57.0104 32.5866C57.3686 33.076 57.8039 34.1095 58.1549 34.7009C59.3461 36.7081 60.0169 37.8277 61.3136 39.7594C61.503 40.0414 61.8653 40.5046 62.0016 40.8227L63.4541 42.7644C63.7587 43.1689 63.9241 43.4429 64.2358 43.8932C64.5246 44.0983 64.5811 44.2716 65.0635 44.2433C65.4953 44.218 65.4735 44.0929 65.8163 43.8113C66.6304 42.6651 65.8163 43.8113 66.6304 42.6651C66.6633 42.6419 67.5616 41.3487 67.6738 41.1892ZM64.5048 27.9379C63.9827 27.6445 62.6028 26.6828 61.9544 26.2485C61.6674 26.0565 61.3723 25.8251 60.8817 25.8704C60.1624 25.9371 59.5546 26.7124 59.8719 27.5322C60.0317 27.9449 60.2234 28.0374 60.5604 28.2606C60.8702 28.4657 61.1257 28.6468 61.4329 28.8469L63.979 30.5418C65.0872 31.2433 65.7932 30.1636 66.6362 29.3195L71.6298 24.3266C72.6879 23.2486 71.4878 21.7635 70.3073 22.2938C69.6935 22.5697 64.9667 27.7243 64.5048 27.9379Z" fill="#42ADE2"/>
<path fill-rule="evenodd" clip-rule="evenodd" d="M93.2039 39.8288C92.1067 39.6086 87.7917 39.2597 85.1486 39.0797C81.0793 38.5953 75.5509 38.6597 69.9318 39.0266C69.6372 39.4938 69.3406 39.9583 69.0412 40.4159C73.8054 40.0127 78.6185 39.8751 83.161 40.3585C84.1625 42.5504 85.9981 44.7863 87.8276 47.0147C89.1852 48.6684 90.5398 50.3183 91.531 51.9259C93.5144 55.1426 93.7948 57.1403 92.8902 58.5923C91.9689 60.0712 89.8063 61.0569 86.9513 62.1972H86.9501C83.7946 63.4678 81.8706 64.8646 80.1056 66.1458C77.5176 68.0245 75.278 69.6503 69.9162 70.2147L69.1456 70.2596L67.6012 70.3198C65.3856 70.3409 63.7345 70.1032 62.1543 69.6293C60.5687 69.1538 59.0402 68.435 57.0805 67.4998L57.0728 67.4975C56.0822 67.0579 55.085 66.6413 54.062 66.3261C53.027 66.0074 51.962 65.7903 50.8447 65.7537H50.8281C46.8195 65.8726 43.4584 68.2196 40.2643 70.4497C39.7244 70.8268 39.1889 71.2007 38.6375 71.5717C38.343 71.7688 38.1144 71.9247 37.897 72.0729C35.604 73.6362 34.6213 74.3062 31.5641 73.012C31.1808 72.8497 30.8064 72.7121 30.4416 72.5985C28.1459 71.8835 26.0729 72.0439 24.3421 72.9232C22.6157 73.8003 21.239 75.3897 20.3306 77.5358C20.2418 77.7456 20.1577 77.9597 20.0785 78.1778C19.911 78.1341 19.7422 78.0883 19.5721 78.0402C17.383 77.4209 16.503 76.9445 14.9874 76.4752C15.065 76.0368 15.6208 74.8147 15.8349 74.3308C16.1251 73.674 16.4303 72.9308 16.7229 72.2327L18.3959 68.2218C18.6429 68.0023 18.8897 67.789 19.1369 67.5831C22.0258 65.1764 25.6377 63.82 29.0543 62.5371C32.692 61.1712 36.1121 59.8868 38.2882 57.4957L38.2992 57.4824C41.0538 54.0471 39.6068 51.7742 37.8852 49.0697C36.8866 47.501 35.7906 45.7793 35.441 43.591C35.549 43.5907 35.6536 43.589 35.754 43.5855L44.154 43.2758L53.7831 42.2568C56.2209 41.9388 58.7913 41.5788 61.4341 41.2432L61.3822 41.1739L61.3501 41.0988C61.2799 40.9351 61.0813 40.6561 60.9155 40.4233C60.8496 40.3309 60.7874 40.2437 60.7258 40.1518L60.5542 39.8954C58.144 40.1829 55.8756 40.5043 53.8795 40.8364L43.8894 41.8665L35.8066 41.9121C31.4989 41.917 33.0299 41.8889 27.6475 41.0518C27.3301 41.4291 25.9566 44.9232 25.6208 45.7108C24.5242 48.2843 11.9547 77.786 11.8466 78.2802C12.2922 78.5174 13.7974 78.8901 14.4118 79.0467C21.8874 80.9514 27.2257 81.4289 35.235 80.824C43.1819 80.2235 51.0163 78.7802 59.0365 78.1562C67.6546 77.4859 76.0758 77.5847 84.6618 78.1649C89.8789 78.5174 97.1992 79.3792 102.469 80.1652C104.299 80.4384 106.384 80.8773 108.152 81.0648L104.789 69.1085C104.578 68.3726 104.283 67.5243 104.066 66.7369L93.2039 39.8288ZM91.6023 41.1586C92.3965 44.2108 99.4388 60.8638 100.718 64.1118H100.717C100.738 69.3819 94.6992 70.66 90.075 71.6389C89.5786 71.7439 89.0979 71.8457 88.6333 71.9505C85.8511 72.5787 83.8069 73.2193 82.0043 73.7842C79.0705 74.7035 76.7814 75.4208 73.0057 75.5386C72.2721 75.5346 71.5396 75.5356 70.8072 75.5416C70.0313 75.522 69.1972 75.4814 68.2921 75.4175C66.307 75.2648 64.3292 75.0398 62.5035 74.74C60.8318 74.4654 59.2853 74.1278 57.9751 73.7247C57.5714 73.5918 57.3354 73.5124 57.097 73.4323C56.4132 73.2024 55.7266 72.9715 55.0583 72.7716L55.0506 72.7693C47.1686 70.6386 43.8312 73.3547 38.5677 77.6386C38.1304 77.9946 37.6791 78.3619 37.1975 78.7485C36.9373 78.7772 36.6773 78.8049 36.4174 78.8315C32.5322 79.2296 28.5728 79.4546 24.7431 79.0024C23.3011 78.8322 21.9912 78.6382 20.6306 78.3154C20.7009 78.1235 20.7746 77.9366 20.8515 77.7551C21.7067 75.7347 22.992 74.2437 24.5969 73.4284C26.1975 72.6153 28.1261 72.4705 30.2733 73.1392C30.6284 73.2499 30.9859 73.3809 31.3447 73.5328C34.6861 74.9472 35.7451 74.2252 38.2161 72.5405C38.4627 72.3724 38.7243 72.194 38.9522 72.0416C39.4812 71.6856 40.0321 71.301 40.5879 70.9128C43.712 68.7315 46.9999 66.4358 50.8357 66.3191C51.8925 66.3546 52.9066 66.5622 53.8958 66.8669C54.8974 67.1754 55.8709 67.5818 56.8373 68.0106L56.8368 68.0116C58.8172 68.9567 60.363 69.6835 61.9925 70.1721C63.6254 70.6618 65.329 70.9071 67.6134 70.8847C68.3242 70.8847 69.2348 70.8404 69.9668 70.7782C75.4874 70.1984 77.784 68.5312 80.438 66.6046C82.1772 65.342 84.0734 63.9654 87.1605 62.7219C90.1168 61.5411 92.3624 60.5107 93.3711 58.8914C94.3966 57.2454 94.129 55.0622 92.012 51.6289C91.0009 49.9891 89.634 48.3243 88.2642 46.6557C86.453 44.4496 84.7825 42.5503 83.8139 40.4201C83.9832 40.3021 91.5228 41.2148 91.6023 41.1586ZM72.077 64.1074C60.8503 66.3638 57.317 62.6169 51.9733 56.95C50.4531 55.3378 48.7841 53.5679 46.7531 51.7467C44.6613 49.871 44.3267 48.7552 45.1226 47.8675C45.7498 47.168 47.1124 46.6957 48.8659 46.0881L49.9686 45.7048C54.982 43.9614 57.468 43.097 62.3976 42.5311L62.7915 43.0576C57.6933 43.6175 55.2315 44.4734 50.1548 46.2388L49.0498 46.6221C47.3747 47.2026 46.073 47.6537 45.5435 48.2442C44.9973 48.8535 45.349 49.7288 47.1299 51.3257C49.1877 53.171 50.8611 54.9456 52.3854 56.5621C57.596 62.0881 61.0428 65.7428 71.9434 63.5579L72.7226 63.2762C73.5589 62.9089 74.1643 62.6088 74.7453 62.27C75.3265 61.9311 75.8884 61.5497 76.6375 61.0201L76.6408 61.0178C77.1516 60.6696 77.8048 60.2613 78.5198 59.8141C80.6485 58.4831 83.3361 56.8027 84.2485 55.4839C84.347 55.3414 84.4352 55.1917 84.5129 55.036C85.4092 53.2408 84.721 50.8924 83.4201 48.7184C82.0948 46.504 80.1406 44.4824 78.5508 43.3825C78.2391 43.167 77.9405 42.9869 77.6628 42.8483C75.6325 41.8345 71.0721 42.237 67.5454 42.596C67.6935 42.3906 67.8492 42.1692 67.979 41.9837C71.4986 41.6333 75.8434 41.3062 77.9154 42.3408C78.2118 42.4888 78.5336 42.6831 78.8721 42.9172C80.518 44.0559 82.5385 46.1443 83.9053 48.4282C85.2962 50.7523 86.0176 53.2912 85.0204 55.2886C84.9335 55.4627 84.8314 55.6352 84.7138 55.8052C83.7335 57.2221 80.9911 58.9369 78.8189 60.2951C78.1085 60.7393 77.4596 61.1451 76.963 61.4834C76.2033 62.0205 75.6305 62.409 75.0289 62.7598C74.4288 63.1098 73.804 63.4194 72.9402 63.7984C72.6704 63.9067 72.376 64.004 72.1007 64.1026L72.077 64.1074ZM28.3398 44.4238C29.0694 46.6157 29.9556 49.3467 29.2966 50.6968C28.8417 51.6288 27.7539 51.9206 25.5927 51.0109L25.4585 51.3339C25.1263 52.0768 24.8034 52.8232 24.4866 53.5703L24.7356 53.5895C30.7927 54.0657 32.5253 53.354 32.659 51.6536C32.728 50.7756 32.4112 49.6128 32.0313 48.2181H32.0301C31.6772 46.9222 31.2705 45.4303 31.0569 43.7416L31.6176 43.6707C31.8245 45.3061 32.2276 46.785 32.5775 48.0697L32.5764 48.07C32.9713 49.5191 33.3003 50.7272 33.224 51.698C33.0607 53.7764 31.1914 54.6656 24.6912 54.1546C24.5417 54.1428 24.3962 54.1316 24.2543 54.1212C23.4719 55.9845 22.7236 57.8486 21.9618 59.6723L18.8788 67.0639C21.8232 64.6489 25.4366 63.2917 28.857 62.0074C32.4249 60.6676 35.7795 59.408 37.8654 57.1188C40.3568 54.0045 39.0105 51.8893 37.4088 49.3733C36.364 47.7321 35.216 45.9286 34.8668 43.5801C33.0055 43.51 30.4466 43.1206 28.9229 42.9568C28.8097 43.387 28.5614 43.9305 28.3398 44.4238ZM25.8097 50.4884C27.6052 51.2514 28.4701 51.0976 28.7869 50.4486C29.2945 49.4087 28.6481 47.1746 28.0037 45.2063L25.8097 50.4884ZM101.183 65.3241C101.675 66.6429 102.106 67.9438 102.411 69.2044L104.78 78.348C103.014 78.1424 101.009 77.8233 99.2298 77.5293C97.4269 77.2313 95.6543 77.0441 93.7813 76.838C87.9895 76.2005 82.6433 75.7903 77.4363 75.6226C79.0611 75.2998 80.5155 74.8442 82.1727 74.3249C83.9693 73.7619 86.0068 73.1234 88.7575 72.5023C89.207 72.4009 89.691 72.2984 90.1913 72.1926H90.1923C94.6507 71.249 100.37 70.0379 101.183 65.3241ZM65.1892 75.6866C59.4997 75.9335 53.6862 76.487 47.3422 77.3673C44.3352 77.7847 41.2831 78.2637 38.2481 78.6273C38.4763 78.4422 38.7021 78.2585 38.9245 78.0774C44.0497 73.9061 47.2994 71.2613 54.9026 73.3162C55.586 73.5208 56.2531 73.7451 56.9175 73.9685C57.2663 74.0858 57.6169 74.2037 57.7978 74.2632L57.8033 74.2643C59.1403 74.6755 60.7143 75.0195 62.4127 75.2985C63.3093 75.4458 64.2403 75.575 65.1892 75.6866ZM64.2458 46.1267C61.7214 46.1299 57.9845 46.246 55.6602 47.2856C53.4735 48.2636 52.5994 50.1345 55.4864 53.6912C57.4355 56.0924 60.2865 57.679 63.3362 58.2822C66.3527 58.8789 69.5603 58.513 72.2776 57.0214L72.7007 56.7185C75.5591 54.6792 79.6446 51.7644 77.484 47.9369C76.1773 45.622 73.1889 45.7672 70.6787 45.8892C70.3278 45.9062 69.986 45.9229 69.6412 45.9328C68.7124 45.9596 67.7662 45.9966 66.8202 46.0336C65.9722 46.0668 65.1238 46.1001 64.2535 46.1267H64.2458ZM55.4298 46.7693C57.8498 45.6869 61.6626 45.5652 64.2381 45.5617C65.0772 45.536 65.9378 45.5022 66.798 45.4686C67.7346 45.432 68.6713 45.3953 69.6257 45.3678C69.9428 45.3586 70.293 45.3416 70.6522 45.3242C73.3204 45.1945 76.4971 45.0402 77.9759 47.6598C80.3864 51.9302 76.0575 55.0186 73.0287 57.1795L72.5719 57.5058L72.5608 57.5119C69.7202 59.075 66.3719 59.4605 63.2276 58.8384C60.0535 58.2105 57.0827 56.5552 55.0476 54.048C51.8048 50.053 52.8698 47.9143 55.4298 46.7693ZM62.858 47.4632C61.788 47.6071 60.4604 47.9179 59.5016 48.4346C59.0346 48.6863 58.6612 48.984 58.4637 49.3294C58.2819 49.6475 58.2519 50.02 58.4446 50.4531C58.6239 50.8558 58.9869 51.3097 59.5829 51.8199C61.4478 53.0883 63.5095 53.6563 65.5263 53.535C67.5429 53.4138 69.5189 52.6024 71.2125 51.1124C71.9009 50.5069 72.2847 50.0026 72.4287 49.5844C72.5822 49.1385 72.431 48.7878 72.0788 48.5131C71.665 48.1904 70.9932 47.9554 70.1949 47.786C67.662 47.2485 63.9434 47.3972 62.858 47.4632ZM59.2334 47.936C60.2624 47.3815 61.6707 47.0512 62.7978 46.9007L62.8177 46.8985C63.9125 46.8317 67.7072 46.6792 70.3122 47.2321C71.1873 47.4178 71.9376 47.6861 72.4268 48.0677C72.9776 48.4972 73.2113 49.0529 72.965 49.7683C72.7898 50.2772 72.3537 50.8633 71.587 51.5379C69.7965 53.1132 67.7018 53.9713 65.5596 54.1C63.4152 54.229 61.2267 53.6263 59.2525 52.2799L59.241 52.2721L59.2281 52.261C58.5574 51.6893 58.142 51.1639 57.9283 50.6836C57.6526 50.0641 57.7017 49.5205 57.9718 49.048C58.2262 48.603 58.678 48.2353 59.2334 47.936ZM68.4129 49.5618C67.6923 48.7159 65.3086 48.6124 63.5322 48.8801C62.8475 48.9832 62.2613 49.1424 61.9041 49.3362C61.7003 49.4467 61.5989 49.5528 61.665 49.6345C61.8523 49.8663 62.4262 50.1268 63.5384 50.4003C64.4699 50.6295 65.7221 50.8023 66.7806 50.5763C67.4524 50.433 68.0447 50.1259 68.4129 49.5618ZM63.4479 48.3194C65.4819 48.0129 68.2841 48.2165 68.9929 49.403L69.0757 49.5417L68.9995 49.6822C68.5506 50.5106 67.7774 50.9426 66.898 51.1303C65.7411 51.3772 64.3973 51.1944 63.4031 50.9499C62.1598 50.6442 61.4851 50.3121 61.2241 49.9891C60.8598 49.5382 61.0651 49.1461 61.6338 48.8376C62.0488 48.6125 62.701 48.432 63.4479 48.3194Z" fill="#2B2A29"/>
</svg>
