<svg width="120" height="120" viewBox="0 0 120 120" fill="none" xmlns="http://www.w3.org/2000/svg">
<path d="M60 120C93.1371 120 120 93.1371 120 60C120 26.8629 93.1371 0 60 0C26.8629 0 0 26.8629 0 60C0 93.1371 26.8629 120 60 120Z" fill="#D9DADA"/>
<path d="M50.8616 19.0382C50.8616 18.2551 51.4966 17.6201 52.2797 17.6201C53.0629 17.6201 53.6979 18.2551 53.6979 19.0382V100.555C53.6979 101.338 53.0629 101.973 52.2797 101.973C51.4966 101.973 50.8616 101.338 50.8616 100.555V98.9095H25.7706C24.9874 98.9095 24.3525 98.2745 24.3525 97.4913C24.3525 96.7082 24.9874 96.0732 25.7706 96.0732H50.8616V73.7797H14.0888C13.3056 73.7797 12.6707 73.1447 12.6707 72.3616C12.6707 71.5784 13.3056 70.9434 14.0888 70.9434H50.8616V48.6499H14.0888C13.3056 48.6499 12.6707 48.0149 12.6707 47.2318C12.6707 46.4486 13.3056 45.8137 14.0888 45.8137H50.8616V23.5202H25.7706C24.9874 23.5202 24.3525 22.8852 24.3525 22.102C24.3525 21.3189 24.9874 20.6839 25.7706 20.6839H50.8616V19.0382ZM94.9554 96.0732C95.7385 96.0732 96.3735 96.7082 96.3735 97.4913C96.3735 98.2745 95.7385 98.9095 94.9554 98.9095H69.8644V100.555C69.8644 101.338 69.2294 101.973 68.4463 101.973C67.6631 101.973 67.0281 101.338 67.0281 100.555V19.0382C67.0281 18.2551 67.6631 17.6201 68.4463 17.6201C69.2294 17.6201 69.8644 18.2551 69.8644 19.0382V20.6839H94.9554C95.7385 20.6839 96.3735 21.3189 96.3735 22.102C96.3735 22.8852 95.7385 23.5202 94.9554 23.5202H69.8644V45.8137H106.637C107.42 45.8137 108.055 46.4486 108.055 47.2318C108.055 48.0149 107.42 48.6499 106.637 48.6499H69.8644V70.9434H106.637C107.42 70.9434 108.055 71.5784 108.055 72.3616C108.055 73.1447 107.42 73.7797 106.637 73.7797H69.8644V96.0732H94.9554Z" fill="#2B2A29"/>
<path fill-rule="evenodd" clip-rule="evenodd" d="M69.865 73.7801L83.4338 75.4306L69.865 77.081V73.7801ZM23.968 90.2526C23.3002 90.9205 22.2179 90.9205 21.5505 90.2526C20.8827 89.5852 20.8827 88.5029 21.5505 87.8351L25.097 84.2887L21.5502 80.7419C20.8827 80.0744 20.8827 78.9918 21.5502 78.3243C22.2176 77.6569 23.3002 77.6569 23.9677 78.3243L27.5145 81.8711L31.0613 78.3243C31.7288 77.6569 32.8114 77.6569 33.4789 78.3243C34.1463 78.9918 34.1463 80.0744 33.4789 80.7419L29.9321 84.2887L33.4785 87.8351C34.1463 88.5029 34.1463 89.5852 33.4785 90.2526C32.811 90.9205 31.7288 90.9205 31.0609 90.2526L27.5145 86.7062L23.968 90.2526ZM69.865 28.3495L83.4338 29.9999L69.865 31.6503V28.3495ZM89.4239 90.6373C88.7562 91.3052 87.6738 91.3052 87.0064 90.6373C86.3386 89.9699 86.3386 88.8876 87.0064 88.2198L90.5529 84.6734L87.0061 81.1266C86.3386 80.4591 86.3386 79.3765 87.0061 78.709C87.6735 78.0416 88.7562 78.0416 89.4236 78.709L92.9704 82.2558L96.5172 78.709C97.1847 78.0416 98.2673 78.0416 98.9348 78.709C99.6022 79.3765 99.6022 80.4591 98.9348 81.1266L95.388 84.6734L98.9344 88.2198C99.6022 88.8876 99.6022 89.9699 98.9344 90.6373C98.2669 91.3052 97.1847 91.3052 96.5168 90.6373L92.9704 87.0909L89.4239 90.6373ZM89.4239 40.7023C88.7562 41.3701 87.6738 41.3701 87.0064 40.7023C86.3386 40.0348 86.3386 38.9526 87.0064 38.2847L90.5529 34.7383L87.0061 31.1915C86.3386 30.524 86.3386 29.4414 87.0061 28.774C87.6735 28.1065 88.7562 28.1065 89.4236 28.774L92.9704 32.3208L96.5172 28.774C97.1847 28.1065 98.2673 28.1065 98.9348 28.774C99.6022 29.4414 99.6022 30.524 98.9348 31.1915L95.388 34.7383L98.9344 38.2847C99.6022 38.9526 99.6022 40.0348 98.9344 40.7023C98.2669 41.3701 97.1847 41.3701 96.5168 40.7023L92.9704 37.1559L89.4239 40.7023ZM23.968 40.7023C23.3002 41.3701 22.2179 41.3701 21.5505 40.7023C20.8827 40.0348 20.8827 38.9526 21.5505 38.2847L25.097 34.7383L21.5502 31.1915C20.8827 30.524 20.8827 29.4414 21.5502 28.774C22.2176 28.1065 23.3002 28.1065 23.9677 28.774L27.5145 32.3208L31.0613 28.774C31.7288 28.1065 32.8114 28.1065 33.4789 28.774C34.1463 29.4414 34.1463 30.524 33.4789 31.1915L29.9321 34.7383L33.4785 38.2847C34.1463 38.9526 34.1463 40.0348 33.4785 40.7023C32.811 41.3701 31.7288 41.3701 31.0609 40.7023L27.5145 37.1559L23.968 40.7023ZM50.8622 23.6111L37.2934 25.2616L50.8622 26.912V23.6111ZM50.8622 42.5646L37.2934 44.2151L50.8622 45.8654V42.5646ZM50.8622 37.8262L37.2934 39.4767L50.8622 41.1271V37.8262ZM50.8622 33.0878L37.2934 34.7383L50.8622 36.3887V33.0878ZM50.8622 28.3495L37.2934 29.9999L50.8622 31.6503V28.3495ZM69.865 23.6111L83.4338 25.2616L69.865 26.912V23.6111ZM69.865 42.5646L83.4338 44.2151L69.865 45.8654V42.5646ZM69.865 37.8262L83.4338 39.4767L69.865 41.1271V37.8262ZM69.865 33.0878L83.4338 34.7383L69.865 36.3887V33.0878ZM50.8622 92.7336L37.2934 94.3841L50.8622 96.0345V92.7336ZM50.8622 87.9952L37.2934 89.6457L50.8622 91.2961V87.9952ZM50.8622 83.2568L37.2934 84.9073L50.8622 86.5577V83.2568ZM50.8622 78.5185L37.2934 80.1689L50.8622 81.8193V78.5185ZM50.8622 73.7801L37.2934 75.4306L50.8622 77.081V73.7801ZM69.865 92.7336L83.4338 94.3841L69.865 96.0345V92.7336ZM69.865 87.9952L83.4338 89.6457L69.865 91.2961V87.9952ZM69.865 83.2568L83.4338 84.9073L69.865 86.5577V83.2568ZM69.865 78.5185L83.4338 80.1689L69.865 81.8193V78.5185Z" fill="#FEFEFE"/>
<path fill-rule="evenodd" clip-rule="evenodd" d="M24.7297 61.2745C24.1093 60.9258 22.47 59.7832 21.6995 59.2674C21.3585 59.0392 21.0078 58.7642 20.4249 58.8181C19.5704 58.8973 18.8481 59.8184 19.2252 60.7926C19.415 61.2828 19.6428 61.3928 20.0433 61.6579C20.4112 61.9016 20.7149 62.1168 21.0798 62.3545L24.1049 64.3682C25.4216 65.2017 26.2605 63.9189 27.262 62.916L33.195 56.9839C34.452 55.7031 33.0262 53.9386 31.6238 54.5687C30.8945 54.8965 25.2785 61.0207 24.7297 61.2745ZM50.8614 48.6499L37.2926 50.3004L50.8614 51.9508V48.6499ZM50.8614 67.6034L37.2926 69.2539L50.8614 70.9043V67.6034ZM50.8614 62.865L37.2926 64.5155L50.8614 66.1659V62.865ZM50.8614 58.1267L37.2926 59.7771L50.8614 61.4275V58.1267ZM50.8614 53.3883L37.2926 55.0388L50.8614 56.6891V53.3883Z" fill="#42ADE2"/>
</svg>
