<svg width="120" height="120" viewBox="0 0 120 120" fill="none" xmlns="http://www.w3.org/2000/svg">
<path d="M60 120C93.1371 120 120 93.1371 120 60C120 26.8629 93.1371 0 60 0C26.8629 0 0 26.8629 0 60C0 93.1371 26.8629 120 60 120Z" fill="#D9DADA"/>
<path fill-rule="evenodd" clip-rule="evenodd" d="M17.3764 61.2114C25.0499 61.8164 33.7101 63.5098 40.5351 59.2456C44.9026 60.0445 48.0933 58.0012 50.2088 54.8252C52.2097 55.9456 52.4109 59.3695 50.0929 59.9585C52.8687 60.6179 64.5188 57.4889 65.0631 53.8414C66.1626 55.2103 62.9939 60.5676 81.2424 58.8897C77.3637 57.7323 78.9071 52.5532 79.6018 52.4046C79.6018 52.4046 81.582 56.8169 86.646 57.5932C94.3977 58.7814 101.246 54.4158 102.617 55.6474C104.151 57.0252 105.42 63.544 104.915 69.2658C104.41 74.9876 103.905 82.128 100.424 83.4894C96.9439 84.8508 90.7363 76.1521 90.7363 76.1521L75.6933 68.7722L61.4688 66.8436L43.4989 71.955L28.1576 82.0041L19.5694 88.8309C19.5694 88.8309 16.3773 85.0332 15.8724 76.787C15.3676 68.5409 17.3764 61.2114 17.3764 61.2114ZM64.9647 51.4746C65.2845 51.4746 65.5438 51.7338 65.5438 52.0537C65.5438 52.3735 65.2845 52.6328 64.9647 52.6328C64.6448 52.6328 64.3856 52.3735 64.3856 52.0537C64.3856 51.7338 64.6448 51.4746 64.9647 51.4746Z" fill="#FEFEFE"/>
<path d="M94.4525 26.178C94.4525 25.4267 95.0616 24.8175 95.8129 24.8175C96.5642 24.8175 97.1734 25.4267 97.1734 26.178V50.8576V54.4066C97.8462 54.9847 98.4619 55.5311 99.0186 56.0337C98.4528 56.1972 97.8352 56.3803 97.1734 56.565V72.9524C97.1734 73.7037 96.5642 74.3129 95.8129 74.3129C95.0616 74.3129 94.4525 73.7037 94.4525 72.9524V65.9991L89.6235 66.0302L89.6309 67.1806L87.0357 65.7748L89.6126 64.3356L89.62 65.486L94.4506 65.4549L94.4525 65.7269V57.2397C92.1103 57.7309 89.438 58.0224 86.6487 57.5948C81.5847 56.8185 79.6045 52.4061 79.6045 52.4061C78.9097 52.5548 77.3664 57.7339 81.2451 58.8913C62.9966 60.5692 66.1653 55.2119 65.0658 53.843C64.5215 57.4905 52.8714 60.6195 50.0956 59.9601C52.4136 59.371 52.2124 55.9472 50.2115 54.8268C48.096 58.0028 44.9052 60.0461 40.5377 59.2472C37.5771 61.0969 34.2711 61.8253 30.8501 62.0082V65.4567L35.3915 65.486L35.3989 64.3356L37.9758 65.7748L35.3806 67.1806L35.3881 66.0302L30.8501 66.0009V74.4327C30.8501 75.184 30.2409 75.7931 29.4896 75.7931C28.7384 75.7931 28.1292 75.184 28.1292 74.4327V62.0497C25.6372 62.0033 23.117 61.7527 20.6543 61.512C22.0335 59.9185 24.608 57.1195 28.1292 54.0484V50.1915V25.882C28.1292 25.1307 28.7384 24.5215 29.4896 24.5215C30.2409 24.5215 30.8501 25.1307 30.8501 25.882V47.8607V51.7837C37.6685 46.3697 47.1056 40.8204 57.8965 39.8866C74.0325 38.4902 86.7364 46.0927 94.4525 52.1665V48.7894V26.178ZM64.9674 51.4762C65.2872 51.4762 65.5465 51.7354 65.5465 52.0553C65.5465 52.375 65.2872 52.6344 64.9674 52.6344C64.6475 52.6344 64.3883 52.375 64.3883 52.0553C64.3883 51.7354 64.6475 51.4762 64.9674 51.4762Z" fill="#42ADE2"/>
<path d="M20.9222 91.1936C19.6191 91.939 17.9583 91.4869 17.2129 90.1839C16.4674 88.8807 16.9195 87.2199 18.2227 86.4745C23.5436 83.4278 27.569 80.2386 31.3165 77.2694C39.0591 71.1352 45.6966 65.8764 59.1058 64.3234C74.5096 62.5396 87.2192 71.4099 95.5016 77.1903C98.0264 78.9524 100.099 80.3992 101.49 80.9949C102.87 81.5818 103.512 83.1759 102.925 84.5553C102.338 85.9347 100.744 86.5772 99.3646 85.9902C97.4925 85.1885 95.1957 83.5854 92.3981 81.633C84.7885 76.322 73.1111 68.172 59.7222 69.7227C47.8278 71.1001 41.7569 75.91 34.6751 81.5208C30.7293 84.6471 26.4908 88.0052 20.9222 91.1936ZM19.5052 62.8938C18.5778 64.0678 16.8742 64.2676 15.7002 63.3403C14.5262 62.4129 14.3264 60.7092 15.2538 59.5352C15.2808 59.501 20.0987 53.3076 28.1296 47.0674V54.0499C22.7051 58.781 19.5261 62.8672 19.5052 62.8938ZM30.8505 45.0455C37.9653 39.9978 47.1105 35.3606 57.4291 34.4677C73.2519 33.0984 85.9263 39.3628 94.4529 45.3802V52.168C86.7368 46.0942 74.0329 38.4917 57.8969 39.8881C47.1059 40.8219 37.6689 46.3712 30.8505 51.7852V45.0455ZM97.1737 47.3913C100.215 49.7436 102.571 51.9133 104.175 53.3912L104.459 53.6524C105.563 54.6678 105.634 56.3856 104.618 57.4892C103.603 58.5927 101.885 58.6641 100.782 57.6486L100.498 57.3874C99.6258 56.584 98.513 55.5588 97.1737 54.4081V47.3913Z" fill="#2B2A29"/>
</svg>
