<svg width="120" height="120" viewBox="0 0 120 120" fill="none" xmlns="http://www.w3.org/2000/svg">
<path d="M60 120C93.1371 120 120 93.1371 120 60C120 26.8629 93.1371 0 60 0C26.8629 0 0 26.8629 0 60C0 93.1371 26.8629 120 60 120Z" fill="#D9DADA"/>
<path fill-rule="evenodd" clip-rule="evenodd" d="M24.7496 58.179H24.7498L24.8185 58.1774L24.8872 58.1758L24.956 58.1742L25.0247 58.1726L25.712 58.157L25.7808 58.1554L25.8495 58.1538L25.9183 58.1523H25.9191L25.987 58.1508L26.262 58.1446L26.3308 58.143L26.3995 58.1415L26.4683 58.14L26.537 58.1385L26.6058 58.1369L26.6746 58.1354L26.7433 58.1339L26.812 58.1324L26.8808 58.1308L26.9496 58.1293L27.0183 58.1278L27.0871 58.1262H27.0887L27.1558 58.1247L27.2246 58.1233L27.2934 58.1217L27.4309 58.1188L27.4997 58.1172L27.9123 58.1083L27.981 58.1068L28.0497 58.1053L28.1186 58.1038L28.1873 58.1024L28.2561 58.1009L28.2586 58.1008L28.3249 58.0994L28.3936 58.0979L28.4624 58.0965L28.5312 58.095L28.5999 58.0936L28.7375 58.0906L28.8063 58.0892L28.875 58.0877L28.9438 58.0863L29.0126 58.0848L29.0814 58.0834L29.1501 58.0819V60.8061L28.6664 60.8146L28.6814 61.6653L29.1501 61.6571V74.42C29.1501 75.1713 29.7593 75.7804 30.5105 75.7804C31.2619 75.7804 31.871 75.1713 31.871 74.42V61.6095L32.9348 61.591L32.9198 60.7402L31.871 60.7585V58.0265L32.8176 58.0079L32.9402 58.0056L33.7644 57.9897L34.1111 57.9831L34.3401 57.9789L35.2105 57.9627L35.2822 57.9613L35.6582 57.9544L36.4534 57.94L36.6052 57.9372L37.5525 57.9204L37.6248 57.9191L38.4997 57.9039L38.7964 57.8987L39.4471 57.8876L39.9681 57.8788L40.3946 57.8716L41.1399 57.8592L41.3422 57.8559L42.2898 57.8404L42.3119 57.8401L43.2375 57.8252L43.4839 57.8214L44.1853 57.8103L44.6562 57.803L46.8138 57.7698L47.0009 57.767L47.0291 57.7666L47.9772 57.7525L48.1734 57.7496L48.9253 57.7385L49.346 57.7323L49.8735 57.7247L50.5187 57.7153L50.8217 57.7109L51.6915 57.6985L51.77 57.6974L52.7184 57.684L52.8643 57.6819L53.6666 57.6706L54.0371 57.6655L54.6151 57.6574L55.2101 57.6492L55.5635 57.6443L56.383 57.6331L57.4604 57.6183L57.556 57.617L58.4089 57.6053L58.7291 57.601L59.3574 57.5925L59.9021 57.5851L60.3059 57.5796L61.0752 57.5692L61.2544 57.5668L62.2029 57.554L62.2482 57.5533L63.1514 57.5411L63.4212 57.5375L64.1 57.5282L64.5943 57.5216L65.0484 57.5154L65.7673 57.5056L65.9969 57.5024L66.9403 57.4895L66.9454 57.4894L67.8938 57.4764L68.1133 57.4733L68.8423 57.4632L69.2862 57.4571L69.7906 57.45L70.739 57.4367L71.6319 57.4241L71.6873 57.4232L72.6356 57.4097L72.8046 57.4072L73.5838 57.396L73.9773 57.3903L74.532 57.3821L75.15 57.373L75.4801 57.3681L76.3225 57.3556L76.4282 57.3539L77.3762 57.3396L77.4949 57.3378L78.3241 57.3249L79.2093 57.3112L79.272 57.3102L79.8394 57.3013L80.2198 57.2952L81.0115 57.2825L81.1675 57.2799L82.1151 57.2645L82.1835 57.2633L83.0626 57.2487L83.3553 57.2438L84.0101 57.2327L84.5271 57.2239L84.9575 57.2164L85.9047 57.1998L86.8519 57.1829L86.87 57.1826L87.799 57.1657L88.0412 57.1613L88.7459 57.1482L89.2123 57.1394L89.6927 57.1303L89.723 57.1297C90.3441 57.1179 90.9651 57.1058 91.5861 57.0935L92.5325 57.0745V59.697L92.4695 59.6982L92.4845 60.5489L92.5325 60.548V71.8759C92.5325 72.6273 93.1416 73.2364 93.8929 73.2364C94.6442 73.2364 95.2534 72.6273 95.2534 71.8759V60.5003L96.7383 60.4742L96.7233 59.6234L95.2534 59.6492V57.0177L95.3236 57.0162L95.3938 57.0147L95.4639 57.0131L95.5341 57.0117L95.6043 57.0102L95.6745 57.0086L95.7446 57.0071L95.8148 57.0056L95.8849 57.0041L95.9551 57.0025L96.0252 57.001L96.0954 56.9995L96.1656 56.9979L96.2347 56.9964L96.2358 56.9963L96.3059 56.9948L96.3761 56.9933L96.4463 56.9918L96.5164 56.9901L96.5866 56.9886L96.6567 56.9871L96.7269 56.9855L96.797 56.984L96.8671 56.9823L96.9373 56.9808L97.0075 56.9793L97.0776 56.9777L97.1478 56.9761L97.2179 56.9745L97.5687 56.9667L97.6388 56.9651L97.709 56.9635L97.7791 56.9618L97.8493 56.9603L97.9194 56.9587L97.9896 56.9571L98.0597 56.9555L98.1299 56.9539L98.2 56.9523L98.2702 56.9507L98.3403 56.9491L98.4104 56.9475L98.4806 56.9458L98.5507 56.9442L98.5738 56.9437L98.6208 56.9425L98.691 56.9409L98.7611 56.9393L98.9014 56.936L98.9715 56.9344L99.5325 56.9212L99.6027 56.9196L99.6728 56.9179L99.7429 56.9163H99.743C100.908 57.9654 101.893 58.8899 102.68 59.6199L102.694 60.3695L103.27 60.3594L103.266 60.1596C103.881 60.7139 104.681 60.9356 105.444 60.8341C106.662 67.7266 105.385 74.6586 103.345 81.5358L103.312 81.5046L103.3 81.4927L103.262 81.4584L103.255 81.4518L103.243 81.4416L103.21 81.4125L103.208 81.4112L103.206 81.4089L103.197 81.4013L103.16 81.3709L103.149 81.3619L103.137 81.3522L103.108 81.3299L103.1 81.3235L103.087 81.3141L103.052 81.288L103.05 81.2862L103.048 81.2846L103.037 81.277L102.999 81.2499L102.993 81.2455L102.986 81.241L102.94 81.2101L102.936 81.2077L102.934 81.206C102.916 81.1945 102.898 81.1833 102.88 81.1722L102.879 81.1712L102.876 81.1698L102.826 81.1395L102.82 81.136L102.818 81.1347C102.799 81.1236 102.78 81.1128 102.761 81.1022L102.757 81.1002C102.738 81.09 102.72 81.0799 102.701 81.0701L102.7 81.0697C102.68 81.0592 102.659 81.0489 102.638 81.0388L102.637 81.0383L102.585 81.0135L102.575 81.0088L102.57 81.0067C102.551 80.9978 102.531 80.9891 102.511 80.9806C101.12 80.3849 99.0469 78.9382 96.5221 77.1761C88.2397 71.3957 75.5301 62.5253 60.1263 64.3092C46.7171 65.8621 40.0797 71.1209 32.337 77.2552C28.5895 80.2243 24.5641 83.4136 19.2432 86.4603C19.2237 86.4713 19.2045 86.4826 19.1855 86.4942L19.1827 86.4959L19.1792 86.498C19.161 86.509 19.1429 86.5204 19.1252 86.5318L19.1236 86.5328L19.1228 86.5333L19.1213 86.5343C19.1052 86.5445 19.0893 86.555 19.0736 86.5656L19.0675 86.5697L19.0656 86.571L19.0614 86.5739L19.0554 86.578L19.0194 86.6031L19.0134 86.6074L19.0075 86.6116L19.0015 86.6158L18.9957 86.6201L18.9722 86.6374L18.9663 86.6417L18.9604 86.646L18.9489 86.6548L18.9431 86.6591L18.9201 86.6769L18.9144 86.6813L18.9087 86.6858L18.8917 86.6993L18.8861 86.7039L18.8804 86.7084L18.8748 86.7129L18.8693 86.7175L18.8636 86.7221L18.8581 86.7267C16.9709 79.259 16.7879 71.4105 17.8731 63.8581C18.8385 64.0486 19.8738 63.7048 20.5257 62.8796C20.5322 62.8714 20.8406 62.475 21.4233 61.7922L22.7266 61.7694L22.7116 60.9187L22.1758 60.9281C22.845 60.174 23.7086 59.2365 24.7496 58.179ZM101.828 59.5337L101.843 60.3844L100.141 60.4143L100.126 59.5636L101.828 59.5337ZM99.2756 59.5785L99.2906 60.4293L97.589 60.4592L97.5741 59.6084L99.2756 59.5785ZM91.6187 59.713L91.6337 60.5638L89.9322 60.5936L89.9172 59.7429L91.6187 59.713ZM89.0665 59.7577L89.0814 60.6085L87.38 60.6383L87.365 59.7876L89.0665 59.7577ZM86.5143 59.8024L86.5293 60.6532L84.8278 60.683L84.8129 59.8323L86.5143 59.8024ZM83.9622 59.8471L83.9771 60.6979L82.2757 60.7277L82.2607 59.877L83.9622 59.8471ZM81.4101 59.8918L81.425 60.7426L79.7236 60.7724L79.7086 59.9217L81.4101 59.8918ZM78.8579 59.9365L78.8729 60.7873L77.1714 60.8171L77.1565 59.9664L78.8579 59.9365ZM76.3058 59.9812L76.3208 60.832L74.6193 60.8618L74.6043 60.0111L76.3058 59.9812ZM73.7537 60.0259L73.7686 60.8767L72.0672 60.9065L72.0522 60.0558L73.7537 60.0259ZM71.2015 60.0706L71.2165 60.9214L69.515 60.9512L69.5001 60.1005L71.2015 60.0706ZM68.6494 60.1153L68.6644 60.9661L66.9629 60.9959L66.948 60.1452L68.6494 60.1153ZM66.0973 60.1601L66.1122 61.0108L64.4108 61.0406L64.3958 60.1899L66.0973 60.1601ZM63.5451 60.2048L63.5601 61.0555L61.8586 61.0853L61.8437 60.2345L63.5451 60.2048ZM60.993 60.2494L61.008 61.1001L59.3065 61.1299L59.2916 60.2791L60.993 60.2494ZM58.4409 60.294L58.4558 61.1448L56.7544 61.1745L56.7394 60.3237L58.4409 60.294ZM55.8887 60.3386L55.9037 61.1894L54.2023 61.2191L54.1873 60.3684L55.8887 60.3386ZM53.3366 60.3832L53.3516 61.234L51.6501 61.2637L51.6352 60.413L53.3366 60.3832ZM50.7845 60.4279L50.7994 61.2786L49.098 61.3084L49.083 60.4576L50.7845 60.4279ZM48.2324 60.4725L48.2473 61.3232L46.5459 61.353L46.5309 60.5022L48.2324 60.4725ZM45.6802 60.5171L45.6952 61.3679L43.9937 61.3976L43.9788 60.5468L45.6802 60.5171ZM43.1281 60.5617L43.1431 61.4125L41.4416 61.4422L41.4266 60.5915L43.1281 60.5617ZM40.576 60.6063L40.5909 61.4571L38.8896 61.4868L38.8746 60.6361L40.576 60.6063ZM38.0239 60.651L38.0389 61.5017L36.3375 61.5315L36.3225 60.6807L38.0239 60.651ZM35.4719 60.6956L35.4868 61.5463L33.7854 61.5761L33.7705 60.7253L35.4719 60.6956ZM27.8157 60.8294L27.8307 61.6802L26.1293 61.7099L26.1143 60.8592L27.8157 60.8294ZM25.2637 60.8741L25.2786 61.7248L23.5773 61.7546L23.5623 60.9038L25.2637 60.8741Z" fill="#FEFEFE"/>
<path d="M92.5318 25.1019C92.5318 24.3506 93.1409 23.7415 93.8922 23.7415C94.6435 23.7415 95.2527 24.3506 95.2527 25.1019V53.0896C96.9551 54.4538 98.4585 55.7609 99.7421 56.9167C98.2462 56.9522 96.7497 56.9859 95.2527 57.0181V71.8763C95.2527 72.6277 94.6435 73.2368 93.8922 73.2368C93.1409 73.2368 92.5318 72.6277 92.5318 71.8763V57.0749C72.3418 57.4838 52.0633 57.6272 31.8703 58.0269V74.4203C31.8703 75.1717 31.2611 75.7807 30.5098 75.7807C29.7586 75.7807 29.1494 75.1717 29.1494 74.4203V58.0823C27.6822 58.1131 26.2152 58.1455 24.749 58.1794C25.9776 56.931 27.4543 55.5151 29.1494 54.0365V25.8697C29.1494 25.1183 29.7586 24.5092 30.5098 24.5092C31.2611 24.5092 31.8703 25.1183 31.8703 25.8697V51.7704C38.6881 46.3567 48.1257 40.8081 58.9167 39.8743C72.5529 38.6942 84.3129 44.9412 92.5318 50.9974V25.1019Z" fill="#42ADE2"/>
<path d="M20.5253 62.8794C19.5979 64.0534 17.8943 64.2532 16.7203 63.3259C15.5464 62.3985 15.3465 60.6948 16.2739 59.5208C16.3009 59.4866 21.1189 53.2932 29.1498 47.053V54.0355C29.0309 54.1393 28.9134 54.2425 28.7967 54.3456L30.3669 54.3161L30.3828 55.1668L28.6814 55.1988L28.6676 54.4596C28.3819 54.713 28.1031 54.964 27.8307 55.2124L27.8308 55.2148L27.828 55.2149C25.3427 57.4826 23.4218 59.5235 22.1755 60.9279L22.7112 60.9185L22.7262 61.7693L21.4229 61.792C20.8402 62.4748 20.5318 62.8712 20.5253 62.8794ZM102.68 59.6197L102.693 60.3693L103.269 60.3592L103.266 60.1594C104.37 61.1551 106.073 61.078 107.082 59.9813C108.097 58.8778 108.026 57.1599 106.922 56.1445L106.639 55.8833C104.399 53.8198 100.495 50.0638 95.253 46.2562V53.0891L95.2611 53.0955L95.0195 53.1001L95.0354 53.9509L96.2836 53.9274C99.0377 56.2006 101.204 58.252 102.68 59.6197ZM101.828 59.5335L101.842 60.3843L100.141 60.4142L100.126 59.5634L101.828 59.5335ZM99.2752 59.5784L99.2902 60.4291L97.5886 60.459L97.5737 59.6083L99.2752 59.5784ZM96.7229 59.6232L96.7379 60.474L95.0364 60.5039L95.0214 59.6531L96.7229 59.6232ZM94.1706 59.6681L94.1856 60.5189L92.4841 60.5488L92.4691 59.698L94.1706 59.6681ZM91.6184 59.7129L91.6333 60.5636L89.9318 60.5935L89.9168 59.7427L91.6184 59.7129ZM89.0661 59.7576L89.081 60.6083L87.3796 60.6382L87.3646 59.7874L89.0661 59.7576ZM86.5139 59.8023L86.5289 60.653L84.8274 60.6829L84.8125 59.8321L86.5139 59.8023ZM83.9618 59.847L83.9767 60.6977L82.2753 60.7276L82.2603 59.8768L83.9618 59.847ZM81.4097 59.8917L81.4246 60.7424L79.7232 60.7723L79.7082 59.9215L81.4097 59.8917ZM78.8575 59.9364L78.8725 60.7871L77.171 60.817L77.1561 59.9662L78.8575 59.9364ZM76.3054 59.9811L76.3204 60.8319L74.6189 60.8617L74.604 60.0109L76.3054 59.9811ZM73.7533 60.0258L73.7682 60.8765L72.0668 60.9064L72.0518 60.0556L73.7533 60.0258ZM71.2011 60.0705L71.2161 60.9212L69.5147 60.9511L69.4997 60.1003L71.2011 60.0705ZM68.649 60.1152L68.664 60.966L66.9625 60.9958L66.9476 60.145L68.649 60.1152ZM66.0969 60.1599L66.1118 61.0107L64.4104 61.0405L64.3954 60.1897L66.0969 60.1599ZM63.5448 60.2046L63.5597 61.0554L61.8583 61.0851L61.8433 60.2343L63.5448 60.2046ZM60.9926 60.2492L61.0076 61.1L59.3061 61.1297L59.2912 60.279L60.9926 60.2492ZM58.4405 60.2938L58.4554 61.1446L56.754 61.1743L56.739 60.3236L58.4405 60.2938ZM55.8884 60.3385L55.9033 61.1892L54.2019 61.219L54.1869 60.3682L55.8884 60.3385ZM53.3362 60.3831L53.3512 61.2338L51.6497 61.2636L51.6348 60.4128L53.3362 60.3831ZM50.7841 60.4277L50.7991 61.2785L49.0976 61.3082L49.0827 60.4574L50.7841 60.4277ZM48.232 60.4723L48.2469 61.3231L46.5455 61.3528L46.5305 60.5021L48.232 60.4723ZM45.6798 60.5169L45.6948 61.3677L43.9933 61.3974L43.9784 60.5467L45.6798 60.5169ZM43.1277 60.5616L43.1427 61.4123L41.4412 61.4421L41.4263 60.5913L43.1277 60.5616ZM40.5756 60.6062L40.5905 61.4569L38.8892 61.4867L38.8742 60.6359L40.5756 60.6062ZM38.0235 60.6508L38.0385 61.5016L36.3371 61.5313L36.3222 60.6805L38.0235 60.6508ZM35.4715 60.6954L35.4864 61.5462L33.7851 61.5759L33.7701 60.7252L35.4715 60.6954ZM32.9194 60.74L32.9344 61.5908L31.233 61.6205L31.2181 60.7698L32.9194 60.74ZM30.3674 60.7847L30.3823 61.6354L28.681 61.6652L28.666 60.8144L30.3674 60.7847ZM27.8153 60.8293L27.8303 61.68L26.1289 61.7098L26.114 60.859L27.8153 60.8293ZM25.2633 60.8739L25.2782 61.7247L23.5769 61.7544L23.5619 60.9036L25.2633 60.8739ZM94.1687 53.1161L94.1846 53.9669L92.4831 53.9989L92.4672 53.1481L94.1687 53.1161ZM91.6165 53.1641L91.6324 54.0149L89.931 54.0469L89.9151 53.1961L91.6165 53.1641ZM89.0644 53.2121L89.0803 54.0629L87.3788 54.0949L87.3629 53.2441L89.0644 53.2121ZM86.5122 53.2601L86.5282 54.1109L84.8267 54.1429L84.8108 53.2921L86.5122 53.2601ZM83.9601 53.3081L83.976 54.1589L82.2746 54.1909L82.2587 53.3401L83.9601 53.3081ZM81.408 53.3561L81.4239 54.2069L79.7225 54.2389L79.7065 53.3881L81.408 53.3561ZM78.8558 53.4041L78.8718 54.2549L77.1704 54.2869L77.1545 53.4361L78.8558 53.4041ZM76.3038 53.4521L76.3197 54.3029L74.6184 54.3349L74.6024 53.4841L76.3038 53.4521ZM73.7518 53.5001L73.7677 54.3509L72.0663 54.3829L72.0504 53.5321L73.7518 53.5001ZM71.1997 53.5481L71.2156 54.3989L69.5143 54.4309L69.4983 53.5801L71.1997 53.5481ZM68.6476 53.5961L68.6636 54.4469L66.9622 54.4789L66.9463 53.6281L68.6476 53.5961ZM66.0956 53.6441L66.1115 54.4949L64.4102 54.5269L64.3942 53.6761L66.0956 53.6441ZM63.5435 53.6921L63.5595 54.5429L61.8581 54.5749L61.8422 53.7241L63.5435 53.6921ZM60.9915 53.7401L61.0074 54.5909L59.3061 54.6229L59.2901 53.7721L60.9915 53.7401ZM58.4394 53.7881L58.4554 54.6388L56.754 54.6708L56.7381 53.8201L58.4394 53.7881ZM55.8874 53.8361L55.9033 54.6868L54.202 54.7188L54.186 53.8681L55.8874 53.8361ZM53.3353 53.8841L53.3513 54.7348L51.6499 54.7668L51.634 53.9161L53.3353 53.8841ZM50.7833 53.9321L50.7992 54.7828L49.0979 54.8148L49.0819 53.9641L50.7833 53.9321ZM48.2312 53.9801L48.2472 54.8308L46.5458 54.8628L46.5299 54.0121L48.2312 53.9801ZM45.6792 54.0281L45.6951 54.8788L43.9937 54.9108L43.9778 54.0601L45.6792 54.0281ZM43.1271 54.0761L43.1431 54.9268L41.4417 54.9588L41.4258 54.1081L43.1271 54.0761ZM40.5751 54.1241L40.591 54.9748L38.8897 55.0068L38.8737 54.1561L40.5751 54.1241ZM38.023 54.1721L38.039 55.0228L36.3376 55.0548L36.3217 54.2041L38.023 54.1721ZM35.471 54.2201L35.4869 55.0708L33.7855 55.1028L33.7696 54.2521L35.471 54.2201ZM32.9189 54.2681L32.9349 55.1188L31.2335 55.1508L31.2176 54.3001L32.9189 54.2681ZM31.8706 45.0311C38.9855 39.9834 48.1307 35.3462 58.4493 34.4533C72.064 33.2751 83.8135 38.5588 92.5322 44.3627V50.9971C84.3128 44.9409 72.5525 38.6937 58.917 39.8737C48.1261 40.8075 38.6891 46.3568 31.8706 51.7708V45.0311ZM21.9424 91.1792C20.6392 91.9246 18.9785 91.4725 18.233 90.1695C17.4876 88.8663 17.9397 87.2055 19.2428 86.4601C24.5637 83.4134 28.5892 80.2242 32.3366 77.255C40.0793 71.1208 46.7167 65.862 60.1259 64.309C75.5297 62.5252 88.2393 71.3955 96.5217 77.1759C99.0465 78.938 101.119 80.3848 102.51 80.9804C103.89 81.5673 104.532 83.1615 103.945 84.5409C103.358 85.9203 101.764 86.5628 100.385 85.9758C98.5127 85.1741 96.2159 83.571 93.4183 81.6186C85.8086 76.3076 74.1312 68.1576 60.7423 69.7083C48.848 71.0857 42.777 75.8956 35.6952 81.5064C31.7494 84.6327 27.5109 87.9908 21.9424 91.1792Z" fill="#2B2A29"/>
</svg>
