<svg width="120" height="120" viewBox="0 0 120 120" fill="none" xmlns="http://www.w3.org/2000/svg">
<path d="M60 120C93.1371 120 120 93.1371 120 60C120 26.8629 93.1371 0 60 0C26.8629 0 0 26.8629 0 60C0 93.1371 26.8629 120 60 120Z" fill="#D9DADA"/>
<path fill-rule="evenodd" clip-rule="evenodd" d="M38.9077 69.3122C34.4147 68.9923 31.4039 69.0061 29.2984 69.82C26.8867 70.7522 25.6627 72.7341 26.2164 74.8034C26.7702 76.8727 29.1018 79.0295 29.1018 81.3028C29.1018 83.5761 26.7702 85.9661 27.1782 87.569C27.5863 89.172 30.7339 89.9881 32.0746 91.5911C33.4153 93.194 32.9489 95.584 34.3187 95.9045C35.6886 96.2252 38.8945 94.4764 42.1005 94.2724C45.3065 94.0684 48.5125 95.409 50.7858 95.3507C53.0592 95.2925 54.3998 93.8353 57.7224 93.3398C61.045 92.8443 66.3494 93.3107 71.1292 93.0483C75.909 92.786 80.1643 91.7951 81.5632 90.6293C82.9622 89.4634 81.5049 88.1228 83.6617 87.161C85.8184 86.1992 91.5892 85.6163 93.3087 84.7419C95.0283 83.8675 92.6967 82.7018 91.2394 81.4485C89.7822 80.1952 89.1993 78.8546 88.3541 77.7471C87.5088 76.6396 86.4014 75.7652 84.5239 74.8034C82.852 73.9469 80.5695 73.0211 77.3521 72.4375L77.3525 74.1136C77.4225 74.8217 78.9792 75.5757 78.2699 77.6653C77.3882 80.2631 73.1632 81.5461 72.7181 81.8808L70.6062 82.5518C70.3536 82.667 70.5156 82.5854 70.405 82.6723L66.7769 83.4033C66.2051 83.4777 64.7769 83.5729 64.3966 83.8222C63.9713 83.751 63.486 83.8436 63.0493 83.8987L61.0454 84.0376L59.2201 84.1056L56.0676 84.0839L55.29 84.0471L53.0943 83.9003C52.6754 83.8453 52.2338 83.7733 51.8145 83.8287C51.4877 83.5928 49.9726 83.4898 49.4566 83.4302L45.7704 82.612C42.551 81.6667 39.6814 80.5112 38.1699 78.304L37.7499 77.5497C37.8036 76.8068 37.5866 76.3987 37.9198 75.6115C38.4143 74.4433 38.6768 74.7231 38.7817 74.2036C38.9064 74.0615 38.8487 74.1847 38.8967 73.9258L38.9021 71.3475C38.9021 70.6862 38.9043 70.0058 38.9077 69.3122Z" fill="#2B2A29"/>
<path fill-rule="evenodd" clip-rule="evenodd" d="M39.7011 76.1556C40.2664 76.5876 40.5642 76.93 41.505 77.2258C41.3044 74.209 41.4149 70.8673 41.4449 67.8025C41.4756 64.6678 41.5464 61.5229 41.576 58.3857L45.8855 59.8892C47.4885 60.2953 49.0761 60.6488 50.7948 60.8869L50.7932 79.5907C56.6991 79.9041 58.8698 80.3364 65.0046 79.6453C67.8826 79.3211 72.8633 78.4246 75.4071 76.9059C75.8343 76.6509 76.2112 76.3567 76.5549 76.1569C76.0466 78.2113 70.85 79.7033 68.8597 80.1319C65.4251 80.8718 61.8094 81.1936 58.1677 81.2013C54.5266 81.2089 50.8703 80.8753 47.4633 80.143C44.6728 79.5431 40.4969 78.2373 39.7011 76.1556ZM39.6216 54.0492C40.3098 54.5569 40.6993 54.7655 41.5541 55.2122L41.5804 35.8526C43.119 36.3801 43.5934 36.8064 45.8576 37.4237C47.4234 37.8507 49.1038 38.1602 50.7878 38.4186L50.7942 57.5335C57.5564 58.1287 64.7508 58.1853 71.3464 56.3822C73.5574 55.7777 74.7397 55.2569 76.5151 54.0475C75.8465 56.0713 71.5074 57.4818 68.807 58.0526C65.329 58.7878 61.7869 59.1211 58.0719 59.1258C54.3408 59.1307 50.8465 58.7742 47.3397 58.0499C45.7435 57.7202 44.2881 57.2545 42.8719 56.6773C41.6167 56.1656 40.1449 55.3036 39.6216 54.0492ZM57.1882 31.4693C58.386 31.3184 59.8287 31.4103 60.7952 31.9556C62.9437 33.1675 57.5961 34.4112 55.4378 33.1066C54.0025 32.2391 56.2092 31.5925 57.1882 31.4693ZM39.6938 31.3396C40.2171 31.6231 40.7121 32.0589 41.4077 32.391C48.3305 35.6971 60.9939 35.6957 68.3604 34.3371C69.9049 34.0523 71.372 33.6853 72.7882 33.2199C75.4384 32.3489 75.1199 32.1306 76.5589 31.3488C75.9586 33.4296 70.9079 34.8816 68.8531 35.3184C61.9929 36.7772 54.3345 36.7175 47.4723 35.3301C45.2866 34.8882 42.8172 34.1158 41.0687 32.9212C40.3754 32.4476 40.0333 32.0086 39.6938 31.3396ZM41.2607 29.0996C41.8039 28.8005 42.2238 28.4848 42.8711 28.1939C49.3301 25.2919 60.6995 25.2118 67.5053 26.4874C68.8615 26.7417 70.3507 27.0655 71.5774 27.491C72.9663 27.9729 73.9143 28.3898 74.9917 29.1C74.4911 28.9494 73.8251 28.617 73.2464 28.4114C65.6192 25.7016 52.4219 25.6593 44.8139 27.8381C43.5517 28.1996 41.5557 29.0217 41.2607 29.0996ZM37.7652 31.2366C37.7457 33.3114 38.8476 33.4103 38.909 34.2026L38.9051 40.9049C38.9051 41.2496 39.0458 51.1732 38.7982 51.542C38.7629 51.7252 38.8042 51.6159 38.6916 51.7762L38.1743 52.393C37.8944 53.2436 37.5337 53.7871 37.8975 54.8528C38.3528 56.1865 38.8915 55.9256 38.9101 56.7888C39.0059 61.2191 38.9022 66.7473 38.9022 71.3472L38.8969 73.9255C38.8489 74.1844 38.9065 74.0612 38.7819 74.2033C38.677 74.7227 38.4144 74.443 37.9199 75.6111C37.5868 76.3984 37.8037 76.8065 37.7501 77.5494L38.1701 78.3037C39.6815 80.5109 42.5512 81.6664 45.7705 82.6116L49.4567 83.4299C49.9728 83.4895 51.4879 83.5925 51.8146 83.8284C52.234 83.773 52.6755 83.845 53.0944 83.9L55.2902 84.0467L56.0677 84.0835L59.2202 84.1053L61.0455 84.0373L63.0494 83.8984C63.4861 83.8433 63.9715 83.7507 64.3967 83.8219C64.7771 83.5725 66.2052 83.4774 66.777 83.403L70.4052 82.6719C70.5157 82.5851 70.3537 82.6666 70.6063 82.5515L72.7182 81.8805C73.1633 81.5457 77.3883 80.2628 78.27 77.665C78.9793 75.5754 77.4227 74.8214 77.3526 74.1132L77.3485 56.7921C77.3702 55.8341 79.5091 54.6836 77.9379 52.2453C77.7005 51.8768 77.5084 51.7925 77.4481 51.5078C77.4351 51.4898 77.4223 51.4356 77.4194 51.4477L77.3502 34.5812C77.3399 33.3453 78.0136 33.6832 78.4062 32.2314C78.683 31.208 78.2658 30.1541 77.7787 29.5246C77.1586 28.7232 76.1969 28.1576 75.993 27.8385C75.6982 27.7976 75.8559 27.8348 75.5414 27.6514C75.4459 27.5957 75.3172 27.5158 75.1792 27.4363C74.9414 27.2991 74.6598 27.1723 74.4804 27.0366C73.825 26.8225 73.2106 26.5033 72.5266 26.2591C71.9503 26.0535 71.1214 25.8413 70.6135 25.6195L68.889 25.182C67.5095 24.9578 66.1878 24.6675 64.7238 24.4831L60.944 24.1623C60.8505 24.1546 60.7507 24.1447 60.6586 24.1287L60.3962 24.0564H55.928L52.8801 24.331C51.9328 24.4237 51.0307 24.5332 50.0853 24.6866C46.2751 25.3046 38.3718 27.0798 37.7652 31.2366Z" fill="#42ADE2"/>
<path fill-rule="evenodd" clip-rule="evenodd" d="M57.1875 31.4694C58.3853 31.3186 59.828 31.4104 60.7945 31.9557C62.943 33.1676 57.5954 34.4114 55.4371 33.1068C54.0017 32.2392 56.2085 31.5927 57.1875 31.4694ZM39.7004 76.1557C40.2657 76.5878 40.5635 76.9301 41.5043 77.226C41.3036 74.2092 41.4142 70.8675 41.4442 67.8026C41.4749 64.6679 41.5457 61.523 41.5753 58.3859L45.8848 59.8894C47.4878 60.2954 49.0754 60.649 50.7941 60.8871L50.7925 79.5909C56.6984 79.9043 58.8691 80.3366 65.0039 79.6455C67.8819 79.3212 72.8625 78.4248 75.4064 76.9061C75.8335 76.6511 76.2104 76.3569 76.5542 76.157C76.0459 78.2114 70.8493 79.7034 68.859 80.1321C65.4244 80.872 61.8086 81.1937 58.167 81.2015C54.5259 81.2091 50.8696 80.8755 47.4626 80.1431C44.672 79.5433 40.4962 78.2375 39.7004 76.1557ZM39.6208 54.0493C40.3091 54.557 40.6986 54.7656 41.5534 55.2123L41.5796 35.8528C43.1183 36.3802 43.5927 36.8066 45.8569 37.4239C47.4227 37.8509 49.1031 38.1604 50.7871 38.4187L50.7935 57.5336C57.5557 58.1288 64.7501 58.1854 71.3457 56.3824C73.5567 55.7778 74.739 55.257 76.5144 54.0477C75.8458 56.0715 71.5066 57.4819 68.8063 58.0528C65.3283 58.7879 61.7862 59.1212 58.0712 59.126C54.3401 59.1309 50.8458 58.7743 47.339 58.05C45.7428 57.7203 44.2873 57.2547 42.8712 56.6774C41.616 56.1658 40.1442 55.3037 39.6208 54.0493ZM39.6931 31.3397C40.2164 31.6233 40.7114 32.059 41.407 32.3912C48.3298 35.6973 60.9932 35.6958 68.3597 34.3373C69.9042 34.0524 71.3713 33.6854 72.7875 33.2201C75.4377 32.349 75.1192 32.1308 76.5582 31.349C75.9579 33.4297 70.9072 34.8817 68.8524 35.3186C61.9922 36.7773 54.3338 36.7177 47.4716 35.3303C45.2859 34.8883 42.8165 34.1159 41.068 32.9214C40.3747 32.4478 40.0326 32.0087 39.6931 31.3397ZM41.26 29.0997C41.8032 28.8006 42.2231 28.4849 42.8704 28.194C49.3294 25.2921 60.6988 25.2119 67.5046 26.4876C68.8608 26.7418 70.35 27.0657 71.5767 27.4912C72.9656 27.9731 73.9136 28.39 74.991 29.1001C74.4904 28.9495 73.8244 28.6172 73.2457 28.4116C65.6185 25.7018 52.4212 25.6594 44.8131 27.8383C43.551 28.1997 41.555 29.0219 41.26 29.0997Z" fill="#FEFEFE"/>
</svg>
