<svg width="120" height="120" viewBox="0 0 120 120" fill="none" xmlns="http://www.w3.org/2000/svg">
<path d="M60 120C93.1371 120 120 93.1371 120 60C120 26.8629 93.1371 0 60 0C26.8629 0 0 26.8629 0 60C0 93.1371 26.8629 120 60 120Z" fill="#D9DADA"/>
<path d="M92.6875 76.5403C91.8356 74.5729 90.857 72.4379 88.6014 72.4379H86.5585C88.8139 72.4379 90.6445 70.6013 90.6445 68.3356L90.6444 33.4575C90.6445 33.4548 90.6445 33.4517 90.6445 33.4493C90.6445 31.1915 88.816 29.3591 86.5583 29.3551H33.4404C31.1849 29.3551 29.3543 31.1918 29.3543 33.4575L29.3544 68.3356C29.3544 70.6013 31.1849 72.4379 33.4405 72.4379H31.3974C29.1419 72.4379 27.9917 74.4891 27.3114 76.5403L23.2253 86.5408C23.2254 88.8085 25.0559 90.6452 27.3114 90.6452H92.6875C94.9429 90.6452 96.7735 88.8085 96.7735 86.5428L92.6875 76.5403Z" fill="#2B2A29"/>
<path d="M86.559 66.2823C86.559 67.4161 85.6458 68.3334 84.516 68.3334H35.4839C34.3562 68.3334 33.4409 67.4161 33.4409 66.2823V35.5106C33.4409 34.3767 34.3562 33.4594 35.4839 33.4594L84.516 33.4594C85.6458 33.4594 86.559 34.3787 86.559 35.5105V66.2823Z" fill="#FEFEFE"/>
<path d="M90.4528 80.516L88.9001 76.0724C88.4119 75.1326 87.6028 74.3624 86.473 74.3624H33.6655C32.5377 74.3624 31.8146 75.196 31.3038 76.479L29.8982 80.518C29.4508 81.7356 30.8134 82.5691 31.9412 82.5691H47.423C47.423 82.5691 49.3374 82.4731 49.6765 81.327C50.0687 80.0032 50.5243 78.0092 50.6224 77.6578C50.7736 77.1184 51.4151 76.573 52.3712 76.573L69.8961 76.5729C70.9175 76.5729 71.4202 77.0897 71.553 77.7292C71.6387 78.146 72.1904 80.0603 72.4478 81.3699C72.6745 82.5365 74.9423 82.5671 74.9423 82.5671H88.4138C89.5395 82.5671 90.9002 81.6049 90.4528 80.516ZM68.9379 84.747H53.0413C52.2752 84.747 51.9422 84.0462 52.0525 83.368C52.1628 82.6917 52.7859 79.7048 52.835 79.3575C52.8819 79.0082 53.3948 78.5914 53.9055 78.5914H68.2372C68.8439 78.5914 69.2383 78.9244 69.3609 79.5904C69.4813 80.2585 69.9778 82.943 70.0167 83.5559C70.0555 84.1708 69.6714 84.747 68.9379 84.747Z" fill="#42ADE2"/>
</svg>
