<svg width="120" height="120" viewBox="0 0 120 120" fill="none" xmlns="http://www.w3.org/2000/svg">
<path d="M60 120C93.1371 120 120 93.1371 120 60C120 26.8629 93.1371 0 60 0C26.8629 0 0 26.8629 0 60C0 93.1371 26.8629 120 60 120Z" fill="#D9DADA"/>
<path d="M94.5926 96.2768C95.3758 96.2768 96.0107 96.9118 96.0107 97.695C96.0107 98.4781 95.3758 99.1131 94.5926 99.1131H69.5016V100.759C69.5016 101.542 68.8666 102.177 68.0835 102.177C67.3003 102.177 66.6653 101.542 66.6653 100.759V19.2419C66.6653 18.4587 67.3003 17.8237 68.0835 17.8237C68.8666 17.8237 69.5016 18.4587 69.5016 19.2419V20.8875H94.5926C95.3758 20.8875 96.0107 21.5225 96.0107 22.3056C96.0107 23.0888 95.3758 23.7238 94.5926 23.7238H69.5016V46.0173H106.274C107.058 46.0173 107.693 46.6523 107.693 47.4354C107.693 48.2186 107.058 48.8535 106.274 48.8535H69.5016V71.1471H106.274C107.058 71.1471 107.693 71.782 107.693 72.5652C107.693 73.3483 107.058 73.9833 106.274 73.9833H69.5016V96.2768H94.5926ZM32.6596 77.0093C31.9608 77.0176 31.2685 77.1354 30.6135 77.3516L31.2521 78.8597L30.6638 79.1101L30.0166 77.5804C29.3065 77.8914 28.6554 78.3221 28.1062 78.8577L29.0839 79.7818L28.6452 80.2471L27.6729 79.3294C27.2297 79.8658 26.8798 80.4838 26.6557 81.1714L27.9628 81.4164L27.844 82.0452L26.4919 81.7917C26.4809 81.8465 26.4706 81.9011 26.4609 81.9564C26.3365 82.6762 26.3709 83.4114 26.5434 84.1055L27.829 83.7074L28.0184 84.3184L26.7359 84.7163C27.0335 85.4974 27.5123 86.1997 28.1392 86.7337L28.8111 85.7998L29.3298 86.1731L28.6547 87.1135C29.1205 87.4061 29.6471 87.6139 30.2251 87.7113C30.3026 87.7245 30.3804 87.7352 30.4583 87.7435L30.4904 86.646L31.1301 86.6641L31.0981 87.7583C31.7076 87.7238 32.3027 87.5499 32.8256 87.2589L32.2683 86.4021L32.8053 86.0522L33.3572 86.9016C33.989 86.3939 34.4475 85.6834 34.5853 84.8254C34.6295 84.5494 34.6331 84.27 34.6003 83.9964L33.6995 84.2038L33.5551 83.5803L34.457 83.3727C34.2498 82.7646 33.8563 82.2305 33.3208 81.8956L32.9582 82.6689L32.3795 82.3971L32.7378 81.6313C32.633 81.5999 32.5243 81.5748 32.4126 81.5575C31.8902 81.4763 31.3512 81.5944 30.9161 81.8624L31.2971 82.4078L30.7718 82.7738L30.4272 82.2807C30.2231 82.5252 30.0808 82.8224 30.0315 83.1599C29.9192 83.9292 30.4006 84.7512 31.1782 84.8597C31.7059 84.9332 32.2674 84.6006 32.3356 84.0712L32.97 84.1526C32.8513 85.0724 31.9406 85.6116 31.0894 85.4929C29.9223 85.3302 29.2388 84.1603 29.3982 83.068C29.6155 81.5814 31.1116 80.7084 32.5101 80.9255C34.3391 81.2092 35.4319 83.0201 35.2356 84.7613C35.5059 85.0046 35.9082 85.1437 36.3931 85.1753C36.9149 85.2091 37.5165 85.1164 38.0765 84.9356C38.6368 84.755 39.1552 84.4853 39.5133 84.1901C39.863 83.9016 40.0329 83.6059 40.0374 83.3749C39.9558 82.9656 39.8423 82.565 39.7005 82.1759L37.792 83.116L37.5097 82.5416L39.4576 81.5821C39.0471 80.6814 38.4773 79.8613 37.7835 79.1711L36.334 80.6504L35.8774 80.2023L37.3128 78.7389C36.5233 78.0718 35.6037 77.5641 34.5925 77.2746L34.1519 79.1272L33.5294 78.9795L33.9711 77.1259C33.9486 77.1215 33.9264 77.117 33.9038 77.113C33.4906 77.0387 33.0743 77.0043 32.6596 77.0093ZM40.2695 84.3439C40.1658 84.4639 40.048 84.5773 39.9197 84.6831C39.4783 85.047 38.899 85.3434 38.2734 85.5454C37.6477 85.7473 36.9771 85.8544 36.3512 85.8139C36.0383 85.7935 35.7337 85.7343 35.4547 85.6266C35.4509 85.625 35.4469 85.6239 35.443 85.6223C35.4412 85.6215 35.4394 85.621 35.4376 85.6202C35.2077 85.5195 34.9997 85.385 34.768 85.2244C34.7057 85.2552 34.6696 85.2954 34.6365 85.3559C34.5867 85.4473 34.556 85.602 34.5659 85.8008C34.5793 86.0706 34.6662 86.4081 34.7894 86.74C34.9546 87.2403 35.2421 87.6909 35.6569 88.0868C35.709 89.0015 35.3216 89.6851 34.9498 89.9041C34.7504 90.0218 34.5833 90.033 34.3924 89.9266C34.2019 89.8201 33.9721 89.553 33.8009 89.0325L33.1935 89.2313C33.3965 89.8495 33.6959 90.2705 34.0802 90.4848C34.4644 90.6994 34.9176 90.6653 35.2739 90.455C35.6668 90.2234 35.9759 89.8111 36.1489 89.2837C36.1801 89.7504 36.0764 90.2326 35.8676 90.6862C35.4408 91.6132 34.5703 92.3678 33.5849 92.5035L33.6715 93.1367C34.9173 92.9653 35.9399 92.058 36.4484 90.9536C36.7512 90.2961 36.8704 89.5498 36.7287 88.8431C36.8585 88.9121 36.9942 88.9784 37.1363 89.042C37.3469 89.2741 37.4271 89.4876 37.4518 89.7094C37.4862 90.0185 37.3906 90.3766 37.2508 90.7845C37.1109 91.1925 36.9318 91.6434 36.8656 92.1474C36.8203 92.4934 36.8353 92.8681 36.9567 93.2512H37.639C37.4769 92.8942 37.4557 92.5687 37.4999 92.2308C37.5525 91.8301 37.7102 91.4181 37.8562 90.9921C38.0022 90.566 38.1409 90.1198 38.0872 89.639C38.0777 89.553 38.0606 89.4668 38.037 89.3812C38.2491 89.4483 38.4719 89.5107 38.7044 89.5684C38.6873 90.7563 39.0674 91.9906 39.8222 93.2513H40.5763C39.7011 91.9095 39.2987 90.6626 39.344 89.4839C39.4189 89.3853 39.4902 89.2872 39.558 89.1887C40.0132 90.5923 41.1043 91.8929 42.5906 93.1101V92.2703C41.21 91.0577 40.3059 89.8029 40.0426 88.5265C40.3111 89.0106 40.6545 89.3745 41.031 89.6368C41.5336 89.987 42.0853 90.1575 42.5905 90.2305V89.5823C42.1891 89.5135 41.7701 89.3717 41.3968 89.1116C41.0582 88.8759 40.7518 88.5441 40.5197 88.0602C40.7301 88.1945 40.9569 88.2874 41.1914 88.3382C41.6519 88.4383 42.1297 88.3919 42.5906 88.2549V87.583C42.1498 87.7412 41.7066 87.796 41.3273 87.7136C41.0061 87.6437 40.7212 87.487 40.4822 87.1829C40.7058 86.2287 40.6227 85.2828 40.2695 84.344V84.3439ZM39.3644 85.8534C39.6939 85.8534 39.9548 86.1144 39.9548 86.4438C39.9548 86.7733 39.6939 87.0332 39.3644 87.0332C39.035 87.0332 38.775 86.7733 38.775 86.4438C38.775 86.1143 39.035 85.8532 39.3644 85.8532V85.8534ZM36.7052 86.6256C37.0348 86.6256 37.2947 86.8867 37.2947 87.2161C37.2946 87.5455 37.0348 87.8055 36.7052 87.8055C36.3757 87.8055 36.1149 87.5455 36.1149 87.2161C36.1149 86.8867 36.3757 86.6256 36.7052 86.6256ZM31.0467 26.5017C30.9458 26.5021 30.8452 26.5048 30.7441 26.5104C26.5482 26.7405 23.618 30.6786 23.8519 34.7186C24.1534 39.9182 29.0237 43.5411 34.0246 43.2196H34.0257C36.4545 43.0631 38.7756 42.0417 40.5777 40.4179L40.7308 40.2804L40.6735 40.0823L39.6226 36.4694L39.5797 36.3219L39.4399 36.2604L36.549 34.9807C37.063 34.1193 37.3378 33.1032 37.2885 32.0732C37.1371 28.9047 34.3613 26.6325 31.3493 26.5073C31.249 26.503 31.1477 26.5013 31.0467 26.5017ZM31.0512 27.1598C31.0924 27.1595 31.1342 27.1602 31.1754 27.1607L30.9323 28.7365L30.9225 28.7983L30.9279 28.8202C29.9866 28.8944 29.042 29.2254 28.2559 29.8217L27.7498 28.1568C28.6319 27.5873 29.6576 27.2289 30.7803 27.1674C30.8709 27.1624 30.9611 27.1602 31.0512 27.1596V27.1598ZM31.8346 27.2091C33.1824 27.3881 34.4405 28.041 35.3307 29.0183L34.1334 29.7205L34.1203 29.7282C33.4364 29.1682 32.5401 28.8587 31.5993 28.8104L31.5915 28.7774L31.8347 27.2091H31.8346ZM27.1864 28.565L27.6915 30.2289L27.7135 30.3025C27.1979 30.838 26.7903 31.5192 26.5568 32.3494C26.5331 32.4339 26.5116 32.518 26.4908 32.6013L25.0656 31.4316C25.5295 30.3113 26.2586 29.3135 27.1863 28.565H27.1864ZM35.7478 29.5377C36.2622 30.2713 36.5854 31.1422 36.6315 32.1041C36.6324 32.1223 36.6331 32.1407 36.6337 32.159L35.3715 32.2602C35.3672 32.1872 35.3621 32.1137 35.3539 32.0401C35.2717 31.307 35.001 30.695 34.6023 30.208L35.7478 29.5377ZM31.6587 31.1202C31.7411 31.1216 31.8229 31.1291 31.9041 31.1411L31.8524 32.5243C31.7041 32.5451 31.5586 32.5903 31.422 32.6619L29.8825 32.0347C30.2792 31.5061 30.8738 31.1431 31.5706 31.1213C31.6 31.1204 31.6293 31.1197 31.6587 31.1202ZM32.5555 31.3612C33.0618 31.6407 33.43 32.1417 33.4435 32.7467C33.4486 32.9733 33.3928 33.2048 33.2949 33.4068C33.2432 33.2565 33.1636 33.1134 33.0551 32.9843C32.8986 32.7986 32.7014 32.6659 32.4884 32.5892L32.5092 32.5904L32.5555 31.3612ZM24.8281 32.0875L26.3434 33.3332C26.2061 34.2405 26.253 35.0639 26.4481 35.7971L24.6114 35.5661C24.5614 35.2766 24.5265 34.9815 24.509 34.6801C24.4578 33.7956 24.5721 32.9161 24.8281 32.0875ZM29.5567 32.6113L30.896 33.1594C30.729 33.4393 30.6728 33.7701 30.7319 34.0858L29.7163 34.9707C29.5043 34.5913 29.3755 34.1616 29.3587 33.6964C29.3452 33.3219 29.417 32.9506 29.5567 32.6113ZM36.6073 32.8204C36.4892 33.841 36.0217 34.8023 35.3132 35.5044L34.5418 34.7329C35.0126 34.2656 35.2831 33.6265 35.3582 32.9215L36.6073 32.8203V32.8204ZM31.0082 34.7176C31.2722 35.1136 31.7117 35.3819 32.1747 35.4758L32.2727 36.6159C31.4336 36.522 30.6462 36.1187 30.1015 35.5088L31.0082 34.7176ZM34.0113 35.1335L34.808 35.9303C34.2687 36.3149 33.6332 36.5651 32.9328 36.6224L32.8371 35.4955C33.2896 35.449 33.6804 35.3218 34.0113 35.1335ZM24.7599 36.2482L26.6868 36.4904C27.0349 37.3048 27.5804 37.9855 28.2571 38.5241L26.3578 39.313C25.6215 38.4281 25.0652 37.394 24.7599 36.2482ZM39.0161 36.7918L39.0326 36.7996L39.9801 40.0591C38.9133 40.9831 37.6649 41.6889 36.3288 42.1158L36.6315 39.0511L36.637 38.9961C37.5592 38.4751 38.3819 37.7443 39.0161 36.7918ZM28.8997 38.9707C29.8236 39.5279 30.9168 39.8643 32.0546 39.9623L30.5053 42.1104C29.1095 41.6484 27.8358 40.8637 26.8243 39.8314L28.8997 38.9707ZM35.9414 39.3416L35.6477 42.3074C35.1022 42.4399 34.5453 42.5264 33.9827 42.5626C33.0303 42.624 32.0833 42.5319 31.1765 42.3052L32.7843 40.0745L32.8449 39.9909C33.8946 39.9796 34.9584 39.7679 35.9414 39.3416ZM50.4988 19.2419C50.4988 18.4587 51.1338 17.8237 51.9169 17.8237C52.7001 17.8237 53.3351 18.4587 53.3351 19.2419V100.759C53.3351 101.542 52.7001 102.177 51.9169 102.177C51.1338 102.177 50.4988 101.542 50.4988 100.759V99.1131H25.4078C24.6246 99.1131 23.9897 98.4781 23.9897 97.695C23.9897 96.9118 24.6246 96.2768 25.4078 96.2768H50.4988V73.9833H13.726C12.9428 73.9833 12.3079 73.3483 12.3079 72.5652C12.3079 71.782 12.9428 71.1471 13.726 71.1471H50.4988V48.8535H13.726C12.9428 48.8535 12.3079 48.2186 12.3079 47.4354C12.3079 46.6523 12.9428 46.0173 13.726 46.0173H50.4988V23.7238H25.4078C24.6246 23.7238 23.9897 23.0888 23.9897 22.3056C23.9897 21.5225 24.6246 20.8875 25.4078 20.8875H50.4988V19.2419Z" fill="#2B2A29"/>
<path fill-rule="evenodd" clip-rule="evenodd" d="M69.5013 48.8728L83.0701 50.5233L69.5013 52.1737V48.8728ZM50.4985 67.8263L36.9297 69.4768L50.4985 71.1272V67.8263ZM50.4985 63.0879L36.9297 64.7384L50.4985 66.3888V63.0879ZM50.4985 58.3496L36.9297 60L50.4985 61.6504V58.3496ZM50.4985 53.6112L36.9297 55.2617L50.4985 56.912V53.6112ZM50.4985 48.8728L36.9297 50.5233L50.4985 52.1737V48.8728ZM69.5013 67.8263L83.0701 69.4768L69.5013 71.1272V67.8263ZM69.5013 63.0879L83.0701 64.7384L69.5013 66.3888V63.0879ZM69.5013 58.3496L83.0701 60L69.5013 61.6504V58.3496ZM69.5013 53.6112L83.0701 55.2617L69.5013 56.912V53.6112Z" fill="#42ADE2"/>
</svg>
