<svg width="120" height="120" viewBox="0 0 120 120" fill="none" xmlns="http://www.w3.org/2000/svg">
<path d="M60 120C93.1371 120 120 93.1371 120 60C120 26.8629 93.1371 0 60 0C26.8629 0 0 26.8629 0 60C0 93.1371 26.8629 120 60 120Z" fill="#D9DADA"/>
<path fill-rule="evenodd" clip-rule="evenodd" d="M59.474 76.3422C59.1832 76.5411 59.4408 76.9906 59.7647 76.8286C59.8543 76.7748 59.944 76.7097 60.0317 76.6516C60.3224 76.4527 60.0649 76.0032 59.741 76.1652C59.6515 76.2189 59.5612 76.2838 59.474 76.3422ZM84.7169 61.2124C84.9191 61.1114 84.9311 60.8321 84.7386 60.7145C84.6561 60.664 84.5548 60.6614 84.468 60.7027L84.2464 60.8108C84.1695 60.8493 84.1203 60.9111 84.0968 60.9932C84.0375 61.2304 84.2756 61.4252 84.4958 61.3204L84.7169 61.2124ZM82.9501 62.0537C83.2152 61.9401 83.1514 61.5263 82.8423 61.5116C82.794 61.5116 82.7612 61.5176 82.717 61.5366C82.5457 61.6135 82.3745 61.6892 82.2022 61.7639C82.1105 61.8031 82.0476 61.8875 82.0336 61.9854C82.0037 62.2048 82.2245 62.3715 82.427 62.2847C82.6021 62.2088 82.7761 62.1319 82.9501 62.0537ZM80.818 62.9062C81.1046 62.815 81.0659 62.3695 80.7314 62.3536C80.6966 62.3536 80.6696 62.3581 80.6369 62.3685C80.4603 62.4278 80.2816 62.4802 80.1056 62.5389C79.7706 62.6455 79.8846 63.138 80.2284 63.0911C80.2421 63.0887 80.2556 63.0863 80.269 63.0821C80.453 63.026 80.6356 62.9675 80.818 62.9062ZM78.588 63.4955C78.6558 63.4832 78.7092 63.4488 78.7533 63.3984C78.9221 63.1908 78.744 62.8906 78.483 62.938C78.2999 62.9725 78.1178 63.0025 77.9339 63.0317C77.6466 63.0691 77.5933 63.4932 77.9045 63.5866C77.9454 63.5963 77.9763 63.598 78.0186 63.5925C78.2091 63.5636 78.3987 63.5312 78.588 63.4955ZM76.2908 63.7506C76.4437 63.7439 76.5594 63.628 76.5661 63.4751C76.5733 63.3152 76.434 63.1765 76.2743 63.1834C76.0904 63.1875 75.9034 63.1931 75.7196 63.1879C75.3834 63.1879 75.3157 63.6679 75.6609 63.7501C75.6771 63.753 75.6943 63.7552 75.7111 63.7552C75.9036 63.76 76.0983 63.7549 76.2908 63.7506ZM73.9762 63.6098C74.2782 63.6623 74.4508 63.2357 74.1406 63.0724C74.1152 63.061 74.0928 63.0543 74.0656 63.0496C73.8859 63.0214 73.7001 62.9891 73.5227 62.9493C73.2172 62.8799 73.0349 63.3065 73.3267 63.4754C73.3529 63.4892 73.3752 63.4975 73.4034 63.5039C73.5901 63.5461 73.7869 63.5801 73.9762 63.6098ZM71.7302 63.0013C71.9667 63.0914 72.1908 62.8633 72.0963 62.6271C72.063 62.5567 72.0146 62.5026 71.94 62.4742C71.771 62.4071 71.5983 62.3349 71.4344 62.2565C71.1535 62.1228 70.8747 62.49 71.1306 62.7299C71.1505 62.7462 71.1697 62.7589 71.1937 62.7703C71.3707 62.8524 71.5489 62.9293 71.7302 63.0013ZM61.1256 75.2302C60.8591 75.4125 61.0558 75.8401 61.3843 75.7306C61.406 75.7219 61.4251 75.7126 61.4446 75.6993C61.6015 75.5929 61.7583 75.4857 61.9143 75.3779C62.0061 75.3151 62.053 75.2017 62.0321 75.092C61.9937 74.8905 61.7619 74.7948 61.5923 74.9108C61.4367 75.0172 61.2816 75.1244 61.1256 75.2302ZM62.9785 73.9348C62.8932 73.9964 62.853 74.0936 62.8629 74.1979C62.8941 74.4158 63.129 74.5191 63.311 74.3945C63.4652 74.2833 63.6183 74.1705 63.7714 74.0578C64.0502 73.841 63.7779 73.4101 63.4551 73.5876C63.2957 73.6952 63.1357 73.8214 62.9785 73.9348ZM64.7726 72.5705C64.5391 72.7522 64.7192 73.1524 65.039 73.0611C65.0744 73.0487 65.0993 73.0352 65.1289 73.0121C65.2774 72.8923 65.4249 72.7715 65.5712 72.6493C65.6256 72.6013 65.651 72.5569 65.6675 72.4872C65.7199 72.2255 65.4123 72.0431 65.2075 72.2138C65.0641 72.3344 64.9185 72.4528 64.7726 72.5705ZM66.4663 71.0964C66.2135 71.3492 66.5459 71.7355 66.8325 71.5285C66.979 71.4038 67.1308 71.2438 67.2687 71.1069C67.4926 70.883 67.2333 70.5065 66.935 70.6556C66.9089 70.6708 66.8894 70.6839 66.8679 70.7054C66.7358 70.8375 66.6016 70.9676 66.4663 71.0964ZM68.0073 69.4742C67.8141 69.6931 68.0597 70.0424 68.3427 69.915C68.3831 69.8959 68.411 69.8739 68.4403 69.8407C68.5644 69.6941 68.6866 69.5466 68.8063 69.3965C69.0153 69.1279 68.666 68.7851 68.4003 69.0039C68.3869 69.0157 68.374 69.0283 68.3628 69.0427C68.2459 69.1883 68.128 69.3317 68.0073 69.4742ZM69.3303 67.6842C69.1786 67.9245 69.4427 68.2222 69.71 68.0815C69.7544 68.0544 69.7835 68.0288 69.8119 67.984C69.9143 67.8189 70.0131 67.6525 70.1071 67.4825C70.2638 67.1978 69.8914 66.9117 69.6553 67.1478C69.6377 67.1666 69.6235 67.185 69.6108 67.2081C69.521 67.3694 69.4276 67.5273 69.3303 67.6842ZM70.2487 65.7078C70.1607 66.0306 70.6199 66.2213 70.7801 65.9009C70.7867 65.8863 70.7919 65.872 70.7961 65.8568C70.8465 65.6735 70.8996 65.4538 70.9205 65.2654C70.9361 65.1461 70.8763 65.0318 70.7715 64.9766C70.5971 64.8848 70.3837 64.9959 70.3584 65.1898L70.3585 65.1886C70.3331 65.3649 70.2959 65.536 70.2487 65.7078ZM70.2232 63.6333C70.323 63.9468 70.8072 63.8685 70.7746 63.5095C70.7722 63.4927 70.7686 63.4767 70.7635 63.4604C70.7044 63.2717 70.6286 63.0795 70.5458 62.9C70.4029 62.6 69.9491 62.7396 70.0105 63.0772C70.0158 63.0995 70.0212 63.1154 70.0303 63.1367C70.1031 63.2992 70.17 63.4631 70.2232 63.6333ZM32.1879 37.8519L32.5828 37.973L33.0475 38.1153L33.0777 38.1246L33.3743 38.2154L33.5122 38.2577L33.6709 38.3064L33.9674 38.3972L33.9769 38.4001L34.264 38.4881L34.4415 38.5425L34.5606 38.579L34.8572 38.6699L34.9062 38.6849L35.3709 38.8273L35.4504 38.8517L35.747 38.9425L35.8356 38.9697L36.0435 39.0335L36.3003 39.1121L36.3401 39.1243L36.6368 39.2152L36.7649 39.2545L36.9334 39.3061L37.2296 39.3968L37.23 39.3969L37.5266 39.4878L37.6943 39.5392L37.8231 39.5787L38.1197 39.6696L38.159 39.6816L38.4163 39.7604L38.6236 39.8239L38.7129 39.8513L38.7621 39.8664L39.0883 39.9662L39.3061 40.033L39.553 40.1086L39.6027 40.1239L39.8993 40.2147L40.0177 40.251L40.1959 40.3056L40.4824 40.3933L40.4925 40.3964L40.7891 40.4873L40.9471 40.5356L41.0857 40.5781L41.3823 40.669L41.4118 40.678L41.6789 40.7598L41.8764 40.8203L41.9755 40.8507L42.2721 40.9415L42.3411 40.9626L42.8058 41.1049L42.8653 41.1232L43.1619 41.214L43.2705 41.2472L43.7352 41.3895L43.7552 41.3956L44.0518 41.4864L44.1999 41.5317L44.3483 41.5772L44.645 41.6681L44.6646 41.674L44.9416 41.7589L45.1293 41.8163L45.2382 41.8496L45.5348 41.9405L45.594 41.9586L45.8314 42.0312L46.0587 42.1008L46.1281 42.122L46.4247 42.2128L46.5234 42.243L46.7213 42.3036L46.9882 42.3852L47.0179 42.3944L47.3145 42.4852L47.4529 42.5275L47.6112 42.5759L47.9078 42.6667L47.9176 42.6697L48.2044 42.7575L48.3824 42.8119L48.501 42.8482L48.7977 42.9389L48.847 42.954L49.0943 43.0297L49.3118 43.0962L49.3909 43.1204L49.6876 43.2112L49.7765 43.2383L49.9842 43.3019L50.2413 43.3805L50.2809 43.3926L50.5775 43.4833L50.706 43.5226L50.8741 43.5741L51.1708 43.6648V49.4189L50.8443 49.5422C50.4729 49.9644 49.4699 50.0591 48.8372 50.2884C48.8692 50.3897 48.8729 50.4999 48.9062 50.6084C48.9414 50.7228 48.9996 50.774 49.0415 50.9051L49.3455 51.0147C49.5604 51.1551 49.8314 51.3044 50.1086 51.4425C50.132 51.4618 50.1509 51.4782 50.1632 51.4906C50.1984 51.4988 50.2316 51.5081 50.2632 51.5181C50.3669 51.5679 50.47 51.6154 50.5703 51.66C50.7488 51.7654 50.9043 51.883 51.1708 51.9426V75.2573C50.9444 75.1292 50.7517 75.0148 50.5061 74.8824C50.3589 74.5685 50.1914 74.3816 49.9979 74.136C49.8193 73.9091 49.6923 73.6088 49.5711 73.305C49.4479 72.996 49.3233 72.7157 49.2094 72.4102C49.0555 71.9976 49.0053 71.9287 48.9903 71.4015L48.5424 71.2483C48.3116 71.6768 48.6032 72.4095 47.6002 74.3715C47.2498 75.0572 47.3629 74.6564 47.2111 75.3022C47.1024 75.5264 46.9383 75.679 46.8677 75.9391C47.1113 75.9407 47.473 75.8627 47.7353 75.8324C48.4493 75.7499 48.9055 75.7593 49.625 75.7746C49.8976 75.7803 50.0824 75.8036 50.2948 75.9707C50.3477 76.0124 50.3091 75.9787 50.3473 76.0285C50.5801 75.9425 50.6721 75.8635 50.9698 75.9224C51.0406 75.9364 51.1066 75.9535 51.1708 75.9715V103.233C50.8357 103.265 50.5579 103.298 50.4732 103.33C50.3988 103.358 50.4205 103.367 50.3658 103.392L50.2735 103.417C50.271 103.418 50.2624 103.421 50.2573 103.424L50.37 103.736C50.4984 103.912 50.6373 104.136 50.7769 104.261C50.9134 104.383 51.0211 104.432 51.1708 104.454V105.951L46.6344 102.613C46.8324 102.529 47.0135 102.456 47.1318 102.425C47.0886 102.226 46.8786 101.858 46.7268 101.719L45.5275 101.748L45.5314 101.801L36.1813 94.9219L36.6111 94.8625L37.684 94.7942L37.7722 94.6509L37.618 94.2399C37.1216 94.2481 36.6946 93.853 36.4233 93.6155C36.2403 93.4553 36.0985 93.3442 35.9348 93.1607C35.799 93.0085 35.6628 92.8282 35.5202 92.6775C35.3917 92.6216 35.1683 92.4783 35.0836 92.4038C34.9382 92.2761 34.868 92.1735 34.7513 92.0461C34.7569 92.5648 34.8825 93.1199 34.8869 93.6456C34.8878 93.7475 34.8637 93.8314 34.8276 93.9258L17.3198 81.0438V80.8124C17.7507 80.74 17.9384 80.5622 18.3336 80.8726C18.5241 81.0223 18.6621 80.9708 18.8571 80.8575C19.1601 80.6813 19.0093 80.6688 19.3519 80.7638L19.1518 80.0688C19.5102 80.2355 19.6603 80.3013 20.0192 80.3157C19.9279 80.0945 19.7183 79.9026 19.5886 79.642C19.8876 79.1994 19.9169 79.5285 19.8888 78.804C19.8812 78.6821 19.9044 78.8088 19.8418 78.7627C19.5812 78.8525 19.2217 78.9932 18.9002 78.9731C17.8081 78.9048 17.8646 78.7894 17.8289 79.4312C17.8148 79.6831 17.8446 79.7408 17.6398 79.818L17.3198 80.5905V71.1277L18.8255 71.1707L20.8854 71.5012C21.9502 71.5867 22.5764 71.1286 23.1862 70.6247C23.3337 70.5028 23.3696 70.4019 23.4843 70.2894C23.7035 70.0746 23.9322 69.8094 23.9885 69.4798C23.9788 69.4732 23.9649 69.4519 23.959 69.4605L23.7677 69.3844C23.6983 69.3641 23.6247 69.3482 23.5486 69.3245C23.1338 69.1948 23.0876 69.1927 22.7305 68.964C22.5707 68.8617 22.5634 68.8194 22.4467 68.6617L22.4168 68.3659C22.2766 68.2721 22.1696 68.141 22.0262 68.0276C21.4515 67.5735 21.3201 67.3047 21.2693 66.6496C21.2158 65.9572 21.092 66.1282 20.6387 65.8565C20.3592 65.689 20.3734 65.1684 20.1949 64.9165L20.0214 64.9726C20.0295 65.3121 19.5788 66.7257 19.4532 67.0644C19.2019 67.7422 18.8481 68.3172 18.4328 68.6889C18.3487 68.8013 18.3691 68.9109 18.3389 69.0607C18.3383 69.0615 18.0854 69.1534 18.0054 69.596C17.9646 69.8215 18.006 69.8484 17.6722 70.1734C17.5514 70.291 17.431 70.3573 17.3198 70.4146V57.734C17.4416 57.7466 17.5713 57.746 17.6873 57.7451L17.3589 57.816L17.4018 58.1576C17.8162 58.1877 17.8325 58.2006 17.9623 58.5558C18.067 58.6465 18.2407 58.651 18.3949 58.8089C18.5052 58.9221 18.6014 59.0908 18.6846 59.2531C18.8065 59.4906 19.0047 60.0413 19.0488 60.3399C19.1854 60.6055 19.3027 61.3114 19.4524 61.5138L19.8317 60.2023C20.0079 59.2732 21.1389 58.8106 22.0299 58.469C22.7298 58.2008 23.824 57.8855 24.4247 57.441C24.5298 57.3632 24.5965 57.2821 24.6884 57.2156L24.5422 57.2031L25.047 57.0808C25.1688 57.0065 25.2796 57.0032 25.4006 56.9072L25.3542 56.668C24.2188 56.5122 23.3968 55.9395 22.8757 55.2724C22.0404 54.203 22.119 53.1378 21.6396 52.6678L21.3913 52.7091L21.3804 52.7949C21.2198 53.6486 20.7082 54.9467 20.0469 55.5404C19.9026 55.67 19.8251 55.605 19.7482 55.8039C19.4139 56.6693 18.5879 57.086 17.697 57.197C17.5314 57.2176 17.4134 57.2367 17.3198 57.2651V45.4911C17.613 45.5665 17.9205 45.548 18.3988 45.5247C18.5121 45.5461 18.6878 45.74 18.8491 45.8192C19.0181 45.9021 19.2556 45.9541 19.3839 46.0521C19.6345 46.2437 19.8808 46.6318 20.0496 46.9104C20.1742 46.7618 20.4445 45.7055 20.5276 45.4049C20.8415 44.2699 21.4081 43.7958 22.2353 43.2036C22.6381 42.9151 23.0199 42.7021 23.2219 42.2424C22.8772 41.8072 22.5341 41.8243 22.0134 41.5671C21.568 41.3471 21.2847 41.0594 20.7478 40.9477C20.5142 40.6817 20.2792 40.5018 20.047 40.2194C19.9379 40.0867 19.8378 39.9784 19.7311 39.8382C19.6449 39.7249 19.5203 39.5286 19.4162 39.4554C19.379 39.2336 19.2847 38.8966 19.2232 38.672C19.1324 38.34 19.0792 38.2663 18.9036 38.055C18.8181 37.3654 18.7092 36.2948 18.3731 35.7152C18.2616 35.5227 18.2072 35.2521 18.15 34.9981C18.0427 34.5213 17.9599 34.0011 17.8889 33.4707L18.9039 33.7816L18.9105 33.7836L19.4146 33.938L19.9186 34.0923L20.4227 34.2468L20.9268 34.4011L21.4308 34.5556L29.847 37.1346L29.846 37.1432L29.8451 37.152L29.8441 37.1608L29.8431 37.1695L29.8421 37.1784L29.8411 37.1871L29.8401 37.1959L29.839 37.2047L29.838 37.2134L29.8369 37.2222L29.8358 37.231L29.8347 37.2397L29.8336 37.2485L29.8325 37.2573L29.8312 37.2659L29.8301 37.2747L29.8289 37.2834L29.8277 37.2921L29.8265 37.3008L29.8253 37.3095L29.8241 37.3181L29.8228 37.3268L29.8215 37.3354L29.8203 37.3441L29.8189 37.3527L29.8177 37.3612L29.8164 37.3698L29.815 37.3783L29.8136 37.3869L29.8124 37.3954L29.8109 37.4039L29.8095 37.4123L29.8082 37.4208L29.8067 37.4291L29.8053 37.4376L29.8038 37.4459L29.8024 37.4542L29.8009 37.4625L29.7995 37.4708L29.798 37.4791L29.7964 37.4873L29.7949 37.4954L29.7934 37.5036L29.7919 37.5117L29.7903 37.5197L29.7887 37.5278L29.7872 37.5357L29.7856 37.5437L29.784 37.5517L29.7824 37.5595L29.7807 37.5674L29.7791 37.5752L29.7774 37.5829L29.7757 37.5907L29.7741 37.5984L29.7724 37.6059L29.7706 37.6136L29.7689 37.6211L29.7673 37.6286L29.7655 37.636L29.7637 37.6434L29.7619 37.6507L29.7602 37.658L29.7584 37.6653C29.6818 37.9739 29.604 38.1196 29.395 38.2921C29.3079 38.6569 29.1703 39.0012 28.9577 39.2061C28.7185 39.4367 28.4024 39.607 28.2873 39.9498L29.2109 39.4601C29.4263 39.279 29.6257 38.8919 29.9152 38.7701L29.9331 38.7628L29.951 38.7558L29.9689 38.7492L29.9869 38.7429L30.0048 38.737L30.0228 38.7313L30.0244 38.7309L30.04 38.7262L30.0408 38.726L30.0556 38.7218L30.0588 38.721L30.0767 38.7162L30.0947 38.7117L30.1026 38.7099L30.1127 38.7075L30.1183 38.7063L30.1307 38.7034L30.1339 38.7028L30.1487 38.6997L30.1495 38.6995L30.1652 38.6964L30.1667 38.6961L30.1809 38.6935L30.1847 38.6927L30.1965 38.6907L30.2027 38.6895L30.2207 38.6866L30.2387 38.6837L30.2566 38.6809L30.2746 38.6784L30.2747 38.6783L30.2903 38.6762L30.2926 38.6759L30.3059 38.6741L30.3105 38.6735L30.3215 38.6721L30.3284 38.6712L30.3464 38.6689L30.3526 38.6682L30.3642 38.6669L30.3682 38.6664L30.382 38.6647L30.3837 38.6645L30.3993 38.6628L30.4 38.6627L30.4177 38.6606L30.4303 38.6592L30.4356 38.6586L30.4458 38.6574L30.4534 38.6566L30.4711 38.6545L30.4767 38.6538L30.4889 38.6524L30.5066 38.6503L30.5075 38.6501L30.5228 38.6483L30.5243 38.6481L30.5419 38.6458L30.5535 38.6443L30.5595 38.6435L30.5771 38.641L30.5946 38.6385L30.6121 38.6358L30.6296 38.633H30.6298L30.6449 38.6304L30.647 38.63L30.6601 38.6277L30.6644 38.6269L30.6752 38.6249L30.6818 38.6236L30.6902 38.6219L30.6991 38.6201L30.7052 38.6189L30.7163 38.6165L30.7203 38.6156L30.7335 38.6125L30.7352 38.6121L30.7501 38.6085L30.7507 38.6083L30.765 38.6047L30.7678 38.604L30.7799 38.6007L30.7848 38.5993L30.7946 38.5965L30.8019 38.5944L30.8188 38.5892L30.8242 38.5875L30.8357 38.5836L30.8389 38.5826L30.8526 38.5779L30.8535 38.5775L30.8681 38.5721L30.8693 38.5717L30.8827 38.5666L30.8861 38.5652L30.8972 38.5607L30.8993 38.5599L30.9015 38.559L30.9028 38.5584L30.9037 38.558L30.9058 38.5571L30.908 38.5562L30.9123 38.5543L30.9144 38.5533L30.9166 38.5524L30.9188 38.5515L30.9193 38.5512L30.9252 38.5485L30.9274 38.5475L30.9296 38.5466L30.9317 38.5455L30.9338 38.5446L30.9359 38.5436L30.936 38.5435L30.9382 38.5426L30.9403 38.5415L30.9424 38.5405L30.9446 38.5394L30.9485 38.5375L30.9488 38.5373L30.951 38.5363L30.9524 38.5356L30.9532 38.5352L30.9553 38.5342L30.9575 38.5331L30.9595 38.532L30.9617 38.5309L30.9639 38.5299L30.966 38.5287L30.9681 38.5276L30.9688 38.5273L30.9702 38.5265L30.9724 38.5254L30.9745 38.5242L30.9767 38.5231L30.9788 38.522L30.9809 38.5208L30.983 38.5197L30.9851 38.5185V38.5184L30.9873 38.5173L30.9894 38.5161L30.9915 38.5149L30.9936 38.5137L30.9957 38.5125L30.9979 38.5113L31 38.5101L31.0013 38.5093L31.0021 38.5089L31.0042 38.5076L31.0063 38.5064L31.0084 38.5051L31.0105 38.5039L31.0148 38.5013L31.0169 38.5L31.0175 38.4996L31.019 38.4987L31.021 38.4975L31.0231 38.4962L31.0253 38.4948L31.0274 38.4935L31.0295 38.4922L31.0316 38.4909L31.0337 38.4895L31.0571 38.4741L31.0606 38.4717L31.0684 38.4664L31.0851 38.4548L31.0861 38.4541L31.0901 38.4512L31.1088 38.4376L31.11 38.4368L31.1107 38.4362L31.1117 38.4355L31.1285 38.4226L31.1302 38.4213L31.1325 38.4196L31.1396 38.4139L31.1486 38.4066L31.1535 38.4026L31.1575 38.3993L31.1732 38.3859L31.1732 38.3859L31.1744 38.3848L31.1825 38.3776L31.1904 38.3704L31.1916 38.3693L31.198 38.3634L31.2054 38.3563L31.2089 38.3529L31.2126 38.3492L31.2195 38.3422L31.2249 38.3368L31.2263 38.3353L31.2328 38.3284L31.2352 38.3257L31.2452 38.3146L31.2511 38.3079L31.2535 38.3052L31.2569 38.3011L31.2624 38.2944L31.2663 38.2896L31.2677 38.2877L31.2729 38.2811L31.2778 38.2745L31.278 38.2744L31.2792 38.2727L31.2872 38.2615L31.2888 38.2593L31.2917 38.255L31.296 38.2486L31.2965 38.2478L31.3001 38.2422L31.3041 38.2358L31.3078 38.2299L31.308 38.2296L31.3116 38.2233L31.3152 38.2171L31.3162 38.2155L31.3186 38.211L31.3219 38.2049L31.3237 38.2014L31.325 38.1988L31.328 38.1928L31.3307 38.1874L31.3309 38.1868L31.3337 38.1809L31.3364 38.1749L31.3369 38.1738L31.3389 38.169L31.3413 38.1632L31.3426 38.1604L31.3438 38.1575L31.346 38.1518L31.3479 38.1472L31.3482 38.1461L31.3503 38.1405L31.3504 38.14C31.3545 38.129 31.3579 38.1181 31.3611 38.1076L31.3627 38.1023L31.3643 38.0971L31.3644 38.0968L31.3657 38.0919L31.3672 38.0867L31.3677 38.0849L31.3685 38.0816L31.3699 38.0765L31.3709 38.0731L31.3738 38.0616L31.3767 38.0505L31.3785 38.0433L31.3795 38.0394L31.3849 38.0194L31.3881 38.0082L31.3911 37.9983L31.3944 37.9886L31.3947 37.9878L31.4015 37.9709L31.4017 37.9702L31.4059 37.9614L31.4065 37.9603L31.4101 37.9536L31.4105 37.9529L31.4108 37.9524L31.4152 37.9451L31.4156 37.9446L31.4158 37.9442L31.4205 37.9374L31.4211 37.9366L31.4235 37.9334L31.4253 37.9312L31.4257 37.9308L31.4283 37.9276L31.433 37.9225L31.4339 37.9215L31.4344 37.9209L31.4397 37.9159L31.4412 37.9144L31.4423 37.9135L31.4473 37.9093L31.4493 37.9076L31.4505 37.9066L31.4554 37.9031L31.4595 37.9002L31.4646 37.8968L31.4677 37.8948L31.4783 37.8889L31.4897 37.8832L32.1879 37.8519ZM31.5054 37.8766L31.5156 37.8729L31.5162 37.8726L31.5275 37.8689L31.53 37.8681L31.5456 37.8637L31.5624 37.8595L31.5805 37.8557L31.5997 37.8522L31.6024 37.8518L31.6203 37.8491L31.6228 37.8487L31.6424 37.8462L31.6658 37.8436L31.6676 37.8434L31.6907 37.8414L31.7171 37.8395L31.7452 37.838L31.7749 37.8367L31.773 37.8422L31.7712 37.8478L31.7711 37.8479L31.7692 37.8532L31.7674 37.8586L31.7672 37.859L31.7655 37.864L31.7637 37.8693L31.7634 37.87L31.7618 37.8746L31.7599 37.8799L31.7597 37.8807L31.758 37.8852L31.7562 37.8903L31.7558 37.8913L31.7543 37.8954L31.7524 37.9006L31.752 37.9018L31.7506 37.9057L31.7487 37.9107L31.7482 37.9121L31.7469 37.9157L31.745 37.9207L31.7445 37.9223L31.7432 37.9257L31.7413 37.9306L31.7406 37.9323L31.7394 37.9355L31.7375 37.9404L31.7338 37.95L31.7331 37.9521L31.7321 37.9549L31.7302 37.9596L31.7293 37.9619L31.7284 37.9643L31.7265 37.9691L31.7256 37.9714L31.7247 37.9738L31.7229 37.9784L31.7219 37.981L31.7211 37.9831L31.7192 37.9877L31.7182 37.9905L31.7174 37.9923L31.7156 37.997L31.7146 37.9999L31.7138 38.0016L31.7121 38.0062L31.7109 38.0092L31.7103 38.0107L31.7084 38.0152L31.7072 38.0185L31.7067 38.0197L31.7049 38.0242L31.7036 38.0277L31.7031 38.0288L31.7014 38.0333L31.7001 38.0369L31.6997 38.0378L31.6979 38.0422L31.6965 38.046L31.6962 38.0468L31.6945 38.0512L31.693 38.0551L31.6928 38.0557L31.6911 38.0601L31.6895 38.0642L31.6894 38.0646L31.6862 38.073L31.6861 38.0733L31.686 38.0735L31.6843 38.0779L31.6826 38.0824L31.681 38.0869L31.6793 38.0913V38.0915L31.6777 38.0958L31.6761 38.1002L31.676 38.1005L31.6744 38.1047L31.6729 38.1091L31.6727 38.1096L31.6713 38.1136L31.6697 38.1181L31.6694 38.1188L31.6682 38.1226L31.6666 38.1271L31.6663 38.128L31.665 38.1316L31.6635 38.1362L31.6632 38.1372L31.662 38.1407L31.6604 38.1454L31.66 38.1464L31.6588 38.1501L31.6573 38.1549L31.657 38.1558L31.6558 38.1596L31.6543 38.1645L31.654 38.1652L31.6528 38.1693L31.6513 38.1741L31.6511 38.1747L31.6498 38.1789L31.6484 38.1838L31.6482 38.1842L31.6469 38.1887L31.6455 38.1936L31.6454 38.1938L31.6427 38.2035L31.64 38.2133L31.6399 38.2136L31.6387 38.2186L31.6375 38.2233L31.6373 38.2237L31.636 38.2289L31.6349 38.2334L31.6347 38.234L31.6334 38.2391L31.6324 38.2435L31.6322 38.2444L31.631 38.2496L31.63 38.2539L31.6297 38.2549L31.6286 38.2602L31.6276 38.2643L31.6274 38.2656L31.6263 38.271L31.6254 38.2749L31.6252 38.2764L31.624 38.2818L31.6232 38.2856L31.6229 38.2874L31.6219 38.2929L31.6211 38.2965L31.6208 38.2986L31.6198 38.3042L31.6191 38.3076L31.6187 38.3099L31.6178 38.3157L31.6172 38.319L31.6168 38.3215L31.6158 38.3273L31.6153 38.3304L31.6149 38.3331L31.614 38.3391L31.6136 38.3421L31.6132 38.3451L31.6123 38.3511L31.6119 38.3539L31.6115 38.3572L31.6106 38.3634L31.6103 38.3659L31.6099 38.3696L31.6091 38.3758L31.6088 38.3782L31.6083 38.3822L31.6076 38.3885L31.6074 38.3908L31.607 38.395L31.6063 38.4015L31.6061 38.4035L31.6057 38.4081L31.6051 38.4147L31.6049 38.4165L31.6045 38.4214L31.6039 38.4282L31.6038 38.4297L31.6034 38.435L31.6029 38.4418L31.6028 38.4432L31.6024 38.4488L31.6019 38.4558V38.4569L31.6015 38.463L31.6011 38.4701V38.4709L31.6008 38.4774L31.6004 38.4847V38.4852L31.6001 38.4921L31.5998 38.4996V38.4998L31.5996 38.507L31.5993 38.5147C31.7904 38.4371 31.9844 38.1309 32.1108 37.9589C32.1369 37.9233 32.1625 37.8877 32.1879 37.8519L31.5054 37.8766ZM28.2873 39.9498L27.6311 40.2796C27.5116 40.6794 27.4673 40.5718 27.1047 40.6813C27.0054 41.5518 27.1653 41.2635 27.7447 41.3881C28.4462 41.539 28.1103 41.7962 28.9503 42.3493C29.2699 42.5598 29.4969 42.7413 29.7779 42.9556C30.153 43.2417 30.2625 43.3678 30.8881 43.2529C30.9395 42.3996 30.9351 41.5155 31.004 40.6666C31.0777 39.7581 31.4124 39.2856 31.5993 38.5147L28.2873 39.9498ZM45.9325 50.4178L45.573 50.4112L45.4915 50.6713C45.0861 50.7874 44.4466 51.6185 44.1966 52.0025C43.8394 52.5511 43.5814 53.0712 43.3048 53.7195C43.1426 53.8326 43.064 54.0273 42.879 54.117L42.3563 53.3509C42.1656 53.1109 41.8789 52.927 41.7331 52.6861C41.3728 52.5846 41.2872 52.4559 41.0358 52.2995C40.7867 52.1444 40.4774 52.1548 40.1375 52.1242C39.9606 51.7173 39.3169 51.6821 38.973 51.6408C38.7848 51.6183 38.3811 51.6 38.2562 51.5161L37.8515 51.0761C37.9907 50.8909 39.073 49.9746 39.1414 49.8894L39.1995 49.8331C39.2037 49.828 39.211 49.8188 39.2155 49.8132C39.3722 49.6167 39.5742 49.2258 39.7308 49.1343C39.8003 48.8885 40.3144 48.2838 40.4728 48.0667C40.731 47.7128 40.9105 47.3289 41.0277 46.8175C41.5795 46.5111 42.0116 44.8001 42.54 44.5375C42.6763 45.0801 43.0534 45.6933 43.2966 46.1609C43.4364 46.4299 43.5872 46.6508 43.7478 46.8964C43.9413 47.1925 44.1026 47.3268 44.3151 47.54C44.5099 48.1258 45.1045 48.6085 45.5397 49.0174C45.6647 49.1348 45.7177 49.1869 45.8291 49.2856C46.0011 49.4379 46.214 49.6605 46.349 49.8888C46.2709 50.0643 46.0393 50.2372 45.9325 50.4178ZM52.3053 77.3787C54.4979 76.4219 57.4241 75.8109 59.4798 74.7358C61.0678 73.9053 66.126 65.6236 67.6324 64.7724C69.7739 63.5626 70.365 62.0446 72.1502 60.9475C74.5079 59.4987 87.4377 57.4101 89.0473 56.4798C93.1923 54.0842 98.36 53.9137 102.672 52.2811L102.669 56.315L102.669 55.6528C100.923 55.5207 100.933 56.1273 98.5644 56.2856C93.1529 57.0831 90.689 60.0685 86.4552 62.3312C76.3931 67.7088 79.1286 72.228 68.8597 74.3378C66.9379 74.7327 61.457 79.0256 59.5763 79.5207C58.1915 79.8852 54.1942 80.8782 52.3053 81.2477V77.3787Z" fill="#42ADE2"/>
<path d="M59.4726 76.3418C59.1819 76.5407 59.4394 76.9902 59.7633 76.8282C59.8529 76.7744 59.9426 76.7092 60.0303 76.6511C60.321 76.4522 60.0635 76.0027 59.7396 76.1647C59.6501 76.2184 59.5598 76.2833 59.4726 76.3418ZM102.648 80.9795L102.671 52.2806C98.3586 53.9132 93.1909 54.0838 89.0459 56.4794C87.4363 57.4096 74.5065 59.4982 72.1488 60.947C70.3636 62.0441 69.7725 63.5621 67.6311 64.7719C66.1246 65.6231 61.0664 73.9048 59.4784 74.7353C57.4227 75.8104 54.4965 76.4214 52.304 77.3782V81.2473C54.1928 80.8777 58.1901 79.8848 59.5749 79.5203C61.4556 79.0252 66.9365 74.7323 68.8583 74.3374C79.1272 72.2275 76.3917 67.7084 86.4538 62.3308C90.6876 60.0681 93.1516 57.0827 98.563 56.2851C100.932 56.1268 100.922 55.5202 102.668 55.6523L102.665 59.7191C95.1608 63.3966 95.6034 61.5691 91.3834 64.0082C89.7735 64.9387 84.525 69.3514 82.167 70.8006C80.3815 71.898 74.3327 76.822 72.1911 78.032C70.6844 78.8834 64.155 82.6431 62.567 83.4736C60.4956 84.5569 54.8973 85.6202 52.304 86.657V106.155L102.648 80.9795ZM102.673 49.6239L102.685 33.2201C101.917 33.3803 101.148 33.5403 100.38 33.6992L100.298 33.7172L100.288 33.7181L97.4143 33.9771L97.3722 33.9794C97.1729 33.9825 96.9755 33.9849 96.7793 33.9866L94.9517 34.0091L94.2846 33.9779C93.4567 33.9659 92.625 33.9459 91.7593 33.9228L90.0912 34.7751L90.0095 34.8191L86.9299 35.9568L84.9129 36.9187L82.1413 37.4956L82.1347 37.497L82.0214 37.488L78.126 37.2386L74.3473 37.5907L74.2709 37.5981H74.2689L74.2681 37.5981L70.2581 37.6096L67.9642 38.9303L64.8427 41.0966L61.0267 41.891C58.1184 42.5054 55.2151 43.1111 52.304 43.7079V74.5477C53.8099 74.2706 55.9431 73.7487 57.3069 73.3897C59.1877 72.8946 62.3526 68.3684 63.8865 66.051C66.547 61.6812 70.5159 57.6894 78.0921 57.359C87.839 55.8499 94.8021 48.9224 102.673 49.6239ZM76.5063 48.2029C78.8544 50.3683 83.5298 53.8411 87.8139 53.5584C92.0979 53.2758 95.9904 49.2378 97.88 46.8523C99.7696 44.4668 99.6563 43.7338 97.6601 45.1866C95.6639 46.6395 91.7849 50.2782 87.5471 50.4983C83.3095 50.7184 78.7131 47.52 76.4253 46.3498C74.1374 45.1795 74.1581 46.0376 76.5063 48.2029ZM82.7264 38.7021C83.6541 39.4753 85.5038 40.7123 87.2098 40.5968C88.9157 40.4813 90.4779 39.0131 91.2375 38.1472C91.9971 37.2812 91.9544 37.0174 91.1553 37.5474C90.3561 38.0776 88.8007 39.4016 87.1134 39.4945C85.4261 39.5873 83.6069 38.4488 82.7001 38.0343C81.7932 37.6197 81.7987 37.929 82.7264 38.7021ZM80.3857 41.3699C81.808 42.3509 84.6509 43.9126 87.3 43.7259C89.9491 43.5392 92.4044 41.6041 93.6018 40.4662C94.7991 39.3282 94.7386 38.9874 93.4873 39.6913C92.236 40.3951 89.7941 42.1436 87.1744 42.3005C84.5547 42.4574 81.7572 41.0227 80.3593 40.5056C78.9614 39.9885 78.9633 40.3888 80.3857 41.3699ZM78.1338 44.7669C80.0777 46.1991 83.96 48.4833 87.5655 48.2325C91.1709 47.9815 94.4996 45.1956 96.1213 43.5556C97.7431 41.9155 97.6581 41.4212 95.9597 42.4318C94.2613 43.4425 90.9495 45.958 87.3839 46.1659C83.8182 46.3738 79.9986 44.2742 78.0916 43.5144C76.1845 42.7546 76.19 43.3348 78.1338 44.7669ZM84.7155 61.212C84.9177 61.1109 84.9297 60.8317 84.7373 60.714C84.6547 60.6636 84.5534 60.6609 84.4666 60.7022L84.245 60.8104C84.1681 60.8488 84.1189 60.9106 84.0954 60.9927C84.0361 61.23 84.2742 61.4248 84.4944 61.3199L84.7155 61.212ZM82.9487 62.0532C83.2138 61.9396 83.1501 61.5258 82.8409 61.5111C82.7926 61.5111 82.7598 61.5171 82.7156 61.5361C82.5443 61.613 82.3731 61.6887 82.2008 61.7634C82.1091 61.8026 82.0462 61.887 82.0322 61.9849C82.0023 62.2044 82.2231 62.371 82.4256 62.2842C82.6007 62.2083 82.7747 62.1315 82.9487 62.0532ZM80.8166 62.9057C81.1032 62.8145 81.0645 62.369 80.73 62.3531C80.6952 62.3531 80.6682 62.3576 80.6355 62.368C80.4589 62.4273 80.2802 62.4797 80.1042 62.5384C79.7692 62.645 79.8832 63.1375 80.2271 63.0907C80.2407 63.0882 80.2542 63.0858 80.2676 63.0816C80.4516 63.0256 80.6342 62.967 80.8166 62.9057ZM78.5866 63.495C78.6544 63.4827 78.7079 63.4483 78.7519 63.3979C78.9207 63.1903 78.7426 62.8901 78.4816 62.9375C78.2985 62.972 78.1165 63.002 77.9325 63.0312C77.6452 63.0686 77.5919 63.4927 77.9031 63.5861C77.944 63.5958 77.975 63.5976 78.0173 63.592C78.2077 63.5631 78.3973 63.5307 78.5866 63.495ZM76.2894 63.7501C76.4423 63.7434 76.558 63.6276 76.5647 63.4746C76.5719 63.3147 76.4326 63.1761 76.2729 63.183C76.089 63.1871 75.902 63.1926 75.7182 63.1875C75.382 63.1875 75.3143 63.6674 75.6595 63.7496C75.6757 63.7525 75.6929 63.7548 75.7097 63.7548C75.9022 63.7595 76.0969 63.7544 76.2894 63.7501ZM73.9748 63.6093C74.2768 63.6618 74.4494 63.2352 74.1392 63.0719C74.1138 63.0605 74.0914 63.0539 74.0642 63.0491C73.8845 63.0209 73.6987 62.9886 73.5214 62.9488C73.2158 62.8794 73.0335 63.306 73.3253 63.475C73.3515 63.4887 73.3738 63.497 73.402 63.5034C73.5887 63.5456 73.7855 63.5796 73.9748 63.6093ZM71.7288 63.0008C71.9653 63.0909 72.1894 62.8628 72.0949 62.6266C72.0617 62.5563 72.0132 62.5021 71.9387 62.4737C71.7697 62.4067 71.597 62.3345 71.433 62.2561C71.1521 62.1223 70.8733 62.4895 71.1292 62.7295C71.1491 62.7458 71.1683 62.7584 71.1923 62.7698C71.3693 62.852 71.5475 62.9288 71.7288 63.0008ZM67.9085 60.3975C68.1607 60.6497 68.5543 60.3066 68.332 60.0208C68.2057 59.8795 68.066 59.7367 67.936 59.5967C67.7297 59.3628 67.3418 59.5931 67.4624 59.8946C67.4764 59.9257 67.49 59.9487 67.5125 59.9741C67.642 60.118 67.7734 60.2589 67.9085 60.3975ZM66.435 58.6162C66.606 58.8661 67.017 58.6985 66.9415 58.3812C66.9315 58.3463 66.9199 58.3205 66.899 58.2899C66.7922 58.1376 66.6884 57.9843 66.5864 57.8288C66.4146 57.5569 65.9662 57.749 66.0845 58.0871C66.0931 58.1062 66.0996 58.1203 66.1109 58.1382C66.2162 58.2996 66.3244 58.4584 66.435 58.6162ZM65.2392 56.6454C65.4147 56.9644 65.8946 56.7372 65.7473 56.3933C65.6622 56.2231 65.5744 56.0558 65.4913 55.8843C65.3473 55.582 64.8694 55.7419 64.9646 56.0909C64.9693 56.105 64.9738 56.1174 64.9804 56.1312C65.0648 56.3039 65.1506 56.4749 65.2392 56.6454ZM64.2921 54.551C64.4077 54.8545 64.8839 54.752 64.8359 54.4C64.8323 54.3807 64.8275 54.3632 64.8204 54.3447C64.7522 54.1703 64.6859 53.9953 64.6209 53.8197C64.5094 53.5269 64.0712 53.5941 64.0712 53.9304C64.074 53.9616 64.0773 53.9862 64.0885 54.0157C64.155 54.1948 64.2224 54.3731 64.2921 54.551ZM63.5384 52.3899C63.6407 52.7114 64.1226 52.6197 64.0912 52.2744C64.0887 52.2563 64.0858 52.2393 64.0801 52.2217C64.0245 52.0423 63.9696 51.8626 63.9164 51.6825C63.8141 51.3611 63.346 51.4444 63.3613 51.7818C63.3634 51.8047 63.3664 51.8214 63.3724 51.8435C63.4267 52.026 63.4821 52.208 63.5384 52.3899ZM62.9149 50.1945C63.008 50.5355 63.5188 50.4392 63.4694 50.0768C63.4294 49.889 63.371 49.6926 63.3243 49.5047C63.2257 49.1429 62.6907 49.2762 62.7739 49.6423C62.8202 49.8265 62.8671 50.0106 62.9149 50.1945ZM62.3775 47.981C62.4308 48.2153 62.734 48.2805 62.8794 48.0903C62.9305 48.0235 62.9493 47.9376 62.9306 47.8554L62.8064 47.3031C62.7406 47.0138 62.3254 46.9984 62.2507 47.312C62.2448 47.3533 62.2432 47.3851 62.2526 47.4263L62.3775 47.981ZM61.8938 45.759C61.9748 46.1152 62.5012 46.0204 62.4517 45.6573C62.4169 45.4686 62.373 45.2766 62.3338 45.0881C62.2542 44.7378 61.7416 44.8201 61.774 45.1761C61.804 45.3658 61.8544 45.5694 61.8938 45.759ZM61.4384 43.5339C61.5187 43.8872 62.0308 43.8028 61.9985 43.4471C61.9688 43.2573 61.9205 43.0558 61.8825 42.8659C61.8022 42.5127 61.29 42.5968 61.3224 42.9528C61.352 43.1421 61.4001 43.3445 61.4384 43.5339ZM61.1242 75.2298C60.8577 75.412 61.0544 75.8396 61.3829 75.7301C61.4046 75.7214 61.4237 75.7121 61.4432 75.6988C61.6001 75.5925 61.7569 75.4852 61.9129 75.3775C62.0047 75.3147 62.0516 75.2012 62.0307 75.0916C61.9923 74.89 61.7605 74.7943 61.591 74.9104C61.4353 75.0167 61.2802 75.124 61.1242 75.2298ZM62.9771 73.9343C62.8918 73.9959 62.8516 74.0931 62.8616 74.1975C62.8927 74.4154 63.1276 74.5186 63.3096 74.394C63.4638 74.2828 63.6169 74.1701 63.77 74.0573C64.0488 73.8405 63.7765 73.4096 63.4537 73.5871C63.2943 73.6948 63.1343 73.8209 62.9771 73.9343ZM64.7712 72.5701C64.5377 72.7518 64.7178 73.1519 65.0376 73.0606C65.073 73.0482 65.0979 73.0347 65.1276 73.0116C65.276 72.8918 65.4235 72.7711 65.5698 72.6488C65.6242 72.6009 65.6496 72.5564 65.6661 72.4867C65.7185 72.225 65.411 72.0427 65.2061 72.2134C65.0627 72.3339 64.9171 72.4524 64.7712 72.5701ZM66.4649 71.0959C66.2121 71.3487 66.5445 71.7351 66.8311 71.528C66.9776 71.4033 67.1295 71.2434 67.2673 71.1064C67.4912 70.8825 67.2319 70.506 66.9336 70.6552C66.9075 70.6703 66.888 70.6834 66.8665 70.7049C66.7344 70.837 66.6002 70.9671 66.4649 71.0959ZM68.0059 69.4737C67.8128 69.6927 68.0583 70.0419 68.3414 69.9146C68.3817 69.8954 68.4096 69.8735 68.439 69.8402C68.563 69.6936 68.6852 69.5461 68.8049 69.396C69.0139 69.1274 68.6646 68.7847 68.3989 69.0034C68.3855 69.0152 68.3726 69.0279 68.3615 69.0422C68.2446 69.1878 68.1266 69.3312 68.0059 69.4737ZM69.329 67.6838C69.1772 67.9241 69.4413 68.2217 69.7086 68.081C69.753 68.0539 69.7822 68.0284 69.8105 67.9835C69.9129 67.8184 70.0117 67.652 70.1058 67.4821C70.2624 67.1974 69.8901 66.9112 69.6539 67.1474C69.6363 67.1662 69.6221 67.1845 69.6094 67.2076C69.5197 67.3689 69.4262 67.5268 69.329 67.6838ZM70.2473 65.7073C70.1593 66.0302 70.6185 66.2209 70.7788 65.9004C70.7853 65.8858 70.7905 65.8715 70.7947 65.8563C70.8451 65.673 70.8982 65.4533 70.9191 65.2649C70.9347 65.1456 70.8749 65.0313 70.7702 64.9761C70.5957 64.8843 70.3823 64.9954 70.357 65.1894L70.3571 65.1882C70.3317 65.3645 70.2945 65.5356 70.2473 65.7073ZM70.2219 63.6328C70.3216 63.9463 70.8059 63.868 70.7732 63.5091C70.7708 63.4923 70.7673 63.4762 70.7621 63.4599C70.703 63.2712 70.6272 63.079 70.5444 62.8996C70.4015 62.5995 69.9477 62.7392 70.0091 63.0768C70.0144 63.099 70.0198 63.115 70.0289 63.1363C70.1017 63.2987 70.1686 63.4627 70.2219 63.6328ZM15.9268 81.1541V32.9586V32.5388C15.9219 32.5223 15.9216 32.5067 15.9268 32.492C15.676 32.1624 21.7106 31.1074 25.4107 30.4739L29.6509 28.8271L32.2881 27.9492L35.6475 25.962L35.6896 25.9398L38.2999 24.6729L40.9277 23.1204L44.3742 21.83L46.3755 21.3301L49.8399 21.9425L52.0293 22.0035L54.6245 23.0187L55.8586 23.3883L57.3712 23.9526L60.1158 24.565C66.1557 25.5992 72.1951 26.6363 78.2348 27.6721L81.1363 28.2656L84.5207 28.1653C85.7069 28.2715 86.8937 28.3737 88.0803 28.4776L92.079 30.0468L96.5318 30.8105L99.4795 30.8969C100.705 31.2421 101.931 31.5853 103.157 31.9283C103.786 32.1596 104.031 32.4136 104.093 32.91L104.056 81.6033C86.9154 90.1755 69.4972 98.8218 52.3561 107.392L52.304 107.418V107.442L51.6707 107.725L51.1694 107.358V107.356L50.9885 107.223C39.3692 98.6746 27.5274 89.9774 15.9268 81.4393V81.1541ZM17.3184 33.2959V81.0433L51.1694 105.95V43.6643C41.2547 40.6326 31.3426 37.5919 21.4294 34.5551L20.9254 34.4007L20.4213 34.2463L19.9172 34.0919L19.4132 33.9375L18.9091 33.7831L18.9025 33.7811L17.3184 33.2959ZM27.0381 60.714C27.0606 60.8216 27.2093 61.259 27.267 61.3188C27.4488 61.5071 27.6849 61.383 27.9513 61.3714C27.9277 61.6429 27.7929 61.883 27.9408 62.1442L28.2428 61.4724C28.4845 61.606 28.5638 62.0246 28.709 62.2428C28.8673 62.2608 28.9658 62.1911 29.0531 62.1109C28.9774 61.976 28.7607 61.7624 28.6395 61.6227L27.7769 60.6332C27.5967 60.4915 27.323 60.5862 27.1292 60.6725L27.0381 60.714ZM31.0722 68.3009C31.778 68.1259 32.6252 68.066 33.3788 68.1969C33.7512 68.2617 34.0376 68.3891 34.3501 68.5166C34.6601 68.6431 34.9547 68.816 35.3022 68.8872L35.7721 69.3993C36.1399 69.7558 36.3589 70.0351 36.6622 70.4645C36.7898 70.6453 36.9886 70.8591 37.0811 71.0232C37.167 71.3192 37.076 71.3798 37.4099 71.451C37.7327 70.6366 37.6741 70.57 37.892 69.8983C38.06 69.3806 38.2741 68.8973 38.3505 68.2967C38.5774 68.0072 38.8014 67.2942 38.9543 66.8762C39.1428 66.361 39.297 65.8682 39.536 65.402L39.5308 64.8362C38.6026 64.6959 37.1131 65.3096 35.5678 65.1997C34.8997 65.1521 34.2932 65.0525 33.7567 64.8147C33.3464 64.6328 32.746 64.2555 32.5413 63.858L32.1036 63.2306L31.7938 63.1282C31.7816 64.7019 31.8958 65.8901 31.0801 67.2064C30.8685 67.5478 30.6267 67.8405 30.4283 68.1439L31.0722 68.3009ZM41.9404 60.7486C41.8452 61.2647 41.5497 62.6277 41.6444 63.1068C43.6537 62.7295 44.2463 62.971 45.869 64.1887C46.8146 64.8982 48.0002 66.3363 48.1846 67.5677C48.2288 67.5859 48.235 67.5885 48.2776 67.6137L48.5603 67.617C48.7169 67.1999 48.8038 66.6433 48.9784 66.2493C49.1799 65.7949 49.486 65.8579 49.5167 64.9908C48.7283 65.0758 47.6712 64.5817 47.2886 64.2123C46.4693 63.899 46.0744 63.7317 45.4314 62.9147C45.1858 62.6027 44.9916 62.3525 44.7891 61.987C44.5045 61.4731 44.4287 61.1808 44.2903 60.9261L44.1105 60.3084L43.9274 60.2416L43.8879 60.2039C43.8831 60.1987 43.875 60.1901 43.8698 60.1842C43.8647 60.1784 43.8584 60.1698 43.8533 60.1638C43.1978 59.3971 43.2801 58.129 43.0194 57.7495L42.8493 57.4552L42.7528 57.4679C42.4944 57.6969 42.248 57.6471 42.3124 58.1809C42.3619 58.5902 42.2886 58.8334 42.1601 59.1666L41.9404 60.7486ZM18.8241 71.1702L20.884 71.5007C21.9488 71.5863 22.5751 71.1281 23.1848 70.6242C23.3323 70.5023 23.3682 70.4014 23.4829 70.289C23.7021 70.0741 23.9308 69.8089 23.9871 69.4793C23.9774 69.4727 23.9635 69.4514 23.9576 69.4601L23.7663 69.3839C23.6969 69.3637 23.6233 69.3478 23.5472 69.324C23.1324 69.1944 23.0862 69.1923 22.7291 68.9635C22.5693 68.8612 22.562 68.819 22.4453 68.6612L22.4154 68.3654C22.2753 68.2716 22.1682 68.1405 22.0248 68.0271C21.4501 67.573 21.3187 67.3042 21.268 66.6491C21.2144 65.9568 21.0906 66.1278 20.6373 65.856C20.3579 65.6885 20.372 65.1679 20.1935 64.916L20.02 64.9721C20.0281 65.3116 19.5774 66.7253 19.4519 67.0639C19.2005 67.7417 18.8467 68.3167 18.4315 68.6884C18.3474 68.8008 18.3677 68.9105 18.3375 69.0602C18.3369 69.0611 18.084 69.1529 18.004 69.5955C17.9632 69.821 18.0046 69.8479 17.6708 70.1729C17.5501 70.2906 17.4296 70.3568 17.3184 70.4141V71.1272L18.8241 71.1702ZM29.8456 37.134C29.8257 37.321 29.7952 37.511 29.757 37.6648C29.6804 37.9734 29.6026 38.1191 29.3936 38.2917C29.3066 38.6564 29.1689 39.0008 28.9563 39.2056C28.7171 39.4362 28.401 39.6065 28.2859 39.9493L29.2095 39.4597C29.4249 39.2785 29.6243 38.8914 29.9138 38.7696C30.2954 38.609 30.6891 38.71 31.0323 38.489C31.6246 38.1078 31.1227 37.8593 31.7735 37.8362C31.6925 38.0787 31.6068 38.1938 31.598 38.5142C31.7891 38.4366 31.983 38.1304 32.1094 37.9584C32.1355 37.9229 32.1611 37.8873 32.1865 37.8514L29.8456 37.134ZM39.14 49.8889C39.0716 49.9741 37.9893 50.8904 37.8501 51.0756L38.2549 51.5156C38.3797 51.5996 38.7834 51.6178 38.9716 51.6403C39.3155 51.6817 39.9592 51.7168 40.1361 52.1237C40.476 52.1543 40.7853 52.1439 41.0344 52.299C41.2858 52.4554 41.3715 52.5841 41.7317 52.6857L41.7377 52.368C41.8798 52.2388 42.0552 52.102 42.2064 51.9671C42.3668 51.8241 42.4816 51.6934 42.6346 51.5584C43.3885 50.8931 43.9114 50.7269 44.8838 50.3873C45.3379 50.2288 45.6777 50.0614 45.8234 49.6438C45.801 49.5738 45.7045 49.3742 45.6628 49.3116C45.5804 49.188 45.503 49.1868 45.3303 49.2234C44.9173 49.311 43.6216 49.8649 43.2115 50.0401C41.7963 50.6446 41.6056 50.5935 40.1689 50.8532C40.0292 50.6428 40.0815 50.4907 40.1508 50.2325L39.5291 50.2713C39.6014 49.9107 39.3258 49.9288 39.7294 49.1339C39.5728 49.2254 39.3708 49.6162 39.2141 49.8127C39.2096 49.8184 39.2023 49.8275 39.1981 49.8326L39.14 49.8889ZM17.6859 57.7447L17.3575 57.8155L17.4004 58.1571C17.8148 58.1872 17.8311 58.2001 17.9609 58.5553C18.0657 58.646 18.2393 58.6506 18.3935 58.8085C18.5038 58.9216 18.6001 59.0903 18.6833 59.2526C18.8051 59.4901 19.0033 60.0408 19.0475 60.3394C19.184 60.605 19.3013 61.3109 19.4511 61.5133L19.8303 60.2018C20.0065 59.2727 21.1376 58.8101 22.0285 58.4686C22.7285 58.2003 23.8227 57.885 24.4233 57.4405C24.5284 57.3628 24.5951 57.2816 24.687 57.2152L24.5408 57.2026C24.2812 57.1679 21.6139 57.4029 21.065 57.4385C20.4951 57.4756 19.9214 57.5389 19.3516 57.5723C19.0634 57.5892 18.7654 57.6153 18.4806 57.6447C18.2188 57.6717 17.9504 57.7414 17.6859 57.7447ZM20.3686 44.8544C20.2711 44.9828 20.1352 45.0219 20.0613 45.1815C20.0021 45.3092 20.0104 45.5621 19.9639 45.7155C19.4438 45.87 18.7372 45.4104 18.3974 45.5242C18.5107 45.5457 18.6864 45.7395 18.8477 45.8187C19.0167 45.9017 19.2542 45.9536 19.3825 46.0516C19.6332 46.2433 19.8794 46.6313 20.0482 46.9099C20.1728 46.7613 20.4431 45.705 20.5262 45.4044C20.8401 44.2694 21.4067 43.7953 22.2339 43.2031C22.6367 42.9147 23.0185 42.7016 23.2205 42.242C22.8758 41.8067 22.5327 41.8238 22.012 41.5666C21.5666 41.3467 21.2833 41.0589 20.7464 40.9473C20.7128 41.0404 20.6193 41.1183 20.551 41.2069C20.3159 41.511 20.3597 41.4489 20.0711 41.5637C20.0097 41.588 19.9913 41.5932 19.9275 41.6253L19.7896 41.7325C19.8259 41.7462 20.2786 41.9391 20.2978 41.9577C20.8931 42.5314 19.853 42.9441 19.7412 43.1249C19.9215 43.2326 20.1947 43.3718 20.4686 43.3919C20.9673 43.4286 20.887 43.5069 21.1646 43.7058C21.0619 44.0183 20.5626 44.7118 20.3686 44.8544ZM17.6384 79.8176L17.3184 80.59V80.8119C17.7493 80.7395 17.937 80.5617 18.3322 80.8721C18.5227 81.0218 18.6607 80.9703 18.8557 80.857C19.1587 80.6809 19.0079 80.6683 19.3505 80.7633L19.1505 80.0683C19.5089 80.2351 19.659 80.3008 20.0178 80.3152C19.9265 80.094 19.7169 79.9021 19.5873 79.6415C19.8862 79.1989 19.9155 79.528 19.8874 78.8035C19.8798 78.6816 19.903 78.8083 19.8404 78.7623C19.5799 78.852 19.2203 78.9928 18.8988 78.9726C17.8067 78.9043 17.8632 78.789 17.8275 79.4307C17.8134 79.6826 17.8432 79.7403 17.6384 79.8176ZM19.911 77.1588C20.2587 77.1044 20.3318 76.8992 20.5388 76.7897C20.7418 76.877 20.7856 77.1462 20.9577 77.2853L21.1305 77.2609C21.0563 77.1293 21.0302 77.0511 21.0827 76.9021C21.0687 76.7975 21.0043 76.745 20.946 76.6504C20.8829 76.5755 20.9228 76.3241 20.9239 76.1311C20.6326 75.8883 20.4369 75.5786 19.8867 75.4972C20.1968 76.3983 20.4131 76.139 20.5435 76.669L19.9125 76.3539C18.8907 75.8816 19.6254 75.6767 18.915 75.4682C18.6639 75.3945 18.3964 75.3784 18.1398 75.3246C18.1225 75.4724 18.1951 75.9536 18.2264 76.123C18.283 76.4293 18.406 76.498 18.6587 76.5998C18.8644 76.6826 19.1012 76.7846 19.3169 76.847C19.5502 76.9147 19.7219 76.8413 19.911 77.1588ZM47.2097 75.3017C47.8398 74.919 48.3981 72.9988 48.9319 72.6696C49.1953 73.0065 49.6049 74.4166 50.5047 74.882C50.3575 74.568 50.19 74.3811 49.9966 74.1356C49.8179 73.9086 49.6909 73.6083 49.5697 73.3045C49.4466 72.9955 49.3219 72.7152 49.208 72.4098C49.0541 71.9971 49.0039 71.9283 48.9889 71.401L48.541 71.2479C48.3102 71.6763 48.6018 72.409 47.5989 74.3711C47.2484 75.0567 47.3615 74.6559 47.2097 75.3017ZM27.7727 66.93C27.7716 67.0235 27.7723 67.1167 27.7721 67.2103C27.772 67.2341 27.7706 67.333 27.7735 67.35C27.8002 67.5124 27.7645 67.3846 27.8182 67.4499C27.8705 67.4882 28.5758 67.5605 28.8951 67.2542C28.9307 67.22 28.9687 67.1834 29.0122 67.1306L29.1289 66.9967L28.9686 67.7559C29.594 67.6049 30.3795 66.4166 29.1268 66.2369L28.2225 66.1199C28.148 66.322 27.9084 66.7906 27.7727 66.93ZM32.213 76.1105C32.0633 76.292 32.0473 76.0999 31.9726 76.443L32.4188 76.4079C32.6502 77.9299 32.9568 77.6689 33.1013 77.8882C33.2767 77.9952 33.5142 78.3668 33.5782 78.4337C33.608 78.306 33.7016 77.8892 33.7772 77.7935L33.663 77.0162C33.8184 76.9143 34.1315 76.6697 34.1079 76.3772C33.8184 76.4974 33.9256 76.3784 33.7198 76.6223C33.6309 76.7277 33.4559 76.8273 33.3251 76.8573L33.2737 76.131L32.5384 76.0588L32.213 76.1105ZM28.2956 57.2014L28.6003 57.2177L29.9661 57.3259C30.186 56.9956 30.1522 56.5441 30.1806 56.0798L28.1217 56.5577C28.1714 56.7807 28.2751 56.9714 28.2956 57.2014ZM48.9524 44.5872C49.119 44.7083 49.2587 44.9202 49.4157 45.0677C49.5853 45.2271 49.6731 45.4295 49.9108 45.5114L49.9129 46.0815C50.4245 45.4739 49.9424 44.928 49.7542 44.4835L49.7264 43.7407L49.0522 43.61C48.9269 43.6869 48.8147 43.7581 48.6998 43.8661C48.8126 44.0866 48.9774 44.2677 48.9524 44.5872ZM33.6412 80.4435L33.7663 80.2715L33.9499 79.9228L33.7557 79.4007C34.0643 79.4827 34.3576 79.6331 34.7037 79.5958C34.6176 79.3811 34.5862 79.2528 34.4422 79.0757C34.3176 78.9226 34.2268 78.7528 34.051 78.6608C33.5939 79.1429 33.7296 79.4764 33.1043 79.5924L33.2211 80.3334C33.2779 80.4287 33.3205 80.3589 33.2633 80.5341L33.6412 80.4435ZM45.588 54.044C46.8106 55.1003 46.3584 54.304 46.9207 53.4028C47.2723 52.8393 46.6431 53.2451 46.4831 53.2534C45.9685 53.28 45.9635 53.1048 45.588 54.044Z" fill="#FEFEFE"/>
<path fill-rule="evenodd" clip-rule="evenodd" d="M17.3187 45.4907C17.6119 45.5662 17.9194 45.5476 18.3977 45.5243C18.7375 45.4105 19.4441 45.8701 19.9642 45.7156C20.0107 45.5622 20.0024 45.3093 20.0616 45.1816C20.1355 45.022 20.2714 44.9829 20.3689 44.8545C20.5629 44.7119 21.0622 44.0184 21.1649 43.7059C20.8873 43.507 20.9676 43.4287 20.4689 43.392C20.1949 43.3719 19.9218 43.2327 19.7415 43.125C19.8533 42.9442 20.8934 42.5315 20.2981 41.9578C20.2789 41.9392 19.8262 41.7463 19.7899 41.7326L19.9278 41.6254C19.9916 41.5933 20.01 41.5881 20.0714 41.5638C20.36 41.449 20.3162 41.5111 20.5513 41.207C20.6196 41.1184 20.7131 41.0405 20.7467 40.9474C20.5132 40.6813 20.2781 40.5014 20.0459 40.219C19.9368 40.0863 19.8367 39.978 19.73 39.8378C19.6438 39.7245 19.5192 39.5282 19.4151 39.455C19.378 39.2332 19.2836 38.8963 19.2221 38.6716C19.1313 38.3397 19.0781 38.2659 18.9025 38.0546C18.817 37.365 18.7082 36.2944 18.372 35.7148C18.2605 35.5223 18.2062 35.2518 18.1489 34.9977C18.0416 34.5209 17.9589 34.0007 17.8878 33.4703L17.3187 33.296V45.4907ZM57.0543 24.5507C56.7155 24.4462 56.3489 24.3214 55.9019 24.1578L55.9583 24.3746L57.0543 24.5507ZM102.617 32.5111L99.3768 31.6031C97.8865 31.723 96.9479 31.7953 96.0569 31.8271C97.2892 32.1479 98.5914 32.5201 100.203 33.0134L102.617 32.5111ZM97.1299 31.4996C96.8956 31.4832 96.6737 31.465 96.4581 31.4445L96.449 31.5143L92.5672 31.0006C93.4877 31.2009 94.3315 31.3943 95.1813 31.6047L95.6292 31.6204L97.1299 31.4996ZM90.4666 30.1743L87.9292 29.1786L86.2402 29.2625C86.7964 29.4059 87.3529 29.5482 87.9091 29.6889L90.4666 30.1743ZM86.0219 29.0087L84.493 28.8746C84.1045 28.944 83.7594 29.0041 83.4464 29.0562L85.3454 29.0303L85.4253 29.0511C85.6237 29.0365 85.8223 29.0223 86.0219 29.0087ZM82.5813 28.9297L81.0749 28.9744L81.0705 28.9735L80.8603 28.9662L81.7566 29.0774L82.5813 28.9297ZM79.4297 28.6384L78.1282 28.3725L76.4936 28.4348C76.9504 28.4892 77.407 28.544 77.8635 28.5991C78.3843 28.6103 78.9052 28.6235 79.4297 28.6384ZM76.7981 28.1439L74.9941 27.8346L73.1486 27.799L74.6952 28.2231L74.9166 28.2489C75.4861 28.2082 76.1015 28.1751 76.7981 28.1439ZM73.138 27.5162L71.3647 27.2121L70.2835 27.3121L72.0304 27.4949L73.138 27.5162ZM70.2901 27.0278L67.638 26.5729C67.1683 26.5615 66.7791 26.5505 66.4314 26.5365C67.2091 26.7239 68.0083 26.9299 68.8553 27.1605L70.2901 27.0278ZM65.7225 26.2444L64.8691 26.0981L64.3146 26.06C64.4416 26.0866 64.5684 26.1134 64.6954 26.1407L65.4609 26.2381L65.7225 26.2444ZM62.4633 25.6854L61.998 25.6056L61.9364 25.6037C62.0862 25.6301 62.2348 25.6567 62.3828 25.6835L62.4633 25.6854ZM60.0446 24.9834V24.9833C66.0337 26.0107 72.0861 26.9526 78.063 28.0922L78.1348 28.0893L78.1354 28.1059C79.1259 28.2951 80.1142 28.4896 81.0998 28.691C82.4666 28.6504 83.3455 28.6327 84.1581 28.6475L84.4635 28.5928L84.4746 28.6549C85.4261 28.6826 86.3619 28.7577 87.9849 28.8962L91.9657 30.4585L96.4833 31.2333L99.4125 31.3191L103.252 32.3951L103.214 32.5314L103.242 32.6699C102.098 32.9082 101.102 33.0889 100.178 33.2225L100.156 33.2944L100.003 33.2475C99.0704 33.3776 98.208 33.4596 97.3342 33.5043L97.3187 33.548L97.2116 33.5103C96.5389 33.542 95.8573 33.5519 95.1298 33.5453L95.1209 33.5875L94.9109 33.5428C93.9731 33.5301 92.9551 33.4912 91.7808 33.4363C90.9049 33.8839 90.3276 34.1646 89.7754 34.4033L89.7742 34.442L89.6919 34.4393C88.9792 34.7435 88.2853 34.9882 87.0159 35.445L84.7733 36.5145C83.8864 36.7014 82.9982 36.8843 82.1108 37.0688L78.4288 36.7749C76.6575 36.9442 75.4455 37.0451 74.2228 37.1048L74.2063 37.1707L73.9894 37.1157C72.8849 37.1647 71.7422 37.1817 70.145 37.1863L67.7322 38.5754L64.6726 40.6988L60.9406 41.4756L56.2394 42.4688L51.7652 43.3856L51.737 43.247L51.696 43.3822L16.7104 32.6665L16.7277 32.3918L25.5209 30.8863C27.0242 30.3024 28.4221 29.7649 29.8526 29.2463L29.8518 29.2133L29.9508 29.2107C30.7702 28.9145 31.6013 28.6244 32.4699 28.3353C34.7001 27.0161 36.2088 26.1598 38.5038 25.0459L41.1158 23.5027C43.3352 22.6787 44.2463 22.3033 46.3902 21.7644L49.789 22.3653L51.9421 22.4252C52.7898 22.76 53.6401 23.0895 54.489 23.4216C55.4961 23.7232 56.2575 23.9896 57.2504 24.36L60.0446 24.9834ZM38.7236 39.1135L40.527 39.6658L43.1562 39.1185C42.5845 38.932 42.016 38.7417 41.4531 38.5483C40.543 38.7363 39.6332 38.9245 38.7236 39.1135ZM41.0902 39.8384L43.4138 40.55L46.0089 40.0098C45.247 39.7822 44.4838 39.5459 43.7246 39.3023C42.8921 39.4725 42.0231 39.6464 41.0902 39.8384ZM99.4668 33.0833L95.6017 31.8994L95.3326 31.8441C94.6823 31.8516 93.9859 31.8391 93.0544 31.8092C94.3919 32.2288 95.7949 32.7113 97.3847 33.2709L99.4668 33.0833ZM94.0016 31.5705L88.8233 30.5056L87.9549 30.4733C89.4544 30.7796 90.8453 31.1403 92.2868 31.5734C92.7977 31.5559 93.3236 31.5557 94.0016 31.5705ZM88.3289 30.2404L87.8461 29.9697L85.2442 29.9973C85.7438 30.0719 86.2257 30.1503 86.694 30.2332C87.2769 30.2189 87.8129 30.222 88.3289 30.2404ZM86.8193 29.7006L85.3177 29.3148C84.3962 29.4015 83.4772 29.4875 82.5581 29.571C82.7744 29.6177 83.0157 29.6721 83.2975 29.7371C83.4238 29.7521 83.5484 29.7675 83.6723 29.7829C84.6801 29.743 85.7101 29.7176 86.8193 29.7006ZM82.3043 29.3146C82.1251 29.3091 81.9524 29.3021 81.7817 29.2931C81.6164 29.3111 81.455 29.3264 81.2936 29.3398C81.3875 29.3532 81.479 29.3671 81.57 29.3817L81.6862 29.3722L82.3043 29.3146ZM79.939 29.1313C79.3307 29.0622 78.6093 28.9713 77.6629 28.8535L77.1995 28.8509C78.0097 28.9467 78.82 29.0439 79.6315 29.1406L79.939 29.1313ZM75.2737 28.5587C75.1416 28.5386 75.0154 28.5179 74.8914 28.4959L74.6816 28.5039L74.3959 28.5272L74.6282 28.5532C74.8445 28.5548 75.0596 28.5565 75.2737 28.5587ZM74.0521 28.3202C73.5447 28.1996 72.9369 28.0339 72.0121 27.7805L71.0497 27.925C71.6711 28.0684 72.2945 28.2153 72.9244 28.3673L73.271 28.4041C73.5274 28.3731 73.7863 28.3453 74.0521 28.3202ZM70.8996 27.661L69.0002 27.4621C69.4115 27.5532 69.8214 27.645 70.2312 27.7378L70.333 27.7461L70.8996 27.661ZM67.3954 27.0554L65.4222 26.5178L65.0546 26.4484L64.9347 26.4372L67.0069 27.027L67.3954 27.0554ZM60.8214 25.6852C60.4958 25.6281 60.2001 25.5724 59.911 25.5134C59.7899 25.5048 59.6684 25.4954 59.5446 25.4849L60.2395 25.6978C60.4465 25.6928 60.6393 25.6885 60.8214 25.6852ZM59.7014 25.2203L59.8424 25.2572L59.9926 25.2618L59.7014 25.2203ZM88.709 30.1288L88.8912 30.231L89.1428 30.2827C89.3614 30.2976 89.5789 30.3152 89.7977 30.3354L88.709 30.1288ZM55.5804 24.044C55.2596 23.9469 54.9541 23.8484 54.6564 23.7475L54.7765 24.1074C55.0669 24.1734 55.3576 24.2403 55.649 24.3083L55.5804 24.044ZM96.5665 33.2831L92.3178 31.7871L89.3888 32.0797L95.1347 33.3009L96.5665 33.2831ZM91.5863 31.6082L86.6795 30.4275L84.2959 30.6469C85.47 30.9494 86.6113 31.3121 88.4849 31.886C89.9219 31.7482 90.8063 31.6581 91.5863 31.6082ZM85.4775 30.2844C84.7618 30.1995 84.1433 30.1215 83.4992 30.0158L83.2832 30.0181L81.8478 30.1091C82.4879 30.2299 83.0364 30.3446 83.551 30.4643L83.6434 30.4232C84.3128 30.3626 84.9186 30.3167 85.4775 30.2844ZM82.5154 29.8357C82.2496 29.782 81.9712 29.7218 81.6737 29.6532L81.6598 29.6517C81.2152 29.6912 80.7702 29.7298 80.3247 29.7676L80.7109 29.9041L80.8911 29.9355C81.4384 29.8967 81.9769 29.8638 82.5154 29.8357ZM80.2366 29.4913L79.6385 29.4226C79.4547 29.428 79.2601 29.4333 79.0511 29.4386L79.6605 29.5387L80.2366 29.4913ZM77.7549 29.2022C76.7551 29.084 75.7553 28.9643 74.7549 28.8452L74.6679 28.836L74.6054 28.8356C74.1622 28.9852 73.725 29.1271 73.2916 29.2619L77.5773 29.1942L77.6477 29.206L77.7549 29.2022ZM73.9567 28.7561C73.6198 28.7158 73.3355 28.6771 73.0712 28.6352L72.9185 28.6477L70.8799 29.0702L72.4278 29.2723L73.9567 28.7561ZM72.4272 28.5196C71.8735 28.4086 71.2834 28.2622 70.3172 28.0291L68.239 27.8599L70.0785 28.9655L70.0899 28.967C70.9551 28.7745 71.7008 28.6307 72.4272 28.5196ZM68.3263 27.5826C67.9717 27.4995 67.6241 27.416 67.2791 27.331L66.9853 27.3094L66.5426 27.3696L67.6608 27.5284L68.3263 27.5826ZM66.3873 27.1063C65.3736 26.8458 64.3498 26.5652 63.2047 26.2394L62.5767 26.3528L65.5261 27.2224C65.8131 27.1838 66.1002 27.1453 66.3873 27.1063ZM62.1387 26.1452L60.4069 25.9978L61.9617 26.1769L62.1387 26.1452ZM59.6486 25.8132C59.1221 25.6527 58.5956 25.4915 58.0692 25.3301L57.9308 25.3194L59.3638 25.872L59.6486 25.8132ZM54.3194 23.6311C54.0321 23.5302 53.7499 23.4266 53.4661 23.3197L53.4586 23.8137C53.7903 23.8861 54.1219 23.9596 54.4541 24.0344L54.3194 23.6311ZM93.4552 33.2315C91.654 32.8433 90.209 32.5172 88.742 32.1443L88.498 32.1687L85.6253 32.9811L91.7183 33.1512L91.7198 33.1503L93.4552 33.2315ZM88.1179 31.9832C86.7922 31.6355 85.406 31.238 83.6884 30.7123L81.3549 31.7492L84.7027 32.948C85.8413 32.6306 86.9812 32.3084 88.1179 31.9832ZM83.1964 30.6219L80.6699 30.1844L78.0803 30.4622L80.9724 31.6103L83.1964 30.6219ZM80.1158 29.9941L79.6368 29.8246L77.3909 29.9947L77.5634 30.2331C78.4606 30.1378 79.302 30.0592 80.1158 29.9941ZM78.4886 29.6315L77.557 29.4776L76.3537 29.533L77.2124 29.7477L77.2248 29.765C77.5989 29.7144 77.9879 29.6744 78.4886 29.6315ZM73.3349 29.5231C73.0725 29.5164 72.8096 29.5059 72.5383 29.4905C72.3075 29.5587 72.0774 29.6249 71.8479 29.6892L73.3349 29.5231ZM71.7646 29.4354C71.2513 29.3915 70.69 29.33 70.0396 29.2454L68.4261 29.6486L69.77 29.9186L71.7646 29.4354ZM69.6845 29.0586L67.6617 27.8428L66.6158 28.7213L67.8089 29.5111C68.503 29.3378 69.1201 29.1883 69.6845 29.0586ZM67.3146 27.7646C66.6545 27.6678 66.1398 27.5805 65.6786 27.487L65.5463 27.505L64.1824 27.9142L66.3471 28.577L67.3146 27.7646ZM65.0685 27.3527C64.2209 27.1506 63.416 26.8954 61.9563 26.4648L61.8789 26.4788L61.0418 26.8C61.9051 27.1016 62.7716 27.4163 63.6993 27.7634L65.0685 27.3527ZM61.3233 26.3885L59.3577 26.1619L59.3186 26.1575L59.0607 26.1284C59.5748 26.2976 60.0754 26.466 60.5734 26.6375L60.6619 26.6423L61.3233 26.3885ZM58.2868 25.7598L56.9285 25.2363L56.9272 25.2358C56.771 25.2215 56.6175 25.2066 56.4651 25.1908L57.7195 25.6952L57.8041 25.7221C57.9589 25.7307 58.1133 25.7431 58.2868 25.7598ZM55.9618 24.8681L54.6253 24.3591L54.5268 24.3373L55.5779 24.8326L55.9618 24.8681ZM53.1851 23.213C52.826 23.0757 52.461 22.9325 52.0768 22.7821L52.1534 23.5349C52.495 23.6063 52.8361 23.6788 53.177 23.7526L53.1851 23.213ZM91.1936 33.4192L84.731 33.2389L83.4227 33.9489L89.747 34.1583L91.1936 33.4192ZM84.3504 33.1237C83.2127 32.7176 82.1128 32.3133 81.0168 31.8994L81.0163 31.8996C80.3814 32.0225 79.7441 32.1426 79.1076 32.2607C80.0752 32.6314 81.0343 33.0763 82.8925 33.9152L84.3504 33.1237ZM80.5096 31.7072C79.5145 31.3283 78.5182 30.9402 77.4953 30.534L75.7304 31.1836C76.9872 31.5459 77.8083 31.7948 78.5326 32.0495L78.7065 32.0471L80.5096 31.7072ZM77.2726 30.3143L77.0668 30.0298L74.8156 30.5002L75.3394 31.0615C75.965 30.8089 76.6045 30.5616 77.2726 30.3143ZM76.5412 29.8712L75.3928 29.5828L73.7588 30.0699C74.0205 30.1363 74.2823 30.2022 74.544 30.2679C75.4335 30.0831 76.0253 29.9611 76.5412 29.8712ZM73.9066 29.7441L69.9235 30.1892C69.7202 30.2377 69.5168 30.2851 69.313 30.3311L73.238 29.9375L73.2699 29.9456C73.4817 29.878 73.6939 29.8109 73.9066 29.7441ZM69.1082 30.0751C68.6607 29.9853 68.2133 29.8946 67.7661 29.8043L66.0088 29.6697C66.3306 29.9076 66.6936 30.1908 67.1321 30.5417L69.1082 30.0751ZM67.2501 29.4807L66.338 28.877C65.7256 28.89 65.2509 28.894 64.8251 28.8875C65.0679 29.0253 65.306 29.1748 65.5634 29.3515L67.2501 29.4807ZM65.5074 28.6117C64.9019 28.4205 64.3288 28.2328 63.7619 28.0403L63.7078 28.0565L62.8448 27.9576C63.464 28.2218 63.9316 28.4254 64.3474 28.6334L64.3699 28.6355L65.5074 28.6117ZM62.6745 27.6629C62.0284 27.4339 61.3685 27.1919 60.6562 26.9252L59.9122 26.8854C60.5852 27.1107 61.2594 27.3392 61.9396 27.5718L62.0233 27.6076C62.2367 27.6238 62.452 27.6421 62.6745 27.6629ZM59.6197 26.5901C59.0056 26.3883 58.4373 26.1939 57.8899 25.9964L57.6667 25.9713L57.1686 25.9822C57.779 26.1796 58.385 26.3779 58.9901 26.5783C59.1846 26.5765 59.3825 26.5808 59.6197 26.5901ZM57.1062 25.7062C56.5865 25.5086 56.075 25.3033 55.5484 25.0806C55.371 25.0562 55.1914 25.0295 55.0075 25C55.4376 25.2278 55.8719 25.4617 56.3204 25.7069L56.391 25.7167C56.6739 25.7105 56.905 25.7068 57.1062 25.7062ZM54.5415 24.6422C54.1364 24.4611 53.7154 24.2674 53.2697 24.0577L53.12 24.0244C53.4906 24.2112 53.8538 24.3969 54.2157 24.5847L54.5415 24.6422ZM51.7846 22.7035C50.9979 22.6808 50.4303 22.6528 49.9286 22.6091L49.9946 23.1004C50.6217 23.2217 51.2436 23.3464 51.8631 23.4745L51.7846 22.7035ZM89.0389 34.4177L82.9179 34.215C82.3534 34.3922 81.7883 34.5691 81.2233 34.7453L86.9673 35.1749L86.9645 35.2114C87.5887 34.9525 88.2056 34.7203 89.0389 34.4177ZM82.5003 34.0489L78.6916 32.3298L75.9437 32.3691L80.4836 34.6786L82.5003 34.0489ZM77.7628 32.0606L75.2847 31.3503L73.438 32.1545L75.4359 32.1384L75.6266 32.0911L77.7628 32.0606ZM75.0588 31.1756L74.5046 30.5818C73.4594 31.0246 72.864 31.2778 72.2596 31.4958L72.8034 32.1488C73.5553 31.8079 74.2983 31.487 75.0588 31.1756ZM74.098 30.4472L73.2321 30.2282L70.735 31.0669C71.1689 31.1524 71.6036 31.2359 72.0374 31.32L74.098 30.4472ZM72.0499 30.3409L67.0552 30.8417L67.0033 30.8002C66.7268 30.8503 66.4483 30.8987 66.1675 30.9455L70.1967 30.9606C70.8143 30.7506 71.4311 30.5441 72.0499 30.3409ZM66.7541 30.6006L65.547 29.6343L65.4638 29.628C64.6215 29.8774 64.0055 30.0477 63.4495 30.1816L64.3906 30.9314L66.7541 30.6006ZM65.182 29.4164L64.2985 28.902L64.2255 28.8703C63.5993 28.8435 62.9865 28.7888 62.0442 28.7006L63.2323 29.9935L65.182 29.4164ZM63.4937 28.5532L61.8631 27.8463L60.4655 27.7995C60.8128 27.9535 61.2109 28.1399 61.7291 28.3873L63.4937 28.5532ZM60.9786 27.5423L58.9094 26.8344L58.0649 26.9094C58.8086 27.1538 59.2907 27.317 59.7747 27.5085L59.8067 27.4946C60.2313 27.5089 60.6139 27.5241 60.9786 27.5423ZM58.2211 26.6137L56.2458 25.9821L55.4726 25.8746L57.3882 26.6854C57.7239 26.6545 57.991 26.6309 58.2211 26.6137ZM55.5301 25.5969L54.1671 24.8517C53.6593 24.7701 53.1852 24.6895 52.7254 24.6069L54.4714 25.4496L55.5301 25.5969ZM53.3171 24.4317L51.9757 23.7704L50.6884 23.5224L51.8802 24.1976C52.3652 24.2756 52.8423 24.3526 53.3171 24.4317ZM49.6396 22.5814C48.8575 22.4995 48.1705 22.3702 46.924 22.1472L47.5514 22.6429L49.7019 23.0451L49.6396 22.5814ZM86.4695 35.4217L80.4557 34.9718L79.0275 34.9307L84.7098 36.2307C85.4113 35.8964 85.9609 35.6427 86.4695 35.4217ZM79.8449 34.6715L75.4373 32.4296L73.6225 32.8796L77.6266 34.6075L79.8449 34.6715ZM74.2582 32.4305L72.7805 32.4424L71.7768 32.9318L73.1512 32.705L74.2582 32.4305ZM72.5371 32.2702L71.9761 31.5968L71.9732 31.5962C71.496 31.7588 70.9708 31.9147 70.1867 32.1349L70.8857 33.0511C71.449 32.7772 71.9962 32.5183 72.5371 32.2702ZM71.4402 31.4918L70.1967 31.2481C69.5791 31.4646 68.9683 31.6761 68.3584 31.8845C68.901 31.8866 69.4525 31.8964 70.0197 31.9161L70.0232 31.9207C70.4033 31.789 70.8119 31.6686 71.4402 31.4918ZM69.3797 31.24L64.3809 31.2213L62.5464 32.0638C64.2747 31.9838 65.8652 31.9043 67.5081 31.8874L67.6508 31.8409C68.23 31.6379 68.8056 31.4376 69.3797 31.24ZM64.0822 31.0474C63.6626 30.7113 63.3819 30.4771 63.1385 30.2541C62.281 30.4475 61.495 30.5691 60.1118 30.7896L61.8454 32.0747L64.0822 31.0474ZM62.9258 30.053C62.5938 29.7291 62.2753 29.3711 61.6651 28.7065L59.7425 30.1248L59.8724 30.5885C60.7504 30.4011 61.5892 30.2667 62.9258 30.053ZM61.4062 28.546L59.8302 27.7921L57.8935 28.6301C58.4537 29.0531 59.0177 29.4729 59.5803 29.8929L61.4062 28.546ZM59.4364 27.6549C58.755 27.4278 58.1023 27.1983 57.4694 26.9622L57.2594 26.9809C56.5636 27.1047 55.9169 27.2025 55.2965 27.2797C56.0701 27.6675 56.8435 28.0582 57.6192 28.4412L59.4364 27.6549ZM56.9191 26.7537C56.0823 26.4311 55.2763 26.0949 54.4788 25.7363L54.425 25.7288L51.9476 25.8877L54.9417 27.1056L56.9191 26.7537ZM53.9145 25.4781C53.2127 25.1515 52.5136 24.8058 51.8018 24.4345C51.1312 24.3045 50.4644 24.1647 49.7386 24.0036L51.3868 25.6511C52.2279 25.5911 53.0691 25.5333 53.9145 25.4781ZM50.9722 23.9935C50.5938 23.7886 50.2102 23.576 49.8195 23.3551L48.3423 23.0788L49.3443 23.6254L50.9722 23.9935ZM46.3624 22.0633L44.7619 22.4631L44.9478 22.7391C45.667 22.7116 46.387 22.6823 47.1063 22.6512L46.3624 22.0633ZM84.0636 36.3732L77.5938 34.893L75.2859 35.3818L82.1021 36.7816L84.0636 36.3732ZM77.1299 34.7018L73.2268 33.0176L71.9624 34.7033L74.592 35.2394L77.1299 34.7018ZM72.8566 33.0404L70.8714 33.3678C70.0923 33.5699 69.5234 33.7106 69.0127 33.8218L71.6618 34.6331L72.8566 33.0404ZM70.6019 33.1456L69.9028 32.2296C69.1969 32.5397 68.6283 32.7771 68.0881 32.9872L68.5929 33.663L70.6019 33.1456ZM69.3513 32.1755L67.6957 32.117L67.671 32.1181C67.1235 32.3032 66.5749 32.4862 66.0209 32.6684C66.6286 32.7103 67.2424 32.7593 67.8679 32.8174C68.5291 32.5258 68.9747 32.3293 69.3513 32.1755ZM66.6609 32.1633L61.8427 32.3789L61.2888 32.4414C62.633 32.488 63.9378 32.5392 65.2612 32.6193L65.3531 32.5893L66.6609 32.1633ZM61.4543 32.1373C60.8788 31.7115 60.3036 31.2848 59.7289 30.8578L57.7574 31.4064L59.3597 32.3705L61.4543 32.1373ZM59.5955 30.6491L59.4716 30.2068C58.7549 30.1826 58.0858 30.1404 57.4417 30.0826L57.5305 31.1762C58.3665 30.9448 59.0021 30.7821 59.5955 30.6491ZM59.1379 29.9143L57.567 28.7372C56.7209 28.7229 55.9651 28.6988 55.2317 28.6633C55.9305 29.0643 56.6325 29.4612 57.3324 29.8599L59.1379 29.9143ZM56.9956 28.4448L54.8731 27.3835L54.7689 27.3412C53.9495 27.4301 53.1663 27.4846 52.3638 27.5184L54.7748 28.4066L56.9956 28.4448ZM54.2872 27.1452L51.2993 25.9297L48.9143 26.1175L51.7296 27.2837L54.2872 27.1452ZM51.0138 25.6779L49.2346 23.8997L46.9393 23.8762L48.4346 25.8719L48.4366 25.8709C49.2992 25.8041 50.1568 25.7398 51.0138 25.6779ZM48.7298 23.6123L47.4585 22.9186L45.4508 23.0012L46.6888 23.5912C47.3691 23.5993 48.0495 23.6057 48.7298 23.6123ZM44.4764 22.5463L41.3885 23.7023L41.5591 23.9813C42.4229 23.6231 43.2876 23.3067 44.6552 22.8118L44.4764 22.5463ZM79.8206 36.6016L74.578 35.525L72.8795 35.5268L78.4464 36.492L79.8206 36.6016ZM73.2382 35.244C72.7138 35.1296 72.2542 35.0227 71.807 34.9104L71.7829 34.9426L69.9427 34.8404L71.2666 35.246L73.2382 35.244ZM70.6287 34.5952C70.0046 34.4187 69.3205 34.2122 68.4497 33.9447L68.4447 33.938C67.9372 34.035 67.4295 34.1135 66.7511 34.2093L68.8022 34.4936L70.6287 34.5952ZM68.2788 33.7159L67.8158 33.0962L67.8064 33.0954C67.0579 33.3787 66.3278 33.6242 65.3156 33.9579L65.7284 34.0653L68.2788 33.7159ZM67.2064 33.0382L65.4133 32.8673L63.5385 33.4815C63.9581 33.5867 64.3818 33.7007 64.8117 33.8258L67.2064 33.0382ZM64.5943 32.8378L59.5739 32.6663C60.7377 32.8714 61.8711 33.0843 63.0268 33.357L63.0431 33.346L64.5943 32.8378ZM58.7318 32.3227L57.3464 31.489L55.2121 30.8519L56.5822 32.1372L58.7318 32.3227ZM57.2452 31.1635L57.1576 30.0858L57.0942 30.0497C56.1644 29.9569 55.2791 29.8318 54.3676 29.6821L54.7908 30.4566L54.8014 30.4664C55.6023 30.6858 56.4046 30.9139 57.2452 31.1635ZM56.5573 29.7433L54.6883 28.6767L54.5527 28.6267C53.7556 28.5797 52.96 28.5183 52.076 28.4404C52.6113 28.6666 53.2273 28.9483 54.1518 29.3707L56.5573 29.7433ZM53.6983 28.3084C53.0202 28.0536 52.3583 27.7997 51.6994 27.5419C51.0471 27.5606 50.3728 27.5686 49.6482 27.5728C50.3078 27.7805 50.7868 27.9395 51.2325 28.1048L51.322 28.0883L53.6983 28.3084ZM51.0528 27.2872C50.1829 26.9425 49.3105 26.588 48.4049 26.2125L46.7648 27.1295L48.7421 27.2939L51.0528 27.2872ZM48.1859 26.011L46.6118 23.9104L43.8953 25.2417L46.3031 27.0637L48.1859 26.011ZM46.3304 23.7345L44.8666 23.0367L41.8223 24.1267L43.6788 25.0838C44.5113 24.6435 45.3763 24.2058 46.3304 23.7345ZM41.1306 23.8227C40.2466 24.3439 39.4978 24.7709 38.746 25.1773L38.7906 25.2447C39.8417 24.7376 40.5851 24.3935 41.2952 24.0921L41.1306 23.8227ZM77.3564 36.5934C75.193 36.23 73.4441 35.962 71.5674 35.5282L71.2575 35.5285L69.7793 35.7661C70.9284 36.0126 72.226 36.3759 74.2524 36.8902L77.3564 36.5934ZM70.7345 35.3266C70.1152 35.1698 69.4745 34.9917 68.7944 34.784C68.2426 34.9941 67.6997 35.1953 67.1595 35.3913C67.8333 35.4388 68.4233 35.5122 69.0182 35.6169L69.0643 35.5947C69.6212 35.5059 70.1778 35.4164 70.7345 35.3266ZM68.2218 34.6989C67.1925 34.5559 66.5142 34.4582 65.8669 34.3317L65.7717 34.3447L64.3024 35.3231C65.1493 35.3177 65.8591 35.327 66.4873 35.3538L66.633 35.304L68.2218 34.6989ZM65.4202 34.2388C65.2436 34.1998 65.0638 34.1574 64.8745 34.1101L63.6583 35.2121L63.8217 35.3031L65.4202 34.2388ZM64.5469 34.026C64.1443 33.9201 63.6891 33.7915 63.1311 33.6286L61.8146 34.5281L63.3852 35.0785L64.5469 34.026ZM62.7422 33.5515L56.4549 32.4058L56.4035 32.3576C56.0656 32.3117 55.7253 32.2607 55.3586 32.2018L61.4836 34.4115L62.7422 33.5515ZM56.0767 32.0516C55.5868 31.5924 55.0972 31.1329 54.6079 30.6731L52.1635 30.0587L53.8762 31.6613L56.0767 32.0516ZM54.4168 30.3618L54.0129 29.6229C53.1973 29.4846 52.3538 29.3279 51.433 29.1582L51.7564 29.6646C52.6791 29.9004 53.5505 30.1272 54.4168 30.3618ZM53.0218 29.1631L51.3107 28.378L49.6455 28.6845L51.167 28.8545L51.3072 28.8475L53.0218 29.1631ZM50.7344 28.1965L48.7322 27.5832L47.1251 28.0875L48.6871 28.5734L50.7344 28.1965ZM47.9991 27.5166L46.3054 27.3757C45.6178 27.5854 44.9362 27.79 44.2559 27.9912L46.6266 27.9472L47.9991 27.5166ZM45.9845 27.1777L43.6143 25.3843L41.5981 26.5001L43.2984 27.9927L45.9845 27.1777ZM43.375 25.2455L41.4659 24.2612L39.0901 25.4137L41.407 26.3428C42.0657 25.9598 42.712 25.6003 43.375 25.2455ZM38.4957 25.3119C37.781 25.6935 37.0497 26.0641 36.1837 26.4863L36.6468 26.9155L38.5512 25.396L38.4957 25.3119ZM73.1204 36.8953L69.1212 35.8808L67.0333 36.8817L70.1048 36.9039L73.1204 36.8953ZM68.6096 35.8133L66.6724 35.5779L66.6413 35.5782C65.8129 35.875 64.9853 36.1628 64.1348 36.4555L66.4353 36.8775L66.4908 36.8779C67.0718 36.5583 67.6664 36.2672 68.6096 35.8133ZM65.8025 35.5877L63.8392 35.6098L62.1721 35.7288L63.5839 36.3454L65.8025 35.5877ZM62.1876 34.9567L61.4895 34.7096L60.1677 34.5369C60.4408 34.6302 60.7137 34.724 60.9867 34.8186L61.0197 34.852C61.3833 34.8771 61.7532 34.9107 62.1876 34.9567ZM60.2251 34.2593C58.0761 33.4916 55.931 32.7131 53.7858 31.9348L52.2244 31.923C54.4271 32.6368 56.6243 33.3439 58.8163 34.0793L58.8433 34.0787L60.2251 34.2593ZM53.4506 31.6505C52.8379 31.0786 52.226 30.5057 51.615 29.9321L49.3322 30.0387L51.3594 31.6341C52.0561 31.6416 52.7536 31.6464 53.4506 31.6505ZM51.4178 29.659L51.0872 29.1416C50.1478 29.1868 49.3263 29.2135 48.522 29.2247L49.0249 29.7905C49.8169 29.7431 50.6104 29.6996 51.4178 29.659ZM49.4066 28.9426L48.6667 28.8599L47.3479 28.7683L48.2734 28.9994L49.4066 28.9426ZM47.477 28.4934L46.6383 28.2326L45.5554 28.3829L45.7458 28.3756L45.7548 28.3737L45.7692 28.3747L45.7807 28.3743L45.7875 28.376L47.477 28.4934ZM44.2882 28.2732L43.228 28.2928C42.8852 28.3926 42.5422 28.4918 42.1983 28.5905C42.3078 28.5788 42.415 28.5678 42.5207 28.5576L42.7378 28.4884L44.2882 28.2732ZM42.9751 28.0851L41.3405 26.6502L39.2075 28.0145L40.3648 28.8253L40.5745 28.7958C41.3256 28.5574 42.0829 28.3363 42.9751 28.0851ZM41.0979 26.5237L38.7646 25.5879C38.0577 26.1514 37.4721 26.6067 36.8798 27.044L38.9388 27.8512C39.6988 27.3658 40.4075 26.9303 41.0979 26.5237ZM35.9171 26.6251L33.0964 28.2936L34.7183 28.2112L36.412 27.0837L35.9171 26.6251ZM69.5885 37.1827L66.4625 37.1602C65.8468 37.5549 65.2553 37.9248 64.6681 38.2835L67.6562 38.3156L67.6559 38.3573C68.2607 37.9736 68.8838 37.5945 69.5885 37.1827ZM66.0912 37.1035C65.2513 36.9529 64.4105 36.7958 63.572 36.6398L61.3934 36.8245L64.2285 38.2573C65.0343 37.7407 65.5856 37.3958 66.0912 37.1035ZM63.0068 36.4032C62.5264 36.1942 62.0461 35.9839 61.5667 35.7731L59.9419 35.9434L60.9198 36.5802L63.0068 36.4032ZM61.2935 35.5307L60.8494 35.0821L58.8056 35.0592L59.5753 35.6976C60.1593 35.6371 60.7276 35.5819 61.2935 35.5307ZM60.0853 34.8046L58.8125 34.362L57.1391 34.3949C57.5682 34.5165 57.998 34.642 58.4293 34.7725C59.1026 34.7802 59.6232 34.7888 60.0853 34.8046ZM57.9977 34.0968L51.308 31.9232L49.5351 32.4727C51.8082 33.0238 54.0165 33.5396 56.2371 34.1443L56.2813 34.1291C56.8532 34.1191 57.4255 34.1084 57.9977 34.0968ZM51.0095 31.7203C50.3054 31.1694 49.6007 30.6163 48.9012 30.0604L46.2514 30.256L49.0318 32.3325C49.6909 32.1281 50.3508 31.9257 51.0095 31.7203ZM48.6654 29.8123L48.1819 29.2684L48.0277 29.2297C47.1255 29.2352 46.2188 29.2217 45.1638 29.193L45.9197 29.9966C46.848 29.9291 47.7569 29.8681 48.6654 29.8123ZM46.9629 28.9628L45.7621 28.6617L44.5954 28.9092L44.7914 28.9021L44.7957 28.8999L44.8279 28.9009L44.8871 28.8989L44.8906 28.9026L46.9629 28.9628ZM44.1379 28.7179L42.7941 28.7675L41.6793 29.1142C42.0762 29.0716 42.4751 29.0352 42.8834 29.0044L42.9687 28.9648C43.3585 28.8832 43.7482 28.8007 44.1379 28.7179ZM41.1713 28.9966L40.364 29.1112C40.0805 29.2164 39.8224 29.3111 39.5826 29.3972C39.8573 29.3531 40.127 29.3122 40.3939 29.2745C40.6301 29.1843 40.88 29.0953 41.1713 28.9966ZM40.0654 28.9604L38.9309 28.1656C38.1391 28.4262 37.3776 28.6675 36.6201 28.8993C36.9963 29.0702 37.4058 29.281 38.1174 29.6443C38.8275 29.3812 39.454 29.1616 40.0654 28.9604ZM38.5361 27.9975L36.6094 27.2421C36.137 27.5855 35.6482 27.9264 35.0795 28.3096C35.6054 28.4924 35.9515 28.6172 36.2627 28.7449L36.266 28.7439L38.5361 27.9975ZM61.2947 35.1299L61.6591 35.4983C62.1963 35.4513 62.7341 35.4077 63.2839 35.3664L61.2947 35.1299ZM32.5559 28.6043L30.8002 29.1888L31.1424 29.1799L31.4922 29.2744C32.205 29.0294 32.9238 28.7902 33.678 28.5473L32.5559 28.6043ZM67.2854 38.5942L64.2112 38.561C63.3753 39.0656 62.5383 39.5547 61.6427 40.0683L64.5796 40.4191C65.5923 39.7164 66.4337 39.1433 67.2854 38.5942ZM63.9375 38.4282C62.6477 37.7837 61.7549 37.3641 60.9039 36.8693L57.9194 38.0194L61.2018 39.994L63.9375 38.4282ZM60.5952 36.6853C60.2547 36.4769 59.9141 36.2505 59.55 35.9864L55.4983 37.2398L57.593 37.8423C58.595 37.4611 59.5947 37.0712 60.5952 36.6853ZM59.2677 35.7776C58.9892 35.5677 58.6947 35.3344 58.3751 35.0702L55.5379 35.88L54.0098 36.416L55.0259 37.09C56.4401 36.6535 57.8537 36.2148 59.2677 35.7776ZM57.9111 34.909L56.3099 34.4185L53.6968 35.3093L51.1722 36.3627L53.7018 36.2346C55.1004 35.7617 56.4184 35.3422 57.9111 34.909ZM55.8062 34.2933L49.0383 32.6428L46.728 34.4597L50.3749 36.3887C52.3374 35.5704 53.875 34.9661 55.8062 34.2933ZM48.7715 32.4922C47.8078 31.7752 46.8403 31.0589 45.8822 30.335L43.8358 32.6574L46.4601 34.3101L48.7715 32.4922ZM45.6714 30.1456L44.7969 29.216L41.4086 30.9223L43.598 32.4986L45.6714 30.1456ZM44.1944 29.2038L43.0471 29.2404L39.6086 30.8269L41.1794 30.7573L41.2172 30.7846C42.0486 30.3092 42.9325 29.8439 44.1944 29.2038ZM42.1809 29.3299L40.3842 29.519L37.8941 30.7232C38.2144 30.7626 38.5393 30.8057 38.8744 30.854C39.9769 30.3474 41.0797 29.8396 42.1809 29.3299ZM39.3699 29.7068L38.086 29.9464L38.0304 29.918C37.3813 30.1164 36.7472 30.2831 35.8587 30.5072C36.3737 30.5554 36.8706 30.6048 37.3715 30.6615C38.2758 30.2251 38.8731 29.9339 39.3699 29.7068ZM37.7069 29.7529L36.2531 29.0109C35.3186 29.2937 34.3841 29.5645 33.4002 29.8426C33.8655 29.9983 34.3598 30.1772 35.0259 30.4242L37.7069 29.7529ZM35.832 28.8664L34.7623 28.4996L31.9184 29.3919C32.3234 29.5051 32.6661 29.6062 33.0022 29.7128C33.8331 29.4447 34.7502 29.173 35.832 28.8664ZM29.8835 29.4952L26.6378 30.7557L27.7484 30.6269C28.8721 30.2042 29.9044 29.8275 30.9332 29.4681L29.8835 29.4952ZM63.7391 40.6041L61.208 40.3016C60.139 40.5493 59.1129 40.7775 58.0949 40.9944L60.9027 41.1945L63.7391 40.6041ZM60.8275 40.0988L57.6015 38.1581L54.5791 40.1167L57.2272 40.9278L60.8275 40.0988ZM57.261 38.0417L55.0188 37.3967L51.9206 39.0086C52.6229 39.2829 53.368 39.6008 54.2364 40.0018L57.261 38.0417ZM54.725 37.23L53.6747 36.5335L51.9361 37.1433C50.9381 37.4914 50.0089 37.7826 49.1109 38.0373C49.9653 38.3044 50.7303 38.5576 51.533 38.8599L51.6318 38.8393L54.725 37.23ZM52.7303 36.5671L50.3867 36.6856C49.2633 36.9248 48.1389 37.1613 47.014 37.3961C47.668 37.5953 48.2517 37.7713 48.7951 37.9392L51.843 36.8762C52.1457 36.7701 52.4408 36.6672 52.7303 36.5671ZM49.9551 36.4863C48.6995 35.8196 47.5965 35.2152 46.545 34.6031C45.4679 35.1333 44.5323 35.5795 43.6592 35.9663C44.581 36.3693 45.506 36.7849 46.4454 37.217L49.9551 36.4863ZM46.2527 34.432C45.3814 33.9189 44.5392 33.3959 43.6677 32.8222L40.1489 34.4857C41.2337 34.9265 42.3036 35.3767 43.3763 35.843L46.2527 34.432ZM43.3919 32.6395C42.6737 32.1614 41.9316 31.6464 41.1334 31.0724C39.2772 32.2878 38.3684 32.8939 37.4402 33.4162C38.2368 33.722 39.0188 34.0294 39.7922 34.3414L43.3919 32.6395ZM40.7438 31.0597L38.9512 31.139L36.2959 33.4569L37.1506 33.341C38.7436 32.2981 39.7509 31.6459 40.7438 31.0597ZM38.5706 31.096L37.4824 30.9386L35.0824 33.2782L35.814 33.5022L38.5706 31.096ZM37.1147 30.902L35.0652 30.7184L32.9074 32.612L34.774 33.1837L37.1147 30.902ZM34.7456 30.6227L32.9754 29.9658L29.8819 31.0887L32.6035 32.5026L34.7456 30.6227ZM32.5724 29.8537L31.4224 29.5474L31.4138 29.5502C30.2679 29.9812 29.2549 30.3648 28.3086 30.7133C28.7311 30.7861 29.1539 30.8585 29.5764 30.93L29.6514 30.969C30.6176 30.5489 31.5347 30.1998 32.5724 29.8537ZM25.5772 31.1639C24.443 31.3588 23.3087 31.5531 22.1744 31.7472L23.5155 32.1677L26.5993 31.0453L25.5772 31.1639ZM59.8976 41.4068L57.1983 41.2144L57.1369 41.1957C56.1061 41.4092 55.0722 41.6136 53.9985 41.8174L56.2079 42.1864L59.8976 41.4068ZM56.6297 41.0411C55.5736 40.7187 54.9386 40.5187 54.3196 40.2849L54.3011 40.2968L50.8062 40.9481L53.2199 41.6873L53.2441 41.6914C54.3676 41.4703 55.4919 41.2546 56.6297 41.0411ZM53.839 40.0955C53.2762 39.8646 52.6438 39.5758 51.6635 39.1218L47.603 39.967L50.2623 40.7815C51.4487 40.548 52.636 40.3207 53.839 40.0955ZM51.112 38.9476C50.1379 38.6501 49.3385 38.4078 48.6126 38.1757C47.3108 38.5302 46.0609 38.8142 44.744 39.0913L47.0413 39.7949L51.112 38.9476ZM48.2492 38.0583C47.6807 37.8725 47.1486 37.6885 46.6 37.4824C45.1869 37.7768 43.7733 38.069 42.3597 38.361L44.1544 38.9107L48.2492 38.0583ZM46.0977 37.2894C45.3015 36.9764 44.4398 36.6052 43.3617 36.1089L43.3475 36.1029C42.0439 36.6686 40.8626 37.104 39.5283 37.4938L41.789 38.1863L46.0977 37.2894ZM43.0348 35.9721L39.8545 34.6418L37.1586 36.7681L39.2173 37.3985L43.0348 35.9721ZM39.5484 34.5224L37.1847 33.6217L37.0255 33.6433C36.229 34.0679 35.32 34.4881 33.7373 35.209L36.8396 36.659L39.5484 34.5224ZM36.2697 33.7458L35.8886 33.7974C34.9913 34.2118 34.0935 34.6259 33.1965 35.041L33.3777 35.0621L36.2697 33.7458ZM35.4513 33.6876L34.8018 33.4903C33.4191 33.779 32.036 34.0668 30.653 34.3545L32.6704 34.9725L35.4513 33.6876ZM34.2384 33.3185C33.6973 33.1532 33.1566 32.9871 32.6171 32.8188L28.4627 33.6835L30.0899 34.1821L34.2384 33.3185ZM32.2058 32.6154L29.5299 31.2253L26.1481 32.9745L27.9009 33.5115L32.2058 32.6154ZM29.2257 31.1572L27.7774 30.9087L27.7728 30.9093C26.3848 31.4134 25.1193 31.8433 23.7523 32.2407L25.7614 32.8561C27.1186 32.1545 28.2114 31.613 29.2257 31.1572ZM21.5624 31.8519L17.3616 32.5705L19.0796 33.0967L22.9605 32.2888C22.4943 32.1436 22.0282 31.998 21.5624 31.8519ZM55.4524 42.3414C54.792 42.2212 54.1047 42.0839 53.3961 41.9309L53.2181 41.9641L50.1299 42.6071L51.7436 43.1014L55.4524 42.3414ZM52.7509 41.7887C51.8465 41.5854 50.9118 41.3587 49.9586 41.1123L47.1548 41.6959L49.5682 42.435C50.637 42.2126 51.6945 41.9981 52.7509 41.7887ZM49.3705 40.958C48.4522 40.7148 47.5193 40.4541 46.5821 40.1795L43.9755 40.7221L46.593 41.5238C47.5253 41.3299 48.4488 41.1418 49.3705 40.958ZM40.9263 38.3658C40.2588 38.1327 39.5999 37.8958 38.9544 37.6561C38.114 37.8861 37.2031 38.1039 36.1591 38.328L38.1615 38.9414H38.1616L40.9263 38.3658ZM38.6152 37.5294C38.062 37.3217 37.5195 37.112 36.9895 36.9014L36.9209 36.9556L33.7996 37.6053L35.6007 38.1569L38.6152 37.5294ZM36.5801 36.7375C35.4523 36.2824 34.3877 35.8235 33.4126 35.369L31.2458 36.8231L33.2378 37.4333H33.2379L36.5801 36.7375ZM33.0027 35.3035L32.6872 35.2668L28.8039 36.0752L30.8974 36.7164L33.0027 35.3035ZM32.1113 35.0976L30.0708 34.4757L26.2061 35.2795L28.242 35.9031L32.1113 35.0976ZM29.5064 34.3035C28.9632 34.1377 28.4202 33.9717 27.8771 33.8054L24.017 34.609L25.6443 35.1075H25.6444L29.5064 34.3035ZM27.3154 33.6334C26.7972 33.4745 26.279 33.3153 25.7609 33.1557L21.8976 33.9599L23.4551 34.4369H23.4551L27.3154 33.6334ZM25.2013 32.9832C24.5534 32.7833 23.9057 32.5827 23.2584 32.3815C22.166 32.6872 20.9952 32.9759 19.6378 33.2677L21.3358 33.7878H21.3359L25.2013 32.9832ZM102.673 49.624L102.675 46.6343L102.686 33.2202C101.917 33.3804 101.149 33.5404 100.38 33.6993L100.298 33.7173L100.288 33.7182L97.4146 33.9772L97.3725 33.9795C97.1732 33.9826 96.9758 33.985 96.7796 33.9867L94.952 34.0092L94.2849 33.978C93.457 33.966 92.6252 33.946 91.7596 33.9229L90.0915 34.7752L90.0098 34.8192L86.9302 35.9569L84.9132 36.9188L82.1416 37.4957L82.135 37.4971L82.0217 37.4881L78.1262 37.2387L74.3476 37.5909L74.2712 37.5982H74.2692L74.2684 37.5982L70.2584 37.6097L67.9645 38.9304L64.843 41.0967L61.027 41.8911C58.1187 42.5055 55.2153 43.1112 52.3042 43.708V62.5459V68.7025V74.5478C53.8102 74.2707 55.9433 73.7488 57.3072 73.3898C59.1879 72.8947 62.3529 68.3684 63.8868 66.0511C66.5473 61.6813 70.5162 57.6895 78.0924 57.3591C87.8393 55.85 94.8024 48.9225 102.673 49.624ZM76.5065 48.203C78.8546 50.3684 83.5301 53.8412 87.8142 53.5585C92.0981 53.2759 95.9907 49.2379 97.8803 46.8524C99.7699 44.4669 99.6565 43.7339 97.6604 45.1867C95.6642 46.6396 91.7852 50.2783 87.5474 50.4984C83.3098 50.7185 78.7134 47.5201 76.4256 46.3499C74.1377 45.1796 74.1584 46.0377 76.5065 48.203ZM82.7266 38.7022C83.6543 39.4754 85.5041 40.7124 87.2101 40.5969C88.916 40.4814 90.4781 39.0132 91.2377 38.1473C91.9974 37.2813 91.9546 37.0175 91.1556 37.5475C90.3564 38.0777 88.801 39.4017 87.1137 39.4946C85.4264 39.5874 83.6071 38.4489 82.7003 38.0344C81.7935 37.6198 81.799 37.9291 82.7266 38.7022ZM80.386 41.37C81.8083 42.351 84.6512 43.9127 87.3003 43.726C89.9494 43.5393 92.4047 41.6042 93.6021 40.4663C94.7994 39.3283 94.7389 38.9875 93.4876 39.6914C92.2363 40.3952 89.7944 42.1437 87.1747 42.3006C84.555 42.4575 81.7575 41.0228 80.3596 40.5057C78.9617 39.9886 78.9636 40.3889 80.386 41.37ZM78.1341 44.767C80.078 46.1992 83.9603 48.4834 87.5657 48.2326C91.1712 47.9816 94.4999 45.1957 96.1216 43.5557C97.7434 41.9156 97.6583 41.4213 95.96 42.4319C94.2616 43.4426 90.9497 45.9581 87.3841 46.166C83.8185 46.3739 79.9989 44.2743 78.0919 43.5145C76.1848 42.7547 76.1903 43.3349 78.1341 44.767ZM67.9088 60.3976C68.161 60.6498 68.5545 60.3067 68.3322 60.0209C68.2059 59.8796 68.0663 59.7368 67.9363 59.5968C67.73 59.3629 67.3421 59.5932 67.4627 59.8947C67.4766 59.9258 67.4903 59.9488 67.5127 59.9742C67.6423 60.1181 67.7736 60.259 67.9088 60.3976ZM66.4353 58.6163C66.6063 58.8662 67.0173 58.6986 66.9418 58.3813C66.9318 58.3464 66.9202 58.3206 66.8993 58.29C66.7925 58.1377 66.6887 57.9844 66.5866 57.8289C66.4149 57.557 65.9665 57.7491 66.0848 58.0872C66.0934 58.1063 66.0998 58.1204 66.1112 58.1383C66.2165 58.2997 66.3246 58.4585 66.4353 58.6163ZM65.2395 56.6455C65.415 56.9645 65.8949 56.7373 65.7475 56.3934C65.6625 56.2232 65.5747 56.0559 65.4916 55.8844C65.3476 55.5821 64.8697 55.742 64.9649 56.091C64.9696 56.1051 64.9741 56.1175 64.9807 56.1313C65.0651 56.304 65.1508 56.475 65.2395 56.6455ZM64.2924 54.5511C64.408 54.8546 64.8842 54.7521 64.8362 54.4001C64.8326 54.3808 64.8278 54.3633 64.8207 54.3448C64.7525 54.1704 64.6861 53.9954 64.6212 53.8198C64.5097 53.527 64.0715 53.5942 64.0715 53.9305C64.0743 53.9617 64.0775 53.9863 64.0888 54.0158C64.1553 54.1949 64.2227 54.3732 64.2924 54.5511ZM63.5387 52.39C63.641 52.7115 64.1229 52.6198 64.0915 52.2745C64.089 52.2564 64.0861 52.2394 64.0804 52.2218C64.0248 52.0424 63.9699 51.8627 63.9167 51.6826C63.8144 51.3612 63.3462 51.4445 63.3616 51.7819C63.3637 51.8048 63.3667 51.8215 63.3727 51.8436C63.427 52.0261 63.4824 52.2081 63.5387 52.39ZM62.9152 50.1946C63.0083 50.5356 63.5191 50.4393 63.4697 50.0769C63.4297 49.8891 63.3713 49.6927 63.3246 49.5048C63.226 49.143 62.691 49.2763 62.7742 49.6424C62.8205 49.8266 62.8674 50.0107 62.9152 50.1946ZM62.3778 47.9811C62.4311 48.2154 62.7343 48.2806 62.8797 48.0904C62.9307 48.0236 62.9496 47.9377 62.9309 47.8555L62.8067 47.3032C62.7409 47.0139 62.3257 46.9985 62.251 47.3121C62.2451 47.3534 62.2435 47.3852 62.2529 47.4264L62.3778 47.9811ZM61.8941 45.7591C61.9751 46.1153 62.5015 46.0205 62.452 45.6574C62.4172 45.4687 62.3733 45.2767 62.3341 45.0882C62.2545 44.7379 61.7419 44.8202 61.7743 45.1762C61.8043 45.3659 61.8547 45.5695 61.8941 45.7591ZM61.4387 43.534C61.519 43.8873 62.0311 43.8029 61.9988 43.4472C61.969 43.2574 61.9208 43.0559 61.8828 42.866C61.8025 42.5129 61.2903 42.5969 61.3226 42.9529C61.3523 43.1422 61.4004 43.3446 61.4387 43.534ZM91.3837 64.0083C91.4496 63.9702 91.5144 63.9331 91.5781 63.897C91.6418 63.8609 91.7044 63.8259 91.766 63.7918C91.8276 63.7577 91.8881 63.7245 91.9476 63.6924C92.0072 63.6602 92.0658 63.629 92.1234 63.5986C92.181 63.5682 92.2376 63.5387 92.2933 63.5101V63.51C92.3491 63.4814 92.4041 63.4537 92.458 63.4268C92.512 63.3998 92.5652 63.3737 92.6175 63.3483C92.6699 63.323 92.7215 63.2984 92.7723 63.2746V63.2745C92.8231 63.2507 92.8731 63.2277 92.9225 63.2053C92.9718 63.1829 93.0204 63.1612 93.0684 63.1402V63.1401C93.1164 63.1192 93.1637 63.0989 93.2104 63.0792V63.0791C93.2572 63.0594 93.3032 63.0404 93.3488 63.022V63.0219C93.3943 63.0034 93.4393 62.9856 93.4838 62.9682V62.9682C93.5283 62.9509 93.5722 62.9342 93.6157 62.9179V62.9178C93.6592 62.9016 93.7022 62.8858 93.7448 62.8706V62.8706C93.7875 62.8553 93.8297 62.8407 93.8715 62.8263V62.8263C93.9133 62.812 93.9548 62.798 93.9958 62.7846C94.037 62.7711 94.0778 62.7582 94.1184 62.7455V62.7454C94.1589 62.7327 94.1992 62.7205 94.2392 62.7085V62.7084C94.2792 62.6964 94.3191 62.6848 94.3588 62.6734C94.3984 62.6621 94.4378 62.651 94.4772 62.6402V62.6401L94.5949 62.6085L94.7121 62.5782V62.5782L94.8291 62.5491V62.549L94.9462 62.5207V62.5206L95.0637 62.493V62.4929L95.1819 62.4658V62.4657L95.3009 62.4387L95.4214 62.4117V62.4116L95.5433 62.3844V62.3843L95.667 62.3566L95.7929 62.3282V62.3281L95.9211 62.2989V62.2988L96.0521 62.2684V62.2683L96.186 62.2366V62.2365L96.3233 62.2031L96.464 62.168V62.1679C96.5115 62.1558 96.5599 62.1435 96.6087 62.1307V62.1307L96.7574 62.0912L96.9106 62.0493V62.0492C96.9624 62.0348 97.015 62.02 97.0685 62.0046C97.1219 61.9892 97.1763 61.9735 97.2314 61.9571V61.957C97.2866 61.9406 97.3427 61.9238 97.3996 61.9064V61.9063C97.4566 61.8888 97.5145 61.8709 97.5734 61.8523C97.6322 61.8336 97.6922 61.8144 97.753 61.7946C97.8139 61.7748 97.8758 61.7542 97.9388 61.7331C98.0018 61.712 98.0659 61.6901 98.1311 61.6676C98.1963 61.6451 98.2625 61.6218 98.3301 61.5978C98.3975 61.5738 98.4662 61.5491 98.536 61.5235C98.6059 61.4979 98.677 61.4717 98.7493 61.4446C98.8217 61.4174 98.8953 61.3895 98.9703 61.3606C99.0452 61.3318 99.1214 61.3021 99.1991 61.2715C99.2767 61.241 99.3557 61.2096 99.4361 61.1772C99.5165 61.1448 99.5982 61.1114 99.6815 61.0771C99.7647 61.0427 99.8494 61.0074 99.9357 60.9712C100.022 60.9349 100.11 60.8976 100.199 60.8593C100.288 60.8209 100.379 60.7816 100.472 60.7411C100.564 60.7006 100.658 60.6591 100.754 60.6164C100.849 60.5737 100.947 60.5299 101.046 60.4849C101.145 60.44 101.246 60.3938 101.348 60.3466C101.451 60.2992 101.555 60.2508 101.661 60.2011C101.767 60.1513 101.875 60.1003 101.984 60.0481C102.094 59.9958 102.206 59.9423 102.319 59.8875C102.433 59.8327 102.548 59.7766 102.665 59.7192L102.659 67.2945L102.649 80.9796L52.3042 106.155V95.2933V86.6571C54.8976 85.6203 60.4959 84.557 62.5673 83.4737C64.1553 82.6431 70.6847 78.8835 72.1914 78.0321C74.333 76.8221 80.3818 71.8981 82.1673 70.8007C84.5253 69.3515 89.7738 64.9388 91.3837 64.0083ZM51.1697 103.232C50.8346 103.264 50.5568 103.298 50.4722 103.33C50.3977 103.358 50.4194 103.367 50.3647 103.392L50.2724 103.417C50.27 103.418 50.2613 103.42 50.2562 103.423L50.3689 103.735C50.4973 103.912 50.6362 104.136 50.7758 104.261C50.9123 104.383 51.02 104.432 51.1697 104.453V103.232ZM46.6332 102.613C46.8313 102.529 47.0124 102.456 47.1307 102.424C47.0875 102.226 46.8775 101.857 46.7257 101.719L45.5264 101.748L45.5303 101.801L46.6332 102.613ZM26.6855 80.8698C26.6966 81.0301 26.7542 81.1411 26.7723 81.2962C26.7894 81.4428 26.7558 81.6234 26.7337 81.7724C26.6258 81.9635 26.4071 82.2561 26.2692 82.4651L26.2618 83.0915C27.0756 82.9466 28.6946 82.5915 29.4106 82.8159C29.9602 82.9882 30.9806 84.0745 31.2976 84.4592C31.691 84.5355 31.9382 84.8196 32.1474 85.0735C32.4202 85.4044 32.5422 85.5346 33.1264 85.5385C33.3864 84.4057 33.4244 84.0808 34.0484 82.9922C34.1829 82.7575 34.3576 82.4742 34.4682 82.2287C34.3588 82.2565 33.4851 82.4743 33.3584 82.4577L33.3107 82.4364L33.0333 82.3929C32.6471 82.9874 31.0676 82.9007 30.4351 82.5604C30.1062 82.3835 29.7576 82.0525 29.5227 81.8303C29.2733 81.5944 28.9969 81.2407 28.5818 81.1433C28.4834 80.9497 28.3737 80.8191 28.2671 80.6045C28.1694 80.4079 28.1006 80.2098 28.0063 80.0253C27.7927 79.9124 27.769 79.9644 27.6411 79.7654C27.5553 79.6319 27.2033 78.8687 26.7754 78.8949L26.6855 80.8698ZM51.1697 49.4186L50.8432 49.5418C50.4718 49.9641 49.4688 50.0587 48.8361 50.288C48.8681 50.3893 48.8718 50.4995 48.9051 50.6081C48.9403 50.7225 48.9985 50.7736 49.0404 50.9047L49.5776 51.0983C49.707 51.1416 50.0794 51.4068 50.1621 51.4903C50.594 51.5906 50.7325 51.8444 51.1697 51.9422V49.4186ZM36.1803 94.9215L36.61 94.8622L37.6829 94.7938L37.7711 94.6506L37.6169 94.2396C37.1205 94.2477 36.6935 93.8526 36.4222 93.6151C36.2392 93.455 36.0974 93.3438 35.9338 93.1603C35.7979 93.0081 35.6617 92.8278 35.5191 92.6771C35.3906 92.6213 35.1672 92.4779 35.0825 92.4035C34.9371 92.2757 34.8669 92.1731 34.7502 92.0458C34.7558 92.5644 34.8814 93.1195 34.8858 93.6453C34.8867 93.7471 34.8626 93.8311 34.8265 93.9255L36.1803 94.9215ZM34.814 50.1294C34.4944 49.9808 34.263 49.8308 34.0204 49.6057C33.8956 49.49 33.788 49.4178 33.6704 49.2907C33.5587 49.1698 33.4512 49.0714 33.3234 48.9846L32.3909 48.9456C32.5368 50.0347 32.7311 50.5216 32.9438 51.4497C33.0001 51.6955 33.0426 52.0134 33.1123 52.2572C33.7482 52.1838 34.1676 52.0743 34.6898 51.8549C35.353 51.5763 35.6389 51.2629 35.9122 51.1232C35.8707 50.9837 35.7793 50.8724 35.694 50.7952C35.4424 50.5675 35.4525 50.8275 35.0294 50.4113C34.9261 50.3096 34.8693 50.2521 34.814 50.1294ZM47.21 75.3018C47.1013 75.5261 46.9372 75.6786 46.8666 75.9387C47.1102 75.9403 47.4719 75.8624 47.7342 75.8321C48.4482 75.7495 48.9044 75.759 49.6239 75.7742C49.8965 75.7799 50.0813 75.8032 50.2937 75.9703C50.3466 76.012 50.308 75.9784 50.3462 76.0281C50.579 75.9421 50.671 75.8631 50.9687 75.922C51.0395 75.936 51.1055 75.9531 51.1697 75.9711V75.2569C50.9433 75.1288 50.7506 75.0144 50.505 74.8821C49.6052 74.4167 49.1956 73.0066 48.9322 72.6697C48.3984 72.9989 47.8401 74.9191 47.21 75.3018ZM28.2862 39.9494L27.63 40.2793C27.5105 40.679 27.4662 40.5714 27.1036 40.6809C27.0044 41.5514 27.1642 41.2632 27.7436 41.3878C28.4452 41.5386 28.1092 41.7959 28.9492 42.3489C29.2688 42.5594 29.4958 42.7409 29.7769 42.9553C30.1519 43.2413 30.2614 43.3675 30.887 43.2525C30.9384 42.3992 30.934 41.5151 31.0029 40.6662C31.0766 39.7577 31.4113 39.2852 31.5983 38.5143C31.6071 38.1939 31.6928 38.0788 31.7738 37.8363C31.1229 37.8594 31.6249 38.1079 31.0326 38.4891C30.6894 38.7101 30.2957 38.6091 29.9141 38.7697C29.6246 38.8915 29.4252 39.2786 29.2098 39.4598L28.2862 39.9494ZM21.3902 52.7088L21.3793 52.7945C21.2187 53.6483 20.7071 54.9463 20.0458 55.54C19.9015 55.6696 19.824 55.6046 19.7471 55.8035C19.4128 56.6689 18.5868 57.0856 17.6959 57.1966C17.5303 57.2173 17.4123 57.2363 17.3187 57.2647V57.7336C17.4405 57.7462 17.5702 57.7456 17.6862 57.7448C17.9507 57.7415 18.2191 57.6718 18.4809 57.6448C18.7656 57.6154 19.0637 57.5893 19.3519 57.5724C19.9217 57.539 20.4954 57.4757 21.0653 57.4386C21.6142 57.403 24.2815 57.168 24.5411 57.2027L25.0459 57.0804C25.1678 57.0061 25.2785 57.0029 25.3995 56.9068L25.3532 56.6676C24.2177 56.5119 23.3957 55.9391 22.8746 55.272C22.0393 54.2026 22.1179 53.1374 21.6386 52.6674L21.3902 52.7088ZM44.6325 92.759C44.6321 92.9235 44.6386 92.8054 44.5958 92.8554L44.4805 92.877C44.2529 94.448 42.4623 94.6148 41.4026 95.0604C41.1951 95.1477 41.0649 95.2363 40.8967 95.3179C41.0552 95.906 42.1184 96.7285 42.5705 97.1706C42.6389 97.2374 42.6954 97.2669 42.7652 97.3289L43.7181 98.1801L44.1362 98.0428C44.298 95.7879 44.6948 95.2632 45.9402 93.6967C47.2843 92.006 48.3701 91.9728 49.4158 91.026L49.1996 90.5694C49.0786 90.4814 48.9977 90.4484 48.8786 90.3747C48.753 90.2971 48.5673 90.2503 48.5162 90.2113C48.184 90.2329 47.5844 89.8072 47.3649 89.6534C47.0376 89.4239 46.9328 89.3055 46.6761 89.0505C46.59 88.965 46.5762 88.9202 46.4932 88.8377L45.8516 88.5863C45.5694 89.0006 45.4899 90.2127 45.4327 90.8514C45.385 91.3835 45.2524 91.9798 44.9361 92.3805C44.8401 92.5022 44.6674 92.5982 44.6325 92.759ZM41.0266 46.8171C40.9094 47.3285 40.7299 47.7125 40.4717 48.0664C40.3133 48.2834 39.7993 48.8881 39.7297 49.134C39.3261 49.9289 39.6017 49.9108 39.5294 50.2714L40.1511 50.2326C40.0818 50.4908 40.0295 50.6429 40.1692 50.8533C41.6059 50.5936 41.7966 50.6447 43.2118 50.0402C43.6219 49.865 44.9176 49.3111 45.3306 49.2235C45.5033 49.1869 45.5807 49.1881 45.6631 49.3117C45.7048 49.3743 45.8013 49.5739 45.8237 49.6439C45.678 50.0615 45.3381 50.2289 44.8841 50.3874C43.9117 50.727 43.3888 50.8932 42.6349 51.5585C42.4819 51.6935 42.3671 51.8242 42.2067 51.9672C42.0554 52.1021 41.8801 52.2389 41.738 52.3681L41.732 52.6858C41.8778 52.9266 42.1645 53.1106 42.3552 53.3505L42.8779 54.1167C43.0629 54.0269 43.1415 53.8322 43.3037 53.7191C43.5803 53.0709 43.8383 52.5507 44.1955 52.0021C44.4455 51.6181 45.0851 50.787 45.4904 50.6709L45.5719 50.4108L45.9314 50.4174C46.0382 50.2369 46.2698 50.0639 46.3479 49.8884C46.2129 49.6602 46 49.4375 45.828 49.2852C45.7166 49.1865 45.6636 49.1345 45.5386 49.017C45.1034 48.6082 44.5088 48.1255 44.314 47.5396C44.1016 47.3264 43.9402 47.1921 43.7467 46.896C43.5861 46.6504 43.4353 46.4296 43.2955 46.1606C43.0523 45.693 42.6752 45.0797 42.5389 44.5372C42.0105 44.7998 41.5784 46.5108 41.0266 46.8171ZM38.1661 75.2736C38.1299 75.4506 38.3126 76.8535 38.1193 77.9405C38.047 78.3469 37.9452 78.7247 37.7496 79.0085C37.4972 79.375 37.2571 79.5269 37.1652 79.886L37.8672 80.3033C38.3764 80.3131 39.465 80.7614 39.66 81.0382C40.4809 81.2142 41.5763 82.1618 42.1554 82.7108C42.6067 83.1384 43.9053 84.7917 44.1095 84.9497L44.106 83.0952C44.1028 82.1955 43.8567 81.6666 44.0748 80.3776C44.146 79.9565 44.2525 79.5945 44.3919 79.2293C44.4867 78.9811 44.7013 78.4265 44.842 78.2297L44.8047 77.931C44.6162 77.9922 44.3833 78.057 44.2023 78.1307C43.3558 78.4754 43.146 78.6326 42.3258 78.3988C41.7596 78.3652 41.2877 78.2148 40.9427 77.9537C39.8092 77.0957 39.1152 75.4898 38.2355 75.243L38.1661 75.2736Z" fill="#1E1F25"/>
</svg>
