<svg width="120" height="120" viewBox="0 0 120 120" fill="none" xmlns="http://www.w3.org/2000/svg">
<path d="M60 120C93.1371 120 120 93.1371 120 60C120 26.8629 93.1371 0 60 0C26.8629 0 0 26.8629 0 60C0 93.1371 26.8629 120 60 120Z" fill="#D9DADA"/>
<path fill-rule="evenodd" clip-rule="evenodd" d="M52.6886 48.086C49.9724 47.9977 48.7919 46.177 48.7921 42.4725C48.7921 40.819 50.1327 39.4786 51.786 39.4786C53.4395 39.4786 54.78 40.819 54.78 42.4725C55.4686 45.486 55.59 46.7719 52.6886 48.086ZM24.2322 34.2767C23.4491 34.2767 22.8141 33.6417 22.8141 32.8586C22.8141 32.0754 23.4491 31.4404 24.2322 31.4404H95.7686C96.5518 31.4404 97.1868 32.0754 97.1868 32.8586C97.1868 33.6417 96.5518 34.2767 95.7686 34.2767H24.2322ZM44.2428 63.2394C40.5482 60.1352 38.1419 55.6826 38.1423 49.8864C38.1423 48.233 39.4828 46.8925 41.1362 46.8925C42.7897 46.8925 44.1302 48.233 44.1302 49.8864C44.1299 53.6726 45.7409 56.6169 48.2265 58.7063C50.9564 61.0009 47.7351 66.1735 44.2428 63.2394ZM38.8767 78.7245C32.0989 74.1434 27.4917 66.9976 27.4924 57.3005C27.4924 55.6471 28.8329 54.3065 30.4863 54.3065C32.1398 54.3065 33.4802 55.6471 33.4802 57.3005C33.472 64.6898 36.7467 70.5863 42.2688 73.7746C45.7459 75.7821 42.5077 81.1786 38.8767 78.7245ZM33.6415 94.1084C23.7325 88.1281 16.8414 78.3204 16.8424 64.7144C16.8424 63.061 18.1829 61.7205 19.8363 61.7205C21.4898 61.7205 22.8302 63.061 22.8302 64.7144C22.8294 75.8463 28.5148 83.9374 36.7221 88.9454C40.0394 90.9695 37.2687 96.2976 33.6415 94.1084Z" fill="#2B2A29"/>
<path fill-rule="evenodd" clip-rule="evenodd" d="M66.7656 47.8258C69.587 48.5454 71.0839 46.415 71.208 42.4727C71.208 40.8192 69.8675 39.4788 68.2141 39.4788C66.5606 39.4788 65.2202 40.8192 65.2202 42.4727C64.1798 45.949 65.1574 47.4156 66.7656 47.8258ZM75.4015 63.602C79.2965 60.494 81.8574 55.9281 81.8579 49.8866C81.8579 48.2332 80.5174 46.8927 78.864 46.8927C77.2106 46.8927 75.87 48.2332 75.87 49.8866C75.8698 53.7937 74.2014 56.7921 71.642 58.8842C68.5596 61.4038 72.4843 65.9296 75.4015 63.602ZM80.6957 79.1144C87.7064 74.5669 92.5072 67.3071 92.5078 57.3007C92.5078 55.6473 91.1674 54.3067 89.5139 54.3067C87.8605 54.3067 86.52 55.6473 86.52 57.3007C86.5194 64.8929 82.8606 70.4643 77.4827 74.0258C74.022 76.3176 77.5912 81.1281 80.6957 79.1144ZM86.1431 94.3743C96.1663 88.4396 103.157 78.5695 103.158 64.7147C103.158 63.0612 101.817 61.7207 100.164 61.7207C98.5105 61.7207 97.1701 63.0612 97.1701 64.7147C97.1692 76.037 91.4353 84.1739 83.174 89.1475C79.6997 91.2392 83.005 96.2324 86.1431 94.3743Z" fill="#42ADE2"/>
<path d="M50.2596 94.0967C53.48 94.7439 56.8023 95.0699 60.1237 95.0732C63.215 95.0762 66.3041 94.8 69.3087 94.2441C73.7798 93.4169 73.8556 99.4861 70.5594 100.105C67.1448 100.746 63.6341 101.064 60.1237 101.061C56.4137 101.057 52.7019 100.695 49.1015 99.9744C45.6971 99.2932 46.2497 93.2909 50.2596 94.0967ZM60.0253 46.2999C63.7149 46.056 63.9017 47.1706 64.6285 48.3377C65.4568 50.8993 63.0329 52.1547 62.1217 52.2665C61.6358 52.3261 61.4476 52.4012 59.9757 52.4C58.5018 52.3987 58.1465 52.346 57.5474 52.2288C56.2288 51.9708 54.8502 50.4606 55.1771 48.7762C55.4568 47.335 56.323 46.0028 60.0253 46.2999ZM55.9675 62.1742C57.3058 62.4283 58.682 62.5563 60.0582 62.5576C61.3234 62.5588 62.6118 62.5648 63.8202 62.241C67.8074 61.1726 68.5786 67.499 64.8654 68.1396C63.2875 68.4118 61.6725 68.547 60.0582 68.5455C58.2744 68.5438 56.4896 68.3755 54.7543 68.0412C50.7641 67.2728 52.0173 61.4243 55.9675 62.1742ZM53.3558 78.1829C55.5223 78.7635 57.8253 78.8132 60.0909 78.8154C62.3163 78.8177 64.5399 78.6184 66.702 78.2179C70.8545 77.4486 70.9907 83.5186 67.7851 84.1101C65.2656 84.575 62.6781 84.8057 60.0909 84.8032C57.3336 84.8006 54.5746 84.5333 51.8971 84.0021C48.3538 83.2991 49.2864 77.0925 53.3558 78.1829Z" fill="#FEFEFE"/>
</svg>
