<svg width="120" height="120" viewBox="0 0 120 120" fill="none" xmlns="http://www.w3.org/2000/svg">
<path d="M60 120C93.1371 120 120 93.1371 120 60C120 26.8629 93.1371 0 60 0C26.8629 0 0 26.8629 0 60C0 93.1371 26.8629 120 60 120Z" fill="#D9DADA"/>
<path fill-rule="evenodd" clip-rule="evenodd" d="M25.3825 81.5251C25.0281 81.4147 24.8302 81.0379 24.9407 80.6835C25.0511 80.3291 25.4279 80.1314 25.7822 80.2417C26.3419 80.4161 26.849 80.6638 27.3557 80.9114C28.236 81.3413 29.1167 81.7715 30.0475 81.639C31.1524 81.4819 31.9307 80.868 32.6939 80.266V80.2634C33.7306 79.4456 34.7446 78.6459 36.4825 78.6627C38.298 78.6802 39.4174 79.4956 40.5546 80.3237C41.4332 80.9636 42.3246 81.6129 43.5684 81.7657C44.3018 81.8557 45.0493 81.2168 45.83 80.5493C46.8226 79.7008 47.8582 78.8156 49.2878 78.8156C50.6376 78.8156 51.6065 79.5072 52.6334 80.2401C53.473 80.8393 54.3588 81.4716 55.4755 81.6295C56.2336 81.7367 56.9162 81.3316 57.5985 80.9266C58.014 80.6799 58.4298 80.4333 58.9043 80.2549C58.9823 80.2255 59.0624 80.2117 59.141 80.2117V77.5246C58.7476 77.5246 58.3475 77.5939 57.9577 77.7408C57.5474 77.8949 56.1126 79.006 55.8436 78.9681C55.3822 78.9028 54.7702 78.4661 54.1903 78.0521C52.7995 77.0594 51.4869 76.1227 49.2878 76.1227C47.5793 76.1227 44.1527 79.1254 43.8945 79.0938C43.3227 79.0235 42.7233 78.5868 42.1325 78.1567C40.6444 77.0729 39.1797 76.0061 36.5036 75.9803C33.8145 75.9544 32.4386 77.0394 31.0319 78.149V78.1622C30.5559 78.5376 30.0703 78.9206 29.6688 78.9776C29.56 78.9931 29.0467 78.7424 28.5338 78.4919C27.9446 78.2041 27.3549 77.916 26.5817 77.6751C24.8097 77.1231 22.9258 78.1122 22.374 79.8841C21.8221 81.656 22.8111 83.5399 24.583 84.0918C24.8229 84.1665 25.2058 84.3535 25.5884 84.5405C27.0198 85.2396 28.4517 85.9391 30.6156 85.6312C32.7715 85.3245 33.9888 84.3671 35.1806 83.4269L35.187 83.435C35.6687 83.0551 36.14 82.6834 36.4509 82.6864C36.9755 82.6914 37.577 83.1294 38.1877 83.5742C39.4981 84.5286 40.8276 85.4968 43.0793 85.7734C45.5623 86.0785 46.9744 84.8714 48.4493 83.6105C48.8818 83.2408 49.2425 82.8551 49.2878 82.8551C49.3635 82.8551 49.8174 83.179 50.2982 83.5221C51.5272 84.3993 52.8235 85.3246 54.9232 85.6216C56.7929 85.8861 58.0099 85.3441 59.141 84.6962V81.6114C58.8571 81.7423 58.5696 81.913 58.2822 82.0836C57.3984 82.6083 56.5141 83.1332 55.2914 82.9602C53.8469 82.7559 52.8244 82.0261 51.855 81.3342C51.0102 80.7311 50.2128 80.1622 49.2878 80.1622C48.3496 80.1622 47.509 80.8808 46.7031 81.5697C45.691 82.435 44.722 83.2632 43.4054 83.1016C41.8256 82.9074 40.7883 82.1519 39.7657 81.4072C38.8039 80.7068 37.8573 80.0173 36.472 80.0039C35.2099 79.9918 34.3768 80.6488 33.525 81.3206L33.5237 81.319C32.6173 82.0339 31.6928 82.7626 30.2369 82.9697C28.895 83.1606 27.8306 82.6408 26.7666 82.1211C26.3013 81.8938 25.8357 81.6663 25.3825 81.5251ZM91.3794 35.5151L97.7783 39.0349L91.3794 42.5548V39.7082H91.3619C91.0024 39.7082 90.6444 39.9518 90.3613 40.1502C89.5325 40.7422 88.7735 41.4551 87.6591 41.2462C86.4586 41.0076 85.7531 40.1363 84.9892 39.2703C84.5487 38.774 84.0189 38.1709 83.3021 38.158C82.7829 38.1509 82.4173 38.5164 82.0934 38.8779C80.6479 40.5384 79.541 42.1219 77.2761 40.4898C76.9793 40.2755 76.6753 40.016 76.3581 39.8106V38.3618C76.4584 38.3619 76.5596 38.3843 76.6534 38.4299C77.1236 38.6621 77.5267 38.9951 77.9429 39.3091C78.2579 39.5417 78.7042 39.8859 79.1222 39.7989C79.6394 39.6808 80.0352 39.2465 80.3636 38.8565C81.182 37.8783 81.887 36.802 83.3225 36.8117C84.5573 36.8396 85.3308 37.6118 86.0895 38.4824C86.5768 39.0313 87.1539 39.7739 87.9137 39.924C88.2471 39.985 88.574 39.7756 88.8375 39.597C89.6401 39.0403 90.3104 38.3709 91.3619 38.3617H91.3794V35.5151ZM91.3794 54.6295L97.7783 58.1494L91.3794 61.6693V58.8227H91.3619C91.0024 58.8227 90.6444 59.0663 90.3613 59.2647C89.5325 59.8566 88.7735 60.5696 87.6591 60.3606C86.4586 60.1221 85.7531 59.2507 84.9892 58.3847C84.5487 57.8884 84.0189 57.2854 83.3021 57.2725C82.7829 57.2653 82.4173 57.6309 82.0934 57.9924C80.6479 59.6529 79.541 61.2364 77.2761 59.6043C76.9793 59.3901 76.6753 59.1306 76.3581 58.9251V57.4763C76.4584 57.4765 76.5596 57.4987 76.6534 57.5445C77.1236 57.7766 77.5267 58.1095 77.9429 58.4235C78.2579 58.6562 78.7042 59.0005 79.1222 58.9133C79.6394 58.7953 80.0352 58.361 80.3636 57.971C81.182 56.9928 81.887 55.9164 83.3225 55.9262C84.5573 55.9541 85.3308 56.7264 86.0895 57.5968C86.5768 58.1458 87.1539 58.8884 87.9137 59.0385C88.2471 59.0995 88.574 58.8902 88.8375 58.7114C89.6401 58.1548 90.3104 57.4853 91.3619 57.4761H91.3794V54.6295ZM91.3794 77.3585L97.7783 80.8784L91.3794 84.3984V81.5517H91.3619C91.0024 81.5517 90.6444 81.7953 90.3613 81.9937C89.5325 82.5856 88.7735 83.2987 87.6591 83.0897C86.4586 82.8511 85.7531 81.9798 84.9892 81.1137C84.5487 80.6174 84.0189 80.0145 83.3021 80.0015C82.7829 79.9944 82.4173 80.3599 82.0934 80.7214C80.6479 82.382 79.541 83.9654 77.2761 82.3333C76.9793 82.1191 76.6753 81.8596 76.3581 81.6541V80.2054C76.4584 80.2055 76.5596 80.2278 76.6534 80.2735C77.1236 80.5057 77.5267 80.8385 77.9429 81.1526C78.2579 81.3852 78.7042 81.7295 79.1222 81.6423C79.6394 81.5243 80.0352 81.09 80.3636 80.7C81.182 79.7218 81.887 78.6455 83.3225 78.6552C84.5573 78.6832 85.3308 79.4554 86.0895 80.3258C86.5768 80.8748 87.1539 81.6175 87.9137 81.7675C88.2471 81.8285 88.574 81.6192 88.8375 81.4405C89.6401 80.8838 90.3104 80.2143 91.3619 80.2052H91.3794V77.3585ZM25.3825 58.7961C25.0281 58.6856 24.8302 58.3089 24.9407 57.9545C25.0511 57.6001 25.4279 57.4023 25.7822 57.5127C26.3419 57.6871 26.849 57.9348 27.3557 58.1823C28.236 58.6123 29.1167 59.0424 30.0475 58.91C31.1524 58.7528 31.9307 58.139 32.6939 57.537V57.5343C33.7306 56.7166 34.7446 55.9169 36.4825 55.9337C38.298 55.9512 39.4174 56.7665 40.5546 57.5947C41.4332 58.2346 42.3246 58.8839 43.5684 59.0366C44.3018 59.1267 45.0493 58.4878 45.83 57.8203C46.8226 56.9717 47.8582 56.0865 49.2878 56.0865C50.6376 56.0865 51.6065 56.7781 52.6334 57.511C53.473 58.1103 54.3588 58.7426 55.4755 58.9005C56.2336 59.0077 56.9162 58.6026 57.5985 58.1975C58.014 57.9509 58.4298 57.7042 58.9043 57.5258C58.9823 57.4965 59.0624 57.4826 59.141 57.4826V54.7956C58.7476 54.7955 58.3475 54.8649 57.9577 55.0118C57.5474 55.1658 56.1126 56.2769 55.8436 56.2391C55.3822 56.1738 54.7702 55.7371 54.1903 55.3231C52.7995 54.3304 51.4869 53.3936 49.2878 53.3936C47.5793 53.3936 44.1527 56.3964 43.8945 56.3647C43.3227 56.2945 42.7233 55.8578 42.1325 55.4277C40.6444 54.3439 39.1797 53.2771 36.5036 53.2513C33.8145 53.2253 32.4386 54.3104 31.0319 55.42V55.4332C30.5559 55.8086 30.0703 56.1915 29.6688 56.2485C29.56 56.2641 29.0467 56.0134 28.5338 55.7629C27.9446 55.475 27.3549 55.187 26.5817 54.946C24.8097 54.3941 22.9258 55.3832 22.374 57.155C21.8221 58.927 22.8111 60.8109 24.583 61.3627C24.8229 61.4375 25.2058 61.6245 25.5884 61.8115C27.0198 62.5106 28.4517 63.2101 30.6156 62.9021C32.7715 62.5954 33.9888 61.638 35.1806 60.6979L35.187 60.7059C35.6687 60.326 36.14 59.9544 36.4509 59.9573C36.9755 59.9623 37.577 60.4003 38.1877 60.8452C39.4981 61.7996 40.8276 62.7678 43.0793 63.0444C45.5623 63.3495 46.9744 62.1424 48.4493 60.8814C48.8818 60.5118 49.2425 60.126 49.2878 60.126C49.3635 60.126 49.8174 60.45 50.2982 60.7931C51.5272 61.6703 52.8235 62.5955 54.9232 62.8926C56.7929 63.1571 58.0099 62.615 59.141 61.9672V58.8824C58.8571 59.0133 58.5696 59.1839 58.2822 59.3545C57.3984 59.8793 56.5141 60.4041 55.2914 60.2312C53.8469 60.0269 52.8244 59.2971 51.855 58.6052C51.0102 58.0021 50.2128 57.4331 49.2878 57.4331C48.3496 57.4331 47.509 58.1518 46.7031 58.8407C45.691 59.706 44.722 60.5342 43.4054 60.3724C41.8256 60.1784 40.7883 59.4229 39.7657 58.6782C38.8039 57.9777 37.8573 57.2882 36.472 57.2749C35.2099 57.2628 34.3768 57.9198 33.525 58.5916L33.5237 58.59C32.6173 59.3049 31.6928 60.0336 30.2369 60.2407C28.895 60.4316 27.8306 59.9118 26.7666 59.3921C26.3013 59.1648 25.8357 58.9373 25.3825 58.7961ZM25.3825 39.6816C25.0281 39.5712 24.8302 39.1944 24.9407 38.84C25.0511 38.4856 25.4279 38.2878 25.7822 38.3982C26.3419 38.5726 26.849 38.8204 27.3557 39.0679C28.236 39.4978 29.1167 39.928 30.0475 39.7955C31.1524 39.6384 31.9307 39.0246 32.6939 38.4225V38.4199C33.7306 37.6021 34.7446 36.8025 36.4825 36.8192C38.298 36.8367 39.4174 37.652 40.5546 38.4803C41.4332 39.1202 42.3246 39.7694 43.5684 39.9221C44.3018 40.0122 45.0493 39.3733 45.83 38.7059C46.8226 37.8573 47.8582 36.9721 49.2878 36.9721C50.6376 36.9721 51.6065 37.6637 52.6334 38.3966C53.473 38.9958 54.3588 39.628 55.4755 39.786C56.2336 39.8933 56.9162 39.4881 57.5985 39.083C58.014 38.8364 58.4298 38.5897 58.9043 38.4114C58.9823 38.3819 59.0624 38.3681 59.141 38.3681V35.6812C58.7476 35.6811 58.3475 35.7505 57.9577 35.8973C57.5474 36.0514 56.1126 37.1624 55.8436 37.1245C55.3822 37.0593 54.7702 36.6225 54.1903 36.2086C52.7995 35.2159 51.4869 34.2792 49.2878 34.2792C47.5793 34.2792 44.1527 37.2819 43.8945 37.2502C43.3227 37.18 42.7233 36.7434 42.1325 36.3132C40.6444 35.2293 39.1797 34.1625 36.5036 34.1368C33.8145 34.1108 32.4386 35.196 31.0319 36.3054V36.3186C30.5559 36.6941 30.0703 37.077 29.6688 37.1341C29.56 37.1495 29.0467 36.8989 28.5338 36.6484C27.9446 36.3605 27.3549 36.0725 26.5817 35.8315C24.8097 35.2797 22.9258 36.2686 22.374 38.0406C21.8221 39.8125 22.8111 41.6963 24.583 42.2483C24.8229 42.3229 25.2058 42.51 25.5884 42.697C27.0198 43.3962 28.4517 44.0955 30.6156 43.7876C32.7715 43.481 33.9888 42.5235 35.1806 41.5834L35.187 41.5915C35.6687 41.2115 36.14 40.8399 36.4509 40.8428C36.9755 40.8479 37.577 41.2859 38.1877 41.7307C39.4981 42.6851 40.8276 43.6533 43.0793 43.9299C45.5623 44.2349 46.9744 43.0279 48.4493 41.767C48.8818 41.3973 49.2425 41.0115 49.2878 41.0115C49.3635 41.0115 49.8174 41.3355 50.2982 41.6786C51.5272 42.5558 52.8235 43.4811 54.9232 43.7781C56.7929 44.0426 58.0099 43.5005 59.141 42.8528V39.7678C58.8571 39.8988 58.5696 40.0695 58.2822 40.2401C57.3984 40.7648 56.5141 41.2897 55.2914 41.1167C53.8469 40.9124 52.8244 40.1825 51.855 39.4906C51.0102 38.8876 50.2128 38.3186 49.2878 38.3186C48.3496 38.3186 47.509 39.0373 46.7031 39.7263C45.691 40.5915 44.722 41.4198 43.4054 41.258C41.8256 41.0639 40.7883 40.3084 39.7657 39.5636C38.8039 38.8633 37.8573 38.1738 36.472 38.1605C35.2099 38.1483 34.3768 38.8052 33.525 39.4771L33.5237 39.4755C32.6173 40.1903 31.6928 40.919 30.2369 41.1262C28.895 41.3172 27.8306 40.7973 26.7666 40.2776C26.3013 40.0503 25.8357 39.8228 25.3825 39.6816Z" fill="#42ADE2"/>
<path fill-rule="evenodd" clip-rule="evenodd" d="M55.617 87.9064C56.2186 87.9064 56.7062 88.394 56.7062 88.9955C56.7062 89.597 56.2186 90.0846 55.617 90.0846C55.0156 90.0846 54.528 89.597 54.528 88.9955C54.528 88.394 55.0156 87.9064 55.617 87.9064ZM70.1345 26.3247H65.3626C64.1159 26.3247 62.9813 26.836 62.1578 27.6595C61.3344 28.4829 60.8231 29.6175 60.8231 30.8642V89.1355C60.8231 90.3822 61.3344 91.5168 62.1578 92.3403C62.9813 93.1638 64.1159 93.675 65.3626 93.675H70.1345C71.3812 93.675 72.5158 93.1638 73.3393 92.3403C74.1628 91.5168 74.674 90.3822 74.674 89.1355V30.8642C74.674 29.6175 74.1628 28.4829 73.3393 27.6595C72.5158 26.836 71.3812 26.3247 70.1345 26.3247ZM41.9683 29.9983C42.5698 29.9983 43.0574 30.4859 43.0574 31.0874C43.0574 31.689 42.5698 32.1766 41.9683 32.1766C41.3668 32.1766 40.8792 31.689 40.8792 31.0874C40.8792 30.4859 41.3668 29.9983 41.9683 29.9983ZM36.4027 45.5023C37.0042 45.5023 37.4918 45.9899 37.4918 46.5914C37.4918 47.1929 37.0042 47.6805 36.4027 47.6805C35.8012 47.6805 35.3136 47.1929 35.3136 46.5914C35.3136 45.9899 35.8012 45.5023 36.4027 45.5023ZM48.9914 45.3699C49.5929 45.3699 50.0805 45.8574 50.0805 46.4589C50.0805 47.0604 49.5929 47.5481 48.9914 47.5481C48.3899 47.5481 47.9023 47.0604 47.9023 46.4589C47.9023 45.8574 48.3899 45.3699 48.9914 45.3699ZM50.8645 71.1326C51.4661 71.1326 51.9537 71.6202 51.9537 72.2217C51.9537 72.8233 51.4661 73.3108 50.8645 73.3108C50.2631 73.3108 49.7755 72.8233 49.7755 72.2217C49.7755 71.6202 50.2631 71.1326 50.8645 71.1326ZM43.5584 65.3792C44.16 65.3792 44.6476 65.8668 44.6476 66.4683C44.6476 67.0699 44.16 67.5575 43.5584 67.5575C42.9569 67.5575 42.4694 67.0699 42.4694 66.4683C42.4694 65.8668 42.9569 65.3792 43.5584 65.3792ZM35.6367 71.0773C36.2382 71.0773 36.7258 71.5649 36.7258 72.1663C36.7258 72.7679 36.2382 73.2555 35.6367 73.2555C35.0352 73.2555 34.5476 72.7679 34.5476 72.1663C34.5476 71.5649 35.0352 71.0773 35.6367 71.0773ZM25.5366 86.8462C26.1381 86.8462 26.6257 87.3338 26.6257 87.9354C26.6257 88.5369 26.1381 89.0244 25.5366 89.0244C24.9351 89.0244 24.4475 88.5369 24.4475 87.9354C24.4475 87.3338 24.9351 86.8462 25.5366 86.8462Z" fill="#FEFEFE"/>
<path d="M66.9482 30.9059C66.9482 30.4411 67.325 30.0643 67.7898 30.0643C68.2546 30.0643 68.6314 30.4411 68.6314 30.9059V38.1063C68.6314 38.5711 68.2546 38.9479 67.7898 38.9479C67.325 38.9479 66.9482 38.5711 66.9482 38.1063V30.9059ZM65.3645 24.6415H70.1364C73.559 24.6415 76.359 27.4416 76.359 30.8641V89.1354C76.359 92.558 73.559 95.358 70.1364 95.358H65.3645C61.942 95.358 59.142 92.558 59.142 89.1354V30.8641C59.142 27.4416 61.942 24.6415 65.3645 24.6415ZM70.1364 26.3246H65.3645C64.1178 26.3246 62.9832 26.8358 62.1598 27.6594C61.3363 28.4828 60.825 29.6174 60.825 30.8641V89.1354C60.825 90.3821 61.3363 91.5167 62.1598 92.3402C62.9832 93.1637 64.1178 93.6749 65.3645 93.6749H70.1364C71.3831 93.6749 72.5177 93.1637 73.3412 92.3402C74.1647 91.5167 74.6759 90.3821 74.6759 89.1354V30.8641C74.6759 29.6174 74.1647 28.4828 73.3412 27.6594C72.5177 26.8358 71.3831 26.3246 70.1364 26.3246ZM29.1418 46.5574C29.7433 46.5574 30.2309 47.045 30.2309 47.6465C30.2309 48.248 29.7433 48.7356 29.1418 48.7356C28.5403 48.7356 28.0527 48.248 28.0527 47.6465C28.0527 47.045 28.5403 46.5574 29.1418 46.5574ZM52.0412 29.8657C52.6427 29.8657 53.1303 30.3533 53.1303 30.9548C53.1303 31.5563 52.6427 32.0439 52.0412 32.0439C51.4397 32.0439 50.9521 31.5563 50.9521 30.9548C50.9521 30.3533 51.4397 29.8657 52.0412 29.8657ZM29.278 30.5282C29.8795 30.5282 30.3671 31.0159 30.3671 31.6174C30.3671 32.2189 29.8795 32.7065 29.278 32.7065C28.6765 32.7065 28.1889 32.2189 28.1889 31.6174C28.1889 31.0159 28.6765 30.5282 29.278 30.5282ZM27.7913 72.5348C28.3927 72.5348 28.8804 73.0224 28.8804 73.6239C28.8804 74.2254 28.3927 74.713 27.7913 74.713C27.1898 74.713 26.7021 74.2254 26.7021 73.6239C26.7021 73.0224 27.1898 72.5348 27.7913 72.5348ZM50.3475 88.5689C50.949 88.5689 51.4366 89.0564 51.4366 89.6579C51.4366 90.2595 50.949 90.7471 50.3475 90.7471C49.7459 90.7471 49.2584 90.2595 49.2584 89.6579C49.2584 89.0564 49.7459 88.5689 50.3475 88.5689ZM36.0071 87.9062C36.6086 87.9062 37.0962 88.3939 37.0962 88.9954C37.0962 89.5969 36.6086 90.0844 36.0071 90.0844C35.4056 90.0844 34.9179 89.5969 34.9179 88.9954C34.9179 88.3939 35.4056 87.9062 36.0071 87.9062ZM35.9855 63.455C36.5871 63.455 37.0746 63.9426 37.0746 64.5441C37.0746 65.1456 36.5871 65.6332 35.9855 65.6332C35.384 65.6332 34.8964 65.1456 34.8964 64.5441C34.8964 63.9426 35.384 63.455 35.9855 63.455ZM43.4786 72.1679C44.0801 72.1679 44.5677 72.6554 44.5677 73.257C44.5677 73.8585 44.0801 74.3461 43.4786 74.3461C42.877 74.3461 42.3895 73.8585 42.3895 73.257C42.3895 72.6554 42.877 72.1679 43.4786 72.1679ZM55.4153 66.5045C56.0168 66.5045 56.5044 66.9921 56.5044 67.5936C56.5044 68.1951 56.0168 68.6827 55.4153 68.6827C54.8138 68.6827 54.3262 68.1951 54.3262 67.5936C54.3262 66.9921 54.8138 66.5045 55.4153 66.5045ZM54.544 46.7262C55.1455 46.7262 55.6331 47.2137 55.6331 47.8153C55.6331 48.4168 55.1455 48.9044 54.544 48.9044C53.9425 48.9044 53.4549 48.4168 53.4549 47.8153C53.4549 47.2137 53.9425 46.7262 54.544 46.7262ZM44.1756 50.0371C44.7771 50.0371 45.2648 50.5247 45.2648 51.1263C45.2648 51.7277 44.7771 52.2153 44.1756 52.2153C43.5741 52.2153 43.0865 51.7277 43.0865 51.1263C43.0865 50.5247 43.5741 50.0371 44.1756 50.0371ZM66.9482 81.7682C66.9482 81.3035 67.325 80.9266 67.7898 80.9266C68.2546 80.9266 68.6314 81.3035 68.6314 81.7682V88.9688C68.6314 89.4336 68.2546 89.8103 67.7898 89.8103C67.325 89.8103 66.9482 89.4336 66.9482 88.9688V81.7682ZM66.9482 69.0527C66.9482 68.5878 67.325 68.2111 67.7898 68.2111C68.2546 68.2111 68.6314 68.5878 68.6314 69.0527V76.2531C68.6314 76.7179 68.2546 77.0947 67.7898 77.0947C67.325 77.0947 66.9482 76.7179 66.9482 76.2531V69.0527ZM66.9482 56.3371C66.9482 55.8723 67.325 55.4955 67.7898 55.4955C68.2546 55.4955 68.6314 55.8723 68.6314 56.3371V63.5375C68.6314 64.0023 68.2546 64.3791 67.7898 64.3791C67.325 64.3791 66.9482 64.0023 66.9482 63.5375V56.3371ZM66.9482 43.6214C66.9482 43.1566 67.325 42.7798 67.7898 42.7798C68.2546 42.7798 68.6314 43.1566 68.6314 43.6214V50.822C68.6314 51.2867 68.2546 51.6636 67.7898 51.6636C67.325 51.6636 66.9482 51.2867 66.9482 50.822V43.6214Z" fill="#2B2A29"/>
</svg>
