<svg width="120" height="120" viewBox="0 0 120 120" fill="none" xmlns="http://www.w3.org/2000/svg">
<path d="M60 120C93.1371 120 120 93.1371 120 60C120 26.8629 93.1371 0 60 0C26.8629 0 0 26.8629 0 60C0 93.1371 26.8629 120 60 120Z" fill="#D9DADA"/>
<path fill-rule="evenodd" clip-rule="evenodd" d="M102.143 64.5438L100.857 64.3254C100.8 64.3156 100.76 64.2602 100.77 64.2025L100.989 62.9169C100.998 62.8591 101.054 62.8199 101.112 62.8297L102.397 63.0481C102.455 63.0579 102.494 63.1134 102.484 63.1712L102.266 64.4566C102.256 64.5143 102.201 64.5536 102.143 64.5438ZM101.265 68.2955C101.65 68.8768 101.85 69.4563 101.85 70.0258C101.85 75.5122 77.6597 77.7647 60.3922 74.1166C45.6064 70.9927 34.1234 61.6494 29.1921 55.6151C22.6463 54.9716 18.6492 55.0561 18.6492 57.5821C18.6492 63.0685 40.9871 76.6983 60.3922 77.8035C79.7973 78.9087 101.85 75.5122 101.85 70.0258C101.85 69.5601 101.693 69.0757 101.395 68.5787C101.631 69.1115 101.852 69.7156 101.847 69.9605C101.881 75.4467 75.0462 74.3081 61.2563 70.0271C55.4005 68.2092 39.4708 56.2254 38.5071 49.5753C38.4987 49.5173 38.5723 49.4783 38.6301 49.4881L39.9155 49.7065C39.9733 49.7162 40.0126 49.7717 40.0028 49.8295L39.9651 50.0508C40.0122 50.0845 40.0627 50.1207 40.1168 50.159L40.1784 49.796C40.1883 49.7382 40.2437 49.699 40.3014 49.7088L41.5869 49.9274C41.6447 49.9371 41.684 49.9925 41.6741 50.0503L41.5093 51.0198C41.5601 51.0467 41.6125 51.074 41.6655 51.1013L41.8499 50.0168C41.8598 49.959 41.915 49.9198 41.9728 49.9296L43.2583 50.1481C43.3161 50.1579 43.3554 50.2133 43.3455 50.2711L43.1271 51.5565C43.1173 51.6143 43.0619 51.6536 43.0041 51.6438L42.7284 51.5969C42.8923 51.6662 43.0649 51.736 43.2457 51.806C43.2627 51.7997 43.2814 51.7976 43.3005 51.8009L44.5858 52.0194C44.6437 52.0292 44.6829 52.0846 44.6732 52.1423L44.6475 52.2934C44.7003 52.3097 44.7552 52.3261 44.8092 52.3425L44.8489 52.1089C44.8587 52.0511 44.914 52.0118 44.9719 52.0217L46.2574 52.2402C46.3151 52.25 46.3543 52.3053 46.3445 52.3632L46.2794 52.7462C46.3336 52.7597 46.3874 52.7731 46.4427 52.7865L46.5203 52.3297C46.5301 52.2719 46.5854 52.2327 46.6432 52.2425L47.9287 52.4609C47.9865 52.4707 48.0257 52.5262 48.016 52.5839L47.9263 53.1109C47.9813 53.1218 48.0353 53.1328 48.0909 53.1435L48.1916 52.5505C48.2015 52.4927 48.2568 52.4535 48.3146 52.4633L49.6 52.6819C49.6579 52.6915 49.6971 52.747 49.6873 52.8047L49.5852 53.4049C49.64 53.4135 49.6958 53.422 49.751 53.4305L49.8631 52.7713C49.8728 52.7135 49.9282 52.6742 49.9861 52.6841L51.2714 52.9025C51.3292 52.9124 51.3684 52.9677 51.3586 53.0256L51.2515 53.6567C51.3065 53.6659 51.3616 53.6754 51.4167 53.685L51.5345 52.9921C51.5443 52.9343 51.5996 52.895 51.6574 52.9049L52.9429 53.1234C53.0007 53.1331 53.0398 53.1885 53.0301 53.2463L52.9059 53.9771L53.0698 54.0128L53.2058 53.2129C53.2157 53.1551 53.2709 53.1158 53.3288 53.1256L54.6142 53.3442C54.6721 53.354 54.7113 53.4094 54.7016 53.4671L54.5502 54.3569L54.7135 54.3968L54.8772 53.4337C54.887 53.3758 54.9423 53.3367 55.0002 53.3465L56.2856 53.5649C56.3434 53.5747 56.3827 53.6301 56.3729 53.6879L56.19 54.7641L56.3531 54.8049L56.5486 53.6545C56.5584 53.5967 56.6138 53.5575 56.6716 53.5673L57.957 53.7857C58.0149 53.7955 58.054 53.8509 58.0442 53.9087L57.8307 55.1656L58.0036 55.206C57.9998 55.1916 57.999 55.1763 58.0015 55.1607L58.2201 53.8753C58.2299 53.8175 58.2851 53.7782 58.3429 53.788L59.6285 54.0065C59.6863 54.0163 59.7255 54.0717 59.7157 54.1295L59.4972 55.415C59.4881 55.4687 59.4394 55.5066 59.3861 55.5036C60.3428 55.6897 61.2468 55.8157 62.074 55.8345L61.4315 55.7253C61.3738 55.7154 61.3345 55.6602 61.3444 55.6024L61.5628 54.3169C61.5726 54.2591 61.6279 54.2199 61.6857 54.2297L62.9713 54.4482C63.029 54.458 63.0683 54.5133 63.0584 54.571L62.8399 55.8566C62.8987 55.8584 62.9575 55.8596 63.0162 55.8618C63.0137 55.8493 63.0135 55.8363 63.0157 55.8231L63.2342 54.5377C63.244 54.4799 63.2994 54.4406 63.3572 54.4504L64.6426 54.669C64.7004 54.6788 64.7396 54.7341 64.7298 54.7919L64.5364 55.9307C64.5924 55.9337 64.6487 55.9363 64.7048 55.9395L64.9056 54.7584C64.9154 54.7007 64.9707 54.6614 65.0286 54.6712L66.3141 54.8897C66.3718 54.8995 66.4111 54.9549 66.4013 55.0127L66.2266 56.0402C66.2825 56.0444 66.3386 56.0484 66.3945 56.0527L66.577 54.9793C66.5868 54.9215 66.6421 54.8822 66.7 54.8921L67.9854 55.1105C68.0432 55.1202 68.0825 55.1757 68.0727 55.2334L67.9112 56.1836L68.0784 56.1998L68.2484 55.2001C68.2581 55.1422 68.3135 55.103 68.3713 55.1128L69.6568 55.3313C69.7146 55.3411 69.7539 55.3965 69.744 55.4543L69.5901 56.3599C69.6457 56.3662 69.7012 56.3731 69.7568 56.3796L69.9197 55.4208C69.9296 55.363 69.9849 55.3237 70.0428 55.3336L71.3282 55.5521C71.3859 55.5619 71.4252 55.6173 71.4154 55.6751L71.2636 56.568C71.3192 56.5755 71.3743 56.5835 71.4298 56.5912L71.5912 55.6417C71.601 55.5838 71.6563 55.5446 71.7142 55.5544L72.9997 55.7729C73.0574 55.7826 73.0966 55.8381 73.0869 55.8958L72.9318 56.8084L73.0974 56.8338L73.2626 55.8624C73.2724 55.8046 73.3277 55.7655 73.3856 55.7752L74.671 55.9937C74.7288 56.0035 74.7681 56.0589 74.7583 56.1167L74.5945 57.0795C74.6496 57.089 74.7049 57.0981 74.7599 57.1076L74.934 56.0832C74.9437 56.0255 74.9992 55.9863 75.0569 55.9961L76.3423 56.2145C76.4001 56.2243 76.4394 56.2797 76.4296 56.3374L76.2522 57.381C76.3071 57.3914 76.3622 57.4017 76.417 57.4122L76.6052 56.3041C76.6151 56.2463 76.6705 56.207 76.7284 56.2168L78.0137 56.4353C78.0715 56.4451 78.1107 56.5005 78.101 56.5582L77.9049 57.7126C77.9594 57.7241 78.0144 57.7354 78.0689 57.747L78.2767 56.5248C78.2866 56.467 78.3419 56.4278 78.3997 56.4375L79.6853 56.656C79.743 56.6659 79.7822 56.7213 79.7724 56.779L79.554 58.0645C79.5533 58.0679 79.5526 58.0713 79.5518 58.0745L79.7569 58.1215C79.7351 58.0981 79.7238 58.065 79.7296 58.0311L79.9482 56.7456C79.958 56.6878 80.0133 56.6486 80.0711 56.6584L81.3566 56.8768C81.4144 56.8867 81.4536 56.942 81.4438 56.9999L81.2253 58.2853C81.2155 58.3429 81.1601 58.3823 81.1023 58.3725L80.1077 58.2035C80.5903 58.3174 81.0687 58.4341 81.5415 58.554L82.6841 58.7481C82.742 58.758 82.7809 58.8133 82.7714 58.8712L82.7707 58.8754L82.9332 58.9192L82.9471 58.8377C82.9569 58.7799 83.0123 58.7407 83.0701 58.7505L84.3555 58.9689C84.4134 58.9788 84.4526 59.0342 84.4428 59.0918L84.4022 59.331C84.4562 59.3467 84.5103 59.3623 84.5642 59.378L84.6185 59.0586C84.6283 59.0008 84.6836 58.9614 84.7414 58.9712L86.0269 59.1898C86.0847 59.1995 86.1239 59.255 86.1141 59.3126L86.0278 59.8205C86.0816 59.8372 86.1358 59.8539 86.1894 59.8707L86.2899 59.2793C86.2997 59.2215 86.3551 59.1822 86.4128 59.192L87.6983 59.4105C87.7561 59.4203 87.7953 59.4757 87.7855 59.5335L87.6475 60.3456C87.7012 60.3636 87.755 60.3816 87.8084 60.3997L87.9613 59.5C87.9711 59.4422 88.0265 59.403 88.0842 59.4128L89.3697 59.6312C89.4275 59.6411 89.4667 59.6966 89.457 59.7543L89.2605 60.9097C89.3143 60.9292 89.3672 60.949 89.4206 60.9686L89.6326 59.7209C89.6425 59.6631 89.6978 59.6238 89.7557 59.6336L91.0411 59.8522C91.0989 59.8619 91.1382 59.9174 91.1284 59.9751L90.9098 61.2606C90.9001 61.3183 90.8446 61.3576 90.7868 61.3477L90.1449 61.2386C90.4246 61.3448 90.7003 61.4514 90.9718 61.5588C90.9931 61.5202 91.0373 61.4971 91.0833 61.505L92.3686 61.7234C92.4265 61.7332 92.4657 61.7886 92.4559 61.8463L92.4048 62.1466C92.4582 62.1693 92.5103 62.1922 92.5633 62.215L92.6316 61.813C92.6414 61.7552 92.6967 61.7159 92.7546 61.7257L94.04 61.9442C94.0978 61.954 94.1371 62.0094 94.1273 62.0671L93.993 62.8573C94.0452 62.8817 94.0987 62.9061 94.1506 62.9307L94.3031 62.0337C94.3129 61.9759 94.3682 61.9367 94.426 61.9464L95.7115 62.1649C95.7693 62.1748 95.8085 62.2302 95.7987 62.288L95.5803 63.5734C95.5767 63.5944 95.567 63.6131 95.5533 63.6278C95.6999 63.7043 95.8444 63.7808 95.9863 63.8573L97.039 64.0363C97.0968 64.046 97.136 64.1015 97.1262 64.1592L97.0731 64.4716C97.1243 64.5021 97.1772 64.5325 97.2277 64.5629L97.302 64.1258C97.3119 64.068 97.3671 64.0288 97.4249 64.0386L98.7104 64.257C98.7682 64.2669 98.8074 64.3222 98.7977 64.38L98.6125 65.469C98.6632 65.5052 98.7146 65.5416 98.7641 65.5777L98.9734 64.3466C98.9832 64.2888 99.0385 64.2495 99.0964 64.2594L100.382 64.4779C100.44 64.4877 100.479 64.543 100.469 64.6008L100.25 65.8863C100.241 65.944 100.185 65.9833 100.128 65.9735L99.047 65.7899C99.1417 65.8623 99.2337 65.9347 99.323 66.0068L100.038 66.1284C100.096 66.1381 100.135 66.1935 100.125 66.2514L100.058 66.6498C100.108 66.6988 100.155 66.7473 100.203 66.7959L100.301 66.2179C100.311 66.1601 100.366 66.1208 100.424 66.1306L101.709 66.3491C101.767 66.359 101.806 66.4143 101.797 66.4722L101.578 67.7575C101.568 67.8153 101.513 67.8547 101.455 67.8448L100.986 67.7651C101.062 67.8867 101.161 68.0763 101.265 68.2955ZM101.799 66.1943L100.514 65.9759C100.456 65.966 100.416 65.9107 100.426 65.8528L100.645 64.5675C100.655 64.5096 100.71 64.4704 100.768 64.4801L102.053 64.6987C102.111 64.7085 102.15 64.7639 102.14 64.8216L101.922 66.1071C101.912 66.1649 101.857 66.2042 101.799 66.1943ZM33.0277 32.8375L31.7422 32.619C31.6845 32.6092 31.6451 32.5538 31.655 32.496L31.8734 31.2106C31.8833 31.1528 31.9386 31.1135 31.9964 31.1233L33.2819 31.3418C33.3397 31.3516 33.3789 31.4071 33.3691 31.4648L33.1506 32.7502C33.1408 32.808 33.0854 32.8473 33.0277 32.8375ZM36.3705 33.2791L35.0849 33.0606C35.0272 33.0508 34.9878 32.9955 34.9977 32.9376L35.2163 31.6521C35.226 31.5944 35.2814 31.5551 35.3392 31.565L36.6246 31.7834C36.6824 31.7932 36.7217 31.8486 36.7119 31.9064L36.4934 33.1919C36.4836 33.2496 36.4281 33.2888 36.3705 33.2791ZM41.3846 33.9413L40.0992 33.723C40.0414 33.7131 40.0021 33.6578 40.0119 33.6L40.2304 32.3145C40.2403 32.2567 40.2956 32.2175 40.3534 32.2273L41.6388 32.4459C41.6967 32.4557 41.7358 32.511 41.7261 32.5688L41.5076 33.8543C41.4978 33.9119 41.4423 33.9513 41.3846 33.9413ZM93.1978 40.7861L91.9123 40.5677C91.8546 40.5578 91.8153 40.5025 91.8252 40.4447L92.0436 39.1592C92.0534 39.1013 92.1087 39.0622 92.1666 39.072L93.4521 39.2904C93.5098 39.3002 93.5491 39.3556 93.5393 39.4134L93.3208 40.6989C93.311 40.7566 93.2556 40.7959 93.1978 40.7861ZM99.8834 41.6693L98.5979 41.4508C98.5402 41.4409 98.5009 41.3856 98.5107 41.3278L98.7292 40.0424C98.7391 39.9846 98.7943 39.9454 98.8521 39.9551L100.138 40.1736C100.195 40.1834 100.235 40.2389 100.225 40.2966L100.006 41.582C99.9966 41.6398 99.9412 41.6792 99.8834 41.6693ZM34.3252 34.9272L33.0397 34.7089C32.9819 34.699 32.9427 34.6436 32.9525 34.5858L33.171 33.3004C33.1808 33.2426 33.2361 33.2034 33.2939 33.2132L34.5794 33.4316C34.6372 33.4414 34.6764 33.4968 34.6666 33.5546L34.448 34.8401C34.4383 34.8978 34.3829 34.9371 34.3252 34.9272ZM37.6679 35.3689L36.3826 35.1503C36.3248 35.1405 36.2854 35.0852 36.2953 35.0274L36.5138 33.7419C36.5236 33.6842 36.579 33.6449 36.6367 33.6547L37.9222 33.8732C37.98 33.883 38.0193 33.9384 38.0094 33.9962L37.791 35.2816C37.7811 35.3394 37.7257 35.3787 37.6679 35.3689ZM44.3535 36.252L43.0681 36.0336C43.0103 36.0239 42.971 35.9685 42.9808 35.9106L43.1994 34.6252C43.2092 34.5674 43.2646 34.5281 43.3223 34.538L44.6077 34.7564C44.6656 34.7662 44.7048 34.8216 44.695 34.8793L44.4766 36.1648C44.4667 36.2226 44.4113 36.2618 44.3535 36.252ZM47.6963 36.6937L46.4108 36.4751C46.3531 36.4653 46.3138 36.41 46.3236 36.3522L46.5421 35.0667C46.5519 35.0089 46.6072 34.9697 46.6651 34.9795L47.9506 35.1979C48.0083 35.2078 48.0476 35.2632 48.0377 35.321L47.8193 36.6064C47.8095 36.6642 47.7541 36.7035 47.6963 36.6937ZM67.7531 39.3431L66.4676 39.1247C66.4099 39.1149 66.3705 39.0596 66.3803 39.0018L66.5988 37.7163C66.6087 37.6585 66.664 37.6193 66.7218 37.6291L68.0073 37.8475C68.0652 37.8574 68.1043 37.9128 68.0945 37.9705L67.876 39.2559C67.8662 39.3137 67.8107 39.353 67.7531 39.3431ZM96.1668 43.0967L94.8812 42.8783C94.8235 42.8683 94.7842 42.8131 94.7941 42.7553L95.0126 41.4698C95.0224 41.4119 95.0777 41.3728 95.1356 41.3826L96.421 41.6012C96.4788 41.6109 96.518 41.6663 96.5082 41.7241L96.2897 43.0094C96.2799 43.0672 96.2245 43.1065 96.1668 43.0967ZM101.181 43.7591L99.8955 43.5406C99.8377 43.5308 99.7984 43.4755 99.8082 43.4176L100.027 42.1322C100.037 42.0744 100.092 42.0352 100.15 42.045L101.435 42.2635C101.493 42.2732 101.532 42.3286 101.523 42.3864L101.304 43.6718C101.294 43.7296 101.239 43.7689 101.181 43.7591ZM33.9513 36.7963L32.6659 36.5779C32.6081 36.568 32.5687 36.5127 32.5786 36.4549L32.7971 35.1694C32.807 35.1116 32.8623 35.0724 32.9201 35.0822L34.2056 35.3007C34.2634 35.3104 34.3026 35.3659 34.2928 35.4237L34.0743 36.709C34.0645 36.7668 34.0091 36.8061 33.9513 36.7963ZM37.2942 37.2379L36.0087 37.0194C35.9509 37.0096 35.9116 36.9543 35.9214 36.8965L36.1399 35.611C36.1497 35.5533 36.2051 35.514 36.2629 35.5238L37.5483 35.7422C37.6062 35.7521 37.6454 35.8075 37.6355 35.8652L37.417 37.1507C37.4072 37.2085 37.3518 37.2477 37.2942 37.2379ZM40.6369 37.6796L39.3515 37.461C39.2937 37.4512 39.2543 37.3959 39.2642 37.3381L39.4827 36.0526C39.4926 35.9948 39.5479 35.9556 39.6057 35.9653L40.8912 36.1839C40.949 36.1937 40.9882 36.2491 40.9784 36.3068L40.7599 37.5923C40.7501 37.6501 40.6947 37.6894 40.6369 37.6796ZM43.9797 38.1211L42.6941 37.9027C42.6365 37.8928 42.5972 37.8375 42.607 37.7797L42.8255 36.4942C42.8353 36.4365 42.8906 36.3971 42.9485 36.407L44.2339 36.6254C44.2916 36.6352 44.331 36.6907 44.3211 36.7484L44.1026 38.0339C44.0928 38.0916 44.0374 38.1309 43.9797 38.1211ZM65.7079 40.9915L64.4223 40.7729C64.3646 40.7631 64.3253 40.7078 64.3352 40.65L64.5535 39.3645C64.5635 39.3067 64.6187 39.2675 64.6766 39.2773L65.9621 39.4958C66.0198 39.5056 66.059 39.5609 66.0492 39.6188L65.8308 40.9042C65.821 40.9619 65.7655 41.0013 65.7079 40.9915ZM72.3933 41.8746L71.108 41.6562C71.0502 41.6464 71.0109 41.591 71.0208 41.5331L71.2392 40.2478C71.249 40.19 71.3043 40.1507 71.3621 40.1605L72.6477 40.379C72.7054 40.3888 72.7447 40.4442 72.7348 40.5019L72.5165 41.7874C72.5065 41.8452 72.4511 41.8844 72.3933 41.8746ZM79.0789 42.7578L77.7935 42.5393C77.7358 42.5294 77.6965 42.4742 77.7063 42.4163L77.9248 41.1309C77.9346 41.0731 77.9899 41.0338 78.0477 41.0436L79.3332 41.2621C79.391 41.272 79.4302 41.3274 79.4204 41.3852L79.2021 42.6705C79.1922 42.7284 79.1366 42.7676 79.0789 42.7578ZM84.0931 43.4202L82.8076 43.2017C82.75 43.1918 82.7106 43.1365 82.7205 43.0787L82.9389 41.7932C82.9487 41.7355 83.004 41.6962 83.0619 41.706L84.3474 41.9246C84.4052 41.9343 84.4444 41.9897 84.4346 42.0475L84.2161 43.333C84.2063 43.3907 84.1509 43.4301 84.0931 43.4202ZM89.1073 44.0826L87.8219 43.8641C87.7641 43.8543 87.7248 43.7989 87.7346 43.7411L87.9531 42.4557C87.963 42.3978 88.0183 42.3586 88.0761 42.3684L89.3615 42.5869C89.4193 42.5967 89.4587 42.6521 89.4488 42.7099L89.2303 43.9953C89.2205 44.0531 89.1651 44.0924 89.1073 44.0826ZM90.7787 44.3033L89.4932 44.0849C89.4355 44.075 89.3962 44.0197 89.406 43.962L89.6245 42.6765C89.6343 42.6186 89.6896 42.5795 89.7475 42.5893L91.0329 42.8077C91.0907 42.8175 91.13 42.8729 91.1202 42.9307L90.9017 44.2161C90.8919 44.2739 90.8365 44.3132 90.7787 44.3033ZM35.2489 38.8862L33.9634 38.6677C33.9056 38.6578 33.8664 38.6025 33.8762 38.5447L34.0947 37.2592C34.1045 37.2014 34.1598 37.1622 34.2176 37.1721L35.5031 37.3905C35.5608 37.4003 35.6001 37.4557 35.5903 37.5135L35.3718 38.7989C35.3621 38.8567 35.3066 38.8961 35.2489 38.8862ZM38.5917 39.3279L37.3062 39.1093C37.2484 39.0995 37.2092 39.0441 37.219 38.9863L37.4374 37.7009C37.4473 37.6431 37.5027 37.6037 37.5604 37.6136L38.8458 37.8322C38.9037 37.8419 38.9429 37.8973 38.9331 37.9551L38.7146 39.2406C38.7048 39.2983 38.6494 39.3377 38.5917 39.3279ZM41.9345 39.7693L40.649 39.5509C40.5912 39.541 40.5519 39.4858 40.5618 39.4279L40.7803 38.1424C40.7901 38.0846 40.8454 38.0455 40.9032 38.0552L42.1887 38.2737C42.2464 38.2834 42.2857 38.3389 42.2759 38.3967L42.0574 39.6821C42.0476 39.7398 41.9923 39.7791 41.9345 39.7693ZM43.6059 39.9902L42.3204 39.7717C42.2626 39.7619 42.2233 39.7065 42.2331 39.6487L42.4517 38.3633C42.4615 38.3055 42.5168 38.2662 42.5746 38.276L43.8601 38.4946C43.9179 38.5044 43.9571 38.5597 43.9473 38.6175L43.7288 39.9029C43.719 39.9608 43.6636 39.9999 43.6059 39.9902ZM45.3646 40.223L44.0792 40.0045C44.0215 39.9948 43.9822 39.9393 43.992 39.8815L44.2104 38.5961C44.2203 38.5383 44.2756 38.499 44.3334 38.5089L45.6189 38.7273C45.6767 38.7371 45.716 38.7925 45.7061 38.8502L45.4876 40.1358C45.4778 40.1935 45.4223 40.2328 45.3646 40.223ZM65.3339 42.8604L64.0485 42.642C63.9907 42.6322 63.9515 42.5769 63.9613 42.519L64.1798 41.2335C64.1896 41.1757 64.245 41.1366 64.3027 41.1463L65.5881 41.3648C65.646 41.3747 65.6852 41.4299 65.6755 41.4878L65.4569 42.7732C65.4471 42.831 65.3917 42.8703 65.3339 42.8604ZM70.3482 43.5228L69.0627 43.3044C69.005 43.2946 68.9656 43.2393 68.9754 43.1814L69.194 41.8959C69.2037 41.8381 69.2591 41.799 69.3169 41.8088L70.6024 42.0273C70.6602 42.0371 70.6994 42.0924 70.6896 42.1502L70.4712 43.4357C70.4614 43.4934 70.4059 43.5327 70.3482 43.5228ZM75.3624 44.1853L74.0769 43.9668C74.0191 43.9569 73.9798 43.9017 73.9897 43.8438L74.2081 42.5583C74.2179 42.5006 74.2732 42.4613 74.3311 42.4711L75.6165 42.6895C75.6744 42.6994 75.7135 42.7548 75.7037 42.8126L75.4853 44.0981C75.4755 44.1557 75.42 44.195 75.3624 44.1853ZM78.7051 44.6269L77.4197 44.4083C77.3619 44.3985 77.3227 44.3431 77.3324 44.2854L77.5509 43C77.5607 42.9421 77.616 42.903 77.6739 42.9127L78.9593 43.1312C79.0172 43.141 79.0564 43.1963 79.0466 43.2542L78.8281 44.5396C78.8182 44.5974 78.7629 44.6367 78.7051 44.6269ZM80.3765 44.8477L79.091 44.6292C79.0332 44.6195 78.994 44.564 79.0038 44.5062L79.2222 43.2208C79.232 43.163 79.2875 43.1237 79.3453 43.1335L80.6307 43.352C80.6885 43.3618 80.7278 43.4172 80.7179 43.4749L80.4995 44.7604C80.4897 44.8182 80.4342 44.8575 80.3765 44.8477ZM87.0621 45.7308L85.7766 45.5123C85.7189 45.5025 85.6796 45.4472 85.6894 45.3893L85.9079 44.1039C85.9176 44.0461 85.973 44.0069 86.0308 44.0166L87.3162 44.2352C87.3741 44.245 87.4133 44.3004 87.4035 44.3581L87.1851 45.6436C87.1753 45.7014 87.1198 45.7407 87.0621 45.7308ZM88.7335 45.9516L87.4481 45.7331C87.3902 45.7233 87.351 45.668 87.3608 45.6102L87.5793 44.3247C87.5892 44.2669 87.6443 44.2278 87.7022 44.2374L88.9877 44.4559C89.0455 44.4657 89.0847 44.5212 89.0749 44.5789L88.8565 45.8644C88.8467 45.9221 88.7911 45.9614 88.7335 45.9516ZM92.0762 46.3932L90.7908 46.1748C90.733 46.1649 90.6937 46.1095 90.7036 46.0517L90.9221 44.7663C90.9319 44.7085 90.9872 44.6693 91.0451 44.679L92.3305 44.8975C92.3883 44.9074 92.4275 44.9628 92.4177 45.0205L92.1992 46.306C92.1894 46.3638 92.134 46.4031 92.0762 46.3932ZM95.4191 46.8348L94.1337 46.6164C94.0758 46.6065 94.0365 46.5512 94.0464 46.4934L94.2649 45.2079C94.2747 45.1501 94.33 45.1108 94.3878 45.1207L95.6733 45.3391C95.7311 45.349 95.7703 45.4043 95.7605 45.4622L95.5421 46.7476C95.5323 46.8053 95.4767 46.8446 95.4191 46.8348ZM100.433 47.4972L99.1478 47.2787C99.09 47.2689 99.0507 47.2136 99.0606 47.1557L99.279 45.8703C99.2888 45.8125 99.3442 45.7732 99.402 45.783L100.687 46.0016C100.745 46.0113 100.784 46.0667 100.775 46.1245L100.556 47.41C100.546 47.4677 100.491 47.507 100.433 47.4972ZM36.2421 41.2459L34.9566 41.0275C34.8988 41.0177 34.8596 40.9623 34.8694 40.9045L35.0878 39.6191C35.0977 39.5612 35.153 39.522 35.2109 39.5318L36.4963 39.7503C36.5541 39.76 36.5934 39.8156 36.5836 39.8733L36.3651 41.1587C36.3553 41.2165 36.2999 41.2557 36.2421 41.2459ZM38.0446 41.4848L36.7591 41.2662C36.7015 41.2564 36.6621 41.2011 36.672 41.1433L36.8904 39.8578C36.9003 39.8 36.9555 39.7609 37.0134 39.7706L38.2989 39.9891C38.3566 39.9989 38.3959 40.0543 38.3861 40.1121L38.1675 41.3975C38.1578 41.4553 38.1023 41.4947 38.0446 41.4848ZM39.8471 41.7236L38.5617 41.5051C38.504 41.4953 38.4647 41.44 38.4745 41.3821L38.693 40.0967C38.7027 40.039 38.7581 39.9997 38.8159 40.0094L40.1013 40.2279C40.1591 40.2377 40.1984 40.2931 40.1886 40.3508L39.9701 41.6364C39.9603 41.6941 39.9049 41.7334 39.8471 41.7236ZM43.184 42.2089L41.8985 41.9904C41.8407 41.9806 41.8014 41.9253 41.8113 41.8675L42.0298 40.5819C42.0395 40.5242 42.0949 40.4849 42.1527 40.4948L43.4382 40.7132C43.4959 40.7231 43.5352 40.7785 43.5254 40.8362L43.3069 42.1217C43.2971 42.1794 43.2416 42.2187 43.184 42.2089ZM44.8613 42.3859L43.5759 42.1676C43.5182 42.1577 43.4788 42.1024 43.4886 42.0445L43.7071 40.7591C43.717 40.7013 43.7723 40.6621 43.8302 40.6718L45.1155 40.8903C45.1734 40.9001 45.2126 40.9555 45.2029 41.0132L44.9843 42.2988C44.9745 42.3565 44.9191 42.3958 44.8613 42.3859ZM46.6262 42.5751L45.3407 42.3566C45.2829 42.3467 45.2436 42.2914 45.2535 42.2336L45.472 40.9482C45.4818 40.8903 45.5372 40.8512 45.595 40.861L46.8804 41.0793C46.9382 41.0892 46.9775 41.1446 46.9677 41.2023L46.7491 42.4878C46.7393 42.5456 46.6839 42.5849 46.6262 42.5751ZM49.8755 43.0484L48.5901 42.8298C48.5323 42.82 48.493 42.7647 48.5029 42.707L48.7214 41.4214C48.7312 41.3636 48.7865 41.3245 48.8443 41.3342L50.1298 41.5527C50.1876 41.5624 50.2268 41.6179 50.217 41.6757L49.9986 42.9611C49.9887 43.0188 49.9332 43.0581 49.8755 43.0484ZM54.8898 43.7107L53.6042 43.4922C53.5465 43.4824 53.5072 43.4271 53.5171 43.3692L53.7355 42.0838C53.7453 42.0261 53.8006 41.9868 53.8584 41.9966L55.144 42.2151C55.2017 42.2249 55.241 42.2803 55.2311 42.338L55.0128 43.6235C55.0029 43.6813 54.9474 43.7205 54.8898 43.7107ZM68.2608 45.4771L66.9754 45.2586C66.9177 45.2488 66.8784 45.1935 66.8882 45.1357L67.1066 43.8502C67.1165 43.7924 67.1719 43.7531 67.2296 43.7629L68.5151 43.9815C68.5729 43.9912 68.6121 44.0466 68.6023 44.1044L68.3839 45.3899C68.3741 45.4476 68.3186 45.487 68.2608 45.4771ZM69.9323 45.6979L68.6468 45.4795C68.5891 45.4696 68.5497 45.4143 68.5596 45.3565L68.778 44.071C68.788 44.0132 68.8432 43.9739 68.9011 43.9838L70.1865 44.2023C70.2442 44.212 70.2834 44.2674 70.2736 44.3253L70.0552 45.6106C70.0454 45.6684 69.99 45.7076 69.9323 45.6979ZM74.9464 46.3603L73.661 46.1418C73.6032 46.132 73.564 46.0767 73.5738 46.0189L73.7921 44.7334C73.802 44.6756 73.8574 44.6363 73.9152 44.6461L75.2007 44.8647C75.2584 44.8744 75.2977 44.9299 75.2879 44.9876L75.0694 46.2731C75.0597 46.3309 75.0041 46.3701 74.9464 46.3603ZM78.2892 46.8018L77.0038 46.5834C76.946 46.5736 76.9067 46.5183 76.9165 46.4604L77.135 45.1749C77.1449 45.1172 77.2002 45.0779 77.258 45.0877L78.5434 45.3062C78.6013 45.3161 78.6405 45.3714 78.6307 45.4292L78.4122 46.7147C78.4024 46.7724 78.347 46.8117 78.2892 46.8018ZM79.9606 47.0227L78.6751 46.8043C78.6174 46.7944 78.5781 46.739 78.5879 46.6812L78.8063 45.3958C78.8162 45.338 78.8715 45.2987 78.9294 45.3085L80.2148 45.527C80.2726 45.5368 80.3119 45.5923 80.3021 45.6499L80.0836 46.9355C80.0738 46.9932 80.0183 47.0325 79.9606 47.0227ZM83.3034 47.4642L82.018 47.2458C81.9602 47.2359 81.9209 47.1806 81.9307 47.1228L82.1493 45.8373C82.1591 45.7795 82.2144 45.7404 82.2722 45.7502L83.5576 45.9685C83.6154 45.9784 83.6547 46.0338 83.6448 46.0916L83.4265 47.377C83.4166 47.4347 83.3611 47.474 83.3034 47.4642ZM93.3317 48.789L92.0463 48.5706C91.9886 48.5608 91.9492 48.5055 91.9591 48.4476L92.1776 47.1621C92.1874 47.1043 92.2427 47.0651 92.3006 47.0749L93.5861 47.2934C93.6438 47.3032 93.6831 47.3586 93.6732 47.4163L93.4547 48.7018C93.4449 48.7596 93.3894 48.7989 93.3317 48.789ZM95.0031 49.0099L93.7177 48.7913C93.66 48.7815 93.6207 48.7262 93.6304 48.6683L93.849 47.3829C93.8588 47.3251 93.9142 47.2858 93.9719 47.2956L95.2573 47.5142C95.3151 47.524 95.3544 47.5794 95.3445 47.6372L95.1261 48.9226C95.1163 48.9803 95.0609 49.0197 95.0031 49.0099ZM98.3459 49.4514L97.0605 49.233C97.0027 49.2232 96.9634 49.1678 96.9732 49.11L97.1918 47.8245C97.2016 47.7668 97.2569 47.7275 97.3148 47.7373L98.6002 47.9558C98.658 47.9656 98.6973 48.021 98.6874 48.0787L98.4689 49.3643C98.4591 49.422 98.4037 49.4612 98.3459 49.4514ZM101.689 49.893L100.403 49.6745C100.346 49.6647 100.306 49.6094 100.316 49.5516L100.535 48.2661C100.544 48.2083 100.6 48.1691 100.657 48.1789L101.943 48.3973C102.001 48.4071 102.04 48.4625 102.03 48.5203L101.812 49.8058C101.802 49.8636 101.746 49.9028 101.689 49.893ZM37.6211 43.3915L36.3356 43.173C36.2778 43.1631 36.2386 43.1078 36.2484 43.05L36.467 41.7646C36.4767 41.7068 36.532 41.6676 36.5898 41.6774L37.8754 41.8958C37.933 41.9056 37.9723 41.9611 37.9625 42.0188L37.744 43.3043C37.7343 43.362 37.6788 43.4014 37.6211 43.3915ZM39.3799 43.6244L38.0944 43.4059C38.0367 43.3961 37.9973 43.3407 38.0071 43.2829L38.2257 41.9975C38.2356 41.9396 38.2908 41.9003 38.3486 41.9101L39.6341 42.1287C39.692 42.1385 39.7312 42.1939 39.7214 42.2516L39.5029 43.5371C39.4931 43.595 39.4377 43.6342 39.3799 43.6244ZM41.095 43.8512L39.8096 43.6327C39.7518 43.6229 39.7125 43.5675 39.7223 43.5097L39.9408 42.2242C39.9506 42.1665 40.006 42.1271 40.0637 42.1369L41.3493 42.3555C41.4071 42.3653 41.4463 42.4206 41.4365 42.4785L41.218 43.7639C41.2082 43.8216 41.1527 43.861 41.095 43.8512ZM42.8101 44.0779L41.5247 43.8595C41.4669 43.8496 41.4276 43.7943 41.4375 43.7365L41.6559 42.451C41.6657 42.3932 41.7211 42.3539 41.7789 42.3637L43.0643 42.5823C43.1222 42.592 43.1613 42.6476 43.1515 42.7053L42.933 43.9907C42.9233 44.0485 42.8678 44.0876 42.8101 44.0779ZM46.1529 44.5194L44.8674 44.3011C44.8097 44.2912 44.7703 44.2358 44.7802 44.1781L44.9987 42.8926C45.0085 42.8347 45.0639 42.7956 45.1217 42.8054L46.4071 43.0239C46.4649 43.0336 46.5042 43.0891 46.4944 43.1468L46.2758 44.4323C46.266 44.49 46.2106 44.5294 46.1529 44.5194ZM49.4957 44.9611L48.2103 44.7426C48.1524 44.7328 48.1132 44.6774 48.123 44.6196L48.3415 43.3342C48.3513 43.2764 48.4066 43.2372 48.4644 43.2469L49.7499 43.4654C49.8077 43.4752 49.8469 43.5306 49.8371 43.5884L49.6187 44.8739C49.6089 44.9317 49.5534 44.971 49.4957 44.9611ZM51.1671 45.1819L49.8816 44.9635C49.8239 44.9536 49.7845 44.8984 49.7943 44.8405L50.0129 43.555C50.0228 43.4972 50.0781 43.458 50.1359 43.4678L51.4213 43.6862C51.4791 43.6961 51.5183 43.7514 51.5085 43.8092L51.29 45.0947C51.2803 45.1524 51.2248 45.1918 51.1671 45.1819ZM56.1813 45.8443L54.8958 45.6258C54.838 45.616 54.7988 45.5607 54.8086 45.5029L55.0271 44.2174C55.0369 44.1596 55.0922 44.1203 55.15 44.1302L56.4354 44.3487C56.4933 44.3584 56.5324 44.4139 56.5227 44.4716L56.3042 45.7571C56.2945 45.8148 56.239 45.8541 56.1813 45.8443ZM59.524 46.2859L58.2386 46.0674C58.1807 46.0576 58.1415 46.0022 58.1513 45.9445L58.3699 44.659C58.3797 44.6011 58.435 44.562 58.4928 44.5718L59.7782 44.7903C59.836 44.8 59.8754 44.8553 59.8656 44.9132L59.647 46.1987C59.6372 46.2564 59.5818 46.2957 59.524 46.2859ZM64.5382 46.9482L63.2528 46.7297C63.195 46.7199 63.1557 46.6647 63.1655 46.6068L63.3841 45.3214C63.3939 45.2635 63.4492 45.2244 63.507 45.2342L64.7924 45.4526C64.8502 45.4624 64.8894 45.5177 64.8796 45.5755L64.6612 46.861C64.6514 46.9188 64.596 46.958 64.5382 46.9482ZM69.5524 47.6106L68.2669 47.3922C68.2092 47.3823 68.1699 47.3271 68.1797 47.2692L68.3981 45.9838C68.408 45.9259 68.4635 45.8868 68.5211 45.8965L69.8066 46.115C69.8644 46.1248 69.9036 46.1802 69.8938 46.2379L69.6754 47.5234C69.6656 47.5812 69.6102 47.6204 69.5524 47.6106ZM71.2238 47.8314L69.9384 47.613C69.8806 47.6032 69.8413 47.5478 69.8511 47.49L70.0696 46.2045C70.0795 46.1468 70.1347 46.1075 70.1926 46.1173L71.478 46.3359C71.5359 46.3457 71.575 46.401 71.5653 46.4589L71.3468 47.7443C71.337 47.8019 71.2816 47.8412 71.2238 47.8314ZM72.8952 48.0523L71.6097 47.8338C71.5519 47.8239 71.5126 47.7685 71.5225 47.7107L71.741 46.4253C71.7508 46.3675 71.8062 46.3284 71.864 46.3381L73.1494 46.5565C73.2072 46.5664 73.2465 46.6218 73.2367 46.6796L73.0181 47.965C73.0084 48.0228 72.9529 48.0621 72.8952 48.0523ZM74.5665 48.2731L73.2811 48.0546C73.2233 48.0447 73.184 47.9895 73.1939 47.9316L73.4124 46.6461C73.4221 46.5883 73.4775 46.5491 73.5353 46.559L74.8207 46.7773C74.8786 46.7871 74.9179 46.8425 74.908 46.9003L74.6895 48.1858C74.6797 48.2436 74.6243 48.2829 74.5665 48.2731ZM76.238 48.4939L74.9526 48.2754C74.8947 48.2655 74.8555 48.2102 74.8653 48.1524L75.0838 46.8669C75.0936 46.8092 75.1489 46.7698 75.2067 46.7796L76.4922 46.9982C76.5501 47.008 76.5891 47.0634 76.5794 47.1212L76.361 48.4067C76.3512 48.4644 76.2956 48.5037 76.238 48.4939ZM77.9094 48.7146L76.624 48.4961C76.5662 48.4863 76.5268 48.431 76.5367 48.3732L76.7552 47.0877C76.765 47.0299 76.8203 46.9906 76.8781 47.0005L78.1636 47.219C78.2214 47.2287 78.2606 47.2841 78.2508 47.3419L78.0324 48.6273C78.0226 48.6851 77.9671 48.7244 77.9094 48.7146ZM79.5808 48.9354L78.2953 48.7169C78.2375 48.7071 78.1983 48.6517 78.2081 48.594L78.4265 47.3085C78.4364 47.2506 78.4917 47.2115 78.5496 47.2213L79.835 47.4398C79.8928 47.4496 79.932 47.505 79.9223 47.5628L79.7037 48.8481C79.694 48.906 79.6385 48.9452 79.5808 48.9354ZM82.9236 49.377L81.6382 49.1585C81.5804 49.1487 81.541 49.0934 81.5509 49.0355L81.7693 47.7501C81.7792 47.6923 81.8344 47.6531 81.8923 47.6629L83.1778 47.8813C83.2356 47.8911 83.2747 47.9466 83.265 48.0043L83.0465 49.2897C83.0368 49.3475 82.9813 49.3868 82.9236 49.377ZM89.6092 50.2602L88.3237 50.0417C88.266 50.0319 88.2266 49.9766 88.2365 49.9188L88.4549 48.6333C88.4648 48.5755 88.5201 48.5362 88.5779 48.546L89.8634 48.7644C89.9211 48.7743 89.9603 48.8298 89.9505 48.8876L89.7321 50.173C89.7223 50.2307 89.6669 50.27 89.6092 50.2602ZM92.9519 50.7017L91.6665 50.4833C91.6087 50.4734 91.5694 50.4182 91.5792 50.3603L91.7978 49.0748C91.8076 49.017 91.8629 48.9779 91.9207 48.9876L93.2061 49.2061C93.2639 49.2159 93.3032 49.2713 93.2934 49.329L93.0749 50.6145C93.0651 50.6723 93.0097 50.7116 92.9519 50.7017ZM94.6234 50.9227L93.3378 50.7041C93.2801 50.6943 93.2407 50.639 93.2506 50.5811L93.469 49.2957C93.4789 49.2379 93.5342 49.1986 93.592 49.2085L94.8775 49.427C94.9353 49.4368 94.9746 49.4921 94.9648 49.5499L94.7462 50.8354C94.7365 50.8932 94.681 50.9324 94.6234 50.9227ZM96.2947 51.1434L95.0093 50.9249C94.9515 50.9151 94.9122 50.8597 94.9221 50.8019L95.1405 49.5165C95.1502 49.4586 95.2057 49.4194 95.2634 49.4292L96.5489 49.6477C96.6067 49.6575 96.6459 49.7129 96.6361 49.7707L96.4177 51.0561C96.4079 51.1139 96.3524 51.1533 96.2947 51.1434ZM97.9661 51.3642L96.6807 51.1457C96.6229 51.1359 96.5836 51.0805 96.5934 51.0228L96.812 49.7372C96.8218 49.6795 96.8771 49.6403 96.9349 49.65L98.2203 49.8686C98.2782 49.8783 98.3173 49.9337 98.3075 49.9914L98.0891 51.2769C98.0793 51.3347 98.0238 51.3739 97.9661 51.3642ZM37.4161 45.3282L36.1306 45.1098C36.0729 45.1 36.0336 45.0447 36.0434 44.9869L36.2619 43.7014C36.2717 43.6435 36.327 43.6044 36.3848 43.6141L37.6703 43.8326C37.7281 43.8424 37.7673 43.8979 37.7575 43.9555L37.5391 45.241C37.5292 45.2988 37.4738 45.338 37.4161 45.3282ZM40.7589 45.7699L39.4734 45.5514C39.4156 45.5415 39.3763 45.4863 39.3861 45.4284L39.6046 44.1429C39.6145 44.0852 39.6698 44.0459 39.7276 44.0557L41.013 44.2742C41.0709 44.284 41.1101 44.3394 41.1003 44.3972L40.8818 45.6826C40.872 45.7404 40.8165 45.7797 40.7589 45.7699ZM44.1017 46.2115L42.8162 45.993C42.7585 45.9832 42.7191 45.9278 42.729 45.87L42.9475 44.5846C42.9573 44.5268 43.0126 44.4876 43.0704 44.4974L44.3559 44.7159C44.4137 44.7257 44.4529 44.7811 44.4431 44.8389L44.2247 46.1243C44.2149 46.182 44.1594 46.2213 44.1017 46.2115ZM45.773 46.4323L44.4876 46.2138C44.4298 46.2039 44.3905 46.1486 44.4003 46.0908L44.6189 44.8053C44.6287 44.7475 44.684 44.7084 44.7419 44.7182L46.0273 44.9366C46.0851 44.9463 46.1243 45.0018 46.1145 45.0595L45.896 46.345C45.8862 46.4028 45.8307 46.4421 45.773 46.4323ZM54.13 47.5362L52.8445 47.3177C52.7867 47.3079 52.7474 47.2525 52.7573 47.1948L52.9758 45.9093C52.9856 45.8515 53.041 45.8123 53.0988 45.8221L54.3843 46.0406C54.442 46.0504 54.4813 46.1058 54.4715 46.1636L54.2529 47.449C54.2431 47.5068 54.1877 47.5461 54.13 47.5362ZM59.1442 48.1986L57.8587 47.9801C57.8009 47.9703 57.7616 47.915 57.7715 47.8572L57.99 46.5717C57.9999 46.5139 58.0552 46.4747 58.1131 46.4845L59.3984 46.703C59.4562 46.7128 59.4954 46.7682 59.4856 46.826L59.2672 48.1114C59.2573 48.1692 59.2019 48.2085 59.1442 48.1986ZM62.487 48.6403L61.2015 48.4218C61.1437 48.412 61.1045 48.3566 61.1144 48.2988L61.3327 47.0134C61.3426 46.9555 61.3978 46.9162 61.4557 46.9261L62.7412 47.1446C62.799 47.1544 62.8382 47.2098 62.8284 47.2676L62.6099 48.553C62.6001 48.6108 62.5447 48.6501 62.487 48.6403ZM65.8297 49.0818L64.5443 48.8633C64.4865 48.8534 64.4472 48.7982 64.457 48.7404L64.6756 47.455C64.6854 47.3971 64.7407 47.3579 64.7986 47.3677L66.084 47.5862C66.1418 47.596 66.181 47.6514 66.1712 47.7091L65.9528 48.9946C65.9429 49.0524 65.8875 49.0916 65.8297 49.0818ZM67.5012 49.3026L66.2157 49.0842C66.1579 49.0743 66.1186 49.0189 66.1284 48.9611L66.3469 47.6758C66.3567 47.6179 66.4121 47.5787 66.47 47.5884L67.7554 47.807C67.8131 47.8168 67.8524 47.8722 67.8426 47.9299L67.6241 49.2154C67.6143 49.2732 67.5588 49.3125 67.5012 49.3026ZM69.1726 49.5234L67.887 49.3049C67.8293 49.2951 67.79 49.2398 67.7998 49.182L68.0183 47.8965C68.0281 47.8386 68.0834 47.7994 68.1413 47.8093L69.4268 48.0278C69.4845 48.0375 69.5238 48.0929 69.514 48.1507L69.2955 49.4362C69.2857 49.4939 69.2303 49.5333 69.1726 49.5234ZM72.5154 49.965L71.2299 49.7465C71.1721 49.7367 71.1328 49.6813 71.1426 49.6236L71.3612 48.3381C71.371 48.2803 71.4264 48.2411 71.4841 48.2508L72.7696 48.4694C72.8274 48.4791 72.8666 48.5345 72.8568 48.5923L72.6383 49.8777C72.6285 49.9356 72.573 49.9748 72.5154 49.965ZM75.858 50.4066L74.5727 50.1881C74.5149 50.1783 74.4756 50.123 74.4855 50.0652L74.7039 48.7797C74.7138 48.7219 74.769 48.6827 74.8268 48.6924L76.1124 48.911C76.1702 48.9207 76.2094 48.9761 76.1996 49.0338L75.9812 50.3193C75.9712 50.3771 75.9158 50.4164 75.858 50.4066ZM77.5295 50.6274L76.2441 50.4089C76.1864 50.3991 76.147 50.3437 76.1568 50.2859L76.3753 49.0005C76.3852 48.9427 76.4405 48.9034 76.4983 48.9132L77.7838 49.1318C77.8415 49.1416 77.8807 49.1969 77.871 49.2547L77.6525 50.5401C77.6427 50.598 77.5873 50.6372 77.5295 50.6274ZM79.201 50.8482L77.9155 50.6296C77.8577 50.6199 77.8184 50.5645 77.8282 50.5067L78.0467 49.2212C78.0566 49.1635 78.1119 49.1243 78.1697 49.134L79.4552 49.3525C79.5129 49.3624 79.5521 49.4177 79.5424 49.4755L79.3239 50.761C79.3141 50.8186 79.2586 50.858 79.201 50.8482ZM80.8723 51.069L79.5868 50.8506C79.5291 50.8407 79.4897 50.7853 79.4996 50.7275L79.7181 49.4421C79.728 49.3843 79.7833 49.345 79.8411 49.3549L81.1265 49.5734C81.1843 49.5831 81.2236 49.6385 81.2138 49.6962L80.9952 50.9818C80.9854 51.0395 80.93 51.0788 80.8723 51.069ZM82.5436 51.2898L81.2582 51.0713C81.2006 51.0614 81.1612 51.0061 81.1709 50.9483L81.3895 49.6629C81.3993 49.6051 81.4546 49.5658 81.5124 49.5756L82.7979 49.7941C82.8557 49.804 82.8949 49.8593 82.8852 49.9171L82.6667 51.2025C82.6569 51.2603 82.6014 51.2996 82.5436 51.2898ZM84.2151 51.5105L82.9297 51.292C82.8719 51.2822 82.8326 51.2269 82.8424 51.1692L83.0609 49.8835C83.0708 49.8259 83.1261 49.7866 83.1838 49.7965L84.4693 50.0148C84.5271 50.0247 84.5663 50.0801 84.5565 50.1379L84.338 51.4233C84.3282 51.481 84.2728 51.5204 84.2151 51.5105ZM87.5578 51.9522L86.2724 51.7336C86.2146 51.7238 86.1753 51.6685 86.1852 51.6107L86.4036 50.3252C86.4135 50.2674 86.4688 50.2282 86.5266 50.238L87.8121 50.4566C87.8699 50.4663 87.9092 50.5217 87.8994 50.5795L87.6809 51.8649C87.671 51.9227 87.6157 51.9621 87.5578 51.9522ZM89.2293 52.1729L87.9438 51.9544C87.8861 51.9447 87.8467 51.8893 87.8565 51.8316L88.075 50.5461C88.0849 50.4882 88.1402 50.449 88.198 50.4588L89.4835 50.6773C89.5413 50.6871 89.5805 50.7424 89.5707 50.8003L89.3522 52.0857C89.3424 52.1435 89.287 52.1827 89.2293 52.1729ZM92.572 52.6146L91.2866 52.396C91.2289 52.3862 91.1895 52.3308 91.1993 52.273L91.4179 50.9876C91.4277 50.9298 91.483 50.8906 91.5408 50.9004L92.8263 51.1189C92.8841 51.1287 92.9233 51.1841 92.9134 51.2418L92.6951 52.5273C92.6852 52.5851 92.6298 52.6244 92.572 52.6146ZM94.2435 52.8353L92.958 52.6169C92.9002 52.6071 92.8609 52.5517 92.8707 52.4939L93.0892 51.2084C93.0991 51.1506 93.1544 51.1114 93.2122 51.1212L94.4977 51.3397C94.5554 51.3495 94.5948 51.4048 94.585 51.4626L94.3664 52.7481C94.3566 52.8059 94.3012 52.8452 94.2435 52.8353ZM95.9149 53.0561L94.6294 52.8377C94.5717 52.8278 94.5324 52.7725 94.5422 52.7147L94.7606 51.4292C94.7705 51.3715 94.8257 51.3321 94.8836 51.342L96.1691 51.5605C96.2269 51.5703 96.2661 51.6256 96.2563 51.6834L96.0378 52.9689C96.028 53.0267 95.9725 53.066 95.9149 53.0561ZM97.5862 53.2769L96.3008 53.0584C96.2431 53.0486 96.2038 52.9932 96.2136 52.9355L96.4321 51.65C96.4419 51.5922 96.4972 51.553 96.555 51.5627L97.8405 51.7812C97.8983 51.7911 97.9375 51.8465 97.9276 51.9042L97.7093 53.1896C97.6994 53.2474 97.6439 53.2868 97.5862 53.2769ZM38.7016 47.5056L37.4161 47.287C37.3584 47.2772 37.3191 47.2219 37.3289 47.1641L37.5474 45.8786C37.5573 45.8208 37.6126 45.7817 37.6704 45.7915L38.9558 46.0099C39.0136 46.0197 39.0529 46.0751 39.043 46.1329L38.8245 47.4183C38.8148 47.4761 38.7593 47.5154 38.7016 47.5056ZM42.0444 47.9472L40.7589 47.7287C40.7011 47.7189 40.6619 47.6635 40.6717 47.6057L40.8902 46.3203C40.9 46.2625 40.9554 46.2231 41.0131 46.233L42.2986 46.4515C42.3564 46.4613 42.3957 46.5166 42.3858 46.5745L42.1673 47.8599C42.1576 47.9177 42.1021 47.957 42.0444 47.9472ZM43.7158 48.1679L42.4303 47.9495C42.3726 47.9396 42.3332 47.8843 42.3431 47.8265L42.5616 46.541C42.5715 46.4832 42.6267 46.444 42.6845 46.4538L43.97 46.6723C44.0279 46.682 44.0671 46.7375 44.0572 46.7952L43.8387 48.0807C43.829 48.1384 43.7735 48.1778 43.7158 48.1679ZM45.3872 48.3887L44.1017 48.1702C44.0439 48.1605 44.0047 48.1051 44.0145 48.0474L44.2329 46.7619C44.2428 46.704 44.2981 46.6648 44.3559 46.6746L45.6413 46.8931C45.6992 46.9029 45.7385 46.9583 45.7286 47.016L45.5101 48.3015C45.5003 48.3593 45.4449 48.3985 45.3872 48.3887ZM47.0586 48.6095L45.7731 48.391C45.7153 48.3812 45.6761 48.3259 45.6859 48.268L45.9044 46.9826C45.9142 46.9248 45.9695 46.8856 46.0273 46.8954L47.3127 47.1139C47.3706 47.1237 47.4098 47.1791 47.4 47.2369L47.1815 48.5223C47.1717 48.5801 47.1162 48.6193 47.0586 48.6095ZM48.73 48.8303L47.4446 48.6118C47.3867 48.602 47.3474 48.5467 47.3573 48.4888L47.5758 47.2033C47.5856 47.1457 47.6409 47.1065 47.6987 47.1162L48.9842 47.3347C49.042 47.3444 49.0812 47.3999 49.0714 47.4576L48.853 48.7431C48.8432 48.8008 48.7877 48.8402 48.73 48.8303ZM50.4194 48.92L49.1339 48.7015C49.0762 48.6917 49.0368 48.6363 49.0467 48.5785L49.2652 47.2931C49.275 47.2353 49.3303 47.196 49.3881 47.2058L50.6736 47.4244C50.7314 47.4342 50.7706 47.4896 50.7608 47.5473L50.5423 48.8328C50.5326 48.8906 50.4771 48.9299 50.4194 48.92ZM52.0907 49.1408L50.8053 48.9223C50.7475 48.9125 50.7083 48.8572 50.718 48.7993L50.9366 47.5138C50.9464 47.456 51.0018 47.4169 51.0595 47.4267L52.3449 47.6451C52.4028 47.6549 52.442 47.7103 52.4322 47.7681L52.2137 49.0536C52.2039 49.1112 52.1485 49.1506 52.0907 49.1408ZM53.7622 49.3616L52.4767 49.1431C52.4189 49.1332 52.3797 49.0779 52.3895 49.0202L52.6079 47.7346C52.6178 47.6769 52.6731 47.6376 52.7309 47.6475L54.0163 47.8659C54.0742 47.8758 54.1135 47.9311 54.1036 47.9888L53.8851 49.2743C53.8753 49.3321 53.8198 49.3713 53.7622 49.3616ZM57.1049 49.8031L55.8195 49.5847C55.7617 49.5749 55.7225 49.5195 55.7322 49.4618L55.9508 48.1762C55.9606 48.1184 56.0159 48.0792 56.0737 48.0891L57.3591 48.3074C57.417 48.3172 57.4561 48.3727 57.4464 48.4304L57.2279 49.7159C57.2181 49.7736 57.1627 49.813 57.1049 49.8031ZM58.7763 50.024L57.4909 49.8055C57.4331 49.7956 57.3938 49.7404 57.4036 49.6825L57.6221 48.397C57.632 48.3393 57.6873 48.3 57.7451 48.3098L59.0305 48.5283C59.0884 48.5381 59.1276 48.5935 59.1178 48.6513L58.8993 49.9368C58.8895 49.9945 58.8341 50.0337 58.7763 50.024ZM60.4477 50.2448L59.1623 50.0263C59.1045 50.0164 59.0652 49.961 59.075 49.9033L59.2935 48.6179C59.3034 48.56 59.3586 48.5209 59.4165 48.5305L60.7019 48.7491C60.7597 48.7589 60.799 48.8143 60.7892 48.8721L60.5707 50.1575C60.561 50.2153 60.5054 50.2546 60.4477 50.2448ZM62.1191 50.4655L60.8336 50.2471C60.7759 50.2373 60.7366 50.1818 60.7465 50.1241L60.9649 48.8387C60.9748 48.7808 61.0301 48.7416 61.0879 48.7514L62.3733 48.9699C62.4311 48.9797 62.4704 49.0351 62.4606 49.0928L62.2421 50.3783C62.2323 50.4361 62.1769 50.4754 62.1191 50.4655ZM63.7905 50.6864L62.505 50.4679C62.4473 50.4581 62.408 50.4027 62.4178 50.3449L62.6364 49.0595C62.6461 49.0017 62.7015 48.9624 62.7593 48.9722L64.0447 49.1907C64.1025 49.2005 64.1417 49.2559 64.132 49.3136L63.9134 50.5991C63.9037 50.6569 63.8482 50.6961 63.7905 50.6864ZM67.1333 51.1279L65.8478 50.9094C65.7901 50.8996 65.7508 50.8443 65.7606 50.7865L65.9791 49.5009C65.9889 49.4432 66.0443 49.404 66.102 49.4138L67.3875 49.6323C67.4453 49.6421 67.4846 49.6975 67.4748 49.7552L67.2563 51.0408C67.2465 51.0985 67.1911 51.1378 67.1333 51.1279ZM68.8047 51.3487L67.5192 51.1303C67.4615 51.1204 67.4222 51.0651 67.432 51.0073L67.6505 49.7219C67.6603 49.6641 67.7157 49.6247 67.7735 49.6346L69.0589 49.8531C69.1167 49.8629 69.1559 49.9183 69.1462 49.976L68.9276 51.2616C68.9179 51.3192 68.8624 51.3586 68.8047 51.3487ZM72.1474 51.7902L70.8621 51.5718C70.8043 51.562 70.7649 51.5067 70.7748 51.449L70.9933 50.1633C71.0032 50.1056 71.0584 50.0664 71.1163 50.0762L72.4017 50.2946C72.4595 50.3045 72.4987 50.3599 72.4889 50.4177L72.2705 51.703C72.2606 51.7608 72.2052 51.8001 72.1474 51.7902ZM73.8189 52.0112L72.5334 51.7927C72.4757 51.7828 72.4364 51.7275 72.4462 51.6697L72.6646 50.3842C72.6744 50.3264 72.7298 50.2872 72.7876 50.297L74.073 50.5155C74.1309 50.5253 74.1701 50.5807 74.1604 50.6384L73.9419 51.9239C73.9321 51.9817 73.8766 52.0209 73.8189 52.0112ZM75.4903 52.2319L74.2049 52.0134C74.147 52.0036 74.1078 51.9482 74.1176 51.8904L74.3361 50.605C74.3459 50.5472 74.4011 50.508 74.459 50.5178L75.7445 50.7363C75.8023 50.746 75.8415 50.8014 75.8317 50.8592L75.6132 52.1447C75.6035 52.2024 75.5479 52.2418 75.4903 52.2319ZM77.1617 52.4527L75.8762 52.2342C75.8185 52.2244 75.7791 52.1691 75.789 52.1113L76.0074 50.8258C76.0173 50.7681 76.0727 50.7287 76.1304 50.7386L77.4159 50.9571C77.4737 50.9669 77.5129 51.0222 77.5031 51.08L77.2846 52.3655C77.2749 52.4232 77.2194 52.4626 77.1617 52.4527ZM78.833 52.6736L77.5477 52.4551C77.4898 52.4452 77.4505 52.3898 77.4604 52.3321L77.6789 51.0466C77.6887 50.9888 77.744 50.9496 77.8018 50.9593L79.0873 51.1779C79.1451 51.1876 79.1843 51.2431 79.1745 51.3008L78.956 52.5863C78.9462 52.6441 78.8908 52.6834 78.833 52.6736ZM80.5045 52.8943L79.219 52.6758C79.1612 52.666 79.122 52.6106 79.1318 52.5529L79.3503 51.2673C79.3602 51.2095 79.4154 51.1704 79.4732 51.1802L80.7587 51.3987C80.8165 51.4084 80.8557 51.4638 80.8459 51.5216L80.6274 52.807C80.6177 52.8648 80.5621 52.9041 80.5045 52.8943ZM82.1759 53.115L80.8904 52.8966C80.8326 52.8868 80.7934 52.8314 80.8032 52.7737L81.0217 51.4882C81.0315 51.4304 81.0868 51.3911 81.1446 51.401L82.4301 51.6194C82.4878 51.6292 82.5271 51.6847 82.5173 51.7424L82.2988 53.0279C82.2891 53.0856 82.2336 53.1249 82.1759 53.115ZM83.8473 53.3359L82.5618 53.1174C82.5041 53.1076 82.4647 53.0522 82.4746 52.9944L82.693 51.709C82.7028 51.6512 82.7582 51.612 82.816 51.6217L84.1015 51.8403C84.1593 51.85 84.1985 51.9055 84.1887 51.9632L83.9702 53.2486C83.9604 53.3065 83.905 53.3457 83.8473 53.3359ZM85.5186 53.5567L84.2332 53.3381C84.1754 53.3283 84.1361 53.273 84.146 53.2152L84.3645 51.9297C84.3743 51.8719 84.4297 51.8328 84.4874 51.8425L85.7728 52.0611C85.8307 52.0708 85.8699 52.1262 85.8601 52.184L85.6416 53.4694C85.6318 53.5272 85.5764 53.5665 85.5186 53.5567ZM87.19 53.7775L85.9046 53.559C85.8468 53.5492 85.8075 53.4939 85.8174 53.436L86.0358 52.1506C86.0457 52.0928 86.1009 52.0535 86.1588 52.0634L87.4442 52.2819C87.502 52.2917 87.5413 52.347 87.5315 52.4048L87.3129 53.6904C87.3033 53.748 87.2477 53.7873 87.19 53.7775ZM90.5328 54.2191L89.2473 54.0006C89.1897 53.9907 89.1503 53.9354 89.1601 53.8777L89.3787 52.5921C89.3884 52.5343 89.4437 52.4952 89.5016 52.5049L90.787 52.7233C90.8449 52.7332 90.8841 52.7886 90.8743 52.8463L90.6558 54.1318C90.646 54.1896 90.5906 54.2289 90.5328 54.2191ZM92.2042 54.4398L90.9188 54.2214C90.861 54.2115 90.8217 54.1562 90.8315 54.0985L91.05 52.813C91.0599 52.7552 91.1152 52.7159 91.1729 52.7258L92.4584 52.9442C92.5163 52.954 92.5555 53.0094 92.5457 53.0672L92.3272 54.3527C92.3174 54.4104 92.2619 54.4497 92.2042 54.4398ZM95.547 54.8814L94.2615 54.6629C94.2038 54.6531 94.1645 54.5978 94.1743 54.54L94.3928 53.2545C94.4026 53.1967 94.458 53.1575 94.5158 53.1673L95.8012 53.3859C95.859 53.3956 95.8982 53.4509 95.8885 53.5088L95.67 54.7942C95.6602 54.8519 95.6047 54.8913 95.547 54.8814ZM97.2184 55.1023L95.933 54.8838C95.8753 54.874 95.8359 54.8186 95.8457 54.7608L96.0643 53.4754C96.0741 53.4175 96.1293 53.3783 96.1872 53.3881L97.4726 53.6066C97.5305 53.6164 97.5697 53.6718 97.5599 53.7296L97.3414 55.0151C97.3316 55.0728 97.2761 55.1121 97.2184 55.1023ZM100.784 55.2181L99.4987 54.9997C99.4408 54.9899 99.4016 54.9344 99.4114 54.8767L99.6299 53.5913C99.6396 53.5334 99.695 53.4943 99.7529 53.5041L101.038 53.7225C101.096 53.7323 101.135 53.7876 101.126 53.8454L100.907 55.1309C100.897 55.1887 100.842 55.228 100.784 55.2181ZM40.0292 49.3768L38.7437 49.1584C38.6859 49.1485 38.6466 49.0932 38.6564 49.0354L38.8749 47.7499C38.8848 47.6922 38.9401 47.6529 38.9979 47.6627L40.2834 47.8812C40.3412 47.891 40.3804 47.9464 40.3707 48.0041L40.1521 49.2896C40.1424 49.3473 40.0869 49.3866 40.0292 49.3768ZM41.7005 49.5976L40.415 49.3791C40.3573 49.3692 40.318 49.314 40.3279 49.2562L40.5463 47.9707C40.5562 47.9129 40.6115 47.8736 40.6693 47.8835L41.9548 48.1019C42.0125 48.1117 42.0518 48.1671 42.042 48.2249L41.8235 49.5104C41.8137 49.5682 41.7582 49.6075 41.7005 49.5976ZM46.7147 50.26L45.4293 50.0415C45.3715 50.0316 45.3322 49.9763 45.3421 49.9186L45.5605 48.6331C45.5704 48.5753 45.6257 48.5361 45.6835 48.546L46.9689 48.7643C47.0268 48.7741 47.066 48.8295 47.0562 48.8873L46.8377 50.1727C46.8279 50.2305 46.7725 50.2699 46.7147 50.26ZM48.3861 50.4808L47.1007 50.2623C47.0429 50.2525 47.0036 50.1971 47.0135 50.1394L47.232 48.8539C47.2418 48.7961 47.297 48.7569 47.3549 48.7667L48.6403 48.9852C48.6981 48.9949 48.7374 49.0504 48.7276 49.1081L48.5091 50.3936C48.4993 50.4514 48.4438 50.4906 48.3861 50.4808ZM50.0576 50.7017L48.772 50.4831C48.7143 50.4733 48.675 50.4179 48.6848 50.3601L48.9033 49.0747C48.9131 49.0169 48.9684 48.9776 49.0263 48.9874L50.3117 49.206C50.3695 49.2158 50.4087 49.2711 50.399 49.3289L50.1804 50.6144C50.1707 50.6722 50.1152 50.7115 50.0576 50.7017ZM53.4003 51.1431L52.1149 50.9247C52.0571 50.9149 52.0177 50.8596 52.0277 50.8018L52.2461 49.5163C52.256 49.4584 52.3113 49.4193 52.3691 49.4291L53.6545 49.6476C53.7123 49.6574 53.7516 49.7127 53.7418 49.7705L53.5233 51.056C53.5134 51.1137 53.458 51.1529 53.4003 51.1431ZM55.0717 51.364L53.7863 51.1455C53.7284 51.1357 53.6892 51.0803 53.699 51.0225L53.9176 49.7371C53.9273 49.6793 53.9826 49.64 54.0404 49.6498L55.3259 49.8683C55.3837 49.8782 55.423 49.9336 55.4132 49.9914L55.1947 51.2767C55.1849 51.3345 55.1294 51.3738 55.0717 51.364ZM56.7432 51.5848L55.4576 51.3663C55.3999 51.3564 55.3606 51.3012 55.3704 51.2433L55.5888 49.9579C55.5987 49.9001 55.6541 49.8609 55.7119 49.8706L56.9973 50.0891C57.0551 50.0989 57.0943 50.1544 57.0846 50.212L56.866 51.4975C56.8563 51.5553 56.8008 51.5946 56.7432 51.5848ZM58.4145 51.8056L57.1291 51.587C57.0713 51.5772 57.032 51.522 57.0418 51.4641L57.2604 50.1787C57.2701 50.1209 57.3254 50.0816 57.3832 50.0915L58.6688 50.31C58.7265 50.3198 58.7658 50.3752 58.756 50.4329L58.5376 51.7184C58.5276 51.7762 58.4723 51.8154 58.4145 51.8056ZM61.7573 52.2472L60.4718 52.0288C60.414 52.0188 60.3748 51.9635 60.3845 51.9057L60.6031 50.6202C60.6129 50.5624 60.6682 50.5233 60.7261 50.5331L62.0114 50.7515C62.0692 50.7613 62.1085 50.8167 62.0988 50.8744L61.8802 52.16C61.8704 52.2177 61.815 52.257 61.7573 52.2472ZM65.1001 52.6888L63.8146 52.4703C63.7569 52.4605 63.7175 52.4051 63.7274 52.3474L63.9459 51.0618C63.9557 51.004 64.011 50.9647 64.0688 50.9746L65.3543 51.1931C65.4121 51.2029 65.4514 51.2583 65.4415 51.3161L65.2231 52.6015C65.2133 52.6593 65.1578 52.6986 65.1001 52.6888ZM66.7714 52.9095L65.486 52.691C65.4282 52.6812 65.3889 52.6259 65.3988 52.5681L65.6172 51.2826C65.6271 51.2248 65.6825 51.1857 65.7402 51.1955L67.0257 51.4138C67.0835 51.4236 67.1227 51.4792 67.113 51.5369L66.8944 52.8224C66.8846 52.88 66.8292 52.9194 66.7714 52.9095ZM70.1143 53.3512L68.8288 53.1326C68.7711 53.1228 68.7317 53.0675 68.7416 53.0097L68.96 51.7242C68.9699 51.6664 69.0252 51.6272 69.083 51.637L70.3685 51.8555C70.4262 51.8653 70.4655 51.9207 70.4557 51.9785L70.2373 53.2639C70.2274 53.3217 70.172 53.361 70.1143 53.3512ZM71.7857 53.5719L70.5002 53.3534C70.4425 53.3436 70.4031 53.2883 70.413 53.2305L70.6314 51.945C70.6413 51.8873 70.6967 51.848 70.7544 51.8578L72.0399 52.0763C72.0977 52.0861 72.1369 52.1415 72.1272 52.1993L71.9086 53.4847C71.8989 53.5425 71.8433 53.5817 71.7857 53.5719ZM73.457 53.7928L72.1716 53.5743C72.1138 53.5645 72.0745 53.5091 72.0844 53.4513L72.3028 52.1659C72.3127 52.108 72.368 52.0689 72.4258 52.0786L73.7112 52.2971C73.7691 52.3068 73.8083 52.3624 73.7985 52.4201L73.58 53.7055C73.5702 53.7633 73.5148 53.8026 73.457 53.7928ZM75.1285 54.0135L73.8429 53.795C73.7852 53.7852 73.7458 53.7299 73.7558 53.6721L73.9742 52.3866C73.984 52.3288 74.0394 52.2896 74.0972 52.2994L75.3826 52.5178C75.4404 52.5277 75.4797 52.5831 75.4699 52.6408L75.2514 53.9263C75.2416 53.984 75.1861 54.0234 75.1285 54.0135ZM76.7999 54.2343L75.5144 54.0158C75.4566 54.006 75.4173 53.9508 75.4271 53.8929L75.6456 52.6074C75.6555 52.5497 75.7107 52.5104 75.7685 52.5202L77.0541 52.7387C77.1118 52.7485 77.1511 52.8038 77.1413 52.8616L76.9228 54.1471C76.913 54.2048 76.8576 54.2442 76.7999 54.2343ZM80.1426 54.6759L78.8572 54.4574C78.7994 54.4476 78.7601 54.3923 78.7699 54.3345L78.9885 53.0489C78.9982 52.9911 79.0536 52.952 79.1113 52.9618L80.3968 53.1802C80.4547 53.19 80.4939 53.2455 80.484 53.3032L80.2656 54.5887C80.2557 54.6464 80.2004 54.6858 80.1426 54.6759ZM81.814 54.8967L80.5285 54.6782C80.4708 54.6684 80.4314 54.6131 80.4413 54.5552L80.6598 53.2698C80.6696 53.212 80.7249 53.1728 80.7828 53.1826L82.0682 53.4011C82.126 53.4109 82.1653 53.4663 82.1555 53.524L81.937 54.8096C81.9272 54.8672 81.8717 54.9064 81.814 54.8967ZM83.4854 55.1176L82.2 54.899C82.1422 54.8892 82.1029 54.8338 82.1127 54.776L82.3312 53.4906C82.341 53.4328 82.3963 53.3936 82.4542 53.4034L83.7397 53.6219C83.7974 53.6317 83.8367 53.6871 83.8269 53.7448L83.6084 55.0303C83.5986 55.0881 83.5431 55.1274 83.4854 55.1176ZM86.8281 55.5591L85.5427 55.3406C85.485 55.3308 85.4457 55.2755 85.4554 55.2177L85.674 53.9322C85.6838 53.8744 85.7392 53.8352 85.797 53.845L87.0824 54.0635C87.1403 54.0732 87.1794 54.1286 87.1697 54.1864L86.9512 55.4719C86.9413 55.5296 86.8859 55.5689 86.8281 55.5591ZM88.4996 55.7799L87.2141 55.5614C87.1563 55.5516 87.1171 55.4962 87.1269 55.4384L87.3453 54.153C87.3551 54.0952 87.4105 54.0559 87.4684 54.0657L88.7537 54.2843C88.8115 54.2941 88.8509 54.3494 88.841 54.4073L88.6225 55.6927C88.6127 55.7505 88.5573 55.7897 88.4996 55.7799ZM90.171 56.0006L88.8854 55.7822C88.8277 55.7724 88.7885 55.717 88.7983 55.6593L89.0168 54.3737C89.0266 54.316 89.0819 54.2767 89.1397 54.2865L90.4253 54.505C90.483 54.5148 90.5222 54.5702 90.5124 54.628L90.2939 55.9134C90.2842 55.9712 90.2287 56.0105 90.171 56.0006ZM91.8424 56.2215L90.5569 56.0031C90.4992 55.9932 90.4598 55.9379 90.4697 55.8801L90.6882 54.5946C90.6981 54.5368 90.7533 54.4975 90.8111 54.5073L92.0967 54.7258C92.1545 54.7356 92.1936 54.7911 92.1839 54.8487L91.9654 56.1342C91.9556 56.192 91.9001 56.2313 91.8424 56.2215ZM93.5137 56.4423L92.2283 56.2238C92.1705 56.2139 92.1312 56.1586 92.141 56.1008L92.3595 54.8154C92.3694 54.7575 92.4248 54.7184 92.4825 54.7282L93.768 54.9466C93.8258 54.9565 93.865 55.0119 93.8552 55.0696L93.6367 56.355C93.6269 56.4128 93.5715 56.4521 93.5137 56.4423ZM96.8746 56.7528L95.5891 56.5342C95.5314 56.5244 95.4921 56.4691 95.5019 56.4112L95.7204 55.1259C95.7302 55.068 95.7855 55.0288 95.8433 55.0385L97.1289 55.2571C97.1866 55.2669 97.2258 55.3223 97.216 55.38L96.9976 56.6655C96.9877 56.7233 96.9323 56.7626 96.8746 56.7528ZM98.6694 56.7233L97.3839 56.5048C97.3262 56.4949 97.2869 56.4396 97.2967 56.3818L97.5153 55.0963C97.525 55.0385 97.5804 54.9993 97.6382 55.0091L98.9236 55.2276C98.9814 55.2374 99.0206 55.2928 99.0109 55.3505L98.7924 56.636C98.7826 56.6938 98.7272 56.7332 98.6694 56.7233ZM100.428 56.9561L99.1428 56.7376C99.085 56.7278 99.0457 56.6724 99.0555 56.6146L99.274 55.3291C99.2839 55.2714 99.3393 55.2321 99.397 55.2419L100.682 55.4603C100.74 55.4702 100.779 55.5256 100.77 55.5835L100.551 56.8688C100.541 56.9265 100.486 56.9659 100.428 56.9561ZM102.187 57.1888L100.902 56.9703C100.844 56.9605 100.805 56.9052 100.814 56.8475L101.033 55.5619C101.043 55.5042 101.098 55.4649 101.156 55.4747L102.441 55.6932C102.499 55.703 102.538 55.7584 102.529 55.8161L102.31 57.1016C102.3 57.1594 102.245 57.1986 102.187 57.1888ZM46.3589 51.9979L45.0734 51.7794C45.0157 51.7696 44.9764 51.7143 44.9862 51.6565L45.2047 50.371C45.2145 50.3132 45.2698 50.274 45.3276 50.2838L46.6131 50.5023C46.671 50.5121 46.7101 50.5675 46.7003 50.6253L46.4818 51.9106C46.4721 51.9684 46.4166 52.0077 46.3589 51.9979ZM49.7017 52.4395L48.4163 52.221C48.3585 52.2112 48.3191 52.1559 48.3289 52.098L48.5475 50.8126C48.5573 50.7548 48.6127 50.7156 48.6704 50.7254L49.9559 50.9438C50.0137 50.9536 50.053 51.009 50.0431 51.0668L49.8247 52.3523C49.8148 52.41 49.7595 52.4493 49.7017 52.4395ZM51.3731 52.6603L50.0876 52.4418C50.0298 52.432 49.9906 52.3767 50.0004 52.3189L50.2188 51.0334C50.2287 50.9756 50.284 50.9363 50.3419 50.9461L51.6272 51.1647C51.6851 51.1745 51.7244 51.2299 51.7146 51.2876L51.496 52.5731C51.4862 52.6308 51.4308 52.6702 51.3731 52.6603ZM53.0445 52.8811L51.759 52.6626C51.7012 52.6527 51.662 52.5975 51.6718 52.5397L51.8903 51.2542C51.9001 51.1964 51.9554 51.1572 52.0132 51.167L53.2987 51.3854C53.3565 51.3953 53.3957 51.4506 53.3859 51.5085L53.1674 52.7938C53.1576 52.8516 53.1022 52.891 53.0445 52.8811ZM54.7158 53.1018L53.4304 52.8834C53.3727 52.8735 53.3334 52.8182 53.3432 52.7605L53.5616 51.4749C53.5715 51.4172 53.6268 51.378 53.6846 51.3878L54.9701 51.6062C55.0279 51.616 55.0671 51.6715 55.0573 51.7292L54.8388 53.0147C54.829 53.0724 54.7736 53.1117 54.7158 53.1018ZM58.0586 53.5435L56.7732 53.325C56.7154 53.3151 56.6762 53.2598 56.686 53.202L56.9044 51.9166C56.9143 51.8587 56.9696 51.8195 57.0274 51.8294L58.3129 52.0478C58.3707 52.0576 58.41 52.113 58.4002 52.1708L58.1816 53.4562C58.1718 53.514 58.1163 53.5534 58.0586 53.5435ZM59.7301 53.7643L58.4445 53.5458C58.3869 53.5359 58.3475 53.4807 58.3573 53.4229L58.5758 52.1373C58.5857 52.0796 58.641 52.0404 58.6988 52.0502L59.9843 52.2686C60.0421 52.2783 60.0813 52.3338 60.0715 52.3916L59.853 53.677C59.8433 53.7348 59.7877 53.7741 59.7301 53.7643ZM61.4014 53.9851L60.116 53.7666C60.0583 53.7568 60.019 53.7014 60.0287 53.6436L60.2472 52.3582C60.257 52.3003 60.3124 52.2612 60.3702 52.2709L61.6556 52.4895C61.7135 52.4992 61.7527 52.5546 61.7429 52.6124L61.5244 53.8979C61.5146 53.9557 61.4592 53.9949 61.4014 53.9851ZM63.0728 54.2058L61.7874 53.9874C61.7296 53.9775 61.6903 53.9222 61.7001 53.8644L61.9187 52.579C61.9285 52.5211 61.9839 52.4819 62.0416 52.4917L63.3271 52.7102C63.3849 52.72 63.4241 52.7754 63.4143 52.8332L63.1959 54.1186C63.186 54.1764 63.1306 54.2157 63.0728 54.2058ZM64.7442 54.4266L63.4587 54.2082C63.401 54.1983 63.3617 54.143 63.3715 54.0852L63.59 52.7997C63.5999 52.742 63.6552 52.7027 63.713 52.7125L64.9985 52.931C65.0562 52.9407 65.0956 52.9962 65.0857 53.054L64.8671 54.3394C64.8575 54.3971 64.8019 54.4364 64.7442 54.4266ZM68.081 54.912L66.7956 54.6935C66.7378 54.6837 66.6985 54.6283 66.7083 54.5705L66.9268 53.285C66.9367 53.2273 66.992 53.188 67.0497 53.1978L68.3352 53.4164C68.3931 53.4261 68.4323 53.4815 68.4225 53.5393L68.204 54.8248C68.1941 54.8825 68.1388 54.9219 68.081 54.912ZM69.7524 55.1328L68.467 54.9143C68.4093 54.9044 68.3699 54.8492 68.3797 54.7912L68.5982 53.5058C68.608 53.448 68.6633 53.4088 68.7212 53.4186L70.0066 53.6371C70.0644 53.6469 70.1037 53.7023 70.0939 53.7601L69.8754 55.0456C69.8656 55.1033 69.8101 55.1427 69.7524 55.1328ZM71.4238 55.3535L70.1384 55.1351C70.0805 55.1252 70.0412 55.07 70.0511 55.0121L70.2696 53.7266C70.2794 53.6689 70.3348 53.6296 70.3925 53.6394L71.678 53.8579C71.7358 53.8677 71.7751 53.9231 71.7652 53.9809L71.5468 55.2663C71.537 55.3241 71.4816 55.3634 71.4238 55.3535ZM73.0952 55.5744L71.8097 55.3559C71.752 55.3461 71.7127 55.2907 71.7225 55.233L71.941 53.9474C71.9508 53.8897 72.0062 53.8504 72.064 53.8602L73.3494 54.0787C73.4073 54.0885 73.4464 54.1439 73.4366 54.2018L73.2182 55.4872C73.2084 55.5448 73.153 55.5842 73.0952 55.5744ZM74.7666 55.7952L73.4812 55.5767C73.4234 55.5668 73.3841 55.5115 73.3939 55.4537L73.6124 54.1682C73.6223 54.1104 73.6775 54.0712 73.7353 54.0811L75.0208 54.2995C75.0787 54.3092 75.1179 54.3647 75.1081 54.4225L74.8896 55.7079C74.8797 55.7657 74.8244 55.805 74.7666 55.7952ZM76.438 56.0159L75.1525 55.7974C75.0948 55.7876 75.0555 55.7323 75.0653 55.6745L75.2838 54.389C75.2937 54.3312 75.3489 54.2921 75.4068 54.3018L76.6922 54.5204C76.75 54.5301 76.7893 54.5855 76.7794 54.6433L76.5609 55.9287C76.5512 55.9865 76.4957 56.0257 76.438 56.0159ZM78.1094 56.2368L76.8239 56.0183C76.7661 56.0085 76.7269 55.9531 76.7366 55.8952L76.9552 54.6099C76.9649 54.5521 77.0204 54.5127 77.0781 54.5226L78.3636 54.7411C78.4214 54.7509 78.4606 54.8063 78.4508 54.8641L78.2324 56.1495C78.2225 56.2074 78.1671 56.2466 78.1094 56.2368ZM79.7808 56.4575L78.4953 56.2391C78.4376 56.2292 78.3982 56.1739 78.4081 56.1161L78.6266 54.8306C78.6365 54.7728 78.6916 54.7336 78.7496 54.7434L80.035 54.9619C80.0929 54.9716 80.132 55.027 80.1222 55.0848L79.9037 56.3703C79.894 56.428 79.8385 56.4674 79.7808 56.4575ZM81.4521 56.6783L80.1667 56.4598C80.1089 56.45 80.0696 56.3947 80.0794 56.3369L80.298 55.0514C80.3078 54.9936 80.3631 54.9544 80.4209 54.9642L81.7064 55.1827C81.7642 55.1925 81.8035 55.2479 81.7937 55.3057L81.5751 56.5911C81.5654 56.6489 81.5099 56.6881 81.4521 56.6783ZM83.1236 56.8991L81.8381 56.6806C81.7803 56.6708 81.7411 56.6155 81.7509 56.5577L81.9693 55.2723C81.9791 55.2144 82.0345 55.1752 82.0923 55.185L83.3778 55.4035C83.4356 55.4133 83.4748 55.4687 83.465 55.5264L83.2465 56.8119C83.2367 56.8697 83.1813 56.9089 83.1236 56.8991ZM84.795 57.1199L83.5094 56.9014C83.4517 56.8916 83.4124 56.8363 83.4222 56.7784L83.6408 55.493C83.6506 55.4352 83.7059 55.396 83.7637 55.4058L85.0492 55.6242C85.107 55.634 85.1462 55.6895 85.1364 55.7472L84.9178 57.0327C84.9081 57.0904 84.8526 57.1297 84.795 57.1199ZM86.4664 57.3407L85.181 57.1222C85.1232 57.1124 85.0838 57.0571 85.0937 56.9993L85.3122 55.7138C85.322 55.656 85.3773 55.6168 85.4351 55.6265L86.7206 55.8451C86.7784 55.8548 86.8176 55.9103 86.8079 55.968L86.5893 57.2535C86.5796 57.3113 86.5241 57.3506 86.4664 57.3407ZM88.1377 57.5615L86.8523 57.343C86.7945 57.3332 86.7552 57.2779 86.765 57.22L86.9836 55.9346C86.9934 55.8768 87.0488 55.8376 87.1065 55.8473L88.392 56.0659C88.4498 56.0757 88.489 56.1311 88.4792 56.1889L88.2607 57.4743C88.2509 57.532 88.1955 57.5714 88.1377 57.5615ZM89.8091 57.7823L88.5237 57.5638C88.4658 57.554 88.4267 57.4986 88.4365 57.4408L88.655 56.1554C88.6647 56.0977 88.7201 56.0584 88.7779 56.0682L90.0633 56.2866C90.1212 56.2965 90.1603 56.3519 90.1506 56.4096L89.9321 57.6952C89.9223 57.7528 89.8669 57.7921 89.8091 57.7823ZM91.4806 58.0032L90.1951 57.7847C90.1373 57.7749 90.098 57.7194 90.1078 57.6617L90.3263 56.3763C90.3362 56.3184 90.3915 56.2792 90.4493 56.289L91.7347 56.5075C91.7925 56.5172 91.8318 56.5727 91.8219 56.6304L91.6035 57.9159C91.5937 57.9737 91.5382 58.013 91.4806 58.0032ZM93.152 58.2239L91.8665 58.0054C91.8088 57.9955 91.7694 57.9402 91.7792 57.8824L91.9977 56.597C92.0075 56.5392 92.0629 56.4999 92.1207 56.5098L93.4062 56.7282C93.464 56.7381 93.5032 56.7934 93.4934 56.8512L93.2749 58.1366C93.2652 58.1944 93.2097 58.2338 93.152 58.2239ZM96.5307 58.4032L95.2453 58.1847C95.1874 58.1748 95.1482 58.1195 95.158 58.0618L95.3765 56.7762C95.3864 56.7184 95.4417 56.6793 95.4996 56.689L96.7849 56.9076C96.8427 56.9173 96.882 56.9727 96.8722 57.0305L96.6537 58.316C96.6439 58.3737 96.5884 58.4131 96.5307 58.4032ZM98.2021 58.624L96.9166 58.4056C96.8589 58.3958 96.8195 58.3404 96.8294 58.2826L97.0479 56.9971C97.0578 56.9393 97.1131 56.9001 97.1709 56.9099L98.4563 57.1284C98.5141 57.1381 98.5534 57.1935 98.5436 57.2513L98.3251 58.5368C98.3153 58.5945 98.2599 58.6338 98.2021 58.624ZM101.72 59.0896L100.434 58.8711C100.377 58.8613 100.337 58.806 100.347 58.7481L100.566 57.4628C100.575 57.4049 100.631 57.3657 100.689 57.3755L101.974 57.594C102.032 57.6038 102.071 57.6592 102.061 57.7169L101.843 59.0024C101.833 59.0602 101.777 59.0994 101.72 59.0896ZM82.7738 58.5933L81.4882 58.3749C81.4305 58.365 81.3912 58.3097 81.4011 58.2519L81.6195 56.9664C81.6293 56.9086 81.6847 56.8693 81.7425 56.8792L83.0279 57.0977C83.0857 57.1074 83.125 57.1629 83.1152 57.2207L82.8966 58.5061C82.8868 58.5639 82.8314 58.6031 82.7738 58.5933ZM84.4452 58.8142L83.1596 58.5956C83.1019 58.5857 83.0626 58.5304 83.0725 58.4726L83.2909 57.1872C83.3007 57.1294 83.356 57.0902 83.4139 57.0999L84.6994 57.3185C84.7571 57.3283 84.7963 57.3837 84.7865 57.4415L84.5681 58.7268C84.5583 58.7846 84.5028 58.8239 84.4452 58.8142ZM86.1165 59.0349L84.8311 58.8164C84.7734 58.8067 84.734 58.7513 84.7438 58.6935L84.9624 57.408C84.9722 57.3502 85.0274 57.311 85.0853 57.3209L86.3708 57.5393C86.4286 57.549 86.4677 57.6044 86.4579 57.6622L86.2396 58.9477C86.2297 59.0055 86.1743 59.0447 86.1165 59.0349ZM87.7879 59.2558L86.5025 59.0373C86.4446 59.0274 86.4054 58.9721 86.4152 58.9142L86.6337 57.6288C86.6436 57.5711 86.6989 57.5317 86.7567 57.5416L88.0421 57.7601C88.0999 57.7698 88.1392 57.8253 88.1294 57.883L87.9109 59.1685C87.9011 59.2263 87.8457 59.2656 87.7879 59.2558ZM89.4593 59.4765L88.1738 59.2579C88.1161 59.2481 88.0768 59.1928 88.0867 59.135L88.305 57.8495C88.3149 57.7917 88.3702 57.7525 88.4281 57.7624L89.7135 57.9809C89.7713 57.9906 89.8106 58.046 89.8008 58.1038L89.5822 59.3893C89.5724 59.447 89.517 59.4864 89.4593 59.4765ZM91.1308 59.6972L89.8453 59.4789C89.7875 59.469 89.7482 59.4136 89.758 59.3559L89.9765 58.0704C89.9863 58.0126 90.0416 57.9734 90.0994 57.9832L91.3849 58.2017C91.4427 58.2114 91.4819 58.2668 91.4721 58.3246L91.2538 59.61C91.2439 59.6678 91.1884 59.7071 91.1308 59.6972ZM92.8021 59.9181L91.5167 59.6996C91.4589 59.6898 91.4196 59.6345 91.4294 59.5766L91.6479 58.2912C91.6578 58.2334 91.7131 58.1941 91.7709 58.2039L93.0564 58.4224C93.1141 58.4322 93.1533 58.4877 93.1436 58.5453L92.9251 59.8309C92.9153 59.8886 92.8598 59.9279 92.8021 59.9181ZM94.4735 60.1389L93.188 59.9203C93.1302 59.9105 93.0909 59.8552 93.1008 59.7974L93.3193 58.512C93.3291 58.4542 93.3845 58.415 93.4423 58.4247L94.7277 58.6432C94.7855 58.653 94.8248 58.7085 94.815 58.7662L94.5964 60.0515C94.5866 60.1094 94.5312 60.1487 94.4735 60.1389ZM96.1629 60.2285L94.8774 60.01C94.8196 60.0003 94.7804 59.9449 94.7902 59.8871L95.0087 58.6016C95.0185 58.5439 95.0739 58.5046 95.1317 58.5144L96.4171 58.7329C96.4749 58.7427 96.5142 58.7981 96.5043 58.8559L96.2859 60.1414C96.276 60.1991 96.2206 60.2384 96.1629 60.2285ZM97.8403 60.4057L96.5548 60.1872C96.4971 60.1773 96.4578 60.122 96.4676 60.0641L96.6861 58.7788C96.6959 58.721 96.7513 58.6817 96.809 58.6915L98.0945 58.91C98.1523 58.9198 98.1915 58.9752 98.1818 59.0329L97.9633 60.3185C97.9535 60.3762 97.898 60.4155 97.8403 60.4057ZM99.5554 60.6325L98.27 60.414C98.2122 60.4041 98.1729 60.3488 98.1828 60.291L98.4012 59.0055C98.4111 58.9477 98.4664 58.9085 98.5242 58.9183L99.8097 59.1368C99.8674 59.1466 99.9066 59.202 99.8969 59.2597L99.6784 60.5452C99.6686 60.6029 99.6131 60.6422 99.5554 60.6325ZM101.283 60.7717L99.997 60.5533C99.9393 60.5435 99.8999 60.4882 99.9097 60.4304L100.128 59.1448C100.138 59.0871 100.193 59.0479 100.251 59.0577L101.537 59.2761C101.595 59.2859 101.634 59.3413 101.624 59.3992L101.406 60.6846C101.396 60.7423 101.34 60.7816 101.283 60.7717ZM103.041 61.0047L101.756 60.7861C101.698 60.7763 101.659 60.7209 101.669 60.6631L101.887 59.3777C101.897 59.3199 101.952 59.2807 102.01 59.2905L103.296 59.5089C103.353 59.5187 103.393 59.5741 103.383 59.6319L103.164 60.9174C103.155 60.9751 103.099 61.0145 103.041 61.0047ZM92.4583 61.5686L91.1728 61.3501C91.115 61.3402 91.0758 61.2848 91.0856 61.2271L91.304 59.9417C91.3138 59.8838 91.3692 59.8447 91.427 59.8544L92.7124 60.0729C92.7703 60.0827 92.8095 60.1381 92.7997 60.1959L92.5812 61.4813C92.5715 61.5391 92.516 61.5784 92.4583 61.5686ZM94.1297 61.7894L92.8442 61.5708C92.7864 61.561 92.7471 61.5057 92.757 61.448L92.9755 60.1626C92.9853 60.1047 93.0406 60.0654 93.0984 60.0753L94.3839 60.2937C94.4417 60.3035 94.4808 60.359 94.4711 60.4167L94.2527 61.7022C94.2429 61.7598 94.1874 61.7991 94.1297 61.7894ZM95.8191 61.8791L94.5337 61.6605C94.4759 61.6506 94.4365 61.5953 94.4463 61.5375L94.6649 60.2521C94.6747 60.1943 94.73 60.1551 94.7878 60.1649L96.0733 60.3833C96.1312 60.3932 96.1703 60.4485 96.1605 60.5064L95.9421 61.7918C95.9323 61.8496 95.8768 61.8889 95.8191 61.8791ZM97.4905 62.0998L96.205 61.8814C96.1472 61.8715 96.108 61.8162 96.1178 61.7584L96.3362 60.4729C96.3461 60.4151 96.4014 60.3759 96.4592 60.3857L97.7447 60.6042C97.8025 60.6139 97.8417 60.6693 97.832 60.7271L97.6134 62.0126C97.6037 62.0704 97.5482 62.1097 97.4905 62.0998ZM100.833 62.5414L99.5479 62.3229C99.49 62.313 99.4507 62.2578 99.4606 62.2L99.6791 60.9145C99.6889 60.8567 99.7442 60.8174 99.802 60.8272L101.087 61.0457C101.145 61.0555 101.185 61.111 101.175 61.1687L100.956 62.4541C100.946 62.5119 100.891 62.5512 100.833 62.5414ZM102.548 62.7682L101.263 62.5497C101.205 62.5399 101.166 62.4845 101.176 62.4267L101.394 61.1413C101.404 61.0835 101.459 61.0443 101.517 61.054L102.803 61.2725C102.86 61.2823 102.9 61.3378 102.89 61.3955L102.671 62.6809C102.662 62.7387 102.606 62.7781 102.548 62.7682ZM97.1286 63.8814L95.8432 63.663C95.7854 63.6531 95.7461 63.5978 95.7559 63.54L95.9744 62.2545C95.9843 62.1967 96.0396 62.1575 96.0974 62.1673L97.3829 62.3857C97.4406 62.3955 97.4799 62.451 97.4701 62.5087L97.2516 63.7942C97.2418 63.8519 97.1864 63.8913 97.1286 63.8814ZM98.8001 64.1022L97.5145 63.8838C97.4568 63.8739 97.4175 63.8186 97.4274 63.7608L97.6458 62.4753C97.6556 62.4175 97.711 62.3782 97.7688 62.388L99.0542 62.6067C99.112 62.6164 99.1513 62.6718 99.1415 62.7296L98.923 64.015C98.9132 64.0727 98.8577 64.1122 98.8001 64.1022ZM100.471 64.323L99.186 64.1045C99.1282 64.0947 99.0889 64.0393 99.0988 63.9816L99.3172 62.6961C99.327 62.6383 99.3823 62.5991 99.4401 62.6088L100.726 62.8274C100.783 62.8372 100.823 62.8925 100.813 62.9504L100.594 64.2357C100.585 64.2936 100.529 64.3329 100.471 64.323Z" fill="#42ADE2"/>
<path fill-rule="evenodd" clip-rule="evenodd" d="M33.6742 48.5005L32.3901 48.2741C32.3324 48.2639 32.2935 48.2084 32.3037 48.1507L32.5301 46.8666C32.5403 46.8088 32.5959 46.7699 32.6536 46.78L33.9377 47.0064C33.9954 47.0167 34.0343 47.0723 34.0242 47.13L33.7977 48.414C33.7876 48.4718 33.732 48.5108 33.6742 48.5005ZM101.846 69.9003L101.85 69.9645H101.85V69.9656L101.85 69.9665V69.9668V69.9681L101.85 69.9686L101.85 69.9694L101.85 69.9706V69.9708L101.851 69.9722V69.9727L101.851 69.9736L101.851 69.9747L101.851 69.9751L101.851 69.9765V69.9767L101.851 69.9781V69.9788L101.851 69.9796L101.851 69.9809V69.9812V69.9828H101.851L101.851 69.9845V69.9849L101.851 69.9862V69.987L101.851 69.9879V69.989L101.852 69.9897L101.852 69.9911L101.852 69.9914V69.9931L101.852 69.9932L101.852 70.0005V70.0013V70.0023V70.0033L101.852 70.0042V70.0054L101.852 70.0061V70.0074L101.852 70.0099V70.0115L101.852 70.0136V70.0156L101.852 70.0175V70.0197V70.0217V70.0218V70.0218V70.022V70.023V70.0236V70.0237V70.0238V70.0239V70.0248V70.0258C101.852 75.5122 79.7997 78.9087 60.3946 77.8035C47.3461 77.0603 32.9717 70.654 24.9544 64.8686C21.1363 66.372 18.9368 68.1373 18.9368 70.0258V76.7567C18.9368 82.2431 37.4979 86.6908 60.3945 86.6908C83.2912 86.6908 101.852 82.2431 101.852 76.7567L101.849 70.089C101.85 70.0679 101.852 70.0469 101.852 70.0258C101.852 75.5122 77.6621 77.7647 60.3946 74.1166C40.1061 69.8302 26.0324 53.8315 26.5773 50.7437L26.8038 49.4596C26.8139 49.4019 26.8695 49.363 26.9273 49.3732L27.9493 49.5533C28.0303 49.5094 28.1108 49.4668 28.1907 49.4257L27.0178 49.2189C26.96 49.2087 26.9211 49.1531 26.9313 49.0953L27.1578 47.8113C27.1679 47.7536 27.2235 47.7147 27.2813 47.7248L28.5654 47.9512C28.623 47.9614 28.662 48.017 28.6518 48.0747L28.4352 49.3032C28.5095 49.267 28.5833 49.232 28.6567 49.1981L28.8533 48.0835C28.8634 48.0257 28.919 47.9868 28.9768 47.997L30.2609 48.2234C30.3185 48.2336 30.3574 48.2892 30.3473 48.347L30.3011 48.6094C30.3491 48.5975 30.3969 48.5859 30.4446 48.575L30.4977 48.2735C30.5079 48.2157 30.5635 48.1768 30.6212 48.187L31.7951 48.394C34.2659 48.3027 36.0866 49.3919 38.8156 50.7558C41.2496 57.5525 55.7349 68.3123 61.2586 70.0271C75.0447 74.3069 101.868 75.446 101.849 69.965C101.85 69.9827 101.852 70.0005 101.852 70.018C101.852 69.9788 101.848 69.9395 101.846 69.9003ZM60.042 55.6222H60.0421C60.4842 55.6406 60.9273 55.6637 61.3706 55.689C61.3863 55.7076 61.4082 55.7209 61.4339 55.7253L62.0763 55.8345C61.44 55.8201 60.7582 55.7422 60.042 55.6222ZM62.8544 55.7849L63.0223 55.798L63.018 55.8231C63.0158 55.8363 63.0161 55.8493 63.0186 55.8618C62.9599 55.8596 62.901 55.8584 62.8423 55.8566L62.8544 55.7849ZM64.5396 55.9252L64.6845 55.9382L64.5387 55.9307L64.5396 55.9252ZM101.404 68.5941C101.663 69.0293 101.811 69.4546 101.843 69.8664C101.806 69.5858 101.611 69.064 101.404 68.5941ZM25.0539 40.476L23.7698 40.2495C23.712 40.2394 23.6731 40.1838 23.6833 40.126L23.9097 38.8419C23.92 38.7843 23.9755 38.7454 24.0332 38.7555L25.3173 38.9819C25.3751 38.9921 25.414 39.0477 25.4038 39.1054L25.1774 40.3895C25.1672 40.4473 25.1116 40.4862 25.0539 40.476ZM24.7079 42.1586L23.4239 41.9322C23.3661 41.922 23.3272 41.8665 23.3374 41.8088L23.5638 40.5247C23.574 40.4669 23.6296 40.428 23.6873 40.4382L24.9714 40.6645C25.0291 40.6748 25.068 40.7304 25.0578 40.7881L24.8314 42.0721C24.8213 42.1299 24.7656 42.1689 24.7079 42.1586ZM28.0479 42.6208L26.7638 42.3945C26.7061 42.3842 26.6672 42.3287 26.6773 42.271L26.9038 40.9869C26.9139 40.9291 26.9695 40.8902 27.0273 40.9003L28.3114 41.1268C28.3691 41.137 28.408 41.1925 28.3978 41.2503L28.1714 42.5344C28.1612 42.5921 28.1057 42.6311 28.0479 42.6208ZM27.694 44.2692L26.4099 44.0428C26.3521 44.0325 26.3131 43.977 26.3233 43.9193L26.5497 42.6352C26.56 42.5774 26.6155 42.5385 26.6732 42.5487L27.9573 42.7751C28.0151 42.7853 28.0541 42.8409 28.0438 42.8986L27.8174 44.1827C27.8072 44.2405 27.7517 44.2794 27.694 44.2692ZM26.058 43.993L24.7739 43.7666C24.7161 43.7564 24.6772 43.7007 24.6874 43.6431L24.9139 42.359C24.924 42.3012 24.9796 42.2623 25.0374 42.2725L26.3215 42.4989C26.3791 42.5091 26.4181 42.5647 26.4079 42.6224L26.1815 43.9065C26.1713 43.9642 26.1158 44.0031 26.058 43.993ZM32.3499 46.6108L31.0658 46.3844C31.0081 46.3743 30.9692 46.3186 30.9793 46.2609L31.2058 44.9768C31.216 44.9191 31.2716 44.8802 31.3293 44.8904L32.6134 45.1168C32.6711 45.1269 32.71 45.1825 32.6998 45.2403L32.4734 46.5244C32.4632 46.5821 32.4076 46.621 32.3499 46.6108ZM25.7582 45.6413L24.4741 45.4149C24.4163 45.4047 24.3774 45.3491 24.3876 45.2914L24.614 44.0073C24.6242 43.9496 24.6798 43.9106 24.7375 43.9208L26.0216 44.1473C26.0793 44.1574 26.1183 44.213 26.1081 44.2708L25.8817 45.5548C25.8715 45.6126 25.8159 45.6515 25.7582 45.6413ZM26.9859 47.5658L25.7018 47.3394C25.6441 47.3292 25.6052 47.2737 25.6154 47.216L25.8418 45.9318C25.852 45.8741 25.9075 45.8352 25.9653 45.8454L27.2494 46.0717C27.3071 46.082 27.346 46.1375 27.3359 46.1953L27.1094 47.4793C27.0992 47.5371 27.0436 47.5761 26.9859 47.5658ZM28.6559 47.797L27.3718 47.5705C27.3141 47.5604 27.2752 47.5048 27.2854 47.447L27.5118 46.1629C27.522 46.1052 27.5775 46.0663 27.6353 46.0765L28.9194 46.3029C28.9771 46.3131 29.016 46.3686 29.0058 46.4264L28.7794 47.7105C28.7693 47.7682 28.7136 47.8072 28.6559 47.797ZM30.3259 48.028L29.0418 47.8017C28.9841 47.7914 28.9452 47.7359 28.9554 47.6782L29.1817 46.3941C29.1919 46.3363 29.2476 46.2974 29.3053 46.3075L30.5893 46.534C30.6471 46.5442 30.686 46.5997 30.6758 46.6575L30.4494 47.9416C30.4392 47.9993 30.3836 48.0383 30.3259 48.028ZM31.9959 48.2591L30.7118 48.0328C30.6541 48.0226 30.6151 47.9669 30.6253 47.9092L30.8518 46.6252C30.8619 46.5674 30.9175 46.5285 30.9753 46.5387L32.2593 46.7651C32.3171 46.7753 32.356 46.8309 32.3458 46.8887L32.1194 48.1727C32.1092 48.2304 32.0537 48.2693 31.9959 48.2591Z" fill="#2B2A29"/>
</svg>
