<svg width="120" height="120" viewBox="0 0 120 120" fill="none" xmlns="http://www.w3.org/2000/svg">
<path d="M60 120C93.1371 120 120 93.1371 120 60C120 26.8629 93.1371 0 60 0C26.8629 0 0 26.8629 0 60C0 93.1371 26.8629 120 60 120Z" fill="#D9DADA"/>
<path fill-rule="evenodd" clip-rule="evenodd" d="M69.5011 23.6111L83.07 25.2616L69.5011 26.912V23.6111ZM69.5011 73.7801L83.07 75.4306L69.5011 77.081V73.7801ZM50.4984 92.7336L36.9296 94.3841L50.4984 96.0345V92.7336ZM50.4984 87.9952L36.9296 89.6457L50.4984 91.2961V87.9952ZM50.4984 83.2568L36.9296 84.9073L50.4984 86.5577V83.2568ZM50.4984 78.5185L36.9296 80.1689L50.4984 81.8193V78.5185ZM50.4984 73.7801L36.9296 75.4306L50.4984 77.081V73.7801ZM69.5011 92.7336L83.07 94.3841L69.5011 96.0345V92.7336ZM69.5011 87.9952L83.07 89.6457L69.5011 91.2961V87.9952ZM69.5011 83.2568L83.07 84.9073L69.5011 86.5577V83.2568ZM69.5011 78.5185L83.07 80.1689L69.5011 81.8193V78.5185ZM50.4984 42.5646L36.9296 44.2151L50.4984 45.8654V42.5646ZM50.4984 37.8262L36.9296 39.4767L50.4984 41.1271V37.8262ZM50.4984 33.0878L36.9296 34.7383L50.4984 36.3887V33.0878ZM50.4984 28.3495L36.9296 29.9999L50.4984 31.6503V28.3495ZM50.4984 23.6111L36.9296 25.2616L50.4984 26.912V23.6111ZM69.5011 42.5646L83.07 44.2151L69.5011 45.8654V42.5646ZM69.5011 37.8262L83.07 39.4767L69.5011 41.1271V37.8262ZM69.5011 33.0878L83.07 34.7383L69.5011 36.3887V33.0878ZM69.5011 28.3495L83.07 29.9999L69.5011 31.6503V28.3495Z" fill="#FEFEFE"/>
<path fill-rule="evenodd" clip-rule="evenodd" d="M69.501 52.9222C71.0602 51.7096 74.4623 50.695 78.9685 52.2254C84.5485 54.1205 84.2441 62.0287 89.1748 65.017C94.1055 68.0052 98.4385 67.2582 100.381 65.017C102.323 62.7757 102.706 59.4882 102.024 56.9485C104.736 57.6784 107.568 61.1404 107.964 63.143C108.452 65.6086 108.561 68.3435 106.927 71.1027C107.382 71.339 107.692 71.8141 107.692 72.3616C107.692 73.1447 107.057 73.7797 106.274 73.7797H69.501V96.0732H94.5921C95.3752 96.0732 96.0102 96.7082 96.0102 97.4913C96.0102 98.2745 95.3752 98.9095 94.5921 98.9095H69.501V100.555C69.501 101.338 68.8661 101.973 68.0829 101.973C67.2998 101.973 66.6648 101.338 66.6648 100.555V19.0382C66.6648 18.2551 67.2998 17.6201 68.0829 17.6201C68.8661 17.6201 69.501 18.2551 69.501 19.0382V20.6839H94.5921C95.3752 20.6839 96.0102 21.3189 96.0102 22.102C96.0102 22.8852 95.3752 23.5202 94.5921 23.5202H69.501V45.8137H106.274C107.057 45.8137 107.692 46.4486 107.692 47.2318C107.692 48.0149 107.057 48.6499 106.274 48.6499H69.501V52.9222ZM50.4983 19.0382C50.4983 18.2551 51.1332 17.6201 51.9164 17.6201C52.6995 17.6201 53.3345 18.2551 53.3345 19.0382V100.555C53.3345 101.338 52.6995 101.973 51.9164 101.973C51.1332 101.973 50.4983 101.338 50.4983 100.555V98.9095H25.4072C24.6241 98.9095 23.9891 98.2745 23.9891 97.4913C23.9891 96.7082 24.6241 96.0732 25.4072 96.0732H50.4983V73.7797H13.7254C12.9423 73.7797 12.3073 73.1447 12.3073 72.3616C12.3073 71.7902 12.6453 71.2977 13.1323 71.0732C12.229 69.472 10.9913 66.6089 10.9912 62.9404C10.9912 58.3389 13.6935 52.3882 20.2337 52.8128C18.4858 56.6126 21.9285 59.7518 26.1432 61.781C32.2988 64.7447 37.9228 63.301 40.1267 62.313C42.3306 61.325 45.9043 59.5572 48.2202 58.1132C49.165 57.524 49.927 57.5329 50.4983 57.7497V48.6499H13.7254C12.9423 48.6499 12.3073 48.0149 12.3073 47.2318C12.3073 46.4486 12.9423 45.8137 13.7254 45.8137H50.4983V23.5202H25.4072C24.6241 23.5202 23.9891 22.8852 23.9891 22.102C23.9891 21.3189 24.6241 20.6839 25.4072 20.6839H50.4983V19.0382Z" fill="#2B2A29" stroke="#2B2A29" stroke-width="0.269608" stroke-miterlimit="22.9256"/>
<path fill-rule="evenodd" clip-rule="evenodd" d="M93.9885 65.0923C92.9534 64.7375 92.4713 63.5092 93.0411 62.5551C94.1647 60.6736 96.973 62.203 96.1507 64.1174C95.8704 64.7699 94.9665 65.4272 93.9885 65.0923ZM91.0458 53.9312C90.9348 53.51 91.9035 52.9203 92.1977 52.7279C92.6896 52.406 93.2621 52.1941 93.9048 52.0642C97.0619 51.4259 99.514 54.1331 98.3323 56.3821C97.756 57.4787 96.5485 57.828 96.0514 58.8413C95.5349 59.8941 96.6493 60.1058 93.6728 60.0137C93.1573 59.9978 93.1873 59.7362 93.1934 59.2784C93.216 57.5457 94.2453 57.4033 95.1378 56.4938C95.5016 56.1229 96.0504 55.6255 95.5128 54.9068C95.0505 54.289 93.9159 54.2056 92.9825 54.9441C92.7891 55.0971 92.5074 55.3754 92.2188 55.1165C92.0586 54.9726 91.0764 54.0472 91.0458 53.9312Z" fill="#42ADE2"/>
</svg>
