<svg width="120" height="120" viewBox="0 0 120 120" fill="none" xmlns="http://www.w3.org/2000/svg">
<path d="M60 120C93.1371 120 120 93.1371 120 60C120 26.8629 93.1371 0 60 0C26.8629 0 0 26.8629 0 60C0 93.1371 26.8629 120 60 120Z" fill="#D9DADA"/>
<path fill-rule="evenodd" clip-rule="evenodd" d="M97.1243 54.498C98.3422 59.1786 101.269 64.4754 102.411 69.2049L104.78 78.3485C103.015 78.1429 101.009 77.8238 99.2303 77.5298C97.4274 77.2318 95.6548 77.0446 93.7818 76.8385C77.0446 74.996 64.0279 75.0527 47.3427 77.3678C43.7302 77.8693 40.0526 78.4596 36.4179 78.832C32.5327 79.2301 28.5733 79.4551 24.7436 79.0029C22.9322 78.789 21.3292 78.5377 19.5726 78.0407C17.3835 77.4214 16.5035 76.945 14.9878 76.4757C15.0655 76.0373 15.6213 74.8152 15.8354 74.3313C16.1256 73.6745 16.4308 72.9313 16.7234 72.2332L21.9623 59.6728C23.1048 56.9379 24.2166 54.1121 25.459 51.3344L28.0844 45.0137C28.3262 44.4142 28.762 43.5704 28.9234 42.9573C30.7084 43.1492 33.9141 43.6508 35.7545 43.586L35.8071 41.9126C31.4994 41.9175 33.0304 41.8894 27.648 41.0523C27.3306 41.4296 25.9571 44.9237 25.6213 45.7113C24.5246 48.2848 11.9552 77.7865 11.847 78.2808C12.2927 78.5179 13.7979 78.8906 14.4123 79.0472C21.8879 80.952 27.2262 81.4294 35.2355 80.8245C43.1824 80.224 51.0168 78.7807 59.037 78.1567C67.6551 77.4864 76.0763 77.5852 84.6623 78.1654C89.8794 78.5179 97.1997 79.3797 102.469 80.1657C104.299 80.4389 106.384 80.8778 108.152 81.0653L104.79 69.109C104.579 68.3731 104.283 67.5248 104.066 66.7374C102.795 62.1333 100.538 59.1366 99.2632 54.5202L97.1243 54.498ZM88.6465 55.0006H90.2309V56.5849H88.6465V55.0006ZM88.6465 70.8439H90.2309V72.4282H88.6465V70.8439ZM68.4706 71.3946L67.5755 71.3323L67.0485 71.3995L66.8484 69.8278L67.5297 69.741L68.5807 69.8141L68.4706 71.3946ZM88.6465 58.1693H90.2309V59.7536H88.6465V58.1693ZM88.6465 61.3379H90.2309V62.9223H88.6465V61.3379ZM88.6465 64.5066H90.2309V66.0909H88.6465V64.5066ZM88.6465 67.6752H90.2309V69.2596H88.6465V67.6752ZM87.5467 71.1349L87.4365 72.7153L85.856 72.6052L85.9661 71.0247L87.5467 71.1349ZM84.3856 70.9146L84.2754 72.495L82.6949 72.385L82.805 70.8045L84.3856 70.9146ZM81.2244 70.6944L81.1143 72.2748L79.5339 72.1648L79.644 70.5843L81.2244 70.6944ZM78.0635 70.4743L77.9534 72.0548L76.3729 71.9447L76.4831 70.3643L78.0635 70.4743ZM74.9025 70.2543L74.7925 71.8347L73.212 71.7247L73.3221 70.1442L74.9025 70.2543ZM71.7416 70.0342L71.6315 71.6147L70.051 71.5046L70.1612 69.9242L71.7416 70.0342ZM65.2768 70.028L65.4769 71.5997L63.9052 71.7998L63.7051 70.2282L65.2768 70.028ZM62.1334 70.4284L62.3335 72L60.7619 72.2003L60.5618 70.6286L62.1334 70.4284ZM58.9902 70.8288L59.1903 72.4005L57.6186 72.6007L57.4185 71.029L58.9902 70.8288ZM55.8468 71.2293L56.0469 72.8009L54.4754 73.0011L54.2752 71.4294L55.8468 71.2293ZM52.7036 71.6295L52.9038 73.2012L51.3321 73.4013L51.132 71.8296L52.7036 71.6295ZM49.5605 72.0297L49.7606 73.6014L48.189 73.8015L47.9889 72.2298L49.5605 72.0297ZM40.0368 62.0888L38.5635 61.5061L39.1463 60.0327L40.6195 60.6155L40.0368 62.0888ZM41.2023 59.1422L39.7291 58.5595L40.3118 57.0861L41.785 57.6689L41.2023 59.1422ZM42.3676 56.1955L40.8944 55.6128L41.4771 54.1395L42.9503 54.7223L42.3676 56.1955ZM43.533 53.249L42.0597 52.6662L42.6424 51.193L44.1156 51.7757L43.533 53.249ZM44.6982 50.3025L43.2251 49.7198L43.8077 48.2465L45.2809 48.8293L44.6982 50.3025ZM31.7676 72.9794H30.1667C30.1633 72.7058 30.1008 72.3665 29.7225 72.4612C29.3935 72.5436 29.4575 72.9439 29.4561 73.1988C29.4525 73.9144 30.4022 73.6889 30.9671 73.6889C31.5226 73.6889 32.4848 73.9124 32.478 73.2169C32.4755 72.9416 32.551 72.5545 32.2281 72.4629C31.8643 72.3599 31.7676 72.6945 31.7676 72.9794ZM39.0085 72.9794H36.2567C36.3145 72.8934 37.6127 71.7265 37.6303 71.7252C37.653 71.7235 38.9227 72.8499 39.0085 72.9794ZM38.1486 71.2381L38.8623 70.5956L39.7758 72.7234L38.1486 71.2381ZM35.4791 72.743L36.3466 70.5365L37.1112 71.2385L35.4791 72.743ZM37.5713 67.5943L38.5725 69.916C38.5028 69.9841 37.6843 70.7278 37.6716 70.7339C37.5408 70.7975 36.9076 70.0966 36.7749 69.9732C36.5658 69.779 36.6981 69.7069 36.815 69.4215C36.9361 69.1255 37.5115 67.6583 37.5713 67.5943ZM40.0637 71.5968L38.0113 66.847L38.017 66.8677L38.6483 66.565L40.0637 71.5968ZM35.1334 71.6878L36.4903 66.4261L36.4856 66.4519L37.1201 66.8246L37.1314 66.8081L35.1334 71.6878ZM39.1722 64.7198L44.2189 68.1111L43.9453 68.5213L39.2301 65.6603L39.2645 65.6634L39.1722 64.7198ZM37.5713 63.6284L36.5515 63.9628L34.2965 62.6094C34.3265 62.5642 35.0042 61.9803 35.0482 61.9612C35.1299 61.9252 35.7723 62.4047 35.8939 62.4858C36.2059 62.6937 37.3843 63.4311 37.5713 63.6284ZM30.5852 72.6156H31.2947L31.3555 65.1201L33.7288 63.0781L36.1492 64.568C35.9641 65.0548 36.0804 65.2693 35.9702 65.6663C35.694 66.6612 35.425 67.774 35.1586 68.784C34.976 69.4761 34.7987 70.1696 34.6166 70.8618C34.452 71.4877 34.1742 72.3482 34.0782 72.9614C33.7169 72.9614 32.6951 72.797 32.7611 73.3507C32.8171 73.8201 33.7985 73.6709 34.1692 73.6709C36.4796 73.6709 38.7901 73.6709 41.1006 73.6709C41.4713 73.6709 42.4526 73.8201 42.5086 73.3507C42.5748 72.7952 41.5371 72.9614 41.1735 72.9614L39.3673 66.5588C40.2591 67.0116 41.3909 67.7801 42.262 68.325C42.7383 68.623 43.2242 68.9206 43.7057 69.2101C44.1043 69.4497 44.0297 69.1735 44.0297 70.0503C44.0297 70.4385 44.0297 70.8266 44.0297 71.2147C42.7858 71.2147 43.0109 71.2852 43.0109 72.5065C43.0109 73.7389 43.1932 73.4525 44.3936 73.4525C45.5775 73.4525 45.7762 73.7384 45.7762 72.5065C45.7762 71.2749 45.9918 71.2147 44.7393 71.2147C44.7393 70.727 44.6664 68.825 44.8114 68.506C44.9697 68.1574 45.2147 67.938 44.7809 67.6292C44.5305 67.451 44.198 67.251 43.9317 67.0739C42.8149 66.332 41.707 65.5742 40.5945 64.8258C39.4852 64.0797 38.3777 63.3311 37.2689 62.5843C36.8532 62.3041 35.9157 61.7534 35.5915 61.4735C35.1772 61.1155 35.8164 59.7299 35.6622 59.1839C35.5741 58.8716 35.1774 58.7503 34.9315 58.5395C34.6024 58.257 34.3826 58.1698 33.9786 58.3887C32.1544 59.3772 30.5823 60.6538 29.9366 62.7249C29.8096 63.1323 29.7397 63.4491 29.7051 63.8763C29.6624 64.4055 29.5602 64.609 30.0633 64.8596C30.6766 65.1651 30.6397 65.0068 30.6397 65.6841C30.6397 66.1513 30.6396 66.6184 30.6403 67.0856C30.6433 68.9206 30.5852 70.7782 30.5852 72.6156ZM38.0664 46.8089H36.2598C36.2561 46.5002 36.1854 46.1172 35.7585 46.224C35.3873 46.3171 35.4594 46.7688 35.458 47.0564C35.4539 47.8641 36.5255 47.6095 37.1631 47.6095C37.7899 47.6095 38.8756 47.8616 38.868 47.0768C38.865 46.7662 38.9505 46.3294 38.586 46.2261C38.1755 46.1097 38.0664 46.4873 38.0664 46.8089ZM46.2373 46.8089H43.1323C43.1973 46.7119 44.6622 45.3948 44.6821 45.3935C44.7078 45.3916 46.1405 46.6628 46.2373 46.8089ZM45.2671 44.8439L46.0725 44.1188L47.1035 46.5198L45.2671 44.8439ZM42.2547 46.542L43.2335 44.0521L44.0965 44.8443L42.2547 46.542ZM44.6154 40.732L45.7453 43.352C45.6668 43.4288 44.7431 44.2681 44.7288 44.2751C44.5812 44.3467 43.8665 43.5556 43.7169 43.4166C43.481 43.1973 43.6304 43.116 43.7621 42.7938C43.8988 42.4598 44.5481 40.8041 44.6154 40.732ZM47.4281 45.2487L45.1121 39.8887L45.1187 39.912L45.8309 39.5705L47.4281 45.2487ZM41.8645 45.3514L43.3959 39.4137L43.3904 39.4428L44.1064 39.8635L44.1193 39.8448L41.8645 45.3514ZM46.422 37.4884L52.1171 41.3153L51.8085 41.7781L46.4876 38.5496L46.5265 38.5532L46.422 37.4884ZM44.6154 36.2565L43.4647 36.634L40.9201 35.1067C40.9538 35.0558 41.7186 34.3969 41.7683 34.3752C41.8607 34.3347 42.5855 34.8758 42.7226 34.9672C43.0747 35.2019 44.4045 36.0339 44.6154 36.2565ZM36.732 46.3983H37.5326L37.6014 37.9401L40.2794 35.6356L43.0107 37.3169C42.8018 37.8663 42.9332 38.1083 42.8089 38.5563C42.4971 39.679 42.1936 40.9349 41.893 42.0746C41.6871 42.8555 41.4869 43.6381 41.2814 44.4191C41.0956 45.1255 40.7822 46.0965 40.6738 46.7885C40.2661 46.7885 39.113 46.603 39.1876 47.2279C39.2507 47.7575 40.3581 47.589 40.7764 47.589C43.3838 47.5892 45.991 47.5892 48.5983 47.589C49.0166 47.589 50.124 47.7575 50.1872 47.2279C50.262 46.6009 49.0909 46.7885 48.6805 46.7885L46.6423 39.5634C47.6486 40.0745 48.926 40.9415 49.909 41.5565C50.4463 41.8929 50.9948 42.2287 51.538 42.5554C51.9879 42.8258 51.9037 42.514 51.9037 43.5035C51.9037 43.9416 51.9037 44.3796 51.9037 44.8175C50.4999 44.8175 50.754 44.897 50.754 46.2752C50.754 47.666 50.9598 47.3428 52.3144 47.3428C53.6504 47.3428 53.8746 47.6653 53.8746 46.2752C53.8746 44.8853 54.1179 44.8175 52.7044 44.8175C52.7044 44.2672 52.6221 42.1206 52.7857 41.7607C52.9645 41.3674 53.2409 41.1198 52.7513 40.7714C52.4688 40.5702 52.0936 40.3446 51.7929 40.1448C50.5328 39.3075 49.2827 38.4524 48.0272 37.6078C46.7753 36.7659 45.5255 35.9211 44.2744 35.0782C43.8053 34.7623 42.7473 34.1408 42.3815 33.8248C41.9139 33.421 42.6352 31.8573 42.4613 31.2411C42.3619 30.8887 41.9143 30.7519 41.6367 30.5139C41.2653 30.1952 41.0172 30.0968 40.5614 30.3437C38.5028 31.4592 36.7288 32.8999 36.0001 35.2371C35.8568 35.6967 35.7779 36.0543 35.739 36.5362C35.6907 37.1336 35.5753 37.3631 36.1432 37.6459C36.8353 37.9908 36.7936 37.8122 36.7936 38.5763C36.7936 39.1035 36.7935 39.6308 36.7943 40.1579C36.7975 42.2287 36.732 44.3249 36.732 46.3983ZM53.7836 42.2573C62.8156 41.0793 73.6658 39.3232 83.2857 40.372C85.1491 39.0803 83.2468 40.3678 85.1491 39.0803C76.9212 38.1006 62.729 39.3646 53.88 40.8369L53.7836 42.2573Z" fill="#2B2A29"/>
<path fill-rule="evenodd" clip-rule="evenodd" d="M65.102 50.956L66.3423 49.013C66.8949 48.062 67.6299 46.5759 67.6104 45.436C67.5934 44.4472 67.1328 43.6524 66.6741 43.1545C66.4646 42.9273 66.1097 42.6619 65.7478 42.478C65.0668 42.132 64.6924 42.1981 64.4855 42.1127H63.9713C63.7626 42.1942 62.9853 42.1244 62.0694 42.8801C62.0162 42.9241 61.9751 42.9459 61.928 42.9945C61.6945 43.2353 61.4943 43.4389 61.3113 43.7489C61.0376 44.2129 60.8381 44.7661 60.8242 45.4128C60.8172 45.7466 60.8688 46.0699 60.9429 46.3744C60.992 46.576 61.1908 47.0871 61.1966 47.2151L61.6336 48.1578C61.7502 48.3169 61.8917 48.6531 62.0059 48.8455C62.3934 49.4984 62.6116 49.8625 63.0333 50.4908C63.0948 50.5826 63.2127 50.7332 63.2571 50.8367L63.7295 51.4682C63.8286 51.5998 63.8823 51.6889 63.9838 51.8354C64.0777 51.9021 64.0961 51.9585 64.253 51.9493C64.3935 51.9411 64.3863 51.9004 64.4979 51.8088C64.7626 51.4359 64.4979 51.8088 64.7626 51.4359C64.7733 51.4284 65.0655 51.0077 65.102 50.956ZM49.5014 48.5756L51.0855 48.6073L51.0537 50.1914L49.4696 50.1596L49.5014 48.5756ZM49.4377 51.7437L51.0217 51.7755L50.9898 53.3594L49.4058 53.3276L49.4377 51.7437ZM50.7659 55.1293L50.7873 53.5451L52.3715 53.5665L52.3502 55.1508L50.7659 55.1293ZM53.9344 55.1722L53.9558 53.588L55.5401 53.6095L55.5187 55.1937L53.9344 55.1722ZM57.1029 55.2152L57.1243 53.6309L58.7085 53.6524L58.6871 55.2366L57.1029 55.2152ZM60.2713 55.2581L60.2927 53.6739L61.8768 53.6953L61.8554 55.2796L60.2713 55.2581ZM63.4396 55.301L63.461 53.7168L65.0451 53.7383L65.0237 55.3225L63.4396 55.301ZM66.6079 55.344L66.6293 53.7597L68.2134 53.7811L68.192 55.3654L66.6079 55.344ZM69.7762 55.3867L69.7976 53.8025L71.3817 53.8239L71.3603 55.4081L69.7762 55.3867ZM72.9445 55.4295L72.9659 53.8453L74.55 53.8667L74.5286 55.4509L72.9445 55.4295ZM64.0127 49.1893C63.9778 49.1773 63.941 49.1653 63.9112 49.1489C63.9092 49.1478 63.8709 49.1223 63.8671 49.1193C63.8318 49.0904 63.8535 49.1111 63.827 49.0784C63.6263 49.025 63.361 48.5419 63.6132 48.1195C64.0869 47.3262 65.2711 47.9711 64.9244 48.7782C64.8062 49.0534 64.4251 49.3306 64.0127 49.1893ZM62.772 44.4833C62.7251 44.3056 63.1336 44.057 63.2576 43.9759C63.4651 43.8402 63.7064 43.7508 63.9774 43.696C65.3087 43.4269 66.3426 44.5684 65.8443 45.5166C65.6013 45.9791 65.0922 46.1263 64.8826 46.5535C64.6648 46.9975 65.1347 47.0867 63.8796 47.0479C63.6623 47.0412 63.6749 46.931 63.6774 46.7378C63.6871 46.0073 64.121 45.9472 64.4973 45.5638C64.6507 45.4074 64.8822 45.1977 64.6554 44.8946C64.4605 44.6341 63.9821 44.599 63.5885 44.9103C63.507 44.9749 63.3882 45.0922 63.2666 44.9829C63.199 44.9224 62.7848 44.5321 62.772 44.4833Z" fill="#FEFEFE"/>
<path fill-rule="evenodd" clip-rule="evenodd" d="M95.9272 52.6033H98.1753C98.1799 52.2192 98.2678 51.7426 98.799 51.8755C99.261 51.9912 99.1712 52.5534 99.173 52.9113C99.1782 53.9163 97.8446 53.5997 97.0512 53.5997C96.2712 53.5997 94.9202 53.9134 94.9296 52.9366C94.9333 52.5501 94.8271 52.0066 95.2806 51.8781C95.7915 51.7333 95.9272 52.2032 95.9272 52.6033ZM85.7595 52.6033H89.6234C89.5425 52.4826 87.7194 50.8438 87.6948 50.842C87.6628 50.8397 85.8799 52.4214 85.7595 52.6033ZM86.9669 50.1581L85.9647 49.2558L84.6818 52.2437L86.9669 50.1581ZM90.7155 52.2713L89.4973 49.1728L88.4236 50.1587L90.7155 52.2713ZM87.7777 45.0414L86.3717 48.3016C86.4694 48.3971 87.6189 49.4416 87.6366 49.4503C87.8204 49.5394 88.7096 48.555 88.8959 48.382C89.1894 48.1092 89.0036 48.0079 88.8396 47.6072C88.6695 47.1914 87.8615 45.1313 87.7777 45.0414ZM84.2776 50.6618L87.1596 43.9919L87.1515 44.021L86.2652 43.596L84.2776 50.6618ZM91.201 50.7895L89.2955 43.4009L89.3021 43.4371L88.4111 43.9606L88.3952 43.9374L91.201 50.7895ZM85.5295 41.005L78.4428 45.7672L78.827 46.3432L85.4481 42.3257L85.3998 42.33L85.5295 41.005ZM87.7777 39.4722L89.2095 39.942L92.3761 38.0415C92.334 37.9781 91.3824 37.1582 91.3206 37.1312C91.2057 37.0808 90.3037 37.7541 90.1331 37.8679C89.6949 38.1599 88.0402 39.1953 87.7777 39.4722ZM97.5877 52.0924H96.5914L96.5058 41.5672L93.1734 38.6996L89.7745 40.7917C90.0346 41.4753 89.871 41.7764 90.0258 42.334C90.4136 43.7311 90.7914 45.2937 91.1654 46.712C91.4218 47.6839 91.671 48.6576 91.9265 49.6296C92.1576 50.5085 92.5477 51.7168 92.6826 52.5779C93.19 52.5779 94.6248 52.3471 94.532 53.1247C94.4534 53.7838 93.0754 53.5741 92.5549 53.5741C89.3104 53.5742 86.066 53.5742 82.8216 53.5741C82.3011 53.5741 80.9231 53.7838 80.8444 53.1247C80.7514 52.3446 82.2086 52.5779 82.7193 52.5779L85.2556 43.5873C84.0033 44.2231 82.4139 45.3022 81.1906 46.0674C80.5219 46.4859 79.8396 46.9038 79.1635 47.3103C78.6038 47.6468 78.7084 47.259 78.7084 48.4903C78.7084 49.0353 78.7084 49.5803 78.7084 50.1253C80.4552 50.1253 80.139 50.2242 80.139 51.9391C80.139 53.6698 79.883 53.2675 78.1975 53.2675C76.535 53.2675 76.2559 53.669 76.2559 51.9391C76.2559 50.2096 75.9532 50.1253 77.7122 50.1253C77.7122 49.4404 77.8144 46.7694 77.6109 46.3215C77.3886 45.8321 77.0444 45.524 77.6536 45.0903C78.0052 44.8401 78.4722 44.5591 78.8462 44.3106C80.4143 43.2688 81.97 42.2046 83.5323 41.1538C85.09 40.1061 86.6453 39.055 88.2021 38.0061C88.7859 37.6128 90.1024 36.8396 90.5576 36.4463C91.1394 35.9436 90.2418 33.9979 90.4583 33.2312C90.5821 32.7927 91.1391 32.6224 91.4843 32.3264C91.9466 31.9297 92.2552 31.8073 92.8224 32.1146C95.384 33.5026 97.5915 35.2953 98.4984 38.2037C98.6768 38.7756 98.7749 39.2207 98.8234 39.8205C98.8835 40.5636 99.027 40.8493 98.3205 41.2012C97.4591 41.6303 97.511 41.408 97.511 42.359C97.511 43.015 97.5112 43.6711 97.5101 44.327C97.5061 46.9039 97.5877 49.5123 97.5877 52.0924Z" fill="#42ADE2"/>
</svg>
