<svg width="120" height="120" viewBox="0 0 120 120" fill="none" xmlns="http://www.w3.org/2000/svg">
<path d="M60 120C93.1371 120 120 93.1371 120 60C120 26.8629 93.1371 0 60 0C26.8629 0 0 26.8629 0 60C0 93.1371 26.8629 120 60 120Z" fill="#D9DADA"/>
<path fill-rule="evenodd" clip-rule="evenodd" d="M97.0208 55.1292L100.834 49.1557C102.533 46.2319 104.793 41.663 104.733 38.1588C104.681 35.1181 103.265 32.6748 101.854 31.1443C101.21 30.4457 100.119 29.6296 99.006 29.0642C96.9126 28.0004 95.7616 28.2036 95.1254 27.9412H93.5444C92.9028 28.1918 90.5132 27.9773 87.6974 30.3003C87.5336 30.4356 87.4071 30.5029 87.2624 30.6522C86.5445 31.3925 85.9289 32.0185 85.3665 32.9717C84.5249 34.3981 83.9113 36.0988 83.8691 38.0873C83.8473 39.1136 84.0059 40.1075 84.2339 41.0433C84.3849 41.663 84.9959 43.2346 85.0139 43.628L86.3574 46.5265C86.7157 47.0159 87.1509 48.0494 87.502 48.6408C88.6931 50.648 89.364 51.7676 90.6607 53.6993C90.85 53.9814 91.2123 54.4445 91.3487 54.7627L92.8012 56.7043C93.1057 57.1088 93.2711 57.3829 93.5829 57.8331C93.8716 58.0382 93.9281 58.2115 94.4105 58.1832C94.8424 58.158 94.8205 58.0329 95.1633 57.7513C95.9774 56.605 95.1633 57.7513 95.9774 56.605C96.0103 56.5819 96.9086 55.2886 97.0208 55.1292ZM93.8518 41.8779C93.3297 41.5844 91.9499 40.6227 91.3015 40.1885C91.0144 39.9964 90.7193 39.765 90.2287 39.8104C89.5095 39.877 88.9016 40.6524 89.2189 41.4722C89.3788 41.8849 89.5704 41.9773 89.9075 42.2006C90.2172 42.4056 90.4727 42.5867 90.7799 42.7868L93.326 44.4817C94.4342 45.1832 95.1403 44.1035 95.9832 43.2594L100.977 38.2665C102.035 37.1885 100.835 35.7034 99.6543 36.2337C99.0405 36.5097 94.3138 41.6643 93.8518 41.8779Z" fill="#42ADE2"/>
<path fill-rule="evenodd" clip-rule="evenodd" d="M98.7057 55.1155C99.9237 59.7961 101.27 64.4751 102.412 69.2047L104.781 78.3483C103.015 78.1426 101.01 77.8235 99.2306 77.5295C97.4277 77.2315 95.6551 77.0444 93.7821 76.8382C77.0449 74.9958 64.0283 75.0525 47.343 77.3675C43.7306 77.869 40.0529 78.4594 36.4183 78.8318C32.5331 79.2298 28.5737 79.4548 24.7439 79.0026C22.9326 78.7888 21.3295 78.5374 19.5729 78.0404C17.3839 77.4211 16.5039 76.9448 14.9882 76.4754C15.0658 76.0371 15.6217 74.815 15.8358 74.331C16.126 73.6742 16.4312 72.931 16.7237 72.2329L21.9627 59.6725C23.1051 56.9376 24.217 54.1119 25.4594 51.3341L28.0848 45.0135C28.3265 44.4139 28.7624 43.5702 28.9238 42.9571C31.0555 43.1862 30.9554 43.4455 33.9985 43.5606C35.1982 43.6059 38.2955 43.6161 39.3592 43.3662L38.2203 41.5753C32.0715 41.5802 34.0809 41.988 27.6483 41.052C27.331 41.4293 25.9575 44.9234 25.6216 45.711C24.525 48.2845 11.9555 77.7862 11.8474 78.2805C12.293 78.5177 13.7982 78.8903 14.4126 79.0469C21.8881 80.9517 27.2266 81.4292 35.2359 80.8242C43.1827 80.2238 51.0171 78.7804 59.0374 78.1564C67.6555 77.4862 76.0766 77.585 84.6626 78.1651C89.8797 78.5177 97.2 79.3794 102.47 80.1655C104.299 80.4387 106.385 80.8775 108.152 81.065L104.79 69.1088C104.579 68.3728 104.284 67.5245 104.066 66.7371C102.795 62.133 101.377 57.5447 100.102 52.9284L98.7057 55.1155ZM94.0059 75.4121C93.6638 74.5766 91.876 72.6532 91.3303 72.1559C90.3583 71.2698 89.394 70.4026 88.1371 69.5684C85.7645 67.9932 83.4243 66.7637 80.4093 65.6419C76.6181 64.2313 74.5937 64.1366 70.2072 64.3837C66.3336 64.6019 63.26 64.238 60.6768 62.3294L59.5866 61.1619C58.62 60.0626 57.7932 58.4137 57.2626 56.9778C56.6379 55.2873 56.9892 55.2507 56.2652 55.0913C52.7227 54.3112 49.4003 54.7202 46.1933 55.8024C45.6068 56.0002 45.6214 55.961 45.4674 56.6179C44.7332 59.7513 45.0257 62.8816 45.2152 66.0491C45.3264 67.9075 45.4265 69.7477 45.2693 71.5958C45.0527 74.1448 44.7658 74.2921 44.1459 76.3501C48.1191 75.9266 52.0825 75.2659 56.1361 74.8778C60.3065 74.4782 64.4685 74.2192 68.6711 74.1367C78.6814 73.9398 84.3091 74.5222 94.0059 75.4121ZM87.0235 50.5724C85.4796 51.8071 83.9561 53.1763 82.6808 54.6997C80.4196 57.4008 79.0192 60.274 76.1736 62.2899C75.7437 62.5944 75.1672 62.9001 74.828 63.1608C78.3609 63.6666 79.9882 64.0982 82.9787 65.4197C85.3921 66.486 87.6934 67.7619 89.5629 69.137C91.5069 70.5668 93.3681 72.3034 94.7751 74.3127C95.4699 75.305 95.3258 75.5725 96.0397 75.6648C97.8636 75.9003 101.511 76.4909 102.834 76.577C102.573 75.0423 101.742 72.424 101.328 70.7407L98.8072 61.0653C98.412 59.609 98.0428 58.1684 97.6742 56.7314L97.4584 57.0695C97.328 57.2547 96.2853 58.7559 96.2471 58.7828C95.302 60.1133 96.2471 58.7828 95.302 60.1133C94.9041 60.4403 94.9294 60.5856 94.428 60.6149C93.868 60.6477 93.8025 60.4464 93.4674 60.2085C93.1053 59.6858 92.9133 59.3677 92.5599 58.898L90.8736 56.644C90.7154 56.2747 90.2948 55.7369 90.075 55.4095C88.8075 53.5215 88.0551 52.3016 87.0235 50.5724ZM68.4001 63.2197C73.4577 63.2197 75.3339 61.865 77.9642 58.8395C79.071 57.5663 81.2766 54.325 82.2572 53.3753C82.5427 53.0988 82.6969 52.9725 82.9494 52.7089C84.0296 51.5817 85.1852 50.5228 86.4073 49.536C86 48.8494 85.4949 47.6506 85.0794 47.0828L83.5197 43.718C83.5061 43.4227 83.205 42.5562 82.9465 41.7859C80.2755 41.4556 77.5595 41.3014 74.9962 41.2975C72.8434 41.2934 73.7929 41.1227 71.8262 42.9429C71.0147 43.6938 68.4989 46.6721 67.9563 47.3869C65.1555 51.0758 61.1899 56.0402 61.2755 61.2908C61.7469 61.5789 62.0622 61.8407 62.6624 62.1527C64.4274 63.071 66.3621 63.2197 68.4001 63.2197ZM16.8797 75.6817C17.6282 75.8766 18.5398 76.2291 19.3251 76.4788C20.0768 76.7174 21.0465 76.9511 21.8547 77.113C28.0356 78.35 33.3668 77.8138 39.5597 76.9937C42.7543 76.5707 42.4995 76.9734 43.0978 75.6583C43.265 75.2909 43.3926 74.9183 43.5069 74.538C44.064 72.6829 44.1329 70.727 44.0673 68.7008C43.8855 63.0767 43.3666 62.6652 44.2178 56.6675C43.4026 56.9428 41.9646 57.8383 41.2676 58.288C34.4251 62.7024 29.0358 68.2847 20.0028 68.017L16.8797 75.6817ZM56.37 53.8691C55.582 48.9526 55.375 47.8139 56.0529 42.8072C55.29 42.8677 54.4917 43.0079 53.7226 43.1076C52.3554 43.2851 52.5259 43.1325 52.061 43.8695C50.7223 45.844 49.3839 47.8186 48.0452 49.7932C47.3663 50.7497 46.3196 52.6479 45.9008 52.6157C45.4392 52.6489 43.3455 49.2731 42.9824 48.7604C42.0539 47.4498 41.1816 46.1385 40.2719 44.794C39.3034 44.7524 37.8654 44.9414 36.8249 44.9866C35.8396 45.0295 34.1434 44.8887 33.3167 45.0096C32.871 47.8076 33.1255 51.2704 34.3945 53.3711C35.5886 55.348 38.2193 56.5102 39.3298 58.0942C39.8827 57.8031 40.429 57.3946 41.0237 57.0468C41.5976 56.7109 42.1651 56.3787 42.7647 56.0767C44.0289 55.4398 45.2353 54.933 46.6585 54.4561C50.2929 53.2381 52.7955 53.372 56.37 53.8691ZM38.3199 58.763C37.6879 57.826 35.8979 56.7032 34.9225 55.8258C31.786 53.005 31.8788 49.1994 32.1071 44.9092L29.7882 44.6238C29.6489 45.0712 29.4062 45.5777 29.2191 46.0544C27.9954 49.1713 20.8573 65.7018 20.569 66.8356C24.6036 66.9687 27.8095 65.5768 30.6742 63.9551C31.1717 63.6735 37.7296 59.485 38.3199 58.763ZM60.1466 59.9001C60.4217 58.7377 60.484 57.9388 60.8652 56.8295C61.2078 55.833 61.5346 55.1537 61.961 54.2267C62.6652 52.6954 64.542 49.8774 65.6077 48.4739L71.6223 41.3617C69.0545 41.3864 66.729 41.6091 64.2223 41.8442C63.1195 41.9477 57.9496 42.395 57.3485 42.679C56.483 44.8286 56.8645 49.9289 57.2896 52.263C57.7117 54.5799 58.6331 58.1919 60.1466 59.9001ZM53.4677 41.688C62.4997 40.5099 72.8872 39.2034 82.5072 40.2522C82.391 39.7159 82.2981 39.1646 82.2432 38.6019C76.741 37.9468 71.1192 38.0199 65.6252 38.4583C63.7252 38.6098 61.856 38.7781 59.9979 38.9942C59.0831 39.1006 58.1714 39.199 57.268 39.3102C56.5735 39.3958 55.2377 39.4947 54.6569 39.661L53.4677 41.688Z" fill="#2B2A29"/>
<path fill-rule="evenodd" clip-rule="evenodd" d="M48.5292 46.9486L52.3424 40.9752C54.0412 38.0513 56.3009 33.4824 56.2411 29.9782C56.189 26.9376 54.7728 24.4942 53.3625 22.9638C52.7185 22.265 51.6273 21.4489 50.5144 20.8836C48.421 19.8198 47.2699 20.023 46.6337 19.7605H45.0528C44.4112 20.0111 42.0217 19.7966 39.2058 22.1198C39.0418 22.255 38.9155 22.3222 38.7707 22.4715C38.053 23.2119 37.4373 23.8379 36.8748 24.791C36.0331 26.2175 35.4197 27.9183 35.3775 29.9066C35.3557 30.9329 35.5142 31.9269 35.7423 32.8627C35.8933 33.4825 36.5043 35.054 36.5223 35.4474L37.8658 38.3459C38.224 38.8353 38.6594 39.8688 39.0103 40.4602C40.2015 42.4674 40.8723 43.587 42.169 45.5187C42.3585 45.8007 42.7206 46.2638 42.857 46.5821L44.3095 48.5237C44.6141 48.9281 44.7795 49.2022 45.0914 49.6525C45.38 49.8576 45.4365 50.031 45.9189 50.0027C46.3507 49.9774 46.3289 49.8524 46.6718 49.5706C47.4859 48.4245 46.6718 49.5706 47.4859 48.4245C47.5187 48.4011 48.4169 47.108 48.5292 46.9486ZM45.1802 41.5173C45.0728 41.4805 44.96 41.4436 44.8681 41.393C44.8618 41.3895 44.744 41.3113 44.7326 41.3021C44.624 41.213 44.6906 41.2767 44.6092 41.1765C43.9921 41.0121 43.1765 39.5268 43.952 38.2282C45.4085 35.7891 49.0492 37.7717 47.9832 40.2535C47.6199 41.0994 46.448 41.9515 45.1802 41.5173ZM41.3655 27.0487C41.2215 26.5027 42.4774 25.7382 42.8588 25.4887C43.4964 25.0715 44.2386 24.7968 45.0717 24.6284C49.1644 23.8009 52.3432 27.3104 50.8112 30.2259C50.0641 31.6475 48.4989 32.1004 47.8544 33.4137C47.1848 34.7786 48.6295 35.053 44.7709 34.9337C44.1026 34.913 44.1416 34.5739 44.1494 33.9804C44.1788 31.7342 45.5131 31.5496 46.67 30.3707C47.1417 29.8899 47.8532 29.2451 47.1562 28.3133C46.5569 27.5125 45.0861 27.4043 43.8761 28.3617C43.6254 28.5601 43.2602 28.9209 42.8861 28.5851C42.6784 28.3988 41.4051 27.199 41.3655 27.0487Z" fill="#FEFEFE"/>
</svg>
