<svg width="120" height="120" viewBox="0 0 120 120" fill="none" xmlns="http://www.w3.org/2000/svg">
<path d="M60 120C93.1371 120 120 93.1371 120 60C120 26.8629 93.1371 0 60 0C26.8629 0 0 26.8629 0 60C0 93.1371 26.8629 120 60 120Z" fill="#D9DADA"/>
<path fill-rule="evenodd" clip-rule="evenodd" d="M76.5664 39.0686C76.5529 39.0849 76.5413 39.1027 76.5258 39.1181C76.5104 39.1335 76.4928 39.1451 76.4763 39.1587C74.563 41.0492 71.936 42.2187 69.0403 42.2187C66.1446 42.2187 63.5177 41.0493 61.6045 39.159C61.588 39.1455 61.5703 39.1337 61.5546 39.1182C61.5391 39.1027 61.5273 39.0848 61.5139 39.0683C59.6235 37.1551 58.454 34.528 58.454 31.6323C58.454 28.7371 59.6234 26.1102 61.5135 24.197C61.5272 24.1801 61.539 24.1625 61.5546 24.1469C61.5703 24.1311 61.588 24.1194 61.6048 24.1059C63.5181 22.2156 66.1449 21.0463 69.0403 21.0463C71.936 21.0463 74.5629 22.2158 76.4761 24.1061C76.4927 24.1197 76.5103 24.1312 76.5258 24.1469C76.5413 24.1623 76.5529 24.1799 76.5665 24.1966C78.4569 26.1097 79.6265 28.7366 79.6265 31.6323C79.6265 34.5283 78.4569 37.1553 76.5664 39.0686ZM23.3409 74.6012C23.8637 77.3211 25.2211 79.746 27.1053 81.6301C29.0823 83.6071 31.67 84.9209 34.5381 85.4685C35.5001 86.1273 35.0672 87.1316 34.265 87.1956C27.9367 86.1411 22.9048 81.2534 21.6374 74.9998C21.5488 74.5623 21.7704 73.9953 22.2424 73.8988C22.7418 73.7967 23.2263 74.0051 23.3409 74.6012ZM36.9813 70.8712C37.2653 70.8712 37.5223 70.9863 37.7085 71.1723C37.8945 71.3585 38.0097 71.6156 38.0097 71.8995C38.0097 72.1835 37.8945 72.4405 37.7085 72.6266C37.5223 72.8127 37.2653 72.9278 36.9813 72.9278C36.6973 72.9278 36.4403 72.8127 36.2541 72.6266C36.0681 72.4405 35.953 72.1835 35.953 71.8995C35.953 71.6156 36.0681 71.3585 36.2541 71.1723C36.4403 70.9863 36.6973 70.8712 36.9813 70.8712ZM38.8146 70.0662C38.3475 69.599 37.7019 69.31 36.9887 69.31C36.2755 69.31 35.6299 69.599 35.1628 70.0662C34.6955 70.5334 34.4065 71.1789 34.4065 71.8921C34.4065 72.6054 34.6955 73.2509 35.1628 73.7181C35.6299 74.1853 36.2755 74.4743 36.9887 74.4743C37.7019 74.4743 38.3475 74.1853 38.8146 73.7181C39.2818 73.2509 39.5709 72.6054 39.5709 71.8921C39.5709 71.1789 39.2818 70.5334 38.8146 70.0662ZM70.4787 32.2161C70.0942 33.0431 69.1121 33.402 68.2849 33.0176C67.4578 32.633 67.0991 31.6509 67.4836 30.8237C67.7148 30.3264 68.1626 30.0001 68.6624 29.9012L71.7007 25.6705L70.4243 30.7202C70.6707 31.1662 70.7099 31.7188 70.4787 32.2161ZM76.6201 30.9972H78.3321C78.1906 28.9061 77.3563 27.0027 76.0566 25.5143L74.8491 26.7219C74.7251 26.8458 74.5626 26.9079 74.4 26.9079C74.2376 26.9079 74.0747 26.8458 73.9511 26.7219C73.7029 26.4736 73.7029 26.0716 73.9511 25.8235L75.1585 24.6161C73.6699 23.3165 71.7668 22.4824 69.6756 22.3407V24.0527C69.6756 24.4035 69.3912 24.6878 69.0405 24.6878C68.6896 24.6878 68.4053 24.4035 68.4053 24.0527V22.3407C66.314 22.4825 64.4108 23.3166 62.9222 24.6161L64.1297 25.8237C64.3778 26.0717 64.3778 26.474 64.1297 26.7219C64.0056 26.8459 63.8431 26.9079 63.6805 26.9079C63.5177 26.9079 63.3554 26.8459 63.2314 26.7219L62.024 25.5144C60.7242 27.003 59.8902 28.9061 59.7485 30.9973H61.4605C61.8114 30.9973 62.0957 31.2817 62.0957 31.6324C62.0957 31.9832 61.8112 32.2676 61.4605 32.2676H59.7485C59.8902 34.3589 60.7244 36.2621 62.024 37.7505L63.2315 36.543C63.4796 36.2951 63.8816 36.2951 64.1297 36.543C64.3778 36.7912 64.3778 37.1933 64.1297 37.4412L62.9222 38.6488C63.211 38.9008 63.5136 39.1373 63.832 39.3528C64.6405 37.2649 66.6675 35.7844 69.0407 35.7844C71.4139 35.7844 73.4405 37.2651 74.249 39.3528C74.5675 39.1373 74.8698 38.9008 75.1587 38.6488L73.9512 37.4412C73.7031 37.1932 73.7031 36.7909 73.9512 36.543C74.1992 36.2951 74.6016 36.2951 74.8493 36.543L76.057 37.7506C77.3566 36.2622 78.1908 34.359 78.3325 32.2677H76.6201C76.2691 32.2677 75.9849 31.9833 75.9849 31.6327C75.9849 31.2817 76.2691 30.9972 76.6201 30.9972Z" fill="#FEFEFE"/>
<path fill-rule="evenodd" clip-rule="evenodd" d="M92.7249 54.5873C95.3664 54.5873 96.5369 55.6832 96.5369 57.9684C96.5369 67.7308 96.5369 76.1181 96.5369 85.8805C96.5369 86.1084 96.4426 86.3166 96.2906 86.4687C96.1387 86.6206 95.9304 86.715 95.7025 86.715H92.6448C92.4169 86.715 92.2086 86.6206 92.0566 86.4687C91.9047 86.3166 91.8104 86.1084 91.8104 85.8805V62.854C91.8104 61.5828 90.8931 60.731 89.8961 60.731H80.6096V54.5873H92.7249ZM64.4274 54.5873H62.8528V60.731H64.4274V54.5873ZM54.1903 62.5582L47.9695 62.498C47.9824 63.4521 47.9825 69.9487 47.9825 71.903C47.9825 78.0621 42.9896 83.055 36.8305 83.055C30.6715 83.055 25.6785 78.0621 25.6785 71.903C25.6785 65.7439 30.6715 60.751 36.8305 60.751L57.5192 60.7767V54.5303C53.0798 54.5328 36.85 54.5431 36.8305 54.5431C32.0632 54.5611 27.6818 56.5009 24.5551 59.6276C21.4137 62.769 19.4707 67.1091 19.4707 71.903C19.4707 76.6969 21.4137 81.0369 24.5551 84.1784C27.6965 87.3198 32.0366 89.2629 36.8305 89.2629C41.6245 89.2629 45.9645 87.3198 49.1059 84.1784C52.2073 81.077 54.1417 76.6682 54.1903 71.9468C54.1909 71.8922 54.1902 63.5783 54.1903 62.5582ZM23.3392 74.6011C23.862 77.321 25.2193 79.7458 27.1035 81.6299C29.0806 83.607 31.6683 84.9208 34.5363 85.4684C35.4984 86.1271 35.0655 87.1314 34.2633 87.1954C27.935 86.1409 22.9031 81.2533 21.6357 74.9997C21.5471 74.5621 21.7687 73.9951 22.2406 73.8986C22.7401 73.7965 23.2245 74.0049 23.3392 74.6011ZM75.288 54.5873H73.7135V60.731H75.288V54.5873Z" fill="#42ADE2"/>
<path fill-rule="evenodd" clip-rule="evenodd" d="M62.8527 52.8252V52.5047C62.8527 51.7094 62.202 51.0588 61.4067 51.0588H58.9651C58.1697 51.0588 57.5191 51.7094 57.5191 52.5047V52.8032C51.7698 52.7917 43.7886 52.7695 36.8303 52.7954C26.3141 52.8347 17.7224 61.3771 17.7224 71.9035C17.7224 82.4566 26.2773 91.0115 36.8303 91.0115C47.3604 91.0115 55.9011 82.494 55.9383 71.9727C55.9384 71.9497 55.9384 62.5771 55.9384 62.5771C56.9488 62.572 56.8489 62.5784 57.5191 62.5667V62.8919C57.5191 63.6872 58.1697 64.3378 58.9651 64.3378H61.4067C62.202 64.3378 62.8527 63.6872 62.8527 62.8919V62.5078H64.4273H73.7134H75.2879V62.8413C75.2879 63.6348 75.9371 64.2841 76.7307 64.2841H79.1667C79.9603 64.2841 80.6095 63.6348 80.6095 62.8413V62.5078C83.459 62.5078 86.3084 62.5078 89.158 62.5078C90.0221 62.5078 90.2136 62.9866 90.2136 63.5424V85.881C90.2136 87.2182 91.3074 88.3121 92.6446 88.3121H95.7024C97.0395 88.3121 98.313 87.2182 98.313 85.881V57.8823C98.313 54.6178 96.7208 52.8113 92.8114 52.8113H80.6095V52.4777C80.6095 51.6843 79.9603 51.035 79.1667 51.035H76.7307C75.9371 51.035 75.2879 51.6843 75.2879 52.4777V52.8113H73.7134V51.3407H74.5889C75.9737 51.3407 77.1066 50.2078 77.1066 48.823V48.2485C77.1066 46.8637 75.9737 45.7308 74.5889 45.7308H73.7558L73.7624 43.1993C78.3192 41.3365 81.5303 36.86 81.5303 31.6326C81.5303 24.7337 75.9375 19.141 69.0385 19.141C62.1393 19.141 56.5467 24.7337 56.5467 31.6326C56.5467 36.8602 59.7578 41.3368 64.315 43.1996L64.3216 45.7308H63.5516C62.1669 45.7308 61.0339 46.8637 61.0339 48.2485V48.823C61.0339 50.2078 62.1669 51.3407 63.5516 51.3407H64.4273V52.8113L62.8527 52.8252ZM61.0723 62.505L59.2995 62.5063V52.8065L61.0723 52.8113V62.505ZM57.5191 54.5693V60.7771C52.036 60.7831 44.6387 60.7515 36.8303 60.7515C30.6714 60.7515 25.6784 65.7444 25.6784 71.9035C25.6784 78.0625 30.6714 83.0555 36.8303 83.0555C42.9894 83.0555 47.9823 78.0625 47.9823 71.9035C47.9823 69.9492 47.9823 63.4526 47.9694 62.4985L54.1902 62.5587C54.19 63.5787 54.1908 71.8927 54.1902 71.9473C54.1416 76.6687 52.2072 81.0774 49.1058 84.1788C45.9644 87.3203 41.6244 89.2633 36.8303 89.2633C32.0364 89.2633 27.6964 87.3203 24.555 84.1788C21.4136 81.0374 19.4706 76.6974 19.4706 71.9035C19.4706 67.1095 21.4136 62.7695 24.555 59.6281C27.6817 56.5014 32.0634 54.5618 36.8303 54.5436C45.7723 54.5095 52.204 54.5451 57.5191 54.5693ZM92.7248 54.5877C95.3663 54.5877 96.5368 55.6836 96.5368 57.9689C96.5368 67.7313 96.5368 76.1186 96.5368 85.881C96.5368 86.1089 96.4424 86.3171 96.2905 86.4691C96.1385 86.6211 95.9302 86.7155 95.7024 86.7155H92.6446C92.4168 86.7155 92.2085 86.6211 92.0565 86.4691C91.9046 86.3171 91.8103 86.1089 91.8103 85.881V62.8544C91.8103 61.5833 90.893 60.7315 89.896 60.7315H80.6095V54.5877H92.7248ZM76.5645 39.0689C76.551 39.0852 76.5394 39.103 76.5239 39.1184C76.5086 39.1338 76.491 39.1454 76.4745 39.1589C74.5613 41.0495 71.9342 42.219 69.0385 42.219C66.1428 42.219 63.5159 41.0497 61.6029 39.1593C61.5861 39.1458 61.5684 39.134 61.5527 39.1185C61.5372 39.103 61.5257 39.0851 61.5121 39.0686C59.6217 37.1554 58.4521 34.5283 58.4521 31.6326C58.4521 28.7374 59.6215 26.1105 61.5117 24.1973C61.5254 24.1805 61.5371 24.1628 61.5527 24.1472C61.5684 24.1314 61.5861 24.1198 61.6029 24.1062C63.516 22.2159 66.143 21.0466 69.0385 21.0466C71.9341 21.0466 74.561 22.2161 76.4742 24.1064C76.4908 24.1201 76.5084 24.1315 76.5239 24.1472C76.5394 24.1626 76.551 24.1802 76.5646 24.1969C78.4551 26.11 79.6246 28.7369 79.6246 31.6326C79.6247 34.5286 78.4552 37.1556 76.5645 39.0689ZM46.2331 67.5431L41.092 70.5113C41.2379 70.9451 41.3172 71.4095 41.3172 71.8925C41.3172 72.3573 41.2438 72.805 41.1082 73.2246L45.4279 75.7187C45.9461 74.5527 46.2343 73.2618 46.2343 71.9035C46.2343 70.7192 46.2334 69.7992 46.2331 67.5431ZM46.2334 65.533C46.2332 64.0815 46.2333 63.03 46.2332 62.4996H37.8569V67.6496C38.7862 67.8392 39.6071 68.3264 40.2159 69.0073L46.2334 65.533ZM44.5746 77.2398L40.2476 74.7416C39.6357 75.4413 38.8024 75.9424 37.8569 76.1353V81.2517C40.0438 81.0143 42.0057 80.0275 43.4801 78.5531C43.8831 78.15 44.2498 77.7105 44.5746 77.2398ZM36.1088 81.28V76.1336C35.0813 75.922 34.1867 75.3462 33.5658 74.5473L29.0341 77.1637C29.3717 77.6631 29.756 78.1284 30.1807 78.5531C31.7233 80.0956 33.7995 81.1048 36.1088 81.28ZM28.197 75.6372L32.795 72.9826C32.7046 72.6343 32.6565 72.269 32.6565 71.8925C32.6565 71.3692 32.7493 70.8675 32.9193 70.4033L28.3763 67.7804C27.768 69.0253 27.4266 70.4244 27.4266 71.9035C27.4266 73.2302 27.7013 74.4927 28.197 75.6372ZM29.2823 66.2936L33.8357 68.9226C34.434 68.2879 35.2218 67.834 36.1088 67.6513V62.5269C33.7995 62.7021 31.7233 63.7112 30.1807 65.2538C29.8568 65.5777 29.5564 65.9253 29.2823 66.2936ZM36.9795 70.8715C37.2634 70.8715 37.5205 70.9866 37.7066 71.1727C37.8926 71.3588 38.0078 71.6159 38.0078 71.8998C38.0078 72.1838 37.8926 72.4408 37.7066 72.6269C37.5205 72.813 37.2634 72.9281 36.9795 72.9281C36.6954 72.9281 36.4384 72.813 36.2523 72.6269C36.0663 72.4408 35.9511 72.1838 35.9511 71.8998C35.9511 71.6159 36.0663 71.3588 36.2523 71.1727C36.4384 70.9866 36.6954 70.8715 36.9795 70.8715ZM38.8128 70.0665C38.3456 69.5993 37.7 69.3103 36.9868 69.3103C36.2736 69.3103 35.6281 69.5993 35.1609 70.0665C34.6936 70.5337 34.4047 71.1792 34.4047 71.8925C34.4047 72.6057 34.6936 73.2512 35.1609 73.7184C35.6281 74.1856 36.2736 74.4746 36.9868 74.4746C37.7 74.4746 38.3456 74.1856 38.8128 73.7184C39.28 73.2512 39.569 72.6057 39.569 71.8925C39.569 71.1792 39.28 70.5337 38.8128 70.0665ZM75.2879 54.5877H73.7134V60.7315H75.2879V54.5877ZM78.8331 52.8113H77.0643V62.5078H78.8331V52.8113ZM71.9369 52.8113H66.2036V60.7315H71.9369V52.8113ZM66.0912 45.7308H71.9861V43.7737C71.041 44.0027 70.054 44.1244 69.0385 44.1244C68.023 44.1244 67.0362 44.0027 66.0912 43.7739V45.7308ZM70.4768 32.2164C70.0923 33.0434 69.1102 33.4023 68.283 33.0179C67.4559 32.6333 67.0973 31.6512 67.4817 30.824C67.7129 30.3267 68.1608 30.0004 68.6605 29.9015L71.6988 25.6709L70.4224 30.7205C70.6688 31.1664 70.7081 31.7191 70.4768 32.2164ZM76.6182 30.9976H78.3302C78.1887 28.9064 77.3544 27.003 76.0547 25.5146L74.8472 26.7222C74.7233 26.8461 74.5607 26.9082 74.3981 26.9082C74.2358 26.9082 74.0729 26.8461 73.9492 26.7222C73.701 26.4739 73.701 26.0719 73.9492 25.8239L75.1566 24.6164C73.668 23.3168 71.7652 22.4827 69.6738 22.341V24.053C69.6738 24.4039 69.3893 24.6881 69.0385 24.6881C68.6878 24.6881 68.4034 24.4039 68.4034 24.053V22.341C66.3122 22.4828 64.4089 23.3168 62.9204 24.6164L64.1278 25.824C64.376 26.072 64.376 26.4743 64.1278 26.7222C64.0037 26.8462 63.8413 26.9082 63.6786 26.9082C63.5159 26.9082 63.3536 26.8462 63.2295 26.7222L62.0221 25.5147C60.7226 27.0032 59.8884 28.9064 59.7468 30.9976H61.4588C61.8095 30.9976 62.0938 31.282 62.0938 31.6327C62.0938 31.9835 61.8094 32.2679 61.4588 32.2679H59.7468C59.8884 34.3592 60.7226 36.2623 62.0221 37.7507L63.2297 36.5433C63.4777 36.2954 63.8797 36.2954 64.1278 36.5433C64.3761 36.7915 64.3761 37.1936 64.1278 37.4415L62.9204 38.6491C63.2092 38.901 63.5118 39.1376 63.8302 39.3529C64.6386 37.2653 66.6656 35.7847 69.0387 35.7847C71.412 35.7847 73.4386 37.2654 74.2472 39.3529C74.5656 39.1376 74.868 38.901 75.1568 38.6491L73.9494 37.4415C73.7013 37.1935 73.7013 36.7914 73.9494 36.5433C74.1971 36.2954 74.5997 36.2954 74.8475 36.5433L76.0551 37.7509C77.3547 36.2625 78.1889 34.3593 78.3306 32.268H76.6182C76.2673 32.268 75.9831 31.9836 75.9831 31.633C75.9831 31.2822 76.2673 30.9976 76.6182 30.9976ZM74.5889 47.5071H63.5516C63.3496 47.5071 63.1646 47.5911 63.0294 47.7262C62.8943 47.8615 62.8103 48.0465 62.8103 48.2485V48.823C62.8103 49.0251 62.8943 49.2099 63.0294 49.3451C63.1646 49.4803 63.3496 49.5643 63.5516 49.5643H74.5889C74.7909 49.5643 74.976 49.4803 75.1112 49.3451C75.2462 49.2099 75.3303 49.0251 75.3303 48.823V48.2485C75.3303 48.0465 75.2462 47.8615 75.1112 47.7262C74.976 47.5911 74.7909 47.5071 74.5889 47.5071ZM64.4273 54.5877H62.8527V60.7315H64.4273V54.5877Z" fill="#2B2A29"/>
</svg>
