<svg width="120" height="120" viewBox="0 0 120 120" fill="none" xmlns="http://www.w3.org/2000/svg">
<path d="M60 120C93.1371 120 120 93.1371 120 60C120 26.8629 93.1371 0 60 0C26.8629 0 0 26.8629 0 60C0 93.1371 26.8629 120 60 120Z" fill="#D9DADA"/>
<path fill-rule="evenodd" clip-rule="evenodd" d="M96.3362 52.3915H98.5234C98.5279 52.0177 98.6133 51.554 99.1302 51.6834C99.5797 51.796 99.4923 52.3429 99.494 52.6911C99.499 53.669 98.2017 53.3607 97.4297 53.3607C96.6709 53.3607 95.3564 53.6659 95.3655 52.7158C95.3691 52.3396 95.2658 51.8109 95.7071 51.6859C96.2042 51.545 96.3362 52.0022 96.3362 52.3915ZM26.7096 71.318L25.6418 70.1476L26.8123 69.0798L27.8801 70.2501L26.7096 71.318ZM29.0505 69.1823L27.9828 68.0119L29.1532 66.944L30.221 68.1144L29.0505 69.1823ZM31.3914 67.0465L30.3236 65.8762L31.494 64.8083L32.5619 65.9787L31.3914 67.0465ZM33.7323 64.9108L32.6645 63.7404L33.835 62.6726L34.9027 63.8429L33.7323 64.9108ZM36.0731 62.775L35.0054 61.6047L36.1757 60.5368L37.2435 61.7072L36.0731 62.775ZM38.4138 60.6394L37.3461 59.4691L38.5164 58.4012L39.5842 59.5717L38.4138 60.6394ZM40.7546 58.5038L39.6868 57.3335L40.8571 56.2657L41.9249 57.4361L40.7546 58.5038ZM43.0953 56.3683L42.0275 55.198L43.1979 54.1301L44.2656 55.3006L43.0953 56.3683ZM45.0932 54.9245L45.0886 53.3402L46.6729 53.3356L46.6775 54.9198L45.0932 54.9245ZM48.2619 54.9152L48.2572 53.331L49.8415 53.3264L49.8462 54.9106L48.2619 54.9152ZM51.4306 54.9061L51.4259 53.3218L53.0102 53.3172L53.0149 54.9015L51.4306 54.9061ZM54.5992 54.8969L54.5945 53.3127L56.1789 53.3081L56.1836 54.8923L54.5992 54.8969ZM57.7679 54.8877L57.7632 53.3035L59.3475 53.2989L59.3522 54.8831L57.7679 54.8877ZM60.9365 54.8786L60.9318 53.2943L62.5162 53.2898L62.5209 54.874L60.9365 54.8786ZM64.1052 54.8694L64.1005 53.2852L65.6848 53.2806L65.6895 54.8648L64.1052 54.8694ZM67.2739 54.8602L67.2691 53.276L68.8535 53.2714L68.8582 54.8556L67.2739 54.8602ZM70.4425 54.8511L70.4378 53.2668L72.0221 53.2623L72.0268 54.8465L70.4425 54.8511ZM73.6111 54.8419L73.6064 53.2577L75.1907 53.2531L75.1953 54.8373L73.6111 54.8419ZM36.6213 58.6278L37.9033 56.6196C38.4745 55.6365 39.2342 54.1005 39.2141 52.9223C39.1966 51.9 38.7206 51.0786 38.2463 50.564C38.0298 50.3291 37.663 50.0548 37.2888 49.8647C36.585 49.5071 36.1979 49.5753 35.9841 49.4871H35.4525C35.2369 49.5714 34.4334 49.4993 33.4867 50.2802C33.4316 50.3257 33.3892 50.3484 33.3405 50.3985C33.0992 50.6474 32.8922 50.858 32.7031 51.1784C32.4201 51.658 32.2138 52.2298 32.1997 52.8983C32.1923 53.2433 32.2457 53.5774 32.3223 53.8921C32.3731 54.1005 32.5784 54.6288 32.5846 54.7611L33.0363 55.7355C33.1567 55.9001 33.3031 56.2476 33.4211 56.4464C33.8215 57.1212 34.0471 57.4976 34.483 58.1471C34.5466 58.2418 34.6684 58.3976 34.7143 58.5046L35.2026 59.1574C35.305 59.2933 35.3606 59.3856 35.4654 59.5369C35.5625 59.6058 35.5815 59.664 35.7437 59.6546C35.889 59.6461 35.8816 59.6041 35.9969 59.5093C36.2705 59.1239 35.9969 59.5093 36.2705 59.1239C36.2815 59.1161 36.5836 58.6814 36.6213 58.6278ZM35.5559 54.1727C35.3804 54.074 34.9165 53.7507 34.6984 53.6047C34.6019 53.5402 34.5027 53.4623 34.3378 53.4776C34.0959 53.5 33.8917 53.7606 33.9983 54.0363C34.052 54.175 34.1164 54.206 34.2298 54.2811C34.3339 54.35 34.4199 54.411 34.5232 54.4783L35.3792 55.048C35.7517 55.2839 35.9891 54.9209 36.2725 54.6371L37.9514 52.9586C38.3071 52.5961 37.9036 52.0968 37.5067 52.2751C37.3003 52.3678 35.7112 54.1008 35.5559 54.1727ZM86.4438 52.3915H90.203C90.1242 52.274 88.3507 50.6796 88.3266 50.6779C88.2955 50.6756 86.561 52.2146 86.4438 52.3915ZM87.6185 50.0124L86.6433 49.1346L85.3953 52.0415L87.6185 50.0124ZM91.2656 52.0684L90.0804 49.0539L89.0357 50.013L91.2656 52.0684ZM88.4073 45.0343L87.0394 48.2063C87.1346 48.2992 88.2527 49.3154 88.2701 49.3238C88.4488 49.4105 89.314 48.4527 89.4951 48.2845C89.7809 48.019 89.6 47.9206 89.4405 47.5305C89.275 47.1261 88.4889 45.1216 88.4073 45.0343ZM85.0021 50.5025L87.8059 44.0134L87.7982 44.0416L86.9358 43.6282L85.0021 50.5025ZM91.7378 50.6268L89.8839 43.4382L89.8904 43.4735L89.0236 43.9828L89.0081 43.9602L91.7378 50.6268ZM86.2201 41.1072L79.3253 45.7404L79.699 46.3009L86.1409 42.3921L86.0938 42.3964L86.2201 41.1072ZM88.4073 39.6159L89.8005 40.073L92.8813 38.224C92.8403 38.1623 91.9144 37.3646 91.8542 37.3383C91.7425 37.2892 90.8649 37.9444 90.699 38.055C90.2726 38.3392 88.6627 39.3465 88.4073 39.6159ZM97.9516 51.8943H96.9824L96.8991 41.6541L93.6569 38.8643L90.3501 40.8997C90.6031 41.5649 90.4441 41.8578 90.5946 42.4002C90.9721 43.7595 91.3393 45.2799 91.7033 46.6597C91.9527 47.6052 92.195 48.5527 92.4438 49.4983C92.6686 50.3534 93.0482 51.529 93.1795 52.3666C93.673 52.3666 95.069 52.1422 94.9786 52.8988C94.9023 53.5399 93.5617 53.336 93.0553 53.336C89.8986 53.336 86.742 53.336 83.5854 53.336C83.079 53.336 81.7383 53.5399 81.6618 52.8988C81.5713 52.1398 82.9891 52.3666 83.486 52.3666L85.9535 43.6196C84.7352 44.2382 83.1888 45.288 81.9987 46.0325C81.348 46.4398 80.6841 46.8463 80.0264 47.2418C79.4819 47.5692 79.5838 47.1919 79.5838 48.3898C79.5838 48.9201 79.5838 49.4503 79.5838 49.9805C81.2832 49.9805 80.9756 50.0767 80.9756 51.7452C80.9756 53.4289 80.7263 53.0377 79.0866 53.0377C77.469 53.0377 77.1975 53.4284 77.1975 51.7452C77.1975 50.0626 76.9031 49.9805 78.6144 49.9805C78.6144 49.3142 78.7139 46.7155 78.5158 46.2798C78.2996 45.8036 77.9647 45.5039 78.5575 45.0819C78.8995 44.8384 79.3538 44.5653 79.7178 44.3234C81.2434 43.3098 82.7569 42.2744 84.2769 41.252C85.7924 40.2327 87.3057 39.2099 88.8202 38.1896C89.3883 37.8068 90.6691 37.0546 91.1118 36.6719C91.6781 36.1829 90.8047 34.2899 91.0154 33.5439C91.1357 33.1173 91.6777 32.9517 92.0134 32.6636C92.4633 32.2778 92.7636 32.1585 93.3154 32.4577C95.8077 33.808 97.9555 35.5521 98.8378 38.3818C99.0113 38.9381 99.1068 39.3713 99.1539 39.9547C99.2123 40.6777 99.352 40.9558 98.6645 41.2981C97.8266 41.7156 97.877 41.4993 97.877 42.4246C97.877 43.0627 97.8773 43.7011 97.8762 44.3393C97.8723 46.8463 97.9516 49.3842 97.9516 51.8943Z" fill="#42ADE2"/>
<path fill-rule="evenodd" clip-rule="evenodd" d="M56.0557 71.1086C55.9941 71.0693 55.8444 70.811 55.7968 70.7265C55.7394 70.6418 55.6447 70.5206 55.6079 70.4125L57.2483 71.3478L56.1716 71.1774C56.0577 71.157 56.0856 71.1768 56.0557 71.1086ZM84.3095 67.5613L85.5915 65.5531C86.1627 64.57 86.9224 63.034 86.9022 61.8559C86.8848 60.8336 86.4087 60.0121 85.9345 59.4977C85.718 59.2627 85.3512 58.9883 84.977 58.7982C84.2732 58.4406 83.8861 58.5089 83.6723 58.4207H83.1407C82.9251 58.5049 82.1216 58.4328 81.1749 59.2138C81.1198 59.2594 81.0774 59.2819 81.0286 59.3321C80.7874 59.5809 80.5803 59.7915 80.3913 60.1119C80.1083 60.5915 79.902 61.1633 79.8879 61.8318C79.8805 62.1769 79.9339 62.511 80.0105 62.8256C80.0613 63.034 80.2666 63.5623 80.2727 63.6946L80.7244 64.6691C80.8449 64.8336 80.9912 65.1812 81.1093 65.3799C81.5097 66.0548 81.7353 66.4312 82.1712 67.0806C82.2348 67.1754 82.3566 67.3312 82.4025 67.4382L82.8908 68.0909C82.9932 68.227 83.0488 68.3191 83.1536 68.4705C83.2507 68.5395 83.2697 68.5977 83.4319 68.5882C83.5772 68.5797 83.5698 68.5376 83.685 68.4429C83.9587 68.0575 83.685 68.4429 83.9587 68.0576C83.9697 68.0498 84.2718 67.615 84.3095 67.5613ZM82.4934 63.8802C82.3236 64.05 82.0485 64.05 81.8788 63.8802C81.709 63.7106 81.709 63.4354 81.8788 63.2656L82.7803 62.3641L81.8788 61.4625C81.709 61.2928 81.709 61.0176 81.8788 60.848C82.0484 60.6783 82.3236 60.6783 82.4932 60.848L83.3949 61.7496L84.2965 60.848C84.4662 60.6783 84.7414 60.6783 84.911 60.848C85.0807 61.0176 85.0807 61.2928 84.911 61.4625L84.0095 62.3641L84.9109 63.2656C85.0807 63.4354 85.0807 63.7106 84.9109 63.8802C84.7413 64.05 84.4662 64.05 84.2964 63.8802L83.3949 62.9787L82.4934 63.8802ZM68.8227 41.1768L70.1046 39.1686L70.106 39.1661L70.1074 39.1638L70.1088 39.1613L70.1102 39.1589L70.1117 39.1565L70.1129 39.1541L70.1144 39.1517L70.1158 39.1493L70.1172 39.1468L70.1187 39.1444L70.1199 39.142L70.1214 39.1395L70.1228 39.1371L70.1242 39.1347L70.1256 39.1322L70.127 39.1298L70.1285 39.1274L70.1298 39.125L70.1313 39.1225L70.1316 39.122L70.1326 39.12L70.1341 39.1176L70.1355 39.1152L70.1369 39.1127L70.1383 39.1103L70.1397 39.1079L70.1412 39.1053L70.1425 39.1029L70.144 39.1004L70.1454 39.098L70.1469 39.0955L70.1482 39.093L70.1496 39.0905L70.1511 39.0881L70.1525 39.0855L70.1539 39.0831L70.1553 39.0806L70.1567 39.0782L70.1581 39.0757L70.1587 39.0747L70.1596 39.0731L70.161 39.0706L70.1625 39.0682L70.1639 39.0657L70.1653 39.0632L70.1667 39.0607L70.1681 39.0583L70.1695 39.0558L70.171 39.0532L70.1724 39.0507L70.1739 39.0482L70.1753 39.0456L70.1768 39.0431L70.1781 39.0407L70.1795 39.0382L70.181 39.0356L70.1824 39.0331L70.1839 39.0306L70.1853 39.028L70.1861 39.0267L70.1868 39.0255L70.1881 39.023L70.1896 39.0206L70.191 39.018L70.1925 39.0154L70.1939 39.0129L70.1953 39.0103C70.7522 38.0258 71.4355 36.5867 71.4154 35.4713C71.3979 34.4491 70.9218 33.6276 70.4476 33.113C70.231 32.8781 69.8643 32.6038 69.4901 32.4137C68.7862 32.0561 68.3992 32.1243 68.1853 32.0361H67.6538C67.4381 32.1204 66.6347 32.0483 65.688 32.8292C65.633 32.8748 65.5904 32.8974 65.5418 32.9475C65.3004 33.1964 65.0935 33.407 64.9044 33.7274C64.6214 34.207 64.4152 34.7788 64.401 35.4473C64.3936 35.7923 64.4469 36.1264 64.5236 36.4411C64.5745 36.6495 64.7797 37.1778 64.7858 37.3101L65.2376 38.2845C65.358 38.4491 65.5043 38.7966 65.6224 38.9954L65.8307 39.3457L65.8317 39.3473L65.8436 39.3671L65.848 39.3744L65.8563 39.3885L65.864 39.4014L65.88 39.428L65.8816 39.4306L65.894 39.4514L65.8959 39.4545L65.9065 39.4721L65.9116 39.4807L65.9189 39.4926L65.9273 39.5066L65.9428 39.5324L65.9434 39.5333L65.9555 39.5534L65.9583 39.558L65.9737 39.5834L65.9797 39.5935L65.989 39.6087L65.9918 39.6133L66.0038 39.6331L66.0042 39.6338L66.0157 39.6529L66.0194 39.6587L66.0277 39.6724L66.0346 39.6837L66.0396 39.692L66.0497 39.7083L66.0515 39.7114L66.0633 39.7309L66.0647 39.733L66.0798 39.7576L66.0949 39.7821L66.099 39.7888L66.1099 39.8065L66.1109 39.808L66.1227 39.8273L66.125 39.8309L66.1346 39.8465L66.14 39.8552L66.1465 39.8656L66.1552 39.8796L66.1584 39.8848L66.1703 39.9039L66.1703 39.904L66.1822 39.9232L66.1855 39.9282L66.1942 39.9423L66.2007 39.9526L66.2063 39.9616L66.2159 39.977L66.2184 39.9808L66.2304 40L66.2313 40.0015L66.2468 40.026L66.2623 40.0505L66.2671 40.058L66.2779 40.0752L66.2794 40.0775L66.2918 40.097L66.2937 40.0999L66.3043 40.1166L66.3096 40.1247L66.3168 40.1362L66.3255 40.1497L66.3295 40.1559L66.3416 40.1749L66.3422 40.1758L66.3549 40.1957L66.3579 40.2002L66.3742 40.2256L66.3908 40.2512L66.3939 40.2561L66.4071 40.2764L66.4204 40.2969L66.4244 40.303L66.4338 40.3175L66.4415 40.3293L66.4472 40.3383L66.4587 40.3558L66.4609 40.3591L66.4747 40.3802L66.4762 40.3826L66.4939 40.4095L66.5025 40.4228L66.5118 40.4367L66.5168 40.4442L66.53 40.4642L66.5312 40.466L66.5456 40.4879L66.5483 40.4921L66.5602 40.51L66.5669 40.5201L66.5858 40.5487L66.6049 40.5774L66.605 40.5774L66.6202 40.6004L66.6243 40.6065L66.6357 40.6235L66.644 40.6361L66.6843 40.6961C66.748 40.7909 66.8698 40.9466 66.9155 41.0536L67.404 41.7064C67.5063 41.8424 67.5619 41.9346 67.6667 42.0859C67.7638 42.1548 67.7828 42.213 67.945 42.2036C68.0902 42.1951 68.0828 42.1531 68.1981 42.0583C68.4718 41.673 68.1981 42.0583 68.4718 41.673C68.4828 41.6651 68.7849 41.2304 68.8227 41.1768ZM67.0065 37.4957C66.8367 37.6654 66.5616 37.6654 66.3919 37.4957C66.2222 37.326 66.2222 37.0509 66.3919 36.8811L67.2934 35.9796L66.3918 35.0779C66.2222 34.9083 66.2222 34.6331 66.3918 34.4634C66.5615 34.2938 66.8367 34.2938 67.0064 34.4634L67.908 35.365L68.8096 34.4634C68.9793 34.2938 69.2545 34.2938 69.4242 34.4634C69.5938 34.6331 69.5938 34.9083 69.4242 35.0779L68.5225 35.9796L69.424 36.8811C69.5938 37.0509 69.5938 37.326 69.424 37.4957C69.2544 37.6654 68.9793 37.6654 68.8095 37.4957L67.908 36.5942L67.0065 37.4957ZM73.5768 43.6436H75.1612V45.2279H73.5768V43.6436ZM57.6469 45.2279V43.6436H59.2313V45.2279H57.6469ZM60.8156 45.2279V43.6436H62.3999V45.2279H60.8156ZM63.9842 45.2279V43.6436H65.5686V45.2279H63.9842ZM67.1529 45.2279V43.6436H68.7372V45.2279H67.1529ZM70.3215 45.2279V43.6436H71.9059V45.2279H70.3215ZM73.5768 46.2255H75.1612V47.8098H73.5768V46.2255ZM73.5768 49.3941H75.1612V50.9785H73.5768V49.3941ZM79.4711 71.6125V70.0281H81.0554V71.6125H79.4711ZM90.4189 71.6125H88.8345V70.0282H90.4189V71.6125ZM82.6398 71.6125V70.0281H84.2241V71.6125H82.6398ZM85.8084 71.6125V70.0281H87.3927V71.6125H85.8084ZM90.4189 69.0177H88.8345V67.4333H90.4189V69.0177ZM90.4189 65.849H88.8345V64.2647H90.4189V65.849ZM90.4189 62.6804H88.8345V61.096H90.4189V62.6804ZM90.4189 59.5117H88.8345V57.9274H90.4189V59.5117ZM90.4189 56.343H88.8345V54.7587H90.4189V56.343ZM97.1238 54.4982C98.3417 59.1789 101.269 64.4757 102.411 69.2052L104.78 78.3488C103.014 78.1431 101.009 77.8241 99.2298 77.53C97.4269 77.2321 95.6543 77.0449 93.7813 76.8388C77.0441 74.9963 64.0274 75.053 47.3421 77.368C43.7297 77.8696 40.0521 78.4599 36.4174 78.8323C32.5322 79.2304 28.5728 79.4554 24.7431 79.0032C22.9317 78.7893 21.3286 78.538 19.572 78.041C17.383 77.4217 16.503 76.9453 14.9874 76.4759C15.0649 76.0376 15.6208 74.8155 15.8349 74.3316C16.1251 73.6747 16.4303 72.9316 16.7229 72.2335L21.9618 59.6731C23.1043 56.9381 24.2162 54.1124 25.4585 51.3347L28.0839 45.014C28.3257 44.4145 28.7615 43.5707 28.9229 42.9576C30.7079 43.1494 33.9135 43.651 35.754 43.5862L35.8066 41.9128C31.4989 41.9177 33.0298 41.8897 27.6474 41.0526C27.3301 41.4299 25.9566 44.924 25.6208 45.7115C24.5242 48.2851 11.9547 77.7867 11.8466 78.281C12.2921 78.5182 13.7973 78.8908 14.4118 79.0475C21.8873 80.9522 27.2257 81.4297 35.235 80.8248C43.1819 80.2243 51.0162 78.7809 59.0365 78.157C67.6546 77.4867 76.0758 77.5855 84.6618 78.1657C89.8788 78.5182 97.1992 79.38 102.469 80.166C104.299 80.4392 106.384 80.8781 108.152 81.0656L104.789 69.1093C104.578 68.3734 104.283 67.5251 104.066 66.7377C102.795 62.1336 100.538 59.1368 99.2627 54.5204L97.1238 54.4982ZM53.8795 42.2598C57.3501 41.8071 61.0752 41.2688 64.8923 40.837L64.8892 40.8322L64.7971 40.6845C64.5498 40.2855 64.4186 40.0659 64.2607 39.7999L64.2578 39.7949L64.2566 39.7928L64.2549 39.79L64.2526 39.7859L64.252 39.785L64.249 39.7801L64.2485 39.7791L64.2461 39.7751L64.2445 39.7722L64.2432 39.7702L64.2406 39.7655L64.2405 39.7653L64.2376 39.7604L64.2366 39.7587L64.2348 39.7555L64.2328 39.7519L64.232 39.7507L64.2292 39.7459L64.2288 39.7452L64.2266 39.7412L64.2251 39.7386L64.2238 39.7363L64.2213 39.7319L64.221 39.7315L64.2184 39.7268L64.2175 39.7252L64.2156 39.7221L64.2137 39.7187L64.213 39.7174L64.2104 39.7127L64.21 39.7121L64.2077 39.7079L64.2063 39.7055L64.2051 39.7032L64.2028 39.6991L64.2025 39.6986L64.1999 39.694L64.1992 39.6927L64.1974 39.6893L64.1955 39.6862L64.1947 39.6847L64.1922 39.6801L64.1919 39.6797L64.1898 39.6755L64.1885 39.6733L64.1872 39.671L64.1849 39.6669L64.1847 39.6664L64.1822 39.6618L64.1815 39.6607L64.1798 39.6574L64.178 39.6543L64.1772 39.6528L64.1748 39.6483L64.1746 39.648L64.1724 39.6438L64.1712 39.6418L64.17 39.6393L64.1679 39.6355L64.1676 39.6348L64.1652 39.6303L64.1646 39.6293L64.1627 39.6259L64.1612 39.6231L64.158 39.617L64.1579 39.6169L64.1557 39.6126L64.1546 39.6107L64.1481 39.5985L64.1463 39.595L64.1449 39.5923L64.1441 39.5906L64.1418 39.5863V39.5862L64.1395 39.5819L64.1354 39.5742L64.1349 39.5732L64.1327 39.5688L64.1323 39.5681L64.1304 39.5644L64.1291 39.562L64.1282 39.5602L64.126 39.556L64.1259 39.5558L64.1238 39.5515L64.1216 39.5472L64.1198 39.5441L64.1193 39.5429L64.1172 39.5387L64.1168 39.5381L64.1149 39.5344L64.1137 39.5321L64.1127 39.53L64.1106 39.5261L64.1106 39.5258L64.1083 39.5215L64.1076 39.5202L64.1062 39.5173L64.1045 39.5143L64.1041 39.513L64.1019 39.5088C60.3797 39.8781 56.832 40.346 53.8795 40.8372V42.2598ZM66.6514 40.6469C67.538 40.5557 68.4282 40.4718 69.3201 40.3975L66.6514 40.6469ZM71.2857 40.2507C75.345 39.9831 79.4073 39.9495 83.2852 40.3723C85.1486 39.0805 83.2463 40.3681 85.1486 39.0805C81.5896 38.6568 76.9145 38.653 72.0388 38.9041L72.033 38.916L72.0299 38.9222L72.0209 38.9404L72.0147 38.9531L72.012 38.9586L72.0031 38.9765L71.9965 38.99L71.9942 38.9946L71.9852 39.0125L71.9782 39.0267L71.9762 39.0304L71.9672 39.0483L71.9492 39.0838L71.9414 39.0994L71.9403 39.1016L71.9313 39.1192L71.9231 39.1355L71.9223 39.137L71.9133 39.1544L71.9047 39.1713L71.9044 39.172L71.8953 39.1895L71.8773 39.2244L71.8683 39.2416L71.8679 39.2424L71.8593 39.2589L71.8503 39.2761L71.8495 39.2777L71.8414 39.2933L71.8324 39.3105L71.8311 39.3127L71.8233 39.3275L71.8143 39.3445L71.8128 39.3475L71.8054 39.3615L71.7945 39.3821L71.7875 39.3953L71.7785 39.412L71.7762 39.4164L71.7695 39.4287L71.7605 39.4455L71.7579 39.4506L71.7517 39.4621L71.7427 39.4786L71.7395 39.4844L71.7338 39.4951L71.7247 39.5115L71.7213 39.518L71.7159 39.528L71.707 39.5443L71.7031 39.5514L71.6981 39.5606L71.6892 39.5767L71.685 39.5846L71.6803 39.593L71.6715 39.6091L71.6669 39.6175L71.6626 39.625L71.6538 39.641L71.6488 39.6501L71.645 39.6569L71.6362 39.6727L71.6308 39.6824L71.6274 39.6885L71.6186 39.7042L71.6128 39.7145L71.6099 39.7198L71.6011 39.7354L71.595 39.7463L71.5924 39.751L71.5837 39.7664L71.5772 39.7778L71.575 39.7818L71.5664 39.797L71.5595 39.8089L71.5576 39.8123L71.549 39.8275L71.5419 39.84L71.5404 39.8425L71.5319 39.8576L71.5244 39.8706L71.5232 39.8725L71.5147 39.8874L71.5069 39.9009L71.5061 39.9022L71.4976 39.9169L71.4896 39.9311L71.4892 39.9316L71.4807 39.9462L71.4723 39.9607L71.4352 40.0164L71.2857 40.2507ZM52.3443 45.5042C51.9428 45.5042 51.5347 45.5042 49.5063 45.5042L49.4978 41.8408L46.0648 41.8465L46.0637 45.4763H44.1199V27.6351H52.3443V45.5042ZM53.2414 45.5042V26.7379H49.4284V24.906H43.2227V30.6257H37.7274V32.4201H36.5311V45.5042H35.0732V46.4014H54.7063V45.5042C53.9179 45.5042 54.1218 45.5042 53.2414 45.5042ZM48.5641 45.4986C48.1379 45.4986 47.5908 45.5042 46.9984 45.5042V42.7774L48.5641 42.772V45.4986ZM37.4283 45.5042H43.2227V33.3173H37.4283V45.5042ZM44.1199 26.7379H48.5312V25.8032H44.1199V26.7379ZM38.6246 32.4201H43.0732V31.4856H38.6246V32.4201ZM45.1293 31.7001H50.4751V32.5971H45.1293V31.7001ZM45.1293 34.2089H50.4751V35.1061H45.1293V34.2089ZM38.3828 37.6206H42.2761V38.5178H38.3828V37.6206ZM38.3828 40.1296H42.2761V41.0267H38.3828V40.1296ZM38.3828 42.6383H42.2761V43.5356H38.3828V42.6383ZM45.1293 36.7178H50.4751V37.615H45.1293V36.7178ZM45.1293 29.1909H50.4751V30.0883H45.1293V29.1909ZM38.4003 35.1117H42.2508V36.009H38.4003V35.1117ZM45.1293 39.2268H50.4751V40.1239H45.1293V39.2268ZM71.5235 72.6741L70.0156 70.8042C69.6541 70.3763 69.7665 70.5405 69.1913 70.2186L68.8192 70.0319C68.6232 69.9265 66.4622 68.7641 66.3899 68.7641L62.9852 70.9453L64.1024 71.1049C65.1345 71.2804 66.3956 71.4412 67.4653 71.5987C68.2211 71.7102 68.9551 71.8208 69.6928 71.9247C70.2199 71.999 70.1379 72.0079 70.6369 72.2574C70.7987 72.3384 71.385 72.6628 71.5235 72.6741ZM71.1778 61.3429L68.9394 63.3604C68.8707 63.4154 68.8277 63.4673 68.7644 63.5311C68.4837 63.8132 68.5216 63.6162 68.3215 64.1791C68.1968 64.5308 68.0574 64.8475 67.9286 65.1958L66.9217 67.7797C66.8781 67.8889 66.7438 68.2135 66.7355 68.3119L67.3205 68.6314C67.3903 68.6677 67.4631 68.7022 67.5339 68.7373C67.67 68.8048 67.7915 68.8801 67.9327 68.9503L69.5338 69.7963C69.5908 69.831 69.8829 69.9928 69.939 70.0036C70.0592 70.0264 70.3516 69.7174 70.4513 69.6336L71.7743 68.5093C71.9934 68.3379 72.4106 67.9428 72.6141 67.8065C72.5626 67.6992 72.5397 67.5733 72.4976 67.444C72.3766 67.0724 71.7602 65.0022 71.7209 64.7629L71.1778 61.3429ZM77.4817 66.8489C77.3526 66.7624 77.2355 66.6106 77.1165 66.4959C77.0441 66.4264 77.0019 66.4094 76.9293 66.3374C76.8613 66.2703 76.8126 66.2082 76.7369 66.1573C76.5886 66.1918 75.1614 66.992 74.8221 67.1684L74.1823 67.5128C74.1152 67.5517 74.0399 67.5857 73.9705 67.6201C73.7273 67.7405 73.0922 68.0771 72.9263 68.2252L71.497 69.429C71.2353 69.6325 70.5908 70.2099 70.4063 70.3334C70.433 70.4474 70.5899 70.6188 70.6662 70.7119L72.6672 73.2326L73.9165 73.0988C74.3445 73.0706 74.4161 72.9465 74.8696 72.6422C75.0144 72.5451 75.1419 72.4695 75.2898 72.3709C75.4418 72.2696 75.6239 72.1809 75.671 72.0603L76.0284 71.0081C76.146 70.6626 76.277 70.3186 76.3879 69.9843L77.4817 66.8489ZM73.0929 67.514L76.5241 65.6787C76.5241 65.0227 76.5213 64.366 76.5242 63.7102C76.5252 63.4725 76.5468 63.4574 76.445 63.3107C76.3746 63.209 76.3155 63.1179 76.2421 63.0079C76.1686 62.8977 75.8827 62.4949 75.8591 62.407C75.7336 62.4174 75.8208 62.3976 75.7286 62.4625L73.6566 63.955C73.5777 64.0087 73.5137 64.0565 73.4388 64.1094L72.3215 64.9073L72.9011 66.8546C72.9642 67.0803 73.0423 67.2967 73.0929 67.514ZM72.1886 64.2954C72.2596 64.2764 72.5406 64.0641 72.618 64.0068C73.3035 63.5005 74.0915 62.9802 74.7611 62.4793L75.6198 61.8749L75.4602 60.3056L73.4804 59.173C73.355 59.0988 72.911 58.8253 72.8002 58.8161C72.7745 58.9268 72.7139 58.9973 72.6582 59.0995L71.6632 60.8182C71.6051 60.9585 71.7929 61.7957 71.8146 61.9562L72.1886 64.2954ZM72.1353 58.9224L70.1265 59.5202C69.986 59.5985 69.7723 59.8802 69.6552 60.0067C69.4522 60.2265 69.1928 60.4408 69.0006 60.682L65.9444 63.8499C65.8884 63.9058 65.836 63.9508 65.7858 64.0107C65.5459 64.298 65.367 64.4353 65.1459 64.6741C65.0795 64.7462 65.0617 64.7868 64.9872 64.861L64.5076 65.3392C64.4404 65.4118 64.4245 65.4517 64.3488 65.5258C64.2822 65.5912 64.2417 65.6121 64.2046 65.7012C64.0854 65.9863 63.5677 67.7378 63.4205 68.1886C63.1869 68.9479 62.9534 69.706 62.7193 70.4664C63.4751 69.9604 64.3571 69.4387 65.1027 68.9398L66.1098 68.2979C66.2369 68.2071 66.5147 67.3612 66.5952 67.1608L67.8757 63.8393C68.083 63.324 68.0328 63.5155 68.2722 63.2785L69.6413 62.0143C69.7134 61.9475 69.7539 61.9299 69.8282 61.8552C70.0283 61.6542 71.1065 60.7125 71.1771 60.5976C71.2152 60.5358 71.2531 60.4636 71.2924 60.3936L72.1353 58.9224ZM72.5875 73.7647C72.4674 73.7647 70.5412 72.7682 70.3886 72.6918C70.1133 72.5542 70.0752 72.5044 69.7901 72.4657L62.2622 71.3757C61.9242 71.2832 61.8962 71.2846 61.6319 71.3032C61.4664 71.3425 61.3197 71.3486 61.1572 71.4013C61.0733 71.4135 60.3496 71.5348 60.2603 71.5903C60.1651 71.5713 59.9871 71.6188 59.8922 71.6497C59.7739 71.6668 59.447 71.7017 59.374 71.7637C59.2597 71.7562 59.1408 71.7916 59.0294 71.8154L58.1899 71.9833C57.9377 71.9874 57.5776 71.848 57.3563 71.8686C57.2655 71.7997 57.0268 71.7933 56.8992 71.7775L56.4973 71.705L56.0561 71.6323C55.8294 71.5736 55.8218 71.648 55.7115 71.4672C55.6701 71.3999 55.5536 71.1909 55.5046 71.1648C55.4679 71.0794 55.424 71.0211 55.3731 70.9412C55.33 70.8732 55.2932 70.7885 55.225 70.7433L55.2304 70.7431C55.1743 70.6118 55.0414 70.428 54.9577 70.3029C54.9257 70.2549 54.8422 70.1368 54.8184 70.0838C54.7757 69.9883 54.8096 69.8513 54.7628 69.7784C54.7789 69.6819 54.7623 69.5748 54.7486 69.4757L54.7097 69.0371L54.671 68.6129C54.6591 68.4881 54.6743 68.2482 54.6144 68.1587C54.6323 68.0359 54.607 67.8865 54.5927 67.7679C54.5865 67.6921 54.5685 67.3643 54.5337 67.3006C54.5766 67.1371 54.4933 66.8206 54.4874 66.6316C54.4832 66.4933 54.625 66.2308 54.6728 66.0844L55.021 65.2204C55.066 65.164 55.1648 64.9139 55.165 64.8496C55.234 64.7699 55.5182 64.0282 55.533 63.975C55.5843 63.8886 55.8549 63.2217 55.8569 63.1481C55.9201 63.0921 56.0281 62.7897 56.0536 62.6907L56.0697 62.6286C56.0735 62.6243 56.0781 62.6112 56.0796 62.6147C56.1077 62.6782 56.0355 62.5462 56.2414 62.4758L56.9462 62.1995C57.0344 62.2007 57.2598 62.1082 57.3431 62.0659C57.4894 62.0227 57.6395 61.9605 57.781 61.9077C57.888 61.8681 58.1351 61.8061 58.199 61.7321C58.3089 61.7324 58.3199 61.6989 58.413 61.6725C58.5309 61.6393 58.5287 61.6982 58.6001 61.749C58.6359 61.8094 58.6864 61.845 58.7473 61.8821C58.7676 61.9292 58.7559 61.9079 58.7953 61.9532C58.8224 61.9843 58.8387 61.9995 58.8667 62.0299C58.9152 62.0828 58.9489 62.1248 59.0012 62.1702L59.1241 62.2944C59.1447 62.3231 59.1309 62.305 59.1556 62.3302L59.2705 62.4482C59.3232 62.506 59.3667 62.5655 59.4254 62.6051L59.5278 62.7176L59.8493 63.0388C59.8797 63.0993 59.8998 63.1208 59.9517 63.1599L60.2732 63.4796C60.3065 63.5452 60.302 63.5415 60.3641 63.578C60.3926 63.6559 60.6565 63.9006 60.6974 63.921C60.7341 63.9937 60.6983 63.9562 60.7682 63.996C60.7927 64.0655 61.0451 64.3217 61.1212 64.3627C61.143 64.4148 61.1283 64.3946 61.1704 64.4141C61.2074 64.5076 62.1755 65.4836 62.3594 65.6836L62.8527 66.2022C62.9522 66.3148 63.0285 66.3071 63.0508 66.5047C63.0613 66.6087 63.0925 66.9695 63.1284 67.3401L63.7127 65.4751C63.7776 65.2771 63.8593 65.2463 64.043 65.0606C64.118 64.9849 64.1399 64.936 64.2149 64.8602C64.2825 64.7918 64.3333 64.7429 64.4017 64.6747L65.8518 63.1721C65.9238 63.0994 65.9407 63.0572 66.0104 62.985C66.077 62.9155 66.129 62.8673 66.197 62.7992L69.4559 59.4083C69.694 59.1712 69.7137 59.0149 70.0776 58.913L71.5235 58.4969C72.949 58.0987 72.5405 57.9775 73.849 58.7515C73.9821 58.8304 75.8385 59.8566 75.935 59.9637C76.0092 60.0459 76.0026 60.0883 76.0182 60.2796L76.1753 61.7716C76.2001 62.0119 76.4958 62.3643 76.6306 62.5665C76.7346 62.7227 77.0691 63.1564 77.0827 63.3381V65.4127C77.0814 65.6567 77.0296 65.7049 77.36 65.9599C77.5328 66.0934 77.6368 66.2376 77.7944 66.3767C77.9296 66.4956 78.1622 66.6247 78.0994 66.8522C78.0071 67.1866 77.5951 68.2759 77.4586 68.6879C77.4226 68.7971 77.3851 68.88 77.3518 68.98C77.3146 69.0911 77.2829 69.194 77.2423 69.2961L76.3814 71.7602C76.3426 71.8742 76.3137 71.9337 76.2746 72.0522C76.1111 72.5481 76.168 72.4415 75.7154 72.7433L74.7261 73.4029C74.3837 73.6314 74.5001 73.5636 74.1149 73.6163C73.857 73.6517 73.6294 73.6604 73.3705 73.6965L72.5875 73.7647ZM62.4474 69.5365C62.4798 69.4284 62.5115 69.3209 62.5438 69.2141L62.4038 69.2646L61.5615 69.5787L60.7124 69.8934C60.6064 69.9263 60.3182 70.0138 60.2583 70.0779C60.1668 70.0789 59.7948 70.2259 59.6937 70.2707C59.6071 70.3092 59.1738 70.8123 59.0473 70.9308L58.6057 71.4203L59.0328 71.3378L59.4484 71.2549L60.2915 71.0872C60.4115 71.0716 60.6445 71.0556 60.7279 70.9879C60.8558 70.9962 61.012 70.9551 61.1347 70.9237C61.3106 70.8898 61.7386 70.8342 61.8639 70.7717L62.282 69.8803L62.4474 69.5365ZM55.6329 69.7945C55.6777 69.7176 56.5555 68.665 56.6569 68.5947C56.671 68.5309 56.6554 68.5649 56.7085 68.5085C56.7405 68.4743 56.7384 68.4794 56.7676 68.4408C56.8105 68.3842 56.8484 68.3446 56.8963 68.2988L57.0153 68.1731C57.0322 68.0998 57.1869 67.9534 57.2429 67.8819C57.2834 67.8299 57.2672 67.8188 57.3187 67.8131L57.3627 67.7271C57.4479 67.7669 57.5132 67.8844 57.5639 67.9495C57.6229 68.0252 57.7048 68.112 57.747 68.193L57.753 68.2163C57.8132 68.2581 57.8067 68.256 57.8512 68.3161C57.876 68.3496 57.8999 68.3789 57.9254 68.4099C57.9778 68.4739 58.0521 68.5551 58.078 68.6271C58.1272 68.6465 58.3213 68.9139 58.3699 68.9771C58.4672 69.1031 58.5578 69.2152 58.6568 69.3438L59.2271 70.0719L59.0521 70.2567L58.9931 70.3283L58.6102 70.7257C58.5678 70.8037 58.2822 71.0807 58.2141 71.1515C58.1603 71.2077 58.1425 71.2491 58.0795 71.2902L57.8687 71.1636L57.7615 71.1089L56.9411 70.6353C56.7971 70.5844 56.4447 70.3611 56.2643 70.261C56.1971 70.2237 56.0939 70.1746 56.0525 70.1242C55.9897 70.1157 55.6239 69.9064 55.5719 69.8579C55.5959 69.8061 55.5776 69.8022 55.6329 69.7945ZM55.2177 66.705C55.2816 66.63 55.5427 66.5349 55.6529 66.4994C55.7751 66.4416 56.3834 66.1549 56.4731 66.1545C56.5015 66.128 56.4613 66.1573 56.5147 66.1236L56.7615 66.0193L56.9001 66.5271C56.9273 66.5696 57.0268 66.947 57.0507 67.0297C57.1515 67.3782 57.161 67.2515 56.9856 67.4778L56.405 68.1593C56.3798 68.18 56.3895 68.1725 56.373 68.1816C56.3433 68.2585 56.3588 68.227 56.3001 68.2897C56.2708 68.3208 56.2619 68.3365 56.233 68.3702L56.0805 68.5388C56.0679 68.5561 56.0596 68.5674 56.0458 68.5806C56.0218 68.6036 56.0312 68.5939 56.0145 68.6031C55.9865 68.6763 55.8929 68.7704 55.8341 68.8348C55.7689 68.9061 55.7332 68.989 55.6453 69.0249C55.6327 69.1015 55.658 69.0464 55.6047 69.112L55.2247 69.5302L55.0642 67.7665C55.0539 67.6578 55.0224 67.5188 55.0486 67.4192C55.0455 67.4138 55.043 67.4066 55.0416 67.4022C55.0401 67.3977 55.0368 67.3905 55.0352 67.3849L55.0097 67.1799C55.0023 67.0975 54.9943 67.0151 54.9876 66.9327L54.9794 66.8013C55.0399 66.7558 55.138 66.7086 55.2177 66.705ZM57.1808 65.642C57.1798 65.5549 57.4283 64.9263 57.4862 64.8224C57.4988 64.7744 57.768 64.0227 57.8342 63.9557C57.8335 63.8937 57.9326 63.6174 57.9722 63.576L58.3027 62.7099L58.4106 62.4117C58.4149 62.4154 58.4208 62.4204 58.4237 62.4232L58.6626 62.7609C58.7428 62.8794 58.8136 62.9816 58.8897 63.1022C59.0397 63.3079 59.1767 63.5367 59.3198 63.7487C59.4561 63.9505 59.6307 64.1836 59.7502 64.3963L60.597 65.6595C60.7204 65.8039 60.9136 66.1095 61.0292 66.2968C61.0955 66.404 61.1677 66.5094 61.2387 66.6148C61.3054 66.7141 61.4026 66.8402 61.4504 66.9486L62.2303 68.0896C62.27 68.1548 62.2556 68.1156 62.2646 68.174C62.3408 68.2232 62.4069 68.3521 62.459 68.4294C62.5189 68.5178 62.5799 68.5973 62.6233 68.6908L62.4025 68.7706C62.3214 68.8089 62.1094 68.9001 62.0155 68.9004C61.953 68.9661 61.2476 69.2152 61.1152 69.2465L60.7133 69.4001L59.8694 69.7144L59.6184 69.8109C59.5312 69.7425 59.0192 69.0642 58.8957 68.9153C58.8208 68.8253 58.7248 68.7132 58.6657 68.6194C58.6394 68.5877 58.6063 68.5526 58.581 68.5138L58.4016 68.2913C58.3991 68.2878 58.3788 68.2591 58.3763 68.2552C58.3528 68.2175 58.3735 68.2616 58.3573 68.2177L58.3331 68.1951C58.33 68.1919 58.3247 68.1872 58.3213 68.1839C58.3181 68.1804 58.3137 68.176 58.3105 68.1724L58.2268 68.0661C58.1772 68.0034 58.1474 67.9757 58.1026 67.9168C57.7884 67.5052 57.5943 67.38 57.4931 66.9067C57.4534 66.8236 57.3919 66.6155 57.3933 66.5174C57.3277 66.45 57.2843 66.2001 57.2536 66.0883C57.2271 65.9916 57.0966 65.6996 57.1808 65.642ZM62.6238 66.9322L62.6663 67.3444L62.7294 68.0166C62.6086 67.8378 62.4919 67.6712 62.3708 67.4853L62.0983 67.0831C62.0788 67.0547 62.0688 67.0443 62.0556 67.0202C62.0129 66.9423 62.0387 67.013 62.0303 66.9497C61.9587 66.9021 61.9869 66.9285 61.9546 66.8436C61.917 66.8322 61.7443 66.5458 61.7223 66.508C61.6262 66.3786 61.5235 66.2231 61.4326 66.0829C61.3587 65.9688 61.1995 65.7684 61.1582 65.6492C61.1139 65.6229 60.017 63.9915 59.9388 63.8365C59.9957 63.8997 60.0657 63.9512 60.1261 64.0165L60.6507 64.5671C60.878 64.8161 61.1201 65.0563 61.3467 65.305C61.4106 65.3753 61.4776 65.4229 61.5389 65.492L62.4118 66.4112C62.6147 66.5915 62.5904 66.5762 62.6238 66.9322ZM57.6444 63.132L57.3217 63.9555L57.1583 64.4009L56.832 65.2204C56.7686 65.4686 56.75 65.548 56.5007 65.6267C56.3926 65.6837 55.7607 65.9708 55.6783 65.9718C55.6515 65.9975 55.6884 65.9702 55.6387 66.003L55.135 66.224C55.1445 66.1648 55.3333 65.675 55.3895 65.6226C55.3903 65.5492 55.6493 64.9043 55.6996 64.8407C55.7255 64.7415 55.8332 64.4397 55.8965 64.3835C55.8989 64.2987 56.1631 63.6542 56.2207 63.5568C56.2684 63.3883 56.3712 63.1806 56.4374 63.0097C56.5022 62.8426 56.4625 62.8932 56.6378 62.83C56.7321 62.7959 56.8272 62.7534 56.9215 62.7298C57.0268 62.6774 57.6391 62.4448 57.7244 62.4457C57.7725 62.3977 57.868 62.3687 57.9488 62.3563L57.6444 63.132Z" fill="black"/>
</svg>
