<svg width="120" height="120" viewBox="0 0 120 120" fill="none" xmlns="http://www.w3.org/2000/svg">
<path d="M60 120C93.1371 120 120 93.1371 120 60C120 26.8629 93.1371 0 60 0C26.8629 0 0 26.8629 0 60C0 93.1371 26.8629 120 60 120Z" fill="#D9DADA"/>
<path fill-rule="evenodd" clip-rule="evenodd" d="M97.7566 49.7923V53.068C97.6445 53.0676 97.5309 53.068 97.4158 53.0693C95.6076 53.0889 93.4584 53.2855 90.8114 53.2659C88.1644 53.2462 85.0196 53.0103 81.3636 53.7965C77.7077 54.5827 73.5407 56.391 70.6907 58.9266C70.4483 59.1425 70.2154 59.3635 69.9904 59.5889C69.7143 59.4343 69.3913 59.2621 69.0231 59.0604C67.906 58.4487 66.3747 57.5663 64.5999 56.7124C63.7517 56.3042 62.8478 55.9024 61.9069 55.5399C58.9977 54.4188 55.7349 53.6719 52.3542 52.9643C48.9734 52.2567 45.4747 51.5884 42.094 50.6646C38.7132 49.7408 35.4505 48.5615 32.5218 47.6771C29.5931 46.7926 26.9985 46.2028 24.7775 46.0653C23.854 46.0081 22.9952 46.0292 22.2461 46.1564V40.8502C22.9177 40.795 23.733 40.8469 24.5834 40.8779C26.4637 40.9462 28.5147 40.912 31.318 41.1171C34.1213 41.3222 37.6766 41.7667 42.0182 42.3992C46.3598 43.0316 51.4876 43.852 55.5728 44.2452C59.6581 44.6383 62.7005 44.6041 65.4525 44.4844C68.2045 44.3648 70.6659 44.1596 73.4862 44.04C76.3066 43.9204 79.4858 43.8862 82.7335 43.9204C85.9812 43.9546 89.2972 44.0571 92.1346 44.1768C94.353 44.2703 96.2785 44.3743 97.7566 44.7991V49.7923ZM97.7566 61.6184V71.1126C95.8321 71.3859 93.4063 71.9184 91.0341 72.6658C88.1644 73.5699 85.3733 74.7885 82.2481 76.2233C79.1229 77.6582 75.6636 79.3092 72.558 80.5868C69.4525 81.8644 66.7007 82.7685 64.8727 84.7144C63.4616 86.2167 62.6011 88.3398 62.3996 90.1161H50.0804C50.216 89.2363 50.5778 88.1962 51.1349 86.9052C52.0378 84.8127 53.4529 82.061 56.1261 79.3878C58.7993 76.7147 62.7303 74.1202 65.8162 72.3315C68.9021 70.5429 71.1428 69.5602 74.0518 68.1056C76.9608 66.6512 80.5381 64.7249 83.9581 63.5849C87.3782 62.4449 90.641 62.0911 93.4353 61.8323C95.0608 61.6818 96.5275 61.5635 97.7566 61.6184ZM97.7566 77.628V86.0962C97.7566 88.3071 95.9477 90.1161 93.7369 90.1161H69.8391C70.7864 89.1266 72.3175 87.8281 73.8356 86.5817C75.7029 85.0486 77.5505 83.5941 80.4398 82.1592C83.3292 80.7245 87.2602 79.3092 90.32 78.4051C93.3797 77.5009 95.5682 77.1079 97.18 77.4616C97.3811 77.5057 97.5733 77.5616 97.7566 77.628ZM22.8102 61.7373C22.6326 61.5851 22.4433 61.4257 22.2461 61.2613V51.9055C22.4985 51.884 22.768 51.8658 23.0566 51.8507C24.9435 51.7525 27.1692 54.7159 29.54 56.0177C31.9107 57.3194 34.3486 58.1962 36.1759 58.4942C38.0032 58.7922 42.0897 59.3687 44.0773 59.7718C46.065 60.1749 50.1115 61.6193 51.7036 61.8552C53.2957 62.0911 55.2613 62.445 56.4407 62.8184C60.371 64.063 62.726 64.6958 63.6147 67.2212C60.922 69.7174 57.0696 71.4471 53.6889 73.6091L53.5423 73.7034L53.5406 73.7045L53.5308 73.7108L53.516 73.7204L53.4176 73.7843L53.393 73.8003L53.3733 73.8131L53.3684 73.8163L53.3438 73.8324L53.3194 73.8485L53.2949 73.8646L53.2459 73.8967L53.2215 73.9128L53.2166 73.916L53.197 73.929L53.0995 73.9937L53.0751 74.0098L53.0606 74.0196L53.0509 74.0261L52.9295 74.1074L52.9053 74.1237L52.9053 74.1238L52.8811 74.1401L52.8569 74.1565L52.8327 74.1728L52.7844 74.2056L52.7603 74.222L52.7508 74.2284L52.7363 74.2384L52.6161 74.3207L52.597 74.3338L52.5921 74.3372L52.5682 74.3538L52.4511 74.4348L52.4486 74.4366L52.4439 74.4398L52.4247 74.4532L52.3295 74.5198L52.3057 74.5364L52.2917 74.5463L52.282 74.5532L52.2583 74.5699L52.2346 74.5866L52.1872 74.6201L52.1636 74.6368L52.1401 74.6535L52.14 74.6537H52.1399C51.3079 74.6875 50.205 74.4933 48.7488 74.2087C46.8881 73.845 44.4508 73.334 41.6597 72.6067C38.8686 71.8795 35.7238 70.9361 33.5224 69.9729C31.3209 69.0098 30.063 68.0271 28.8641 67.0639C27.665 66.1008 26.5251 65.1574 25.6209 64.3319C24.7168 63.5063 24.0484 62.7987 22.8102 61.7373ZM22.2461 73.8018C23.3608 74.4793 24.6172 74.9781 25.8175 75.3781C27.8224 76.0465 29.6699 76.4395 31.5175 76.9702C33.3651 77.5009 35.2127 78.1693 36.9228 78.7392C38.6327 79.3092 40.2052 79.781 41.7939 79.9107C43.3825 80.0404 44.9872 79.8281 46.1272 79.6512C46.2758 79.6282 46.4166 79.6058 46.5507 79.5833L46.592 79.616C46.1447 80.1313 45.7249 80.656 45.3353 81.189C43.4973 83.7032 42.3297 86.3987 41.7768 88.3607C41.6788 88.3464 41.5794 88.331 41.478 88.3148C40.2278 88.1142 38.703 87.7804 36.84 87.4562C34.9768 87.132 32.7755 86.8176 30.7903 86.1886C28.8051 85.5596 27.0361 84.6162 25.6481 83.9872C24.2601 83.3583 23.2531 83.0438 22.29 83.0044L22.2461 83.0029V73.8018Z" fill="#FEFEFE"/>
<path fill-rule="evenodd" clip-rule="evenodd" d="M41.7247 88.5507C41.7393 88.4955 41.7545 88.4397 41.7705 88.3835C41.7547 88.4397 41.7395 88.4956 41.7247 88.5507ZM26.2659 36.3835H93.7369C95.9477 36.3835 97.7566 38.1925 97.7566 40.4034V44.7992C96.2785 44.3744 94.353 44.2704 92.1346 44.1769C89.2972 44.0572 85.9812 43.9547 82.7335 43.9205C79.4858 43.8863 76.3066 43.9205 73.4862 44.0401C70.6659 44.1597 68.2045 44.3649 65.4525 44.4845C62.7005 44.6042 59.6581 44.6384 55.5728 44.2453C51.4876 43.8521 46.3598 43.0317 42.0182 42.3993C37.6766 41.7668 34.1213 41.3223 31.318 41.1173C28.5147 40.9121 26.4637 40.9463 24.5834 40.878C23.733 40.847 22.9177 40.7951 22.2461 40.8503V40.4034C22.2461 38.1925 24.055 36.3835 26.2659 36.3835ZM97.7566 77.6281C97.5733 77.5617 97.3811 77.5059 97.18 77.4617C95.5682 77.108 93.3797 77.501 90.32 78.4052C87.2602 79.3093 83.3292 80.7246 80.4398 82.1593C77.5505 83.5942 75.7029 85.0487 73.8356 86.5818C72.3175 87.8282 70.7864 89.1267 69.8391 90.1162H62.3996C62.6011 88.3399 63.4616 86.2168 64.8727 84.7145C66.7007 82.7687 69.4525 81.8645 72.558 80.5869C75.6636 79.3093 79.1229 77.6583 82.2481 76.2234C85.3733 74.7886 88.1644 73.57 91.0341 72.6659C93.4063 71.9185 95.8321 71.386 97.7566 71.1128V77.6281ZM41.7768 88.3609C41.6788 88.3466 41.5794 88.3311 41.478 88.3149C40.2278 88.1144 38.703 87.7805 36.84 87.4563C34.9768 87.1322 32.7755 86.8177 30.7903 86.1887C28.8051 85.5597 27.0361 84.6163 25.6481 83.9873C24.2601 83.3584 23.2531 83.0439 22.29 83.0046L22.2461 83.003V86.0963C22.2461 88.3072 24.055 90.1162 26.2659 90.1162H41.4227H50.0803C50.2158 89.2365 50.5778 88.1965 51.1349 86.9053C52.0378 84.8129 53.4529 82.0611 56.1261 79.388C58.7993 76.7148 62.7303 74.1203 65.8162 72.3317C68.9021 70.5431 71.1428 69.5603 74.0518 68.1057C76.9608 66.6513 80.5381 64.725 83.9581 63.585C87.3782 62.445 90.641 62.0912 93.4353 61.8324C95.0608 61.6819 96.5275 61.5636 97.7566 61.6185V53.0681C97.6445 53.0677 97.5309 53.0681 97.4158 53.0694C95.6076 53.0891 93.4584 53.2856 90.8114 53.266C88.1644 53.2463 85.0196 53.0104 81.3636 53.7966C77.7077 54.5828 73.5407 56.3911 70.6907 58.9267C70.4482 59.1425 70.2154 59.3637 69.9904 59.589C69.7143 59.4344 69.3913 59.2622 69.0231 59.0606C67.3721 58.1564 64.8163 56.6611 61.9069 55.54C58.9977 54.4189 55.7349 53.672 52.3542 52.9644C48.9734 52.2569 45.4747 51.5885 42.094 50.6648C38.7132 49.7409 35.4505 48.5616 32.5218 47.6772C29.5931 46.7927 26.9985 46.2029 24.7775 46.0654C23.854 46.0082 22.9952 46.0293 22.2461 46.1565V51.9056C22.4985 51.8841 22.768 51.8659 23.0566 51.8509C24.9435 51.7526 27.1692 54.716 29.54 56.0178C31.9107 57.3196 34.3486 58.1963 36.1759 58.4943C38.0032 58.7924 42.0897 59.3688 44.0773 59.7719C46.065 60.175 50.1115 61.6194 51.7036 61.8553C53.2957 62.0912 55.2613 62.4451 56.4407 62.8185C60.2173 64.0145 62.5391 64.6458 63.5035 66.9339C63.5616 66.937 63.619 66.9388 63.6758 66.9394C63.7571 66.9403 63.837 66.9384 63.9157 66.9343C63.8169 67.0311 63.7167 67.1267 63.6147 67.2213C60.922 69.7175 57.0696 71.4472 53.6889 73.6093C53.1606 73.9472 52.6437 74.2956 52.1399 74.6538C51.3079 74.6876 50.205 74.4934 48.7488 74.2088C46.8881 73.8451 44.4508 73.3341 41.6597 72.6069C38.8686 71.8796 35.7238 70.9362 33.5224 69.973C31.3209 69.01 30.063 68.0272 28.8641 67.064C27.665 66.1009 26.5251 65.1575 25.6209 64.332C24.7168 63.5064 24.0484 62.7988 22.8102 61.7374L22.7906 61.7207L22.771 61.7039L22.7517 61.6874L22.7513 61.6871L22.7315 61.6702L22.7117 61.6533L22.6925 61.6369L22.6917 61.6362L22.6716 61.6192L22.6515 61.6021L22.6324 61.5859L22.6313 61.585L22.611 61.5677L22.5906 61.5505L22.5716 61.5345L22.5702 61.5332L22.5496 61.5158L22.5289 61.4984L22.5101 61.4825L22.5083 61.481L22.4874 61.4635L22.4665 61.4459L22.4479 61.4302L22.4456 61.4283L22.4247 61.4107L22.4035 61.393L22.385 61.3775L22.3824 61.3753L22.3611 61.3575L22.3398 61.3397L22.3215 61.3244L22.3185 61.3218L22.2755 61.286L22.2574 61.2709L22.254 61.268L22.2461 61.2614V73.802C23.3608 74.4794 24.6172 74.9782 25.8175 75.3782C27.8224 76.0466 29.6699 76.4396 31.5175 76.9703C33.3651 77.501 35.2127 78.1694 36.9228 78.7393C38.6327 79.3093 40.2052 79.7811 41.7939 79.9108C43.3825 80.0406 44.9872 79.8282 46.1272 79.6514C46.3064 79.6235 46.4741 79.5966 46.6327 79.5695C46.1701 80.0997 45.7367 80.6401 45.3353 81.1891C43.4975 83.7031 42.33 86.3989 41.7768 88.3609ZM64.5407 66.2893C64.6047 66.2199 64.6682 66.1498 64.7311 66.0796C64.6681 66.1498 64.6047 66.2199 64.5407 66.2893ZM65.4145 65.2789C65.6938 64.9374 65.9646 64.5899 66.2318 64.239C65.9647 64.5899 65.6938 64.9374 65.4145 65.2789Z" fill="#2B2A29"/>
<path d="M57.7614 60.172L57.9445 59.0515L56.8248 58.8692C56.763 59.2418 56.7024 59.615 56.6419 59.9879L57.7614 60.172ZM66.2573 35.677H67.8938C67.8972 35.3973 67.9611 35.0503 68.3479 35.1471C68.6842 35.2314 68.6189 35.6407 68.6202 35.9012C68.6239 36.6329 67.6531 36.4023 67.0756 36.4023C66.5077 36.4023 65.5242 36.6307 65.531 35.9197C65.5337 35.6384 65.4564 35.2426 65.7865 35.1491C66.1585 35.0437 66.2573 35.3857 66.2573 35.677ZM58.8554 35.677H61.6683C61.6093 35.5891 60.2822 34.3962 60.2642 34.3948C60.2409 34.3932 58.943 35.5445 58.8554 35.677ZM59.7343 33.8969L59.0047 33.2401L58.0709 35.4152L59.7343 33.8969ZM62.4633 35.4353L61.5764 33.1797L60.7948 33.8974L62.4633 35.4353ZM60.3246 30.1721L59.301 32.5454C59.3722 32.615 60.209 33.3753 60.2219 33.3816C60.3556 33.4465 61.003 32.7299 61.1386 32.6039C61.3523 32.4054 61.217 32.3316 61.0977 32.0399C60.9738 31.7373 60.3856 30.2375 60.3246 30.1721ZM57.7767 34.2637L59.8747 29.4081L59.8688 29.4293L59.2236 29.1198L57.7767 34.2637ZM62.8167 34.3566L61.4295 28.9779L61.4343 29.0041L60.7857 29.3853L60.7741 29.3683L62.8167 34.3566ZM58.688 27.2337L53.5289 30.7004L53.8086 31.1197L58.6287 28.1951L58.5936 28.1982L58.688 27.2337ZM60.3246 26.1178L61.3669 26.4598L63.6721 25.0763C63.6415 25.0301 62.9487 24.4332 62.9037 24.4135C62.8201 24.3769 62.1634 24.8671 62.0392 24.95C61.7202 25.1625 60.5157 25.9162 60.3246 26.1178ZM67.4661 35.305H66.7408L66.6785 27.6429L64.2526 25.5553L61.7783 27.0785C61.9675 27.5761 61.8485 27.7952 61.9612 28.2011C62.2435 29.2182 62.5185 30.3558 62.7909 31.3882C62.9775 32.0957 63.1588 32.8047 63.3448 33.5122C63.5131 34.1521 63.7971 35.0317 63.8953 35.6585C64.2647 35.6585 65.3092 35.4905 65.2416 36.0565C65.2034 36.3767 64.744 36.4152 64.3299 36.4054C64.3299 36.7745 64.3298 37.1436 64.3336 37.5127L63.1992 37.5235C63.1953 37.1436 63.1953 36.7636 63.1953 36.3837H61.9682L61.9695 37.5162L60.835 37.5201L60.8336 36.3837H59.7987L59.7983 37.5186L58.6639 37.5177L58.6642 36.3837H57.4863C57.4863 36.7641 57.4844 37.144 57.4821 37.5244L56.3477 37.5119C56.3499 37.1409 56.3517 36.7705 56.3518 36.3995C55.9055 36.4206 55.3206 36.4196 55.2773 36.0565C55.2096 35.4886 56.2704 35.6585 56.6422 35.6585L58.4886 29.1136C57.5769 29.5764 56.4199 30.362 55.5293 30.919C55.0425 31.2237 54.5457 31.5279 54.0536 31.8238C53.6462 32.0688 53.7223 31.7865 53.7223 32.6828C53.7223 33.0796 53.7223 33.4762 53.7223 33.873C54.9939 33.873 54.7638 33.945 54.7638 35.1935C54.7638 36.4534 54.5774 36.1605 53.3505 36.1605C52.1401 36.1605 51.9369 36.4528 51.9369 35.1935C51.9369 33.9345 51.7166 33.873 52.9971 33.873C52.9971 33.3745 53.0715 31.4301 52.9233 31.104C52.7615 30.7477 52.511 30.5234 52.9544 30.2076C53.2104 30.0255 53.5503 29.821 53.8226 29.6401C54.9642 28.8817 56.0967 28.107 57.2341 27.342C58.3681 26.5793 59.5002 25.8141 60.6336 25.0505C61.0585 24.7642 62.017 24.2013 62.3483 23.915C62.7718 23.549 62.1184 22.1326 62.2759 21.5745C62.3661 21.2552 62.7716 21.1313 63.023 20.9158C63.3594 20.627 63.5841 20.5379 63.9971 20.7616C65.8619 21.7721 67.4689 23.0771 68.129 25.1944C68.2589 25.6107 68.3303 25.9347 68.3656 26.3714C68.4094 26.9123 68.514 27.1203 67.9995 27.3764C67.3725 27.6888 67.4103 27.527 67.4103 28.2194C67.4103 28.6969 67.4104 29.1745 67.4096 29.6521C67.4067 31.5279 67.4661 33.4268 67.4661 35.305ZM92.0289 74.1277L91.1772 73.3789L90.4277 74.2305L91.2801 74.9799L92.0289 74.1277ZM90.3265 72.6294C90.0433 72.3795 89.7613 72.1276 89.4773 71.8788L88.7251 72.728C89.0075 72.9798 89.2922 73.2296 89.5759 73.48L90.3265 72.6294ZM88.63 71.1265L87.7848 70.3722L87.0281 71.2175L87.8757 71.9739L88.63 71.1265ZM86.9424 69.6154C86.6618 69.3629 86.3822 69.1094 86.1028 68.8557L85.3398 69.6952C85.6204 69.9498 85.901 70.2045 86.1826 70.4579L86.9424 69.6154ZM85.2667 68.0926C84.9886 67.8377 84.7109 67.5824 84.4342 67.3259L83.6634 68.1583C83.9423 68.4151 84.2205 68.6726 84.5 68.9289L85.2667 68.0926ZM83.6059 66.5552C83.3304 66.2975 83.0559 66.039 82.7817 65.7799L82.002 66.604C82.2776 66.8645 82.5536 67.1244 82.8305 67.3835L83.6059 66.5552ZM81.9627 65.0002C81.6903 64.7396 81.4193 64.4776 81.1484 64.2155L80.3582 65.0296C80.6309 65.2934 80.9036 65.5571 81.1777 65.8193L81.9627 65.0002ZM80.3393 63.4254C80.0707 63.1612 79.8025 62.8965 79.5362 62.6301L78.7348 63.4331C79.0031 63.7015 79.2734 63.9683 79.5441 64.2345L80.3393 63.4254ZM78.7386 61.829C78.4736 61.5613 78.21 61.292 77.9472 61.0221L77.1342 61.8134C77.399 62.0854 77.6646 62.3566 77.9316 62.6264L78.7386 61.829ZM77.1622 60.2094C76.9016 59.9376 76.6415 59.6649 76.3839 59.3905L75.558 60.1684C75.8188 60.4445 76.0801 60.7201 76.343 60.9942L77.1622 60.2094ZM75.6124 58.565C75.3569 58.2885 75.1025 58.0114 74.8487 57.7333L74.0095 58.4966C74.2653 58.7776 74.5224 59.0571 74.7803 59.3362L75.6124 58.565ZM74.0933 56.8947C73.843 56.6142 73.5973 56.3285 73.3466 56.049L72.4912 56.7941C72.7422 57.0799 72.993 57.3656 73.2462 57.6494L74.0933 56.8947ZM72.6092 55.1948C72.365 54.9089 72.1235 54.6211 71.8824 54.3327L71.0103 55.0582C71.2539 55.3504 71.4988 55.6416 71.7459 55.9309L72.6092 55.1948ZM71.1677 53.4616C70.9315 53.1703 70.6977 52.8765 70.4663 52.5812L69.5733 53.281C69.8087 53.5807 70.0458 53.8792 70.2857 54.1752L71.1677 53.4616ZM69.7801 51.6906C69.5543 51.3918 69.3313 51.0911 69.1111 50.7881L68.1927 51.454C68.417 51.7631 68.6445 52.0696 68.8749 52.3743L69.7801 51.6906ZM68.4631 49.8736C68.2514 49.5664 68.0426 49.2573 67.8392 48.9444L66.8879 49.5627C67.0965 49.8841 67.3114 50.2018 67.5288 50.5172L68.4631 49.8736ZM67.2454 48.0002C67.0532 47.683 66.868 47.3625 66.6886 47.038L65.6946 47.5847C65.8815 47.9225 66.0739 48.256 66.274 48.5863L67.2454 48.0002ZM66.1791 46.0561C66.0195 45.7285 65.8824 45.3707 65.7237 45.0533L64.6766 45.4898C64.8285 45.8489 64.9884 46.2022 65.1591 46.5528L66.1791 46.0561ZM65.3275 44.0257C65.2069 43.6791 65.0969 43.3321 64.998 42.9787L64.9983 42.98L63.9049 43.2825C64.0153 43.6612 64.127 44.0275 64.2568 44.4005L65.3275 44.0257ZM64.7385 41.9136C64.6634 41.5539 64.6027 41.1955 64.5492 40.832L63.4261 40.9917C63.4811 41.3779 63.548 41.7628 63.6277 42.1447L64.7385 41.9136ZM64.4261 39.7369C64.3962 39.3672 64.3746 39.0006 64.3593 38.6299L63.2257 38.6747C63.2417 39.0622 63.2642 39.4457 63.2956 39.8323L64.4261 39.7369ZM71.3485 64.6936C71.1654 64.3641 70.9731 64.0368 70.7866 63.7088L69.8008 64.2703C69.9875 64.5987 70.18 64.9263 70.3633 65.2562L71.3485 64.6936ZM70.2262 62.7235L69.6687 61.7376L68.6803 62.2942L69.2395 63.2835L70.2262 62.7235ZM69.1152 60.7501C68.9315 60.4206 68.7487 60.0908 68.5665 59.7604L67.5728 60.3078C67.7561 60.6397 67.9397 60.9713 68.1242 61.3025L69.1152 60.7501ZM68.0245 58.7686C67.8455 58.4372 67.6665 58.1058 67.4901 57.7729L66.488 58.305C66.6666 58.6401 66.8463 58.9744 67.0268 59.3085L68.0245 58.7686ZM66.9649 56.7736C66.7921 56.4395 66.621 56.1049 66.4508 55.7695L65.4378 56.2802C65.6089 56.62 65.7831 56.958 65.9578 57.2959L66.9649 56.7736ZM65.9498 54.7603C65.7856 54.4229 65.6233 54.0846 65.4642 53.7448L64.4367 54.2257C64.5981 54.571 64.7631 54.9145 64.9299 55.2571L65.9498 54.7603ZM64.9967 52.7228C64.8467 52.38 64.6956 52.039 64.5511 51.6937L63.5045 52.1314C63.6512 52.4849 63.807 52.8339 63.9604 53.1844L64.9967 52.7228ZM64.1304 50.6552C63.9973 50.3064 63.8685 49.96 63.7408 49.6092L62.671 49.9868C62.8 50.3498 62.936 50.7072 63.0733 51.067L64.1304 50.6552ZM63.3874 48.5531C63.2766 48.198 63.1726 47.8431 63.0739 47.4845L61.9794 47.7828C62.081 48.1546 62.1896 48.5233 62.3045 48.8912L63.3874 48.5531ZM62.8024 46.4063C62.7191 46.0447 62.6424 45.6821 62.5728 45.3176L61.4582 45.5294C61.5313 45.9083 61.6101 46.2848 61.6968 46.6608L62.8024 46.4063ZM62.3849 44.2209C62.3297 43.853 62.2805 43.4857 62.2373 43.1162L61.1103 43.2458C61.1542 43.6282 61.2059 44.0094 61.2631 44.39L62.3849 44.2209ZM62.1274 42.0058C62.0964 41.6338 62.0723 41.2622 62.0511 40.8896L60.9183 40.9509C60.9392 41.3335 60.9648 41.7164 60.9967 42.0984L62.1274 42.0058ZM62.0036 39.7696C61.9925 39.3944 61.9846 39.0198 61.9788 38.6444L60.8444 38.6608C60.8502 39.0421 60.8584 39.4228 60.8697 39.804L62.0036 39.7696ZM33.0334 75.1108L33.8283 74.3003L33.0176 73.5068L32.2238 74.3162L33.0334 75.1108ZM34.6221 73.4884C34.8868 73.2175 35.1508 72.9458 35.4144 72.6739L34.5997 71.8843C34.3372 72.1557 34.0737 72.4263 33.8099 72.6963L34.6221 73.4884ZM36.204 71.8564C36.4672 71.5837 36.7293 71.3096 36.9907 71.035L36.1692 70.2526C35.9093 70.5259 35.6484 70.7985 35.3865 71.0698L36.204 71.8564ZM37.7733 70.2094C38.0329 69.9336 38.29 69.6529 38.5513 69.3792L37.7211 68.606C37.4624 68.88 37.2059 69.1569 36.9475 69.4315L37.7733 70.2094ZM39.3242 68.5439C39.5811 68.2645 39.8369 67.9842 40.0918 67.703L39.2512 66.9412C38.9983 67.2205 38.7442 67.4987 38.4892 67.776L39.3242 68.5439ZM40.8536 66.8566C41.1064 66.5735 41.3586 66.2898 41.609 66.0047L40.7573 65.2553C40.508 65.5379 40.2583 65.82 40.0073 66.101L40.8536 66.8566ZM42.3581 65.1471C42.607 64.8604 42.8544 64.5723 43.1009 64.2837L42.2377 63.5474C41.9935 63.834 41.7476 64.1197 41.5008 64.404L42.3581 65.1471ZM43.8369 63.4146C44.0813 63.1243 44.3239 62.8325 44.5661 62.5403L43.6922 61.8169C43.4518 62.1071 43.2108 62.3968 42.9681 62.6851L43.8369 63.4146ZM45.2891 61.6601C45.5289 61.366 45.7652 61.0687 46.0052 60.7748L45.1202 60.0649C44.8857 60.3594 44.6474 60.652 44.4094 60.9438L45.2891 61.6601ZM46.7145 59.884C46.9499 59.586 47.1847 59.2873 47.4171 58.987L46.5209 58.2916C46.29 58.5889 46.0576 58.8852 45.8243 59.1807L46.7145 59.884ZM48.1121 58.0849C48.3416 57.7819 48.5717 57.4798 48.7998 57.1757L47.8917 56.4957C47.6657 56.7969 47.4378 57.0962 47.2105 57.3962L48.1121 58.0849ZM49.4791 56.2604C49.7042 55.9542 49.9275 55.6467 50.1495 55.3382L49.2283 54.676C49.0086 54.9815 48.7875 55.286 48.5647 55.5891L49.4791 56.2604ZM50.8105 54.4079C51.0291 54.0965 51.2457 53.7839 51.4605 53.4699L50.5239 52.8298C50.3114 53.14 50.0976 53.449 49.8816 53.7567L50.8105 54.4079ZM52.0987 52.5224C52.3085 52.204 52.5183 51.8858 52.7234 51.5643L51.7678 50.9528C51.5653 51.2689 51.3597 51.5821 51.1532 51.8954L52.0987 52.5224ZM53.3325 50.5945C53.5326 50.2689 53.7297 49.9411 53.9228 49.6112L52.9431 49.0393C52.754 49.362 52.5614 49.6825 52.3654 50.0012L53.3325 50.5945ZM54.4907 48.6121C54.6759 48.2746 54.8551 47.9359 55.0305 47.5931L54.0186 47.08C53.8505 47.4117 53.6753 47.7398 53.4963 48.0659L54.4907 48.6121ZM55.5341 46.5508C55.6957 46.1988 55.8478 45.8433 55.9933 45.4842L54.9402 45.0623C54.802 45.4045 54.6562 45.7441 54.5022 46.0794L55.5341 46.5508ZM56.4001 44.394C56.5258 44.0237 56.6407 43.6556 56.7474 43.2794L55.6543 42.9757C55.5554 43.3299 55.4448 43.6787 55.3266 44.0269L56.4001 44.394ZM57.0278 42.145C57.111 41.7581 57.1689 41.3816 57.2373 40.9938L56.1152 40.827C56.0607 41.1889 55.9954 41.5499 55.9184 41.9077L57.0278 42.145ZM57.3764 39.835C57.4101 39.4485 57.4363 39.0639 57.4527 38.6762L56.3193 38.6283C56.3022 38.9985 56.2787 39.364 56.2465 39.7332L57.3764 39.835ZM58.1259 57.9304C58.185 57.5568 58.2424 57.1811 58.3045 56.808L57.1838 56.6319C57.1218 57.0036 57.0647 57.3779 57.0058 57.7503L58.1259 57.9304ZM58.479 55.6846C58.5354 55.3097 58.5942 54.9348 58.6482 54.5595L57.5258 54.3946C57.4667 54.7661 57.4136 55.1409 57.3576 55.5132L58.479 55.6846ZM58.8106 53.4332C58.8472 53.0665 58.9152 52.6734 58.9647 52.3046L57.8401 52.1557C57.791 52.5216 57.7234 52.9116 57.6871 53.2753L58.8106 53.4332ZM59.1091 51.1739C59.1551 50.7962 59.1992 50.4187 59.242 50.0407L58.1145 49.9153C58.0722 50.289 58.0285 50.6624 57.983 51.0357L59.1091 51.1739ZM59.3614 48.9056C59.3949 48.5262 59.4331 48.1472 59.4656 47.7674L58.3351 47.6727C58.3031 48.0469 58.2655 48.4202 58.2325 48.794L59.3614 48.9056ZM59.5529 46.628C59.5792 46.2482 59.6029 45.8684 59.6243 45.4883L58.4915 45.425C58.4704 45.8001 58.4471 46.1749 58.4211 46.5497L59.5529 46.628ZM59.6807 44.348C59.6973 43.968 59.7105 43.5881 59.7238 43.208L58.5899 43.1717C58.5771 43.5476 58.5637 43.9233 58.5473 44.2991L59.6807 44.348ZM59.7551 42.0685C59.7631 41.6889 59.7699 41.3094 59.7763 40.9297L58.6419 40.9133C58.6355 41.29 58.6288 41.6665 58.6209 42.0431L59.7551 42.0685ZM59.7892 39.7917L59.7959 38.6552L58.6615 38.65C58.6585 39.0275 58.6578 39.4051 58.6548 39.7825L59.7892 39.7917Z" fill="#42ADE2"/>
</svg>
