<svg width="120" height="120" viewBox="0 0 120 120" fill="none" xmlns="http://www.w3.org/2000/svg">
<path d="M60 120C93.1371 120 120 93.1371 120 60C120 26.8629 93.1371 0 60 0C26.8629 0 0 26.8629 0 60C0 93.1371 26.8629 120 60 120Z" fill="#D9DADA"/>
<path fill-rule="evenodd" clip-rule="evenodd" d="M41.5797 82.075C42.145 82.5071 42.4428 82.8494 43.3836 83.1453C43.1829 80.1284 43.2934 76.7867 43.3234 73.7219C43.3541 70.5872 43.425 67.4423 43.4546 64.3051L47.7641 65.8087C49.367 66.2147 50.9547 66.5682 52.6734 66.8064L52.6717 85.5102C58.5777 85.8236 60.7483 86.2559 66.8831 85.5648C69.7611 85.2405 74.7418 84.3441 77.2856 82.8254C77.7128 82.5704 78.0897 82.2762 78.4335 82.0763C77.9251 84.1307 72.7286 85.6227 70.7383 86.0514C67.3036 86.7913 63.6879 87.113 60.0462 87.1208C56.4052 87.1284 52.7488 86.7947 49.3419 86.0624C46.5513 85.4626 42.3755 84.1568 41.5797 82.075ZM41.5001 59.9686C42.1883 60.4763 42.5778 60.6849 43.4326 61.1316L43.4589 41.772C44.9975 42.2995 45.472 42.7259 47.7361 43.3432C49.3019 43.7702 50.9824 44.0797 52.6663 44.338L52.6727 63.4529C59.435 64.0481 66.6294 64.1047 73.2249 62.3016C75.4359 61.6971 76.6183 61.1763 78.3937 59.967C77.725 61.9907 73.3859 63.4012 70.6855 63.9721C67.2075 64.7072 63.6655 65.0405 59.9505 65.0453C56.2193 65.0502 52.725 64.6936 49.2182 63.9693C47.622 63.6396 46.1666 63.174 44.7505 62.5967C43.4952 62.0851 42.0235 61.223 41.5001 59.9686ZM59.0667 37.3887C60.2645 37.2379 61.7072 37.3297 62.6738 37.875C64.8222 39.0869 59.4747 40.3307 57.3163 39.0261C55.881 38.1585 58.0877 37.512 59.0667 37.3887ZM41.5724 37.259C42.0956 37.5426 42.5907 37.9783 43.2862 38.3105C50.2091 41.6166 62.8724 41.6151 70.239 40.2566C71.7834 39.9717 73.2506 39.6047 74.6667 39.1394C77.3169 38.2683 76.9985 38.05 78.4375 37.2683C77.8372 39.349 72.7864 40.801 70.7317 41.2379C63.8714 42.6966 56.213 42.637 49.3509 41.2495C47.1651 40.8076 44.6957 40.0352 42.9472 38.8407C42.2539 38.3671 41.9118 37.928 41.5724 37.259ZM43.1392 35.019C43.6825 34.7199 44.1023 34.4042 44.7497 34.1133C51.2086 31.2114 62.578 31.1312 69.3839 32.4069C70.74 32.6611 72.2292 32.9849 73.4559 33.4105C74.8449 33.8924 75.7928 34.3092 76.8702 35.0194C76.3696 34.8688 75.7037 34.5364 75.125 34.3309C67.4978 31.6211 54.3005 31.5787 46.6924 33.7576C45.4302 34.119 43.4342 34.9412 43.1392 35.019ZM39.6437 37.156C39.6243 39.2308 40.7261 39.3297 40.7875 40.122L40.7837 46.8244C40.7837 47.169 40.9244 57.0926 40.6767 57.4614C40.6415 57.6446 40.6827 57.5354 40.5701 57.6957L40.0529 58.3125C39.7729 59.163 39.4123 59.7065 39.7761 60.7722C40.2313 62.106 40.77 61.8451 40.7887 62.7082C40.8844 67.1386 40.7808 72.6668 40.7808 77.2666L40.7754 79.845C40.7274 80.1038 40.785 79.9806 40.6604 80.1227C40.5555 80.6422 40.2929 80.3624 39.7985 81.5306C39.4653 82.3178 39.6822 82.7259 39.6286 83.4688L40.0486 84.2232C41.5601 86.4303 44.4297 87.5859 47.649 88.5311L51.3353 89.3494C51.8513 89.409 53.3664 89.5119 53.6931 89.7478C54.1125 89.6924 54.554 89.7645 54.973 89.8195L57.1687 89.9662L57.9462 90.003L61.0988 90.0247L62.924 89.9568L64.9279 89.8178C65.3647 89.7627 65.85 89.6702 66.2752 89.7413C66.6556 89.492 68.0838 89.3968 68.6556 89.3224L72.2837 88.5914C72.3943 88.5046 72.2323 88.5861 72.4849 88.471L74.5968 87.8C75.0418 87.4652 79.2669 86.1822 80.1486 83.5844C80.8578 81.4948 79.3012 80.7408 79.2312 80.0327L79.227 62.7115C79.2488 61.7536 81.3876 60.603 79.8165 58.1647C79.5791 57.7963 79.3869 57.7119 79.3266 57.4272C79.3137 57.4092 79.3008 57.355 79.298 57.3671L79.2288 40.5006C79.2185 39.2647 79.8921 39.6026 80.2848 38.1509C80.5616 37.1274 80.1443 36.0736 79.6572 35.444C79.0372 34.6426 78.0755 34.0771 77.8716 33.758C77.5768 33.717 77.7344 33.7543 77.42 33.5709C77.3245 33.5152 77.1958 33.4352 77.0578 33.3557C76.8199 33.2186 76.5383 33.0917 76.359 32.956C75.7035 32.742 75.0891 32.4227 74.4051 32.1786C73.8288 31.9729 73 31.7607 72.492 31.5389L70.7675 31.1014C69.3881 30.8772 68.0663 30.5869 66.6024 30.4026L62.8226 30.0817C62.7291 30.074 62.6292 30.0641 62.5372 30.0481L62.2747 29.9758H57.8065L54.7586 30.2505C53.8113 30.3432 52.9093 30.4526 51.9638 30.606C48.1536 31.2241 40.2503 32.9992 39.6437 37.156Z" fill="#42ADE2"/>
<path fill-rule="evenodd" clip-rule="evenodd" d="M59.0663 37.3886C60.264 37.2378 61.7068 37.3296 62.6733 37.8749C64.8218 39.0868 59.4742 40.3306 57.3159 39.026C55.8805 38.1584 58.0873 37.5119 59.0663 37.3886ZM41.5792 82.0749C42.1445 82.507 42.4423 82.8493 43.3831 83.1452C43.1824 80.1283 43.293 76.7866 43.323 73.7218C43.3537 70.5871 43.4245 67.4422 43.4541 64.305L47.7636 65.8086C49.3666 66.2146 50.9542 66.5681 52.6729 66.8063L52.6712 85.5101C58.5772 85.8235 60.7479 86.2557 66.8827 85.5647C69.7606 85.2404 74.7413 84.344 77.2852 82.8253C77.7123 82.5703 78.0892 82.2761 78.433 82.0762C77.9247 84.1306 72.7281 85.6226 70.7378 86.0513C67.3031 86.7912 63.6874 87.1129 60.0458 87.1207C56.4047 87.1283 52.7483 86.7946 49.3414 86.0623C46.5508 85.4625 42.375 84.1567 41.5792 82.0749ZM41.4996 59.9685C42.1878 60.4762 42.5774 60.6848 43.4321 61.1315L43.4584 41.7719C44.9971 42.2994 45.4715 42.7258 47.7356 43.3431C49.3015 43.7701 50.9819 44.0796 52.6658 44.3379L52.6723 63.4528C59.4345 64.048 66.6289 64.1046 73.2245 62.3015C75.4355 61.697 76.6178 61.1762 78.3932 59.9669C77.7245 61.9906 73.3854 63.4011 70.685 63.972C67.2071 64.7071 63.665 65.0404 59.95 65.0452C56.2188 65.0501 52.7245 64.6935 49.2178 63.9692C47.6216 63.6395 46.1661 63.1739 44.75 62.5966C43.4948 62.085 42.023 61.2229 41.4996 59.9685ZM41.5719 37.2589C42.0951 37.5425 42.5902 37.9782 43.2857 38.3104C50.2086 41.6165 62.872 41.615 70.2385 40.2565C71.783 39.9716 73.2501 39.6046 74.6662 39.1393C77.3165 38.2682 76.998 38.05 78.437 37.2682C77.8367 39.3489 72.786 40.8009 70.7312 41.2378C63.871 42.6965 56.2126 42.6369 49.3504 41.2494C47.1647 40.8075 44.6953 40.0351 42.9468 38.8406C42.2534 38.367 41.9114 37.9279 41.5719 37.2589ZM43.1388 35.0189C43.682 34.7198 44.1019 34.4041 44.7492 34.1132C51.2082 31.2113 62.5776 31.1311 69.3834 32.4068C70.7396 32.661 72.2288 32.9848 73.4555 33.4104C74.8444 33.8923 75.7924 34.3091 76.8698 35.0193C76.3691 34.8687 75.7032 34.5364 75.1245 34.3308C67.4973 31.621 54.3 31.5786 46.6919 33.7575C45.4298 34.1189 43.4337 34.9411 43.1388 35.0189Z" fill="#FEFEFE"/>
<path fill-rule="evenodd" clip-rule="evenodd" d="M79.1708 76.1762C78.8464 77.6501 79.3004 80.4512 78.7904 82.6106C78.2805 84.7702 74.3341 88.7103 81.4631 88.4548C88.5921 88.1992 83.3246 83.3679 81.5189 81.7425C79.7131 80.1171 79.7184 77.7046 79.1708 76.1762ZM78.4368 37.2679C79.3139 38.6141 78.1328 51.6773 78.1328 51.6773C78.1328 51.6773 76.8226 56.384 80.8072 56.2769C84.7917 56.1697 84.6397 51.0297 82.7531 48.9014C80.8665 46.7732 80.3283 37.246 78.4368 37.2679ZM78.4289 59.7066C78.977 60.5477 78.2 67.8944 77.85 68.7887C77.5 69.683 77.3605 71.3945 79.5222 71.5295C81.6837 71.6646 81.1572 69.4385 80.318 67.7846C79.4787 66.1306 79.6109 59.6928 78.4289 59.7066Z" fill="#2B2A29" stroke="#2B2A29" stroke-width="0.269608" stroke-miterlimit="22.9256"/>
</svg>
