<svg width="120" height="120" viewBox="0 0 120 120" fill="none" xmlns="http://www.w3.org/2000/svg">
<path d="M60 120C93.1371 120 120 93.1371 120 60C120 26.8629 93.1371 0 60 0C26.8629 0 0 26.8629 0 60C0 93.1371 26.8629 120 60 120Z" fill="#D9DADA"/>
<path fill-rule="evenodd" clip-rule="evenodd" d="M95.2973 94.2365V87.0967C95.2973 86.8756 95.1165 86.6948 94.8954 86.6948H91.6626C91.4415 86.6948 91.2607 86.8756 91.2607 87.0967V94.2365H89.75V82.8844C89.75 82.6634 89.5692 82.4825 89.3481 82.4825H86.1153C85.8943 82.4825 85.7134 82.6634 85.7134 82.8844V94.2365H84.2036V79.9007C84.2036 79.6797 84.0228 79.4988 83.8017 79.4988H80.5689C80.3478 79.4988 80.167 79.6797 80.167 79.9007V94.2365H78.6571V76.9171C78.6571 76.696 78.4763 76.5152 78.2552 76.5152H75.0225C74.8014 76.5152 74.6206 76.696 74.6206 76.9171V94.2365H73.1107V73.9334C73.1107 73.7123 72.9299 73.5315 72.7088 73.5315H69.476C69.2549 73.5315 69.0741 73.7123 69.0741 73.9334V94.2365H67.5643V72.1783C67.5643 71.9572 67.3834 71.7764 67.1623 71.7764H63.9296C63.7085 71.7764 63.5277 71.9572 63.5277 72.1783V94.2365H62.0178V66.3865C62.0178 66.1654 61.837 65.9845 61.6159 65.9845H58.3831C58.162 65.9845 57.9812 66.1654 57.9812 66.3865V94.2365H56.4714V59.5415C56.4714 59.3204 56.2905 59.1396 56.0694 59.1396H52.8367C52.6156 59.1396 52.4348 59.3204 52.4348 59.5415V94.2365H50.9249V53.3986C50.9249 53.1775 50.7441 52.9967 50.523 52.9967H47.2902C47.0691 52.9967 46.8883 53.1775 46.8883 53.3986V94.2365H45.3785V48.4843C45.3785 48.2632 45.1977 48.0824 44.9766 48.0824H41.7438C41.5227 48.0824 41.3419 48.2632 41.3419 48.4843V94.2365H39.832V46.3781C39.832 46.1571 39.6512 45.9762 39.4301 45.9762H36.1973C35.9762 45.9762 35.7954 46.1571 35.7954 46.3781V94.2365H34.2856V43.2695C34.2856 43.0484 34.1048 42.8676 33.8837 42.8676H30.6509C30.4298 42.8676 30.249 43.0484 30.249 43.2695V94.2365H28.7391V39.7088C28.7391 39.4877 28.5583 39.3069 28.3372 39.3069H25.1044C24.8834 39.3069 24.7025 39.4877 24.7025 39.7088V94.2365H22.4053C22.0137 94.2365 21.6962 94.554 21.6962 94.9456C21.6962 95.3373 22.0137 95.6548 22.4053 95.6548H97.5946C97.9863 95.6548 98.3037 95.3373 98.3037 94.9456C98.3037 94.554 97.9863 94.2365 97.5946 94.2365H95.2973Z" fill="#2B2A29"/>
<path d="M92.2932 67.3064L97.5819 70.4517L92.0938 73.2346L92.1746 70.8313C91.6917 70.8038 91.2127 70.7679 90.7312 70.7219C90.0752 70.6512 89.4343 70.5645 88.7828 70.4602C88.0018 70.3273 87.2397 70.1745 86.4671 69.9992C85.5568 69.7843 84.6686 69.546 83.7717 69.2805C82.8473 68.9993 81.9425 68.6982 81.0329 68.3725C79.9784 67.9871 78.9461 67.5795 77.9113 67.1442C76.4857 66.5353 75.0937 65.8898 73.7043 65.2025C72.1521 64.4264 70.6344 63.6144 69.1229 62.7621C67.2183 61.6785 65.3565 60.5498 63.5091 59.3715C56.0482 54.5847 49.0196 49.1445 42.2712 43.4046C39.8511 41.3413 37.4695 39.2377 35.1213 37.093C32.1139 34.3405 29.1481 31.5287 26.2801 28.6305C26.0632 28.4108 25.849 28.1861 25.6309 27.968C25.3457 27.6739 25.461 27.1817 25.8453 27.0411C26.0591 26.9663 26.2891 27.017 26.4478 27.1806L26.7492 27.49C29.3576 30.1422 32.0534 32.7161 34.7836 35.2421C40.8245 40.8199 47.1071 46.1566 53.6694 51.1121C56.1932 53.0113 58.749 54.8438 61.3679 56.6097C63.6378 58.1318 65.9318 59.5862 68.2879 60.9716C69.8954 61.9102 71.5128 62.8046 73.1666 63.6593C74.5394 64.3614 75.915 65.0239 77.3231 65.6526C78.4552 66.1508 79.5856 66.6168 80.742 67.0559C81.7452 67.4297 82.7435 67.774 83.7657 68.0928C84.7493 68.3921 85.7224 68.6576 86.7231 68.8939C87.3659 69.0399 88.0017 69.1701 88.6504 69.2868C89.489 69.4296 90.3088 69.541 91.1556 69.6233C91.5072 69.6538 91.8604 69.6788 92.2128 69.6974L92.2932 67.3064Z" fill="#FEFEFE"/>
<path fill-rule="evenodd" clip-rule="evenodd" d="M87.7319 29.9815C88.1996 29.9815 88.6227 30.1728 88.9271 30.4816L89.2701 30.3262L90.4151 29.808C90.3297 29.5361 90.2836 29.2467 90.2836 28.9466C90.2836 28.0614 90.6842 27.27 91.3138 26.7432L90.1345 24.7006L90.9886 24.2075L92.1676 26.2494C92.4755 26.1366 92.8082 26.0749 93.1553 26.0749C94.0405 26.0749 94.8318 26.4754 95.3586 27.105L97.4011 25.9258L97.8944 26.7798L95.8526 27.9587C95.9655 28.2667 96.027 28.5995 96.027 28.9466C96.027 29.8318 95.6264 30.6231 94.9968 31.1499L96.1762 33.1925L95.3221 33.6857L94.1433 31.6439C93.8353 31.7568 93.5024 31.8183 93.1553 31.8183C92.287 31.8183 91.509 31.4328 90.9824 30.8239L89.7483 31.3826L89.406 31.5375C89.4089 31.578 89.4105 31.6189 89.4105 31.6601C89.4105 32.5872 88.659 33.3387 87.7319 33.3387C87.259 33.3387 86.8318 33.143 86.5267 32.8284L83.8587 34.0361C83.8622 34.0805 83.8641 34.1254 83.8641 34.1707C83.8641 35.0978 83.1125 35.8494 82.1855 35.8494C81.4975 35.8494 80.9063 35.4354 80.6471 34.8431L78.2539 35.0045C78.054 35.7081 77.4067 36.2235 76.639 36.2235C76.2048 36.2235 75.8091 36.0586 75.5111 35.7881C74.5311 36.3064 73.6268 36.7763 72.7462 37.2236C72.7626 37.3177 72.7712 37.4145 72.7712 37.5133C72.7712 38.4403 72.0196 39.1919 71.0926 39.1919C70.6043 39.1919 70.1648 38.9833 69.858 38.6505C69.0222 39.0519 68.1568 39.4583 67.2188 39.8905C67.2226 39.937 67.2247 39.984 67.2247 40.0315C67.2247 40.9586 66.4732 41.7102 65.5461 41.7102C65.1372 41.7102 64.7624 41.5638 64.4712 41.3208C63.4431 41.9239 62.416 42.5242 61.3885 43.1226C61.409 43.2272 61.4197 43.3353 61.4197 43.4459C61.4197 44.373 60.6682 45.1246 59.7411 45.1246C59.3214 45.1246 58.9377 44.9705 58.6434 44.7159C57.7991 45.2042 56.9537 45.6916 56.1062 46.1785C56.1231 46.2739 56.1318 46.3721 56.1318 46.4723C56.1318 47.3994 55.3803 48.1509 54.4532 48.1509C54.0613 48.1509 53.7007 48.0166 53.4151 47.7915L50.547 49.5869C50.572 49.7022 50.5854 49.8218 50.5854 49.9445C50.5854 50.8716 49.8338 51.6231 48.9068 51.6231C48.7874 51.6231 48.6709 51.6106 48.5586 51.5869L44.6735 57.873C44.9023 58.1598 45.0389 58.5232 45.0389 58.9186C45.0389 59.8216 44.3259 60.5579 43.4322 60.5956L38.9319 75.0483C39.3372 75.3547 39.5993 75.8408 39.5993 76.3881C39.5993 77.3151 38.8477 78.0667 37.9206 78.0667C37.6133 78.0667 37.3252 77.984 37.0774 77.8398L33.6953 80.688C33.7627 80.8698 33.7997 81.0666 33.7997 81.272C33.7997 82.199 33.0482 82.9506 32.1211 82.9506C31.8649 82.9506 31.6222 82.8931 31.4048 82.7904L27.9704 86.2248C28.5361 87.0734 28.3075 88.2703 27.6207 88.9812C26.7284 89.8665 25.3042 89.8667 24.4119 88.9812C23.5264 88.0888 23.5265 86.6647 24.4119 85.7724C25.165 85.0252 26.2969 84.9085 27.1682 85.4226L30.6026 81.9882C30.5 81.771 30.4425 81.5282 30.4425 81.272C30.4425 80.3449 31.194 79.5934 32.1211 79.5934C32.4285 79.5934 32.7165 79.676 32.9643 79.8202L36.3465 76.9721C36.279 76.7902 36.242 76.5935 36.242 76.3881C36.242 75.4851 36.9551 74.7487 37.8488 74.7111L42.3491 60.2585C41.9437 59.952 41.6817 59.466 41.6817 58.9186C41.6817 57.9916 42.4333 57.24 43.3603 57.24C43.4796 57.24 43.5959 57.2526 43.7081 57.2762C45.0028 55.1806 46.2989 53.0858 47.5939 50.9904C47.365 50.7036 47.2282 50.34 47.2282 49.9445C47.2282 49.0175 47.9797 48.2659 48.9068 48.2659C49.301 48.2659 49.6634 48.4018 49.9498 48.6293C50.9087 48.0375 51.8664 47.4541 52.8237 46.8767C52.7916 46.7472 52.7746 46.6117 52.7746 46.4723C52.7746 45.5453 53.5262 44.7937 54.4532 44.7937C54.8868 44.7937 55.2821 44.9581 55.58 45.228C56.4155 44.732 57.2517 44.2386 58.0893 43.7461C58.0717 43.6487 58.0625 43.5484 58.0625 43.4459C58.0625 42.5189 58.814 41.7673 59.7411 41.7673C60.1469 41.7673 60.519 41.9114 60.8092 42.151C61.8346 41.5507 62.8632 40.949 63.8964 40.3428C63.8775 40.242 63.8675 40.1379 63.8675 40.0315C63.8675 39.1045 64.619 38.3529 65.5461 38.3529C66.0184 38.3529 66.445 38.5481 66.7501 38.8619L69.4195 37.6499C69.4159 37.6049 69.4139 37.5593 69.4139 37.5133C69.4139 36.5862 70.1655 35.8347 71.0926 35.8347C71.5254 35.8347 71.9201 35.9986 72.2178 36.2677L74.9783 34.7902C74.9667 34.7101 74.9604 34.6282 74.9604 34.5448C74.9604 33.6178 75.7119 32.8662 76.639 32.8662C77.327 32.8662 77.9182 33.2802 78.1774 33.8725L80.5705 33.7111C80.7705 33.0075 81.4177 32.4921 82.1855 32.4921C82.6583 32.4921 83.0856 32.6878 83.3907 33.0025L86.0587 31.7948C86.0551 31.7504 86.0533 31.7054 86.0533 31.6601C86.0533 30.733 86.8048 29.9815 87.7319 29.9815ZM95.2974 87.0969V80.7908C95.2974 80.5931 95.1166 80.4313 94.8955 80.4313H91.6628C91.4417 80.4313 91.2609 80.5932 91.2609 80.7908V87.0969C91.2609 86.8758 91.4417 86.695 91.6628 86.695H94.8955C95.1166 86.695 95.2974 86.8758 95.2974 87.0969ZM62.018 66.3867V64.695C62.018 64.4972 61.8371 64.3355 61.6161 64.3355H58.3833C58.1623 64.3355 57.9814 64.4973 57.9814 64.695V66.3867C57.9814 66.1656 58.1622 65.9847 58.3833 65.9847H61.6161C61.8371 65.9847 62.018 66.1656 62.018 66.3867ZM67.5644 72.1785V69.854C67.5644 69.6563 67.3835 69.4946 67.1625 69.4946H63.9297C63.7087 69.4946 63.5278 69.6564 63.5278 69.854V72.1785C63.5278 71.9574 63.7086 71.7766 63.9297 71.7766H67.1625C67.3836 71.7766 67.5644 71.9574 67.5644 72.1785ZM73.1109 73.9336V71.1434C73.1109 70.9457 72.9299 70.7839 72.7089 70.7839H69.4762C69.2552 70.7839 69.0743 70.9458 69.0743 71.1434V73.9336C69.0743 73.7125 69.2551 73.5317 69.4762 73.5317H72.7089C72.93 73.5317 73.1109 73.7125 73.1109 73.9336ZM78.6573 76.9173V72.9488C78.6573 72.751 78.4765 72.5892 78.2554 72.5892H75.0226C74.8015 72.5892 74.6207 72.751 74.6207 72.9488V76.9173C74.6207 76.6962 74.8015 76.5154 75.0226 76.5154H78.2554C78.4765 76.5154 78.6573 76.6962 78.6573 76.9173ZM84.2037 79.901V75.6175C84.2037 75.4198 84.0229 75.258 83.8018 75.258H80.5691C80.348 75.258 80.1672 75.4198 80.1672 75.6175V79.901C80.1672 79.6799 80.348 79.499 80.5691 79.499H83.8018C84.0229 79.499 84.2037 79.6799 84.2037 79.901ZM89.7502 82.8847V77.425C89.7502 77.2272 89.5693 77.0654 89.3483 77.0654H86.1155C85.8945 77.0654 85.7136 77.2273 85.7136 77.425V82.8847C85.7136 82.6636 85.8944 82.4827 86.1155 82.4827H89.3483C89.5694 82.4827 89.7502 82.6636 89.7502 82.8847ZM26.8185 88.179C27.2633 87.7341 27.2584 87.0213 26.8185 86.5746C26.3718 86.1347 25.6589 86.1297 25.2141 86.5746C24.7693 87.0194 24.7742 87.7323 25.2141 88.179C25.6608 88.6188 26.3737 88.6238 26.8185 88.179ZM93.1553 27.3615C94.0307 27.3615 94.7404 28.0712 94.7404 28.9466C94.7404 29.8221 94.0307 30.5317 93.1553 30.5317C92.2799 30.5317 91.5702 29.8221 91.5702 28.9466C91.5702 28.0712 92.2799 27.3615 93.1553 27.3615Z" fill="#42ADE2"/>
</svg>
