<svg width="120" height="120" viewBox="0 0 120 120" fill="none" xmlns="http://www.w3.org/2000/svg">
<path d="M60 120C93.1371 120 120 93.1371 120 60C120 26.8629 93.1371 0 60 0C26.8629 0 0 26.8629 0 60C0 93.1371 26.8629 120 60 120Z" fill="#D9DADA"/>
<path fill-rule="evenodd" clip-rule="evenodd" d="M45.3631 79.3512L74.5606 79.3485L74.5538 98.1265L45.3571 98.1245L45.3631 79.3512ZM58.9138 77.2444C58.2184 77.3716 56.2636 77.2734 55.4359 77.2735C54.0595 77.2736 45.7084 77.218 45.1075 77.2824C44.1574 77.3841 43.4457 78.0449 43.3074 78.9732C43.1963 79.719 43.2712 88.118 43.2701 89.2976C43.2681 91.6143 43.2748 93.9309 43.2701 96.2476C43.2681 97.2834 43.1196 98.5875 43.6291 99.3518C44.1775 100.174 45.0226 100.206 46.2082 100.206C55.3732 100.207 64.6877 100.263 73.8329 100.206C75.0803 100.199 75.8269 100.106 76.3317 99.2712C76.791 98.5112 76.6515 97.1274 76.6454 96.1308C76.6313 93.8344 76.6521 91.5359 76.6458 89.2392C76.6427 88.092 76.7345 79.5881 76.5892 78.8815C76.1419 76.7069 73.5892 77.2911 71.3216 77.272C69.8184 77.2594 61.6867 77.345 61.0024 77.2497L61.0003 74.1413L58.9191 74.1422L58.9138 77.2444ZM70.3611 61.3809C70.0137 66.9037 65.1612 71.4275 59.145 70.9821C53.5455 70.5675 49.1662 65.8212 49.5611 59.745C49.9208 54.2111 54.7572 49.7713 60.8054 50.1833C66.3455 50.5607 70.7392 55.3698 70.3611 61.3809ZM61.0713 48.0649H58.9516C58.0748 48.4697 54.5985 48.0692 50.7622 52.0947C48.9141 54.034 47.3091 57.2318 47.4568 61.0328C47.7156 67.6891 53.0887 73.0532 59.8746 73.0945C66.7072 73.1362 72.1525 67.7767 72.4544 61.1693C72.5787 58.4475 71.8978 56.1449 70.5726 53.952C69.0429 51.421 66.4761 49.5123 63.6455 48.6133C62.7279 48.3219 61.3258 48.1956 61.0713 48.0649ZM50.0137 86.6111C50.5146 85.8551 53.1994 84.6711 54.276 84.3364C57.7253 83.2641 62.2505 83.2328 65.6895 84.3559C66.7616 84.7059 69.4104 85.8558 69.9047 86.6111L66.3561 91.3396C66.1521 91.6072 65.9689 91.8608 65.7559 92.141C65.5803 92.3721 65.3128 92.6858 65.1863 92.9092L54.7376 92.9045C53.8877 91.6206 50.6021 87.5946 50.0137 86.6111ZM72.8008 86.2606C72.6719 86.0083 71.9134 85.3715 71.6508 85.1725C65.4806 80.4975 56.2761 80.242 49.5227 84.3183C48.932 84.6748 47.3805 85.7584 47.1022 86.2589L48.9049 88.6455C49.5333 89.482 50.0988 90.2385 50.7108 91.0436L53.4239 94.6379C53.6495 94.9327 53.6163 95.0047 54.0885 95.0019L64.0796 94.9995C66.6138 94.9735 66.019 95.263 66.9713 94.0002L69.4567 90.7027C70.1729 89.7467 72.2174 87.1493 72.8008 86.2606ZM33.8851 59.9017V61.1809C33.9563 61.4242 34.0097 62.252 34.0722 62.604C34.1568 63.0805 34.2573 63.5076 34.3977 63.9648C36.2964 70.1456 43.3888 73.7408 49.2786 71.3418C50.5611 70.8195 50.2498 69.6777 49.577 69.3377C48.913 69.0022 48.3766 69.5885 46.9586 69.8368C41.6075 70.7737 36.0216 66.7412 35.9732 60.7384C35.9254 54.803 41.1648 50.4348 46.7222 51.2836C48.1552 51.5026 48.8098 52.0704 49.4369 51.8739C50.1921 51.6372 50.5879 50.3923 49.4188 49.8783C44.4658 47.7009 38.2771 50.0682 35.4914 54.7513C33.8714 57.4749 34.1076 59.2737 33.8851 59.9017ZM73.5974 49.1472C72.694 49.1947 70.1691 49.5787 69.8373 50.4932C69.5939 51.1639 70.0119 52.3553 71.5738 51.7056C72.8965 51.1554 74.7132 51.0851 76.1188 51.3201C83.6897 52.5858 86.8349 62.2114 80.7016 67.6685C78.2795 69.8237 74.7488 70.5421 71.5479 69.4541C71.0616 69.2889 70.6539 69.0512 70.1456 69.4313C69.8658 69.6406 69.5644 70.1303 69.7961 70.6767C70.1642 71.5446 72.7357 71.9364 73.6004 72.0048C75.6193 72.1643 77.7314 71.7942 79.3153 71.0107C80.7961 70.2782 82.189 69.3316 83.2171 68.0778C85.6799 65.0741 86.66 61.5565 85.6287 57.5879C84.7567 54.2324 82.3826 51.6399 79.3695 50.1792C77.6719 49.3563 75.7381 49.0345 73.5974 49.1472ZM65.2623 61.9512L63.2034 61.9531C63.0413 62.3621 63.0066 62.8646 62.8083 63.3241C62.2254 64.6744 61.0746 65.407 59.4601 65.1242C57.5529 64.7901 56.55 63.2153 56.4202 61.1491C56.2826 58.9602 57.0491 56.9559 58.5689 56.2771C59.4421 55.8872 60.698 55.8878 61.5246 56.2823C62.1237 56.5682 62.5365 57.0936 62.809 57.6288C62.9303 57.8671 62.9639 58.0871 63.0867 58.2936L65.2503 58.296C65.1445 56.9431 64.2372 55.6635 63.1613 54.9406C62.0184 54.1726 60.2033 53.9372 58.6131 54.286C55.6098 54.9448 54.0964 57.9502 54.2285 60.789C54.5057 66.7434 60.5006 68.1793 63.4734 65.6809C64.2918 64.9932 65.2425 63.629 65.2623 61.9512ZM61.4386 91.8516C61.8647 91.0471 62.9131 89.4202 63.4642 88.5071L65.4751 85.142C64.8973 85.5293 61.7904 88.641 60.9806 89.3519C60.6645 89.6296 60.4261 89.8778 60.1142 90.1782C59.8124 90.4689 58.4563 91.6232 58.3485 91.8654L61.4386 91.8516Z" fill="#FEFEFE"/>
<path d="M84.7912 31.3143L84.978 31.4693C85.0359 31.5173 85.0972 31.5602 85.161 31.5968C85.2235 31.6325 85.2917 31.6643 85.3654 31.6912C85.4391 31.718 85.5118 31.7375 85.5827 31.7502C85.6552 31.7633 85.7296 31.7698 85.8047 31.7703L86.048 31.7716L86.0912 31.763C86.1875 31.7421 86.2815 31.7103 86.3713 31.6686L86.3709 31.6676C86.5293 31.5936 86.6719 31.4907 86.7886 31.3634C86.9016 31.2401 86.9933 31.091 87.0555 30.92C87.1178 30.7491 87.1432 30.5757 87.1358 30.4088C87.1284 30.2344 87.0858 30.0641 87.0128 29.9078L87.0119 29.9059C86.939 29.7496 86.836 29.6073 86.7074 29.4896C86.584 29.3766 86.4349 29.2846 86.2639 29.2224C86.0931 29.1602 85.9198 29.1348 85.7526 29.1421C85.5802 29.1496 85.4096 29.1925 85.2511 29.2665L85.2508 29.2655C85.0935 29.339 84.9512 29.4423 84.8335 29.5708C84.7206 29.6941 84.6287 29.8431 84.5665 30.0141C84.5043 30.1851 84.4788 30.3583 84.486 30.5253C84.4934 30.6978 84.5365 30.8684 84.6103 31.0268L84.6095 31.0273C84.6513 31.117 84.703 31.2019 84.7633 31.2798L84.7912 31.3143ZM89.5302 74.8781L89.3432 74.723C89.2855 74.675 89.2242 74.6321 89.1604 74.5958C89.0979 74.5599 89.0295 74.5281 88.9557 74.5012C88.882 74.4744 88.8093 74.4548 88.7384 74.4422C88.6659 74.429 88.5914 74.4225 88.5163 74.422L88.2735 74.4206L88.2301 74.4294C88.1339 74.4502 88.0396 74.4819 87.95 74.5237L87.9504 74.5246C87.6434 74.6678 87.3908 74.9284 87.2657 75.2723C87.2035 75.4431 87.178 75.6165 87.1852 75.7834C87.1929 75.956 87.2358 76.1266 87.3096 76.285L87.3088 76.2855C87.3822 76.4426 87.4856 76.5851 87.6139 76.7027C87.7372 76.8158 87.8863 76.9076 88.0573 76.9698C88.2281 77.032 88.4014 77.0575 88.5684 77.0501C88.7424 77.0426 88.9132 76.9998 89.0704 76.9267L89.0701 76.9258C89.2285 76.852 89.3711 76.7488 89.4877 76.6214C89.6007 76.4983 89.6926 76.3491 89.7548 76.1782C89.817 76.0072 89.8424 75.8339 89.8353 75.6669C89.8278 75.4944 89.7847 75.3239 89.7108 75.1655C89.6678 75.0732 89.6167 74.9884 89.5581 74.9128L89.5302 74.8781ZM93.3146 66.3975L93.3538 66.1688C93.379 66.0211 93.3774 65.8715 93.3519 65.7265C93.3258 65.5785 93.2743 65.4362 93.2006 65.3066L93.0815 65.097C93.0343 65.0411 92.9823 64.9887 92.9256 64.9407C92.8096 64.8424 92.6738 64.7623 92.5207 64.7066C92.3676 64.6509 92.212 64.6249 92.0599 64.6256C91.9861 64.626 91.9131 64.6325 91.8413 64.645L91.6142 64.7292C91.4745 64.7811 91.3435 64.8571 91.2283 64.9536C91.1156 65.0482 91.0182 65.1618 90.9427 65.2913L90.8252 65.4927L90.8232 65.4982C90.761 65.6692 90.7354 65.8424 90.7426 66.0094C90.7502 66.182 90.7932 66.3526 90.8671 66.511L90.8662 66.5114C90.908 66.6011 90.9599 66.686 91.0201 66.7639L91.0475 66.798L91.2347 66.9534C91.2926 67.0014 91.3538 67.0443 91.4176 67.0808C91.48 67.1165 91.5485 67.1484 91.6222 67.1753C91.6958 67.2021 91.7687 67.2216 91.8396 67.2345C91.9121 67.2474 91.9865 67.2539 92.0615 67.2544L92.3054 67.2556L92.3481 67.2471C92.4417 67.2268 92.5355 67.1947 92.6275 67.1518L92.6279 67.1528C92.7851 67.0793 92.9277 66.9758 93.0451 66.8474C93.1582 66.7241 93.2501 66.575 93.3123 66.404L93.3146 66.3975ZM88.713 46.9029L88.4859 46.9872C88.3461 47.0391 88.2151 47.1148 88.1001 47.2114C87.9873 47.3059 87.8898 47.4197 87.8143 47.5493L87.6966 47.751L87.6947 47.7562C87.6325 47.927 87.6071 48.1003 87.6145 48.2673C87.6219 48.4414 87.6647 48.612 87.7379 48.7693L87.7387 48.7689C87.7818 48.861 87.833 48.946 87.8915 49.0217L87.9191 49.0558L88.1064 49.2113C88.1642 49.2592 88.2254 49.3022 88.2892 49.3387C88.3518 49.3744 88.4202 49.4062 88.4939 49.433C88.5676 49.4598 88.6403 49.4794 88.7112 49.4922C88.7837 49.5053 88.858 49.5118 88.9331 49.5123L89.177 49.5134L89.2197 49.5049C89.3162 49.4841 89.4099 49.4524 89.4986 49.411C89.6562 49.3375 89.7991 49.234 89.9169 49.1054C90.0298 48.9821 90.1218 48.833 90.1839 48.6622L90.1861 48.6563L90.2254 48.4269C90.2507 48.2791 90.2492 48.1295 90.2235 47.9843C90.1975 47.8364 90.1458 47.6941 90.0723 47.5646L89.9525 47.3543C89.9054 47.2986 89.8536 47.2464 89.7972 47.1987C89.6812 47.1004 89.5454 47.0202 89.3924 46.9645C89.2393 46.9087 89.0836 46.8829 88.9315 46.8837C88.8578 46.8838 88.7847 46.8905 88.713 46.9029ZM73.0235 41.1928C72.9764 41.137 72.9245 41.0848 72.8682 41.037C72.7521 40.9387 72.6162 40.8584 72.4633 40.8027C72.2923 40.7405 72.1188 40.7151 71.9517 40.7223C71.7793 40.7299 71.6088 40.7729 71.4503 40.8468C71.2918 40.9207 71.1493 41.0237 71.0327 41.1511C70.9197 41.2743 70.8277 41.4235 70.7656 41.5943C70.7034 41.7653 70.678 41.9386 70.6853 42.1057C70.6926 42.2781 70.7357 42.4487 70.8096 42.6072L70.8087 42.6076C70.8507 42.6973 70.9022 42.7822 70.9624 42.86L70.9897 42.8939L71.1772 43.0496C71.235 43.0975 71.2963 43.1404 71.3601 43.1769C71.4226 43.2127 71.491 43.2445 71.5647 43.2713C71.6386 43.2982 71.7113 43.3178 71.782 43.3305C71.8596 43.3443 71.9336 43.3514 72.0036 43.3518L72.2415 43.3529L72.2904 43.3434C72.3841 43.3231 72.478 43.2909 72.57 43.2479C72.7283 43.1741 72.871 43.071 72.9876 42.9438C73.1006 42.8205 73.1926 42.6712 73.2547 42.5005L73.2569 42.4945L73.2962 42.2652C73.3216 42.1173 73.32 41.9678 73.2944 41.8227C73.2684 41.6746 73.2168 41.5324 73.1429 41.4029L73.0235 41.1928ZM100.384 45.8425C100.311 45.6853 100.208 45.543 100.079 45.4253C99.9558 45.3124 99.8067 45.2206 99.6357 45.1583C99.4647 45.0961 99.2914 45.0706 99.1244 45.0779C98.9519 45.0854 98.7812 45.1284 98.623 45.2022L98.6224 45.2013C98.4654 45.2748 98.3227 45.3781 98.205 45.5066C98.0922 45.6299 98.0003 45.779 97.9382 45.9498L97.9363 45.9549L97.8968 46.1849C97.8714 46.3329 97.8729 46.4823 97.8985 46.6274C97.9246 46.7754 97.976 46.9177 98.0498 47.0473L98.1696 47.2577C98.2165 47.3133 98.2684 47.3653 98.3247 47.4131C98.4406 47.5115 98.5766 47.5917 98.7297 47.6474C98.8828 47.7031 99.0385 47.7291 99.1904 47.7283C99.2643 47.728 99.3375 47.7213 99.4093 47.7089L99.6362 47.6247C99.7761 47.5728 99.907 47.4969 100.022 47.4004C100.135 47.3057 100.232 47.1921 100.308 47.0626L100.425 46.8623L100.427 46.8558C100.49 46.6848 100.515 46.5116 100.508 46.3446C100.5 46.1706 100.457 45.9999 100.384 45.8425ZM107.07 53.8096C106.997 53.6532 106.893 53.5112 106.765 53.3933L106.764 53.3928C106.64 53.2798 106.491 53.188 106.322 53.1262C106.169 53.0705 106.013 53.0446 105.861 53.0454C105.787 53.0457 105.714 53.0523 105.642 53.0647L105.415 53.1489C105.275 53.2007 105.144 53.2765 105.029 53.3731C104.916 53.4679 104.819 53.5816 104.743 53.711L104.623 53.9175L104.624 53.9179C104.562 54.0887 104.536 54.262 104.544 54.429C104.551 54.6016 104.594 54.7722 104.668 54.9306L104.667 54.931C104.709 55.0207 104.761 55.1056 104.821 55.1834L104.848 55.2173L105.036 55.373C105.093 55.4209 105.155 55.4638 105.218 55.5003C105.281 55.5361 105.349 55.5679 105.423 55.5947C105.497 55.6215 105.569 55.6412 105.64 55.654C105.713 55.6671 105.787 55.6735 105.862 55.6739L106.106 55.6753L106.149 55.6667C106.242 55.6464 106.336 55.6143 106.428 55.5713C106.587 55.4974 106.729 55.3945 106.846 55.2671L106.847 55.2657C106.96 55.1423 107.051 54.9937 107.113 54.8238C107.175 54.6529 107.201 54.4796 107.194 54.3125C107.186 54.14 107.143 53.9694 107.069 53.8109L107.07 53.8096ZM103.512 63.5836C103.471 63.495 103.419 63.4104 103.359 63.3325L103.331 63.2977L103.144 63.1426C103.086 63.0946 103.025 63.0519 102.961 63.0153C102.899 62.9795 102.83 62.9476 102.757 62.9208C102.683 62.894 102.61 62.8745 102.539 62.8617C102.467 62.8486 102.392 62.8421 102.317 62.8417L102.073 62.8405L102.031 62.849C101.937 62.8694 101.843 62.9014 101.751 62.9444L101.75 62.9439C101.593 63.0167 101.451 63.1199 101.333 63.2486C101.221 63.3718 101.129 63.521 101.067 63.6918L101.064 63.6979L101.025 63.9272C100.999 64.076 101.001 64.2255 101.026 64.3697L101.027 64.3696C101.053 64.5176 101.104 64.6598 101.178 64.7893L101.298 64.9997C101.345 65.0555 101.397 65.1075 101.453 65.1552C101.569 65.2536 101.705 65.3339 101.858 65.3895C102.029 65.4517 102.202 65.4771 102.369 65.4699C102.544 65.4622 102.714 65.4197 102.87 65.3467L102.872 65.3458C103.029 65.2729 103.171 65.1698 103.289 65.0411C103.402 64.9181 103.493 64.7688 103.556 64.5979C103.618 64.427 103.643 64.2537 103.636 64.0866C103.628 63.914 103.585 63.7434 103.512 63.5851L103.512 63.5836ZM104.256 61.576C104.77 61.9646 105.148 62.4938 105.354 63.086C105.591 63.7632 105.604 64.5226 105.34 65.2472C105.036 66.0836 104.421 66.7175 103.673 67.0662C102.926 67.4147 102.045 67.4782 101.209 67.1738C100.767 67.0131 100.381 66.7647 100.063 66.4551C99.8106 66.209 99.6015 65.9232 99.4427 65.6118L95.2658 66.3482C95.2573 66.4159 95.2466 66.4835 95.2338 66.5512C95.2023 66.7175 95.1563 66.8855 95.0953 67.0531C94.8311 67.779 94.3333 68.3524 93.7182 68.7185C93.1795 69.0392 92.5496 69.2017 91.9067 69.1695L90.4556 73.1564C90.9688 73.5448 91.3469 74.0741 91.5534 74.6663C91.7897 75.3436 91.8029 76.1029 91.5391 76.8276C91.2347 77.664 90.62 78.2978 89.8724 78.6464C89.126 78.9945 88.2457 79.0574 87.4084 78.7527L87.4079 78.7542C86.5716 78.4497 85.9377 77.8351 85.589 77.0875C85.2403 76.3397 85.177 75.4589 85.4813 74.6228C85.7452 73.8979 86.2433 73.3249 86.8597 72.9579C87.3985 72.637 88.0284 72.4747 88.6711 72.5068L90.1222 68.52C89.6091 68.1315 89.231 67.6023 89.0245 67.0101C88.7882 66.3328 88.7751 65.5735 89.0388 64.8486C89.0978 64.6868 89.1706 64.5289 89.2563 64.3757C89.2902 64.3159 89.3254 64.2574 89.3623 64.2004L89.0686 63.8505L89.0729 63.8319C89.2616 63.0116 89.3772 62.1735 89.4163 61.3179L90.8138 62.9835C91.1356 62.8471 91.4791 62.7627 91.8306 62.7366C92.2732 62.7038 92.7287 62.7614 93.1703 62.9222C93.6118 63.0828 93.9975 63.3314 94.3156 63.641C94.568 63.8871 94.7769 64.1724 94.9357 64.4837L99.113 63.7471C99.1216 63.6791 99.1323 63.6113 99.1453 63.5433C99.1782 63.371 99.2237 63.2033 99.2822 63.0424C99.546 62.3176 100.044 61.7445 100.66 61.3776C101.199 61.0567 101.829 60.8942 102.472 60.9266L103.923 56.9396C103.41 56.5513 103.032 56.0219 102.825 55.4296C102.589 54.7525 102.576 53.9932 102.84 53.2685C102.898 53.1076 102.971 52.95 103.057 52.7967C103.091 52.7363 103.126 52.6773 103.163 52.62L100.436 49.3706C100.115 49.5068 99.7713 49.5911 99.4197 49.6173C98.9772 49.6502 98.5219 49.5926 98.0803 49.4319C97.6388 49.2711 97.2527 49.0225 96.9349 48.7129C96.6822 48.4668 96.4731 48.181 96.3142 47.8697L92.1373 48.606C92.1288 48.6742 92.1181 48.7425 92.105 48.8108C92.0722 48.9831 92.0268 49.1507 91.9682 49.3116C91.7044 50.0364 91.2063 50.6095 90.59 50.9764C90.051 51.2972 89.4211 51.4597 88.7783 51.4274L87.8645 53.9382C87.4992 53.2071 87.075 52.5153 86.5994 51.8663L86.9951 50.7788C86.4813 50.3903 86.1028 49.8605 85.8961 49.2679C85.6598 48.5906 85.6466 47.8315 85.9104 47.1068C85.969 46.9459 86.0419 46.7883 86.1276 46.635C86.1613 46.5746 86.1968 46.5157 86.234 46.4583L84.8701 44.8328L84.8707 44.8324L83.5081 43.2085C83.1861 43.345 82.8425 43.4294 82.4906 43.4556C82.048 43.4886 81.5926 43.4308 81.151 43.2701C80.7095 43.1094 80.3235 42.8607 80.0057 42.5511C79.753 42.3049 79.5439 42.0193 79.385 41.7078L75.2084 42.4443C75.1998 42.5122 75.1893 42.58 75.1764 42.6476C75.1436 42.8201 75.098 42.9882 75.0391 43.1499C74.7753 43.8747 74.2771 44.4478 73.6608 44.8146C73.122 45.1355 72.4921 45.2981 71.8491 45.2657L71.5834 45.9957C71.0128 46.1044 70.412 46.2517 69.8787 46.4426C69.6888 46.5106 69.5022 46.5852 69.3201 46.6668L70.0661 44.6173C69.5522 44.2286 69.1737 43.6988 68.967 43.1062C68.7307 42.429 68.7176 41.6698 68.9813 40.945C69.2857 40.1087 69.9004 39.4747 70.6481 39.1263C71.3945 38.7783 72.2748 38.7152 73.1119 39.0198L73.1125 39.0183C73.5542 39.1791 73.9401 39.4277 74.2579 39.7371C74.5104 39.9832 74.7193 40.2687 74.8782 40.5798L79.0554 39.8433C79.0638 39.7757 79.0743 39.7083 79.0871 39.6412L79.0876 39.6398C79.1206 39.4673 79.1661 39.2994 79.2247 39.1387C79.4885 38.4139 79.9866 37.8407 80.6029 37.4739C81.1417 37.153 81.7717 36.9905 82.4144 37.0229L83.8655 33.036C83.3524 32.6474 82.9743 32.1181 82.7678 31.5259C82.5315 30.8487 82.5183 30.0895 82.7821 29.3647C83.0865 28.5284 83.7012 27.8945 84.4488 27.5459C85.1965 27.1972 86.0771 27.1338 86.9134 27.4381C87.7497 27.7425 88.3837 28.3572 88.7322 29.1049C89.0809 29.8525 89.1443 30.7333 88.8399 31.5696C88.5762 32.2944 88.0779 32.8674 87.4615 33.2344C86.9227 33.5552 86.2929 33.7176 85.65 33.6855L84.1989 37.6724C84.7121 38.0607 85.0901 38.5901 85.2967 39.1823C85.533 39.8595 85.5463 40.6188 85.2825 41.3436C85.2241 41.5042 85.1512 41.6617 85.0656 41.8147L85.0651 41.8161C85.0316 41.876 84.9962 41.9347 84.959 41.992L87.6855 45.2415C88.0072 45.105 88.3507 45.0209 88.7024 44.9946C89.1449 44.9616 89.6002 45.0194 90.0418 45.1801C90.4833 45.3408 90.8692 45.5894 91.1871 45.8989C91.4396 46.1449 91.6485 46.4305 91.8073 46.7417L95.9848 46.0051C95.9933 45.9376 96.0039 45.87 96.0167 45.8026C96.0492 45.6301 96.095 45.4622 96.1539 45.3004C96.4582 44.464 97.0729 43.8302 97.8206 43.4816C98.5669 43.1335 99.4475 43.0707 100.285 43.3754L100.285 43.3739C101.122 43.6783 101.755 44.2931 102.104 45.0406C102.452 45.7882 102.516 46.6688 102.212 47.5052C102.153 47.667 102.08 47.825 101.994 47.9783C101.96 48.0383 101.925 48.097 101.888 48.1543L104.614 51.4034C104.936 51.2671 105.28 51.1825 105.632 51.1563C106.074 51.1234 106.53 51.1811 106.971 51.3418C107.807 51.6462 108.441 52.261 108.79 53.0087C109.138 53.7562 109.202 54.6369 108.897 55.4733C108.634 56.1981 108.135 56.7712 107.519 57.1381C106.98 57.459 106.35 57.6214 105.708 57.5891L104.256 61.576ZM83.4962 40.6993L83.4981 40.694C83.5603 40.5233 83.5857 40.3499 83.5784 40.1828C83.571 40.0103 83.5279 39.8396 83.454 39.6812C83.4111 39.5891 83.3598 39.5041 83.3012 39.4285L83.2696 39.3891L83.087 39.2376C83.0333 39.193 82.972 39.1505 82.9037 39.1114C82.8412 39.0757 82.7728 39.044 82.699 39.0171C82.6252 38.9903 82.5525 38.9706 82.4816 38.9578C82.4041 38.9438 82.3299 38.937 82.2602 38.9366L82.023 38.9354L81.9731 38.9452C81.8771 38.966 81.783 38.9979 81.6934 39.0395C81.5363 39.1129 81.3938 39.2163 81.2761 39.3447C81.1631 39.4681 81.0712 39.6171 81.009 39.7881L81.0066 39.7946L80.9675 40.0231C80.942 40.1721 80.9434 40.3217 80.9686 40.466L80.9693 40.4659C80.9955 40.6138 81.0469 40.756 81.1206 40.8856L81.2406 41.0963C81.2875 41.152 81.3392 41.2039 81.3954 41.2514C81.5115 41.3498 81.6474 41.43 81.8004 41.4857C81.9536 41.5414 82.1092 41.5673 82.2612 41.5666C82.335 41.5662 82.4079 41.5597 82.4796 41.5473L82.707 41.463C82.8469 41.4111 82.9778 41.3353 83.0928 41.2388L83.0932 41.2393C83.2052 41.1451 83.3026 41.0314 83.3786 40.9009L83.4962 40.6993Z" fill="#42ADE2"/>
<path d="M32.7559 68.449C32.1402 69.1382 31.3772 69.8882 31.0306 69.9491C30.9328 70.1408 30.8265 70.1559 30.7384 70.4137C30.6678 70.62 30.6789 70.8657 30.7594 71.0652C30.8933 71.3973 31.2303 71.6522 31.7274 71.6059C32.663 71.5187 33.6621 71.2263 34.6222 70.8211C33.9266 70.0996 33.2991 69.306 32.7559 68.449ZM27.5342 45.0825C27.6 46.9578 27.43 48.8353 27.0683 50.5903C26.8853 51.478 26.0581 54.6354 25.6817 55.128C25.6792 55.1241 25.0308 53.6724 24.708 53.1127C24.4017 52.5815 23.8223 51.7525 23.4743 51.4146C22.9521 50.9074 22.4245 50.1212 21.6881 50.3315C21.046 50.5149 20.9782 51.3964 20.7223 52.299C19.8536 55.366 18.2685 57.734 17.6961 61.0544L17.5738 61.9785C17.4385 63.8323 17.4672 64.955 18.196 66.6331C18.3592 67.0088 18.654 67.4752 18.7726 67.7995C18.534 67.7166 17.9467 67.2727 17.7239 67.1038C16.7867 66.3938 15.9089 65.5145 15.1907 64.5189C14.291 63.2714 13.538 61.5606 13.2609 59.6482C12.6618 55.5144 14.0241 51.6997 15.5736 48.5902C17.1027 45.5223 18.8533 42.8034 20.3881 39.7389C21.9008 36.718 23.41 33.2596 24.2077 29.8852C24.5634 30.0691 25.8906 31.4664 26.3793 31.9114C26.4415 31.9681 26.4747 31.9941 26.533 32.0544C26.6404 32.1655 26.6019 32.1097 26.6744 32.2357C26.891 32.3075 28.6465 34.142 28.6966 34.2314C28.8383 34.29 29.1251 34.6194 29.2536 34.7515C30.2194 35.7445 31.5594 37.0591 32.4477 38.1175C32.615 38.3167 32.8445 38.4665 32.9069 38.6905C33.1057 38.7795 33.4572 39.2657 33.6101 39.4408C33.8455 39.7103 34.0178 39.9308 34.2498 40.1914C34.6623 40.6549 35.0765 41.2145 35.4867 41.7379C36.3015 42.7774 37.0301 43.8663 37.7816 45.0579C38.2046 45.7284 38.6079 46.439 38.9827 47.1871C39.518 46.9268 40.0671 46.698 40.6261 46.5024L40.6439 46.4963C40.5289 46.2654 40.4125 46.0408 40.2955 45.8244L39.3457 44.1111C39.2422 44.0459 39.2925 44.0756 39.2206 43.9691C39.1791 43.908 39.148 43.8544 39.1045 43.785C39.0267 43.6609 38.9304 43.5417 38.9142 43.4069L38.697 43.1477C37.6053 41.5104 36.6915 40.2867 35.4265 38.7664C35.3058 38.6214 35.1881 38.4771 35.0657 38.3318L33.9326 37.0301C33.7617 36.8542 33.287 36.342 33.1945 36.1563L32.9554 35.9007L27.9745 30.863C27.6849 30.5683 27.3872 30.3388 27.095 30.0519C26.9373 29.8974 26.8136 29.7496 26.6804 29.6233C26.5001 29.4523 26.3807 29.4003 26.2742 29.2077C26.1817 29.1876 26.2199 29.2357 26.0976 29.1123C25.97 28.9835 26.0432 29.1126 26.0295 28.9821L25.2114 28.2425L25.0176 28.0293C24.8117 27.9366 24.6631 27.7751 24.5143 27.6149C24.3114 27.3966 24.2465 27.4179 24.0385 27.2422H23.4018C23.0343 27.6002 22.9597 27.411 22.8005 28.1848C22.5884 29.2135 22.1634 30.7334 21.8548 31.7134C21.3835 33.2112 20.7926 34.658 20.1983 36.0197C19.2916 38.0976 17.7523 40.9143 16.6058 42.9127C16.5028 43.0921 16.1565 43.7378 16.0264 43.8517C16.0184 44.0554 15.6814 44.533 15.5605 44.7506C14.6385 46.4092 13.5689 48.3704 12.8764 50.1189C12.8005 50.3106 12.5922 50.9312 12.5062 51.0459L11.8802 53.0752C11.8037 53.6027 11.6261 54.1936 11.5346 54.7382C11.234 56.5266 11.2073 58.3859 11.4973 60.1609C11.9255 62.7818 13.4299 65.5874 15.2296 67.2123C15.4168 67.3812 15.5021 67.5135 15.7063 67.6798L16.7702 68.5532C17.8924 69.4325 19.153 70.0858 20.4879 70.7008C20.9116 70.8961 21.4593 71.0483 21.865 71.2611C22.4972 71.5925 22.8349 71.3792 23.1854 70.975C23.3267 70.4927 23.3511 70.4342 23.1268 69.9807C23.0215 69.8878 23.0685 69.9594 23.026 69.8313C22.7746 69.7405 22.1623 69.1582 22.0631 68.9571L22.0321 68.9246C21.6932 68.7168 21.0601 67.8291 20.7848 67.4223C19.38 65.3467 19.0528 63.6912 19.5454 61.0575C19.8668 59.3393 20.9463 56.8092 21.6512 55.0675L22.3522 53.087C22.5215 53.1703 22.7355 53.5427 22.8366 53.6917C23.5956 54.8111 24.1464 56.1519 24.4488 57.4978C24.6069 58.2008 24.5225 58.7143 25.0182 59.0757C25.471 59.3266 25.5023 59.1706 25.9222 59.1621C25.9913 59.0762 25.8747 59.1658 26.0374 59.05C26.1137 58.9958 26.0471 59.039 26.1552 58.9931C26.2126 58.8388 26.3855 58.571 26.4976 58.3217L27.3229 56.1649L28.2139 53.1325C28.3343 52.3239 28.5747 51.4964 28.7124 50.6453C28.8433 49.8366 29.0064 48.8794 29.0361 48.0642L29.1008 47.1682L29.1359 46.1657L29.1336 44.7583C29.4807 44.9769 30.4236 46.1403 30.7045 46.4707C31.889 47.8642 32.9936 49.448 33.8931 51.1525C34.319 50.6423 34.7781 50.1622 35.2657 49.7145C35.2119 49.618 35.1576 49.5218 35.1028 49.426C34.3081 48.0388 33.296 46.5793 32.2955 45.3769C32.1208 45.1669 31.9639 44.9792 31.7699 44.7593C31.6287 44.5996 31.3218 44.2735 31.2527 44.1111L30.9663 43.8011L29.9983 42.8521C29.5613 42.4538 28.8622 41.5086 28.3153 41.4448C27.9128 41.3977 27.606 41.5998 27.4463 41.8275C27.224 42.1441 27.2831 42.4185 27.3402 42.8333C27.4455 43.5979 27.4673 44.3108 27.5342 45.0825Z" fill="#2B2A29"/>
</svg>
