<svg width="120" height="120" viewBox="0 0 120 120" fill="none" xmlns="http://www.w3.org/2000/svg">
<path d="M60 120C93.1371 120 120 93.1371 120 60C120 26.8629 93.1371 0 60 0C26.8629 0 0 26.8629 0 60C0 93.1371 26.8629 120 60 120Z" fill="#D9DADA"/>
<path fill-rule="evenodd" clip-rule="evenodd" d="M90.1564 91.1226C90.1564 91.5041 89.7858 91.8599 89.4191 91.8599H52.6244C52.2736 91.8599 51.8871 91.5604 51.8871 91.1896V84.9988V42.5991C51.8871 42.1168 52.3419 41.8619 52.8254 41.8619H78.3116H80.1702V51.1108C80.1702 51.5883 80.6058 51.9151 81.1085 51.9151H90.1564V52.2209V52.5271V52.8336V53.1404V53.4475V53.7548V54.0624V54.3701V54.6781V54.9863V55.2946V55.6031V55.9118V56.2205V56.5292V56.8381V57.147V57.456V57.7649V58.0738V58.3828V58.6916V59.0004V59.3091V59.6178V59.9262V60.2346V60.5427V60.8508V61.1586V61.4662V61.7735V62.0806V62.3874V62.694V63.0002V63.3061V63.6116V63.9168V64.2216V64.5259V64.8299V65.1334V65.4364V65.739V66.0411V66.3426V66.6436V66.944V67.2439V67.5432V67.8418V68.1398V68.4372V68.7338V69.0298V69.3251V69.6197V69.9134V70.2065V70.4448C89.6579 70.2545 88.183 70.2226 87.587 70.2537C86.808 70.2942 86.064 70.4368 85.3829 70.6467C79.8613 72.3487 77.0692 78.6667 79.7304 83.8663C81.2406 86.817 84.1987 88.8481 87.587 89.0232C88.9138 89.0917 89.1403 88.9191 90.1564 88.7952V88.7558V91.1226ZM81.9128 43.2023L88.8996 50.1558L81.9128 50.1725V43.2023ZM50.1446 84.9988H40.7796C40.4288 84.9988 40.0424 84.6993 40.0424 84.3285V78.1377V35.738C40.0424 35.2557 40.4971 35.0008 40.9807 35.0008H66.4668H68.3254H77.3732C77.4084 35.0009 77.4426 35.0023 77.4758 35.0047L77.4859 35.0053V35.0054L77.5081 35.0074C77.6678 35.0235 77.8197 35.0681 77.9476 35.1402C78.1826 35.2765 78.3052 35.4958 78.3114 35.7202L78.3116 35.738V40.1863H52.3562C51.342 40.1863 50.1446 41.3837 50.1446 42.398C50.1446 55.7658 50.1446 66.8494 50.1446 84.9988ZM38.2998 78.1377H28.9348C28.584 78.1377 28.1975 77.8382 28.1975 77.4674V28.8769C28.1975 28.3946 28.6522 28.1396 29.1358 28.1396H56.4805H65.5284C65.5636 28.1398 65.5978 28.1412 65.631 28.1436L65.641 28.1442V28.1443L65.6633 28.1463C65.8229 28.1624 65.9748 28.207 66.1027 28.2791C66.3377 28.4154 66.4603 28.6347 66.4665 28.8591L66.4668 28.8769V33.3252H40.5115C39.4972 33.3252 38.2998 34.5226 38.2998 35.5369C38.2998 46.5474 38.2998 57.5253 38.2998 71.5025H34.0284C33.509 71.5025 33.0901 71.8749 33.0901 72.3738C33.0901 72.8727 33.509 73.2451 34.0284 73.2451H38.2998V78.1377ZM87.3779 72.1579C89.5688 71.9152 91.4818 72.669 93.056 73.9656C93.6646 74.467 94.2951 75.2533 94.7291 76.0551C96.0024 78.4068 95.9362 81.2224 94.5729 83.5019C94.1346 84.2349 93.4923 84.987 92.8164 85.5091C87.8324 89.3583 81.1854 86.0204 80.643 80.3802C80.2475 76.267 83.1782 72.6228 87.3779 72.1579Z" fill="#FEFEFE"/>
<path fill-rule="evenodd" clip-rule="evenodd" d="M87.6163 81.2298C87.2156 81.0046 86.1568 80.2665 85.6592 79.9333C85.4389 79.7859 85.2125 79.6084 84.836 79.6432C84.284 79.6943 83.8176 80.2893 84.0611 80.9185C84.1837 81.2351 84.3308 81.3061 84.5895 81.4774C84.8271 81.6347 85.0232 81.7737 85.2589 81.9273L87.2128 83.2279C88.0633 83.7662 88.6051 82.9376 89.2519 82.29L93.084 78.4585C93.8959 77.6312 92.975 76.4915 92.0692 76.8985C91.5981 77.1103 87.9708 81.0658 87.6163 81.2298ZM56.7617 87.6599H57.7416V77.2535C57.7416 77.014 57.9375 76.8182 58.177 76.8182H60.761C61.0004 76.8182 61.1964 77.014 61.1964 77.2535V87.6599H62.3567V72.0422C62.3567 71.8028 62.5527 71.607 62.7921 71.607H65.3761C65.6156 71.607 65.8115 71.8028 65.8115 72.0422V87.6599H66.9719V74.1719C66.9719 73.9319 67.1678 73.7363 67.4072 73.7363H69.9913C70.2308 73.7363 70.4266 73.9319 70.4266 74.1719V87.6599H71.5871V69.0161C71.5871 68.777 71.7831 68.5812 72.0225 68.5812H74.6065C74.846 68.5812 75.0419 68.777 75.0419 69.0161V87.6599H75.7969C76.0309 87.6599 76.2223 87.8514 76.2223 88.0853C76.2223 88.3193 76.0309 88.5108 75.7969 88.5108H74.6065H72.0225H69.9913H67.4072H65.3761H62.7921H60.761H58.177H56.7617C56.5278 88.5108 56.3364 88.3193 56.3364 88.0854C56.3364 87.8513 56.5278 87.6599 56.7617 87.6599ZM72.438 87.6599H74.191V69.432H72.438V87.6599ZM67.8227 87.6599H69.5758V74.5872H67.8227V87.6599ZM63.2076 87.6599H64.9606V72.4578H63.2076V87.6599ZM58.5925 87.6599H60.3455V77.669H58.5925V87.6599Z" fill="#42ADE2"/>
<path fill-rule="evenodd" clip-rule="evenodd" d="M56.338 51.9664C56.338 52.3937 56.7091 52.8377 57.1422 52.8377H73.8604C74.0669 52.8377 74.3025 52.7048 74.4166 52.5898C74.9469 52.0552 74.5641 51.0952 73.6593 51.0952H57.4773C56.8236 51.0952 56.338 51.4562 56.338 51.9664ZM65.5299 28.1397H29.1374C28.6538 28.1397 28.1991 28.3946 28.1991 28.8769V77.4674C28.1991 77.8382 28.5855 78.1377 28.9363 78.1377H38.3014V73.2451H34.03C33.5105 73.2451 33.0917 72.8727 33.0917 72.3738C33.0917 71.8749 33.5105 71.5025 34.03 71.5025H38.3014V68.2185H33.8959C33.4545 68.2185 33.0917 67.7967 33.0917 67.3473C33.0917 66.8371 33.5773 66.4759 34.231 66.4759H38.2344C38.2571 66.4759 38.2794 66.4767 38.3014 66.4778V63.2482C38.2379 63.2552 38.1709 63.2589 38.1004 63.2589H34.231C33.5852 63.2589 33.0917 62.939 33.0917 62.3206C33.0917 62.1621 33.2386 61.8662 33.3396 61.7643C33.4538 61.6493 33.6894 61.5164 33.8959 61.5164H38.3014V58.2323H34.03C33.5105 58.2323 33.0917 57.86 33.0917 57.361C33.0917 56.8621 33.5105 56.4898 34.03 56.4898H38.3014V53.2057H33.8959C33.4545 53.2057 33.0917 52.7838 33.0917 52.3344C33.0917 51.9397 33.4942 51.4632 34.0969 51.4632H37.9701C38.092 51.4632 38.2022 51.4739 38.3014 51.4935V48.2158C38.2022 48.2354 38.092 48.2461 37.9701 48.2461H34.231C33.5852 48.2461 33.0917 47.9262 33.0917 47.3078C33.0917 46.9676 33.4464 46.5035 33.8959 46.5035H38.3014V43.2171C38.2807 43.2185 38.2597 43.2195 38.2382 43.2195H34.03C33.5105 43.2195 33.0917 42.8471 33.0917 42.3482C33.0917 41.8493 33.5105 41.4769 34.03 41.4769H38.2382C38.2597 41.4769 38.2807 41.4779 38.3014 41.4793V38.1706C38.2489 38.1847 38.1958 38.1929 38.1446 38.1929H33.8959C33.4628 38.1929 33.0917 37.7488 33.0917 37.3216C33.0917 36.8114 33.5773 36.4503 34.231 36.4503H37.9435C38.0741 36.4503 38.1937 36.4704 38.3014 36.5062V35.5369C38.3014 34.5226 39.4987 33.3252 40.513 33.3252H66.4683V28.8769C66.4682 28.3946 66.0135 28.1397 65.5299 28.1397ZM38.3014 79.8802H29.0034C28.5955 79.8802 28.2455 79.7964 27.9519 79.6582C27.6773 79.5288 27.4217 79.3826 27.2123 79.1915C27.087 79.0771 26.7854 78.6589 26.7051 78.4922C26.5768 78.2261 26.4565 77.8993 26.4565 77.5345V28.6758C26.4565 27.6615 27.6539 26.4641 28.6682 26.4641H65.9991C67.0134 26.4641 68.2108 27.6615 68.2108 28.6758L68.2107 33.3252H77.844C78.8583 33.3252 80.0556 34.5226 80.0556 35.5369L80.0555 40.1863H81.11C81.5943 40.1863 82.3253 41.1 82.6348 41.4095C83.0979 41.8727 83.512 42.2867 83.9752 42.7499L91.4484 50.2225C91.6983 50.4682 91.9005 50.6358 91.9005 51.1109L91.8999 71.0414C92.8385 71.5925 92.8578 71.4092 94.0003 72.3115C95.6078 73.5811 96.8036 75.4508 97.2808 77.5055C97.3424 77.7704 97.4831 78.8992 97.5254 78.9955V80.3383C97.4708 80.451 97.3393 81.5243 97.2753 81.7961C96.9747 83.0724 96.395 84.2633 95.6531 85.2588C94.9504 86.2018 93.9958 87.0711 92.9846 87.677L91.9005 88.2501V88.2073V90.9885C91.9005 92.4466 90.8073 93.6024 89.3536 93.6024H52.693C52.2851 93.6024 51.9352 93.5187 51.6415 93.3804C51.3669 93.251 51.1113 93.1048 50.9019 92.9137C50.7766 92.7993 50.475 92.3811 50.3947 92.2144C50.2664 91.9483 50.1462 91.6215 50.1462 91.2567V86.7413H40.8482C40.4404 86.7413 40.0904 86.6575 39.7968 86.5193C39.5221 86.3899 39.2666 86.2437 39.0571 86.0526C38.9319 85.9382 38.6302 85.52 38.5499 85.3533C38.4217 85.0872 38.3014 84.7604 38.3014 84.3956V79.8802ZM77.3748 35.0008H40.9822C40.4986 35.0008 40.0439 35.2557 40.0439 35.738V84.3285C40.0439 84.6993 40.4304 84.9988 40.7812 84.9988H50.1462V80.1062H45.8748C45.3554 80.1062 44.9365 79.7338 44.9365 79.235C44.9365 78.736 45.3554 78.3636 45.8748 78.3636H50.1462V75.0796H45.7407C45.2993 75.0796 44.9365 74.6578 44.9365 74.2084C44.9365 73.6982 45.4221 73.337 46.0758 73.337H50.0792C50.1019 73.337 50.1242 73.3378 50.1462 73.3389V70.1093C50.0826 70.1163 50.0157 70.12 49.9452 70.12H46.0758C45.4301 70.12 44.9365 69.8001 44.9365 69.1817C44.9365 69.0232 45.0835 68.7273 45.1844 68.6254C45.2987 68.5104 45.5343 68.3775 45.7407 68.3775H50.1462V65.0934H45.8748C45.3554 65.0934 44.9365 64.7211 44.9365 64.2221C44.9365 63.7232 45.3554 63.3509 45.8748 63.3509H50.1462V60.0668H45.7407C45.2993 60.0668 44.9365 59.645 44.9365 59.1955C44.9365 58.8008 45.339 58.3243 45.9418 58.3243H49.8148C49.9367 58.3243 50.0469 58.335 50.1462 58.3546V55.0769C50.0469 55.0965 49.9367 55.1072 49.8148 55.1072H46.0758C45.4301 55.1072 44.9365 54.7873 44.9365 54.1689C44.9365 53.8287 45.2913 53.3646 45.7407 53.3646H50.1462V50.0782C50.1255 50.0796 50.1045 50.0806 50.083 50.0806H45.8748C45.3554 50.0806 44.9365 49.7082 44.9365 49.2093C44.9365 48.7104 45.3554 48.338 45.8748 48.338H50.083C50.1045 48.338 50.1255 48.339 50.1462 48.3404V45.0317C50.0937 45.0458 50.0406 45.054 49.9894 45.054H45.7407C45.3076 45.054 44.9365 44.6099 44.9365 44.1827C44.9365 43.6725 45.4221 43.3114 46.0758 43.3114H49.7883C49.9189 43.3114 50.0385 43.3315 50.1462 43.3673V42.398C50.1462 41.3837 51.3435 40.1863 52.3578 40.1863H78.3132V35.738C78.3131 35.2557 77.8584 35.0008 77.3748 35.0008ZM90.1579 88.7952V88.7558V91.1227C90.1579 91.5041 89.7873 91.8599 89.4207 91.8599H52.6259C52.2752 91.8599 51.8887 91.5604 51.8887 91.1896V42.5991C51.8887 42.1168 52.3434 41.8619 52.827 41.8619H80.1717V51.1109C80.1717 51.5883 80.6074 51.9151 81.11 51.9151H90.1579V70.4448C89.6595 70.2545 88.1846 70.2227 87.5885 70.2537C86.8096 70.2942 86.0656 70.4368 85.3844 70.6468C79.8628 72.3488 77.0708 78.6667 79.7319 83.8663C81.2421 86.8171 84.2003 88.8481 87.5885 89.0232C88.9153 89.0917 89.1419 88.9191 90.1579 88.7952ZM81.9143 43.2023L88.9012 50.1558L81.9143 50.1725V43.2023ZM87.3794 72.1579C89.5703 71.9153 91.4834 72.669 93.0576 73.9656C93.6662 74.467 94.2966 75.2533 94.7307 76.0551C96.0039 78.4069 95.9378 81.2225 94.5745 83.502C94.1362 84.2349 93.4939 84.9871 92.818 85.5091C87.834 89.3583 81.187 86.0204 80.6445 80.3802C80.2491 76.267 83.1798 72.6228 87.3794 72.1579ZM59.4706 70.7882C59.7978 70.7882 59.6743 70.8041 59.7683 70.8334L63.1626 60.631C63.115 60.5146 63.0886 60.5957 63.0886 60.2536C63.0886 59.9115 63.535 59.2565 64.0857 59.2565C64.6363 59.2565 65.0827 59.8996 65.0827 60.2536C65.0827 60.6077 65.0461 60.5599 64.9811 60.6923L68.4672 67.1553C68.5115 67.1447 68.557 67.137 68.6033 67.1325L72.987 57.2631C72.8052 57.0825 72.6925 56.9693 72.6925 56.5557C72.6925 56.142 73.139 55.5586 73.6896 55.5586C74.2403 55.5586 74.6866 56.0214 74.6866 56.5557C74.6866 57.0899 74.2919 57.499 73.7871 57.5479L69.4034 67.4174C69.5853 67.598 69.6978 67.8483 69.6978 68.1249C69.6978 68.6755 69.2514 69.1219 68.7008 69.1219C68.1501 69.1219 67.7037 68.6755 67.7037 68.1249C67.7037 67.9674 67.7403 67.8185 67.8052 67.6862L64.3192 61.2231C64.2442 61.2411 64.1777 61.2506 64.0857 61.2506C63.9936 61.2506 63.882 61.2347 63.788 61.2054L60.3936 71.4079C60.4412 71.5243 60.4676 71.4432 60.4676 71.7853C60.4676 72.1273 60.0212 72.7823 59.4706 72.7823C58.9199 72.7823 58.4735 72.3359 58.4735 71.7853C58.4735 71.2346 59.1433 70.7882 59.4706 70.7882ZM56.338 47.3455C56.338 47.7727 56.7091 48.2167 57.1422 48.2167H73.8604C74.0669 48.2167 74.3025 48.0838 74.4166 47.9688C74.9469 47.4342 74.5641 46.4742 73.6593 46.4742H57.4773C56.8236 46.4742 56.338 46.8353 56.338 47.3455Z" fill="black"/>
</svg>
