<svg width="120" height="120" viewBox="0 0 120 120" fill="none" xmlns="http://www.w3.org/2000/svg">
<path d="M60 120C93.1371 120 120 93.1371 120 60C120 26.8629 93.1371 0 60 0C26.8629 0 0 26.8629 0 60C0 93.1371 26.8629 120 60 120Z" fill="#D9DADA"/>
<path fill-rule="evenodd" clip-rule="evenodd" d="M46.1233 68.5479C45.8022 69.3007 46.1122 70.297 46.7432 70.6955C47.3742 71.0941 48.3263 70.8948 49.2673 70.6512C50.2083 70.4077 51.1382 70.1199 52.367 69.976C53.5959 69.8321 55.1236 69.8321 57.0055 69.9649C58.8875 70.0978 61.1237 70.3634 63.0831 70.463C65.0427 70.5627 66.7254 70.4963 68.2974 70.4188C69.8694 70.3413 71.3307 70.2528 72.792 70.1199C74.2533 69.9871 75.7145 69.8099 76.9357 69.6173C78.157 69.4247 79.1381 69.2166 79.5367 68.7517C79.9352 68.2868 79.7512 67.5649 78.6849 66.8275C77.6186 66.0903 75.6703 65.3375 73.6112 64.7175C71.5521 64.0976 69.3823 63.6105 67.1903 63.4001C64.9984 63.1898 62.7843 63.2562 60.6477 63.4665C58.5111 63.6769 56.4521 64.0312 54.415 64.6068C52.3781 65.1825 50.3633 65.9796 48.8798 66.6327C47.3964 67.2859 46.4444 67.7951 46.1233 68.5479Z" fill="#42ADE2"/>
<path d="M82.3529 34.7405L85.6363 36.7234L81.5292 39.2262H81.4662L82.3529 34.7405ZM32.5541 34.7405L35.8376 36.7234L31.7303 39.2262H31.6674L32.5541 34.7405ZM35.9022 85.1416C35.9022 85.5972 36.5324 85.7391 36.7217 85.3024C36.7426 85.2502 36.7531 85.1977 36.7531 85.1416V84.6444C36.7531 84.1888 36.1229 84.0469 35.9336 84.4836C35.9127 84.5358 35.9022 84.5882 35.9022 84.6444V85.1416ZM35.9022 82.0918C35.9022 82.5474 36.5324 82.6893 36.7217 82.2526C36.7426 82.2004 36.7531 82.1479 36.7531 82.0918V81.241C36.7531 80.7855 36.1229 80.6436 35.9336 81.0802C35.9127 81.1325 35.9022 81.1849 35.9022 81.241V82.0918ZM35.9022 78.6885C35.9022 79.144 36.5324 79.2859 36.7217 78.8493C36.7426 78.797 36.7531 78.7446 36.7531 78.6885V77.8376C36.7531 77.3821 36.1229 77.2402 35.9336 77.6768C35.9127 77.7291 35.9022 77.7815 35.9022 77.8376V78.6885ZM35.9022 75.2851C35.9022 75.7406 36.5324 75.8825 36.7217 75.4459C36.7426 75.3936 36.7531 75.3412 36.7531 75.2851V74.4342C36.7531 73.9787 36.1229 73.8368 35.9336 74.2734C35.9127 74.3257 35.9022 74.3781 35.9022 74.4342V75.2851ZM35.9022 71.8817C35.9022 72.3372 36.5324 72.4791 36.7217 72.0425C36.7426 71.9902 36.7531 71.9378 36.7531 71.8817V71.0309C36.7531 70.5753 36.1229 70.4334 35.9336 70.8701C35.9127 70.9223 35.9022 70.9747 35.9022 71.0309V71.8817ZM35.9022 68.4783C35.9022 68.9339 36.5324 69.0758 36.7217 68.6391C36.7426 68.5869 36.7531 68.5344 36.7531 68.4783V67.6275C36.7531 67.1719 36.1229 67.03 35.9336 67.4667C35.9127 67.5189 35.9022 67.5714 35.9022 67.6275V68.4783ZM35.9022 65.0749C35.9022 65.5305 36.5324 65.6724 36.7217 65.2357C36.7426 65.1835 36.7531 65.1311 36.7531 65.0749V64.2241C36.7531 63.7686 36.1229 63.6267 35.9336 64.0633C35.9127 64.1156 35.9022 64.168 35.9022 64.2241V65.0749ZM35.9022 61.6716C35.9022 62.1271 36.5324 62.269 36.7217 61.8324C36.7426 61.7801 36.7531 61.7277 36.7531 61.6716V60.8207C36.7531 60.3652 36.1229 60.2233 35.9336 60.6599C35.9127 60.7122 35.9022 60.7646 35.9022 60.8207V61.6716ZM35.9022 58.2682C35.9022 58.7237 36.5324 58.8656 36.7217 58.429C36.7426 58.3767 36.7531 58.3243 36.7531 58.2682V57.4173C36.7531 56.9618 36.1229 56.8199 35.9336 57.2566C35.9127 57.3088 35.9022 57.3612 35.9022 57.4173V58.2682ZM35.9022 54.8648C35.9022 55.3203 36.5324 55.4622 36.7217 55.0256C36.7426 54.9734 36.7531 54.9209 36.7531 54.8648V54.014C36.7531 53.5584 36.1229 53.4165 35.9336 53.8532C35.9127 53.9054 35.9022 53.9579 35.9022 54.014V54.8648ZM35.9022 51.4614C35.9022 51.917 36.5324 52.0589 36.7217 51.6222C36.7426 51.57 36.7531 51.5176 36.7531 51.4614V50.6106C36.7531 50.1551 36.1229 50.0132 35.9336 50.4498C35.9127 50.5021 35.9022 50.5545 35.9022 50.6106V51.4614ZM35.9022 48.0581C35.9022 48.5136 36.5324 48.6555 36.7217 48.2189C36.7426 48.1666 36.7531 48.1142 36.7531 48.0581V47.2072C36.7531 46.7517 36.1229 46.6098 35.9336 47.0464C35.9127 47.0987 35.9022 47.1511 35.9022 47.2072V48.0581ZM35.9022 44.6548C35.9022 45.1103 36.5324 45.2522 36.7217 44.8156C36.7426 44.7633 36.7531 44.7109 36.7531 44.6548V43.8039C36.7531 43.3484 36.1229 43.2065 35.9336 43.6431C35.9127 43.6954 35.9022 43.7478 35.9022 43.8039V44.6548ZM35.9022 41.2514C35.9022 41.7069 36.5324 41.8488 36.7217 41.4122C36.7426 41.3599 36.7531 41.3075 36.7531 41.2514V40.4005H42.8748V39.2262H41.5206L37.7806 20.306C38.6531 19.8015 39.2401 18.8582 39.2401 17.7779C39.2401 16.1661 37.9334 14.8594 36.3216 14.8594C34.7099 14.8594 33.4032 16.1661 33.4032 17.7779C33.4032 18.8626 33.9952 19.8092 34.8737 20.3122L31.135 39.2262H29.7805V40.4005H35.9022V41.2514ZM40.9825 39.1992L36.8787 36.7208L40.1042 34.7554L40.9825 39.1992ZM39.8778 33.6101L36.7268 30.9154L38.9657 28.9951L39.8778 33.6101ZM38.6822 27.5608L36.5928 24.9638L37.8512 23.3562L38.6822 27.5608ZM37.6836 22.5084H34.9719L35.362 20.5347C35.6626 20.6393 35.9855 20.6963 36.3216 20.6963C36.6621 20.6963 36.9889 20.6378 37.2928 20.5306L37.6836 22.5084ZM34.782 23.4688L35.9901 24.9702L33.9769 27.5424L34.782 23.4688ZM33.6905 28.991L35.942 30.9165L32.7727 33.635L33.6905 28.991ZM32.7674 39.2262L36.3584 37.0379L39.9817 39.2262H32.7674ZM38.5219 28.117H34.1247L36.2931 25.3468L38.5219 28.117ZM35.2472 23.2914H37.3041L36.2899 24.5872L35.2472 23.2914ZM39.4578 33.9232H33.2202L36.3343 31.2521L39.4578 33.9232ZM34.3699 28.9H38.293L36.3344 30.5799L34.3699 28.9ZM33.5427 34.7062H39.1482L36.358 36.4063L33.5427 34.7062ZM36.3081 15.849C37.3899 15.849 38.2668 16.726 38.2668 17.8078C38.2668 18.8896 37.3899 19.7666 36.3081 19.7666C35.2262 19.7666 34.3493 18.8896 34.3493 17.8078C34.3493 16.726 35.2262 15.849 36.3081 15.849ZM85.701 85.1416C85.701 85.5972 86.3312 85.7391 86.5205 85.3024C86.5414 85.2502 86.5519 85.1977 86.5519 85.1416V84.6444C86.5519 84.1888 85.9217 84.0469 85.7324 84.4836C85.7115 84.5358 85.701 84.5882 85.701 84.6444V85.1416ZM85.701 82.0918C85.701 82.5474 86.3312 82.6893 86.5205 82.2526C86.5414 82.2004 86.5519 82.1479 86.5519 82.0918V81.241C86.5519 80.7855 85.9217 80.6436 85.7324 81.0802C85.7115 81.1325 85.701 81.1849 85.701 81.241V82.0918ZM85.701 78.6885C85.701 79.144 86.3312 79.2859 86.5205 78.8493C86.5414 78.797 86.5519 78.7446 86.5519 78.6885V77.8376C86.5519 77.3821 85.9217 77.2402 85.7324 77.6768C85.7115 77.7291 85.701 77.7815 85.701 77.8376V78.6885ZM85.701 75.2851C85.701 75.7406 86.3312 75.8825 86.5205 75.4459C86.5414 75.3936 86.5519 75.3412 86.5519 75.2851V74.4342C86.5519 73.9787 85.9217 73.8368 85.7324 74.2734C85.7115 74.3257 85.701 74.3781 85.701 74.4342V75.2851ZM85.701 71.8817C85.701 72.3372 86.3312 72.4791 86.5205 72.0425C86.5414 71.9902 86.5519 71.9378 86.5519 71.8817V71.0309C86.5519 70.5753 85.9217 70.4334 85.7324 70.8701C85.7115 70.9223 85.701 70.9747 85.701 71.0309V71.8817ZM85.701 68.4783C85.701 68.9339 86.3312 69.0758 86.5205 68.6391C86.5414 68.5869 86.5519 68.5344 86.5519 68.4783V67.6275C86.5519 67.1719 85.9217 67.03 85.7324 67.4667C85.7115 67.5189 85.701 67.5714 85.701 67.6275V68.4783ZM85.701 65.0749C85.701 65.5305 86.3312 65.6724 86.5205 65.2357C86.5414 65.1835 86.5519 65.1311 86.5519 65.0749V64.2241C86.5519 63.7686 85.9217 63.6267 85.7324 64.0633C85.7115 64.1156 85.701 64.168 85.701 64.2241V65.0749ZM85.701 61.6716C85.701 62.1271 86.3312 62.269 86.5205 61.8324C86.5414 61.7801 86.5519 61.7277 86.5519 61.6716V60.8207C86.5519 60.3652 85.9217 60.2233 85.7324 60.6599C85.7115 60.7122 85.701 60.7646 85.701 60.8207V61.6716ZM85.701 58.2682C85.701 58.7237 86.3312 58.8656 86.5205 58.429C86.5414 58.3767 86.5519 58.3243 86.5519 58.2682V57.4173C86.5519 56.9618 85.9217 56.8199 85.7324 57.2566C85.7115 57.3088 85.701 57.3612 85.701 57.4173V58.2682ZM85.701 54.8648C85.701 55.3203 86.3312 55.4622 86.5205 55.0256C86.5414 54.9734 86.5519 54.9209 86.5519 54.8648V54.014C86.5519 53.5584 85.9217 53.4165 85.7324 53.8532C85.7115 53.9054 85.701 53.9579 85.701 54.014V54.8648ZM85.701 51.4614C85.701 51.917 86.3312 52.0589 86.5205 51.6222C86.5414 51.57 86.5519 51.5176 86.5519 51.4614V50.6106C86.5519 50.1551 85.9217 50.0132 85.7324 50.4498C85.7115 50.5021 85.701 50.5545 85.701 50.6106V51.4614ZM85.701 48.0581C85.701 48.5136 86.3312 48.6555 86.5205 48.2189C86.5414 48.1666 86.5519 48.1142 86.5519 48.0581V47.2072C86.5519 46.7517 85.9217 46.6098 85.7324 47.0464C85.7115 47.0987 85.701 47.1511 85.701 47.2072V48.0581ZM85.701 44.6548C85.701 45.1103 86.3312 45.2522 86.5205 44.8156C86.5414 44.7633 86.5519 44.7109 86.5519 44.6548V43.8039C86.5519 43.3484 85.9217 43.2065 85.7324 43.6431C85.7115 43.6954 85.701 43.7478 85.701 43.8039V44.6548ZM85.701 41.2514C85.701 41.7069 86.3312 41.8488 86.5205 41.4122C86.5414 41.3599 86.5519 41.3075 86.5519 41.2514V40.4005H92.6736V39.2262H91.3195L87.5794 20.306C88.4519 19.8015 89.0389 18.8582 89.0389 17.7779C89.0389 16.1661 87.7322 14.8594 86.1205 14.8594C84.5087 14.8594 83.202 16.1661 83.202 17.7779C83.202 18.8626 83.794 19.8092 84.6725 20.3122L80.9338 39.2262H79.5793V40.4005H85.701V41.2514ZM90.7814 39.1992L86.6776 36.7208L89.903 34.7554L90.7814 39.1992ZM89.6767 33.6101L86.5256 30.9154L88.7645 28.9951L89.6767 33.6101ZM88.481 27.5608L86.3917 24.9638L87.65 23.3562L88.481 27.5608ZM87.4824 22.5084H84.7708L85.1609 20.5347C85.4614 20.6393 85.7843 20.6963 86.1205 20.6963C86.4609 20.6963 86.7878 20.6378 87.0915 20.5306L87.4824 22.5084ZM84.5809 23.4688L85.7889 24.9702L83.7757 27.5424L84.5809 23.4688ZM83.4893 28.991L85.7408 30.9165L82.5714 33.635L83.4893 28.991ZM82.5662 39.2262L86.1572 37.0379L89.7805 39.2262H82.5662ZM88.3207 28.117H83.9236L86.0919 25.3468L88.3207 28.117ZM85.0461 23.2914H87.103L86.0887 24.5872L85.0461 23.2914ZM89.2566 33.9232H83.019L86.1332 31.2521L89.2566 33.9232ZM84.1687 28.9H88.0918L86.1333 30.5799L84.1687 28.9ZM83.3415 34.7062H88.9469L86.1568 36.4063L83.3415 34.7062ZM86.1068 15.849C87.1887 15.849 88.0656 16.726 88.0656 17.8078C88.0656 18.8896 87.1887 19.7666 86.1068 19.7666C85.025 19.7666 84.148 18.8896 84.148 17.8078C84.148 16.726 85.025 15.849 86.1068 15.849Z" fill="#FEFEFE"/>
<path fill-rule="evenodd" clip-rule="evenodd" d="M64.3445 96.2507C64.0819 96.5132 63.6565 96.5132 63.3941 96.2507C63.1316 95.9883 63.1316 95.5628 63.3941 95.3002L64.7883 93.9061L63.394 92.5117C63.1316 92.2494 63.1316 91.8238 63.394 91.5614C63.6564 91.299 64.0819 91.299 64.3444 91.5614L65.7387 92.9557L67.133 91.5614C67.3954 91.299 67.821 91.299 68.0834 91.5614C68.3458 91.8238 68.3458 92.2494 68.0834 92.5117L66.6891 93.9061L68.0832 95.3002C68.3458 95.5628 68.3458 95.9883 68.0832 96.2507C67.8209 96.5132 67.3954 96.5132 67.1329 96.2507L65.7387 94.8564L64.3445 96.2507ZM71.8416 77.8441L67.995 76.8852C65.5774 76.4897 64.1456 76.2718 60.2118 77.0421C56.2779 77.8124 53.8851 79.7724 48.1275 80.8924C42.3699 82.0124 39.6632 82.5075 34.9112 82.1205C31.0273 81.8043 27.6601 81.5654 24.3879 81.3413C22.7237 81.2273 22.2037 81.4423 22.2037 83.1125C22.2037 85.637 22.2037 88.1617 22.2037 90.6862C22.2037 91.7461 22.8156 92.4216 23.9238 92.7184C27.8524 93.7711 32.0011 93.9087 36.108 93.8989C39.1594 93.8916 42.7219 93.1923 47.9423 92.0016C53.1626 90.8109 55.7059 89.0267 59.94 87.9589C64.1742 86.8912 65.3286 86.8066 67.995 86.6729L71.8416 86.7358C73.5946 86.8908 75.3177 87.2303 76.9932 87.7967C82.3818 89.6182 87.2789 93.7862 90.664 96.0246C93.3884 97.8261 95.1338 98.3777 96.6877 98.6851C97.6411 98.8737 97.796 98.5804 97.796 98.0611C97.796 95.0923 97.7961 92.0161 97.7961 90.003C97.7961 89.4721 97.7961 89.6404 97.7961 89.2789C97.7961 90.0525 97.808 89.2537 97.0788 88.9812C93.4725 87.6339 89.8541 86.2583 86.0413 84.4378C81.9756 82.4967 77.6887 80.0493 73.5061 78.4392C72.9502 78.2253 72.3963 78.0263 71.8416 77.8441ZM71.8416 56.7064L67.995 56.4471C65.5861 56.4541 63.9244 56.5399 59.9205 57.3239C55.9166 58.1078 53.7395 59.1407 47.65 60.091C41.5606 61.0413 38.0445 62.1108 33.2925 61.7238C29.2056 61.3909 26.2898 60.7193 23.5382 60.0004C22.2321 59.6593 22.2037 60.2492 22.2037 60.9392V67.3691C22.2037 69.4308 23.4248 70.1457 24.5141 70.2742C28.3569 70.7277 32.2016 71.4304 36.108 71.3848C39.4806 71.3454 42.7219 70.6782 48.0572 69.2414C53.3924 67.8046 55.9535 65.6844 60.0358 64.9688C64.118 64.2531 65.3961 64.5025 67.995 64.9023L71.9339 65.789C73.0995 66.1252 74.366 66.5651 75.6533 67.0699C80.9271 69.1375 86.5514 72.2888 90.3004 74.0188C93.0746 75.299 94.8433 75.7095 96.3019 76.1004C97.7402 76.4858 97.796 75.8173 97.796 75.0334L97.7958 66.3149C97.7958 65.3725 97.3994 64.8158 96.4982 64.563C91.4128 63.1361 86.4243 61.7136 82.6769 60.351C78.6113 58.8726 76.0065 57.4646 72.5922 56.8311C72.3463 56.7854 72.096 56.7439 71.8416 56.7064ZM71.8416 40.4006H67.995C50.9068 40.4006 41.3342 40.4006 24.246 40.4006C23.1743 40.4006 22.2037 40.8885 22.2037 42.3527V47.3987C22.2037 47.9669 22.3047 48.4848 23.1973 48.7472C26.6743 49.7693 30.2155 50.731 34.4893 50.988C39.1709 51.2694 41.9126 49.7072 47.5796 48.44C53.2466 47.1729 55.605 45.9763 59.7445 45.2505C63.884 44.5248 65.3634 44.5322 67.995 44.5987L71.8416 44.9113C72.8309 45.0502 73.7975 45.2336 74.7394 45.4616C79.2449 46.5529 83.1872 48.6648 86.9361 49.932C90.2801 51.0623 93.4701 51.5209 96.6436 51.906C97.3842 51.9959 97.7957 51.9643 97.7957 50.8967C97.7957 48.3559 97.7955 42.7579 97.7955 42.0522C97.7955 41.0051 97.188 40.4006 96.1346 40.4006H71.8416ZM64.3445 52.3426C64.0819 52.6051 63.6565 52.6051 63.3941 52.3426C63.1316 52.0802 63.1316 51.6547 63.3941 51.3921L64.7883 49.998L63.394 48.6036C63.1316 48.3413 63.1316 47.9157 63.394 47.6533C63.6564 47.3909 64.0819 47.3909 64.3444 47.6533L65.7387 49.0476L67.133 47.6533C67.3954 47.3909 67.821 47.3909 68.0834 47.6533C68.3458 47.9157 68.3458 48.3413 68.0834 48.6036L66.6891 49.998L68.0832 51.3921C68.3458 51.6547 68.3458 52.0802 68.0832 52.3426C67.8209 52.6051 67.3954 52.6051 67.1329 52.3426L65.7387 50.9484L64.3445 52.3426Z" fill="#2B2A29"/>
</svg>
