<svg width="120" height="120" viewBox="0 0 120 120" fill="none" xmlns="http://www.w3.org/2000/svg">
<path d="M60 120C93.1371 120 120 93.1371 120 60C120 26.8629 93.1371 0 60 0C26.8629 0 0 26.8629 0 60C0 93.1371 26.8629 120 60 120Z" fill="#D9DADA"/>
<path fill-rule="evenodd" clip-rule="evenodd" d="M82.0983 89.9881H37.9013C37.48 89.9881 37.0157 89.6284 37.0157 89.1831V30.8172C37.0157 30.238 37.562 29.9316 38.1428 29.9316H70.9886V41.0413C70.9886 41.6149 71.512 42.0074 72.1157 42.0074H82.9838V89.1025C82.9838 89.5608 82.5387 89.9881 82.0983 89.9881ZM73.0818 31.5418L81.4743 39.8942L73.0818 39.9142V31.5418Z" fill="#FEFEFE"/>
<path fill-rule="evenodd" clip-rule="evenodd" d="M64.9504 70.0225C64.9504 71.4446 65.3553 72.3713 65.9197 73.32C66.4013 74.1296 67.2409 74.8866 68.0901 75.3359C68.0808 75.7538 67.2157 78.9949 67.0435 79.6832C66.9255 80.1552 66.0058 83.6365 65.9969 84.0304L68.4881 82.5768C68.9067 82.3264 69.2983 82.0911 69.7458 81.822L70.9882 81.0518C71.5627 81.4365 75.6882 83.9438 76.06 84.0304C75.4086 81.2343 74.5455 78.1651 73.8864 75.3359C75.6516 74.4019 77.0261 72.445 77.0261 70.3446C77.0261 68.2871 76.6672 67.498 75.5308 66.0436C75.1637 65.5737 75.2393 65.687 74.7975 65.3278C70.8796 62.1428 64.9504 64.9767 64.9504 70.0225ZM45.4202 34.2422L47.788 36.3147C48.0088 36.5079 48.1694 36.6053 48.2668 36.6053C48.4324 36.6053 48.5151 36.4284 48.5151 36.0762C48.5151 35.677 48.4908 35.4043 48.4437 35.2599C48.3966 35.1138 48.296 35.0034 48.1435 34.9304C48.0202 34.8704 47.9325 34.807 47.8821 34.7389C47.8318 34.6707 47.8059 34.5831 47.8059 34.4744C47.8059 34.2082 47.9893 34.0378 48.3528 33.9615C48.5021 33.9291 48.7618 33.9128 49.1334 33.9128C49.6122 33.9128 49.9433 33.942 50.1267 33.9988C50.4189 34.0881 50.5633 34.2553 50.5633 34.5035C50.5633 34.7097 50.4448 34.8639 50.2079 34.9693C50.1121 35.0099 50.0471 35.0472 50.0131 35.078C49.9774 35.1105 49.9482 35.1576 49.9222 35.2209C49.8362 35.4303 49.7924 35.8262 49.7892 36.4105V37.9604C49.7892 38.1975 49.7908 38.522 49.7941 38.9342C49.7973 39.4925 49.7631 39.895 49.6933 40.1417C49.609 40.45 49.4532 40.6026 49.2276 40.6042C49.1302 40.6026 49.0442 40.5832 48.9728 40.541C48.903 40.5004 48.7846 40.4046 48.619 40.2569L45.7999 37.7316C45.6036 37.5548 45.4397 37.4654 45.3098 37.4654C45.1167 37.4654 45.0193 37.7332 45.0193 38.2688C45.0193 38.7086 45.0453 39.0105 45.094 39.1728C45.1427 39.3335 45.2432 39.4536 45.3958 39.5282C45.6084 39.6338 45.714 39.77 45.714 39.9373C45.714 40.3787 45.24 40.5994 44.2922 40.5994C43.8653 40.5994 43.5326 40.5426 43.2957 40.4306C43.0604 40.317 42.9419 40.1579 42.9419 39.9518C42.9419 39.8447 42.9646 39.7636 43.0084 39.71C43.0523 39.6564 43.1528 39.5834 43.3087 39.4909C43.458 39.4016 43.5473 39.2458 43.5797 39.0202C43.6333 38.6113 43.6609 38.0238 43.6609 37.2561C43.6609 36.4381 43.6122 35.8425 43.5181 35.4676C43.4824 35.3313 43.4386 35.2306 43.385 35.1641C43.3298 35.0976 43.2422 35.0342 43.1188 34.9742C42.976 34.9044 42.877 34.8363 42.8202 34.7697C42.765 34.7031 42.7374 34.622 42.7374 34.5263C42.7374 34.2228 42.9987 34.0313 43.5229 33.9518C43.6999 33.9259 44.0099 33.9128 44.4545 33.9128C44.7077 33.9128 44.8927 33.9339 45.0079 33.9729C45.1231 34.0118 45.2611 34.1027 45.4202 34.2422ZM55.127 38.3726H52.8922C52.7949 38.3726 52.7462 38.4165 52.7462 38.5025C52.7462 38.7086 52.8565 38.9018 53.0805 39.0835C53.3044 39.2669 53.5447 39.3578 53.8011 39.3578C53.9536 39.3578 54.1224 39.3286 54.3074 39.2702C54.4925 39.2117 54.6467 39.1387 54.7667 39.0527C54.8739 38.978 54.9599 38.9391 55.0232 38.9391C55.1059 38.9391 55.1871 38.9894 55.265 39.0916C55.3445 39.1923 55.385 39.2978 55.385 39.4049C55.385 39.6337 55.2423 39.8544 54.9566 40.0654C54.4519 40.4436 53.8708 40.6318 53.212 40.6318C52.5465 40.6318 51.9882 40.4388 51.5371 40.0525C51.3196 39.861 51.1378 39.6321 50.9949 39.3627C50.8083 39.004 50.7159 38.6275 50.7159 38.2315C50.7159 37.6975 50.8765 37.2204 51.1995 36.7952C51.4786 36.4268 51.8341 36.1525 52.2657 35.9724C52.5887 35.836 52.9393 35.7678 53.3159 35.7678C53.918 35.7678 54.4307 35.9383 54.8511 36.2807C55.0638 36.4528 55.2357 36.6556 55.3656 36.8893C55.515 37.1555 55.5896 37.4167 55.5896 37.67C55.5896 37.8761 55.5458 38.0449 55.4597 38.1763C55.3753 38.3078 55.2633 38.3726 55.127 38.3726ZM53.0172 37.485H53.4976C53.7005 37.485 53.8011 37.3907 53.8011 37.2042C53.8011 37.0321 53.7523 36.8925 53.6534 36.7854C53.556 36.6783 53.4278 36.6232 53.2687 36.6232C53.0919 36.6232 52.9523 36.693 52.85 36.8325C52.7543 36.9623 52.7072 37.0938 52.7072 37.2268C52.7072 37.3227 52.7299 37.3891 52.777 37.4265C52.8225 37.4654 52.902 37.485 53.0172 37.485ZM61.3088 39.6808L60.8203 38.8969C60.705 38.7184 60.6321 38.6129 60.5979 38.5772C60.5655 38.5431 60.5217 38.5252 60.4682 38.5252C60.3546 38.5252 60.236 38.6308 60.1159 38.8401L59.3223 40.2083C59.1697 40.4712 58.9994 40.6026 58.8095 40.6042C58.691 40.6026 58.5839 40.5637 58.4848 40.4825C58.3875 40.4013 58.2804 40.2634 58.1668 40.0702L56.7402 37.6975C56.5033 37.3145 56.3166 37.0646 56.1835 36.9478C56.1202 36.8957 56.005 36.8471 55.8362 36.8001C55.7664 36.7773 55.7097 36.7335 55.6642 36.6685C55.6171 36.6037 55.5944 36.5323 55.5944 36.4528C55.5944 36.2093 55.7826 36.0373 56.1609 35.9383C56.5406 35.8441 56.9561 35.7971 57.4056 35.7971C58.4167 35.7971 58.9231 35.9853 58.9231 36.3619C58.9231 36.4316 58.8744 36.5388 58.7754 36.6816C58.7559 36.7092 58.7461 36.74 58.7461 36.7708C58.7461 36.8407 58.8208 37.0143 58.9701 37.2902C59.1357 37.6034 59.2785 37.7608 59.3986 37.7608C59.4683 37.7608 59.5561 37.6813 59.6647 37.5223C59.7718 37.3632 59.8254 37.235 59.8254 37.1377C59.8254 37.0386 59.8027 36.9607 59.754 36.9023C59.707 36.8439 59.595 36.7497 59.418 36.6232C59.3093 36.5469 59.2558 36.4576 59.2558 36.3522C59.2558 36.1054 59.509 35.9431 60.017 35.8685C60.3237 35.8198 60.6856 35.7971 61.101 35.7971C61.5798 35.7971 61.9239 35.836 62.1365 35.9172C62.3491 35.9983 62.4562 36.1298 62.4562 36.3099C62.4562 36.383 62.4433 36.4413 62.4173 36.4852C62.3913 36.5307 62.3232 36.6102 62.2128 36.7238C62.1787 36.7611 62.1608 36.8114 62.1608 36.8715C62.1608 36.9558 62.2339 37.1377 62.38 37.4135C62.5066 37.6537 62.6218 37.7738 62.7273 37.7738C62.8409 37.7738 62.9853 37.6212 63.159 37.3129C63.2856 37.0824 63.3489 36.9282 63.3489 36.8519C63.3489 36.7919 63.2985 36.6978 63.1979 36.5712C63.1249 36.482 63.0875 36.3862 63.0875 36.2807C63.0875 36.1168 63.1622 36.0032 63.3115 35.9383C63.5208 35.8474 63.8243 35.8019 64.2236 35.8019C64.493 35.8019 64.7332 35.8214 64.9426 35.8636C65.0626 35.888 65.1617 35.9399 65.2363 36.0178C65.3126 36.0957 65.3516 36.1849 65.3516 36.2856C65.3516 36.3878 65.3061 36.4738 65.2185 36.5436C65.2023 36.5582 65.0919 36.6037 64.8858 36.6767C64.7673 36.7206 64.6715 36.7838 64.5953 36.8666C64.519 36.9494 64.4265 37.0954 64.3193 37.308L63.1314 39.6093C62.7824 40.2813 62.4741 40.6173 62.2079 40.6173C62.0943 40.6173 61.9677 40.5459 61.8298 40.4013C61.6918 40.2569 61.5181 40.0167 61.3088 39.6808Z" fill="#42ADE2"/>
<path fill-rule="evenodd" clip-rule="evenodd" d="M42.8925 70.9888C42.8925 71.7317 43.4855 72.116 44.2611 72.116H59.6375C61.4836 72.116 61.3291 70.0228 59.9596 70.0228H43.8586C43.6106 70.0228 43.3277 70.1824 43.1905 70.3207C43.0691 70.443 42.8925 70.7985 42.8925 70.9888ZM82.0984 89.988H37.9012C37.48 89.988 37.0158 89.6283 37.0158 89.1829V30.8171C37.0158 30.2378 37.5619 29.9315 38.1428 29.9315H70.9887V41.0411C70.9887 41.6148 71.512 42.0072 72.1157 42.0072H82.9838V89.1024C82.9838 89.5606 82.5386 89.988 82.0984 89.988ZM73.0818 31.5416L81.4742 39.8941L73.0818 39.9141V31.5416ZM34.9226 30.5756V89.2634C34.9226 89.7017 35.0671 90.0942 35.2211 90.4139C35.3177 90.6142 35.6799 91.1165 35.8305 91.2537C36.082 91.4833 36.3891 91.659 36.719 91.8144C37.0715 91.9805 37.4919 92.0811 37.9818 92.0811H82.0178C83.7639 92.0811 85.077 90.6926 85.077 88.9414V41.0411C85.077 40.4706 84.834 40.2692 84.534 39.9741L75.5573 30.9982C75.001 30.4419 74.5035 29.9445 73.9472 29.3881C73.5755 29.0164 72.6974 27.9189 72.1157 27.9189H37.5793C36.3608 27.9189 34.9226 29.3572 34.9226 30.5756ZM42.8925 46.9985C42.8925 47.5979 43.3958 48.0451 44.0196 48.0451H76.0604C77.3436 48.0451 77.3436 45.952 76.0604 45.952H44.0196C43.3958 45.952 42.8925 46.3992 42.8925 46.9985ZM42.8925 58.9937C42.8925 59.5336 43.3284 60.0402 43.8586 60.0402H76.141C77.1882 60.0402 77.6096 57.9472 75.7384 57.9472H44.1001C43.3762 57.9472 42.8925 58.5195 42.8925 58.9937ZM42.8925 52.9559C42.8925 53.6987 43.4855 54.0829 44.2611 54.0829H75.7384C77.6096 54.0829 77.1882 51.9898 76.141 51.9898H43.8586C43.3187 51.9898 42.8925 52.5471 42.8925 52.9559ZM42.8925 83.0646C42.8925 83.6638 43.3958 84.1111 44.0196 84.1111H59.879C61.3724 84.1111 61.4066 82.018 59.879 82.018H44.0196C43.3958 82.018 42.8925 82.4653 42.8925 83.0646ZM42.8925 65.0315C42.8925 65.6308 43.3958 66.0781 44.0196 66.0781H59.879C61.3637 66.0781 61.4047 63.985 59.879 63.985H44.0196C43.3958 63.985 42.8925 64.4322 42.8925 65.0315ZM42.8925 77.0267C42.8925 77.5667 43.3284 78.0733 43.8586 78.0733H59.9596C60.3002 78.0733 60.4899 77.995 60.6704 77.8181C61.3643 77.1381 60.9402 75.9802 59.7985 75.9802H44.2611C43.4759 75.9802 42.8925 76.4139 42.8925 77.0267Z" fill="black"/>
</svg>
