<svg width="120" height="120" viewBox="0 0 120 120" fill="none" xmlns="http://www.w3.org/2000/svg">
<path d="M60 120C93.1371 120 120 93.1371 120 60C120 26.8629 93.1371 0 60 0C26.8629 0 0 26.8629 0 60C0 93.1371 26.8629 120 60 120Z" fill="#D9DADA"/>
<path fill-rule="evenodd" clip-rule="evenodd" d="M70.8933 52.4961C70.874 52.5195 70.8575 52.5448 70.8353 52.567C70.8133 52.5889 70.788 52.6055 70.7644 52.625C68.0231 55.3338 64.2592 57.0095 60.1101 57.0095C55.9613 57.0095 52.1976 55.334 49.4565 52.6255C49.4327 52.6062 49.4073 52.5893 49.385 52.5671C49.3626 52.5448 49.3458 52.5192 49.3264 52.4955C46.618 49.7542 44.9423 45.9904 44.9423 41.8416C44.9423 37.6932 46.6178 33.9295 49.326 31.1885C49.3457 31.1644 49.3625 31.1387 49.3847 31.1164C49.4071 31.0939 49.4327 31.0772 49.4567 31.0576C52.1979 28.3496 55.9617 26.6739 60.1101 26.6739C64.259 26.6739 68.0228 28.3497 70.764 31.0581C70.7877 31.0776 70.813 31.0942 70.8353 31.1164C70.8574 31.1386 70.874 31.1638 70.8935 31.1877C73.6021 33.9287 75.2779 37.6926 75.2779 41.8416C75.278 45.9908 73.6022 49.7546 70.8933 52.4961ZM21.5521 72.1859H43.6227V71.708C43.6227 70.5709 44.5528 69.6408 45.6898 69.6408H49.1801C50.3171 69.6408 51.2473 70.5709 51.2473 71.708V72.1859H53.5033V70.0787H52.2487C50.2647 70.0787 48.6415 68.4555 48.6415 66.4715V65.6482C48.6415 63.6642 50.2647 62.0411 52.2487 62.0411H53.3519L53.3425 58.4145C46.8132 55.7454 42.2122 49.3314 42.2122 41.8416C42.2122 31.9568 50.2252 23.9437 60.1101 23.9437C69.9949 23.9437 78.0081 31.9568 78.0082 41.8416C78.0082 49.3311 73.4074 55.7449 66.8785 58.4141L66.8691 62.0411H68.0629C70.0468 62.0411 71.6701 63.6642 71.6701 65.6482V66.4715C71.6701 68.4555 70.0468 70.0787 68.0629 70.0787H66.8081V72.1859H69.0643V71.708C69.0643 70.5709 69.9944 69.6408 71.1314 69.6408H74.6218C75.7587 69.6408 76.6889 70.5709 76.6889 71.708V72.1859H98.4469C100.431 72.1859 102.054 73.8092 102.054 75.7931V82.4714C102.054 84.4554 100.431 86.0787 98.4469 86.0787H76.6889V86.5565C76.6889 87.6935 75.7587 88.6237 74.6218 88.6237H71.1314C69.9944 88.6237 69.0643 87.6935 69.0643 86.5565V86.0787H66.8081H53.5033H51.2473V86.5565C51.2473 87.6935 50.3171 88.6237 49.1801 88.6237H45.6898C44.5528 88.6237 43.6227 87.6935 43.6227 86.5565V86.0787H21.5521C19.568 86.0787 17.9448 84.4554 17.9448 82.4714V75.7931C17.9448 73.8092 19.568 72.1859 21.5521 72.1859ZM43.6227 74.731H21.5521C21.2626 74.731 20.9976 74.8514 20.8039 75.0449C20.6102 75.2387 20.4899 75.5038 20.4899 75.7931V82.4714C20.4899 82.7608 20.6102 83.0258 20.8039 83.2196C20.9976 83.4132 21.2626 83.5335 21.5521 83.5335H43.6227V74.731ZM53.5033 74.731H51.2473V83.5335H53.5033V74.731ZM69.0643 74.731H66.8081V83.5335H69.0643V74.731ZM76.6889 83.5335H98.4469C98.7364 83.5335 99.0014 83.4132 99.1951 83.2196C99.3888 83.0258 99.5091 82.7608 99.5091 82.4714V75.7931C99.5091 75.5038 99.3888 75.2387 99.1951 75.0449C99.0014 74.8514 98.7364 74.731 98.4469 74.731H76.6889V83.5335ZM74.1437 72.1859H71.6094V86.0787H74.1437V72.1859ZM64.263 72.1859H56.0485V83.5335H64.263V72.1859ZM48.7022 72.1859H46.1677V86.0787H48.7022V72.1859ZM55.8876 62.0411H64.3333V59.2371C62.9793 59.5651 61.5652 59.7396 60.1101 59.7396C58.6553 59.7396 57.2415 59.5651 55.8876 59.2372V62.0411ZM62.171 42.678C61.62 43.8629 60.213 44.3771 59.0279 43.8261C57.8429 43.2752 57.3288 41.8681 57.8798 40.683C58.211 39.9704 58.8526 39.5028 59.5687 39.3612L63.9218 33.2996L62.0929 40.5347C62.4462 41.1735 62.5024 41.9653 62.171 42.678ZM70.9703 40.9317H73.4232C73.2204 37.9353 72.0251 35.2083 70.1629 33.0756L68.4328 34.806C68.2552 34.9836 68.0223 35.0723 67.7895 35.0723C67.5567 35.0723 67.3235 34.9836 67.1459 34.806C66.7906 34.4504 66.7906 33.8742 67.1459 33.519L68.876 31.7889C66.7434 29.9269 64.0169 28.7316 61.0203 28.5286V30.9816C61.0203 31.4843 60.6129 31.8916 60.1102 31.8916C59.6077 31.8916 59.2003 31.4843 59.2003 30.9816V28.5287C56.204 28.7316 53.4772 29.9269 51.3444 31.7889L53.0744 33.519C53.4298 33.8745 53.4298 34.4508 53.0744 34.806C52.8965 34.9836 52.6637 35.0724 52.4308 35.0724C52.1978 35.0724 51.9649 34.9836 51.7872 34.806L50.0572 33.076C48.1952 35.2085 47.0001 37.9353 46.7972 40.9317H49.2502C49.7526 40.9317 50.1602 41.3392 50.1602 41.8417C50.1602 42.3442 49.7526 42.7518 49.2502 42.7518H46.7972C47.0001 45.748 48.1953 48.4748 50.0573 50.6073L51.7874 48.8774C52.1428 48.5221 52.7189 48.5221 53.0744 48.8774C53.4299 49.233 53.4299 49.8091 53.0744 50.1644L51.3444 51.8946C51.7582 52.2555 52.1916 52.5944 52.6478 52.9031C53.8063 49.9118 56.7104 47.7904 60.1107 47.7904C63.5109 47.7904 66.4146 49.912 67.573 52.9031C68.0292 52.5944 68.4627 52.2555 68.8765 51.8946L67.1464 50.1644C66.791 49.8089 66.791 49.2328 67.1464 48.8774C67.5015 48.5221 68.0782 48.5221 68.4333 48.8774L70.1635 50.6077C72.0256 48.475 73.2208 45.7483 73.4238 42.7519H70.9703C70.4676 42.7519 70.0602 42.3443 70.0602 41.8419C70.0603 41.3394 70.4676 40.9317 70.9703 40.9317ZM68.0629 64.5861H52.2487C51.9593 64.5861 51.6944 64.7064 51.5006 64.9C51.307 65.0937 51.1866 65.3588 51.1866 65.6482V66.4715C51.1866 66.7609 51.307 67.0259 51.5006 67.2196C51.6944 67.4132 51.9593 67.5335 52.2487 67.5335H68.0629C68.3523 67.5335 68.6174 67.4132 68.811 67.2196C69.0046 67.0259 69.1249 66.7609 69.1249 66.4715V65.6482C69.1249 65.3588 69.0046 65.0937 68.811 64.9C68.6174 64.7064 68.3523 64.5861 68.0629 64.5861Z" fill="#2B2A29"/>
<path fill-rule="evenodd" clip-rule="evenodd" d="M43.6228 83.5334V74.7308H21.5522C21.2627 74.7308 20.9977 74.8512 20.804 75.0448C20.6103 75.2385 20.49 75.5036 20.49 75.793V82.4712C20.49 82.7606 20.6103 83.0257 20.804 83.2194C20.9977 83.413 21.2627 83.5334 21.5522 83.5334H43.6228ZM53.5034 74.7308H51.2474V83.5334H53.5034V74.7308ZM69.0644 74.7308H66.8082V83.5334H69.0644V74.7308ZM76.689 83.5334H98.447C98.7365 83.5334 99.0015 83.413 99.1952 83.2194C99.3889 83.0257 99.5092 82.7606 99.5092 82.4712V75.793C99.5092 75.5036 99.3889 75.2385 99.1952 75.0448C99.0015 74.8512 98.7365 74.7308 98.447 74.7308H76.689V83.5334Z" fill="#42ADE2"/>
<path d="M24.5464 82.3087C23.7633 82.3087 23.1283 81.6737 23.1283 80.8906C23.1283 80.1074 23.7633 79.4725 24.5464 79.4725H31.4639C32.247 79.4725 32.882 80.1074 32.882 80.8906C32.882 81.6737 32.247 82.3087 31.4639 82.3087H24.5464ZM70.8932 52.496C70.8739 52.5195 70.8573 52.5447 70.8351 52.5669C70.813 52.5888 70.7879 52.6053 70.7642 52.625C68.023 55.3337 64.2591 57.0094 60.11 57.0094C55.9612 57.0094 52.1975 55.3338 49.4564 52.6255C49.4325 52.606 49.4071 52.5892 49.3848 52.567C49.3625 52.5447 49.3457 52.5191 49.3262 52.4954C46.6179 49.7541 44.9422 45.9903 44.9422 41.8415C44.9422 37.693 46.6176 33.9294 49.3258 31.1883C49.3455 31.1643 49.3623 31.1386 49.3846 31.1162C49.4069 31.0938 49.4325 31.0771 49.4565 31.0575C52.1979 28.3495 55.9615 26.6738 60.11 26.6738C64.2588 26.6738 68.0225 28.3496 70.7638 31.058C70.7876 31.0775 70.813 31.0941 70.8351 31.1162C70.8573 31.1384 70.8738 31.1637 70.8933 31.1876C73.6019 33.9286 75.2777 37.6925 75.2777 41.8415C75.2778 45.9907 73.602 49.7546 70.8932 52.496ZM35.151 82.1885C34.3678 82.1885 33.7329 81.5536 33.7329 80.7704C33.7329 79.9873 34.3678 79.3523 35.151 79.3523H35.1584C35.9415 79.3523 36.5765 79.9873 36.5765 80.7704C36.5765 81.5536 35.9415 82.1885 35.1584 82.1885H35.151ZM62.171 42.6779C61.6199 43.8628 60.2128 44.377 59.0278 43.8261C57.8426 43.2751 57.3286 41.8679 57.8796 40.6829C58.2108 39.9703 58.8524 39.5027 59.5686 39.3611L63.9215 33.2994L62.0928 40.5346C62.446 41.1735 62.5022 41.9652 62.171 42.6779ZM70.9702 40.9316H73.4231C73.2202 37.9352 72.0249 35.2082 70.1628 33.0755L68.4327 34.8059C68.255 34.9834 68.0221 35.0722 67.7893 35.0722C67.5565 35.0722 67.3233 34.9834 67.1458 34.8059C66.7904 34.4503 66.7904 33.874 67.1458 33.5188L68.8759 31.7889C66.7432 29.9268 64.0167 28.7314 61.0202 28.5285V30.9815C61.0202 31.4842 60.6127 31.8915 60.1102 31.8915C59.6077 31.8915 59.2002 31.4842 59.2002 30.9815V28.5286C56.2038 28.7315 53.4771 29.9268 51.3442 31.7889L53.0743 33.5189C53.4297 33.8744 53.4297 34.4507 53.0743 34.8059C52.8963 34.9834 52.6636 35.0723 52.4306 35.0723C52.1977 35.0723 51.9649 34.9834 51.787 34.8059L50.057 33.0759C48.195 35.2085 46.9999 37.9353 46.797 40.9316H49.2499C49.7526 40.9316 50.16 41.3391 50.16 41.8416C50.16 42.3441 49.7524 42.7517 49.2499 42.7517H46.797C46.9999 45.7479 48.1952 48.4747 50.0572 50.6073L51.7873 48.8772C52.1428 48.522 52.7188 48.522 53.0743 48.8772C53.4298 49.2329 53.4298 49.809 53.0743 50.1643L51.3442 51.8944C51.7581 52.2554 52.1915 52.5943 52.6477 52.9029C53.8061 49.9116 56.7102 47.7902 60.1106 47.7902C63.5107 47.7902 66.4144 49.9119 67.5729 52.9029C68.0291 52.5943 68.4625 52.2554 68.8763 51.8944L67.1463 50.1643C66.7908 49.8088 66.7908 49.2327 67.1463 48.8772C67.5015 48.522 68.078 48.522 68.4331 48.8772L70.1633 50.6076C72.0253 48.4749 73.2208 45.7482 73.4236 42.7518H70.9702C70.4673 42.7518 70.06 42.3442 70.06 41.8418C70.0601 41.3393 70.4673 40.9316 70.9702 40.9316Z" fill="#FEFEFE"/>
</svg>
