<svg width="255" height="70" viewBox="0 0 255 70" fill="none" xmlns="http://www.w3.org/2000/svg">
<path fill-rule="evenodd" clip-rule="evenodd" d="M134.057 46.0873H135.725H140.93H142.598L157.893 57.6236V46.0873H164.919V68.8313H164.412H157.893H157.538L140.93 56.305V68.8313H134.057V46.0873ZM5.30174 55.1179C-13.8486 27.9161 25.6462 25.1156 17.6773 0.599121C37.1076 29.2798 0.790128 26.7904 5.30174 55.1179ZM180.523 55.2624H193.777V59.6105H180.523V64.4374H198.395V68.7855H180.523V68.8313H169.988V46.0873H170.466H180.523H198.395V50.4354H180.523V55.2624ZM213.47 55.6794H224.716V60.0275H213.47V68.8313H202.934V46.0873H209.163H213.47H235.464H246H254.696V50.4354H246V68.8313H235.464V50.4354H213.47V55.6794Z" fill="white"/>
<path fill-rule="evenodd" clip-rule="evenodd" d="M44.1012 46.0873H52.7978H63.3335H72.0297V50.4354H63.3335V68.8313H52.7978V50.4354H44.1012V46.0873ZM15.9363 69.5002C-3.21409 42.2984 36.2808 39.498 28.3118 14.9814C47.7421 43.6621 11.4246 41.1727 15.9363 69.5002ZM121.303 50.4354V68.8313H110.767V50.4354H102.071V46.0873H110.767H121.303H129.999V50.4354H121.303ZM79.7488 60.804H89.7979L84.7821 51.4143L79.7488 60.804ZM92.1206 65.1521H77.418L75.4458 68.8313H69.0629L81.2547 46.0873H81.9366H87.6376H92.472L104.621 68.8313H94.0855L92.1206 65.1521Z" fill="white"/>
</svg>
