<svg width="54" height="50" viewBox="0 0 54 50" fill="none" xmlns="http://www.w3.org/2000/svg">
<path fill-rule="evenodd" clip-rule="evenodd" d="M40.1895 8.3242C40.1544 8.84128 40.2118 12.0008 37.4049 10.4091C34.5981 8.81739 28.8184 4.84134 25.623 2.45262C22.4277 0.0639367 21.2471 0.233425 20.7564 0.097082C20.2658 -0.0392605 19.8517 -0.0244955 19.3748 0.0946304C18.8978 0.213756 18.358 0.437191 16.5233 1.61707C14.6886 2.79696 11.5591 4.93326 9.43839 6.42147C7.31769 7.90969 6.20586 8.74984 5.60811 9.52181C5.01038 10.2938 4.9268 10.9976 5.45533 11.5289C5.98387 12.0602 7.12456 12.419 12.4597 13.1537C17.7949 13.8884 27.3245 14.9991 32.6688 15.5723C33.598 15.672 42.1343 16.0313 42.1883 18.3307C42.2307 20.1331 42.2847 22.565 42.2279 24.2229C42.1712 25.8809 42.2408 26.385 41.9182 26.6005C41.5956 26.816 40.8807 26.7428 35.2543 26.1771C29.6279 25.6114 18.8566 24.349 13.3133 23.5428C7.76997 22.7366 7.2339 22.7616 7.06882 21.7955C6.9037 20.8295 7.10954 18.8723 7.18091 17.8891C7.25226 16.906 7.36564 16.213 8.00764 16.2666C8.64966 16.3201 9.71638 17.4864 11.2197 17.6934C12.723 17.9004 14.9289 17.0198 16.9336 17.2144C18.9383 17.4091 21.5554 19.1368 24.1871 19.363C26.8189 19.5892 29.5541 18.3647 31.3447 18.3272C33.0013 18.2926 37.074 19.5068 38.3095 20.5933C39.0369 21.2331 39.0925 21.9651 39.0015 22.5014C38.9106 23.0377 38.6731 23.3782 37.7229 23.2885C36.7726 23.1989 34.6275 21.8165 32.3172 21.562C30.007 21.3074 27.6076 22.5613 25.5264 22.393C22.9539 22.1851 20.8057 20.5532 17.9919 20.0641C14.6848 19.4892 9.33635 21.2359 9.58426 21.7848C9.70518 22.0525 14.7308 21.1048 17.6427 21.885C19.4428 22.3673 22.2469 23.7383 24.9389 24.0939C27.6308 24.4496 30.0533 23.1994 32.5273 23.4845C35.0013 23.7697 37.2838 25.1147 38.5253 25.1477C39.4879 25.1733 40.7359 24.5343 40.7541 22.7096C40.7627 21.8444 40.7637 20.8458 40.3829 20.0514C40.0021 19.2569 39.3739 18.6675 38.021 18.1232C36.6682 17.5789 34.5463 16.5916 32.1026 16.4843C29.6589 16.3771 26.8934 17.7711 24.2614 17.5419C21.8618 17.333 19.5456 16.0596 16.9319 15.6852C15.2733 15.4476 13.3348 16.7677 11.3736 16.1347C9.65907 15.5814 5.98364 12.608 5.67561 16.4475C5.55585 17.9401 5.32893 19.817 5.3511 21.3031C5.37327 22.7892 5.85346 23.3321 6.20311 23.7548C6.55272 24.1775 6.77803 24.4224 12.7148 25.2587C18.6515 26.095 30.9047 27.6507 36.0302 28.0533C41.1557 28.4559 42.5865 28.4908 43.0911 28.1567C43.5957 27.8226 43.9885 27.3596 44.0134 26.279C44.0383 25.1983 44.1328 25.1628 44.0988 23.4788C44.0647 21.7947 44.0519 19.4826 43.9698 17.7587C43.8204 14.6253 38.9603 14.263 33.7226 13.7419C28.1589 13.1883 18.1788 12.0325 13.1544 11.3259C8.13 10.6193 8.06136 10.3619 8.23409 10.0853C8.40678 9.8087 8.82079 9.51296 10.5065 8.3374C12.1922 7.16186 15.1495 5.10651 16.8278 3.95315C18.5061 2.79979 18.9054 2.54839 19.3114 2.42534C19.7175 2.30227 20.1303 2.30751 20.594 2.35304C21.0577 2.39855 21.9442 2.36834 24.5228 4.30049C26.445 5.74075 36.0005 12.7434 38.9636 13.2579C41.3795 13.5084 42.1527 11.1912 42.3884 10.3402C42.6299 8.41643 42.7125 7.44385 44.3369 6.37417C44.4636 6.29082 44.6824 6.11001 44.8061 6.07456C45.4293 5.57414 46.0824 5.00349 46.5986 4.36534C46.837 4.07066 46.9261 3.93171 47.1314 3.54023C47.4662 3.53897 47.9481 3.41099 48.4803 3.66353C48.7128 3.77391 48.7441 3.88165 48.8832 4.00162C48.9198 3.83956 48.8693 3.70259 48.7885 3.56791C48.6759 3.38043 48.5873 3.34807 48.3388 3.21779C48.8485 2.94068 48.7589 2.71492 48.8309 2.43735L48.7657 2.40317C48.5666 2.76331 48.2098 2.90311 47.9115 2.98404C46.8811 3.2636 47.6142 2.79718 45.7709 2.4997C44.3373 2.2683 42.1875 2.46997 41.1393 3.63729C41.0625 3.72276 41.0229 3.80131 40.9348 3.90587C40.7628 4.32721 40.5922 4.58294 40.4744 5.04404C40.2006 6.11514 40.166 7.22489 40.1895 8.3242ZM43.5498 3.24128C43.761 3.35198 43.8465 3.62599 43.7358 3.83724C43.5613 4.17017 43.0526 4.11667 42.9407 3.75846C42.8328 3.41271 43.1996 3.05771 43.5498 3.24128Z" fill="url(#paint0_linear_1060_3)"/>
<path d="M9.30463 45.5745C9.30463 46.0758 9.1326 46.4986 8.78853 46.8426C8.44446 47.1965 8.02174 47.3735 7.52039 47.3735H2.18239V46.1496H7.52039C7.67767 46.1496 7.81039 46.0906 7.91852 45.9726C8.03649 45.8645 8.09547 45.7318 8.09547 45.5745V43.9967H2.38883C1.8973 43.9967 1.47459 43.8246 1.12068 43.4806C0.776615 43.1267 0.60458 42.704 0.60458 42.2124V37.2283C0.60458 36.7368 0.776615 36.319 1.12068 35.9749C1.47459 35.621 1.8973 35.4441 2.38883 35.4441H7.52039C8.02174 35.4441 8.44446 35.621 8.78853 35.9749C9.1326 36.319 9.30463 36.7368 9.30463 37.2283V45.5745ZM2.38883 42.7875H7.52039C7.67767 42.7875 7.81039 42.7335 7.91852 42.6253C8.03649 42.5074 8.09547 42.3697 8.09547 42.2124V37.2283C8.09547 37.071 8.03649 36.9383 7.91852 36.8302C7.81039 36.7122 7.67767 36.6532 7.52039 36.6532H2.38883C2.23154 36.6532 2.09391 36.7122 1.97594 36.8302C1.86781 36.9383 1.81374 37.071 1.81374 37.2283V42.2124C1.81374 42.3697 1.86781 42.5074 1.97594 42.6253C2.09391 42.7335 2.23154 42.7875 2.38883 42.7875ZM17.5176 35.4441C18.019 35.4441 18.4417 35.621 18.7858 35.9749C19.1397 36.319 19.3166 36.7368 19.3166 37.2283V40.325H11.811V42.2124C11.811 42.3697 11.865 42.5074 11.9732 42.6253C12.0911 42.7335 12.2288 42.7875 12.3861 42.7875H19.3166V43.9967H12.3861C11.8945 43.9967 11.4718 43.8246 11.1179 43.4806C10.7738 43.1267 10.6018 42.704 10.6018 42.2124V37.2283C10.6018 36.7368 10.7738 36.319 11.1179 35.9749C11.4718 35.621 11.8945 35.4441 12.3861 35.4441H17.5176ZM11.811 39.1158H18.0927V37.2283C18.0927 37.071 18.0337 36.9383 17.9158 36.8302C17.8076 36.7122 17.6749 36.6532 17.5176 36.6532H12.3861C12.2288 36.6532 12.0911 36.7122 11.9732 36.8302C11.865 36.9383 11.811 37.071 11.811 37.2283V39.1158ZM22.5958 35.4441H27.7274C28.2287 35.4441 28.6515 35.621 28.9955 35.9749C29.3494 36.319 29.5264 36.7368 29.5264 37.2283V42.2124C29.5264 42.704 29.3494 43.1267 28.9955 43.4806C28.6515 43.8246 28.2287 43.9967 27.7274 43.9967H22.5958C22.1043 43.9967 21.6816 43.8246 21.3277 43.4806C20.9836 43.1267 20.8116 42.704 20.8116 42.2124V37.2283C20.8116 36.7368 20.9836 36.319 21.3277 35.9749C21.6816 35.621 22.1043 35.4441 22.5958 35.4441ZM27.7274 36.6532H22.5958C22.4385 36.6532 22.3009 36.7122 22.1829 36.8302C22.0748 36.9383 22.0207 37.071 22.0207 37.2283V42.2124C22.0207 42.3697 22.0748 42.5074 22.1829 42.6253C22.3009 42.7335 22.4385 42.7875 22.5958 42.7875H27.7274C27.8847 42.7875 28.0174 42.7335 28.1255 42.6253C28.2435 42.5074 28.3025 42.3697 28.3025 42.2124V37.2283C28.3025 37.071 28.2435 36.9383 28.1255 36.8302C28.0174 36.7122 27.8847 36.6532 27.7274 36.6532ZM32.2748 42.7875V43.9967H31.0656V42.7875H32.2748ZM41.1498 35.4441C41.6413 35.4441 42.0591 35.621 42.4032 35.9749C42.7571 36.319 42.934 36.7368 42.934 37.2283V42.2124C42.934 42.704 42.7571 43.1267 42.4032 43.4806C42.0591 43.8246 41.6413 43.9967 41.1498 43.9967H35.4284V47.3882H34.2192V35.4441H41.1498ZM41.7249 42.2124V37.2283C41.7249 37.071 41.6659 36.9383 41.5479 36.8302C41.4398 36.7122 41.3071 36.6532 41.1498 36.6532H36.0182C35.861 36.6532 35.7233 36.7122 35.6054 36.8302C35.4874 36.9383 35.4284 37.071 35.4284 37.2283V42.2124C35.4284 42.3697 35.4874 42.5074 35.6054 42.6253C35.7233 42.7335 35.861 42.7875 36.0182 42.7875H41.1498C41.3071 42.7875 41.4398 42.7335 41.5479 42.6253C41.6659 42.5074 41.7249 42.3697 41.7249 42.2124ZM52.5345 45.5892C52.5345 46.0906 52.3625 46.5133 52.0184 46.8574C51.6743 47.2113 51.2516 47.3882 50.7503 47.3882H45.4123V46.1643H50.7503C50.9076 46.1643 51.0403 46.1053 51.1484 45.9874C51.2664 45.8792 51.3254 45.7465 51.3254 45.5892V43.9967H45.6187C45.1272 43.9967 44.7045 43.8246 44.3506 43.4806C44.0065 43.1267 43.8345 42.704 43.8345 42.2124V35.4736H45.0436V42.2124C45.0436 42.3697 45.0977 42.5074 45.2058 42.6253C45.3238 42.7335 45.4614 42.7875 45.6187 42.7875H50.7503C50.9076 42.7875 51.0403 42.7335 51.1484 42.6253C51.2664 42.5074 51.3254 42.3697 51.3254 42.2124V35.4736H52.5345V45.5892Z" fill="white"/>
<defs>
<linearGradient id="paint0_linear_1060_3" x1="5.31666" y1="18.6807" x2="44.1061" y2="18.6807" gradientUnits="userSpaceOnUse">
<stop stop-color="white" stop-opacity="0.3"/>
<stop offset="1" stop-color="white"/>
</linearGradient>
</defs>
</svg>
